# https://github.com/mikedh/trimesh

o m14.off
v 0.53501700 0.39460300 0.39914700
v 0.49763700 0.54962400 0.54792900
v 0.50498500 0.62323800 0.63164200
v 0.54625800 0.70578400 0.74270500
v 0.56577000 0.71593900 0.76388100
v 0.61832100 0.69967000 0.77357500
v 0.65135900 0.67324600 0.76209300
v 0.66648500 0.65930800 0.75483900
v 0.66488600 0.63666700 0.72943500
v 0.67491100 0.61135200 0.70718000
v 0.69911200 0.58905200 0.69557400
v 0.71702500 0.57656500 0.69134500
v 0.78031500 0.52226600 0.66535600
v 0.82569100 0.48045400 0.64359500
v 0.80606900 0.36992000 0.51342600
v 0.85352100 0.34227300 0.50811700
v 0.89889700 0.30046100 0.48635700
v 0.90613500 0.27369500 0.46107600
v 0.89569800 0.25517700 0.43554800
v 0.97428700 0.23501200 0.45456500
v 0.97500000 0.22229700 0.44113700
v 0.91758700 0.22295000 0.41196600
v 0.89090000 0.18725200 0.35933600
v 0.85697600 0.17832000 0.33198600
v 0.84908800 0.16549200 0.31395900
v 0.82910100 0.16381300 0.30173500
v 0.77702500 0.17160600 0.28309000
v 0.62101800 0.39574300 0.44514200
v 0.65963100 0.37222000 0.43971000
v 0.70334400 0.36007600 0.44928000
v 0.73726900 0.36900800 0.47663000
v 0.75909400 0.38909000 0.50978200
v 0.75719300 0.42299500 0.54558900
v 0.73251600 0.45377200 0.56614600
v 0.69669000 0.47874500 0.57460300
v 0.65019000 0.48943900 0.56200800
v 0.61626500 0.48050700 0.53465800
v 0.59444000 0.46042500 0.50150600
v 0.59912900 0.42797000 0.46872400
v 0.67676700 0.42475700 0.50564400
v 0.67512200 0.24942700 0.31451100
v 0.64089600 0.29704200 0.34837200
v 0.47926800 0.36558900 0.33864500
v 0.27463900 0.43356700 0.30592100
v 0.17048800 0.44915200 0.26863000
v 0.04451230 0.44465500 0.19818700
v 0.02500000 0.43450000 0.17701100
v 0.03295120 0.39502000 0.13830300
v 0.06041480 0.36569400 0.12077100
v 0.07554030 0.35175700 0.11351700
v 0.10739100 0.34652400 0.12441400
v 0.13971600 0.33281400 0.12636000
v 0.16391700 0.31051400 0.11475400
v 0.17625500 0.29512600 0.10447500
v 0.23397000 0.23792600 0.07243590
v 0.27934600 0.19611400 0.05067520
v 0.43812300 0.17842500 0.11411200
v 0.46327400 0.13917200 0.08460300
v 0.50865100 0.09736040 0.06284230
v 0.54376400 0.08510160 0.06781280
v 0.57235100 0.08689420 0.08463640
v 0.57846600 0.02901030 0.02500000
v 0.59590400 0.02500000 0.02972320
v 0.61096500 0.06337160 0.07920450
v 0.66790300 0.07119500 0.11732700
v 0.68972700 0.09127710 0.15048000
v 0.70971500 0.09295570 0.16270400
v 0.71760200 0.10578400 0.18073100
v 0.72127600 0.14259100 0.22258800
v 0.45376900 0.30870000 0.26363600
v 0.47565800 0.27647300 0.24005300
v 0.48034600 0.24401800 0.20727200
v 0.45852200 0.22393600 0.17411900
v 0.42459700 0.21500400 0.14677000
v 0.37809600 0.22569800 0.13417500
v 0.34227000 0.25067100 0.14263200
v 0.31759400 0.28144800 0.16318900
v 0.31569300 0.31535300 0.19899600
v 0.33751700 0.33543500 0.23214800
v 0.37144200 0.34436700 0.25949800
v 0.41515600 0.33222300 0.26906800
v 0.37014500 0.26517900 0.17288300
v 0.64446000 0.23346900 0.28123500
v 0.58514600 0.26802800 0.28787000
v 0.77802900 0.13357300 0.23751100
v 0.77631900 0.13283100 0.23629800
v 0.77512800 0.13250700 0.23629200
v 0.77330500 0.13215000 0.23688600
v 0.77207600 0.13195400 0.23748300
v 0.77140600 0.13204900 0.23868400
v 0.77069700 0.13227200 0.24048800
v 0.77062200 0.13252800 0.24169200
v 0.77169900 0.13323700 0.24350500
v 0.77340900 0.13397900 0.24471700
v 0.77460000 0.13430300 0.24472300
v 0.77642300 0.13466000 0.24412900
v 0.77765100 0.13485600 0.24353300
v 0.77832200 0.13476100 0.24233100
v 0.77903100 0.13453800 0.24052700
v 0.77910600 0.13428100 0.23932300
v 0.78133300 0.13669600 0.23296800
v 0.77620300 0.13447000 0.22932900
v 0.77263100 0.13349900 0.22931200
v 0.76716100 0.13242700 0.23109300
v 0.76347600 0.13184000 0.23288300
v 0.76146400 0.13212400 0.23648800
v 0.75933900 0.13279300 0.24189900
v 0.75911200 0.13356300 0.24551200
v 0.76234400 0.13568800 0.25094900
v 0.76747500 0.13791500 0.25458800
v 0.77104600 0.13888600 0.25460500
v 0.77651700 0.13995800 0.25282300
v 0.78020100 0.14054400 0.25103400
v 0.78221300 0.14026000 0.24742900
v 0.78433900 0.13959200 0.24201800
v 0.78456500 0.13882200 0.23840500
v 0.78010000 0.14400100 0.23060100
v 0.77154900 0.14029000 0.22453700
v 0.76559700 0.13867200 0.22450800
v 0.75648000 0.13688500 0.22747700
v 0.75033900 0.13590700 0.23046000
v 0.74698500 0.13638100 0.23646800
v 0.74344300 0.13749500 0.24548600
v 0.74306500 0.13877800 0.25150800
v 0.74845200 0.14232100 0.26056900
v 0.75700300 0.14603200 0.26663400
v 0.76295500 0.14765000 0.26666200
v 0.77207200 0.14943700 0.26369300
v 0.77821300 0.15041500 0.26071100
v 0.78156700 0.14994100 0.25470300
v 0.78510900 0.14882700 0.24568400
v 0.78548700 0.14754400 0.23966200
v 0.76057700 0.16507500 0.23848400
v 0.75031600 0.16062200 0.23120700
v 0.74317300 0.15868000 0.23117300
v 0.73223200 0.15653600 0.23473600
v 0.72486300 0.15536300 0.23831500
v 0.72083900 0.15593100 0.24552400
v 0.71658800 0.15726800 0.25634700
v 0.71613500 0.15880800 0.26357300
v 0.72259800 0.16305900 0.27444700
v 0.73286000 0.16751200 0.28172400
v 0.74000300 0.16945400 0.28175800
v 0.75094300 0.17159800 0.27819500
v 0.75831300 0.17277100 0.27461600
v 0.76233700 0.17220300 0.26740700
v 0.76658800 0.17086600 0.25658400
v 0.76704100 0.16932700 0.24935800
v 0.70922000 0.21394000 0.26237400
v 0.69810400 0.20911600 0.25449000
v 0.69036600 0.20701200 0.25445300
v 0.67851300 0.20468900 0.25831200
v 0.67053000 0.20341800 0.26219000
v 0.66617000 0.20403400 0.27000000
v 0.66156500 0.20548300 0.28172500
v 0.66107500 0.20715000 0.28955300
v 0.66807700 0.21175600 0.30133300
v 0.67919300 0.21658000 0.30921600
v 0.68693100 0.21868400 0.30925300
v 0.69878400 0.22100700 0.30539400
v 0.70676700 0.22227700 0.30151600
v 0.71112700 0.22166200 0.29370600
v 0.71573200 0.22021300 0.28198200
v 0.71622200 0.21854600 0.27415300
v 0.67422200 0.24156300 0.28137600
v 0.66567100 0.23785200 0.27531200
v 0.65971800 0.23623300 0.27528300
v 0.65060100 0.23444600 0.27825200
v 0.64110600 0.23394200 0.28724300
v 0.63756400 0.23505700 0.29626100
v 0.63718700 0.23634000 0.30228300
v 0.64257300 0.23988200 0.31134500
v 0.65112400 0.24359300 0.31740900
v 0.65707600 0.24521200 0.31743700
v 0.66619400 0.24699900 0.31446900
v 0.67233500 0.24797600 0.31148600
v 0.67568800 0.24750300 0.30547800
v 0.67923100 0.24638800 0.29645900
v 0.67960800 0.24510600 0.29043700
v 0.66349400 0.24836300 0.28800000
v 0.65665300 0.24539500 0.28314800
v 0.65189100 0.24410000 0.28312600
v 0.64459800 0.24267000 0.28550000
v 0.63968500 0.24188800 0.28788700
v 0.63700200 0.24226700 0.29269300
v 0.63416800 0.24315900 0.29990800
v 0.63386600 0.24418500 0.30472500
v 0.63817500 0.24701900 0.31197400
v 0.64501600 0.24998800 0.31682600
v 0.64977800 0.25128300 0.31684900
v 0.65707200 0.25271200 0.31447400
v 0.66198500 0.25349400 0.31208700
v 0.66466700 0.25311500 0.30728100
v 0.66750100 0.25222400 0.30006600
v 0.66780300 0.25119800 0.29524900
v 0.64150500 0.28404700 0.29114900
v 0.62611300 0.27736800 0.28023400
v 0.61539900 0.27445400 0.28018300
v 0.59898800 0.27123800 0.28552600
v 0.58793400 0.26947800 0.29089500
v 0.58189700 0.27033000 0.30170900
v 0.57552100 0.27233700 0.31794300
v 0.57484200 0.27464500 0.32878300
v 0.58453700 0.28102200 0.34509300
v 0.59992900 0.28770200 0.35600800
v 0.61064300 0.29061600 0.35605900
v 0.62705400 0.29383200 0.35071600
v 0.63810800 0.29559100 0.34534700
v 0.64414500 0.29473900 0.33453300
v 0.65052100 0.29273300 0.31829900
v 0.65120000 0.29042400 0.30745900
v 0.62954400 0.29815200 0.29540600
v 0.61244200 0.29073100 0.28327700
v 0.60053700 0.28749300 0.28322100
v 0.58230300 0.28392000 0.28915800
v 0.57002100 0.28196500 0.29512400
v 0.56331300 0.28291200 0.30713900
v 0.55622900 0.28514100 0.32517700
v 0.55547400 0.28770600 0.33722100
v 0.56624700 0.29479200 0.35534300
v 0.58334900 0.30221300 0.36747200
v 0.59525300 0.30545100 0.36752800
v 0.61348800 0.30902400 0.36159100
v 0.62577000 0.31097900 0.35562600
v 0.63247700 0.31003300 0.34361000
v 0.63956200 0.30780300 0.32557200
v 0.64031700 0.30523800 0.31352800
v 0.55391700 0.36783900 0.33167400
v 0.53681400 0.36041800 0.31954500
v 0.52491000 0.35718000 0.31948900
v 0.50667500 0.35360700 0.32542600
v 0.49439300 0.35165200 0.33139100
v 0.48768600 0.35259800 0.34340700
v 0.48060100 0.35482800 0.36144500
v 0.47984600 0.35739300 0.37348900
v 0.49061900 0.36447900 0.39161100
v 0.50772100 0.37190000 0.40374000
v 0.51962600 0.37513800 0.40379600
v 0.53786000 0.37871100 0.39785900
v 0.55014300 0.38066600 0.39189400
v 0.55685000 0.37971900 0.37987800
v 0.56393400 0.37749000 0.36184000
v 0.56468900 0.37492500 0.34979600
v 0.54607400 0.36889700 0.33839300
v 0.53239200 0.36296000 0.32869000
v 0.52286900 0.36037000 0.32864500
v 0.50828100 0.35751100 0.33339500
v 0.49845500 0.35594700 0.33816700
v 0.49309000 0.35670400 0.34778000
v 0.48742200 0.35848800 0.36221000
v 0.48681800 0.36054000 0.37184500
v 0.49543600 0.36620800 0.38634300
v 0.50911800 0.37214600 0.39604600
v 0.51864200 0.37473600 0.39609100
v 0.53322900 0.37759500 0.39134100
v 0.54305500 0.37915800 0.38656900
v 0.54842100 0.37840100 0.37695600
v 0.55408800 0.37661800 0.36252600
v 0.55469200 0.37456500 0.35289100
v 0.55405600 0.37079500 0.33012800
v 0.53524400 0.36263100 0.31678600
v 0.52214900 0.35907000 0.31672400
v 0.50209100 0.35513900 0.32325500
v 0.48858000 0.35298900 0.32981700
v 0.48120300 0.35403000 0.34303400
v 0.47341000 0.35648200 0.36287600
v 0.47257900 0.35930400 0.37612400
v 0.48442900 0.36709800 0.39605900
v 0.50324100 0.37526200 0.40940000
v 0.51633700 0.37882300 0.40946200
v 0.53639500 0.38275400 0.40293100
v 0.54990500 0.38490400 0.39636900
v 0.55728300 0.38386300 0.38315200
v 0.56507600 0.38141100 0.36331100
v 0.56590600 0.37858900 0.35006200
v 0.49809200 0.42236300 0.35696600
v 0.47927900 0.41419900 0.34362500
v 0.46618400 0.41063800 0.34356200
v 0.44612600 0.40670700 0.35009300
v 0.43261600 0.40455700 0.35665500
v 0.42523800 0.40559800 0.36987300
v 0.41744500 0.40805000 0.38971400
v 0.41661500 0.41087200 0.40296200
v 0.42846500 0.41866600 0.42289700
v 0.44727700 0.42683000 0.43623800
v 0.46037200 0.43039100 0.43630000
v 0.48043000 0.43432200 0.42977000
v 0.49394000 0.43647300 0.42320800
v 0.50131800 0.43543100 0.40999000
v 0.50911100 0.43297900 0.39014900
v 0.50994200 0.43015700 0.37690100
v 0.47938200 0.42726600 0.37185500
v 0.46741100 0.42207100 0.36336500
v 0.45907700 0.41980400 0.36332500
v 0.44631300 0.41730300 0.36748100
v 0.43771600 0.41593500 0.37165700
v 0.43302100 0.41659700 0.38006800
v 0.42806100 0.41815800 0.39269400
v 0.42753300 0.41995400 0.40112500
v 0.43507400 0.42491300 0.41381100
v 0.44704500 0.43010900 0.42230100
v 0.45537900 0.43237500 0.42234000
v 0.46814300 0.43487600 0.41818400
v 0.47674000 0.43624500 0.41400900
v 0.48143500 0.43558200 0.40559800
v 0.48639500 0.43402100 0.39297100
v 0.48692300 0.43222600 0.38454100
v 0.45603200 0.42750000 0.39325900
v 0.45586100 0.42742600 0.39313700
v 0.45574200 0.42739400 0.39313700
v 0.45556000 0.42735800 0.39319600
v 0.45543700 0.42733800 0.39325600
v 0.45537000 0.42734800 0.39337600
v 0.45529900 0.42737000 0.39355600
v 0.45529100 0.42739600 0.39367700
v 0.45539900 0.42746700 0.39385800
v 0.45557000 0.42754100 0.39397900
v 0.45568900 0.42757300 0.39398000
v 0.45587100 0.42760900 0.39392000
v 0.45599400 0.42762800 0.39386100
v 0.45606100 0.42761900 0.39374100
v 0.45613200 0.42759700 0.39356000
v 0.45614000 0.42757100 0.39344000
v 0.51955600 0.43639100 0.37841800
v 0.52050300 0.43668900 0.37982200
v 0.51757100 0.43906600 0.38105000
v 0.51538800 0.44022500 0.38163100
v 0.51478800 0.43972400 0.38134200
v 0.51600000 0.43775500 0.38029400
v 0.51856200 0.43506800 0.37888700
v 0.52149500 0.43269100 0.37765900
v 0.52367800 0.43153200 0.37707800
v 0.52427800 0.43203300 0.37736700
v 0.52306500 0.43400300 0.37841500
v 0.52131200 0.43593300 0.38296000
v 0.51573400 0.44045400 0.38529600
v 0.51158100 0.44266000 0.38640100
v 0.51044000 0.44170700 0.38585200
v 0.51274700 0.43796100 0.38385900
v 0.51762000 0.43285100 0.38118300
v 0.52319800 0.42833000 0.37884700
v 0.52735100 0.42612500 0.37774200
v 0.52849200 0.42707700 0.37829100
v 0.52618600 0.43082400 0.38028400
v 0.52190400 0.43419800 0.38752600
v 0.51422600 0.44042100 0.39074200
v 0.50851000 0.44345600 0.39226200
v 0.50693900 0.44214500 0.39150700
v 0.51011400 0.43698800 0.38876300
v 0.51682100 0.42995600 0.38508100
v 0.52449900 0.42373300 0.38186500
v 0.53021500 0.42069800 0.38034500
v 0.53178600 0.42200900 0.38110000
v 0.52861100 0.42716600 0.38384300
v 0.52221900 0.43165400 0.39307300
v 0.51319300 0.43896900 0.39685400
v 0.50647400 0.44253700 0.39864100
v 0.50462700 0.44099600 0.39775300
v 0.50835900 0.43493400 0.39452800
v 0.51624400 0.42666600 0.39019800
v 0.52527000 0.41935100 0.38641800
v 0.53199000 0.41578300 0.38463100
v 0.53383600 0.41732400 0.38551900
v 0.53010400 0.42338600 0.38874400
v 0.52222800 0.42854800 0.39905900
v 0.51273700 0.43624000 0.40303400
v 0.50567200 0.43999200 0.40491300
v 0.50373100 0.43837100 0.40397900
v 0.50765500 0.43199700 0.40058800
v 0.51594600 0.42330400 0.39603600
v 0.52543600 0.41561300 0.39206100
v 0.53250100 0.41186100 0.39018200
v 0.53444200 0.41348100 0.39111600
v 0.53051800 0.41985500 0.39450600
v 0.52192900 0.42518600 0.40489600
v 0.51290300 0.43250100 0.40867600
v 0.50618400 0.43606900 0.41046300
v 0.50433700 0.43452800 0.40957500
v 0.50806900 0.42846600 0.40635000
v 0.51595400 0.42019900 0.40202100
v 0.52498000 0.41288400 0.39824000
v 0.53170000 0.40931500 0.39645300
v 0.53354600 0.41085600 0.39734200
v 0.52981400 0.41691900 0.40056600
v 0.52135200 0.42189600 0.41001400
v 0.51367400 0.42811900 0.41322900
v 0.50795800 0.43115400 0.41475000
v 0.50638800 0.42984300 0.41399400
v 0.50956200 0.42468600 0.41125100
v 0.51627000 0.41765400 0.40756800
v 0.52394800 0.41143100 0.40435200
v 0.52966400 0.40839600 0.40283200
v 0.53123400 0.40970700 0.40358800
v 0.52805900 0.41486400 0.40633100
v 0.52055300 0.41900100 0.41391100
v 0.51497500 0.42352200 0.41624800
v 0.51082200 0.42572700 0.41735200
v 0.50968100 0.42477500 0.41680300
v 0.51198800 0.42102800 0.41481000
v 0.51686100 0.41591900 0.41213400
v 0.52243900 0.41139800 0.40979800
v 0.52659200 0.40919200 0.40869300
v 0.52773300 0.41014500 0.40924200
v 0.52542600 0.41389200 0.41123600
v 0.51961100 0.41678400 0.41620700
v 0.51667800 0.41916100 0.41743500
v 0.51449500 0.42032000 0.41801600
v 0.51389500 0.41981900 0.41772700
v 0.51510800 0.41785000 0.41668000
v 0.51767000 0.41516300 0.41527300
v 0.52060200 0.41278700 0.41404400
v 0.52278600 0.41162700 0.41346400
v 0.52338600 0.41212800 0.41375200
v 0.52217300 0.41409800 0.41480000
v 0.51861700 0.41546100 0.41667600
v 0.47704600 0.41426700 0.33228400
v 0.47701000 0.41344300 0.33379300
v 0.47415200 0.41597500 0.33487800
v 0.47216400 0.41754100 0.33508400
v 0.47180500 0.41754300 0.33433200
v 0.47321200 0.41598000 0.33291000
v 0.47584900 0.41344900 0.33136000
v 0.47870700 0.41091700 0.33027500
v 0.48069500 0.40935100 0.33006900
v 0.48105400 0.40934900 0.33082100
v 0.47964700 0.41091200 0.33224300
v 0.47574500 0.41105800 0.33573800
v 0.47030800 0.41587400 0.33780300
v 0.46652700 0.41885300 0.33819500
v 0.46584400 0.41885600 0.33676500
v 0.46852100 0.41588300 0.33405900
v 0.47353600 0.41106900 0.33111100
v 0.47897300 0.40625200 0.32904700
v 0.48275500 0.40327400 0.32865500
v 0.48343700 0.40327000 0.33008500
v 0.48076000 0.40624300 0.33279000
v 0.47337500 0.40734400 0.33793000
v 0.46589200 0.41397300 0.34077100
v 0.46068600 0.41807300 0.34131100
v 0.45974700 0.41807800 0.33934300
v 0.46343200 0.41398600 0.33561800
v 0.47033400 0.40736000 0.33156100
v 0.47781700 0.40073100 0.32872000
v 0.48302300 0.39663100 0.32818000
v 0.48396200 0.39662600 0.33014900
v 0.48027700 0.40071800 0.33387300
v 0.47013100 0.40266700 0.34015400
v 0.46133400 0.41046000 0.34349400
v 0.45521500 0.41527900 0.34412800
v 0.45411000 0.41528500 0.34181400
v 0.45844300 0.41047400 0.33743600
v 0.46655700 0.40268500 0.33266600
v 0.47535400 0.39489200 0.32932600
v 0.48147300 0.39007200 0.32869200
v 0.48257700 0.39006600 0.33100600
v 0.47824500 0.39487700 0.33538400
v 0.46633100 0.39748300 0.34219200
v 0.45708200 0.40567700 0.34570300
v 0.45064800 0.41074400 0.34637000
v 0.44948600 0.41075000 0.34393700
v 0.45404100 0.40569200 0.33933400
v 0.46257300 0.39750200 0.33431900
v 0.47182300 0.38930800 0.33080700
v 0.47825700 0.38424000 0.33014000
v 0.47941800 0.38423400 0.33257300
v 0.47486300 0.38929200 0.33717600
v 0.46234700 0.39229900 0.34384400
v 0.45355100 0.40009200 0.34718400
v 0.44743200 0.40491200 0.34781800
v 0.44632700 0.40491800 0.34550400
v 0.45065900 0.40010700 0.34112600
v 0.45877300 0.39231700 0.33635600
v 0.46757000 0.38452400 0.33301700
v 0.47368900 0.37970500 0.33238200
v 0.47479400 0.37969900 0.33469600
v 0.47046200 0.38451000 0.33907400
v 0.45857000 0.38762400 0.34494900
v 0.45108700 0.39425300 0.34779000
v 0.44588200 0.39835300 0.34833000
v 0.44494200 0.39835800 0.34636200
v 0.44862700 0.39426600 0.34263800
v 0.45553000 0.38764000 0.33858000
v 0.46301300 0.38101100 0.33573900
v 0.46821800 0.37691100 0.33520000
v 0.46915700 0.37690600 0.33716800
v 0.46547200 0.38099800 0.34089200
v 0.45536800 0.38391500 0.34539900
v 0.44993100 0.38873200 0.34746400
v 0.44614900 0.39171000 0.34785500
v 0.44546700 0.39171400 0.34642500
v 0.44814400 0.38874100 0.34372000
v 0.45315900 0.38392700 0.34077200
v 0.45859600 0.37911000 0.33870800
v 0.46237800 0.37613100 0.33831600
v 0.46306000 0.37612800 0.33974600
v 0.46038300 0.37910100 0.34245100
v 0.45305500 0.38153500 0.34515000
v 0.45019700 0.38406700 0.34623500
v 0.44820900 0.38563300 0.34644100
v 0.44785000 0.38563500 0.34569000
v 0.44925800 0.38407200 0.34426700
v 0.45189400 0.38154100 0.34271700
v 0.45475200 0.37900900 0.34163200
v 0.45674100 0.37744300 0.34142600
v 0.45709900 0.37744100 0.34217800
v 0.45569200 0.37900400 0.34360000
v 0.45185800 0.38071700 0.34422600
v 0.50891800 0.32109600 0.35728500
v 0.50853500 0.32031200 0.35659600
v 0.50840500 0.31971300 0.35652000
v 0.50830400 0.31875900 0.35669600
v 0.50826800 0.31810400 0.35690900
v 0.50839100 0.31769200 0.35744700
v 0.50860800 0.31722200 0.35827500
v 0.50879500 0.31710900 0.35885100
v 0.50920700 0.31753700 0.35979100
v 0.50959000 0.31832100 0.36048100
v 0.50972000 0.31892000 0.36055600
v 0.50982100 0.31987400 0.36038100
v 0.50985700 0.32052900 0.36016800
v 0.50973500 0.32094100 0.35962900
v 0.50951800 0.32141000 0.35880100
v 0.50933000 0.32152400 0.35822500
v 0.39035100 0.34145800 0.39996800
v 0.39001200 0.34067000 0.39926000
v 0.38997100 0.34006600 0.39914600
v 0.39004700 0.33909800 0.39924500
v 0.39014400 0.33843300 0.39940000
v 0.39040000 0.33801100 0.39988200
v 0.39079500 0.33752800 0.40063200
v 0.39107100 0.33740900 0.40117000
v 0.39152800 0.33783300 0.40209100
v 0.39186600 0.33862100 0.40280000
v 0.39190700 0.33922600 0.40291300
v 0.39183100 0.34019300 0.40281500
v 0.39173400 0.34085800 0.40265900
v 0.39147800 0.34128000 0.40217800
v 0.39108400 0.34176300 0.40142700
v 0.39080700 0.34188300 0.40088900
v 0.30155100 0.31544200 0.46263700
v 0.30125900 0.31466200 0.46190000
v 0.30131300 0.31407200 0.46173000
v 0.30157800 0.31313300 0.46171500
v 0.30181600 0.31249000 0.46178500
v 0.30221400 0.31208900 0.46218100
v 0.30279700 0.31163500 0.46281800
v 0.30316800 0.31153000 0.46329900
v 0.30367100 0.31196200 0.46419200
v 0.30396300 0.31274200 0.46492900
v 0.30391000 0.31333300 0.46509900
v 0.30364400 0.31427100 0.46511400
v 0.30340600 0.31491400 0.46504400
v 0.30300800 0.31531500 0.46464800
v 0.30242500 0.31576900 0.46401100
v 0.30205400 0.31587400 0.46352900
v 0.54284000 0.33875000 0.39409900
v 0.54190100 0.33847500 0.39357200
v 0.54147200 0.33804100 0.39348000
v 0.54097800 0.33720200 0.39353600
v 0.54069800 0.33658000 0.39363700
v 0.54078100 0.33598700 0.39398000
v 0.54101300 0.33520600 0.39451600
v 0.54131000 0.33483000 0.39490500
v 0.54218400 0.33470000 0.39558000
v 0.54312400 0.33497500 0.39610600
v 0.54355300 0.33540900 0.39619900
v 0.54404700 0.33624800 0.39614300
v 0.54432600 0.33687100 0.39604100
v 0.54424300 0.33746300 0.39569900
v 0.54401200 0.33824400 0.39516200
v 0.54371500 0.33862000 0.39477400
v 0.47462600 0.38531800 0.49142800
v 0.47371300 0.38503000 0.49086300
v 0.47333700 0.38457100 0.49069300
v 0.47295000 0.38368100 0.49059500
v 0.47274900 0.38302200 0.49058100
v 0.47291200 0.38239100 0.49080800
v 0.47325000 0.38156000 0.49119000
v 0.47360000 0.38115800 0.49150100
v 0.47450100 0.38101600 0.49213800
v 0.47541400 0.38130400 0.49270300
v 0.47579000 0.38176300 0.49287200
v 0.47617700 0.38265300 0.49297100
v 0.47637800 0.38331300 0.49298500
v 0.47621500 0.38394300 0.49275800
v 0.47587700 0.38477500 0.49237600
v 0.47552700 0.38517600 0.49206400
v 0.41386500 0.37389500 0.58452600
v 0.41298300 0.37360600 0.58391400
v 0.41266900 0.37314400 0.58365200
v 0.41240400 0.37224900 0.58336900
v 0.41229600 0.37158500 0.58321700
v 0.41255100 0.37095000 0.58330500
v 0.41301100 0.37011400 0.58350200
v 0.41342300 0.36971000 0.58372100
v 0.41435500 0.36956600 0.58431100
v 0.41523700 0.36985500 0.58492300
v 0.41555100 0.37031700 0.58518500
v 0.41581600 0.37121200 0.58546800
v 0.41592400 0.37187600 0.58562000
v 0.41566900 0.37251100 0.58553200
v 0.41520900 0.37334800 0.58533500
v 0.41479700 0.37375100 0.58511600
v 0.57379700 0.31065400 0.38099300
v 0.57293400 0.31062700 0.38169400
v 0.57242300 0.31032900 0.38186900
v 0.57170600 0.30966900 0.38191100
v 0.57124400 0.30915900 0.38186600
v 0.57108600 0.30858700 0.38151500
v 0.57097700 0.30780400 0.38094300
v 0.57107400 0.30738100 0.38050400
v 0.57173000 0.30704700 0.37967100
v 0.57259300 0.30707300 0.37897000
v 0.57310400 0.30737200 0.37879600
v 0.57382100 0.30803200 0.37875300
v 0.57428300 0.30854200 0.37879800
v 0.57444100 0.30911400 0.37915000
v 0.57455000 0.30989700 0.37972100
v 0.57445300 0.31031900 0.38016000
v 0.62035600 0.26352000 0.43657500
v 0.61946700 0.26353100 0.43724200
v 0.61890300 0.26330500 0.43734900
v 0.61807800 0.26279200 0.43725600
v 0.61753600 0.26239100 0.43711000
v 0.61729800 0.26192900 0.43665700
v 0.61708200 0.26129200 0.43595000
v 0.61712500 0.26094300 0.43544400
v 0.61775500 0.26064500 0.43457700
v 0.61864500 0.26063500 0.43391000
v 0.61920900 0.26086100 0.43380300
v 0.62003300 0.26137400 0.43389500
v 0.62057500 0.26177500 0.43404200
v 0.62081300 0.26223700 0.43449500
v 0.62102900 0.26287300 0.43520100
v 0.62098600 0.26322200 0.43570800
v 0.65080300 0.16811100 0.48590500
v 0.64989800 0.16815700 0.48655000
v 0.64930500 0.16800000 0.48661400
v 0.64842200 0.16762700 0.48643500
v 0.64783600 0.16733100 0.48622400
v 0.64755400 0.16697300 0.48570600
v 0.64727800 0.16647600 0.48491400
v 0.64729300 0.16619600 0.48436400
v 0.64790800 0.16593300 0.48347600
v 0.64881200 0.16588800 0.48283000
v 0.64940500 0.16604400 0.48276600
v 0.65028800 0.16641800 0.48294500
v 0.65087400 0.16671400 0.48315600
v 0.65115700 0.16707100 0.48367400
v 0.65143200 0.16756900 0.48446700
v 0.65141800 0.16784800 0.48501600
v 0.53815100 0.29210200 0.34230800
v 0.53915200 0.29194700 0.34184900
v 0.53973800 0.29177900 0.34194100
v 0.54055700 0.29147900 0.34237800
v 0.54108300 0.29126300 0.34276800
v 0.54125500 0.29108300 0.34341100
v 0.54136600 0.29085500 0.34435300
v 0.54124500 0.29075800 0.34495000
v 0.54047700 0.29078100 0.34575400
v 0.53947600 0.29093700 0.34621300
v 0.53888900 0.29110400 0.34612100
v 0.53807000 0.29140400 0.34568400
v 0.53754400 0.29162000 0.34529400
v 0.53737300 0.29180000 0.34465100
v 0.53726100 0.29202900 0.34370900
v 0.53738200 0.29212500 0.34311200
v 0.51744800 0.20996300 0.32489400
v 0.51845900 0.20986300 0.32444100
v 0.51906400 0.20980600 0.32454400
v 0.51992100 0.20972800 0.32500200
v 0.52047600 0.20967900 0.32541000
v 0.52067600 0.20966500 0.32606900
v 0.52082600 0.20965800 0.32703300
v 0.52072400 0.20967300 0.32764100
v 0.51996500 0.20975100 0.32845000
v 0.51895400 0.20985100 0.32890400
v 0.51834900 0.20990800 0.32880100
v 0.51749200 0.20998600 0.32834200
v 0.51693700 0.21003500 0.32793500
v 0.51673700 0.21004900 0.32727500
v 0.51658700 0.21005600 0.32631100
v 0.51668900 0.21004100 0.32570300
v 0.51985700 0.09996170 0.34379600
v 0.52086900 0.09990540 0.34333900
v 0.52147800 0.09993530 0.34343400
v 0.52234100 0.10003100 0.34387700
v 0.52290100 0.10011100 0.34427300
v 0.52310600 0.10022700 0.34492100
v 0.52326200 0.10039400 0.34586900
v 0.52316300 0.10049500 0.34646900
v 0.52240600 0.10061700 0.34727500
v 0.52139400 0.10067300 0.34773200
v 0.52078500 0.10064300 0.34763700
v 0.51992100 0.10054800 0.34719400
v 0.51936200 0.10046800 0.34679800
v 0.51915700 0.10035100 0.34615000
v 0.51900100 0.10018500 0.34520200
v 0.51910000 0.10008400 0.34460100
v 0.60624700 0.28524800 0.36286900
v 0.60585500 0.28555900 0.36386200
v 0.60541400 0.28548500 0.36428600
v 0.60461600 0.28516000 0.36474400
v 0.60403900 0.28487400 0.36499000
v 0.60354700 0.28441200 0.36484500
v 0.60292000 0.28373900 0.36452200
v 0.60264900 0.28331500 0.36416600
v 0.60268400 0.28275400 0.36320600
v 0.60307500 0.28244200 0.36221300
v 0.60351700 0.28251700 0.36178900
v 0.60431400 0.28284100 0.36133100
v 0.60489100 0.28312800 0.36108500
v 0.60538300 0.28358900 0.36123000
v 0.60601000 0.28426200 0.36155300
v 0.60628200 0.28468600 0.36190900
v 0.65802100 0.21689300 0.40473000
v 0.65761300 0.21723200 0.40570700
v 0.65713700 0.21721200 0.40610000
v 0.65627200 0.21699700 0.40649400
v 0.65564400 0.21679200 0.40669200
v 0.65510100 0.21641200 0.40650000
v 0.65440500 0.21584800 0.40611300
v 0.65410000 0.21547800 0.40572500
v 0.65411800 0.21494400 0.40475000
v 0.65452700 0.21460500 0.40377200
v 0.65500200 0.21462600 0.40338000
v 0.65586800 0.21484100 0.40298500
v 0.65649600 0.21504600 0.40278700
v 0.65703900 0.21542500 0.40298000
v 0.65773400 0.21598900 0.40336600
v 0.65803900 0.21635900 0.40375500
v 0.68842400 0.12157800 0.45398100
v 0.68800500 0.12194300 0.45494400
v 0.68750900 0.12197300 0.45530900
v 0.68660200 0.12186000 0.45564900
v 0.68594300 0.12173100 0.45580700
v 0.68536900 0.12142800 0.45557400
v 0.68463300 0.12096500 0.45513200
v 0.68430700 0.12064600 0.45471700
v 0.68431500 0.12013800 0.45372800
v 0.68473300 0.11977300 0.45276400
v 0.68522900 0.11974300 0.45239900
v 0.68613600 0.11985600 0.45205900
v 0.68679500 0.11998500 0.45190200
v 0.68736900 0.12028800 0.45213500
v 0.68810600 0.12075100 0.45257600
v 0.68843200 0.12107000 0.45299200
v 0.57096100 0.26688400 0.32457600
v 0.57205700 0.26687400 0.32476700
v 0.57250400 0.26682400 0.32518900
v 0.57296100 0.26671500 0.32604400
v 0.57319600 0.26663200 0.32668700
v 0.57299400 0.26654000 0.32734000
v 0.57257900 0.26641600 0.32821400
v 0.57215400 0.26634900 0.32865600
v 0.57107000 0.26630000 0.32889700
v 0.56997400 0.26631000 0.32870500
v 0.56952700 0.26636000 0.32828300
v 0.56907000 0.26646900 0.32742900
v 0.56883500 0.26655200 0.32678600
v 0.56903700 0.26664400 0.32613200
v 0.56945200 0.26676800 0.32525800
v 0.56987700 0.26683500 0.32481600
v 0.57239700 0.17233100 0.31180700
v 0.57349200 0.17235700 0.31200100
v 0.57393800 0.17237900 0.31242700
v 0.57439300 0.17241300 0.31328900
v 0.57462500 0.17243700 0.31393700
v 0.57442200 0.17245300 0.31459600
v 0.57400500 0.17247100 0.31547800
v 0.57357900 0.17247700 0.31592400
v 0.57249300 0.17246300 0.31616600
v 0.57139900 0.17243700 0.31597300
v 0.57095300 0.17241600 0.31554700
v 0.57049800 0.17238100 0.31468500
v 0.57026500 0.17235700 0.31403600
v 0.57046900 0.17234100 0.31337700
v 0.57088600 0.17232300 0.31249600
v 0.57131200 0.17231800 0.31205000
v 0.57482900 0.06245850 0.33070100
v 0.57592300 0.06251550 0.33089100
v 0.57636700 0.06259760 0.33131100
v 0.57682000 0.06275390 0.33216100
v 0.57705000 0.06286920 0.33280100
v 0.57684500 0.06297640 0.33345000
v 0.57642600 0.06311680 0.33432000
v 0.57599800 0.06318310 0.33475900
v 0.57491200 0.06320030 0.33499900
v 0.57381800 0.06314330 0.33480900
v 0.57337400 0.06306120 0.33438900
v 0.57292100 0.06290490 0.33353900
v 0.57269000 0.06278960 0.33289900
v 0.57289600 0.06268240 0.33225000
v 0.57331500 0.06254200 0.33138000
v 0.57374300 0.06247570 0.33094100
v 0.50781400 0.44384200 0.37460900
v 0.50677200 0.44377000 0.37422700
v 0.50617200 0.44375100 0.37437200
v 0.50534500 0.44374300 0.37488800
v 0.50481700 0.44374500 0.37533200
v 0.50466000 0.44377900 0.37600200
v 0.50457500 0.44383300 0.37697200
v 0.50471800 0.44387600 0.37757100
v 0.50553100 0.44396000 0.37832400
v 0.50657300 0.44403200 0.37870600
v 0.50717300 0.44405200 0.37856100
v 0.50800000 0.44405900 0.37804500
v 0.50852800 0.44405700 0.37760200
v 0.50868500 0.44402400 0.37693100
v 0.50877000 0.44396900 0.37596100
v 0.50862700 0.44392600 0.37536200
v 0.50460800 0.51134200 0.37058000
v 0.50357300 0.51121600 0.37019600
v 0.50298600 0.51108700 0.37033500
v 0.50218300 0.51086100 0.37084100
v 0.50167300 0.51069900 0.37127700
v 0.50153500 0.51056900 0.37194000
v 0.50147500 0.51040500 0.37289900
v 0.50163000 0.51033900 0.37349300
v 0.50245000 0.51036800 0.37424300
v 0.50348600 0.51049500 0.37462800
v 0.50407300 0.51062300 0.37448800
v 0.50487600 0.51084900 0.37398300
v 0.50538500 0.51101100 0.37354700
v 0.50552300 0.51114100 0.37288400
v 0.50558400 0.51130500 0.37192400
v 0.50542800 0.51137100 0.37133100
v 0.48820500 0.55178500 0.39184900
v 0.48718900 0.55158600 0.39144100
v 0.48664300 0.55131500 0.39153300
v 0.48592200 0.55080300 0.39194400
v 0.48547400 0.55042700 0.39231000
v 0.48539700 0.55008200 0.39290200
v 0.48541800 0.54963300 0.39376700
v 0.48561400 0.54942300 0.39431300
v 0.48645400 0.54938100 0.39504000
v 0.48747000 0.54957900 0.39544800
v 0.48801600 0.54985100 0.39535600
v 0.48873700 0.55036300 0.39494500
v 0.48918500 0.55073900 0.39457900
v 0.48926200 0.55108400 0.39398700
v 0.48924100 0.55153300 0.39312200
v 0.48904500 0.55174200 0.39257600
v 0.47510400 0.42681900 0.33911000
v 0.47454900 0.42619100 0.33837900
v 0.47402700 0.42588700 0.33825500
v 0.47312800 0.42551900 0.33834200
v 0.47249000 0.42530200 0.33849200
v 0.47199900 0.42532300 0.33897500
v 0.47139400 0.42543100 0.33973200
v 0.47116400 0.42560400 0.34027800
v 0.47134200 0.42616700 0.34122000
v 0.47189600 0.42679500 0.34195200
v 0.47241900 0.42709800 0.34207500
v 0.47331800 0.42746700 0.34198800
v 0.47395500 0.42768400 0.34183900
v 0.47444600 0.42766200 0.34135500
v 0.47505200 0.42755500 0.34059800
v 0.47528200 0.42738200 0.34005300
v 0.44939400 0.48260600 0.31065900
v 0.44886600 0.48193400 0.30994700
v 0.44839700 0.48154300 0.30986200
v 0.44760500 0.48099800 0.31002800
v 0.44704700 0.48065000 0.31023600
v 0.44663600 0.48053900 0.31077900
v 0.44613700 0.48047100 0.31161400
v 0.44596100 0.48055600 0.31219900
v 0.44616600 0.48107500 0.31316100
v 0.44669300 0.48174700 0.31387300
v 0.44716200 0.48213900 0.31395700
v 0.44795500 0.48268300 0.31379200
v 0.44851200 0.48303200 0.31358400
v 0.44892300 0.48314200 0.31304100
v 0.44942200 0.48321000 0.31220600
v 0.44959900 0.48312500 0.31162100
v 0.41034400 0.51126300 0.30735100
v 0.40987200 0.51053700 0.30665300
v 0.40951200 0.51003900 0.30659600
v 0.40894000 0.50928100 0.30681800
v 0.40854800 0.50877200 0.30706800
v 0.40830200 0.50850100 0.30765200
v 0.40802300 0.50821900 0.30854400
v 0.40795600 0.50819700 0.30915600
v 0.40821600 0.50866300 0.31013200
v 0.40868900 0.50938800 0.31083000
v 0.40904800 0.50988700 0.31088700
v 0.40962000 0.51064500 0.31066500
v 0.41001300 0.51115400 0.31041500
v 0.41025900 0.51142500 0.30983100
v 0.41053800 0.51170700 0.30894000
v 0.41060400 0.51172800 0.30832700
f 1 39 28
f 1 2 39
f 2 38 39
f 2 3 38
f 3 37 38
f 3 36 37
f 4 36 3
f 4 5 36
f 5 35 36
f 5 6 35
f 6 7 8
f 6 8 9
f 6 9 35
f 9 10 35
f 10 11 35
f 11 12 35
f 12 13 35
f 13 34 35
f 13 14 34
f 14 33 34
f 14 15 33
f 15 32 33
f 15 31 32
f 15 16 31
f 16 17 31
f 17 18 31
f 18 19 31
f 20 21 19
f 19 21 22
f 19 22 31
f 31 22 30
f 22 23 30
f 23 24 30
f 24 29 30
f 24 25 29
f 25 26 29
f 29 26 28
f 28 26 27
f 28 27 41
f 28 41 42
f 28 42 1
f 28 40 29
f 29 40 30
f 30 40 31
f 31 40 32
f 32 40 33
f 33 40 34
f 34 40 35
f 35 40 36
f 36 40 37
f 37 40 38
f 38 40 39
f 39 40 28
f 43 81 70
f 43 44 81
f 44 80 81
f 44 45 80
f 45 79 80
f 45 78 79
f 46 78 45
f 46 47 78
f 47 77 78
f 47 48 77
f 48 49 50
f 48 50 51
f 48 51 77
f 51 52 77
f 52 53 77
f 53 54 77
f 54 55 77
f 55 76 77
f 55 56 76
f 56 75 76
f 56 57 75
f 57 74 75
f 57 73 74
f 57 58 73
f 58 59 73
f 59 60 73
f 60 61 73
f 62 63 61
f 61 63 64
f 61 64 73
f 73 64 72
f 64 65 72
f 65 66 72
f 66 71 72
f 66 67 71
f 67 68 71
f 71 68 70
f 70 68 69
f 70 69 83
f 70 83 84
f 70 84 43
f 70 82 71
f 71 82 72
f 72 82 73
f 73 82 74
f 74 82 75
f 75 82 76
f 76 82 77
f 77 82 78
f 78 82 79
f 79 82 80
f 80 82 81
f 81 82 70
f 87 86 85
f 88 87 85
f 89 88 85
f 90 89 85
f 91 90 85
f 92 91 85
f 93 92 85
f 94 93 85
f 95 94 85
f 96 95 85
f 97 96 85
f 98 97 85
f 99 98 85
f 100 99 85
f 85 102 101
f 85 86 102
f 86 103 102
f 86 87 103
f 87 104 103
f 87 88 104
f 88 105 104
f 88 89 105
f 89 106 105
f 89 90 106
f 90 107 106
f 90 91 107
f 91 108 107
f 91 92 108
f 92 109 108
f 92 93 109
f 93 110 109
f 93 94 110
f 94 111 110
f 94 95 111
f 95 112 111
f 95 96 112
f 96 113 112
f 96 97 113
f 97 114 113
f 97 98 114
f 98 115 114
f 98 99 115
f 99 116 115
f 99 100 116
f 100 101 116
f 100 85 101
f 101 118 117
f 101 102 118
f 102 119 118
f 102 103 119
f 103 120 119
f 103 104 120
f 104 121 120
f 104 105 121
f 105 122 121
f 105 106 122
f 106 123 122
f 106 107 123
f 107 124 123
f 107 108 124
f 108 125 124
f 108 109 125
f 109 126 125
f 109 110 126
f 110 127 126
f 110 111 127
f 111 128 127
f 111 112 128
f 112 129 128
f 112 113 129
f 113 130 129
f 113 114 130
f 114 131 130
f 114 115 131
f 115 132 131
f 115 116 132
f 116 117 132
f 116 101 117
f 117 134 133
f 117 118 134
f 118 135 134
f 118 119 135
f 119 136 135
f 119 120 136
f 120 137 136
f 120 121 137
f 121 138 137
f 121 122 138
f 122 139 138
f 122 123 139
f 123 140 139
f 123 124 140
f 124 141 140
f 124 125 141
f 125 142 141
f 125 126 142
f 126 143 142
f 126 127 143
f 127 144 143
f 127 128 144
f 128 145 144
f 128 129 145
f 129 146 145
f 129 130 146
f 130 147 146
f 130 131 147
f 131 148 147
f 131 132 148
f 132 133 148
f 132 117 133
f 133 150 149
f 133 134 150
f 134 151 150
f 134 135 151
f 135 152 151
f 135 136 152
f 136 153 152
f 136 137 153
f 137 154 153
f 137 138 154
f 138 155 154
f 138 139 155
f 139 156 155
f 139 140 156
f 140 157 156
f 140 141 157
f 141 158 157
f 141 142 158
f 142 159 158
f 142 143 159
f 143 160 159
f 143 144 160
f 144 161 160
f 144 145 161
f 145 162 161
f 145 146 162
f 146 163 162
f 146 147 163
f 147 164 163
f 147 148 164
f 148 149 164
f 148 133 149
f 149 166 165
f 149 150 166
f 150 167 166
f 150 151 167
f 151 168 167
f 151 152 168
f 152 83 168
f 152 153 83
f 153 169 83
f 153 154 169
f 154 170 169
f 154 155 170
f 155 171 170
f 155 156 171
f 156 172 171
f 156 157 172
f 157 173 172
f 157 158 173
f 158 174 173
f 158 159 174
f 159 175 174
f 159 160 175
f 160 176 175
f 160 161 176
f 161 177 176
f 161 162 177
f 162 178 177
f 162 163 178
f 163 179 178
f 163 164 179
f 164 165 179
f 164 149 165
f 165 181 180
f 165 166 181
f 166 182 181
f 166 167 182
f 167 183 182
f 167 168 183
f 168 184 183
f 168 83 184
f 83 185 184
f 83 169 185
f 169 186 185
f 169 170 186
f 170 187 186
f 170 171 187
f 171 188 187
f 171 172 188
f 172 189 188
f 172 173 189
f 173 190 189
f 173 174 190
f 174 191 190
f 174 175 191
f 175 192 191
f 175 176 192
f 176 193 192
f 176 177 193
f 177 194 193
f 177 178 194
f 178 195 194
f 178 179 195
f 179 180 195
f 179 165 180
f 180 197 196
f 180 181 197
f 181 198 197
f 181 182 198
f 182 199 198
f 182 183 199
f 183 200 199
f 183 184 200
f 184 201 200
f 184 185 201
f 185 202 201
f 185 186 202
f 186 203 202
f 186 187 203
f 187 204 203
f 187 188 204
f 188 205 204
f 188 189 205
f 189 206 205
f 189 190 206
f 190 207 206
f 190 191 207
f 191 208 207
f 191 192 208
f 192 209 208
f 192 193 209
f 193 210 209
f 193 194 210
f 194 211 210
f 194 195 211
f 195 196 211
f 195 180 196
f 196 213 212
f 196 197 213
f 197 214 213
f 197 198 214
f 198 215 214
f 198 199 215
f 199 216 215
f 199 200 216
f 200 217 216
f 200 201 217
f 201 218 217
f 201 202 218
f 202 219 218
f 202 203 219
f 203 220 219
f 203 204 220
f 204 221 220
f 204 205 221
f 205 222 221
f 205 206 222
f 206 223 222
f 206 207 223
f 207 224 223
f 207 208 224
f 208 225 224
f 208 209 225
f 209 226 225
f 209 210 226
f 210 227 226
f 210 211 227
f 211 212 227
f 211 196 212
f 212 229 228
f 212 213 229
f 213 230 229
f 213 214 230
f 214 231 230
f 214 215 231
f 215 232 231
f 215 216 232
f 216 233 232
f 216 217 233
f 217 234 233
f 217 218 234
f 218 235 234
f 218 219 235
f 219 236 235
f 219 220 236
f 220 237 236
f 220 221 237
f 221 238 237
f 221 222 238
f 222 239 238
f 222 223 239
f 223 240 239
f 223 224 240
f 224 241 240
f 224 225 241
f 225 242 241
f 225 226 242
f 226 243 242
f 226 227 243
f 227 228 243
f 227 212 228
f 228 245 244
f 228 229 245
f 229 246 245
f 229 230 246
f 230 247 246
f 230 231 247
f 231 248 247
f 231 232 248
f 232 249 248
f 232 233 249
f 233 250 249
f 233 234 250
f 234 251 250
f 234 235 251
f 235 252 251
f 235 236 252
f 236 253 252
f 236 237 253
f 237 254 253
f 237 238 254
f 238 255 254
f 238 239 255
f 239 256 255
f 239 240 256
f 240 257 256
f 240 241 257
f 241 258 257
f 241 242 258
f 242 259 258
f 242 243 259
f 243 244 259
f 243 228 244
f 244 261 260
f 244 245 261
f 245 262 261
f 245 246 262
f 246 263 262
f 246 247 263
f 247 264 263
f 247 248 264
f 248 265 264
f 248 249 265
f 249 266 265
f 249 250 266
f 250 267 266
f 250 251 267
f 251 268 267
f 251 252 268
f 252 269 268
f 252 253 269
f 253 270 269
f 253 254 270
f 254 271 270
f 254 255 271
f 255 272 271
f 255 256 272
f 256 273 272
f 256 257 273
f 257 274 273
f 257 258 274
f 258 275 274
f 258 259 275
f 259 260 275
f 259 244 260
f 260 277 276
f 260 261 277
f 261 278 277
f 261 262 278
f 262 279 278
f 262 263 279
f 263 280 279
f 263 264 280
f 264 281 280
f 264 265 281
f 265 282 281
f 265 266 282
f 266 283 282
f 266 267 283
f 267 284 283
f 267 268 284
f 268 285 284
f 268 269 285
f 269 286 285
f 269 270 286
f 270 287 286
f 270 271 287
f 271 288 287
f 271 272 288
f 272 289 288
f 272 273 289
f 273 290 289
f 273 274 290
f 274 291 290
f 274 275 291
f 275 276 291
f 275 260 276
f 276 293 292
f 276 277 293
f 277 294 293
f 277 278 294
f 278 295 294
f 278 279 295
f 279 296 295
f 279 280 296
f 280 297 296
f 280 281 297
f 281 298 297
f 281 282 298
f 282 299 298
f 282 283 299
f 283 300 299
f 283 284 300
f 284 301 300
f 284 285 301
f 285 302 301
f 285 286 302
f 286 303 302
f 286 287 303
f 287 304 303
f 287 288 304
f 288 305 304
f 288 289 305
f 289 306 305
f 289 290 306
f 290 307 306
f 290 291 307
f 291 292 307
f 291 276 292
f 292 309 308
f 292 293 309
f 293 310 309
f 293 294 310
f 294 311 310
f 294 295 311
f 295 312 311
f 295 296 312
f 296 313 312
f 296 297 313
f 297 314 313
f 297 298 314
f 298 315 314
f 298 299 315
f 299 316 315
f 299 300 316
f 300 317 316
f 300 301 317
f 301 318 317
f 301 302 318
f 302 319 318
f 302 303 319
f 303 320 319
f 303 304 320
f 304 321 320
f 304 305 321
f 305 322 321
f 305 306 322
f 306 323 322
f 306 307 323
f 307 308 323
f 307 292 308
f 308 309 310
f 308 310 311
f 308 311 312
f 308 312 313
f 308 313 314
f 308 314 315
f 308 315 316
f 308 316 317
f 308 317 318
f 308 318 319
f 308 319 320
f 308 320 321
f 308 321 322
f 308 322 323
f 325 326 324
f 326 327 324
f 327 328 324
f 328 329 324
f 329 330 324
f 330 331 324
f 331 332 324
f 332 333 324
f 333 334 324
f 334 325 324
f 325 335 326
f 335 336 326
f 326 336 327
f 336 337 327
f 327 337 328
f 337 338 328
f 328 338 329
f 338 339 329
f 329 339 330
f 339 340 330
f 330 340 331
f 340 341 331
f 331 341 332
f 341 342 332
f 332 342 333
f 342 343 333
f 333 343 334
f 343 344 334
f 334 344 325
f 344 335 325
f 335 345 336
f 345 346 336
f 336 346 337
f 346 347 337
f 337 347 338
f 347 348 338
f 338 348 339
f 348 349 339
f 339 349 340
f 349 350 340
f 340 350 341
f 350 351 341
f 341 351 342
f 351 352 342
f 342 352 343
f 352 353 343
f 343 353 344
f 353 354 344
f 344 354 335
f 354 345 335
f 345 355 346
f 355 356 346
f 346 356 347
f 356 357 347
f 347 357 348
f 357 358 348
f 348 358 349
f 358 359 349
f 349 359 350
f 359 360 350
f 350 360 351
f 360 361 351
f 351 361 352
f 361 362 352
f 352 362 353
f 362 363 353
f 353 363 354
f 363 364 354
f 354 364 345
f 364 355 345
f 355 365 356
f 365 366 356
f 356 366 357
f 366 367 357
f 357 367 358
f 367 368 358
f 358 368 359
f 368 369 359
f 359 369 360
f 369 370 360
f 360 370 361
f 370 371 361
f 361 371 362
f 371 372 362
f 362 372 363
f 372 373 363
f 363 373 364
f 373 374 364
f 364 374 355
f 374 365 355
f 365 375 366
f 375 376 366
f 366 376 367
f 376 377 367
f 367 377 368
f 377 378 368
f 368 378 369
f 378 379 369
f 369 379 370
f 379 380 370
f 370 380 371
f 380 381 371
f 371 381 372
f 381 382 372
f 372 382 373
f 382 383 373
f 373 383 374
f 383 384 374
f 374 384 365
f 384 375 365
f 375 385 376
f 385 386 376
f 376 386 377
f 386 387 377
f 377 387 378
f 387 388 378
f 378 388 379
f 388 389 379
f 379 389 380
f 389 390 380
f 380 390 381
f 390 391 381
f 381 391 382
f 391 392 382
f 382 392 383
f 392 393 383
f 383 393 384
f 393 394 384
f 384 394 375
f 394 385 375
f 385 395 386
f 395 396 386
f 386 396 387
f 396 397 387
f 387 397 388
f 397 398 388
f 388 398 389
f 398 399 389
f 389 399 390
f 399 400 390
f 390 400 391
f 400 401 391
f 391 401 392
f 401 402 392
f 392 402 393
f 402 403 393
f 393 403 394
f 403 404 394
f 394 404 385
f 404 395 385
f 395 405 396
f 405 406 396
f 396 406 397
f 406 407 397
f 397 407 398
f 407 408 398
f 398 408 399
f 408 409 399
f 399 409 400
f 409 410 400
f 400 410 401
f 410 411 401
f 401 411 402
f 411 412 402
f 402 412 403
f 412 413 403
f 403 413 404
f 413 414 404
f 404 414 395
f 414 405 395
f 405 415 406
f 415 415 406
f 406 415 407
f 407 415 408
f 408 415 409
f 415 415 409
f 409 415 410
f 410 415 411
f 411 415 412
f 415 415 412
f 412 415 413
f 413 415 414
f 414 415 405
f 417 418 416
f 418 419 416
f 419 420 416
f 420 421 416
f 421 422 416
f 422 423 416
f 423 424 416
f 424 425 416
f 425 426 416
f 426 417 416
f 417 427 418
f 427 428 418
f 418 428 419
f 428 429 419
f 419 429 420
f 429 430 420
f 420 430 421
f 430 431 421
f 421 431 422
f 431 432 422
f 422 432 423
f 432 433 423
f 423 433 424
f 433 434 424
f 424 434 425
f 434 435 425
f 425 435 426
f 435 436 426
f 426 436 417
f 436 427 417
f 427 437 428
f 437 438 428
f 428 438 429
f 438 439 429
f 429 439 430
f 439 440 430
f 430 440 431
f 440 441 431
f 431 441 432
f 441 442 432
f 432 442 433
f 442 443 433
f 433 443 434
f 443 444 434
f 434 444 435
f 444 445 435
f 435 445 436
f 445 446 436
f 436 446 427
f 446 437 427
f 437 447 438
f 447 448 438
f 438 448 439
f 448 449 439
f 439 449 440
f 449 450 440
f 440 450 441
f 450 451 441
f 441 451 442
f 451 452 442
f 442 452 443
f 452 453 443
f 443 453 444
f 453 454 444
f 444 454 445
f 454 455 445
f 445 455 446
f 455 456 446
f 446 456 437
f 456 447 437
f 447 457 448
f 457 458 448
f 448 458 449
f 458 459 449
f 449 459 450
f 459 460 450
f 450 460 451
f 460 461 451
f 451 461 452
f 461 462 452
f 452 462 453
f 462 463 453
f 453 463 454
f 463 464 454
f 454 464 455
f 464 465 455
f 455 465 456
f 465 466 456
f 456 466 447
f 466 457 447
f 457 467 458
f 467 468 458
f 458 468 459
f 468 469 459
f 459 469 460
f 469 470 460
f 460 470 461
f 470 471 461
f 461 471 462
f 471 472 462
f 462 472 463
f 472 473 463
f 463 473 464
f 473 474 464
f 464 474 465
f 474 475 465
f 465 475 466
f 475 476 466
f 466 476 457
f 476 467 457
f 467 477 468
f 477 478 468
f 468 478 469
f 478 479 469
f 469 479 470
f 479 480 470
f 470 480 471
f 480 481 471
f 471 481 472
f 481 482 472
f 472 482 473
f 482 483 473
f 473 483 474
f 483 484 474
f 474 484 475
f 484 485 475
f 475 485 476
f 485 486 476
f 476 486 467
f 486 477 467
f 477 487 478
f 487 488 478
f 478 488 479
f 488 489 479
f 479 489 480
f 489 490 480
f 480 490 481
f 490 491 481
f 481 491 482
f 491 492 482
f 482 492 483
f 492 493 483
f 483 493 484
f 493 494 484
f 484 494 485
f 494 495 485
f 485 495 486
f 495 496 486
f 486 496 477
f 496 487 477
f 487 497 488
f 497 498 488
f 488 498 489
f 498 499 489
f 489 499 490
f 499 500 490
f 490 500 491
f 500 501 491
f 491 501 492
f 501 502 492
f 492 502 493
f 502 503 493
f 493 503 494
f 503 504 494
f 494 504 495
f 504 505 495
f 495 505 496
f 505 506 496
f 496 506 487
f 506 497 487
f 497 507 498
f 498 507 499
f 499 507 500
f 500 507 501
f 501 507 502
f 502 507 503
f 503 507 504
f 504 507 505
f 505 507 506
f 506 507 497
f 510 509 508
f 511 510 508
f 512 511 508
f 513 512 508
f 514 513 508
f 515 514 508
f 516 515 508
f 517 516 508
f 518 517 508
f 519 518 508
f 520 519 508
f 521 520 508
f 522 521 508
f 523 522 508
f 508 525 524
f 508 509 525
f 509 526 525
f 509 510 526
f 510 527 526
f 510 511 527
f 511 528 527
f 511 512 528
f 512 529 528
f 512 513 529
f 513 530 529
f 513 514 530
f 514 531 530
f 514 515 531
f 515 532 531
f 515 516 532
f 516 533 532
f 516 517 533
f 517 534 533
f 517 518 534
f 518 535 534
f 518 519 535
f 519 536 535
f 519 520 536
f 520 537 536
f 520 521 537
f 521 538 537
f 521 522 538
f 522 539 538
f 522 523 539
f 523 524 539
f 523 508 524
f 524 541 540
f 524 525 541
f 525 542 541
f 525 526 542
f 526 543 542
f 526 527 543
f 527 544 543
f 527 528 544
f 528 545 544
f 528 529 545
f 529 546 545
f 529 530 546
f 530 547 546
f 530 531 547
f 531 548 547
f 531 532 548
f 532 549 548
f 532 533 549
f 533 550 549
f 533 534 550
f 534 551 550
f 534 535 551
f 535 552 551
f 535 536 552
f 536 553 552
f 536 537 553
f 537 554 553
f 537 538 554
f 538 555 554
f 538 539 555
f 539 540 555
f 539 524 540
f 540 541 542
f 540 542 543
f 540 543 544
f 540 544 545
f 540 545 546
f 540 546 547
f 540 547 548
f 540 548 549
f 540 549 550
f 540 550 551
f 540 551 552
f 540 552 553
f 540 553 554
f 540 554 555
f 558 557 556
f 559 558 556
f 560 559 556
f 561 560 556
f 562 561 556
f 563 562 556
f 564 563 556
f 565 564 556
f 566 565 556
f 567 566 556
f 568 567 556
f 569 568 556
f 570 569 556
f 571 570 556
f 556 573 572
f 556 557 573
f 557 574 573
f 557 558 574
f 558 575 574
f 558 559 575
f 559 576 575
f 559 560 576
f 560 577 576
f 560 561 577
f 561 578 577
f 561 562 578
f 562 579 578
f 562 563 579
f 563 580 579
f 563 564 580
f 564 581 580
f 564 565 581
f 565 582 581
f 565 566 582
f 566 583 582
f 566 567 583
f 567 584 583
f 567 568 584
f 568 585 584
f 568 569 585
f 569 586 585
f 569 570 586
f 570 587 586
f 570 571 587
f 571 572 587
f 571 556 572
f 572 589 588
f 572 573 589
f 573 590 589
f 573 574 590
f 574 591 590
f 574 575 591
f 575 592 591
f 575 576 592
f 576 593 592
f 576 577 593
f 577 594 593
f 577 578 594
f 578 595 594
f 578 579 595
f 579 596 595
f 579 580 596
f 580 597 596
f 580 581 597
f 581 598 597
f 581 582 598
f 582 599 598
f 582 583 599
f 583 600 599
f 583 584 600
f 584 601 600
f 584 585 601
f 585 602 601
f 585 586 602
f 586 603 602
f 586 587 603
f 587 588 603
f 587 572 588
f 588 589 590
f 588 590 591
f 588 591 592
f 588 592 593
f 588 593 594
f 588 594 595
f 588 595 596
f 588 596 597
f 588 597 598
f 588 598 599
f 588 599 600
f 588 600 601
f 588 601 602
f 588 602 603
f 606 605 604
f 607 606 604
f 608 607 604
f 609 608 604
f 610 609 604
f 611 610 604
f 612 611 604
f 613 612 604
f 614 613 604
f 615 614 604
f 616 615 604
f 617 616 604
f 618 617 604
f 619 618 604
f 604 621 620
f 604 605 621
f 605 622 621
f 605 606 622
f 606 623 622
f 606 607 623
f 607 624 623
f 607 608 624
f 608 625 624
f 608 609 625
f 609 626 625
f 609 610 626
f 610 627 626
f 610 611 627
f 611 628 627
f 611 612 628
f 612 629 628
f 612 613 629
f 613 630 629
f 613 614 630
f 614 631 630
f 614 615 631
f 615 632 631
f 615 616 632
f 616 633 632
f 616 617 633
f 617 634 633
f 617 618 634
f 618 635 634
f 618 619 635
f 619 620 635
f 619 604 620
f 620 637 636
f 620 621 637
f 621 638 637
f 621 622 638
f 622 639 638
f 622 623 639
f 623 640 639
f 623 624 640
f 624 641 640
f 624 625 641
f 625 642 641
f 625 626 642
f 626 643 642
f 626 627 643
f 627 644 643
f 627 628 644
f 628 645 644
f 628 629 645
f 629 646 645
f 629 630 646
f 630 647 646
f 630 631 647
f 631 648 647
f 631 632 648
f 632 649 648
f 632 633 649
f 633 650 649
f 633 634 650
f 634 651 650
f 634 635 651
f 635 636 651
f 635 620 636
f 636 637 638
f 636 638 639
f 636 639 640
f 636 640 641
f 636 641 642
f 636 642 643
f 636 643 644
f 636 644 645
f 636 645 646
f 636 646 647
f 636 647 648
f 636 648 649
f 636 649 650
f 636 650 651
f 654 653 652
f 655 654 652
f 656 655 652
f 657 656 652
f 658 657 652
f 659 658 652
f 660 659 652
f 661 660 652
f 662 661 652
f 663 662 652
f 664 663 652
f 665 664 652
f 666 665 652
f 667 666 652
f 652 669 668
f 652 653 669
f 653 670 669
f 653 654 670
f 654 671 670
f 654 655 671
f 655 672 671
f 655 656 672
f 656 673 672
f 656 657 673
f 657 674 673
f 657 658 674
f 658 675 674
f 658 659 675
f 659 676 675
f 659 660 676
f 660 677 676
f 660 661 677
f 661 678 677
f 661 662 678
f 662 679 678
f 662 663 679
f 663 680 679
f 663 664 680
f 664 681 680
f 664 665 681
f 665 682 681
f 665 666 682
f 666 683 682
f 666 667 683
f 667 668 683
f 667 652 668
f 668 685 684
f 668 669 685
f 669 686 685
f 669 670 686
f 670 687 686
f 670 671 687
f 671 688 687
f 671 672 688
f 672 689 688
f 672 673 689
f 673 690 689
f 673 674 690
f 674 691 690
f 674 675 691
f 675 692 691
f 675 676 692
f 676 693 692
f 676 677 693
f 677 694 693
f 677 678 694
f 678 695 694
f 678 679 695
f 679 696 695
f 679 680 696
f 680 697 696
f 680 681 697
f 681 698 697
f 681 682 698
f 682 699 698
f 682 683 699
f 683 684 699
f 683 668 684
f 684 685 686
f 684 686 687
f 684 687 688
f 684 688 689
f 684 689 690
f 684 690 691
f 684 691 692
f 684 692 693
f 684 693 694
f 684 694 695
f 684 695 696
f 684 696 697
f 684 697 698
f 684 698 699
f 702 701 700
f 703 702 700
f 704 703 700
f 705 704 700
f 706 705 700
f 707 706 700
f 708 707 700
f 709 708 700
f 710 709 700
f 711 710 700
f 712 711 700
f 713 712 700
f 714 713 700
f 715 714 700
f 700 717 716
f 700 701 717
f 701 718 717
f 701 702 718
f 702 719 718
f 702 703 719
f 703 720 719
f 703 704 720
f 704 721 720
f 704 705 721
f 705 722 721
f 705 706 722
f 706 723 722
f 706 707 723
f 707 724 723
f 707 708 724
f 708 725 724
f 708 709 725
f 709 726 725
f 709 710 726
f 710 727 726
f 710 711 727
f 711 728 727
f 711 712 728
f 712 729 728
f 712 713 729
f 713 730 729
f 713 714 730
f 714 731 730
f 714 715 731
f 715 716 731
f 715 700 716
f 716 733 732
f 716 717 733
f 717 734 733
f 717 718 734
f 718 735 734
f 718 719 735
f 719 736 735
f 719 720 736
f 720 737 736
f 720 721 737
f 721 738 737
f 721 722 738
f 722 739 738
f 722 723 739
f 723 740 739
f 723 724 740
f 724 741 740
f 724 725 741
f 725 742 741
f 725 726 742
f 726 743 742
f 726 727 743
f 727 744 743
f 727 728 744
f 728 745 744
f 728 729 745
f 729 746 745
f 729 730 746
f 730 747 746
f 730 731 747
f 731 732 747
f 731 716 732
f 732 733 734
f 732 734 735
f 732 735 736
f 732 736 737
f 732 737 738
f 732 738 739
f 732 739 740
f 732 740 741
f 732 741 742
f 732 742 743
f 732 743 744
f 732 744 745
f 732 745 746
f 732 746 747
f 750 749 748
f 751 750 748
f 752 751 748
f 753 752 748
f 754 753 748
f 755 754 748
f 756 755 748
f 757 756 748
f 758 757 748
f 759 758 748
f 760 759 748
f 761 760 748
f 762 761 748
f 763 762 748
f 748 765 764
f 748 749 765
f 749 766 765
f 749 750 766
f 750 767 766
f 750 751 767
f 751 768 767
f 751 752 768
f 752 769 768
f 752 753 769
f 753 770 769
f 753 754 770
f 754 771 770
f 754 755 771
f 755 772 771
f 755 756 772
f 756 773 772
f 756 757 773
f 757 774 773
f 757 758 774
f 758 775 774
f 758 759 775
f 759 776 775
f 759 760 776
f 760 777 776
f 760 761 777
f 761 778 777
f 761 762 778
f 762 779 778
f 762 763 779
f 763 764 779
f 763 748 764
f 764 781 780
f 764 765 781
f 765 782 781
f 765 766 782
f 766 783 782
f 766 767 783
f 767 784 783
f 767 768 784
f 768 785 784
f 768 769 785
f 769 786 785
f 769 770 786
f 770 787 786
f 770 771 787
f 771 788 787
f 771 772 788
f 772 789 788
f 772 773 789
f 773 790 789
f 773 774 790
f 774 791 790
f 774 775 791
f 775 792 791
f 775 776 792
f 776 793 792
f 776 777 793
f 777 794 793
f 777 778 794
f 778 795 794
f 778 779 795
f 779 780 795
f 779 764 780
f 780 781 782
f 780 782 783
f 780 783 784
f 780 784 785
f 780 785 786
f 780 786 787
f 780 787 788
f 780 788 789
f 780 789 790
f 780 790 791
f 780 791 792
f 780 792 793
f 780 793 794
f 780 794 795
f 798 797 796
f 799 798 796
f 800 799 796
f 801 800 796
f 802 801 796
f 803 802 796
f 804 803 796
f 805 804 796
f 806 805 796
f 807 806 796
f 808 807 796
f 809 808 796
f 810 809 796
f 811 810 796
f 796 813 812
f 796 797 813
f 797 814 813
f 797 798 814
f 798 815 814
f 798 799 815
f 799 816 815
f 799 800 816
f 800 817 816
f 800 801 817
f 801 818 817
f 801 802 818
f 802 819 818
f 802 803 819
f 803 820 819
f 803 804 820
f 804 821 820
f 804 805 821
f 805 822 821
f 805 806 822
f 806 823 822
f 806 807 823
f 807 824 823
f 807 808 824
f 808 825 824
f 808 809 825
f 809 826 825
f 809 810 826
f 810 827 826
f 810 811 827
f 811 812 827
f 811 796 812
f 812 829 828
f 812 813 829
f 813 830 829
f 813 814 830
f 814 831 830
f 814 815 831
f 815 832 831
f 815 816 832
f 816 833 832
f 816 817 833
f 817 834 833
f 817 818 834
f 818 835 834
f 818 819 835
f 819 836 835
f 819 820 836
f 820 837 836
f 820 821 837
f 821 838 837
f 821 822 838
f 822 839 838
f 822 823 839
f 823 840 839
f 823 824 840
f 824 841 840
f 824 825 841
f 825 842 841
f 825 826 842
f 826 843 842
f 826 827 843
f 827 828 843
f 827 812 828
f 828 829 830
f 828 830 831
f 828 831 832
f 828 832 833
f 828 833 834
f 828 834 835
f 828 835 836
f 828 836 837
f 828 837 838
f 828 838 839
f 828 839 840
f 828 840 841
f 828 841 842
f 828 842 843
f 846 845 844
f 847 846 844
f 848 847 844
f 849 848 844
f 850 849 844
f 851 850 844
f 852 851 844
f 853 852 844
f 854 853 844
f 855 854 844
f 856 855 844
f 857 856 844
f 858 857 844
f 859 858 844
f 844 861 860
f 844 845 861
f 845 862 861
f 845 846 862
f 846 863 862
f 846 847 863
f 847 864 863
f 847 848 864
f 848 865 864
f 848 849 865
f 849 866 865
f 849 850 866
f 850 867 866
f 850 851 867
f 851 868 867
f 851 852 868
f 852 869 868
f 852 853 869
f 853 870 869
f 853 854 870
f 854 871 870
f 854 855 871
f 855 872 871
f 855 856 872
f 856 873 872
f 856 857 873
f 857 874 873
f 857 858 874
f 858 875 874
f 858 859 875
f 859 860 875
f 859 844 860
f 860 877 876
f 860 861 877
f 861 878 877
f 861 862 878
f 862 879 878
f 862 863 879
f 863 880 879
f 863 864 880
f 864 881 880
f 864 865 881
f 865 882 881
f 865 866 882
f 866 883 882
f 866 867 883
f 867 884 883
f 867 868 884
f 868 885 884
f 868 869 885
f 869 886 885
f 869 870 886
f 870 887 886
f 870 871 887
f 871 888 887
f 871 872 888
f 872 889 888
f 872 873 889
f 873 890 889
f 873 874 890
f 874 891 890
f 874 875 891
f 875 876 891
f 875 860 876
f 876 877 878
f 876 878 879
f 876 879 880
f 876 880 881
f 876 881 882
f 876 882 883
f 876 883 884
f 876 884 885
f 876 885 886
f 876 886 887
f 876 887 888
f 876 888 889
f 876 889 890
f 876 890 891

