# https://github.com/mikedh/trimesh

o m1.off
v 0.27406600 0.25506100 0.04125430
v 0.22530300 0.24518300 0.05538300
v 0.25968700 0.28756900 0.05750860
v 0.17654000 0.25506100 0.04125430
v 0.19091900 0.28756900 0.05750860
v 0.19091900 0.22255200 0.02500000
v 0.25968700 0.22255200 0.02500000
v 0.28894400 0.30607400 0.10852200
v 0.30219800 0.21580000 0.06351010
v 0.16166100 0.30607400 0.10852200
v 0.14840700 0.21580000 0.06351010
v 0.34783500 0.22417700 0.16716200
v 0.30845000 0.31082500 0.17353900
v 0.31532600 0.30119800 0.24255700
v 0.22530300 0.33983300 0.22492800
v 0.14215600 0.31082500 0.17353900
v 0.13527900 0.30119800 0.24255700
v 0.10277000 0.22417700 0.16716200
v 0.14215600 0.15365900 0.09489340
v 0.13527900 0.13115300 0.15741000
v 0.22530300 0.10852200 0.10927200
v 0.30845000 0.15365900 0.09489340
v 0.31532600 0.13115300 0.15741000
v 0.34295900 0.20004600 0.26568800
v 0.30845000 0.12140000 0.22642800
v 0.22530300 0.09514350 0.24455800
v 0.14215600 0.12140000 0.22642800
v 0.10764700 0.20004600 0.26568800
v 0.14215600 0.27856700 0.30507400
v 0.22530300 0.25856100 0.39147100
v 0.30845000 0.27856700 0.30507400
v 0.30219800 0.15515900 0.31820200
v 0.27406600 0.18091600 0.40560000
v 0.25968700 0.14465600 0.34245900
v 0.14840700 0.15515900 0.31820200
v 0.19091900 0.14465600 0.34245900
v 0.17654000 0.18091600 0.40560000
v 0.19091900 0.21342500 0.42197900
v 0.16166100 0.24430800 0.37496700
v 0.25968700 0.21342500 0.42197900
v 0.28894400 0.24430800 0.37496700
v 0.22530300 0.16366100 0.39009600
v 0.24768400 0.20954900 0.64028700
v 0.24430800 0.23105400 0.62603300
v 0.22330200 0.21004900 0.64216200
v 0.20392200 0.23205400 0.62740900
v 0.19879600 0.21092400 0.64191200
v 0.26656400 0.16966300 0.72505900
v 0.28631900 0.19141900 0.68967500
v 0.30494900 0.18416700 0.73581200
v 0.23943100 0.18241600 0.69542600
v 0.21067400 0.16966300 0.72393400
v 0.19279400 0.19141900 0.68792400
v 0.17241400 0.18416700 0.73318600
v 0.23793100 0.19854600 0.75544200
v 0.17003800 0.20029600 0.77619800
v 0.19329400 0.16303600 0.76757000
v 0.28694400 0.16303600 0.76944600
v 0.31032500 0.20192200 0.77769800
v 0.17854000 0.21430000 0.68029700
v 0.24005700 0.22592800 0.64041200
v 0.30094800 0.21442500 0.68267300
v 0.30582400 0.23968100 0.68579900
v 0.32632900 0.21317500 0.74168900
v 0.17341400 0.23968100 0.68317300
v 0.15078300 0.21079900 0.74168900
v 0.17078800 0.20429700 0.81220700
v 0.15953500 0.23180400 0.80795600
v 0.15165800 0.25393500 0.75531700
v 0.32470400 0.25393500 0.75869300
v 0.31107500 0.23130400 0.81045700
v 0.30332300 0.20429700 0.81483300
v 0.17378900 0.22455300 0.81758400
v 0.22380200 0.19992100 0.84584100
v 0.21630000 0.22180200 0.84546600
v 0.17816500 0.26331300 0.69605200
v 0.30057300 0.26343800 0.69842700
v 0.27006500 0.28544400 0.76557000
v 0.30432300 0.27469100 0.76494500
v 0.17178900 0.27469100 0.76231900
v 0.20604800 0.28544400 0.76419500
v 0.17153900 0.25393500 0.81170700
v 0.17816500 0.26006200 0.81333200
v 0.29882200 0.25356000 0.81383300
v 0.29207000 0.25968700 0.81520800
v 0.23755600 0.28519300 0.76582000
v 0.20754800 0.25918700 0.82633600
v 0.26506300 0.26143700 0.82558600
v 0.25456000 0.20042100 0.84434100
v 0.25706100 0.22130200 0.84584100
v 0.29757200 0.22417700 0.81958400
v 0.23818100 0.19504500 0.42910600
v 0.25406000 0.18216600 0.47899400
v 0.21755100 0.17616500 0.52275600
v 0.21555000 0.18704300 0.43435800
v 0.17916600 0.18416700 0.48149500
v 0.19354400 0.19617000 0.43060700
v 0.25531100 0.22192700 0.44511100
v 0.26956400 0.24918400 0.48362100
v 0.28131700 0.21380000 0.48949700
v 0.26043700 0.19404400 0.46061500
v 0.21967600 0.24905900 0.45311300
v 0.22167700 0.26556300 0.48712200
v 0.18054100 0.22380200 0.44761100
v 0.17178900 0.25168500 0.48687200
v 0.21955100 0.24755900 0.45298800
v 0.17316400 0.19629500 0.46349000
v 0.15641000 0.21705100 0.49362300
v 0.16903800 0.18691800 0.51900500
v 0.26681400 0.18441700 0.51575400
v 0.28431800 0.23130400 0.55901600
v 0.27181500 0.25743600 0.54138600
v 0.26093700 0.25381000 0.57351900
v 0.27556600 0.22705300 0.59077400
v 0.22305200 0.27069000 0.52513200
v 0.17403900 0.25993700 0.54463700
v 0.18616700 0.25568600 0.57602000
v 0.15953500 0.23443000 0.56314200
v 0.16966300 0.22980400 0.59427500
v 0.17178900 0.20004600 0.58889800
v 0.18466700 0.21192400 0.60940400
v 0.21992600 0.18529200 0.58389700
v 0.27069000 0.19354400 0.56951800
v 0.25943700 0.21004900 0.60690300
v 0.09176760 0.17604000 0.45148700
v 0.02637540 0.04863120 0.28944500
v 0.10002000 0.17366400 0.46124000
v 0.11714900 0.17391400 0.45448800
v 0.11714900 0.17003800 0.44261000
v 0.09514350 0.16666200 0.44161000
v 0.19867100 0.19742000 0.46311500
v 0.06563570 0.14103100 0.62303200
v 0.03550280 0.07063700 0.70943000
v 0.06913660 0.14603200 0.63653600
v 0.07213740 0.13402900 0.64778900
v 0.07426300 0.12140000 0.64103700
v 0.07163730 0.12615200 0.62240700
v 0.21292400 0.22930400 0.59064900
v 0.04613060 0.20379700 0.51525400
v 0.02500000 0.02500000 0.53238400
v 0.05725850 0.20454700 0.53013300
v 0.06538560 0.18616700 0.53575900
v 0.06351010 0.17416400 0.52250600
v 0.05163200 0.18691800 0.50562600
v 0.19529500 0.24643300 0.50312600
v 0.37271700 0.14665700 0.63503600
v 0.41185200 0.06726110 0.70567900
v 0.37421700 0.14403100 0.62053200
v 0.37496700 0.12777700 0.61653100
v 0.37021600 0.11965000 0.62740900
v 0.36634000 0.13302800 0.64103700
v 0.22467800 0.23243000 0.59139900
v 0.33420600 0.17391400 0.44886200
v 0.42485500 0.04650570 0.28444300
v 0.32933000 0.16591200 0.43973400
v 0.32357900 0.15365900 0.44511100
v 0.32170300 0.15465900 0.45748900
v 0.32770500 0.17016300 0.46074000
v 0.24668300 0.19504500 0.46024000
v 0.40697600 0.20679800 0.51037800
v 0.41922900 0.04350490 0.55964100
v 0.40172400 0.19879600 0.49449900
v 0.39559800 0.17891600 0.49637400
v 0.39234700 0.17503900 0.51362900
v 0.39797300 0.19592000 0.52463200
v 0.25131000 0.23843100 0.51562900
v 0.12165000 0.38209400 0.97187400
v 0.12277600 0.35446200 0.88397600
v 0.12265100 0.34808500 0.88722700
v 0.19617000 0.27369000 0.78707600
v 0.19617000 0.26981400 0.78895100
v 0.27756600 0.27094000 0.79020100
v 0.27944200 0.27094000 0.79020100
v 0.34796000 0.35108600 0.89097800
v 0.34583400 0.35083600 0.89047800
v 0.27744100 0.27469100 0.78820100
v 0.34570900 0.35733700 0.88710200
v 0.34783500 0.35746200 0.88760200
v 0.27944200 0.27469100 0.78832600
v 0.34570900 0.38484500 0.97500000
v 0.19817100 0.26981400 0.78895100
v 0.19817100 0.27369000 0.78707600
v 0.12490100 0.35433700 0.88360100
v 0.12490100 0.34783500 0.88685200
v 0.21142400 0.24818400 0.83396300
v 0.26181200 0.24893400 0.83396300
v 0.21580000 0.22942900 0.84346500
v 0.25781100 0.22892900 0.84421600
v 0.08276520 0.18504200 0.44973700
v 0.09426820 0.19492000 0.44473500
v 0.10239500 0.17604000 0.42423000
v 0.09076730 0.16566200 0.42910600
v 0.12540100 0.16828800 0.46299000
v 0.11514900 0.15866000 0.46786700
v 0.10914700 0.18891800 0.46749100
v 0.09851930 0.17979100 0.47249300
v 0.05913400 0.14728200 0.61140400
v 0.07513820 0.15440900 0.60677800
v 0.08889180 0.12427600 0.60590300
v 0.07251250 0.11652400 0.61065400
v 0.09339300 0.14478200 0.65366500
v 0.07863910 0.13790500 0.65866700
v 0.07876410 0.16528700 0.63641100
v 0.06363520 0.15891000 0.64116200
v 0.03337720 0.21517500 0.50850200
v 0.05000660 0.22692800 0.49862500
v 0.06313500 0.19304400 0.47874400
v 0.04625560 0.18041600 0.48874700
v 0.09339300 0.19854600 0.53613400
v 0.07838900 0.18716800 0.54601200
v 0.06951170 0.22830400 0.53313400
v 0.05413270 0.21730100 0.54301100
v 0.37496700 0.15853500 0.64341300
v 0.35846300 0.16453700 0.63853600
v 0.34433400 0.13677900 0.64991400
v 0.36108800 0.13015300 0.65504100
v 0.35733700 0.13115300 0.59965100
v 0.37284200 0.12502600 0.60365200
v 0.36571500 0.15928500 0.60802800
v 0.38134400 0.15378400 0.61215500
v 0.34245900 0.18379200 0.44836100
v 0.33033000 0.19316900 0.44423500
v 0.31582700 0.18579200 0.46824200
v 0.32808000 0.17591500 0.47274300
v 0.30544900 0.15728500 0.43410800
v 0.31645200 0.14790700 0.43773400
v 0.32307800 0.17491400 0.42448000
v 0.33445600 0.16591200 0.42798100
v 0.41697800 0.22167700 0.51412900
v 0.39822300 0.23418000 0.51112800
v 0.37796800 0.21229900 0.53988600
v 0.39697300 0.19904600 0.54338600
v 0.36984100 0.18529200 0.48112000
v 0.38697000 0.17291400 0.48362100
v 0.39197200 0.21605000 0.47636900
v 0.40960100 0.20417200 0.47874400
v 0.19054400 0.23830600 0.85184300
v 0.28119200 0.23830600 0.85321800
v 0.25268500 0.17841500 0.79570300
v 0.27769100 0.17316400 0.77732300
v 0.27769100 0.17316400 0.78032400
v 0.24418300 0.16603700 0.83333800
v 0.24418300 0.18816800 0.83333800
v 0.27769100 0.19529500 0.78032400
v 0.27769100 0.19529500 0.77732300
v 0.19679500 0.17316400 0.77732300
v 0.22180200 0.17841500 0.79570300
v 0.23017900 0.16603700 0.83333800
v 0.19679500 0.17316400 0.78032400
v 0.19679500 0.19529500 0.77732300
v 0.19679500 0.19529500 0.78032400
v 0.23017900 0.18816800 0.83333800
v 0.28181800 0.24205700 0.52625700
v 0.16128600 0.24518300 0.53025800
v 0.16666200 0.19279400 0.56101600
f 117 115 116
f 113 112 115
f 45 46 47
f 45 43 44
f 124 123 114
f 111 114 123
f 45 122 124
f 123 124 122
f 121 120 45
f 122 45 120
f 119 118 121
f 120 121 118
f 117 116 119
f 118 119 116
f 114 111 113
f 112 113 111
f 93 101 110
f 100 110 101
f 110 94 93
f 92 93 94
f 92 94 95
f 96 95 94
f 96 97 95
f 96 94 109
f 107 96 108
f 109 108 96
f 104 107 105
f 108 105 107
f 106 104 102
f 103 102 104
f 103 104 105
f 98 102 99
f 103 99 102
f 101 98 100
f 99 100 98
f 71 91 72
f 90 72 91
f 90 89 72
f 88 85 86
f 78 86 85
f 87 86 83
f 81 83 86
f 81 80 83
f 81 76 80
f 69 80 76
f 69 76 66
f 76 65 66
f 60 66 65
f 60 56 66
f 60 54 56
f 60 53 54
f 52 54 53
f 52 56 54
f 52 57 56
f 55 56 57
f 52 53 51
f 61 51 53
f 53 60 61
f 65 61 60
f 65 76 61
f 83 80 82
f 69 82 80
f 69 68 82
f 69 56 68
f 67 68 56
f 66 56 69
f 77 63 61
f 62 61 63
f 62 51 61
f 62 49 51
f 48 51 49
f 48 49 50
f 48 50 59
f 48 59 58
f 55 58 59
f 50 49 59
f 62 59 49
f 62 63 59
f 59 63 64
f 70 64 63
f 63 77 70
f 78 70 77
f 78 79 70
f 78 85 79
f 84 79 85
f 79 84 70
f 71 70 84
f 71 64 70
f 71 72 64
f 74 75 67
f 73 67 75
f 73 68 67
f 42 34 33
f 32 33 34
f 32 41 33
f 33 41 40
f 30 40 41
f 42 37 36
f 35 36 37
f 37 38 35
f 39 35 38
f 30 39 38
f 31 24 14
f 12 14 24
f 12 13 14
f 30 31 15
f 14 15 31
f 14 13 15
f 29 30 17
f 15 17 30
f 15 16 17
f 28 29 18
f 17 18 29
f 17 16 18
f 27 28 20
f 18 20 28
f 18 19 20
f 26 27 21
f 20 21 27
f 20 19 21
f 25 26 23
f 21 23 26
f 21 22 23
f 24 25 12
f 23 12 25
f 23 22 12
f 2 7 9
f 1 9 7
f 1 8 9
f 1 3 8
f 2 8 3
f 2 3 1
f 2 1 7
f 2 11 6
f 4 6 11
f 4 2 6
f 4 5 2
f 10 2 5
f 10 5 11
f 11 5 4
f 184 169 181
f 171 181 169
f 182 170 183
f 168 183 170
f 181 171 182
f 170 182 171
f 171 169 170
f 168 170 169
f 169 167 168
f 184 181 183
f 182 183 181
f 172 175 176
f 177 176 175
f 180 174 178
f 179 178 174
f 179 176 178
f 178 176 177
f 176 179 172
f 173 172 179
f 179 174 173
f 172 173 174
f 175 172 174
f 162 166 160
f 165 160 166
f 165 161 160
f 165 164 161
f 163 161 164
f 163 164 166
f 163 166 162
f 164 165 166
f 163 162 161
f 160 161 162
f 155 159 153
f 158 153 159
f 158 154 153
f 158 157 154
f 156 154 157
f 156 157 159
f 156 159 155
f 157 158 159
f 156 155 154
f 153 154 155
f 148 152 146
f 151 146 152
f 151 147 146
f 151 150 147
f 149 147 150
f 149 150 152
f 149 152 148
f 150 151 152
f 149 148 147
f 146 147 148
f 141 145 139
f 144 139 145
f 144 140 139
f 144 143 140
f 142 140 143
f 142 143 145
f 142 145 141
f 143 144 145
f 142 141 140
f 139 140 141
f 134 138 132
f 137 132 138
f 137 133 132
f 137 136 133
f 135 133 136
f 135 136 138
f 135 138 134
f 136 137 138
f 135 134 133
f 132 133 134
f 127 131 125
f 130 125 131
f 130 126 125
f 130 129 126
f 128 126 129
f 128 129 131
f 128 131 127
f 129 130 131
f 128 127 126
f 125 126 127
f 32 25 24
f 35 28 27
f 39 30 29
f 41 31 30
f 18 11 19
f 22 9 12
f 55 89 74
f 90 74 89
f 90 75 74
f 90 188 75
f 187 75 188
f 187 188 186
f 187 186 185
f 88 185 186
f 88 87 185
f 88 86 87
f 86 61 81
f 76 81 61
f 78 77 86
f 61 86 77
f 52 51 57
f 55 57 51
f 51 48 55
f 58 55 48
f 37 42 38
f 30 38 42
f 30 42 40
f 33 40 42
f 25 32 26
f 34 26 32
f 34 42 26
f 42 36 26
f 35 26 36
f 35 27 26
f 39 29 35
f 28 35 29
f 32 24 41
f 31 41 24
f 9 8 12
f 13 12 8
f 8 2 13
f 15 13 2
f 2 10 15
f 16 15 10
f 10 11 16
f 18 16 11
f 11 2 19
f 21 19 2
f 2 9 21
f 22 21 9
f 229 236 230
f 235 230 236
f 236 234 235
f 233 235 234
f 234 232 233
f 231 233 232
f 232 229 231
f 230 231 229
f 221 228 222
f 227 222 228
f 228 226 227
f 225 227 226
f 226 224 225
f 223 225 224
f 224 221 223
f 222 223 221
f 213 220 214
f 219 214 220
f 220 218 219
f 217 219 218
f 218 216 217
f 215 217 216
f 216 213 215
f 214 215 213
f 205 212 206
f 211 206 212
f 212 210 211
f 209 211 210
f 210 208 209
f 207 209 208
f 208 205 207
f 206 207 205
f 197 204 198
f 203 198 204
f 204 202 203
f 201 203 202
f 202 200 201
f 199 201 200
f 200 197 199
f 198 199 197
f 189 196 190
f 195 190 196
f 196 194 195
f 193 195 194
f 194 192 193
f 191 193 192
f 192 189 191
f 190 191 189
f 186 188 238
f 187 185 237
f 167 183 168
f 167 169 184
f 183 167 184
f 180 175 174
f 180 177 175
f 177 180 178
f 71 84 91
f 238 91 84
f 90 91 188
f 238 188 91
f 87 83 185
f 237 185 83
f 237 83 82
f 73 75 237
f 187 237 75
f 85 88 84
f 238 84 88
f 238 88 186
f 82 68 237
f 73 237 68
f 116 254 118
f 99 253 100
f 254 105 108
f 111 253 112
f 248 247 252
f 247 246 250
f 239 242 243
f 240 239 245
f 93 92 101
f 98 101 92
f 98 92 102
f 95 102 92
f 95 106 102
f 95 104 106
f 95 97 104
f 107 104 97
f 97 96 107
f 118 254 120
f 255 120 254
f 254 108 255
f 109 255 108
f 100 253 110
f 123 110 253
f 123 253 111
f 110 123 94
f 122 94 123
f 109 94 255
f 120 255 94
f 120 94 122
f 45 47 121
f 119 121 47
f 47 46 119
f 117 119 46
f 46 45 117
f 115 117 45
f 45 44 115
f 113 115 44
f 44 43 113
f 114 113 43
f 114 43 124
f 45 124 43
f 115 103 116
f 254 116 103
f 254 103 105
f 253 99 112
f 115 112 99
f 115 99 103
f 246 249 250
f 251 250 249
f 249 248 251
f 252 251 248
f 247 250 252
f 251 252 250
f 249 246 248
f 247 248 246
f 242 241 243
f 244 243 241
f 241 240 244
f 245 244 240
f 245 239 244
f 243 244 239
f 242 239 241
f 240 241 239
f 72 59 64
f 55 59 89
f 72 89 59
f 56 55 67
f 74 67 55

