# https://github.com/mikedh/trimesh

o m17.off
v 0.50000000 0.17861300 0.39118700
v 0.50000000 0.17485300 0.41492100
v 0.48604900 0.17485300 0.41038900
v 0.47742700 0.17485300 0.39852100
v 0.47742700 0.17485300 0.38385300
v 0.48604900 0.17485300 0.37198500
v 0.50000000 0.17485300 0.36745300
v 0.51395100 0.17485300 0.37198500
v 0.52257300 0.17485300 0.38385300
v 0.52257300 0.17485300 0.39852100
v 0.51395100 0.17485300 0.41038900
v 0.50000000 0.16394400 0.43633300
v 0.47346400 0.16394400 0.42771100
v 0.45706400 0.16394400 0.40513800
v 0.45706400 0.16394400 0.37723600
v 0.47346400 0.16394400 0.35466300
v 0.50000000 0.16394400 0.34604100
v 0.52653600 0.16394400 0.35466300
v 0.54293600 0.16394400 0.37723600
v 0.54293600 0.16394400 0.40513800
v 0.52653600 0.16394400 0.42771100
v 0.50000000 0.14695200 0.45332500
v 0.46347600 0.14695200 0.44145700
v 0.44090400 0.14695200 0.41038900
v 0.44090400 0.14695200 0.37198500
v 0.46347600 0.14695200 0.34091700
v 0.50000000 0.14695200 0.32904900
v 0.53652400 0.14695200 0.34091700
v 0.55909600 0.14695200 0.37198500
v 0.55909600 0.14695200 0.41038900
v 0.53652400 0.14695200 0.44145700
v 0.50000000 0.12554100 0.46423400
v 0.45706400 0.12554100 0.45028300
v 0.43052800 0.12554100 0.41376000
v 0.43052800 0.12554100 0.36861400
v 0.45706400 0.12554100 0.33209100
v 0.50000000 0.12554100 0.31814000
v 0.54293600 0.12554100 0.33209100
v 0.56947200 0.12554100 0.36861400
v 0.56947200 0.12554100 0.41376000
v 0.54293600 0.12554100 0.45028300
v 0.50000000 0.10180600 0.46799300
v 0.45485400 0.10180600 0.45332500
v 0.42695300 0.10180600 0.41492100
v 0.42695300 0.10180600 0.36745300
v 0.45485400 0.10180600 0.32904900
v 0.50000000 0.10180600 0.31438100
v 0.54514600 0.10180600 0.32904900
v 0.57304700 0.10180600 0.36745300
v 0.57304700 0.10180600 0.41492100
v 0.54514600 0.10180600 0.45332500
v 0.50000000 0.07807180 0.46423400
v 0.45706400 0.07807180 0.45028300
v 0.43052800 0.07807180 0.41376000
v 0.43052800 0.07807180 0.36861400
v 0.45706400 0.07807180 0.33209100
v 0.50000000 0.07807180 0.31814000
v 0.54293600 0.07807180 0.33209100
v 0.56947200 0.07807180 0.36861400
v 0.56947200 0.07807180 0.41376000
v 0.54293600 0.07807180 0.45028300
v 0.50000000 0.05666070 0.45332500
v 0.46347600 0.05666070 0.44145700
v 0.44090400 0.05666070 0.41038900
v 0.44090400 0.05666070 0.37198500
v 0.46347600 0.05666070 0.34091700
v 0.50000000 0.05666070 0.32904900
v 0.53652400 0.05666070 0.34091700
v 0.55909600 0.05666070 0.37198500
v 0.55909600 0.05666070 0.41038900
v 0.53652400 0.05666070 0.44145700
v 0.50000000 0.03966870 0.43633300
v 0.47346400 0.03966870 0.42771100
v 0.45706400 0.03966870 0.40513800
v 0.45706400 0.03966870 0.37723600
v 0.47346400 0.03966870 0.35466300
v 0.50000000 0.03966870 0.34604100
v 0.52653600 0.03966870 0.35466300
v 0.54293600 0.03966870 0.37723600
v 0.54293600 0.03966870 0.40513800
v 0.52653600 0.03966870 0.42771100
v 0.50000000 0.02875920 0.41492100
v 0.48604900 0.02875920 0.41038900
v 0.47742700 0.02875920 0.39852100
v 0.47742700 0.02875920 0.38385300
v 0.48604900 0.02875920 0.37198500
v 0.50000000 0.02875920 0.36745300
v 0.51395100 0.02875920 0.37198500
v 0.52257300 0.02875920 0.38385300
v 0.52257300 0.02875920 0.39852100
v 0.51395100 0.02875920 0.41038900
v 0.50000000 0.02500000 0.39118700
v 0.76762300 0.28184700 0.39118700
v 0.76658500 0.28288400 0.39570200
v 0.55046900 0.06452000 0.39118700
v 0.54943100 0.06555680 0.39570200
v 0.54503500 0.06994880 0.39118700
v 0.76219000 0.28727600 0.39118700
v 0.76386900 0.28559900 0.39849200
v 0.54671400 0.06827120 0.39849200
v 0.76051100 0.28895400 0.39849200
v 0.54335600 0.07162650 0.39849200
v 0.75779400 0.29166800 0.39570200
v 0.54064000 0.07434090 0.39570200
v 0.75675700 0.29270500 0.39118700
v 0.53960200 0.07537770 0.39118700
v 0.75779400 0.29166800 0.38667200
v 0.54064000 0.07434090 0.38667200
v 0.76051100 0.28895400 0.38388200
v 0.54335600 0.07162650 0.38388200
v 0.76386900 0.28559900 0.38388200
v 0.54671400 0.06827120 0.38388200
v 0.76658500 0.28288400 0.38667200
v 0.54943100 0.06555680 0.38667200
v 0.75730100 0.29382200 0.39118700
v 0.75730100 0.29307000 0.39593400
v 0.75451100 0.29307000 0.39502700
v 0.75278700 0.29307000 0.39265400
v 0.75278700 0.29307000 0.38972000
v 0.75451100 0.29307000 0.38734700
v 0.75730100 0.29307000 0.38644000
v 0.76009100 0.29307000 0.38734700
v 0.76181600 0.29307000 0.38972000
v 0.76181600 0.29307000 0.39265400
v 0.76009100 0.29307000 0.39502700
v 0.75730100 0.29088800 0.40021600
v 0.75199400 0.29088800 0.39849200
v 0.74871400 0.29088800 0.39397700
v 0.74871400 0.29088800 0.38839700
v 0.75199400 0.29088800 0.38388200
v 0.75730100 0.29088800 0.38215800
v 0.76260800 0.29088800 0.38388200
v 0.76588800 0.29088800 0.38839700
v 0.76588800 0.29088800 0.39397700
v 0.76260800 0.29088800 0.39849200
v 0.75730100 0.28749000 0.40361500
v 0.74999600 0.28749000 0.40124100
v 0.74548200 0.28749000 0.39502700
v 0.74548200 0.28749000 0.38734700
v 0.74999600 0.28749000 0.38113300
v 0.75730100 0.28749000 0.37875900
v 0.76460600 0.28749000 0.38113300
v 0.76912000 0.28749000 0.38734700
v 0.76912000 0.28749000 0.39502700
v 0.76460600 0.28749000 0.40124100
v 0.75730100 0.28320800 0.40579600
v 0.74871400 0.28320800 0.40300600
v 0.74340700 0.28320800 0.39570200
v 0.74340700 0.28320800 0.38667200
v 0.74871400 0.28320800 0.37936800
v 0.75730100 0.28320800 0.37657800
v 0.76588800 0.28320800 0.37936800
v 0.77119500 0.28320800 0.38667200
v 0.77119500 0.28320800 0.39570200
v 0.76588800 0.28320800 0.40300600
v 0.75730100 0.27846100 0.40654800
v 0.74827200 0.27846100 0.40361500
v 0.74269200 0.27846100 0.39593400
v 0.74269200 0.27846100 0.38644000
v 0.74827200 0.27846100 0.37875900
v 0.75730100 0.27846100 0.37582600
v 0.76633000 0.27846100 0.37875900
v 0.77191000 0.27846100 0.38644000
v 0.77191000 0.27846100 0.39593400
v 0.76633000 0.27846100 0.40361500
v 0.75730100 0.27371400 0.40579600
v 0.74871400 0.27371400 0.40300600
v 0.74340700 0.27371400 0.39570200
v 0.74340700 0.27371400 0.38667200
v 0.74871400 0.27371400 0.37936800
v 0.75730100 0.27371400 0.37657800
v 0.76588800 0.27371400 0.37936800
v 0.77119500 0.27371400 0.38667200
v 0.77119500 0.27371400 0.39570200
v 0.76588800 0.27371400 0.40300600
v 0.75730100 0.26943200 0.40361500
v 0.74999600 0.26943200 0.40124100
v 0.74548200 0.26943200 0.39502700
v 0.74548200 0.26943200 0.38734700
v 0.74999600 0.26943200 0.38113300
v 0.75730100 0.26943200 0.37875900
v 0.76460600 0.26943200 0.38113300
v 0.76912000 0.26943200 0.38734700
v 0.76912000 0.26943200 0.39502700
v 0.76460600 0.26943200 0.40124100
v 0.75730100 0.26603300 0.40021600
v 0.75199400 0.26603300 0.39849200
v 0.74871400 0.26603300 0.39397700
v 0.74871400 0.26603300 0.38839700
v 0.75199400 0.26603300 0.38388200
v 0.75730100 0.26603300 0.38215800
v 0.76260800 0.26603300 0.38388200
v 0.76588800 0.26603300 0.38839700
v 0.76588800 0.26603300 0.39397700
v 0.76260800 0.26603300 0.39849200
v 0.75730100 0.26385100 0.39593400
v 0.75451100 0.26385100 0.39502700
v 0.75278700 0.26385100 0.39265400
v 0.75278700 0.26385100 0.38972000
v 0.75451100 0.26385100 0.38734700
v 0.75730100 0.26385100 0.38644000
v 0.76009100 0.26385100 0.38734700
v 0.76181600 0.26385100 0.38972000
v 0.76181600 0.26385100 0.39265400
v 0.76009100 0.26385100 0.39502700
v 0.75730100 0.26309900 0.39118700
v 0.75784600 0.29270500 0.39118700
v 0.75680800 0.29166800 0.39570200
v 0.97500000 0.07537770 0.39118700
v 0.97396200 0.07434090 0.39570200
v 0.96956700 0.06994880 0.39118700
v 0.75241200 0.28727600 0.39118700
v 0.75409100 0.28895400 0.39849200
v 0.97124600 0.07162650 0.39849200
v 0.75073300 0.28559900 0.39849200
v 0.96788800 0.06827120 0.39849200
v 0.74801700 0.28288400 0.39570200
v 0.96517100 0.06555680 0.39570200
v 0.74697900 0.28184700 0.39118700
v 0.96413400 0.06452000 0.39118700
v 0.74801700 0.28288400 0.38667200
v 0.96517100 0.06555680 0.38667200
v 0.75073300 0.28559900 0.38388200
v 0.96788800 0.06827120 0.38388200
v 0.75409100 0.28895400 0.38388200
v 0.97124600 0.07162650 0.38388200
v 0.75680800 0.29166800 0.38667200
v 0.97396200 0.07434090 0.38667200
v 0.24324300 0.29270500 0.39118700
v 0.24220600 0.29166800 0.39570200
v 0.46039800 0.07537770 0.39118700
v 0.45936000 0.07434090 0.39570200
v 0.45496500 0.06994880 0.39118700
v 0.23781000 0.28727600 0.39118700
v 0.23948900 0.28895400 0.39849200
v 0.45664400 0.07162650 0.39849200
v 0.23613100 0.28559900 0.39849200
v 0.45328600 0.06827120 0.39849200
v 0.23341500 0.28288400 0.39570200
v 0.45056900 0.06555680 0.39570200
v 0.23237700 0.28184700 0.39118700
v 0.44953100 0.06452000 0.39118700
v 0.23341500 0.28288400 0.38667200
v 0.45056900 0.06555680 0.38667200
v 0.23613100 0.28559900 0.38388200
v 0.45328600 0.06827120 0.38388200
v 0.23948900 0.28895400 0.38388200
v 0.45664400 0.07162650 0.38388200
v 0.24220600 0.29166800 0.38667200
v 0.45936000 0.07434090 0.38667200
v 0.24269900 0.29382200 0.39118700
v 0.24269900 0.29307000 0.39593400
v 0.23990900 0.29307000 0.39502700
v 0.23818400 0.29307000 0.39265400
v 0.23818400 0.29307000 0.38972000
v 0.23990900 0.29307000 0.38734700
v 0.24269900 0.29307000 0.38644000
v 0.24548900 0.29307000 0.38734700
v 0.24721300 0.29307000 0.38972000
v 0.24721300 0.29307000 0.39265400
v 0.24548900 0.29307000 0.39502700
v 0.24269900 0.29088800 0.40021600
v 0.23739200 0.29088800 0.39849200
v 0.23411200 0.29088800 0.39397700
v 0.23411200 0.29088800 0.38839700
v 0.23739200 0.29088800 0.38388200
v 0.24269900 0.29088800 0.38215800
v 0.24800600 0.29088800 0.38388200
v 0.25128600 0.29088800 0.38839700
v 0.25128600 0.29088800 0.39397700
v 0.24800600 0.29088800 0.39849200
v 0.24269900 0.28749000 0.40361500
v 0.23539400 0.28749000 0.40124100
v 0.23088000 0.28749000 0.39502700
v 0.23088000 0.28749000 0.38734700
v 0.23539400 0.28749000 0.38113300
v 0.24269900 0.28749000 0.37875900
v 0.25000400 0.28749000 0.38113300
v 0.25451800 0.28749000 0.38734700
v 0.25451800 0.28749000 0.39502700
v 0.25000400 0.28749000 0.40124100
v 0.24269900 0.28320800 0.40579600
v 0.23411200 0.28320800 0.40300600
v 0.22880500 0.28320800 0.39570200
v 0.22880500 0.28320800 0.38667200
v 0.23411200 0.28320800 0.37936800
v 0.24269900 0.28320800 0.37657800
v 0.25128600 0.28320800 0.37936800
v 0.25659300 0.28320800 0.38667200
v 0.25659300 0.28320800 0.39570200
v 0.25128600 0.28320800 0.40300600
v 0.24269900 0.27846100 0.40654800
v 0.23367000 0.27846100 0.40361500
v 0.22808900 0.27846100 0.39593400
v 0.22808900 0.27846100 0.38644000
v 0.23367000 0.27846100 0.37875900
v 0.24269900 0.27846100 0.37582600
v 0.25172800 0.27846100 0.37875900
v 0.25730800 0.27846100 0.38644000
v 0.25730800 0.27846100 0.39593400
v 0.25172800 0.27846100 0.40361500
v 0.24269900 0.27371400 0.40579600
v 0.23411200 0.27371400 0.40300600
v 0.22880500 0.27371400 0.39570200
v 0.22880500 0.27371400 0.38667200
v 0.23411200 0.27371400 0.37936800
v 0.24269900 0.27371400 0.37657800
v 0.25128600 0.27371400 0.37936800
v 0.25659300 0.27371400 0.38667200
v 0.25659300 0.27371400 0.39570200
v 0.25128600 0.27371400 0.40300600
v 0.24269900 0.26943200 0.40361500
v 0.23539400 0.26943200 0.40124100
v 0.23088000 0.26943200 0.39502700
v 0.23088000 0.26943200 0.38734700
v 0.23539400 0.26943200 0.38113300
v 0.24269900 0.26943200 0.37875900
v 0.25000400 0.26943200 0.38113300
v 0.25451800 0.26943200 0.38734700
v 0.25451800 0.26943200 0.39502700
v 0.25000400 0.26943200 0.40124100
v 0.24269900 0.26603300 0.40021600
v 0.23739200 0.26603300 0.39849200
v 0.23411200 0.26603300 0.39397700
v 0.23411200 0.26603300 0.38839700
v 0.23739200 0.26603300 0.38388200
v 0.24269900 0.26603300 0.38215800
v 0.24800600 0.26603300 0.38388200
v 0.25128600 0.26603300 0.38839700
v 0.25128600 0.26603300 0.39397700
v 0.24800600 0.26603300 0.39849200
v 0.24269900 0.26385100 0.39593400
v 0.23990900 0.26385100 0.39502700
v 0.23818400 0.26385100 0.39265400
v 0.23818400 0.26385100 0.38972000
v 0.23990900 0.26385100 0.38734700
v 0.24269900 0.26385100 0.38644000
v 0.24548900 0.26385100 0.38734700
v 0.24721300 0.26385100 0.38972000
v 0.24721300 0.26385100 0.39265400
v 0.24548900 0.26385100 0.39502700
v 0.24269900 0.26309900 0.39118700
v 0.25302100 0.28184700 0.39118700
v 0.25198300 0.28288400 0.39570200
v 0.03586640 0.06452000 0.39118700
v 0.03482870 0.06555680 0.39570200
v 0.03043320 0.06994880 0.39118700
v 0.24758800 0.28727600 0.39118700
v 0.24926700 0.28559900 0.39849200
v 0.03211210 0.06827120 0.39849200
v 0.24590900 0.28895400 0.39849200
v 0.02875420 0.07162650 0.39849200
v 0.24319200 0.29166800 0.39570200
v 0.02603760 0.07434090 0.39570200
v 0.24215400 0.29270500 0.39118700
v 0.02500000 0.07537770 0.39118700
v 0.24319200 0.29166800 0.38667200
v 0.02603760 0.07434090 0.38667200
v 0.24590900 0.28895400 0.38388200
v 0.02875420 0.07162650 0.38388200
v 0.24926700 0.28559900 0.38388200
v 0.03211210 0.06827120 0.38388200
v 0.25198300 0.28288400 0.38667200
v 0.03482870 0.06555680 0.38667200
v 0.73224800 0.28184700 0.54720500
v 0.72910500 0.28288400 0.55060800
v 0.54379800 0.06452000 0.43930600
v 0.54065400 0.06555680 0.44270800
v 0.53908300 0.06994880 0.43660600
v 0.72753300 0.28727600 0.54450600
v 0.72536100 0.28559900 0.55167900
v 0.53691000 0.06827120 0.44377900
v 0.72244700 0.28895400 0.55001100
v 0.53399600 0.07162650 0.44211100
v 0.72147600 0.29166800 0.54624000
v 0.53302500 0.07434090 0.43834000
v 0.72281800 0.29270500 0.54180600
v 0.53436800 0.07537770 0.43390600
v 0.72596200 0.29166800 0.53840400
v 0.53751100 0.07434090 0.43050400
v 0.72970600 0.28895400 0.53733200
v 0.54125500 0.07162650 0.42943300
v 0.73262000 0.28559900 0.53900100
v 0.54416900 0.06827120 0.43110100
v 0.73359100 0.28288400 0.54277200
v 0.54514000 0.06555680 0.43487200
v 0.72329100 0.29382200 0.54207700
v 0.72093200 0.29307000 0.54619600
v 0.71896100 0.29307000 0.54402300
v 0.71864400 0.29307000 0.54110600
v 0.72010200 0.29307000 0.53856100
v 0.72277800 0.29307000 0.53735800
v 0.72564900 0.29307000 0.53795700
v 0.72762000 0.29307000 0.54013000
v 0.72793800 0.29307000 0.54304700
v 0.72648000 0.29307000 0.54559300
v 0.72380400 0.29307000 0.54679600
v 0.71880400 0.29088800 0.54991200
v 0.71505600 0.29088800 0.54577900
v 0.71445200 0.29088800 0.54023100
v 0.71722500 0.29088800 0.53538900
v 0.72231500 0.29088800 0.53310000
v 0.72777700 0.29088800 0.53424100
v 0.73152600 0.29088800 0.53837500
v 0.73212900 0.29088800 0.54392200
v 0.72935700 0.29088800 0.54876500
v 0.72426700 0.29088800 0.55105300
v 0.71711600 0.28749000 0.55286200
v 0.71195600 0.28749000 0.54717200
v 0.71112600 0.28749000 0.53953700
v 0.71494200 0.28749000 0.53287100
v 0.72194700 0.28749000 0.52972200
v 0.72946600 0.28749000 0.53129200
v 0.73462600 0.28749000 0.53698100
v 0.73545600 0.28749000 0.54461700
v 0.73164000 0.28749000 0.55128200
v 0.72463400 0.28749000 0.55443100
v 0.71603200 0.28320800 0.55475500
v 0.70996600 0.28320800 0.54806700
v 0.70899000 0.28320800 0.53909100
v 0.71347600 0.28320800 0.53125500
v 0.72171100 0.28320800 0.52755300
v 0.73055000 0.28320800 0.52939800
v 0.73661600 0.28320800 0.53608600
v 0.73759200 0.28320800 0.54506300
v 0.73310500 0.28320800 0.55289800
v 0.72487000 0.28320800 0.55660000
v 0.71565800 0.27846100 0.55540700
v 0.70928000 0.27846100 0.54837500
v 0.70825400 0.27846100 0.53893700
v 0.71297100 0.27846100 0.53069800
v 0.72163000 0.27846100 0.52680500
v 0.73092400 0.27846100 0.52874600
v 0.73730100 0.27846100 0.53577800
v 0.73832800 0.27846100 0.54521600
v 0.73361100 0.27846100 0.55345500
v 0.72495100 0.27846100 0.55734800
v 0.71603200 0.27371400 0.55475500
v 0.70996600 0.27371400 0.54806700
v 0.70899000 0.27371400 0.53909100
v 0.71347600 0.27371400 0.53125500
v 0.72171100 0.27371400 0.52755300
v 0.73055000 0.27371400 0.52939800
v 0.73661600 0.27371400 0.53608600
v 0.73759200 0.27371400 0.54506300
v 0.73310500 0.27371400 0.55289800
v 0.72487000 0.27371400 0.55660000
v 0.71711600 0.26943200 0.55286200
v 0.71195600 0.26943200 0.54717200
v 0.71112600 0.26943200 0.53953700
v 0.71494200 0.26943200 0.53287100
v 0.72194700 0.26943200 0.52972200
v 0.72946600 0.26943200 0.53129200
v 0.73462600 0.26943200 0.53698100
v 0.73545600 0.26943200 0.54461700
v 0.73164000 0.26943200 0.55128200
v 0.72463400 0.26943200 0.55443100
v 0.71880400 0.26603300 0.54991200
v 0.71505600 0.26603300 0.54577900
v 0.71445200 0.26603300 0.54023100
v 0.71722500 0.26603300 0.53538900
v 0.72231500 0.26603300 0.53310000
v 0.72777700 0.26603300 0.53424100
v 0.73152600 0.26603300 0.53837500
v 0.73212900 0.26603300 0.54392200
v 0.72935700 0.26603300 0.54876500
v 0.72426700 0.26603300 0.55105300
v 0.72093200 0.26385100 0.54619600
v 0.71896100 0.26385100 0.54402300
v 0.71864400 0.26385100 0.54110600
v 0.72010200 0.26385100 0.53856100
v 0.72277800 0.26385100 0.53735800
v 0.72564900 0.26385100 0.53795700
v 0.72762000 0.26385100 0.54013000
v 0.72793800 0.26385100 0.54304700
v 0.72648000 0.26385100 0.54559300
v 0.72380400 0.26385100 0.54679600
v 0.72329100 0.26309900 0.54207700
v 0.72376300 0.29270500 0.54234700
v 0.72062000 0.29166800 0.54574900
v 0.91221400 0.07537770 0.65024700
v 0.90907000 0.07434090 0.65364900
v 0.90749900 0.06994880 0.64754700
v 0.71904800 0.28727600 0.53964800
v 0.71687600 0.28895400 0.54682100
v 0.90532700 0.07162650 0.65472100
v 0.71396200 0.28559900 0.54515200
v 0.90241200 0.06827120 0.65305200
v 0.71299100 0.28288400 0.54138100
v 0.90144100 0.06555680 0.64928100
v 0.71433300 0.28184700 0.53694800
v 0.90278400 0.06452000 0.64484800
v 0.71747700 0.28288400 0.53354600
v 0.90592800 0.06555680 0.64144500
v 0.72122100 0.28559900 0.53247400
v 0.90967200 0.06827120 0.64037400
v 0.72413500 0.28895400 0.53414300
v 0.91258600 0.07162650 0.64204200
v 0.72510600 0.29166800 0.53791400
v 0.91355700 0.07434090 0.64581400
v 0.26351100 0.29270500 0.26815900
v 0.26079800 0.29166800 0.27191300
v 0.46081000 0.07434090 0.35647700
v 0.45852000 0.06994880 0.35060800
v 0.25850700 0.28727600 0.26604400
v 0.25720900 0.28895400 0.27342500
v 0.45722200 0.07162650 0.35798900
v 0.25411600 0.28559900 0.27211800
v 0.45412900 0.06827120 0.35668200
v 0.25270100 0.28288400 0.26849000
v 0.45271300 0.06555680 0.35305400
v 0.25350300 0.28184700 0.26392800
v 0.45351500 0.06452000 0.34849200
v 0.25621700 0.28288400 0.26017400
v 0.45622900 0.06555680 0.34473800
v 0.25980500 0.28559900 0.25866200
v 0.45981800 0.06827120 0.34322600
v 0.26289800 0.28895400 0.25996900
v 0.46291100 0.07162650 0.34453300
v 0.26431400 0.29166800 0.26359700
v 0.46432600 0.07434090 0.34816100
v 0.46352400 0.07537770 0.35272300
v 0.26301000 0.29382200 0.26794700
v 0.26116100 0.29307000 0.27232000
v 0.25894500 0.29307000 0.27039800
v 0.25828100 0.29307000 0.26754000
v 0.25942300 0.29307000 0.26483800
v 0.26193600 0.29307000 0.26332400
v 0.26485900 0.29307000 0.26357500
v 0.26707500 0.29307000 0.26549700
v 0.26773900 0.29307000 0.26835400
v 0.26659700 0.29307000 0.27105600
v 0.26408400 0.29307000 0.27257100
v 0.25949400 0.29088800 0.27626400
v 0.25527700 0.29088800 0.27260900
v 0.25401400 0.29088800 0.26717300
v 0.25618700 0.29088800 0.26203300
v 0.26096600 0.29088800 0.25915300
v 0.26652600 0.29088800 0.25963100
v 0.27074300 0.29088800 0.26328600
v 0.27200600 0.29088800 0.26872100
v 0.26983300 0.29088800 0.27386100
v 0.26505400 0.29088800 0.27674200
v 0.25817100 0.28749000 0.27939400
v 0.25236700 0.28749000 0.27436300
v 0.25062800 0.28749000 0.26688200
v 0.25361900 0.28749000 0.25980800
v 0.26019700 0.28749000 0.25584200
v 0.26785000 0.28749000 0.25650100
v 0.27365300 0.28749000 0.26153200
v 0.27539200 0.28749000 0.26901300
v 0.27240100 0.28749000 0.27608700
v 0.26582300 0.28749000 0.28005200
v 0.25732100 0.28320800 0.28140400
v 0.25049800 0.28320800 0.27549000
v 0.24845400 0.28320800 0.26669500
v 0.25197000 0.28320800 0.25837800
v 0.25970300 0.28320800 0.25371700
v 0.26869900 0.28320800 0.25449100
v 0.27552200 0.28320800 0.26040500
v 0.27756600 0.28320800 0.26920000
v 0.27405000 0.28320800 0.27751600
v 0.26631700 0.28320800 0.28217800
v 0.25702800 0.27846100 0.28209600
v 0.24985400 0.27846100 0.27587800
v 0.24770500 0.27846100 0.26663000
v 0.25140200 0.27846100 0.25788600
v 0.25953300 0.27846100 0.25298500
v 0.26899200 0.27846100 0.25379900
v 0.27616600 0.27846100 0.26001700
v 0.27831500 0.27846100 0.26926400
v 0.27461800 0.27846100 0.27800900
v 0.26648700 0.27846100 0.28291000
v 0.25732100 0.27371400 0.28140400
v 0.25049800 0.27371400 0.27549000
v 0.24845400 0.27371400 0.26669500
v 0.25197000 0.27371400 0.25837800
v 0.25970300 0.27371400 0.25371700
v 0.26869900 0.27371400 0.25449100
v 0.27552200 0.27371400 0.26040500
v 0.27756600 0.27371400 0.26920000
v 0.27405000 0.27371400 0.27751600
v 0.26631700 0.27371400 0.28217800
v 0.25817100 0.26943200 0.27939400
v 0.25236700 0.26943200 0.27436300
v 0.25062800 0.26943200 0.26688200
v 0.25361900 0.26943200 0.25980800
v 0.26019700 0.26943200 0.25584200
v 0.26785000 0.26943200 0.25650100
v 0.27365300 0.26943200 0.26153200
v 0.27539200 0.26943200 0.26901300
v 0.27240100 0.26943200 0.27608700
v 0.26582300 0.26943200 0.28005200
v 0.25949400 0.26603300 0.27626400
v 0.25527700 0.26603300 0.27260900
v 0.25401400 0.26603300 0.26717300
v 0.25618700 0.26603300 0.26203300
v 0.26096600 0.26603300 0.25915300
v 0.26652600 0.26603300 0.25963100
v 0.27074300 0.26603300 0.26328600
v 0.27200600 0.26603300 0.26872100
v 0.26983300 0.26603300 0.27386100
v 0.26505400 0.26603300 0.27674200
v 0.26116100 0.26385100 0.27232000
v 0.25894500 0.26385100 0.27039800
v 0.25828100 0.26385100 0.26754000
v 0.25942300 0.26385100 0.26483800
v 0.26193600 0.26385100 0.26332400
v 0.26485900 0.26385100 0.26357500
v 0.26707500 0.26385100 0.26549700
v 0.26773900 0.26385100 0.26835400
v 0.26659700 0.26385100 0.27105600
v 0.26408400 0.26385100 0.27257100
v 0.26301000 0.26309900 0.26794700
v 0.27251700 0.28184700 0.27196700
v 0.26980300 0.28288400 0.27572100
v 0.07250460 0.06452000 0.18740300
v 0.06979080 0.06555680 0.19115700
v 0.06750030 0.06994880 0.18528700
v 0.26751300 0.28727600 0.26985100
v 0.26621500 0.28559900 0.27723300
v 0.06620210 0.06827120 0.19266900
v 0.26312200 0.28895400 0.27592500
v 0.06310930 0.07162650 0.19136100
v 0.26170600 0.29166800 0.27229800
v 0.06169370 0.07434090 0.18773400
v 0.26250900 0.29270500 0.26773500
v 0.06249600 0.07537770 0.18317100
v 0.26522200 0.29166800 0.26398100
v 0.06520980 0.07434090 0.17941700
v 0.26881100 0.28895400 0.26246900
v 0.06879850 0.07162650 0.17790500
v 0.27190400 0.28559900 0.26377700
v 0.07189130 0.06827120 0.17921300
v 0.27331900 0.28288400 0.26740500
v 0.07330690 0.06555680 0.18284100
v 0.74649700 0.28184700 0.26392800
v 0.74729900 0.28288400 0.26849000
v 0.54648500 0.06452000 0.34849200
v 0.54728700 0.06555680 0.35305400
v 0.54148000 0.06994880 0.35060800
v 0.74149300 0.28727600 0.26604400
v 0.74588400 0.28559900 0.27211800
v 0.54587100 0.06827120 0.35668200
v 0.74279100 0.28895400 0.27342500
v 0.54277800 0.07162650 0.35798900
v 0.73920200 0.29166800 0.27191300
v 0.53919000 0.07434090 0.35647700
v 0.73648900 0.29270500 0.26815900
v 0.53647600 0.07537770 0.35272300
v 0.73568600 0.29166800 0.26359700
v 0.53567400 0.07434090 0.34816100
v 0.73710200 0.28895400 0.25996900
v 0.53708900 0.07162650 0.34453300
v 0.74019500 0.28559900 0.25866200
v 0.54018200 0.06827120 0.34322600
v 0.74378300 0.28288400 0.26017400
v 0.54377100 0.06555680 0.34473800
v 0.73699000 0.29382200 0.26794700
v 0.73883800 0.29307000 0.27232000
v 0.73591600 0.29307000 0.27257100
v 0.73340300 0.29307000 0.27105600
v 0.73226100 0.29307000 0.26835400
v 0.73292500 0.29307000 0.26549700
v 0.73514100 0.29307000 0.26357500
v 0.73806400 0.29307000 0.26332400
v 0.74057700 0.29307000 0.26483800
v 0.74171900 0.29307000 0.26754000
v 0.74105500 0.29307000 0.27039800
v 0.74050600 0.29088800 0.27626400
v 0.73494600 0.29088800 0.27674200
v 0.73016700 0.29088800 0.27386100
v 0.72799400 0.29088800 0.26872100
v 0.72925700 0.29088800 0.26328600
v 0.73347400 0.29088800 0.25963100
v 0.73903400 0.29088800 0.25915300
v 0.74381300 0.29088800 0.26203300
v 0.74598600 0.29088800 0.26717300
v 0.74472300 0.29088800 0.27260900
v 0.74183000 0.28749000 0.27939400
v 0.73417700 0.28749000 0.28005200
v 0.72759900 0.28749000 0.27608700
v 0.72460800 0.28749000 0.26901300
v 0.72634700 0.28749000 0.26153200
v 0.73215000 0.28749000 0.25650100
v 0.73980300 0.28749000 0.25584200
v 0.74638100 0.28749000 0.25980800
v 0.74937200 0.28749000 0.26688200
v 0.74763300 0.28749000 0.27436300
v 0.74267900 0.28320800 0.28140400
v 0.73368300 0.28320800 0.28217800
v 0.72595000 0.28320800 0.27751600
v 0.72243400 0.28320800 0.26920000
v 0.72447800 0.28320800 0.26040500
v 0.73130100 0.28320800 0.25449100
v 0.74029700 0.28320800 0.25371700
v 0.74803000 0.28320800 0.25837800
v 0.75154600 0.28320800 0.26669500
v 0.74950200 0.28320800 0.27549000
v 0.74297200 0.27846100 0.28209600
v 0.73351300 0.27846100 0.28291000
v 0.72538200 0.27846100 0.27800900
v 0.72168500 0.27846100 0.26926400
v 0.72383400 0.27846100 0.26001700
v 0.73100800 0.27846100 0.25379900
v 0.74046700 0.27846100 0.25298500
v 0.74859800 0.27846100 0.25788600
v 0.75229500 0.27846100 0.26663000
v 0.75014600 0.27846100 0.27587800
v 0.74267900 0.27371400 0.28140400
v 0.73368300 0.27371400 0.28217800
v 0.72595000 0.27371400 0.27751600
v 0.72243400 0.27371400 0.26920000
v 0.72447800 0.27371400 0.26040500
v 0.73130100 0.27371400 0.25449100
v 0.74029700 0.27371400 0.25371700
v 0.74803000 0.27371400 0.25837800
v 0.75154600 0.27371400 0.26669500
v 0.74950200 0.27371400 0.27549000
v 0.74183000 0.26943200 0.27939400
v 0.73417700 0.26943200 0.28005200
v 0.72759900 0.26943200 0.27608700
v 0.72460800 0.26943200 0.26901300
v 0.72634700 0.26943200 0.26153200
v 0.73215000 0.26943200 0.25650100
v 0.73980300 0.26943200 0.25584200
v 0.74638100 0.26943200 0.25980800
v 0.74937200 0.26943200 0.26688200
v 0.74763300 0.26943200 0.27436300
v 0.74050600 0.26603300 0.27626400
v 0.73494600 0.26603300 0.27674200
v 0.73016700 0.26603300 0.27386100
v 0.72799400 0.26603300 0.26872100
v 0.72925700 0.26603300 0.26328600
v 0.73347400 0.26603300 0.25963100
v 0.73903400 0.26603300 0.25915300
v 0.74381300 0.26603300 0.26203300
v 0.74598600 0.26603300 0.26717300
v 0.74472300 0.26603300 0.27260900
v 0.73883800 0.26385100 0.27232000
v 0.73591600 0.26385100 0.27257100
v 0.73340300 0.26385100 0.27105600
v 0.73226100 0.26385100 0.26835400
v 0.73292500 0.26385100 0.26549700
v 0.73514100 0.26385100 0.26357500
v 0.73806400 0.26385100 0.26332400
v 0.74057700 0.26385100 0.26483800
v 0.74171900 0.26385100 0.26754000
v 0.74105500 0.26385100 0.27039800
v 0.73699000 0.26309900 0.26794700
v 0.73749100 0.29270500 0.26773500
v 0.73829400 0.29166800 0.27229800
v 0.93750400 0.07537770 0.18317100
v 0.93830600 0.07434090 0.18773400
v 0.93250000 0.06994880 0.18528700
v 0.73248700 0.28727600 0.26985100
v 0.73687800 0.28895400 0.27592500
v 0.93689100 0.07162650 0.19136100
v 0.73378500 0.28559900 0.27723300
v 0.93379800 0.06827120 0.19266900
v 0.73019700 0.28288400 0.27572100
v 0.93020900 0.06555680 0.19115700
v 0.72748300 0.28184700 0.27196700
v 0.92749500 0.06452000 0.18740300
v 0.72668100 0.28288400 0.26740500
v 0.92669300 0.06555680 0.18284100
v 0.72809600 0.28559900 0.26377700
v 0.92810900 0.06827120 0.17921300
v 0.73118900 0.28895400 0.26246900
v 0.93120200 0.07162650 0.17790500
v 0.73477800 0.29166800 0.26398100
v 0.93479000 0.07434090 0.17941700
v 0.27718200 0.29270500 0.54180600
v 0.27852400 0.29166800 0.54624000
v 0.46563200 0.07537770 0.43390600
v 0.46697500 0.07434090 0.43834000
v 0.46091700 0.06994880 0.43660600
v 0.27246700 0.28727600 0.54450600
v 0.27755300 0.28895400 0.55001100
v 0.46600400 0.07162650 0.44211100
v 0.27463900 0.28559900 0.55167900
v 0.46309000 0.06827120 0.44377900
v 0.27089500 0.28288400 0.55060800
v 0.45934600 0.06555680 0.44270800
v 0.26775200 0.28184700 0.54720500
v 0.45620200 0.06452000 0.43930600
v 0.26640900 0.28288400 0.54277200
v 0.45486000 0.06555680 0.43487200
v 0.26738000 0.28559900 0.53900100
v 0.45583100 0.06827120 0.43110100
v 0.27029400 0.28895400 0.53733200
v 0.45874500 0.07162650 0.42943300
v 0.27403800 0.29166800 0.53840400
v 0.46248900 0.07434090 0.43050400
v 0.27670900 0.29382200 0.54207700
v 0.27906800 0.29307000 0.54619600
v 0.27619600 0.29307000 0.54679600
v 0.27352000 0.29307000 0.54559300
v 0.27206300 0.29307000 0.54304700
v 0.27238000 0.29307000 0.54013000
v 0.27435100 0.29307000 0.53795700
v 0.27722200 0.29307000 0.53735800
v 0.27989800 0.29307000 0.53856100
v 0.28135600 0.29307000 0.54110600
v 0.28103900 0.29307000 0.54402300
v 0.28119600 0.29088800 0.54991200
v 0.27573300 0.29088800 0.55105300
v 0.27064300 0.29088800 0.54876500
v 0.26787100 0.29088800 0.54392200
v 0.26847400 0.29088800 0.53837500
v 0.27222300 0.29088800 0.53424100
v 0.27768500 0.29088800 0.53310000
v 0.28277500 0.29088800 0.53538900
v 0.28554800 0.29088800 0.54023100
v 0.28494400 0.29088800 0.54577900
v 0.28288400 0.28749000 0.55286200
v 0.27536600 0.28749000 0.55443100
v 0.26836000 0.28749000 0.55128200
v 0.26454400 0.28749000 0.54461700
v 0.26537400 0.28749000 0.53698100
v 0.27053400 0.28749000 0.53129200
v 0.27805300 0.28749000 0.52972200
v 0.28505800 0.28749000 0.53287100
v 0.28887400 0.28749000 0.53953700
v 0.28804400 0.28749000 0.54717200
v 0.28396800 0.28320800 0.55475500
v 0.27513000 0.28320800 0.55660000
v 0.26689500 0.28320800 0.55289800
v 0.26240800 0.28320800 0.54506300
v 0.26338400 0.28320800 0.53608600
v 0.26945000 0.28320800 0.52939800
v 0.27828900 0.28320800 0.52755300
v 0.28652400 0.28320800 0.53125500
v 0.29101000 0.28320800 0.53909100
v 0.29003400 0.28320800 0.54806700
v 0.28434200 0.27846100 0.55540700
v 0.27504900 0.27846100 0.55734800
v 0.26638900 0.27846100 0.55345500
v 0.26167200 0.27846100 0.54521600
v 0.26269900 0.27846100 0.53577800
v 0.26907600 0.27846100 0.52874600
v 0.27837000 0.27846100 0.52680500
v 0.28702900 0.27846100 0.53069800
v 0.29174600 0.27846100 0.53893700
v 0.29072000 0.27846100 0.54837500
v 0.28396800 0.27371400 0.55475500
v 0.27513000 0.27371400 0.55660000
v 0.26689500 0.27371400 0.55289800
v 0.26240800 0.27371400 0.54506300
v 0.26338400 0.27371400 0.53608600
v 0.26945000 0.27371400 0.52939800
v 0.27828900 0.27371400 0.52755300
v 0.28652400 0.27371400 0.53125500
v 0.29101000 0.27371400 0.53909100
v 0.29003400 0.27371400 0.54806700
v 0.28288400 0.26943200 0.55286200
v 0.27536600 0.26943200 0.55443100
v 0.26836000 0.26943200 0.55128200
v 0.26454400 0.26943200 0.54461700
v 0.26537400 0.26943200 0.53698100
v 0.27053400 0.26943200 0.53129200
v 0.27805300 0.26943200 0.52972200
v 0.28505800 0.26943200 0.53287100
v 0.28887400 0.26943200 0.53953700
v 0.28804400 0.26943200 0.54717200
v 0.28119600 0.26603300 0.54991200
v 0.27573300 0.26603300 0.55105300
v 0.27064300 0.26603300 0.54876500
v 0.26787100 0.26603300 0.54392200
v 0.26847400 0.26603300 0.53837500
v 0.27222300 0.26603300 0.53424100
v 0.27768500 0.26603300 0.53310000
v 0.28277500 0.26603300 0.53538900
v 0.28554800 0.26603300 0.54023100
v 0.28494400 0.26603300 0.54577900
v 0.27906800 0.26385100 0.54619600
v 0.27619600 0.26385100 0.54679600
v 0.27352000 0.26385100 0.54559300
v 0.27206300 0.26385100 0.54304700
v 0.27238000 0.26385100 0.54013000
v 0.27435100 0.26385100 0.53795700
v 0.27722200 0.26385100 0.53735800
v 0.27989800 0.26385100 0.53856100
v 0.28135600 0.26385100 0.54110600
v 0.28103900 0.26385100 0.54402300
v 0.27670900 0.26309900 0.54207700
v 0.28566700 0.28184700 0.53694800
v 0.28700900 0.28288400 0.54138100
v 0.09721590 0.06452000 0.64484800
v 0.09855860 0.06555680 0.64928100
v 0.09250090 0.06994880 0.64754700
v 0.28095200 0.28727600 0.53964800
v 0.28603800 0.28559900 0.54515200
v 0.09758750 0.06827120 0.65305200
v 0.28312400 0.28895400 0.54682100
v 0.09467350 0.07162650 0.65472100
v 0.27938000 0.29166800 0.54574900
v 0.09092960 0.07434090 0.65364900
v 0.27623700 0.29270500 0.54234700
v 0.08778590 0.07537770 0.65024700
v 0.27489400 0.29166800 0.53791400
v 0.08644320 0.07434090 0.64581400
v 0.27586500 0.28895400 0.53414300
v 0.08741430 0.07162650 0.64204200
v 0.27877900 0.28559900 0.53247400
v 0.09032840 0.06827120 0.64037400
v 0.28252300 0.28288400 0.53354600
v 0.09407230 0.06555680 0.64144500
v 0.68645500 0.28184700 0.17616400
v 0.68897000 0.28288400 0.18005400
v 0.53516200 0.06452000 0.33194100
v 0.53767700 0.06555680 0.33583100
v 0.53137600 0.06994880 0.33583900
v 0.68266900 0.28727600 0.18006200
v 0.68907900 0.28559900 0.18394600
v 0.53778600 0.06827120 0.33972400
v 0.68674000 0.28895400 0.18635500
v 0.53544700 0.07162650 0.34213200
v 0.68284600 0.29166800 0.18636000
v 0.53155300 0.07434090 0.34213700
v 0.67888400 0.29270500 0.18395900
v 0.52759100 0.07537770 0.33973600
v 0.67636800 0.29166800 0.18006900
v 0.52507500 0.07434090 0.33584700
v 0.67626000 0.28895400 0.17617700
v 0.52496700 0.07162650 0.33195400
v 0.67859900 0.28559900 0.17376800
v 0.52730600 0.06827120 0.32954500
v 0.68249300 0.28288400 0.17376300
v 0.53120000 0.06555680 0.32954000
v 0.67926300 0.29382200 0.18356900
v 0.68266900 0.29307000 0.18687600
v 0.68007400 0.29307000 0.18824600
v 0.67717000 0.29307000 0.18782900
v 0.67506600 0.29307000 0.18578500
v 0.67456500 0.29307000 0.18289500
v 0.67585800 0.29307000 0.18026100
v 0.67845200 0.29307000 0.17889200
v 0.68135600 0.29307000 0.17930800
v 0.68346100 0.29307000 0.18135200
v 0.68396200 0.29307000 0.18424300
v 0.68574000 0.29088800 0.18985900
v 0.68080600 0.29088800 0.19246500
v 0.67528200 0.29088800 0.19167300
v 0.67127900 0.29088800 0.18778500
v 0.67032600 0.29088800 0.18228700
v 0.67278600 0.29088800 0.17727800
v 0.67772100 0.29088800 0.17467200
v 0.68324500 0.29088800 0.17546500
v 0.68724800 0.29088800 0.17935200
v 0.68820100 0.29088800 0.18485100
v 0.68817800 0.28749000 0.19222700
v 0.68138600 0.28749000 0.19581300
v 0.67378400 0.28749000 0.19472300
v 0.66827400 0.28749000 0.18937200
v 0.66696200 0.28749000 0.18180400
v 0.67034800 0.28749000 0.17491000
v 0.67714000 0.28749000 0.17132400
v 0.68474300 0.28749000 0.17241400
v 0.69025300 0.28749000 0.17776600
v 0.69156500 0.28749000 0.18533300
v 0.68974400 0.28320800 0.19374700
v 0.68175900 0.28320800 0.19796300
v 0.67282200 0.28320800 0.19668100
v 0.66634500 0.28320800 0.19039100
v 0.66480200 0.28320800 0.18149400
v 0.66878300 0.28320800 0.17339000
v 0.67676800 0.28320800 0.16917400
v 0.68570500 0.28320800 0.17045600
v 0.69218200 0.28320800 0.17674700
v 0.69372500 0.28320800 0.18564300
v 0.69028300 0.27846100 0.19427100
v 0.68188800 0.27846100 0.19870400
v 0.67249000 0.27846100 0.19735600
v 0.66568000 0.27846100 0.19074200
v 0.66405800 0.27846100 0.18138700
v 0.66824400 0.27846100 0.17286600
v 0.67663900 0.27846100 0.16843300
v 0.68603700 0.27846100 0.16978100
v 0.69284700 0.27846100 0.17639600
v 0.69446900 0.27846100 0.18575000
v 0.68974400 0.27371400 0.19374700
v 0.68175900 0.27371400 0.19796300
v 0.67282200 0.27371400 0.19668100
v 0.66634500 0.27371400 0.19039100
v 0.66480200 0.27371400 0.18149400
v 0.66878300 0.27371400 0.17339000
v 0.67676800 0.27371400 0.16917400
v 0.68570500 0.27371400 0.17045600
v 0.69218200 0.27371400 0.17674700
v 0.69372500 0.27371400 0.18564300
v 0.68817800 0.26943200 0.19222700
v 0.68138600 0.26943200 0.19581300
v 0.67378400 0.26943200 0.19472300
v 0.66827400 0.26943200 0.18937200
v 0.66696200 0.26943200 0.18180400
v 0.67034800 0.26943200 0.17491000
v 0.67714000 0.26943200 0.17132400
v 0.68474300 0.26943200 0.17241400
v 0.69025300 0.26943200 0.17776600
v 0.69156500 0.26943200 0.18533300
v 0.68574000 0.26603300 0.18985900
v 0.68080600 0.26603300 0.19246500
v 0.67528200 0.26603300 0.19167300
v 0.67127900 0.26603300 0.18778500
v 0.67032600 0.26603300 0.18228700
v 0.67278600 0.26603300 0.17727800
v 0.67772100 0.26603300 0.17467200
v 0.68324500 0.26603300 0.17546500
v 0.68724800 0.26603300 0.17935200
v 0.68820100 0.26603300 0.18485100
v 0.68266900 0.26385100 0.18687600
v 0.68007400 0.26385100 0.18824600
v 0.67717000 0.26385100 0.18782900
v 0.67506600 0.26385100 0.18578500
v 0.67456500 0.26385100 0.18289500
v 0.67585800 0.26385100 0.18026100
v 0.67845200 0.26385100 0.17889200
v 0.68135600 0.26385100 0.17930800
v 0.68346100 0.26385100 0.18135200
v 0.68396200 0.26385100 0.18424300
v 0.67926300 0.26309900 0.18356900
v 0.67964300 0.29270500 0.18317800
v 0.68215800 0.29166800 0.18706800
v 0.83093600 0.07537770 0.02740100
v 0.83345100 0.07434090 0.03129070
v 0.82715000 0.06994880 0.03129850
v 0.67585700 0.28727600 0.18707600
v 0.68226700 0.28895400 0.19096000
v 0.83356000 0.07162650 0.03518330
v 0.67992800 0.28559900 0.19336900
v 0.83122100 0.06827120 0.03759210
v 0.67603300 0.28288400 0.19337400
v 0.82732600 0.06555680 0.03759700
v 0.67207200 0.28184700 0.19097300
v 0.82336500 0.06452000 0.03519600
v 0.66955600 0.28288400 0.18708300
v 0.82084900 0.06555680 0.03130630
v 0.66944800 0.28559900 0.18319100
v 0.82074100 0.06827120 0.02741370
v 0.67178700 0.28895400 0.18078200
v 0.82308000 0.07162650 0.02500480
v 0.67568100 0.29166800 0.18077700
v 0.82697400 0.07434090 0.02500000
v 0.32111600 0.29270500 0.18395900
v 0.31715400 0.29166800 0.18636000
v 0.47240900 0.07537770 0.33973600
v 0.46844700 0.07434090 0.34213700
v 0.46862400 0.06994880 0.33583900
v 0.31733100 0.28727600 0.18006200
v 0.31326000 0.28895400 0.18635500
v 0.46455300 0.07162650 0.34213200
v 0.31092100 0.28559900 0.18394600
v 0.46221400 0.06827120 0.33972400
v 0.31103000 0.28288400 0.18005400
v 0.46232300 0.06555680 0.33583100
v 0.31354500 0.28184700 0.17616400
v 0.46483800 0.06452000 0.33194100
v 0.31750700 0.28288400 0.17376300
v 0.46880000 0.06555680 0.32954000
v 0.32140100 0.28559900 0.17376800
v 0.47269400 0.06827120 0.32954500
v 0.32374000 0.28895400 0.17617700
v 0.47503300 0.07162650 0.33195400
v 0.32363200 0.29166800 0.18006900
v 0.47492500 0.07434090 0.33584700
v 0.32073700 0.29382200 0.18356900
v 0.31733100 0.29307000 0.18687600
v 0.31603800 0.29307000 0.18424300
v 0.31653900 0.29307000 0.18135200
v 0.31864400 0.29307000 0.17930800
v 0.32154800 0.29307000 0.17889200
v 0.32414200 0.29307000 0.18026100
v 0.32543500 0.29307000 0.18289500
v 0.32493400 0.29307000 0.18578500
v 0.32283000 0.29307000 0.18782900
v 0.31992600 0.29307000 0.18824600
v 0.31426000 0.29088800 0.18985900
v 0.31179900 0.29088800 0.18485100
v 0.31275200 0.29088800 0.17935200
v 0.31675500 0.29088800 0.17546500
v 0.32227900 0.29088800 0.17467200
v 0.32721400 0.29088800 0.17727800
v 0.32967400 0.29088800 0.18228700
v 0.32872100 0.29088800 0.18778500
v 0.32471800 0.29088800 0.19167300
v 0.31919400 0.29088800 0.19246500
v 0.31182200 0.28749000 0.19222700
v 0.30843500 0.28749000 0.18533300
v 0.30974700 0.28749000 0.17776600
v 0.31525700 0.28749000 0.17241400
v 0.32286000 0.28749000 0.17132400
v 0.32965200 0.28749000 0.17491000
v 0.33303800 0.28749000 0.18180400
v 0.33172600 0.28749000 0.18937200
v 0.32621600 0.28749000 0.19472300
v 0.31861300 0.28749000 0.19581300
v 0.31025600 0.28320800 0.19374700
v 0.30627500 0.28320800 0.18564300
v 0.30781800 0.28320800 0.17674700
v 0.31429500 0.28320800 0.17045600
v 0.32323200 0.28320800 0.16917400
v 0.33121700 0.28320800 0.17339000
v 0.33519800 0.28320800 0.18149400
v 0.33365500 0.28320800 0.19039100
v 0.32717800 0.28320800 0.19668100
v 0.31824100 0.28320800 0.19796300
v 0.30971700 0.27846100 0.19427100
v 0.30553100 0.27846100 0.18575000
v 0.30715300 0.27846100 0.17639600
v 0.31396300 0.27846100 0.16978100
v 0.32336100 0.27846100 0.16843300
v 0.33175600 0.27846100 0.17286600
v 0.33594200 0.27846100 0.18138700
v 0.33432000 0.27846100 0.19074200
v 0.32751000 0.27846100 0.19735600
v 0.31811200 0.27846100 0.19870400
v 0.31025600 0.27371400 0.19374700
v 0.30627500 0.27371400 0.18564300
v 0.30781800 0.27371400 0.17674700
v 0.31429500 0.27371400 0.17045600
v 0.32323200 0.27371400 0.16917400
v 0.33121700 0.27371400 0.17339000
v 0.33519800 0.27371400 0.18149400
v 0.33365500 0.27371400 0.19039100
v 0.32717800 0.27371400 0.19668100
v 0.31824100 0.27371400 0.19796300
v 0.31182200 0.26943200 0.19222700
v 0.30843500 0.26943200 0.18533300
v 0.30974700 0.26943200 0.17776600
v 0.31525700 0.26943200 0.17241400
v 0.32286000 0.26943200 0.17132400
v 0.32965200 0.26943200 0.17491000
v 0.33303800 0.26943200 0.18180400
v 0.33172600 0.26943200 0.18937200
v 0.32621600 0.26943200 0.19472300
v 0.31861300 0.26943200 0.19581300
v 0.31426000 0.26603300 0.18985900
v 0.31179900 0.26603300 0.18485100
v 0.31275200 0.26603300 0.17935200
v 0.31675500 0.26603300 0.17546500
v 0.32227900 0.26603300 0.17467200
v 0.32721400 0.26603300 0.17727800
v 0.32967400 0.26603300 0.18228700
v 0.32872100 0.26603300 0.18778500
v 0.32471800 0.26603300 0.19167300
v 0.31919400 0.26603300 0.19246500
v 0.31733100 0.26385100 0.18687600
v 0.31603800 0.26385100 0.18424300
v 0.31653900 0.26385100 0.18135200
v 0.31864400 0.26385100 0.17930800
v 0.32154800 0.26385100 0.17889200
v 0.32414200 0.26385100 0.18026100
v 0.32543500 0.26385100 0.18289500
v 0.32493400 0.26385100 0.18578500
v 0.32283000 0.26385100 0.18782900
v 0.31992600 0.26385100 0.18824600
v 0.32073700 0.26309900 0.18356900
v 0.32792800 0.28184700 0.19097300
v 0.32396700 0.28288400 0.19337400
v 0.17663500 0.06452000 0.03519600
v 0.17267400 0.06555680 0.03759700
v 0.17285000 0.06994880 0.03129850
v 0.32414300 0.28727600 0.18707600
v 0.32007200 0.28559900 0.19336900
v 0.16877900 0.06827120 0.03759210
v 0.31773300 0.28895400 0.19096000
v 0.16644000 0.07162650 0.03518330
v 0.31784200 0.29166800 0.18706800
v 0.16654900 0.07434090 0.03129070
v 0.32035700 0.29270500 0.18317800
v 0.16906400 0.07537770 0.02740100
v 0.32431900 0.29166800 0.18077700
v 0.17302600 0.07434090 0.02500000
v 0.32821300 0.28895400 0.18078200
v 0.17692000 0.07162650 0.02500480
v 0.33055200 0.28559900 0.18319100
v 0.17925900 0.06827120 0.02741370
v 0.33044400 0.28288400 0.18708300
v 0.17915100 0.06555680 0.03130630
v 0.47695800 0.15557100 0.44495100
v 0.47695800 0.15481900 0.44969800
v 0.47416800 0.15481900 0.44879200
v 0.47244400 0.15481900 0.44641800
v 0.47244400 0.15481900 0.44348500
v 0.47416800 0.15481900 0.44111100
v 0.47695800 0.15481900 0.44020500
v 0.47974800 0.15481900 0.44111100
v 0.48147300 0.15481900 0.44348500
v 0.48147300 0.15481900 0.44641800
v 0.47974800 0.15481900 0.44879200
v 0.47695800 0.15263700 0.45398100
v 0.47165100 0.15263700 0.45225600
v 0.46837100 0.15263700 0.44774200
v 0.46837100 0.15263700 0.44216100
v 0.47165100 0.15263700 0.43764700
v 0.47695800 0.15263700 0.43592200
v 0.48226500 0.15263700 0.43764700
v 0.48554500 0.15263700 0.44216100
v 0.48554500 0.15263700 0.44774200
v 0.48226500 0.15263700 0.45225600
v 0.47695800 0.14923900 0.45737900
v 0.46965300 0.14923900 0.45500500
v 0.46513900 0.14923900 0.44879200
v 0.46513900 0.14923900 0.44111100
v 0.46965300 0.14923900 0.43489700
v 0.47695800 0.14923900 0.43252400
v 0.48426300 0.14923900 0.43489700
v 0.48877700 0.14923900 0.44111100
v 0.48877700 0.14923900 0.44879200
v 0.48426300 0.14923900 0.45500500
v 0.47695800 0.14495600 0.45956100
v 0.46837100 0.14495600 0.45677100
v 0.46306400 0.14495600 0.44946600
v 0.46306400 0.14495600 0.44043700
v 0.46837100 0.14495600 0.43313200
v 0.47695800 0.14495600 0.43034200
v 0.48554500 0.14495600 0.43313200
v 0.49085300 0.14495600 0.44043700
v 0.49085300 0.14495600 0.44946600
v 0.48554500 0.14495600 0.45677100
v 0.47695800 0.14020900 0.46031300
v 0.46792900 0.14020900 0.45737900
v 0.46234900 0.14020900 0.44969800
v 0.46234900 0.14020900 0.44020500
v 0.46792900 0.14020900 0.43252400
v 0.47695800 0.14020900 0.42959000
v 0.48598700 0.14020900 0.43252400
v 0.49156800 0.14020900 0.44020500
v 0.49156800 0.14020900 0.44969800
v 0.48598700 0.14020900 0.45737900
v 0.47695800 0.13546300 0.45956100
v 0.46837100 0.13546300 0.45677100
v 0.46306400 0.13546300 0.44946600
v 0.46306400 0.13546300 0.44043700
v 0.46837100 0.13546300 0.43313200
v 0.47695800 0.13546300 0.43034200
v 0.48554500 0.13546300 0.43313200
v 0.49085300 0.13546300 0.44043700
v 0.49085300 0.13546300 0.44946600
v 0.48554500 0.13546300 0.45677100
v 0.47695800 0.13118000 0.45737900
v 0.46965300 0.13118000 0.45500500
v 0.46513900 0.13118000 0.44879200
v 0.46513900 0.13118000 0.44111100
v 0.46965300 0.13118000 0.43489700
v 0.47695800 0.13118000 0.43252400
v 0.48426300 0.13118000 0.43489700
v 0.48877700 0.13118000 0.44111100
v 0.48877700 0.13118000 0.44879200
v 0.48426300 0.13118000 0.45500500
v 0.47695800 0.12778200 0.45398100
v 0.47165100 0.12778200 0.45225600
v 0.46837100 0.12778200 0.44774200
v 0.46837100 0.12778200 0.44216100
v 0.47165100 0.12778200 0.43764700
v 0.47695800 0.12778200 0.43592200
v 0.48226500 0.12778200 0.43764700
v 0.48554500 0.12778200 0.44216100
v 0.48554500 0.12778200 0.44774200
v 0.48226500 0.12778200 0.45225600
v 0.47695800 0.12560000 0.44969800
v 0.47416800 0.12560000 0.44879200
v 0.47244400 0.12560000 0.44641800
v 0.47244400 0.12560000 0.44348500
v 0.47416800 0.12560000 0.44111100
v 0.47695800 0.12560000 0.44020500
v 0.47974800 0.12560000 0.44111100
v 0.48147300 0.12560000 0.44348500
v 0.48147300 0.12560000 0.44641800
v 0.47974800 0.12560000 0.44879200
v 0.47695800 0.12484800 0.44495100
v 0.47695800 0.15173000 0.46031300
v 0.47695800 0.15135400 0.46268600
v 0.47556300 0.15135400 0.46223300
v 0.47470100 0.15135400 0.46104600
v 0.47470100 0.15135400 0.45957900
v 0.47556300 0.15135400 0.45839300
v 0.47695800 0.15135400 0.45793900
v 0.47835300 0.15135400 0.45839300
v 0.47921500 0.15135400 0.45957900
v 0.47921500 0.15135400 0.46104600
v 0.47835300 0.15135400 0.46223300
v 0.47695800 0.15026400 0.46482700
v 0.47430500 0.15026400 0.46396500
v 0.47266500 0.15026400 0.46170800
v 0.47266500 0.15026400 0.45891800
v 0.47430500 0.15026400 0.45666000
v 0.47695800 0.15026400 0.45579800
v 0.47961200 0.15026400 0.45666000
v 0.48125200 0.15026400 0.45891800
v 0.48125200 0.15026400 0.46170800
v 0.47961200 0.15026400 0.46396500
v 0.47695800 0.14856400 0.46652600
v 0.47330600 0.14856400 0.46534000
v 0.47104800 0.14856400 0.46223300
v 0.47104800 0.14856400 0.45839300
v 0.47330600 0.14856400 0.45528600
v 0.47695800 0.14856400 0.45409900
v 0.48061000 0.14856400 0.45528600
v 0.48286800 0.14856400 0.45839300
v 0.48286800 0.14856400 0.46223300
v 0.48061000 0.14856400 0.46534000
v 0.47695800 0.14642300 0.46761700
v 0.47266500 0.14642300 0.46622200
v 0.47001100 0.14642300 0.46257000
v 0.47001100 0.14642300 0.45805500
v 0.47266500 0.14642300 0.45440300
v 0.47695800 0.14642300 0.45300800
v 0.48125200 0.14642300 0.45440300
v 0.48390500 0.14642300 0.45805500
v 0.48390500 0.14642300 0.46257000
v 0.48125200 0.14642300 0.46622200
v 0.47695800 0.14405000 0.46799300
v 0.47244400 0.14405000 0.46652600
v 0.46965300 0.14405000 0.46268600
v 0.46965300 0.14405000 0.45793900
v 0.47244400 0.14405000 0.45409900
v 0.47695800 0.14405000 0.45263200
v 0.48147300 0.14405000 0.45409900
v 0.48426300 0.14405000 0.45793900
v 0.48426300 0.14405000 0.46268600
v 0.48147300 0.14405000 0.46652600
v 0.47695800 0.14167600 0.46761700
v 0.47266500 0.14167600 0.46622200
v 0.47001100 0.14167600 0.46257000
v 0.47001100 0.14167600 0.45805500
v 0.47266500 0.14167600 0.45440300
v 0.47695800 0.14167600 0.45300800
v 0.48125200 0.14167600 0.45440300
v 0.48390500 0.14167600 0.45805500
v 0.48390500 0.14167600 0.46257000
v 0.48125200 0.14167600 0.46622200
v 0.47695800 0.13953500 0.46652600
v 0.47330600 0.13953500 0.46534000
v 0.47104800 0.13953500 0.46223300
v 0.47104800 0.13953500 0.45839300
v 0.47330600 0.13953500 0.45528600
v 0.47695800 0.13953500 0.45409900
v 0.48061000 0.13953500 0.45528600
v 0.48286800 0.13953500 0.45839300
v 0.48286800 0.13953500 0.46223300
v 0.48061000 0.13953500 0.46534000
v 0.47695800 0.13783600 0.46482700
v 0.47430500 0.13783600 0.46396500
v 0.47266500 0.13783600 0.46170800
v 0.47266500 0.13783600 0.45891800
v 0.47430500 0.13783600 0.45666000
v 0.47695800 0.13783600 0.45579800
v 0.47961200 0.13783600 0.45666000
v 0.48125200 0.13783600 0.45891800
v 0.48125200 0.13783600 0.46170800
v 0.47961200 0.13783600 0.46396500
v 0.47695800 0.13674500 0.46268600
v 0.47556300 0.13674500 0.46223300
v 0.47470100 0.13674500 0.46104600
v 0.47470100 0.13674500 0.45957900
v 0.47556300 0.13674500 0.45839300
v 0.47695800 0.13674500 0.45793900
v 0.47835300 0.13674500 0.45839300
v 0.47921500 0.13674500 0.45957900
v 0.47921500 0.13674500 0.46104600
v 0.47835300 0.13674500 0.46223300
v 0.47695800 0.13636900 0.46031300
v 0.52304200 0.15557100 0.44495100
v 0.52304200 0.15481900 0.44969800
v 0.52025200 0.15481900 0.44879200
v 0.51852700 0.15481900 0.44641800
v 0.51852700 0.15481900 0.44348500
v 0.52025200 0.15481900 0.44111100
v 0.52304200 0.15481900 0.44020500
v 0.52583200 0.15481900 0.44111100
v 0.52755600 0.15481900 0.44348500
v 0.52755600 0.15481900 0.44641800
v 0.52583200 0.15481900 0.44879200
v 0.52304200 0.15263700 0.45398100
v 0.51773500 0.15263700 0.45225600
v 0.51445500 0.15263700 0.44774200
v 0.51445500 0.15263700 0.44216100
v 0.51773500 0.15263700 0.43764700
v 0.52304200 0.15263700 0.43592200
v 0.52834900 0.15263700 0.43764700
v 0.53162900 0.15263700 0.44216100
v 0.53162900 0.15263700 0.44774200
v 0.52834900 0.15263700 0.45225600
v 0.52304200 0.14923900 0.45737900
v 0.51573700 0.14923900 0.45500500
v 0.51122300 0.14923900 0.44879200
v 0.51122300 0.14923900 0.44111100
v 0.51573700 0.14923900 0.43489700
v 0.52304200 0.14923900 0.43252400
v 0.53034700 0.14923900 0.43489700
v 0.53486100 0.14923900 0.44111100
v 0.53486100 0.14923900 0.44879200
v 0.53034700 0.14923900 0.45500500
v 0.52304200 0.14495600 0.45956100
v 0.51445500 0.14495600 0.45677100
v 0.50914800 0.14495600 0.44946600
v 0.50914800 0.14495600 0.44043700
v 0.51445500 0.14495600 0.43313200
v 0.52304200 0.14495600 0.43034200
v 0.53162900 0.14495600 0.43313200
v 0.53693600 0.14495600 0.44043700
v 0.53693600 0.14495600 0.44946600
v 0.53162900 0.14495600 0.45677100
v 0.52304200 0.14020900 0.46031300
v 0.51401300 0.14020900 0.45737900
v 0.50843200 0.14020900 0.44969800
v 0.50843200 0.14020900 0.44020500
v 0.51401300 0.14020900 0.43252400
v 0.52304200 0.14020900 0.42959000
v 0.53207100 0.14020900 0.43252400
v 0.53765100 0.14020900 0.44020500
v 0.53765100 0.14020900 0.44969800
v 0.53207100 0.14020900 0.45737900
v 0.52304200 0.13546300 0.45956100
v 0.51445500 0.13546300 0.45677100
v 0.50914800 0.13546300 0.44946600
v 0.50914800 0.13546300 0.44043700
v 0.51445500 0.13546300 0.43313200
v 0.52304200 0.13546300 0.43034200
v 0.53162900 0.13546300 0.43313200
v 0.53693600 0.13546300 0.44043700
v 0.53693600 0.13546300 0.44946600
v 0.53162900 0.13546300 0.45677100
v 0.52304200 0.13118000 0.45737900
v 0.51573700 0.13118000 0.45500500
v 0.51122300 0.13118000 0.44879200
v 0.51122300 0.13118000 0.44111100
v 0.51573700 0.13118000 0.43489700
v 0.52304200 0.13118000 0.43252400
v 0.53034700 0.13118000 0.43489700
v 0.53486100 0.13118000 0.44111100
v 0.53486100 0.13118000 0.44879200
v 0.53034700 0.13118000 0.45500500
v 0.52304200 0.12778200 0.45398100
v 0.51773500 0.12778200 0.45225600
v 0.51445500 0.12778200 0.44774200
v 0.51445500 0.12778200 0.44216100
v 0.51773500 0.12778200 0.43764700
v 0.52304200 0.12778200 0.43592200
v 0.52834900 0.12778200 0.43764700
v 0.53162900 0.12778200 0.44216100
v 0.53162900 0.12778200 0.44774200
v 0.52834900 0.12778200 0.45225600
v 0.52304200 0.12560000 0.44969800
v 0.52025200 0.12560000 0.44879200
v 0.51852700 0.12560000 0.44641800
v 0.51852700 0.12560000 0.44348500
v 0.52025200 0.12560000 0.44111100
v 0.52304200 0.12560000 0.44020500
v 0.52583200 0.12560000 0.44111100
v 0.52755600 0.12560000 0.44348500
v 0.52755600 0.12560000 0.44641800
v 0.52583200 0.12560000 0.44879200
v 0.52304200 0.12484800 0.44495100
v 0.52304200 0.15173000 0.46031300
v 0.52304200 0.15135400 0.46268600
v 0.52164700 0.15135400 0.46223300
v 0.52078500 0.15135400 0.46104600
v 0.52078500 0.15135400 0.45957900
v 0.52164700 0.15135400 0.45839300
v 0.52304200 0.15135400 0.45793900
v 0.52443700 0.15135400 0.45839300
v 0.52529900 0.15135400 0.45957900
v 0.52529900 0.15135400 0.46104600
v 0.52443700 0.15135400 0.46223300
v 0.52304200 0.15026400 0.46482700
v 0.52038800 0.15026400 0.46396500
v 0.51874800 0.15026400 0.46170800
v 0.51874800 0.15026400 0.45891800
v 0.52038800 0.15026400 0.45666000
v 0.52304200 0.15026400 0.45579800
v 0.52569600 0.15026400 0.45666000
v 0.52733500 0.15026400 0.45891800
v 0.52733500 0.15026400 0.46170800
v 0.52569600 0.15026400 0.46396500
v 0.52304200 0.14856400 0.46652600
v 0.51939000 0.14856400 0.46534000
v 0.51713200 0.14856400 0.46223300
v 0.51713200 0.14856400 0.45839300
v 0.51939000 0.14856400 0.45528600
v 0.52304200 0.14856400 0.45409900
v 0.52669400 0.14856400 0.45528600
v 0.52895200 0.14856400 0.45839300
v 0.52895200 0.14856400 0.46223300
v 0.52669400 0.14856400 0.46534000
v 0.52304200 0.14642300 0.46761700
v 0.51874800 0.14642300 0.46622200
v 0.51609500 0.14642300 0.46257000
v 0.51609500 0.14642300 0.45805500
v 0.51874800 0.14642300 0.45440300
v 0.52304200 0.14642300 0.45300800
v 0.52733500 0.14642300 0.45440300
v 0.52998900 0.14642300 0.45805500
v 0.52998900 0.14642300 0.46257000
v 0.52733500 0.14642300 0.46622200
v 0.52304200 0.14405000 0.46799300
v 0.51852700 0.14405000 0.46652600
v 0.51573700 0.14405000 0.46268600
v 0.51573700 0.14405000 0.45793900
v 0.51852700 0.14405000 0.45409900
v 0.52304200 0.14405000 0.45263200
v 0.52755600 0.14405000 0.45409900
v 0.53034700 0.14405000 0.45793900
v 0.53034700 0.14405000 0.46268600
v 0.52755600 0.14405000 0.46652600
v 0.52304200 0.14167600 0.46761700
v 0.51874800 0.14167600 0.46622200
v 0.51609500 0.14167600 0.46257000
v 0.51609500 0.14167600 0.45805500
v 0.51874800 0.14167600 0.45440300
v 0.52304200 0.14167600 0.45300800
v 0.52733500 0.14167600 0.45440300
v 0.52998900 0.14167600 0.45805500
v 0.52998900 0.14167600 0.46257000
v 0.52733500 0.14167600 0.46622200
v 0.52304200 0.13953500 0.46652600
v 0.51939000 0.13953500 0.46534000
v 0.51713200 0.13953500 0.46223300
v 0.51713200 0.13953500 0.45839300
v 0.51939000 0.13953500 0.45528600
v 0.52304200 0.13953500 0.45409900
v 0.52669400 0.13953500 0.45528600
v 0.52895200 0.13953500 0.45839300
v 0.52895200 0.13953500 0.46223300
v 0.52669400 0.13953500 0.46534000
v 0.52304200 0.13783600 0.46482700
v 0.52038800 0.13783600 0.46396500
v 0.51874800 0.13783600 0.46170800
v 0.51874800 0.13783600 0.45891800
v 0.52038800 0.13783600 0.45666000
v 0.52304200 0.13783600 0.45579800
v 0.52569600 0.13783600 0.45666000
v 0.52733500 0.13783600 0.45891800
v 0.52733500 0.13783600 0.46170800
v 0.52569600 0.13783600 0.46396500
v 0.52304200 0.13674500 0.46268600
v 0.52164700 0.13674500 0.46223300
v 0.52078500 0.13674500 0.46104600
v 0.52078500 0.13674500 0.45957900
v 0.52164700 0.13674500 0.45839300
v 0.52304200 0.13674500 0.45793900
v 0.52443700 0.13674500 0.45839300
v 0.52529900 0.13674500 0.45957900
v 0.52529900 0.13674500 0.46104600
v 0.52443700 0.13674500 0.46223300
v 0.52304200 0.13636900 0.46031300
f 2 3 1
f 3 4 1
f 4 5 1
f 5 6 1
f 6 7 1
f 7 8 1
f 8 9 1
f 9 10 1
f 10 11 1
f 11 2 1
f 2 12 3
f 12 13 3
f 3 13 4
f 13 14 4
f 4 14 5
f 14 15 5
f 5 15 6
f 15 16 6
f 6 16 7
f 16 17 7
f 7 17 8
f 17 18 8
f 8 18 9
f 18 19 9
f 9 19 10
f 19 20 10
f 10 20 11
f 20 21 11
f 11 21 2
f 21 12 2
f 12 22 13
f 22 23 13
f 13 23 14
f 23 24 14
f 14 24 15
f 24 25 15
f 15 25 16
f 25 26 16
f 16 26 17
f 26 27 17
f 17 27 18
f 27 28 18
f 18 28 19
f 28 29 19
f 19 29 20
f 29 30 20
f 20 30 21
f 30 31 21
f 21 31 12
f 31 22 12
f 22 32 23
f 32 33 23
f 23 33 24
f 33 34 24
f 24 34 25
f 34 35 25
f 25 35 26
f 35 36 26
f 26 36 27
f 36 37 27
f 27 37 28
f 37 38 28
f 28 38 29
f 38 39 29
f 29 39 30
f 39 40 30
f 30 40 31
f 40 41 31
f 31 41 22
f 41 32 22
f 32 42 33
f 42 43 33
f 33 43 34
f 43 44 34
f 34 44 35
f 44 45 35
f 35 45 36
f 45 46 36
f 36 46 37
f 46 47 37
f 37 47 38
f 47 48 38
f 38 48 39
f 48 49 39
f 39 49 40
f 49 50 40
f 40 50 41
f 50 51 41
f 41 51 32
f 51 42 32
f 42 52 43
f 52 53 43
f 43 53 44
f 53 54 44
f 44 54 45
f 54 55 45
f 45 55 46
f 55 56 46
f 46 56 47
f 56 57 47
f 47 57 48
f 57 58 48
f 48 58 49
f 58 59 49
f 49 59 50
f 59 60 50
f 50 60 51
f 60 61 51
f 51 61 42
f 61 52 42
f 52 62 53
f 62 63 53
f 53 63 54
f 63 64 54
f 54 64 55
f 64 65 55
f 55 65 56
f 65 66 56
f 56 66 57
f 66 67 57
f 57 67 58
f 67 68 58
f 58 68 59
f 68 69 59
f 59 69 60
f 69 70 60
f 60 70 61
f 70 71 61
f 61 71 52
f 71 62 52
f 62 72 63
f 72 73 63
f 63 73 64
f 73 74 64
f 64 74 65
f 74 75 65
f 65 75 66
f 75 76 66
f 66 76 67
f 76 77 67
f 67 77 68
f 77 78 68
f 68 78 69
f 78 79 69
f 69 79 70
f 79 80 70
f 70 80 71
f 80 81 71
f 71 81 62
f 81 72 62
f 72 82 73
f 82 83 73
f 73 83 74
f 83 84 74
f 74 84 75
f 84 85 75
f 75 85 76
f 85 86 76
f 76 86 77
f 86 87 77
f 77 87 78
f 87 88 78
f 78 88 79
f 88 89 79
f 79 89 80
f 89 90 80
f 80 90 81
f 90 91 81
f 81 91 72
f 91 82 72
f 82 92 83
f 92 92 83
f 83 92 84
f 92 92 84
f 84 92 85
f 92 92 85
f 85 92 86
f 92 92 86
f 86 92 87
f 92 92 87
f 87 92 88
f 92 92 88
f 88 92 89
f 92 92 89
f 89 92 90
f 92 92 90
f 90 92 91
f 92 92 91
f 91 92 82
f 92 92 82
f 93 94 95
f 94 96 95
f 97 95 96
f 98 94 93
f 94 99 96
f 99 100 96
f 97 96 100
f 98 99 94
f 99 101 100
f 101 102 100
f 97 100 102
f 98 101 99
f 101 103 102
f 103 104 102
f 97 102 104
f 98 103 101
f 103 105 104
f 105 106 104
f 97 104 106
f 98 105 103
f 105 107 106
f 107 108 106
f 97 106 108
f 98 107 105
f 107 109 108
f 109 110 108
f 97 108 110
f 98 109 107
f 109 111 110
f 111 112 110
f 97 110 112
f 98 111 109
f 111 113 112
f 113 114 112
f 97 112 114
f 98 113 111
f 113 93 114
f 93 95 114
f 97 114 95
f 98 93 113
f 116 117 115
f 117 118 115
f 118 119 115
f 119 120 115
f 120 121 115
f 121 122 115
f 122 123 115
f 123 124 115
f 124 125 115
f 125 116 115
f 116 126 117
f 126 127 117
f 117 127 118
f 127 128 118
f 118 128 119
f 128 129 119
f 119 129 120
f 129 130 120
f 120 130 121
f 130 131 121
f 121 131 122
f 131 132 122
f 122 132 123
f 132 133 123
f 123 133 124
f 133 134 124
f 124 134 125
f 134 135 125
f 125 135 116
f 135 126 116
f 126 136 127
f 136 137 127
f 127 137 128
f 137 138 128
f 128 138 129
f 138 139 129
f 129 139 130
f 139 140 130
f 130 140 131
f 140 141 131
f 131 141 132
f 141 142 132
f 132 142 133
f 142 143 133
f 133 143 134
f 143 144 134
f 134 144 135
f 144 145 135
f 135 145 126
f 145 136 126
f 136 146 137
f 146 147 137
f 137 147 138
f 147 148 138
f 138 148 139
f 148 149 139
f 139 149 140
f 149 150 140
f 140 150 141
f 150 151 141
f 141 151 142
f 151 152 142
f 142 152 143
f 152 153 143
f 143 153 144
f 153 154 144
f 144 154 145
f 154 155 145
f 145 155 136
f 155 146 136
f 146 156 147
f 156 157 147
f 147 157 148
f 157 158 148
f 148 158 149
f 158 159 149
f 149 159 150
f 159 160 150
f 150 160 151
f 160 161 151
f 151 161 152
f 161 162 152
f 152 162 153
f 162 163 153
f 153 163 154
f 163 164 154
f 154 164 155
f 164 165 155
f 155 165 146
f 165 156 146
f 156 166 157
f 166 167 157
f 157 167 158
f 167 168 158
f 158 168 159
f 168 169 159
f 159 169 160
f 169 170 160
f 160 170 161
f 170 171 161
f 161 171 162
f 171 172 162
f 162 172 163
f 172 173 163
f 163 173 164
f 173 174 164
f 164 174 165
f 174 175 165
f 165 175 156
f 175 166 156
f 166 176 167
f 176 177 167
f 167 177 168
f 177 178 168
f 168 178 169
f 178 179 169
f 169 179 170
f 179 180 170
f 170 180 171
f 180 181 171
f 171 181 172
f 181 182 172
f 172 182 173
f 182 183 173
f 173 183 174
f 183 184 174
f 174 184 175
f 184 185 175
f 175 185 166
f 185 176 166
f 176 186 177
f 186 187 177
f 177 187 178
f 187 188 178
f 178 188 179
f 188 189 179
f 179 189 180
f 189 190 180
f 180 190 181
f 190 191 181
f 181 191 182
f 191 192 182
f 182 192 183
f 192 193 183
f 183 193 184
f 193 194 184
f 184 194 185
f 194 195 185
f 185 195 176
f 195 186 176
f 186 196 187
f 196 197 187
f 187 197 188
f 197 198 188
f 188 198 189
f 198 199 189
f 189 199 190
f 199 200 190
f 190 200 191
f 200 201 191
f 191 201 192
f 201 202 192
f 192 202 193
f 202 203 193
f 193 203 194
f 203 204 194
f 194 204 195
f 204 205 195
f 195 205 186
f 205 196 186
f 196 206 197
f 206 206 197
f 197 206 198
f 198 206 199
f 206 206 199
f 199 206 200
f 206 206 200
f 200 206 201
f 201 206 202
f 206 206 202
f 202 206 203
f 203 206 204
f 206 206 204
f 204 206 205
f 205 206 196
f 207 208 209
f 208 210 209
f 211 209 210
f 212 208 207
f 208 213 210
f 213 214 210
f 211 210 214
f 212 213 208
f 213 215 214
f 215 216 214
f 211 214 216
f 212 215 213
f 215 217 216
f 217 218 216
f 211 216 218
f 212 217 215
f 217 219 218
f 219 220 218
f 211 218 220
f 212 219 217
f 219 221 220
f 221 222 220
f 211 220 222
f 212 221 219
f 221 223 222
f 223 224 222
f 211 222 224
f 212 223 221
f 223 225 224
f 225 226 224
f 211 224 226
f 212 225 223
f 225 227 226
f 227 228 226
f 211 226 228
f 212 227 225
f 227 207 228
f 207 209 228
f 211 228 209
f 212 207 227
f 229 230 231
f 230 232 231
f 233 231 232
f 234 230 229
f 230 235 232
f 235 236 232
f 233 232 236
f 234 235 230
f 235 237 236
f 237 238 236
f 233 236 238
f 234 237 235
f 237 239 238
f 239 240 238
f 233 238 240
f 234 239 237
f 239 241 240
f 241 242 240
f 233 240 242
f 234 241 239
f 241 243 242
f 243 244 242
f 233 242 244
f 234 243 241
f 243 245 244
f 245 246 244
f 233 244 246
f 234 245 243
f 245 247 246
f 247 248 246
f 233 246 248
f 234 247 245
f 247 249 248
f 249 250 248
f 233 248 250
f 234 249 247
f 249 229 250
f 229 231 250
f 233 250 231
f 234 229 249
f 252 253 251
f 253 254 251
f 254 255 251
f 255 256 251
f 256 257 251
f 257 258 251
f 258 259 251
f 259 260 251
f 260 261 251
f 261 252 251
f 252 262 253
f 262 263 253
f 253 263 254
f 263 264 254
f 254 264 255
f 264 265 255
f 255 265 256
f 265 266 256
f 256 266 257
f 266 267 257
f 257 267 258
f 267 268 258
f 258 268 259
f 268 269 259
f 259 269 260
f 269 270 260
f 260 270 261
f 270 271 261
f 261 271 252
f 271 262 252
f 262 272 263
f 272 273 263
f 263 273 264
f 273 274 264
f 264 274 265
f 274 275 265
f 265 275 266
f 275 276 266
f 266 276 267
f 276 277 267
f 267 277 268
f 277 278 268
f 268 278 269
f 278 279 269
f 269 279 270
f 279 280 270
f 270 280 271
f 280 281 271
f 271 281 262
f 281 272 262
f 272 282 273
f 282 283 273
f 273 283 274
f 283 284 274
f 274 284 275
f 284 285 275
f 275 285 276
f 285 286 276
f 276 286 277
f 286 287 277
f 277 287 278
f 287 288 278
f 278 288 279
f 288 289 279
f 279 289 280
f 289 290 280
f 280 290 281
f 290 291 281
f 281 291 272
f 291 282 272
f 282 292 283
f 292 293 283
f 283 293 284
f 293 294 284
f 284 294 285
f 294 295 285
f 285 295 286
f 295 296 286
f 286 296 287
f 296 297 287
f 287 297 288
f 297 298 288
f 288 298 289
f 298 299 289
f 289 299 290
f 299 300 290
f 290 300 291
f 300 301 291
f 291 301 282
f 301 292 282
f 292 302 293
f 302 303 293
f 293 303 294
f 303 304 294
f 294 304 295
f 304 305 295
f 295 305 296
f 305 306 296
f 296 306 297
f 306 307 297
f 297 307 298
f 307 308 298
f 298 308 299
f 308 309 299
f 299 309 300
f 309 310 300
f 300 310 301
f 310 311 301
f 301 311 292
f 311 302 292
f 302 312 303
f 312 313 303
f 303 313 304
f 313 314 304
f 304 314 305
f 314 315 305
f 305 315 306
f 315 316 306
f 306 316 307
f 316 317 307
f 307 317 308
f 317 318 308
f 308 318 309
f 318 319 309
f 309 319 310
f 319 320 310
f 310 320 311
f 320 321 311
f 311 321 302
f 321 312 302
f 312 322 313
f 322 323 313
f 313 323 314
f 323 324 314
f 314 324 315
f 324 325 315
f 315 325 316
f 325 326 316
f 316 326 317
f 326 327 317
f 317 327 318
f 327 328 318
f 318 328 319
f 328 329 319
f 319 329 320
f 329 330 320
f 320 330 321
f 330 331 321
f 321 331 312
f 331 322 312
f 322 332 323
f 332 333 323
f 323 333 324
f 333 334 324
f 324 334 325
f 334 335 325
f 325 335 326
f 335 336 326
f 326 336 327
f 336 337 327
f 327 337 328
f 337 338 328
f 328 338 329
f 338 339 329
f 329 339 330
f 339 340 330
f 330 340 331
f 340 341 331
f 331 341 322
f 341 332 322
f 332 342 333
f 342 342 333
f 333 342 334
f 334 342 335
f 342 342 335
f 335 342 336
f 342 342 336
f 336 342 337
f 337 342 338
f 342 342 338
f 338 342 339
f 339 342 340
f 342 342 340
f 340 342 341
f 341 342 332
f 343 344 345
f 344 346 345
f 347 345 346
f 348 344 343
f 344 349 346
f 349 350 346
f 347 346 350
f 348 349 344
f 349 351 350
f 351 352 350
f 347 350 352
f 348 351 349
f 351 353 352
f 353 354 352
f 347 352 354
f 348 353 351
f 353 355 354
f 355 356 354
f 347 354 356
f 348 355 353
f 355 357 356
f 357 358 356
f 347 356 358
f 348 357 355
f 357 359 358
f 359 360 358
f 347 358 360
f 348 359 357
f 359 361 360
f 361 362 360
f 347 360 362
f 348 361 359
f 361 363 362
f 363 364 362
f 347 362 364
f 348 363 361
f 363 343 364
f 343 345 364
f 347 364 345
f 348 343 363
f 365 366 367
f 366 368 367
f 369 367 368
f 370 366 365
f 366 371 368
f 371 372 368
f 369 368 372
f 370 371 366
f 371 373 372
f 373 374 372
f 369 372 374
f 370 373 371
f 373 375 374
f 375 376 374
f 369 374 376
f 370 375 373
f 375 377 376
f 377 378 376
f 369 376 378
f 370 377 375
f 377 379 378
f 379 380 378
f 369 378 380
f 370 379 377
f 379 381 380
f 381 382 380
f 369 380 382
f 370 381 379
f 381 383 382
f 383 384 382
f 369 382 384
f 370 383 381
f 383 385 384
f 385 386 384
f 369 384 386
f 370 385 383
f 385 365 386
f 365 367 386
f 369 386 367
f 370 365 385
f 388 389 387
f 389 390 387
f 390 391 387
f 391 392 387
f 392 393 387
f 393 394 387
f 394 395 387
f 395 396 387
f 396 397 387
f 397 388 387
f 388 398 389
f 398 399 389
f 389 399 390
f 399 400 390
f 390 400 391
f 400 401 391
f 391 401 392
f 401 402 392
f 392 402 393
f 402 403 393
f 393 403 394
f 403 404 394
f 394 404 395
f 404 405 395
f 395 405 396
f 405 406 396
f 396 406 397
f 406 407 397
f 397 407 388
f 407 398 388
f 398 408 399
f 408 409 399
f 399 409 400
f 409 410 400
f 400 410 401
f 410 411 401
f 401 411 402
f 411 412 402
f 402 412 403
f 412 413 403
f 403 413 404
f 413 414 404
f 404 414 405
f 414 415 405
f 405 415 406
f 415 416 406
f 406 416 407
f 416 417 407
f 407 417 398
f 417 408 398
f 408 418 409
f 418 419 409
f 409 419 410
f 419 420 410
f 410 420 411
f 420 421 411
f 411 421 412
f 421 422 412
f 412 422 413
f 422 423 413
f 413 423 414
f 423 424 414
f 414 424 415
f 424 425 415
f 415 425 416
f 425 426 416
f 416 426 417
f 426 427 417
f 417 427 408
f 427 418 408
f 418 428 419
f 428 429 419
f 419 429 420
f 429 430 420
f 420 430 421
f 430 431 421
f 421 431 422
f 431 432 422
f 422 432 423
f 432 433 423
f 423 433 424
f 433 434 424
f 424 434 425
f 434 435 425
f 425 435 426
f 435 436 426
f 426 436 427
f 436 437 427
f 427 437 418
f 437 428 418
f 428 438 429
f 438 439 429
f 429 439 430
f 439 440 430
f 430 440 431
f 440 441 431
f 431 441 432
f 441 442 432
f 432 442 433
f 442 443 433
f 433 443 434
f 443 444 434
f 434 444 435
f 444 445 435
f 435 445 436
f 445 446 436
f 436 446 437
f 446 447 437
f 437 447 428
f 447 438 428
f 438 448 439
f 448 449 439
f 439 449 440
f 449 450 440
f 440 450 441
f 450 451 441
f 441 451 442
f 451 452 442
f 442 452 443
f 452 453 443
f 443 453 444
f 453 454 444
f 444 454 445
f 454 455 445
f 445 455 446
f 455 456 446
f 446 456 447
f 456 457 447
f 447 457 438
f 457 448 438
f 448 458 449
f 458 459 449
f 449 459 450
f 459 460 450
f 450 460 451
f 460 461 451
f 451 461 452
f 461 462 452
f 452 462 453
f 462 463 453
f 453 463 454
f 463 464 454
f 454 464 455
f 464 465 455
f 455 465 456
f 465 466 456
f 456 466 457
f 466 467 457
f 457 467 448
f 467 458 448
f 458 468 459
f 468 469 459
f 459 469 460
f 469 470 460
f 460 470 461
f 470 471 461
f 461 471 462
f 471 472 462
f 462 472 463
f 472 473 463
f 463 473 464
f 473 474 464
f 464 474 465
f 474 475 465
f 465 475 466
f 475 476 466
f 466 476 467
f 476 477 467
f 467 477 458
f 477 468 458
f 468 478 469
f 469 478 470
f 470 478 471
f 471 478 472
f 472 478 473
f 473 478 474
f 474 478 475
f 475 478 476
f 476 478 477
f 477 478 468
f 479 480 481
f 480 482 481
f 483 481 482
f 484 480 479
f 480 485 482
f 485 486 482
f 483 482 486
f 484 485 480
f 485 487 486
f 487 488 486
f 483 486 488
f 484 487 485
f 487 489 488
f 489 490 488
f 483 488 490
f 484 489 487
f 489 491 490
f 491 492 490
f 483 490 492
f 484 491 489
f 491 493 492
f 493 494 492
f 483 492 494
f 484 493 491
f 493 495 494
f 495 496 494
f 483 494 496
f 484 495 493
f 495 497 496
f 497 498 496
f 483 496 498
f 484 497 495
f 497 499 498
f 499 500 498
f 483 498 500
f 484 499 497
f 499 479 500
f 479 481 500
f 483 500 481
f 484 479 499
f 501 502 522
f 502 503 522
f 504 522 503
f 505 502 501
f 502 506 503
f 506 507 503
f 504 503 507
f 505 506 502
f 506 508 507
f 508 509 507
f 504 507 509
f 505 508 506
f 508 510 509
f 510 511 509
f 504 509 511
f 505 510 508
f 510 512 511
f 512 513 511
f 504 511 513
f 505 512 510
f 512 514 513
f 514 515 513
f 504 513 515
f 505 514 512
f 514 516 515
f 516 517 515
f 504 515 517
f 505 516 514
f 516 518 517
f 518 519 517
f 504 517 519
f 505 518 516
f 518 520 519
f 520 521 519
f 504 519 521
f 505 520 518
f 520 501 521
f 501 522 521
f 504 521 522
f 505 501 520
f 524 525 523
f 525 526 523
f 526 527 523
f 527 528 523
f 528 529 523
f 529 530 523
f 530 531 523
f 531 532 523
f 532 533 523
f 533 524 523
f 524 534 525
f 534 535 525
f 525 535 526
f 535 536 526
f 526 536 527
f 536 537 527
f 527 537 528
f 537 538 528
f 528 538 529
f 538 539 529
f 529 539 530
f 539 540 530
f 530 540 531
f 540 541 531
f 531 541 532
f 541 542 532
f 532 542 533
f 542 543 533
f 533 543 524
f 543 534 524
f 534 544 535
f 544 545 535
f 535 545 536
f 545 546 536
f 536 546 537
f 546 547 537
f 537 547 538
f 547 548 538
f 538 548 539
f 548 549 539
f 539 549 540
f 549 550 540
f 540 550 541
f 550 551 541
f 541 551 542
f 551 552 542
f 542 552 543
f 552 553 543
f 543 553 534
f 553 544 534
f 544 554 545
f 554 555 545
f 545 555 546
f 555 556 546
f 546 556 547
f 556 557 547
f 547 557 548
f 557 558 548
f 548 558 549
f 558 559 549
f 549 559 550
f 559 560 550
f 550 560 551
f 560 561 551
f 551 561 552
f 561 562 552
f 552 562 553
f 562 563 553
f 553 563 544
f 563 554 544
f 554 564 555
f 564 565 555
f 555 565 556
f 565 566 556
f 556 566 557
f 566 567 557
f 557 567 558
f 567 568 558
f 558 568 559
f 568 569 559
f 559 569 560
f 569 570 560
f 560 570 561
f 570 571 561
f 561 571 562
f 571 572 562
f 562 572 563
f 572 573 563
f 563 573 554
f 573 564 554
f 564 574 565
f 574 575 565
f 565 575 566
f 575 576 566
f 566 576 567
f 576 577 567
f 567 577 568
f 577 578 568
f 568 578 569
f 578 579 569
f 569 579 570
f 579 580 570
f 570 580 571
f 580 581 571
f 571 581 572
f 581 582 572
f 572 582 573
f 582 583 573
f 573 583 564
f 583 574 564
f 574 584 575
f 584 585 575
f 575 585 576
f 585 586 576
f 576 586 577
f 586 587 577
f 577 587 578
f 587 588 578
f 578 588 579
f 588 589 579
f 579 589 580
f 589 590 580
f 580 590 581
f 590 591 581
f 581 591 582
f 591 592 582
f 582 592 583
f 592 593 583
f 583 593 574
f 593 584 574
f 584 594 585
f 594 595 585
f 585 595 586
f 595 596 586
f 586 596 587
f 596 597 587
f 587 597 588
f 597 598 588
f 588 598 589
f 598 599 589
f 589 599 590
f 599 600 590
f 590 600 591
f 600 601 591
f 591 601 592
f 601 602 592
f 592 602 593
f 602 603 593
f 593 603 584
f 603 594 584
f 594 604 595
f 604 605 595
f 595 605 596
f 605 606 596
f 596 606 597
f 606 607 597
f 597 607 598
f 607 608 598
f 598 608 599
f 608 609 599
f 599 609 600
f 609 610 600
f 600 610 601
f 610 611 601
f 601 611 602
f 611 612 602
f 602 612 603
f 612 613 603
f 603 613 594
f 613 604 594
f 604 614 605
f 605 614 606
f 606 614 607
f 607 614 608
f 608 614 609
f 609 614 610
f 610 614 611
f 611 614 612
f 612 614 613
f 613 614 604
f 615 616 617
f 616 618 617
f 619 617 618
f 620 616 615
f 616 621 618
f 621 622 618
f 619 618 622
f 620 621 616
f 621 623 622
f 623 624 622
f 619 622 624
f 620 623 621
f 623 625 624
f 625 626 624
f 619 624 626
f 620 625 623
f 625 627 626
f 627 628 626
f 619 626 628
f 620 627 625
f 627 629 628
f 629 630 628
f 619 628 630
f 620 629 627
f 629 631 630
f 631 632 630
f 619 630 632
f 620 631 629
f 631 633 632
f 633 634 632
f 619 632 634
f 620 633 631
f 633 635 634
f 635 636 634
f 619 634 636
f 620 635 633
f 635 615 636
f 615 617 636
f 619 636 617
f 620 615 635
f 637 638 639
f 638 640 639
f 641 639 640
f 642 638 637
f 638 643 640
f 643 644 640
f 641 640 644
f 642 643 638
f 643 645 644
f 645 646 644
f 641 644 646
f 642 645 643
f 645 647 646
f 647 648 646
f 641 646 648
f 642 647 645
f 647 649 648
f 649 650 648
f 641 648 650
f 642 649 647
f 649 651 650
f 651 652 650
f 641 650 652
f 642 651 649
f 651 653 652
f 653 654 652
f 641 652 654
f 642 653 651
f 653 655 654
f 655 656 654
f 641 654 656
f 642 655 653
f 655 657 656
f 657 658 656
f 641 656 658
f 642 657 655
f 657 637 658
f 637 639 658
f 641 658 639
f 642 637 657
f 660 661 659
f 661 662 659
f 662 663 659
f 663 664 659
f 664 665 659
f 665 666 659
f 666 667 659
f 667 668 659
f 668 669 659
f 669 660 659
f 660 670 661
f 670 671 661
f 661 671 662
f 671 672 662
f 662 672 663
f 672 673 663
f 663 673 664
f 673 674 664
f 664 674 665
f 674 675 665
f 665 675 666
f 675 676 666
f 666 676 667
f 676 677 667
f 667 677 668
f 677 678 668
f 668 678 669
f 678 679 669
f 669 679 660
f 679 670 660
f 670 680 671
f 680 681 671
f 671 681 672
f 681 682 672
f 672 682 673
f 682 683 673
f 673 683 674
f 683 684 674
f 674 684 675
f 684 685 675
f 675 685 676
f 685 686 676
f 676 686 677
f 686 687 677
f 677 687 678
f 687 688 678
f 678 688 679
f 688 689 679
f 679 689 670
f 689 680 670
f 680 690 681
f 690 691 681
f 681 691 682
f 691 692 682
f 682 692 683
f 692 693 683
f 683 693 684
f 693 694 684
f 684 694 685
f 694 695 685
f 685 695 686
f 695 696 686
f 686 696 687
f 696 697 687
f 687 697 688
f 697 698 688
f 688 698 689
f 698 699 689
f 689 699 680
f 699 690 680
f 690 700 691
f 700 701 691
f 691 701 692
f 701 702 692
f 692 702 693
f 702 703 693
f 693 703 694
f 703 704 694
f 694 704 695
f 704 705 695
f 695 705 696
f 705 706 696
f 696 706 697
f 706 707 697
f 697 707 698
f 707 708 698
f 698 708 699
f 708 709 699
f 699 709 690
f 709 700 690
f 700 710 701
f 710 711 701
f 701 711 702
f 711 712 702
f 702 712 703
f 712 713 703
f 703 713 704
f 713 714 704
f 704 714 705
f 714 715 705
f 705 715 706
f 715 716 706
f 706 716 707
f 716 717 707
f 707 717 708
f 717 718 708
f 708 718 709
f 718 719 709
f 709 719 700
f 719 710 700
f 710 720 711
f 720 721 711
f 711 721 712
f 721 722 712
f 712 722 713
f 722 723 713
f 713 723 714
f 723 724 714
f 714 724 715
f 724 725 715
f 715 725 716
f 725 726 716
f 716 726 717
f 726 727 717
f 717 727 718
f 727 728 718
f 718 728 719
f 728 729 719
f 719 729 710
f 729 720 710
f 720 730 721
f 730 731 721
f 721 731 722
f 731 732 722
f 722 732 723
f 732 733 723
f 723 733 724
f 733 734 724
f 724 734 725
f 734 735 725
f 725 735 726
f 735 736 726
f 726 736 727
f 736 737 727
f 727 737 728
f 737 738 728
f 728 738 729
f 738 739 729
f 729 739 720
f 739 730 720
f 730 740 731
f 740 741 731
f 731 741 732
f 741 742 732
f 732 742 733
f 742 743 733
f 733 743 734
f 743 744 734
f 734 744 735
f 744 745 735
f 735 745 736
f 745 746 736
f 736 746 737
f 746 747 737
f 737 747 738
f 747 748 738
f 738 748 739
f 748 749 739
f 739 749 730
f 749 740 730
f 740 750 741
f 741 750 742
f 742 750 743
f 743 750 744
f 744 750 745
f 745 750 746
f 746 750 747
f 747 750 748
f 748 750 749
f 749 750 740
f 751 752 753
f 752 754 753
f 755 753 754
f 756 752 751
f 752 757 754
f 757 758 754
f 755 754 758
f 756 757 752
f 757 759 758
f 759 760 758
f 755 758 760
f 756 759 757
f 759 761 760
f 761 762 760
f 755 760 762
f 756 761 759
f 761 763 762
f 763 764 762
f 755 762 764
f 756 763 761
f 763 765 764
f 765 766 764
f 755 764 766
f 756 765 763
f 765 767 766
f 767 768 766
f 755 766 768
f 756 767 765
f 767 769 768
f 769 770 768
f 755 768 770
f 756 769 767
f 769 771 770
f 771 772 770
f 755 770 772
f 756 771 769
f 771 751 772
f 751 753 772
f 755 772 753
f 756 751 771
f 773 774 775
f 774 776 775
f 777 775 776
f 778 774 773
f 774 779 776
f 779 780 776
f 777 776 780
f 778 779 774
f 779 781 780
f 781 782 780
f 777 780 782
f 778 781 779
f 781 783 782
f 783 784 782
f 777 782 784
f 778 783 781
f 783 785 784
f 785 786 784
f 777 784 786
f 778 785 783
f 785 787 786
f 787 788 786
f 777 786 788
f 778 787 785
f 787 789 788
f 789 790 788
f 777 788 790
f 778 789 787
f 789 791 790
f 791 792 790
f 777 790 792
f 778 791 789
f 791 793 792
f 793 794 792
f 777 792 794
f 778 793 791
f 793 773 794
f 773 775 794
f 777 794 775
f 778 773 793
f 796 797 795
f 797 798 795
f 798 799 795
f 799 800 795
f 800 801 795
f 801 802 795
f 802 803 795
f 803 804 795
f 804 805 795
f 805 796 795
f 796 806 797
f 806 807 797
f 797 807 798
f 807 808 798
f 798 808 799
f 808 809 799
f 799 809 800
f 809 810 800
f 800 810 801
f 810 811 801
f 801 811 802
f 811 812 802
f 802 812 803
f 812 813 803
f 803 813 804
f 813 814 804
f 804 814 805
f 814 815 805
f 805 815 796
f 815 806 796
f 806 816 807
f 816 817 807
f 807 817 808
f 817 818 808
f 808 818 809
f 818 819 809
f 809 819 810
f 819 820 810
f 810 820 811
f 820 821 811
f 811 821 812
f 821 822 812
f 812 822 813
f 822 823 813
f 813 823 814
f 823 824 814
f 814 824 815
f 824 825 815
f 815 825 806
f 825 816 806
f 816 826 817
f 826 827 817
f 817 827 818
f 827 828 818
f 818 828 819
f 828 829 819
f 819 829 820
f 829 830 820
f 820 830 821
f 830 831 821
f 821 831 822
f 831 832 822
f 822 832 823
f 832 833 823
f 823 833 824
f 833 834 824
f 824 834 825
f 834 835 825
f 825 835 816
f 835 826 816
f 826 836 827
f 836 837 827
f 827 837 828
f 837 838 828
f 828 838 829
f 838 839 829
f 829 839 830
f 839 840 830
f 830 840 831
f 840 841 831
f 831 841 832
f 841 842 832
f 832 842 833
f 842 843 833
f 833 843 834
f 843 844 834
f 834 844 835
f 844 845 835
f 835 845 826
f 845 836 826
f 836 846 837
f 846 847 837
f 837 847 838
f 847 848 838
f 838 848 839
f 848 849 839
f 839 849 840
f 849 850 840
f 840 850 841
f 850 851 841
f 841 851 842
f 851 852 842
f 842 852 843
f 852 853 843
f 843 853 844
f 853 854 844
f 844 854 845
f 854 855 845
f 845 855 836
f 855 846 836
f 846 856 847
f 856 857 847
f 847 857 848
f 857 858 848
f 848 858 849
f 858 859 849
f 849 859 850
f 859 860 850
f 850 860 851
f 860 861 851
f 851 861 852
f 861 862 852
f 852 862 853
f 862 863 853
f 853 863 854
f 863 864 854
f 854 864 855
f 864 865 855
f 855 865 846
f 865 856 846
f 856 866 857
f 866 867 857
f 857 867 858
f 867 868 858
f 858 868 859
f 868 869 859
f 859 869 860
f 869 870 860
f 860 870 861
f 870 871 861
f 861 871 862
f 871 872 862
f 862 872 863
f 872 873 863
f 863 873 864
f 873 874 864
f 864 874 865
f 874 875 865
f 865 875 856
f 875 866 856
f 866 876 867
f 876 877 867
f 867 877 868
f 877 878 868
f 868 878 869
f 878 879 869
f 869 879 870
f 879 880 870
f 870 880 871
f 880 881 871
f 871 881 872
f 881 882 872
f 872 882 873
f 882 883 873
f 873 883 874
f 883 884 874
f 874 884 875
f 884 885 875
f 875 885 866
f 885 876 866
f 876 886 877
f 877 886 878
f 878 886 879
f 879 886 880
f 880 886 881
f 881 886 882
f 882 886 883
f 883 886 884
f 884 886 885
f 885 886 876
f 887 888 889
f 888 890 889
f 891 889 890
f 892 888 887
f 888 893 890
f 893 894 890
f 891 890 894
f 892 893 888
f 893 895 894
f 895 896 894
f 891 894 896
f 892 895 893
f 895 897 896
f 897 898 896
f 891 896 898
f 892 897 895
f 897 899 898
f 899 900 898
f 891 898 900
f 892 899 897
f 899 901 900
f 901 902 900
f 891 900 902
f 892 901 899
f 901 903 902
f 903 904 902
f 891 902 904
f 892 903 901
f 903 905 904
f 905 906 904
f 891 904 906
f 892 905 903
f 905 907 906
f 907 908 906
f 891 906 908
f 892 907 905
f 907 887 908
f 887 889 908
f 891 908 889
f 892 887 907
f 909 910 911
f 910 912 911
f 913 911 912
f 914 910 909
f 910 915 912
f 915 916 912
f 913 912 916
f 914 915 910
f 915 917 916
f 917 918 916
f 913 916 918
f 914 917 915
f 917 919 918
f 919 920 918
f 913 918 920
f 914 919 917
f 919 921 920
f 921 922 920
f 913 920 922
f 914 921 919
f 921 923 922
f 923 924 922
f 913 922 924
f 914 923 921
f 923 925 924
f 925 926 924
f 913 924 926
f 914 925 923
f 925 927 926
f 927 928 926
f 913 926 928
f 914 927 925
f 927 929 928
f 929 930 928
f 913 928 930
f 914 929 927
f 929 909 930
f 909 911 930
f 913 930 911
f 914 909 929
f 932 933 931
f 933 934 931
f 934 935 931
f 935 936 931
f 936 937 931
f 937 938 931
f 938 939 931
f 939 940 931
f 940 941 931
f 941 932 931
f 932 942 933
f 942 943 933
f 933 943 934
f 943 944 934
f 934 944 935
f 944 945 935
f 935 945 936
f 945 946 936
f 936 946 937
f 946 947 937
f 937 947 938
f 947 948 938
f 938 948 939
f 948 949 939
f 939 949 940
f 949 950 940
f 940 950 941
f 950 951 941
f 941 951 932
f 951 942 932
f 942 952 943
f 952 953 943
f 943 953 944
f 953 954 944
f 944 954 945
f 954 955 945
f 945 955 946
f 955 956 946
f 946 956 947
f 956 957 947
f 947 957 948
f 957 958 948
f 948 958 949
f 958 959 949
f 949 959 950
f 959 960 950
f 950 960 951
f 960 961 951
f 951 961 942
f 961 952 942
f 952 962 953
f 962 963 953
f 953 963 954
f 963 964 954
f 954 964 955
f 964 965 955
f 955 965 956
f 965 966 956
f 956 966 957
f 966 967 957
f 957 967 958
f 967 968 958
f 958 968 959
f 968 969 959
f 959 969 960
f 969 970 960
f 960 970 961
f 970 971 961
f 961 971 952
f 971 962 952
f 962 972 963
f 972 973 963
f 963 973 964
f 973 974 964
f 964 974 965
f 974 975 965
f 965 975 966
f 975 976 966
f 966 976 967
f 976 977 967
f 967 977 968
f 977 978 968
f 968 978 969
f 978 979 969
f 969 979 970
f 979 980 970
f 970 980 971
f 980 981 971
f 971 981 962
f 981 972 962
f 972 982 973
f 982 983 973
f 973 983 974
f 983 984 974
f 974 984 975
f 984 985 975
f 975 985 976
f 985 986 976
f 976 986 977
f 986 987 977
f 977 987 978
f 987 988 978
f 978 988 979
f 988 989 979
f 979 989 980
f 989 990 980
f 980 990 981
f 990 991 981
f 981 991 972
f 991 982 972
f 982 992 983
f 992 993 983
f 983 993 984
f 993 994 984
f 984 994 985
f 994 995 985
f 985 995 986
f 995 996 986
f 986 996 987
f 996 997 987
f 987 997 988
f 997 998 988
f 988 998 989
f 998 999 989
f 989 999 990
f 999 1000 990
f 990 1000 991
f 1000 1001 991
f 991 1001 982
f 1001 992 982
f 992 1002 993
f 1002 1003 993
f 993 1003 994
f 1003 1004 994
f 994 1004 995
f 1004 1005 995
f 995 1005 996
f 1005 1006 996
f 996 1006 997
f 1006 1007 997
f 997 1007 998
f 1007 1008 998
f 998 1008 999
f 1008 1009 999
f 999 1009 1000
f 1009 1010 1000
f 1000 1010 1001
f 1010 1011 1001
f 1001 1011 992
f 1011 1002 992
f 1002 1012 1003
f 1012 1013 1003
f 1003 1013 1004
f 1013 1014 1004
f 1004 1014 1005
f 1014 1015 1005
f 1005 1015 1006
f 1015 1016 1006
f 1006 1016 1007
f 1016 1017 1007
f 1007 1017 1008
f 1017 1018 1008
f 1008 1018 1009
f 1018 1019 1009
f 1009 1019 1010
f 1019 1020 1010
f 1010 1020 1011
f 1020 1021 1011
f 1011 1021 1002
f 1021 1012 1002
f 1012 1022 1013
f 1013 1022 1014
f 1014 1022 1015
f 1015 1022 1016
f 1016 1022 1017
f 1017 1022 1018
f 1018 1022 1019
f 1019 1022 1020
f 1020 1022 1021
f 1021 1022 1012
f 1023 1024 1025
f 1024 1026 1025
f 1027 1025 1026
f 1028 1024 1023
f 1024 1029 1026
f 1029 1030 1026
f 1027 1026 1030
f 1028 1029 1024
f 1029 1031 1030
f 1031 1032 1030
f 1027 1030 1032
f 1028 1031 1029
f 1031 1033 1032
f 1033 1034 1032
f 1027 1032 1034
f 1028 1033 1031
f 1033 1035 1034
f 1035 1036 1034
f 1027 1034 1036
f 1028 1035 1033
f 1035 1037 1036
f 1037 1038 1036
f 1027 1036 1038
f 1028 1037 1035
f 1037 1039 1038
f 1039 1040 1038
f 1027 1038 1040
f 1028 1039 1037
f 1039 1041 1040
f 1041 1042 1040
f 1027 1040 1042
f 1028 1041 1039
f 1041 1043 1042
f 1043 1044 1042
f 1027 1042 1044
f 1028 1043 1041
f 1043 1023 1044
f 1023 1025 1044
f 1027 1044 1025
f 1028 1023 1043
f 1045 1046 1047
f 1046 1048 1047
f 1049 1047 1048
f 1050 1046 1045
f 1046 1051 1048
f 1051 1052 1048
f 1049 1048 1052
f 1050 1051 1046
f 1051 1053 1052
f 1053 1054 1052
f 1049 1052 1054
f 1050 1053 1051
f 1053 1055 1054
f 1055 1056 1054
f 1049 1054 1056
f 1050 1055 1053
f 1055 1057 1056
f 1057 1058 1056
f 1049 1056 1058
f 1050 1057 1055
f 1057 1059 1058
f 1059 1060 1058
f 1049 1058 1060
f 1050 1059 1057
f 1059 1061 1060
f 1061 1062 1060
f 1049 1060 1062
f 1050 1061 1059
f 1061 1063 1062
f 1063 1064 1062
f 1049 1062 1064
f 1050 1063 1061
f 1063 1065 1064
f 1065 1066 1064
f 1049 1064 1066
f 1050 1065 1063
f 1065 1045 1066
f 1045 1047 1066
f 1049 1066 1047
f 1050 1045 1065
f 1068 1069 1067
f 1069 1070 1067
f 1070 1071 1067
f 1071 1072 1067
f 1072 1073 1067
f 1073 1074 1067
f 1074 1075 1067
f 1075 1076 1067
f 1076 1077 1067
f 1077 1068 1067
f 1068 1078 1069
f 1078 1079 1069
f 1069 1079 1070
f 1079 1080 1070
f 1070 1080 1071
f 1080 1081 1071
f 1071 1081 1072
f 1081 1082 1072
f 1072 1082 1073
f 1082 1083 1073
f 1073 1083 1074
f 1083 1084 1074
f 1074 1084 1075
f 1084 1085 1075
f 1075 1085 1076
f 1085 1086 1076
f 1076 1086 1077
f 1086 1087 1077
f 1077 1087 1068
f 1087 1078 1068
f 1078 1088 1079
f 1088 1089 1079
f 1079 1089 1080
f 1089 1090 1080
f 1080 1090 1081
f 1090 1091 1081
f 1081 1091 1082
f 1091 1092 1082
f 1082 1092 1083
f 1092 1093 1083
f 1083 1093 1084
f 1093 1094 1084
f 1084 1094 1085
f 1094 1095 1085
f 1085 1095 1086
f 1095 1096 1086
f 1086 1096 1087
f 1096 1097 1087
f 1087 1097 1078
f 1097 1088 1078
f 1088 1098 1089
f 1098 1099 1089
f 1089 1099 1090
f 1099 1100 1090
f 1090 1100 1091
f 1100 1101 1091
f 1091 1101 1092
f 1101 1102 1092
f 1092 1102 1093
f 1102 1103 1093
f 1093 1103 1094
f 1103 1104 1094
f 1094 1104 1095
f 1104 1105 1095
f 1095 1105 1096
f 1105 1106 1096
f 1096 1106 1097
f 1106 1107 1097
f 1097 1107 1088
f 1107 1098 1088
f 1098 1108 1099
f 1108 1109 1099
f 1099 1109 1100
f 1109 1110 1100
f 1100 1110 1101
f 1110 1111 1101
f 1101 1111 1102
f 1111 1112 1102
f 1102 1112 1103
f 1112 1113 1103
f 1103 1113 1104
f 1113 1114 1104
f 1104 1114 1105
f 1114 1115 1105
f 1105 1115 1106
f 1115 1116 1106
f 1106 1116 1107
f 1116 1117 1107
f 1107 1117 1098
f 1117 1108 1098
f 1108 1118 1109
f 1118 1119 1109
f 1109 1119 1110
f 1119 1120 1110
f 1110 1120 1111
f 1120 1121 1111
f 1111 1121 1112
f 1121 1122 1112
f 1112 1122 1113
f 1122 1123 1113
f 1113 1123 1114
f 1123 1124 1114
f 1114 1124 1115
f 1124 1125 1115
f 1115 1125 1116
f 1125 1126 1116
f 1116 1126 1117
f 1126 1127 1117
f 1117 1127 1108
f 1127 1118 1108
f 1118 1128 1119
f 1128 1129 1119
f 1119 1129 1120
f 1129 1130 1120
f 1120 1130 1121
f 1130 1131 1121
f 1121 1131 1122
f 1131 1132 1122
f 1122 1132 1123
f 1132 1133 1123
f 1123 1133 1124
f 1133 1134 1124
f 1124 1134 1125
f 1134 1135 1125
f 1125 1135 1126
f 1135 1136 1126
f 1126 1136 1127
f 1136 1137 1127
f 1127 1137 1118
f 1137 1128 1118
f 1128 1138 1129
f 1138 1139 1129
f 1129 1139 1130
f 1139 1140 1130
f 1130 1140 1131
f 1140 1141 1131
f 1131 1141 1132
f 1141 1142 1132
f 1132 1142 1133
f 1142 1143 1133
f 1133 1143 1134
f 1143 1144 1134
f 1134 1144 1135
f 1144 1145 1135
f 1135 1145 1136
f 1145 1146 1136
f 1136 1146 1137
f 1146 1147 1137
f 1137 1147 1128
f 1147 1138 1128
f 1138 1148 1139
f 1148 1149 1139
f 1139 1149 1140
f 1149 1150 1140
f 1140 1150 1141
f 1150 1151 1141
f 1141 1151 1142
f 1151 1152 1142
f 1142 1152 1143
f 1152 1153 1143
f 1143 1153 1144
f 1153 1154 1144
f 1144 1154 1145
f 1154 1155 1145
f 1145 1155 1146
f 1155 1156 1146
f 1146 1156 1147
f 1156 1157 1147
f 1147 1157 1138
f 1157 1148 1138
f 1148 1158 1149
f 1149 1158 1150
f 1150 1158 1151
f 1151 1158 1152
f 1152 1158 1153
f 1153 1158 1154
f 1154 1158 1155
f 1155 1158 1156
f 1156 1158 1157
f 1157 1158 1148
f 1159 1160 1161
f 1160 1162 1161
f 1163 1161 1162
f 1164 1160 1159
f 1160 1165 1162
f 1165 1166 1162
f 1163 1162 1166
f 1164 1165 1160
f 1165 1167 1166
f 1167 1168 1166
f 1163 1166 1168
f 1164 1167 1165
f 1167 1169 1168
f 1169 1170 1168
f 1163 1168 1170
f 1164 1169 1167
f 1169 1171 1170
f 1171 1172 1170
f 1163 1170 1172
f 1164 1171 1169
f 1171 1173 1172
f 1173 1174 1172
f 1163 1172 1174
f 1164 1173 1171
f 1173 1175 1174
f 1175 1176 1174
f 1163 1174 1176
f 1164 1175 1173
f 1175 1177 1176
f 1177 1178 1176
f 1163 1176 1178
f 1164 1177 1175
f 1177 1179 1178
f 1179 1180 1178
f 1163 1178 1180
f 1164 1179 1177
f 1179 1159 1180
f 1159 1161 1180
f 1163 1180 1161
f 1164 1159 1179
f 1182 1183 1181
f 1183 1184 1181
f 1184 1185 1181
f 1185 1186 1181
f 1186 1187 1181
f 1187 1188 1181
f 1188 1189 1181
f 1189 1190 1181
f 1190 1191 1181
f 1191 1182 1181
f 1182 1192 1183
f 1192 1193 1183
f 1183 1193 1184
f 1193 1194 1184
f 1184 1194 1185
f 1194 1195 1185
f 1185 1195 1186
f 1195 1196 1186
f 1186 1196 1187
f 1196 1197 1187
f 1187 1197 1188
f 1197 1198 1188
f 1188 1198 1189
f 1198 1199 1189
f 1189 1199 1190
f 1199 1200 1190
f 1190 1200 1191
f 1200 1201 1191
f 1191 1201 1182
f 1201 1192 1182
f 1192 1202 1193
f 1202 1203 1193
f 1193 1203 1194
f 1203 1204 1194
f 1194 1204 1195
f 1204 1205 1195
f 1195 1205 1196
f 1205 1206 1196
f 1196 1206 1197
f 1206 1207 1197
f 1197 1207 1198
f 1207 1208 1198
f 1198 1208 1199
f 1208 1209 1199
f 1199 1209 1200
f 1209 1210 1200
f 1200 1210 1201
f 1210 1211 1201
f 1201 1211 1192
f 1211 1202 1192
f 1202 1212 1203
f 1212 1213 1203
f 1203 1213 1204
f 1213 1214 1204
f 1204 1214 1205
f 1214 1215 1205
f 1205 1215 1206
f 1215 1216 1206
f 1206 1216 1207
f 1216 1217 1207
f 1207 1217 1208
f 1217 1218 1208
f 1208 1218 1209
f 1218 1219 1209
f 1209 1219 1210
f 1219 1220 1210
f 1210 1220 1211
f 1220 1221 1211
f 1211 1221 1202
f 1221 1212 1202
f 1212 1222 1213
f 1222 1223 1213
f 1213 1223 1214
f 1223 1224 1214
f 1214 1224 1215
f 1224 1225 1215
f 1215 1225 1216
f 1225 1226 1216
f 1216 1226 1217
f 1226 1227 1217
f 1217 1227 1218
f 1227 1228 1218
f 1218 1228 1219
f 1228 1229 1219
f 1219 1229 1220
f 1229 1230 1220
f 1220 1230 1221
f 1230 1231 1221
f 1221 1231 1212
f 1231 1222 1212
f 1222 1232 1223
f 1232 1233 1223
f 1223 1233 1224
f 1233 1234 1224
f 1224 1234 1225
f 1234 1235 1225
f 1225 1235 1226
f 1235 1236 1226
f 1226 1236 1227
f 1236 1237 1227
f 1227 1237 1228
f 1237 1238 1228
f 1228 1238 1229
f 1238 1239 1229
f 1229 1239 1230
f 1239 1240 1230
f 1230 1240 1231
f 1240 1241 1231
f 1231 1241 1222
f 1241 1232 1222
f 1232 1242 1233
f 1242 1243 1233
f 1233 1243 1234
f 1243 1244 1234
f 1234 1244 1235
f 1244 1245 1235
f 1235 1245 1236
f 1245 1246 1236
f 1236 1246 1237
f 1246 1247 1237
f 1237 1247 1238
f 1247 1248 1238
f 1238 1248 1239
f 1248 1249 1239
f 1239 1249 1240
f 1249 1250 1240
f 1240 1250 1241
f 1250 1251 1241
f 1241 1251 1232
f 1251 1242 1232
f 1242 1252 1243
f 1252 1253 1243
f 1243 1253 1244
f 1253 1254 1244
f 1244 1254 1245
f 1254 1255 1245
f 1245 1255 1246
f 1255 1256 1246
f 1246 1256 1247
f 1256 1257 1247
f 1247 1257 1248
f 1257 1258 1248
f 1248 1258 1249
f 1258 1259 1249
f 1249 1259 1250
f 1259 1260 1250
f 1250 1260 1251
f 1260 1261 1251
f 1251 1261 1242
f 1261 1252 1242
f 1252 1262 1253
f 1262 1263 1253
f 1253 1263 1254
f 1263 1264 1254
f 1254 1264 1255
f 1264 1265 1255
f 1255 1265 1256
f 1265 1266 1256
f 1256 1266 1257
f 1266 1267 1257
f 1257 1267 1258
f 1267 1268 1258
f 1258 1268 1259
f 1268 1269 1259
f 1259 1269 1260
f 1269 1270 1260
f 1260 1270 1261
f 1270 1271 1261
f 1261 1271 1252
f 1271 1262 1252
f 1262 1272 1263
f 1263 1272 1264
f 1264 1272 1265
f 1265 1272 1266
f 1266 1272 1267
f 1267 1272 1268
f 1268 1272 1269
f 1269 1272 1270
f 1270 1272 1271
f 1271 1272 1262
f 1274 1275 1273
f 1275 1276 1273
f 1276 1277 1273
f 1277 1278 1273
f 1278 1279 1273
f 1279 1280 1273
f 1280 1281 1273
f 1281 1282 1273
f 1282 1283 1273
f 1283 1274 1273
f 1274 1284 1275
f 1284 1285 1275
f 1275 1285 1276
f 1285 1286 1276
f 1276 1286 1277
f 1286 1287 1277
f 1277 1287 1278
f 1287 1288 1278
f 1278 1288 1279
f 1288 1289 1279
f 1279 1289 1280
f 1289 1290 1280
f 1280 1290 1281
f 1290 1291 1281
f 1281 1291 1282
f 1291 1292 1282
f 1282 1292 1283
f 1292 1293 1283
f 1283 1293 1274
f 1293 1284 1274
f 1284 1294 1285
f 1294 1295 1285
f 1285 1295 1286
f 1295 1296 1286
f 1286 1296 1287
f 1296 1297 1287
f 1287 1297 1288
f 1297 1298 1288
f 1288 1298 1289
f 1298 1299 1289
f 1289 1299 1290
f 1299 1300 1290
f 1290 1300 1291
f 1300 1301 1291
f 1291 1301 1292
f 1301 1302 1292
f 1292 1302 1293
f 1302 1303 1293
f 1293 1303 1284
f 1303 1294 1284
f 1294 1304 1295
f 1304 1305 1295
f 1295 1305 1296
f 1305 1306 1296
f 1296 1306 1297
f 1306 1307 1297
f 1297 1307 1298
f 1307 1308 1298
f 1298 1308 1299
f 1308 1309 1299
f 1299 1309 1300
f 1309 1310 1300
f 1300 1310 1301
f 1310 1311 1301
f 1301 1311 1302
f 1311 1312 1302
f 1302 1312 1303
f 1312 1313 1303
f 1303 1313 1294
f 1313 1304 1294
f 1304 1314 1305
f 1314 1315 1305
f 1305 1315 1306
f 1315 1316 1306
f 1306 1316 1307
f 1316 1317 1307
f 1307 1317 1308
f 1317 1318 1308
f 1308 1318 1309
f 1318 1319 1309
f 1309 1319 1310
f 1319 1320 1310
f 1310 1320 1311
f 1320 1321 1311
f 1311 1321 1312
f 1321 1322 1312
f 1312 1322 1313
f 1322 1323 1313
f 1313 1323 1304
f 1323 1314 1304
f 1314 1324 1315
f 1324 1325 1315
f 1315 1325 1316
f 1325 1326 1316
f 1316 1326 1317
f 1326 1327 1317
f 1317 1327 1318
f 1327 1328 1318
f 1318 1328 1319
f 1328 1329 1319
f 1319 1329 1320
f 1329 1330 1320
f 1320 1330 1321
f 1330 1331 1321
f 1321 1331 1322
f 1331 1332 1322
f 1322 1332 1323
f 1332 1333 1323
f 1323 1333 1314
f 1333 1324 1314
f 1324 1334 1325
f 1334 1335 1325
f 1325 1335 1326
f 1335 1336 1326
f 1326 1336 1327
f 1336 1337 1327
f 1327 1337 1328
f 1337 1338 1328
f 1328 1338 1329
f 1338 1339 1329
f 1329 1339 1330
f 1339 1340 1330
f 1330 1340 1331
f 1340 1341 1331
f 1331 1341 1332
f 1341 1342 1332
f 1332 1342 1333
f 1342 1343 1333
f 1333 1343 1324
f 1343 1334 1324
f 1334 1344 1335
f 1344 1345 1335
f 1335 1345 1336
f 1345 1346 1336
f 1336 1346 1337
f 1346 1347 1337
f 1337 1347 1338
f 1347 1348 1338
f 1338 1348 1339
f 1348 1349 1339
f 1339 1349 1340
f 1349 1350 1340
f 1340 1350 1341
f 1350 1351 1341
f 1341 1351 1342
f 1351 1352 1342
f 1342 1352 1343
f 1352 1353 1343
f 1343 1353 1334
f 1353 1344 1334
f 1344 1354 1345
f 1354 1355 1345
f 1345 1355 1346
f 1355 1356 1346
f 1346 1356 1347
f 1356 1357 1347
f 1347 1357 1348
f 1357 1358 1348
f 1348 1358 1349
f 1358 1359 1349
f 1349 1359 1350
f 1359 1360 1350
f 1350 1360 1351
f 1360 1361 1351
f 1351 1361 1352
f 1361 1362 1352
f 1352 1362 1353
f 1362 1363 1353
f 1353 1363 1344
f 1363 1354 1344
f 1354 1364 1355
f 1355 1364 1356
f 1356 1364 1357
f 1357 1364 1358
f 1358 1364 1359
f 1359 1364 1360
f 1360 1364 1361
f 1361 1364 1362
f 1362 1364 1363
f 1363 1364 1354
f 1366 1367 1365
f 1367 1368 1365
f 1368 1369 1365
f 1369 1370 1365
f 1370 1371 1365
f 1371 1372 1365
f 1372 1373 1365
f 1373 1374 1365
f 1374 1375 1365
f 1375 1366 1365
f 1366 1376 1367
f 1376 1377 1367
f 1367 1377 1368
f 1377 1378 1368
f 1368 1378 1369
f 1378 1379 1369
f 1369 1379 1370
f 1379 1380 1370
f 1370 1380 1371
f 1380 1381 1371
f 1371 1381 1372
f 1381 1382 1372
f 1372 1382 1373
f 1382 1383 1373
f 1373 1383 1374
f 1383 1384 1374
f 1374 1384 1375
f 1384 1385 1375
f 1375 1385 1366
f 1385 1376 1366
f 1376 1386 1377
f 1386 1387 1377
f 1377 1387 1378
f 1387 1388 1378
f 1378 1388 1379
f 1388 1389 1379
f 1379 1389 1380
f 1389 1390 1380
f 1380 1390 1381
f 1390 1391 1381
f 1381 1391 1382
f 1391 1392 1382
f 1382 1392 1383
f 1392 1393 1383
f 1383 1393 1384
f 1393 1394 1384
f 1384 1394 1385
f 1394 1395 1385
f 1385 1395 1376
f 1395 1386 1376
f 1386 1396 1387
f 1396 1397 1387
f 1387 1397 1388
f 1397 1398 1388
f 1388 1398 1389
f 1398 1399 1389
f 1389 1399 1390
f 1399 1400 1390
f 1390 1400 1391
f 1400 1401 1391
f 1391 1401 1392
f 1401 1402 1392
f 1392 1402 1393
f 1402 1403 1393
f 1393 1403 1394
f 1403 1404 1394
f 1394 1404 1395
f 1404 1405 1395
f 1395 1405 1386
f 1405 1396 1386
f 1396 1406 1397
f 1406 1407 1397
f 1397 1407 1398
f 1407 1408 1398
f 1398 1408 1399
f 1408 1409 1399
f 1399 1409 1400
f 1409 1410 1400
f 1400 1410 1401
f 1410 1411 1401
f 1401 1411 1402
f 1411 1412 1402
f 1402 1412 1403
f 1412 1413 1403
f 1403 1413 1404
f 1413 1414 1404
f 1404 1414 1405
f 1414 1415 1405
f 1405 1415 1396
f 1415 1406 1396
f 1406 1416 1407
f 1416 1417 1407
f 1407 1417 1408
f 1417 1418 1408
f 1408 1418 1409
f 1418 1419 1409
f 1409 1419 1410
f 1419 1420 1410
f 1410 1420 1411
f 1420 1421 1411
f 1411 1421 1412
f 1421 1422 1412
f 1412 1422 1413
f 1422 1423 1413
f 1413 1423 1414
f 1423 1424 1414
f 1414 1424 1415
f 1424 1425 1415
f 1415 1425 1406
f 1425 1416 1406
f 1416 1426 1417
f 1426 1427 1417
f 1417 1427 1418
f 1427 1428 1418
f 1418 1428 1419
f 1428 1429 1419
f 1419 1429 1420
f 1429 1430 1420
f 1420 1430 1421
f 1430 1431 1421
f 1421 1431 1422
f 1431 1432 1422
f 1422 1432 1423
f 1432 1433 1423
f 1423 1433 1424
f 1433 1434 1424
f 1424 1434 1425
f 1434 1435 1425
f 1425 1435 1416
f 1435 1426 1416
f 1426 1436 1427
f 1436 1437 1427
f 1427 1437 1428
f 1437 1438 1428
f 1428 1438 1429
f 1438 1439 1429
f 1429 1439 1430
f 1439 1440 1430
f 1430 1440 1431
f 1440 1441 1431
f 1431 1441 1432
f 1441 1442 1432
f 1432 1442 1433
f 1442 1443 1433
f 1433 1443 1434
f 1443 1444 1434
f 1434 1444 1435
f 1444 1445 1435
f 1435 1445 1426
f 1445 1436 1426
f 1436 1446 1437
f 1446 1447 1437
f 1437 1447 1438
f 1447 1448 1438
f 1438 1448 1439
f 1448 1449 1439
f 1439 1449 1440
f 1449 1450 1440
f 1440 1450 1441
f 1450 1451 1441
f 1441 1451 1442
f 1451 1452 1442
f 1442 1452 1443
f 1452 1453 1443
f 1443 1453 1444
f 1453 1454 1444
f 1444 1454 1445
f 1454 1455 1445
f 1445 1455 1436
f 1455 1446 1436
f 1446 1456 1447
f 1447 1456 1448
f 1448 1456 1449
f 1449 1456 1450
f 1450 1456 1451
f 1451 1456 1452
f 1452 1456 1453
f 1453 1456 1454
f 1454 1456 1455
f 1455 1456 1446
f 1458 1459 1457
f 1459 1460 1457
f 1460 1461 1457
f 1461 1462 1457
f 1462 1463 1457
f 1463 1464 1457
f 1464 1465 1457
f 1465 1466 1457
f 1466 1467 1457
f 1467 1458 1457
f 1458 1468 1459
f 1468 1469 1459
f 1459 1469 1460
f 1469 1470 1460
f 1460 1470 1461
f 1470 1471 1461
f 1461 1471 1462
f 1471 1472 1462
f 1462 1472 1463
f 1472 1473 1463
f 1463 1473 1464
f 1473 1474 1464
f 1464 1474 1465
f 1474 1475 1465
f 1465 1475 1466
f 1475 1476 1466
f 1466 1476 1467
f 1476 1477 1467
f 1467 1477 1458
f 1477 1468 1458
f 1468 1478 1469
f 1478 1479 1469
f 1469 1479 1470
f 1479 1480 1470
f 1470 1480 1471
f 1480 1481 1471
f 1471 1481 1472
f 1481 1482 1472
f 1472 1482 1473
f 1482 1483 1473
f 1473 1483 1474
f 1483 1484 1474
f 1474 1484 1475
f 1484 1485 1475
f 1475 1485 1476
f 1485 1486 1476
f 1476 1486 1477
f 1486 1487 1477
f 1477 1487 1468
f 1487 1478 1468
f 1478 1488 1479
f 1488 1489 1479
f 1479 1489 1480
f 1489 1490 1480
f 1480 1490 1481
f 1490 1491 1481
f 1481 1491 1482
f 1491 1492 1482
f 1482 1492 1483
f 1492 1493 1483
f 1483 1493 1484
f 1493 1494 1484
f 1484 1494 1485
f 1494 1495 1485
f 1485 1495 1486
f 1495 1496 1486
f 1486 1496 1487
f 1496 1497 1487
f 1487 1497 1478
f 1497 1488 1478
f 1488 1498 1489
f 1498 1499 1489
f 1489 1499 1490
f 1499 1500 1490
f 1490 1500 1491
f 1500 1501 1491
f 1491 1501 1492
f 1501 1502 1492
f 1492 1502 1493
f 1502 1503 1493
f 1493 1503 1494
f 1503 1504 1494
f 1494 1504 1495
f 1504 1505 1495
f 1495 1505 1496
f 1505 1506 1496
f 1496 1506 1497
f 1506 1507 1497
f 1497 1507 1488
f 1507 1498 1488
f 1498 1508 1499
f 1508 1509 1499
f 1499 1509 1500
f 1509 1510 1500
f 1500 1510 1501
f 1510 1511 1501
f 1501 1511 1502
f 1511 1512 1502
f 1502 1512 1503
f 1512 1513 1503
f 1503 1513 1504
f 1513 1514 1504
f 1504 1514 1505
f 1514 1515 1505
f 1505 1515 1506
f 1515 1516 1506
f 1506 1516 1507
f 1516 1517 1507
f 1507 1517 1498
f 1517 1508 1498
f 1508 1518 1509
f 1518 1519 1509
f 1509 1519 1510
f 1519 1520 1510
f 1510 1520 1511
f 1520 1521 1511
f 1511 1521 1512
f 1521 1522 1512
f 1512 1522 1513
f 1522 1523 1513
f 1513 1523 1514
f 1523 1524 1514
f 1514 1524 1515
f 1524 1525 1515
f 1515 1525 1516
f 1525 1526 1516
f 1516 1526 1517
f 1526 1527 1517
f 1517 1527 1508
f 1527 1518 1508
f 1518 1528 1519
f 1528 1529 1519
f 1519 1529 1520
f 1529 1530 1520
f 1520 1530 1521
f 1530 1531 1521
f 1521 1531 1522
f 1531 1532 1522
f 1522 1532 1523
f 1532 1533 1523
f 1523 1533 1524
f 1533 1534 1524
f 1524 1534 1525
f 1534 1535 1525
f 1525 1535 1526
f 1535 1536 1526
f 1526 1536 1527
f 1536 1537 1527
f 1527 1537 1518
f 1537 1528 1518
f 1528 1538 1529
f 1538 1539 1529
f 1529 1539 1530
f 1539 1540 1530
f 1530 1540 1531
f 1540 1541 1531
f 1531 1541 1532
f 1541 1542 1532
f 1532 1542 1533
f 1542 1543 1533
f 1533 1543 1534
f 1543 1544 1534
f 1534 1544 1535
f 1544 1545 1535
f 1535 1545 1536
f 1545 1546 1536
f 1536 1546 1537
f 1546 1547 1537
f 1537 1547 1528
f 1547 1538 1528
f 1538 1548 1539
f 1539 1548 1540
f 1540 1548 1541
f 1541 1548 1542
f 1542 1548 1543
f 1543 1548 1544
f 1544 1548 1545
f 1545 1548 1546
f 1546 1548 1547
f 1547 1548 1538

