# https://github.com/mikedh/trimesh

o m11.off
v 0.51031700 0.35856400 0.07745900
v 0.51050700 0.36806400 0.08076500
v 0.50330600 0.36893800 0.08410900
v 0.50305900 0.35586600 0.07953000
v 0.49601000 0.35548600 0.06744600
v 0.49563000 0.35698700 0.07875100
v 0.49348300 0.35788000 0.07808600
v 0.49378700 0.35641700 0.06788300
v 0.51062100 0.37406800 0.06718000
v 0.51041200 0.36339000 0.06277200
v 0.50319200 0.36249700 0.05931400
v 0.50345800 0.37722200 0.06537500
v 0.49585800 0.36876700 0.08285500
v 0.49602900 0.37674700 0.07573000
v 0.49599100 0.37621500 0.06602100
v 0.49378700 0.37518900 0.06649600
v 0.49382500 0.37589200 0.07540700
v 0.51407900 0.36595500 0.07193000
v 0.51062100 0.35736700 0.06833900
v 0.49574400 0.36293400 0.06054900
v 0.50351500 0.37783000 0.07616700
v 0.49357800 0.36339000 0.06163200
v 0.49369200 0.36928000 0.06406400
v 0.50347700 0.35419400 0.06697100
v 0.46181000 0.37809600 0.06537500
v 0.46179100 0.37872300 0.07616700
v 0.46922000 0.37731700 0.07573000
v 0.46923900 0.37678500 0.06602100
v 0.45071400 0.36730400 0.07193000
v 0.45438100 0.36926100 0.08076500
v 0.45451400 0.37572100 0.07500800
v 0.46160100 0.36983100 0.08409000
v 0.46904900 0.36933700 0.08285500
v 0.46146800 0.36339000 0.05929500
v 0.46891600 0.36350400 0.06054900
v 0.45415300 0.35976100 0.07744000
v 0.47110100 0.36386500 0.06163200
v 0.47138600 0.37566400 0.06647700
v 0.47125300 0.36977400 0.06404500
v 0.46082200 0.35510600 0.06697100
v 0.46834600 0.35607500 0.06744600
v 0.45381100 0.35856400 0.06833900
v 0.47138600 0.37636700 0.07540700
v 0.46129700 0.35675900 0.07951100
v 0.46878300 0.35755700 0.07875100
v 0.45428600 0.36458700 0.06277200
v 0.47121500 0.36901400 0.08184800
v 0.51064000 0.37452400 0.07500800
v 0.45453300 0.37526500 0.06718000
v 0.47094900 0.35835500 0.07808600
v 0.47058800 0.35691100 0.06786400
v 0.49367300 0.36852000 0.08186700
v 0.70725200 0.07343100 0.06704700
v 0.68697900 0.05334800 0.06704700
v 0.68697900 0.05334800 0.06315200
v 0.70725200 0.07343100 0.06315200
v 0.81416500 0.18294700 0.06704700
v 0.78817300 0.14540300 0.06704700
v 0.78817300 0.14540300 0.06315200
v 0.81416500 0.18294700 0.06315200
v 0.73050800 0.08680700 0.06704700
v 0.73050800 0.08680700 0.06315200
v 0.76273200 0.11922100 0.06704700
v 0.76273200 0.11922100 0.06315200
v 0.74941300 0.11179200 0.06704700
v 0.74941300 0.11179200 0.06315200
v 0.48643400 0.30703600 0.06704700
v 0.48024000 0.22546900 0.06704700
v 0.49927800 0.18011600 0.06704700
v 0.51210300 0.34898800 0.06704700
v 0.67071500 0.05093500 0.06704700
v 0.57233300 0.39456900 0.06704700
v 0.53898800 0.37192100 0.06704700
v 0.50898700 0.14737900 0.06704700
v 0.56002100 0.03197300 0.06704700
v 0.57761500 0.02788800 0.06704700
v 0.59222600 0.03045300 0.06704700
v 0.61350600 0.03584900 0.06704700
v 0.65741500 0.04350600 0.06704700
v 0.64928300 0.04223300 0.06704700
v 0.59861000 0.02849600 0.06704700
v 0.60659000 0.02652000 0.06704700
v 0.63286700 0.03659000 0.06704700
v 0.81042200 0.20734300 0.06704700
v 0.79125100 0.24536200 0.06704700
v 0.90671400 0.26251900 0.06704700
v 0.94931200 0.27663600 0.06704700
v 0.97500000 0.30770100 0.06704700
v 0.92865900 0.35183800 0.06704700
v 0.90496600 0.36268700 0.06704700
v 0.87908800 0.25898500 0.06704700
v 0.82180300 0.24232200 0.06704700
v 0.85260200 0.24568500 0.06704700
v 0.74149000 0.45595800 0.06704700
v 0.71289500 0.46538200 0.06704700
v 0.68684600 0.46013800 0.06704700
v 0.64069500 0.43975100 0.06704700
v 0.60577300 0.41877500 0.06704700
v 0.67071500 0.05093500 0.06315200
v 0.64928300 0.04223300 0.06315200
v 0.63286700 0.03659000 0.06315200
v 0.61350600 0.03584900 0.06315200
v 0.65741500 0.04350600 0.06315200
v 0.48024000 0.22546900 0.06315200
v 0.48643400 0.30703600 0.06315200
v 0.51210300 0.34898800 0.06315200
v 0.49927800 0.18011600 0.06315200
v 0.60659000 0.02652000 0.06315200
v 0.59861000 0.02849600 0.06315200
v 0.59222600 0.03045300 0.06315200
v 0.60577300 0.41877500 0.06315200
v 0.64069500 0.43975100 0.06315200
v 0.68684600 0.46013800 0.06315200
v 0.71289500 0.46538200 0.06315200
v 0.74149000 0.45595800 0.06315200
v 0.90496600 0.36268700 0.06315200
v 0.87908800 0.25898500 0.06315200
v 0.85260200 0.24568500 0.06315200
v 0.82180300 0.24232200 0.06315200
v 0.79125100 0.24536200 0.06315200
v 0.57233300 0.39456900 0.06315200
v 0.57761500 0.02788800 0.06315200
v 0.56002100 0.03197300 0.06315200
v 0.50898700 0.14737900 0.06315200
v 0.53898800 0.37192100 0.06315200
v 0.92865900 0.35183800 0.06315200
v 0.97500000 0.30770100 0.06315200
v 0.94931200 0.27663600 0.06315200
v 0.90671400 0.26251900 0.06315200
v 0.81042200 0.20734300 0.06315200
v 0.20992700 0.06949800 0.06704700
v 0.20901500 0.08403300 0.06704700
v 0.20901500 0.08403300 0.06315200
v 0.20992700 0.06949800 0.06315200
v 0.02500000 0.45915000 0.06704700
v 0.03051000 0.47345700 0.06704700
v 0.03051000 0.47345700 0.06315200
v 0.02500000 0.45915000 0.06315200
v 0.48119000 0.32444000 0.06315200
v 0.48119000 0.32444000 0.06704700
v 0.49346400 0.21659600 0.06704700
v 0.49346400 0.21659600 0.06315200
v 0.19296000 0.15425700 0.06704700
v 0.18228200 0.16765200 0.06704700
v 0.18228200 0.16765200 0.06315200
v 0.19296000 0.15425700 0.06315200
v 0.20451200 0.09072100 0.06704700
v 0.20451200 0.09072100 0.06315200
v 0.20738100 0.11804300 0.06704700
v 0.20738100 0.11804300 0.06315200
v 0.26255700 0.49958200 0.06704700
v 0.25305700 0.50326800 0.06704700
v 0.05025100 0.41277100 0.06704700
v 0.06469100 0.37657600 0.06704700
v 0.07048600 0.36339000 0.06704700
v 0.28906200 0.27559100 0.06704700
v 0.44602100 0.35212300 0.06704700
v 0.20137700 0.12798000 0.06704700
v 0.39151000 0.05283500 0.06704700
v 0.46542000 0.18171200 0.06704700
v 0.04367700 0.47925200 0.06704700
v 0.02914200 0.44446300 0.06704700
v 0.04439900 0.42595700 0.06704700
v 0.23229000 0.50750500 0.06704700
v 0.25731300 0.04787600 0.06704700
v 0.28771300 0.04160600 0.06704700
v 0.32949400 0.03797700 0.06704700
v 0.27422300 0.26821900 0.06704700
v 0.44944100 0.15019100 0.06704700
v 0.05589400 0.39637400 0.06704700
v 0.17342800 0.21973100 0.06704700
v 0.17447300 0.20673500 0.06704700
v 0.17996400 0.18714600 0.06704700
v 0.40182700 0.06524200 0.06704700
v 0.41387300 0.08082200 0.06704700
v 0.43300600 0.11061400 0.06704700
v 0.19415700 0.14612500 0.06704700
v 0.19987600 0.12970900 0.06704700
v 0.07257600 0.33908900 0.06704700
v 0.09965100 0.29746000 0.06704700
v 0.13599800 0.28117700 0.06704700
v 0.16985600 0.27958100 0.06704700
v 0.25142300 0.26447600 0.06704700
v 0.22364500 0.25771200 0.06704700
v 0.20724800 0.25201200 0.06704700
v 0.18917900 0.24479200 0.06704700
v 0.17093900 0.23434200 0.06704700
v 0.36599300 0.02500000 0.06704700
v 0.37944500 0.03562100 0.06704700
v 0.05589400 0.39637400 0.06315200
v 0.05025100 0.41277100 0.06315200
v 0.06469100 0.37657600 0.06315200
v 0.25305700 0.50326800 0.06315200
v 0.04439900 0.42595700 0.06315200
v 0.23229000 0.50750500 0.06315200
v 0.44944100 0.15019100 0.06315200
v 0.43300600 0.11061400 0.06315200
v 0.41387300 0.08082200 0.06315200
v 0.40182700 0.06524200 0.06315200
v 0.39151000 0.05283500 0.06315200
v 0.17996400 0.18714600 0.06315200
v 0.17447300 0.20673500 0.06315200
v 0.17342800 0.21973100 0.06315200
v 0.27422300 0.26821900 0.06315200
v 0.16985600 0.27958100 0.06315200
v 0.13599800 0.28117700 0.06315200
v 0.09965100 0.29746000 0.06315200
v 0.07257600 0.33908900 0.06315200
v 0.07048600 0.36339000 0.06315200
v 0.28906200 0.27559100 0.06315200
v 0.20137700 0.12798000 0.06315200
v 0.02914200 0.44446300 0.06315200
v 0.04367700 0.47925200 0.06315200
v 0.17093900 0.23434200 0.06315200
v 0.18917900 0.24479200 0.06315200
v 0.20724800 0.25201200 0.06315200
v 0.22364500 0.25771200 0.06315200
v 0.25142300 0.26447600 0.06315200
v 0.46542000 0.18171200 0.06315200
v 0.44602100 0.35212300 0.06315200
v 0.26255700 0.49958200 0.06315200
v 0.19987600 0.12970900 0.06315200
v 0.19415700 0.14612500 0.06315200
v 0.28771300 0.04160600 0.06315200
v 0.32949400 0.03797700 0.06315200
v 0.25731300 0.04787600 0.06315200
v 0.36599300 0.02500000 0.06315200
v 0.37944500 0.03562100 0.06315200
v 0.44811100 0.29440100 0.05629300
v 0.44871900 0.32172300 0.05579900
v 0.46093600 0.32882900 0.04842700
v 0.46004300 0.28892900 0.04914900
v 0.46135400 0.34769600 0.07571100
v 0.47832100 0.10882800 0.05340500
v 0.46471700 0.12169100 0.05887700
v 0.46515400 0.14948800 0.05937100
v 0.47853000 0.14416800 0.05450700
v 0.46304500 0.24834500 0.07058100
v 0.44786400 0.28328600 0.07443800
v 0.46308300 0.24990300 0.06163200
v 0.44792100 0.28617400 0.08139200
v 0.45968200 0.27270300 0.07563500
v 0.45977700 0.27692100 0.08578100
v 0.46745300 0.23177700 0.07137900
v 0.46754800 0.23206200 0.06087200
v 0.46635100 0.19077500 0.06013100
v 0.46616100 0.19145900 0.07215800
v 0.47809300 0.36435900 0.07829500
v 0.47830200 0.37456200 0.08504000
v 0.47647800 0.28712400 0.04168200
v 0.47566100 0.24940900 0.05853500
v 0.48620600 0.22828100 0.07688900
v 0.47904300 0.22854700 0.07688900
v 0.47877700 0.18579700 0.07839000
v 0.48597800 0.18553100 0.07840900
v 0.49844200 0.18959700 0.06013100
v 0.48599700 0.18676600 0.05585600
v 0.48622500 0.22964900 0.05718600
v 0.49770100 0.23096000 0.06087200
v 0.47604100 0.26647100 0.07939700
v 0.47626900 0.27737700 0.08804200
v 0.46462200 0.10721300 0.07466600
v 0.46462200 0.10784000 0.06292400
v 0.47822600 0.09246900 0.06383600
v 0.47822600 0.09172800 0.07909300
v 0.46486900 0.15114100 0.07295600
v 0.47754200 0.33793000 0.04063700
v 0.47778900 0.34993800 0.08211400
v 0.49918300 0.14823400 0.05937100
v 0.48575000 0.14390200 0.05450700
v 0.47853000 0.14304700 0.07991000
v 0.48573100 0.14278100 0.07991000
v 0.47854900 0.38679800 0.07715500
v 0.47851100 0.38508800 0.06794000
v 0.47830200 0.37441000 0.06195500
v 0.47480600 0.37266200 0.06332300
v 0.49863200 0.19026200 0.07217700
v 0.49946800 0.14986800 0.07295600
v 0.46122100 0.37927400 0.05072600
v 0.45989100 0.37650000 0.04818000
v 0.47471100 0.36910900 0.06170800
v 0.34792400 0.50786600 0.02849600
v 0.34712600 0.50632700 0.02703300
v 0.34748700 0.50495900 0.02724200
v 0.34870300 0.50731500 0.02948400
v 0.47562300 0.24760400 0.07538800
v 0.48417300 0.24743300 0.07538800
v 0.48455300 0.26628100 0.07939700
v 0.53220500 0.41349300 0.03070000
v 0.53391500 0.41039600 0.02718500
v 0.52245800 0.39593700 0.03290400
v 0.52097600 0.39912900 0.03640000
v 0.50226100 0.32795500 0.04842700
v 0.51396500 0.31260300 0.08863100
v 0.51440200 0.33325600 0.07449500
v 0.50262200 0.34680300 0.07571100
v 0.50199500 0.31665000 0.09634500
v 0.52487100 0.39398000 0.03546900
v 0.52378800 0.39679200 0.03805300
v 0.50412300 0.37834300 0.05072600
v 0.50532000 0.37553100 0.04819900
v 0.47830200 0.10584500 0.08631300
v 0.48546500 0.09146200 0.07909300
v 0.48554100 0.10557900 0.08631300
v 0.48702300 0.38662700 0.07715500
v 0.48698500 0.38491700 0.06794000
v 0.44366500 0.39760900 0.03290400
v 0.44528000 0.40074400 0.03640000
v 0.46504000 0.38069900 0.04949100
v 0.46342500 0.37758300 0.04599500
v 0.46068900 0.31754300 0.09634500
v 0.47718100 0.32136200 0.10094300
v 0.43467800 0.41558300 0.03068100
v 0.43158100 0.41351200 0.03231500
v 0.44235400 0.39852100 0.03803400
v 0.47822600 0.37017300 0.05950400
v 0.48677600 0.37422000 0.06195500
v 0.48670000 0.37000200 0.05952300
v 0.59887600 0.50174800 0.02819200
v 0.59733700 0.50288800 0.02733700
v 0.59579800 0.50300200 0.02779300
v 0.59815400 0.50129200 0.02906600
v 0.50036100 0.37995800 0.04951000
v 0.49025300 0.37233900 0.06332300
v 0.50144400 0.28805500 0.04914900
v 0.51358500 0.29299500 0.05631200
v 0.49673200 0.24918100 0.06163200
v 0.53648000 0.40855300 0.02976900
v 0.53518800 0.41130800 0.03233400
v 0.48548400 0.09220300 0.06383600
v 0.35140100 0.50912000 0.02805900
v 0.34862700 0.50731500 0.02557000
v 0.34969100 0.50904400 0.02756500
v 0.34978600 0.50646000 0.02500000
v 0.48567400 0.32119100 0.10096200
v 0.48626300 0.34976700 0.08211400
v 0.50184300 0.37676600 0.04599500
v 0.51333800 0.28188000 0.07445700
v 0.49669400 0.24764200 0.07058100
v 0.51413600 0.32033600 0.05581800
v 0.48658600 0.36418800 0.07829500
v 0.48677600 0.37439100 0.08504000
v 0.44115700 0.39574700 0.03546900
v 0.43019400 0.41081400 0.02975000
v 0.43281600 0.41254300 0.02718500
v 0.48605400 0.33774000 0.04063700
v 0.48500900 0.28695300 0.04168200
v 0.59823000 0.50127300 0.02553200
v 0.59954100 0.50032300 0.02686200
v 0.59916100 0.49910700 0.02705200
v 0.59716600 0.50055100 0.02503800
v 0.49019600 0.36876700 0.06170800
v 0.49931600 0.12041800 0.05887700
v 0.48556000 0.10856200 0.05340500
v 0.48421100 0.24921900 0.05853500
v 0.49924000 0.10656700 0.06292400
v 0.49929700 0.11810000 0.08023300
v 0.49924000 0.10592100 0.07466600
v 0.49779600 0.23065600 0.07137900
v 0.50117800 0.27604700 0.08580000
v 0.48478100 0.27718700 0.08804200
v 0.50108300 0.27181000 0.07565400
v 0.51339500 0.28478700 0.08141100
v 0.46469800 0.11937300 0.08021400
v 0.47904300 0.22991500 0.05718600
v 0.47879600 0.18703200 0.05585600
v 0.44854800 0.31399000 0.08861200
v 0.44900400 0.33464300 0.07449500
f 1 2 3
f 5 6 7
f 9 10 11
f 4 3 13
f 14 15 16
f 18 1 19
f 12 11 20
f 21 12 15
f 18 2 1
f 15 20 22
f 24 4 6
f 25 26 27
f 29 30 31
f 26 32 33
f 34 25 28
f 29 36 30
f 37 35 28
f 40 34 35
f 29 42 36
f 28 27 43
f 44 40 41
f 29 46 42
f 27 33 47
f 18 9 48
f 29 31 49
f 32 44 45
f 29 49 46
f 33 45 50
f 42 46 34
f 46 49 25
f 45 41 51
f 36 42 40
f 49 31 26
f 41 35 37
f 30 36 44
f 31 30 32
f 18 10 9
f 6 13 52
f 19 1 4
f 2 48 21
f 20 5 8
f 48 9 12
f 10 19 24
f 13 14 17
f 18 19 10
f 11 24 5
f 3 21 14
f 18 48 2
f 53 54 55
f 57 58 59
f 61 53 56
f 58 63 64
f 63 65 66
f 65 61 62
f 67 68 69
f 54 53 71
f 53 61 65
f 79 71 80
f 81 82 78
f 83 80 71
f 65 63 58
f 86 87 88
f 92 93 91
f 99 100 101
f 103 100 99
f 104 105 106
f 108 109 110
f 111 112 113
f 110 122 123
f 126 127 128
f 130 60 59
f 55 99 56
f 94 90 116
f 72 98 111
f 75 74 124
f 90 89 126
f 73 72 121
f 95 94 115
f 98 97 112
f 74 69 107
f 105 67 70
f 68 104 107
f 97 96 113
f 96 95 114
f 89 88 127
f 70 73 125
f 104 68 67
f 54 71 99
f 71 79 103
f 83 78 102
f 80 83 101
f 79 80 100
f 91 93 118
f 86 91 117
f 87 86 129
f 93 92 119
f 92 85 120
f 82 81 109
f 76 75 123
f 77 76 122
f 81 77 110
f 78 82 108
f 88 87 128
f 84 57 60
f 85 84 130
f 131 132 133
f 135 136 137
f 139 140 141
f 143 144 145
f 132 147 148
f 147 149 150
f 151 152 153
f 143 158 149
f 141 140 157
f 161 136 135
f 149 132 131
f 168 169 160
f 170 154 153
f 147 132 149
f 171 172 173
f 177 178 158
f 179 180 181
f 183 184 185
f 164 163 153
f 173 144 143
f 188 189 159
f 190 191 192
f 193 191 194
f 196 197 198
f 205 206 207
f 211 146 200
f 212 138 137
f 214 215 216
f 139 142 219
f 209 192 191
f 145 201 200
f 219 196 204
f 222 223 146
f 179 155 209
f 153 163 194
f 162 135 138
f 155 154 192
f 170 153 191
f 180 179 208
f 163 162 212
f 154 170 190
f 182 181 206
f 181 180 207
f 156 182 205
f 183 168 204
f 186 185 216
f 168 156 210
f 184 183 218
f 187 186 215
f 185 184 217
f 149 158 211
f 177 143 146
f 158 178 222
f 178 177 223
f 167 166 224
f 165 131 134
f 188 167 225
f 166 165 226
f 169 176 197
f 159 189 228
f 174 159 200
f 176 175 198
f 160 169 196
f 142 141 160
f 189 188 227
f 175 174 199
f 164 152 193
f 140 139 220
f 152 151 221
f 161 164 195
f 151 157 220
f 136 161 213
f 148 150 133
f 228 227 225
f 225 224 226
f 172 171 203
f 173 172 202
f 171 187 214
f 144 173 201
f 229 230 231
f 233 50 51
f 231 233 51
f 234 235 236
f 238 239 229
f 241 239 242
f 232 240 229
f 244 245 246
f 47 248 249
f 240 232 250
f 252 253 254
f 256 257 258
f 243 260 261
f 262 263 264
f 247 246 236
f 253 244 247
f 232 231 267
f 50 233 268
f 257 256 269
f 255 254 271
f 38 43 273
f 43 47 249
f 274 275 276
f 277 255 272
f 279 280 281
f 282 283 284
f 260 286 287
f 289 290 291
f 293 22 8
f 294 295 296
f 298 299 300
f 302 265 303
f 274 273 305
f 307 308 309
f 311 243 261
f 313 314 315
f 316 275 317
f 319 320 321
f 300 323 317
f 325 326 327
f 8 296 293
f 328 329 299
f 265 264 330
f 331 285 314
f 39 38 276
f 310 309 275
f 332 333 331
f 268 312 335
f 291 298 301
f 338 339 327
f 340 326 325
f 292 291 337
f 248 268 336
f 249 248 341
f 315 343 280
f 244 253 286
f 344 345 307
f 250 267 346
f 348 349 350
f 337 301 352
f 353 354 270
f 22 352 324
f 351 350 328
f 234 237 270
f 284 334 345
f 281 37 39
f 259 258 355
f 356 330 354
f 357 358 356
f 358 357 304
f 293 325 347
f 52 17 305
f 356 358 303
f 354 353 356
f 52 342 341
f 252 359 339
f 317 306 16
f 7 341 336
f 357 278 272
f 355 347 325
f 341 7 52
f 360 361 288
f 359 259 327
f 296 7 336
f 339 362 288
f 352 22 293
f 297 296 336
f 288 362 360
f 17 16 306
f 360 297 335
f 308 315 279
f 273 249 342
f 271 302 304
f 299 292 323
f 338 363 360
f 363 294 297
f 329 289 292
f 261 260 288
f 333 282 285
f 309 279 276
f 364 262 265
f 334 331 313
f 258 365 251
f 350 322 329
f 349 348 320
f 326 340 295
f 23 324 16
f 322 321 289
f 251 250 347
f 314 344 343
f 266 364 302
f 343 307 310
f 275 274 306
f 320 348 351
f 323 337 318
f 295 340 293
f 362 339 338
f 290 328 298
f 253 252 287
f 283 332 334
f 280 310 316
f 332 283 282
f 285 284 344
f 264 234 354
f 321 351 290
f 335 312 261
f 296 8 7
f 301 300 324
f 349 319 322
f 267 316 318
f 345 313 308
f 242 238 286
f 366 257 270
f 233 311 312
f 263 235 234
f 246 366 237
f 259 359 277
f 263 234 264
f 47 50 248
f 245 365 366
f 254 247 266
f 245 244 238
f 235 263 262
f 231 37 281
f 256 277 278
f 365 258 257
f 243 242 260
f 240 251 365
f 359 252 255
f 242 239 238
f 367 368 230
f 367 241 243
f 368 367 311
f 230 368 233
f 37 231 51
f 1 3 4
f 5 7 8
f 9 11 12
f 4 13 6
f 14 16 17
f 12 20 15
f 21 15 14
f 15 22 23
f 15 23 16
f 24 6 5
f 25 27 28
f 26 33 27
f 34 28 35
f 37 28 38
f 37 38 39
f 40 35 41
f 28 43 38
f 44 41 45
f 27 47 43
f 32 45 33
f 33 50 47
f 42 34 40
f 46 25 34
f 45 51 50
f 36 40 44
f 49 26 25
f 41 37 51
f 30 44 32
f 31 32 26
f 6 52 7
f 19 4 24
f 2 21 3
f 20 8 22
f 48 12 21
f 10 24 11
f 13 17 52
f 11 5 20
f 3 14 13
f 53 55 56
f 57 59 60
f 61 56 62
f 58 64 59
f 63 66 64
f 65 62 66
f 67 69 70
f 53 65 72
f 53 72 73
f 53 73 70
f 53 70 69
f 53 69 74
f 53 74 75
f 53 75 76
f 53 76 77
f 53 77 78
f 81 78 77
f 83 71 53
f 83 53 78
f 65 58 57
f 65 57 84
f 65 84 85
f 65 85 72
f 86 88 89
f 86 89 90
f 86 90 91
f 92 91 90
f 92 90 94
f 92 94 95
f 92 95 96
f 92 96 97
f 92 97 98
f 92 98 72
f 92 72 85
f 99 101 102
f 99 102 56
f 104 106 107
f 108 110 102
f 111 113 114
f 111 114 115
f 111 115 116
f 111 116 117
f 111 117 118
f 111 118 119
f 111 119 120
f 111 120 121
f 110 123 124
f 110 124 107
f 110 107 106
f 110 106 125
f 110 125 121
f 110 121 66
f 110 66 62
f 110 62 56
f 110 56 102
f 126 128 129
f 126 129 117
f 126 117 116
f 130 59 64
f 130 64 66
f 130 66 121
f 130 121 120
f 94 116 115
f 72 111 121
f 75 124 123
f 90 126 116
f 73 121 125
f 95 115 114
f 98 112 111
f 74 107 124
f 105 70 106
f 68 107 69
f 97 113 112
f 96 114 113
f 89 127 126
f 70 125 106
f 104 67 105
f 54 99 55
f 71 103 99
f 83 102 101
f 80 101 100
f 79 100 103
f 91 118 117
f 86 117 129
f 87 129 128
f 93 119 118
f 92 120 119
f 82 109 108
f 76 123 122
f 77 122 110
f 81 110 109
f 78 108 102
f 88 128 127
f 84 60 130
f 85 130 120
f 131 133 134
f 135 137 138
f 139 141 142
f 143 145 146
f 132 148 133
f 147 150 148
f 151 153 154
f 151 154 155
f 151 155 156
f 151 156 157
f 143 149 159
f 141 157 160
f 161 135 162
f 161 162 163
f 161 163 164
f 149 131 165
f 149 165 166
f 149 166 167
f 149 167 159
f 168 160 157
f 168 157 156
f 171 173 159
f 171 159 174
f 171 174 175
f 171 175 176
f 171 176 169
f 171 169 168
f 177 158 143
f 179 181 182
f 179 182 156
f 179 156 155
f 183 185 186
f 183 186 187
f 183 187 171
f 183 171 168
f 164 153 152
f 173 143 159
f 188 159 167
f 193 194 195
f 196 198 199
f 196 199 200
f 196 200 201
f 196 201 202
f 196 202 203
f 196 203 204
f 205 207 208
f 205 208 209
f 205 209 210
f 211 200 150
f 212 137 213
f 212 213 195
f 212 195 194
f 214 216 217
f 214 217 218
f 214 218 204
f 214 204 203
f 139 219 220
f 209 191 193
f 209 193 221
f 209 221 220
f 209 220 210
f 145 200 146
f 219 204 210
f 219 210 220
f 222 146 211
f 179 209 208
f 153 194 191
f 162 138 212
f 155 192 209
f 170 191 190
f 180 208 207
f 163 212 194
f 154 190 192
f 182 206 205
f 181 207 206
f 156 205 210
f 183 204 218
f 186 216 215
f 168 210 204
f 184 218 217
f 187 215 214
f 185 217 216
f 149 211 150
f 177 146 223
f 158 222 211
f 178 223 222
f 167 224 225
f 165 134 226
f 188 225 227
f 166 226 224
f 169 197 196
f 159 228 200
f 174 200 199
f 176 198 197
f 160 196 219
f 142 160 219
f 189 227 228
f 175 199 198
f 164 193 195
f 140 220 157
f 152 221 193
f 161 195 213
f 151 220 221
f 136 213 137
f 228 225 200
f 225 226 134
f 225 134 133
f 225 133 150
f 225 150 200
f 172 203 202
f 173 202 201
f 171 214 203
f 144 201 145
f 229 231 232
f 234 236 237
f 238 229 240
f 241 242 243
f 244 246 247
f 240 250 251
f 252 254 255
f 256 258 259
f 262 264 265
f 247 236 266
f 253 247 254
f 232 267 250
f 50 268 248
f 257 269 270
f 255 271 272
f 38 273 274
f 43 249 273
f 274 276 38
f 277 272 278
f 279 281 276
f 282 284 285
f 260 287 288
f 289 291 292
f 294 296 297
f 298 300 301
f 302 303 304
f 274 305 306
f 307 309 310
f 311 261 312
f 313 315 308
f 316 317 318
f 319 321 322
f 300 317 324
f 328 299 298
f 265 330 303
f 331 314 313
f 310 275 316
f 332 331 334
f 268 335 336
f 291 301 337
f 338 327 326
f 340 325 293
f 292 337 323
f 248 336 341
f 249 341 342
f 315 280 279
f 244 286 238
f 344 307 343
f 250 346 347
f 348 350 351
f 337 352 318
f 353 270 269
f 22 324 23
f 351 328 290
f 234 270 354
f 284 345 344
f 281 39 276
f 259 355 327
f 357 356 353
f 357 353 269
f 357 269 278
f 358 304 303
f 293 347 346
f 52 305 342
f 356 303 330
f 252 339 287
f 317 16 324
f 357 272 304
f 355 325 327
f 359 327 339
f 339 288 287
f 352 293 346
f 352 346 318
f 297 336 335
f 17 306 305
f 360 335 361
f 308 279 309
f 273 342 305
f 271 304 272
f 299 323 300
f 338 360 362
f 363 297 360
f 329 292 299
f 261 288 361
f 333 285 331
f 309 276 275
f 364 265 302
f 334 313 345
f 258 251 355
f 350 329 328
f 349 320 319
f 326 295 294
f 326 294 363
f 326 363 338
f 322 289 329
f 251 347 355
f 314 343 315
f 266 302 271
f 343 310 280
f 275 306 317
f 320 351 321
f 323 318 317
f 295 293 296
f 290 298 291
f 253 287 286
f 283 334 284
f 280 316 281
f 332 282 333
f 285 344 314
f 264 354 330
f 321 290 289
f 335 261 361
f 301 324 352
f 349 322 350
f 267 318 346
f 345 308 307
f 242 286 260
f 366 270 237
f 233 312 268
f 246 237 236
f 259 277 256
f 245 366 246
f 254 266 271
f 245 238 240
f 235 262 364
f 235 364 266
f 235 266 236
f 231 281 316
f 231 316 267
f 256 278 269
f 365 257 366
f 240 365 245
f 359 255 277
f 367 230 229
f 367 229 239
f 367 239 241
f 367 243 311
f 368 311 233
f 230 233 231

