# https://github.com/mikedh/trimesh

o m48.off
v 0.24853100 0.12479000 0.88319300
v 0.29643000 0.09684880 0.86722700
v 0.29643000 0.15273100 0.86722700
v 0.35231200 0.14874000 0.81932700
v 0.35231200 0.08088240 0.81932700
v 0.29642900 0.02899170 0.81533600
v 0.24853000 0.05693290 0.85126100
v 0.24853000 0.03298330 0.82731100
v 0.34432800 0.02899170 0.77941100
v 0.38424400 0.05693280 0.77142800
v 0.42016900 0.08487390 0.74348700
v 0.38025300 0.03298320 0.73151200
v 0.39222800 0.14075600 0.77542000
v 0.36029500 0.19264700 0.75945300
v 0.44411800 0.14075600 0.71155400
v 0.31239600 0.22458000 0.74747900
v 0.33235400 0.19264700 0.80336100
v 0.29643000 0.19663900 0.84327700
v 0.28445500 0.22458000 0.79937000
v 0.24853100 0.19264700 0.85525200
v 0.25252200 0.22058800 0.82331900
v 0.26848900 0.23655500 0.82331900
v 0.28445500 0.25651300 0.83928600
v 0.40819300 0.03697480 0.63970500
v 0.42416000 0.06092430 0.71155400
v 0.45609300 0.08487390 0.66764600
v 0.44811000 0.06092430 0.64768800
v 0.47605100 0.13277300 0.62773000
v 0.45609300 0.19264700 0.61575600
v 0.48004200 0.16869700 0.54390700
v 0.48802500 0.14075600 0.53991500
v 0.47605100 0.09684870 0.59579800
v 0.41218500 0.20063000 0.68361300
v 0.38823600 0.24054600 0.62373900
v 0.28445400 0.28445400 0.52794100
v 0.37226900 0.27247900 0.47605000
v 0.28445400 0.28046200 0.46806700
v 0.32836100 0.27647100 0.44411700
v 0.36428500 0.26449600 0.42815100
v 0.40819300 0.23655500 0.42016800
v 0.43214300 0.22857100 0.46806700
v 0.41617700 0.24852900 0.53193200
v 0.36029400 0.27647100 0.55189000
v 0.44810900 0.21659700 0.51197400
v 0.28445300 0.26848700 0.41617600
v 0.36029400 0.25252100 0.38823500
v 0.28445300 0.24852900 0.36029400
v 0.28445300 0.22458000 0.30441200
v 0.34831900 0.21260500 0.30441200
v 0.38823500 0.23256300 0.37626000
v 0.26050400 0.28046200 0.44411800
v 0.26449500 0.26449600 0.39222700
v 0.26449500 0.24453800 0.34033600
v 0.26050400 0.28844500 0.50399200
v 0.26050400 0.28445400 0.56386600
v 0.28046300 0.28046200 0.59180700
v 0.25651300 0.26848800 0.61176500
v 0.27247900 0.26050400 0.64369700
v 0.29243700 0.25252100 0.65567200
v 0.33235300 0.25651300 0.63571400
v 0.38025200 0.25651300 0.59579800
v 0.40420200 0.25252100 0.55987300
v 0.48802500 0.14474800 0.47605000
v 0.44810900 0.19264700 0.40420100
v 0.42415900 0.21659700 0.40021000
v 0.40420100 0.21260500 0.36029400
v 0.38823400 0.17268900 0.28046200
v 0.44012500 0.13277300 0.32436900
v 0.47205800 0.13676500 0.40020900
v 0.34432700 0.18466400 0.26449600
v 0.34831800 0.16071400 0.22857100
v 0.28445300 0.18466400 0.24852900
v 0.28445300 0.16071400 0.20462200
v 0.28046100 0.14075600 0.16869700
v 0.36029300 0.11281500 0.16071400
v 0.38424200 0.12079800 0.22457900
v 0.26449500 0.20861400 0.27647100
v 0.26449500 0.17268900 0.22058800
v 0.26449500 0.15273100 0.18865600
v 0.42016700 0.08886550 0.28844500
v 0.40420100 0.12479000 0.26050400
v 0.39222600 0.09285710 0.24453700
v 0.37226800 0.09684880 0.20462200
v 0.35230900 0.10882400 0.14075600
v 0.33634300 0.08088240 0.16470600
v 0.34831800 0.07289920 0.20063000
v 0.36029300 0.06491600 0.22058800
v 0.38025100 0.05294120 0.26449500
v 0.28445200 0.12479000 0.12079800
v 0.26449400 0.13676500 0.14474800
v 0.26848600 0.12479000 0.09684880
v 0.33634300 0.04096640 0.24054600
v 0.32836000 0.05294120 0.21260500
v 0.32436900 0.02899170 0.24852900
v 0.34831800 0.02500010 0.27647000
v 0.31239400 0.04096650 0.22458000
v 0.31638500 0.06491600 0.18466400
v 0.29243600 0.04894970 0.19663900
v 0.29243600 0.03298330 0.23256300
v 0.26050300 0.03697490 0.22058800
v 0.26449400 0.05693290 0.18067200
v 0.29243500 0.06890770 0.15273100
v 0.32436800 0.08487400 0.11281500
v 0.26449400 0.08487410 0.10882400
v 0.26449400 0.06890770 0.15273100
v 0.34033500 0.10882400 0.11281500
v 0.32037600 0.10882400 0.06092430
v 0.30041800 0.09285720 0.05693270
v 0.29243500 0.11281500 0.02500000
v 0.26449400 0.10084000 0.02899170
v 0.28046000 0.12079800 0.08088240
v 0.26848600 0.12079800 0.06092450
v 0.28046000 0.11680700 0.04495800
v 0.26848500 0.12079800 0.02500010
v 0.30840400 0.23655500 0.68361300
v 0.33235400 0.26449600 0.75546200
v 0.33634500 0.27647100 0.73550400
v 0.33235400 0.29243700 0.71155400
v 0.30840400 0.28844500 0.67163800
v 0.48403300 0.10084000 0.49600800
v 0.48004200 0.09285700 0.44810800
v 0.46008300 0.08886550 0.37226800
v 0.44810900 0.05294110 0.40420100
v 0.41218400 0.02899160 0.43613400
v 0.46407500 0.06092430 0.46407500
v 0.41218500 0.03298320 0.50798300
v 0.40819300 0.03697480 0.59579800
v 0.46008400 0.06092430 0.54789800
v 0.38823400 0.02500000 0.35231100
v 0.36428500 0.02500000 0.30042000
v 0.41218400 0.05294120 0.32037800
v 0.42815000 0.05294110 0.35231000
v 0.40020900 0.02500000 0.37626000
v 0.25651300 0.26449600 0.64369800
v 0.27248000 0.27247900 0.64768900
v 0.28844600 0.29243700 0.65168100
v 0.27248000 0.30441200 0.64369700
v 0.25651300 0.28046200 0.64768900
v 0.30840400 0.31638700 0.65966400
v 0.31638700 0.30840300 0.67563000
v 0.31239600 0.34033600 0.66764700
v 0.29243800 0.35231100 0.65567200
v 0.29243800 0.32836100 0.64768900
v 0.27647100 0.33634500 0.64369700
v 0.27647100 0.38025200 0.65966400
v 0.26050500 0.35630300 0.63970600
v 0.25651300 0.32037800 0.63571400
v 0.32836200 0.35231100 0.70756300
v 0.33634500 0.31239500 0.70756300
v 0.34033700 0.32037800 0.72752100
v 0.32437100 0.36827700 0.71953800
v 0.31239600 0.37226900 0.68760500
v 0.34033700 0.30042000 0.75945300
v 0.33634600 0.28844500 0.79138600
v 0.33634600 0.30840300 0.77941100
v 0.33634600 0.33235300 0.76743700
v 0.29642900 0.38823500 0.67563000
v 0.31239600 0.38424400 0.70357100
v 0.29243800 0.40021000 0.68760500
v 0.27647100 0.40420200 0.67563000
v 0.33235400 0.36428600 0.75546200
v 0.32437100 0.35630300 0.77941100
v 0.31638800 0.38025200 0.78340300
v 0.32437100 0.38424400 0.74747900
v 0.32437100 0.24852900 0.78340300
v 0.29643000 0.24453800 0.81533600
v 0.31239600 0.26848700 0.82731100
v 0.32037900 0.30441200 0.83130200
v 0.29243800 0.28046200 0.86323500
v 0.30441300 0.34033600 0.83928600
v 0.31239600 0.34831900 0.82731100
v 0.33235400 0.32437000 0.79936900
v 0.31239600 0.35630300 0.81533600
v 0.26050500 0.41617700 0.68760500
v 0.27248000 0.42016800 0.69558800
v 0.28844600 0.41617700 0.70357100
v 0.27248000 0.43613500 0.71953800
v 0.26050500 0.43613500 0.71155500
v 0.29243800 0.43613400 0.73151200
v 0.31239600 0.42416000 0.75546200
v 0.31239600 0.40021000 0.72752100
v 0.31638800 0.39621900 0.75945400
v 0.31239600 0.41218500 0.79537800
v 0.29243800 0.44411800 0.77542000
v 0.29643000 0.44411800 0.75546200
v 0.26848800 0.44810900 0.73151300
v 0.26050500 0.45609300 0.74747900
v 0.27248000 0.45609300 0.75546200
v 0.27248000 0.45609300 0.77941200
v 0.25651400 0.45609300 0.78739500
v 0.26050500 0.40021000 0.66764700
v 0.31239600 0.37226900 0.81932800
v 0.30042100 0.39222700 0.83130200
v 0.30840500 0.38025200 0.83130200
v 0.31239600 0.36428600 0.83529400
v 0.30042200 0.34831900 0.84726900
v 0.29643000 0.36029400 0.84726900
v 0.30042200 0.37226900 0.84327700
v 0.28844700 0.38025200 0.85126000
v 0.28445500 0.36029400 0.85525200
v 0.29643000 0.41218500 0.83130200
v 0.27248000 0.42016800 0.84327700
v 0.27647200 0.44411800 0.81134400
v 0.29643000 0.43214300 0.80336100
v 0.26848900 0.39222700 0.86323500
v 0.26848900 0.36029400 0.86722700
v 0.25252200 0.35231100 0.87121900
v 0.25252200 0.39621900 0.86323500
v 0.25651400 0.42416000 0.84327700
v 0.25651400 0.44411800 0.81533600
v 0.29243800 0.33634500 0.85525200
v 0.27647200 0.30441200 0.87521000
v 0.26848900 0.33235300 0.87121800
v 0.28046400 0.26449600 0.91113400
v 0.28844700 0.26050400 0.88718500
v 0.28046400 0.28046200 0.89916000
v 0.25252200 0.33235300 0.87121900
v 0.25252200 0.31239500 0.88718500
v 0.26848900 0.31239500 0.88319300
v 0.26449700 0.29642900 0.89916000
v 0.28046400 0.24453800 0.90714300
v 0.25252200 0.24054600 0.84327700
v 0.24853100 0.23655500 0.89916000
v 0.24853100 0.23256300 0.93508400
v 0.27248100 0.24054600 0.93907600
v 0.27248100 0.25651300 0.94306700
v 0.24853100 0.24453800 0.97500000
v 0.26449700 0.24054600 0.96302500
v 0.26449700 0.24853000 0.96302500
v 0.24853100 0.23655500 0.95504200
v 0.24853100 0.28844600 0.91512600
v 0.27647200 0.27647100 0.91512600
v 0.26848900 0.26848700 0.94705900
v 0.24853100 0.27247900 0.94705900
v 0.26449700 0.25651300 0.96302500
v 0.24853100 0.26050400 0.96701700
v 0.20861500 0.36428600 0.84327700
v 0.20861500 0.35231100 0.84327700
v 0.22059000 0.36428600 0.85525200
v 0.21659800 0.41218500 0.83130300
v 0.20861500 0.39621900 0.83130300
v 0.21659800 0.38424400 0.84726900
v 0.23655600 0.29642900 0.89916000
v 0.23256500 0.25651300 0.96302500
v 0.23256500 0.24853000 0.96302500
v 0.22458100 0.25651300 0.93907600
v 0.22857300 0.26848800 0.94705900
v 0.22458100 0.27647100 0.91512600
v 0.22059000 0.26449600 0.91113500
v 0.22059000 0.28046200 0.89916000
v 0.22458100 0.30840300 0.87521000
v 0.23655600 0.24054600 0.82331900
v 0.21659800 0.25651300 0.83928600
v 0.23256500 0.24453800 0.95903400
v 0.22458100 0.24054600 0.93907600
v 0.22059000 0.24853000 0.90714300
v 0.21260600 0.26050400 0.88319300
v 0.23655600 0.33235300 0.87121900
v 0.23256400 0.31239500 0.88319300
v 0.20861500 0.28445400 0.85924400
v 0.19264800 0.26848800 0.82332000
v 0.23655600 0.36029400 0.86722700
v 0.21260600 0.33634500 0.85525200
v 0.20063200 0.34033600 0.83529400
v 0.23655600 0.42016800 0.84327700
v 0.23655600 0.39222700 0.85924400
v 0.23655600 0.44411800 0.81134500
v 0.24054700 0.45609300 0.77941200
v 0.22058900 0.44810900 0.77542000
v 0.21659800 0.43613500 0.80336100
v 0.20063100 0.41617700 0.79138700
v 0.20861500 0.37626100 0.83928600
v 0.20063200 0.38424400 0.82731100
v 0.19664000 0.37626100 0.81533600
v 0.19664000 0.36827700 0.83130300
v 0.19664000 0.34831900 0.82332000
v 0.19664000 0.36029400 0.81134500
v 0.18466500 0.36029400 0.77542000
v 0.19264800 0.38424400 0.77941200
v 0.19664000 0.40021000 0.75945400
v 0.24054700 0.38025200 0.65966400
v 0.24453900 0.40420200 0.67563000
v 0.18865600 0.38424400 0.74348800
v 0.20063100 0.40420200 0.72353000
v 0.20462300 0.38823500 0.69958000
v 0.18865600 0.37226900 0.71554600
v 0.20462300 0.37626100 0.68361400
v 0.22857200 0.41617700 0.69958000
v 0.22458100 0.40021000 0.68361400
v 0.24853000 0.44810900 0.73151300
v 0.24453900 0.44012600 0.71554600
v 0.22458100 0.44012600 0.73151300
v 0.24453900 0.45609300 0.75546200
v 0.22058900 0.44810900 0.75147100
v 0.20462300 0.42416000 0.75147100
v 0.24453900 0.42016800 0.69558800
v 0.17269000 0.34033600 0.76344600
v 0.17668200 0.32836200 0.79537800
v 0.17269000 0.31239500 0.77542000
v 0.17269000 0.29243700 0.78739500
v 0.18865700 0.30840400 0.82731100
v 0.20462300 0.24853000 0.81533600
v 0.21659800 0.22857200 0.79537800
v 0.22458000 0.35231100 0.65168100
v 0.20462300 0.34432800 0.66365600
v 0.17668200 0.26848800 0.74747900
v 0.19264800 0.22857200 0.74348800
v 0.18067300 0.25252100 0.77941200
v 0.18067300 0.36827700 0.75147100
v 0.17269000 0.32437000 0.72353000
v 0.22058900 0.39222700 0.67563000
v 0.17668100 0.31638700 0.70357200
v 0.17668100 0.29642900 0.70756300
v 0.17269000 0.28046200 0.73151300
v 0.16869800 0.30441200 0.75546300
v 0.19663900 0.30840400 0.67563100
v 0.20462200 0.29243700 0.66764700
v 0.18466500 0.35231100 0.70357200
v 0.24453800 0.30441200 0.64369800
v 0.24054700 0.34033600 0.64369800
v 0.22458000 0.32836100 0.64369800
v 0.22458000 0.29243700 0.65168100
v 0.24054700 0.26449600 0.63970600
v 0.20462200 0.31638700 0.65966400
v 0.22058900 0.25651300 0.65168100
v 0.24054700 0.27247900 0.64768900
v 0.07289970 0.06890790 0.70357200
v 0.12079900 0.04096670 0.72353000
v 0.11281600 0.06092470 0.76344600
v 0.07689150 0.09285750 0.73550500
v 0.04495840 0.09684910 0.65567300
v 0.02899180 0.10483200 0.58382400
v 0.05693310 0.06890790 0.63571500
v 0.06890700 0.06092470 0.39222800
v 0.06092370 0.10084100 0.36029500
v 0.08886480 0.06092470 0.34432800
v 0.11680600 0.03298350 0.36827800
v 0.10084000 0.03697510 0.42815200
v 0.12878100 0.03298350 0.34432800
v 0.15273000 0.02899180 0.29642900
v 0.14075500 0.06092460 0.26050500
v 0.17268800 0.02899180 0.27247900
v 0.10882300 0.06092470 0.31239600
v 0.10483100 0.09684900 0.28046300
v 0.08487320 0.14474800 0.31638700
v 0.04894910 0.14874000 0.38823600
v 0.09285720 0.04495830 0.58781600
v 0.09684900 0.04495830 0.63172300
v 0.04894950 0.07289950 0.53592500
v 0.04894920 0.07289950 0.45609300
v 0.09684850 0.04096670 0.50000100
v 0.02899140 0.10882400 0.48403500
v 0.03697440 0.10483200 0.43613500
v 0.02500000 0.15273100 0.52794200
v 0.02899140 0.15672300 0.46407700
v 0.20063100 0.24054600 0.67962200
v 0.14075700 0.20063000 0.75546300
v 0.12479000 0.24453800 0.61575700
v 0.18067300 0.26050400 0.63172300
v 0.24453600 0.11281500 0.02500020
v 0.24852800 0.14075600 0.16869800
v 0.25651100 0.11680700 0.04495810
v 0.21659500 0.11281500 0.06092460
v 0.24852800 0.12479000 0.12079800
v 0.25251900 0.12079800 0.08088250
v 0.18865400 0.11281500 0.10882400
v 0.18067100 0.11281500 0.13676500
v 0.23655300 0.09684890 0.05693300
v 0.27247700 0.10084000 0.02899170
v 0.20462000 0.08886570 0.10882400
v 0.19264600 0.08487420 0.16071500
v 0.23655300 0.06890770 0.15273100
v 0.21260400 0.06491610 0.18067300
v 0.23256200 0.04894970 0.19663900
v 0.23256200 0.03298340 0.23256300
v 0.17667900 0.07689100 0.19663900
v 0.19663700 0.05693300 0.21260500
v 0.16869600 0.06890780 0.21659700
v 0.21260400 0.04096660 0.22058800
v 0.19663700 0.03298340 0.24453800
v 0.18466300 0.04495820 0.23655500
v 0.13277200 0.10084100 0.23655500
v 0.15672100 0.10084100 0.20063100
v 0.14075500 0.12878200 0.22058900
v 0.17268800 0.11680700 0.15672300
v 0.12478900 0.13277300 0.25252200
v 0.13676400 0.17668100 0.27647100
v 0.24453700 0.16071400 0.20462200
v 0.24453700 0.18865600 0.24453800
v 0.24054500 0.22458000 0.30441200
v 0.24054600 0.24853000 0.36029400
v 0.24054600 0.26848800 0.41218500
v 0.18067100 0.21659700 0.30042100
v 0.18466300 0.18865600 0.26050500
v 0.18067100 0.16470600 0.22458000
v 0.12079800 0.21659700 0.35231100
v 0.13676400 0.23655500 0.36827800
v 0.10084000 0.22458000 0.39222800
v 0.11680600 0.24453800 0.41218500
v 0.08886540 0.23655500 0.46008500
v 0.07289870 0.20063100 0.39222800
v 0.06890750 0.22458000 0.50000100
v 0.03697480 0.18067300 0.53193400
v 0.05693310 0.20063100 0.60777400
v 0.13277300 0.26449600 0.58781600
v 0.16071400 0.28046200 0.54390800
v 0.11281500 0.26050400 0.55189100
v 0.10084000 0.25651300 0.52395000
v 0.23655500 0.28046200 0.59180700
v 0.23256300 0.28844600 0.52794100
v 0.24054600 0.28046200 0.46806700
v 0.16869700 0.25651300 0.38025200
v 0.16071400 0.26848800 0.42416000
v 0.19663800 0.28046200 0.44411800
v 0.14873900 0.27647100 0.47205900
v 0.09285770 0.20861400 0.67563100
v 0.06092500 0.15273100 0.70357200
v 0.02899190 0.14474800 0.61575700
v 0.20462300 0.19663900 0.83928600
v 0.20063100 0.15672300 0.86722700
v 0.16869800 0.19663900 0.79937000
v 0.14474900 0.15672300 0.81533700
v 0.10882400 0.14874000 0.77142900
v 0.14075700 0.08487420 0.81134500
v 0.14874000 0.03697500 0.77142900
v 0.19664000 0.02899180 0.81533600
v 0.19664000 0.10084100 0.86722700
f 3 2 1
f 4 2 3
f 2 4 5
f 2 5 6
f 2 6 7
f 2 7 1
f 7 6 8
f 5 9 6
f 11 10 5
f 10 12 9
f 5 10 9
f 13 11 5
f 4 13 5
f 14 13 4
f 13 14 15
f 13 15 11
f 17 16 14
f 17 14 4
f 3 17 4
f 18 17 3
f 19 17 18
f 17 19 16
f 20 18 3
f 1 20 3
f 21 19 18
f 20 21 18
f 19 21 22
f 23 19 22
f 25 24 12
f 26 25 11
f 25 26 27
f 25 27 24
f 15 26 11
f 15 28 26
f 29 28 15
f 28 29 30
f 28 30 31
f 28 31 32
f 28 32 26
f 33 29 15
f 14 33 15
f 34 33 14
f 33 34 29
f 37 36 35
f 36 37 38
f 36 38 39
f 36 39 40
f 36 40 41
f 36 41 42
f 43 36 42
f 35 36 43
f 42 41 44
f 45 38 37
f 38 45 39
f 45 46 39
f 47 46 45
f 46 47 48
f 46 48 49
f 46 49 50
f 46 50 40
f 39 46 40
f 37 51 45
f 52 45 51
f 52 53 47
f 54 51 37
f 54 37 35
f 54 35 55
f 55 35 56
f 55 56 57
f 57 56 58
f 58 56 59
f 59 56 60
f 60 56 43
f 35 43 56
f 60 43 61
f 60 61 34
f 62 43 42
f 62 42 44
f 62 44 34
f 61 62 34
f 43 62 61
f 34 44 29
f 29 44 30
f 30 44 63
f 30 63 31
f 44 64 63
f 41 64 44
f 65 64 41
f 64 65 66
f 64 66 67
f 64 67 68
f 64 68 69
f 64 69 63
f 40 65 41
f 40 50 65
f 65 50 66
f 50 49 66
f 66 49 70
f 66 70 67
f 70 71 67
f 72 71 70
f 73 71 72
f 71 73 74
f 71 74 75
f 71 75 76
f 71 76 67
f 72 70 49
f 48 72 49
f 45 52 47
f 47 53 48
f 77 48 53
f 77 72 48
f 77 78 72
f 72 78 73
f 79 73 78
f 79 74 73
f 68 81 80
f 67 81 68
f 76 81 67
f 81 76 82
f 81 82 80
f 81 82 76
f 75 83 76
f 83 75 84
f 83 84 85
f 83 85 86
f 83 86 87
f 88 83 87
f 75 89 84
f 74 89 75
f 90 89 74
f 91 89 90
f 76 83 82
f 82 83 88
f 80 82 88
f 87 92 88
f 92 87 93
f 92 93 94
f 95 92 94
f 88 92 95
f 93 96 94
f 96 93 97
f 96 97 98
f 96 98 99
f 94 96 99
f 86 93 87
f 86 97 93
f 86 85 97
f 99 98 100
f 100 98 101
f 98 102 101
f 97 102 98
f 85 102 97
f 103 102 85
f 102 103 104
f 102 104 105
f 102 105 101
f 84 103 85
f 106 103 84
f 106 107 103
f 103 108 104
f 107 108 103
f 109 108 107
f 108 109 110
f 108 110 104
f 89 106 84
f 112 111 91
f 111 112 113
f 111 113 107
f 111 107 106
f 89 111 106
f 91 111 89
f 113 109 107
f 114 109 113
f 112 114 113
f 79 90 74
f 110 109 114
f 115 59 60
f 115 60 34
f 115 34 14
f 16 115 14
f 116 115 16
f 117 115 116
f 118 115 117
f 119 115 118
f 115 119 59
f 63 121 120
f 69 121 63
f 121 69 122
f 121 122 123
f 31 120 32
f 31 63 120
f 125 123 124
f 125 124 126
f 121 125 120
f 125 121 123
f 128 126 127
f 27 128 127
f 32 128 27
f 120 128 32
f 128 120 125
f 128 125 126
f 27 127 24
f 68 122 69
f 68 80 122
f 131 130 129
f 132 131 129
f 122 131 132
f 80 131 122
f 131 80 88
f 131 88 130
f 130 88 95
f 132 129 133
f 123 133 124
f 123 132 133
f 122 132 123
f 32 27 26
f 11 25 10
f 10 25 12
f 135 134 58
f 135 58 59
f 136 135 59
f 137 135 136
f 135 137 138
f 135 138 134
f 136 59 119
f 139 136 119
f 140 139 119
f 141 139 140
f 142 139 141
f 139 142 143
f 139 143 136
f 134 57 58
f 143 137 136
f 143 144 137
f 142 144 143
f 145 144 142
f 146 144 145
f 144 146 147
f 144 147 137
f 137 147 138
f 148 141 140
f 148 140 149
f 150 148 149
f 151 148 150
f 152 148 151
f 148 152 141
f 140 119 118
f 118 149 140
f 153 150 117
f 153 117 116
f 153 116 154
f 155 153 154
f 156 153 155
f 150 153 156
f 150 118 117
f 149 118 150
f 157 142 152
f 158 157 152
f 159 157 158
f 160 157 159
f 157 160 145
f 157 145 142
f 161 151 150
f 161 150 156
f 162 161 156
f 163 161 162
f 164 161 163
f 161 164 151
f 165 16 19
f 166 165 19
f 167 165 166
f 154 165 167
f 116 165 154
f 165 116 16
f 152 142 141
f 166 19 23
f 23 167 166
f 168 154 167
f 168 167 169
f 170 168 169
f 171 168 170
f 168 171 172
f 168 172 154
f 172 155 154
f 172 156 155
f 173 172 171
f 173 162 172
f 162 156 172
f 175 174 160
f 175 160 176
f 177 175 176
f 178 175 177
f 174 175 178
f 180 179 176
f 180 176 181
f 180 181 182
f 183 180 182
f 184 180 183
f 185 180 184
f 180 185 179
f 188 187 186
f 188 186 179
f 188 179 185
f 188 185 184
f 189 188 184
f 190 188 189
f 187 188 190
f 186 177 179
f 177 176 179
f 186 178 177
f 178 186 187
f 176 160 159
f 181 159 158
f 181 176 159
f 158 152 151
f 158 151 164
f 181 158 164
f 182 181 164
f 182 164 163
f 191 145 160
f 191 160 174
f 191 146 145
f 183 182 163
f 192 183 163
f 192 163 162
f 192 162 173
f 183 192 193
f 195 194 192
f 195 192 173
f 195 173 171
f 195 171 170
f 196 195 170
f 197 195 196
f 198 195 197
f 194 195 198
f 193 192 194
f 193 194 198
f 199 193 198
f 199 198 197
f 199 197 200
f 201 183 193
f 203 201 202
f 201 203 204
f 201 204 183
f 205 201 199
f 205 199 200
f 205 200 206
f 207 205 206
f 208 205 207
f 209 205 208
f 204 184 183
f 184 204 203
f 189 184 203
f 190 189 203
f 210 190 203
f 210 203 209
f 209 203 202
f 209 202 205
f 205 202 201
f 211 200 196
f 211 196 170
f 211 170 169
f 212 211 169
f 213 211 212
f 200 211 213
f 206 200 213
f 207 206 213
f 167 23 169
f 169 215 214
f 215 169 23
f 216 169 214
f 216 212 169
f 217 207 213
f 217 213 218
f 219 213 212
f 219 212 220
f 218 219 220
f 213 219 218
f 215 221 214
f 221 215 23
f 221 23 222
f 221 222 223
f 221 223 224
f 225 221 224
f 226 221 225
f 214 221 226
f 229 228 227
f 226 228 229
f 228 226 225
f 228 225 224
f 228 224 230
f 228 230 227
f 23 22 222
f 222 22 21
f 232 231 220
f 232 220 212
f 232 212 216
f 232 216 214
f 232 214 226
f 233 232 226
f 234 232 233
f 231 232 234
f 235 234 233
f 235 233 226
f 235 226 229
f 227 235 229
f 236 235 227
f 234 235 236
f 218 220 231
f 199 201 193
f 197 196 200
f 239 238 237
f 242 241 240
f 243 218 231
f 244 234 236
f 244 236 227
f 227 245 244
f 245 246 244
f 244 246 247
f 244 247 234
f 248 231 234
f 234 247 248
f 247 246 248
f 246 249 248
f 249 250 248
f 250 251 248
f 248 251 243
f 248 243 231
f 222 21 252
f 222 252 253
f 227 230 254
f 230 224 254
f 254 224 255
f 254 255 246
f 254 246 245
f 254 245 227
f 256 249 246
f 246 255 256
f 255 224 256
f 224 223 256
f 223 222 256
f 222 253 256
f 256 253 257
f 256 257 249
f 259 258 218
f 259 218 243
f 243 251 259
f 251 258 259
f 258 217 218
f 217 258 207
f 250 260 251
f 249 260 250
f 257 253 260
f 257 260 249
f 253 261 260
f 207 258 262
f 239 262 258
f 263 239 258
f 263 258 251
f 251 260 263
f 260 264 263
f 263 264 238
f 263 238 239
f 266 240 265
f 266 265 209
f 265 267 209
f 209 267 210
f 210 267 190
f 268 190 267
f 269 268 267
f 270 269 267
f 270 271 269
f 266 209 208
f 266 208 207
f 207 262 266
f 262 239 266
f 239 242 266
f 242 240 266
f 240 271 270
f 240 270 267
f 240 267 265
f 241 271 240
f 239 237 242
f 237 272 242
f 272 241 242
f 273 241 272
f 273 274 241
f 275 273 272
f 275 272 237
f 237 238 275
f 238 264 275
f 264 276 275
f 276 277 275
f 275 277 274
f 275 274 273
f 274 271 241
f 277 278 274
f 274 278 279
f 274 279 271
f 271 279 280
f 281 146 191
f 282 191 174
f 282 281 191
f 279 283 280
f 280 283 284
f 285 284 283
f 286 285 283
f 286 287 285
f 284 289 288
f 284 285 289
f 289 282 288
f 290 178 187
f 290 291 178
f 292 288 291
f 292 291 290
f 293 187 190
f 190 268 293
f 268 269 293
f 269 294 293
f 294 292 293
f 293 292 290
f 293 290 187
f 295 292 294
f 295 294 269
f 295 269 271
f 271 280 295
f 280 284 295
f 284 288 295
f 295 288 292
f 296 174 178
f 296 178 291
f 291 288 296
f 288 282 296
f 296 282 174
f 298 297 278
f 277 298 278
f 298 277 276
f 299 297 298
f 298 300 299
f 301 300 298
f 301 298 276
f 301 276 264
f 301 264 260
f 260 261 301
f 261 300 301
f 253 302 261
f 253 303 302
f 305 304 287
f 308 307 306
f 308 306 300
f 308 300 261
f 261 302 308
f 302 303 308
f 303 307 308
f 309 286 283
f 309 283 279
f 279 278 309
f 278 297 309
f 297 310 309
f 310 286 309
f 311 304 281
f 311 281 282
f 311 282 289
f 311 289 285
f 285 287 311
f 287 304 311
f 313 312 310
f 314 313 310
f 315 310 297
f 315 297 299
f 315 299 300
f 300 306 315
f 306 314 315
f 314 310 315
f 313 316 312
f 313 317 316
f 318 305 287
f 318 287 286
f 318 286 310
f 310 312 318
f 312 316 318
f 316 305 318
f 147 319 138
f 319 147 320
f 320 147 146
f 320 146 281
f 281 304 320
f 304 321 320
f 321 319 320
f 319 321 322
f 134 323 57
f 322 321 324
f 324 321 304
f 324 304 305
f 324 305 316
f 316 317 324
f 317 322 324
f 325 322 317
f 326 134 138
f 138 319 326
f 326 319 322
f 326 322 325
f 325 323 326
f 326 323 134
f 329 328 327
f 327 330 329
f 333 332 331
f 336 335 334
f 337 336 334
f 337 334 338
f 337 339 336
f 342 341 340
f 340 341 343
f 343 341 344
f 343 344 335
f 335 336 343
f 343 336 339
f 339 340 343
f 335 344 345
f 335 345 346
f 348 347 333
f 351 350 349
f 349 350 352
f 349 352 332
f 349 332 333
f 333 347 349
f 347 351 349
f 350 334 353
f 350 353 352
f 351 338 350
f 338 334 350
f 352 355 354
f 352 354 332
f 334 335 353
f 353 335 346
f 353 346 355
f 353 355 352
f 356 325 317
f 356 317 313
f 356 313 314
f 356 314 306
f 306 307 356
f 356 307 357
f 357 358 356
f 356 358 359
f 356 359 325
f 110 114 360
f 79 361 90
f 112 362 114
f 360 114 362
f 363 360 362
f 365 91 364
f 364 366 365
f 366 363 365
f 363 362 365
f 365 362 112
f 365 112 91
f 366 364 367
f 104 369 368
f 369 360 368
f 368 360 363
f 368 363 370
f 368 370 104
f 370 363 366
f 370 366 367
f 371 370 367
f 101 105 372
f 105 104 372
f 104 370 372
f 372 370 371
f 372 371 373
f 372 373 374
f 374 101 372
f 100 101 374
f 100 374 375
f 373 371 376
f 373 376 377
f 377 376 378
f 380 375 379
f 375 374 379
f 374 373 379
f 379 373 377
f 379 377 380
f 381 341 342
f 342 380 381
f 380 377 381
f 381 377 378
f 381 378 341
f 341 382 344
f 341 383 382
f 382 383 384
f 364 91 90
f 364 90 361
f 361 385 364
f 385 367 364
f 341 378 383
f 378 376 383
f 376 371 383
f 371 367 383
f 383 367 385
f 383 385 384
f 382 384 386
f 344 382 386
f 386 384 382
f 386 384 387
f 386 387 345
f 345 344 386
f 388 361 79
f 388 79 78
f 389 388 78
f 389 78 77
f 390 389 77
f 390 77 53
f 391 390 53
f 392 391 52
f 390 393 389
f 394 389 393
f 387 384 395
f 384 385 395
f 395 385 361
f 395 361 388
f 395 388 389
f 395 389 394
f 395 394 387
f 396 387 394
f 396 394 393
f 396 393 397
f 398 396 397
f 398 397 399
f 398 399 400
f 355 346 401
f 346 345 401
f 345 387 401
f 401 387 396
f 401 396 398
f 401 398 400
f 401 400 402
f 402 355 401
f 403 354 355
f 403 355 402
f 403 402 404
f 404 402 358
f 407 406 405
f 407 405 358
f 358 402 407
f 407 402 408
f 407 408 406
f 359 358 405
f 405 406 359
f 406 410 409
f 359 406 409
f 359 409 325
f 325 409 323
f 323 409 57
f 409 55 57
f 409 410 55
f 410 54 55
f 410 411 54
f 54 411 51
f 391 53 52
f 392 52 51
f 411 392 51
f 413 399 412
f 399 397 412
f 397 393 412
f 412 393 390
f 412 390 391
f 412 391 392
f 412 392 413
f 414 413 392
f 414 392 411
f 402 400 408
f 415 410 406
f 406 408 415
f 408 400 415
f 400 399 415
f 415 399 413
f 415 413 414
f 415 414 411
f 415 411 410
f 416 404 358
f 416 358 357
f 357 417 416
f 417 404 416
f 331 332 418
f 332 354 418
f 418 354 403
f 418 403 404
f 418 404 417
f 417 331 418
f 331 417 330
f 327 348 333
f 327 333 331
f 327 331 330
f 328 348 327
f 253 252 303
f 21 303 252
f 20 419 21
f 303 21 419
f 1 420 20
f 419 20 420
f 421 307 303
f 421 303 419
f 421 419 420
f 420 422 421
f 422 357 421
f 357 307 421
f 330 417 423
f 423 417 357
f 423 357 422
f 422 424 423
f 424 330 423
f 424 425 329
f 425 328 329
f 329 330 424
f 425 424 426
f 8 426 7
f 1 7 427
f 7 426 427
f 426 424 427
f 427 424 422
f 427 422 420
f 427 420 1

