# https://github.com/mikedh/trimesh

o m15.off
v 0.50740600 0.26268000 0.30600900
v 0.51001700 0.26704200 0.31541000
v 0.50322400 0.26536100 0.32021200
v 0.49962000 0.25938900 0.30733600
v 0.49053900 0.26865600 0.30015400
v 0.49209600 0.26106900 0.30947200
v 0.48991900 0.26228300 0.31017300
v 0.48854600 0.26906100 0.30174200
v 0.50936200 0.28187200 0.31011300
v 0.50636700 0.27748300 0.29911600
v 0.49823300 0.27982300 0.29775000
v 0.50230700 0.28587500 0.31301000
v 0.49528100 0.26651000 0.32111300
v 0.49606700 0.27781400 0.32190200
v 0.49454500 0.28486400 0.31454100
v 0.49214700 0.28381300 0.31464400
v 0.49359700 0.27748800 0.32160300
v 0.51193700 0.27219900 0.30666100
v 0.50614500 0.26886400 0.29856100
v 0.49074600 0.27941500 0.30077300
v 0.50409200 0.27794400 0.32116300
v 0.48875300 0.27896100 0.30248300
v 0.49049200 0.28142200 0.30851800
v 0.49794300 0.26778500 0.29696900
v 0.45954600 0.28797700 0.32393800
v 0.46123400 0.28004900 0.33211500
v 0.46854000 0.27918100 0.32895300
v 0.46701800 0.28623100 0.32159200
v 0.44682600 0.27542000 0.32332300
v 0.45233600 0.26993700 0.33021500
v 0.45292100 0.27903800 0.33091700
v 0.46038400 0.26753500 0.33123400
v 0.46775500 0.26787700 0.32816400
v 0.45527700 0.28193100 0.30872500
v 0.46321900 0.28078300 0.30782300
v 0.44962700 0.26557800 0.32083800
v 0.46571600 0.28010400 0.30838100
v 0.46911000 0.28495600 0.32054300
v 0.46735700 0.28256800 0.31444000
v 0.45412400 0.26999300 0.30822600
v 0.46213000 0.27005400 0.30741600
v 0.44775900 0.27171300 0.31346100
v 0.47056000 0.27863000 0.32750100
v 0.45676200 0.26149300 0.31828700
v 0.46447100 0.26243900 0.31654600
v 0.44868600 0.28037700 0.31392200
v 0.46979400 0.26825400 0.32666000
v 0.51060200 0.27614400 0.31611100
v 0.45168100 0.28476600 0.32491900
v 0.46678400 0.26342900 0.31609500
v 0.46461300 0.27030700 0.30778400
v 0.49283100 0.26711100 0.32076200
v 0.65110900 0.05566380 0.03779390
v 0.62603500 0.04169180 0.02783950
v 0.62547000 0.04469270 0.02505110
v 0.65054400 0.05866460 0.03500550
v 0.78367000 0.13178400 0.09284600
v 0.74915800 0.10526100 0.07129750
v 0.74859300 0.10826200 0.06850910
v 0.78310400 0.13478500 0.09005760
v 0.67775200 0.06461350 0.04202550
v 0.67718700 0.06761430 0.03923710
v 0.71767100 0.08710150 0.05813610
v 0.71710500 0.09010240 0.05534770
v 0.70234200 0.08217090 0.05593670
v 0.70177700 0.08517180 0.05314830
v 0.47072700 0.23394100 0.26621200
v 0.44775400 0.17462300 0.20703100
v 0.45814000 0.14088700 0.16862000
v 0.50571600 0.26359600 0.29103500
v 0.60879000 0.04053590 0.03009070
v 0.57714000 0.29472700 0.31006100
v 0.53813400 0.27941500 0.30148800
v 0.46156900 0.11662700 0.14181700
v 0.49072600 0.03060360 0.04333060
v 0.50803000 0.02699920 0.03594460
v 0.52364700 0.02835110 0.03423410
v 0.54670600 0.03154620 0.03299910
v 0.59355900 0.03560190 0.02786780
v 0.58485800 0.03492170 0.02889920
v 0.52982800 0.02673890 0.03124630
v 0.53765600 0.02500000 0.02778840
v 0.56685800 0.03141250 0.02877100
v 0.78479400 0.14965900 0.11185500
v 0.77274300 0.17813400 0.14494200
v 0.89532100 0.18651100 0.12911300
v 0.94221400 0.19532400 0.12909300
v 0.97500000 0.21707800 0.14585900
v 0.93613200 0.25088400 0.19011900
v 0.91394600 0.25969500 0.20409700
v 0.86608100 0.18492900 0.13333600
v 0.80359100 0.17483300 0.13513700
v 0.83612500 0.17616300 0.12997400
v 0.76420600 0.33349400 0.31386700
v 0.73663300 0.34144000 0.32800700
v 0.70869200 0.33848300 0.33048800
v 0.65691700 0.32529000 0.32678300
v 0.61657300 0.31121400 0.31981200
v 0.60822400 0.04353670 0.02730230
v 0.58429300 0.03792250 0.02611080
v 0.56629200 0.03441340 0.02598260
v 0.54614100 0.03454700 0.03021070
v 0.59299300 0.03860270 0.02507940
v 0.44718900 0.17762400 0.20424200
v 0.47016200 0.23694200 0.26342400
v 0.50515100 0.26659700 0.28824600
v 0.45757500 0.14388800 0.16583100
v 0.53709100 0.02800080 0.02500000
v 0.52926300 0.02973970 0.02845790
v 0.52308200 0.03135190 0.03144570
v 0.61600800 0.31421500 0.31702300
v 0.65635200 0.32829100 0.32399500
v 0.70812700 0.34148400 0.32769900
v 0.73606800 0.34444100 0.32521900
v 0.76364100 0.33649500 0.31107900
v 0.91338100 0.26269600 0.20130900
v 0.86551600 0.18792900 0.13054800
v 0.83556000 0.17916400 0.12718600
v 0.80302500 0.17783400 0.13234900
v 0.77217800 0.18113500 0.14215300
v 0.57657500 0.29772800 0.30727200
v 0.50746400 0.03000000 0.03315620
v 0.49016100 0.03360440 0.04054220
v 0.46100400 0.11962800 0.13902900
v 0.53756900 0.28241600 0.29870000
v 0.93556700 0.25388500 0.18733000
v 0.97443500 0.22007900 0.14307100
v 0.94164900 0.19832500 0.12630500
v 0.89475600 0.18951200 0.12632500
v 0.78422900 0.15266000 0.10906600
v 0.13714100 0.07041160 0.15783500
v 0.13911800 0.08104990 0.16888300
v 0.13855300 0.08405070 0.16609400
v 0.13657600 0.07341240 0.15504600
v 0.02556510 0.36129100 0.49348800
v 0.03416880 0.37156200 0.50279700
v 0.03360370 0.37456200 0.50000800
v 0.02500000 0.36429200 0.49069900
v 0.46830700 0.24981100 0.27764900
v 0.46887200 0.24681100 0.28043800
v 0.45958200 0.16770800 0.19719200
v 0.45901700 0.17070900 0.19440400
v 0.13685300 0.13291000 0.22515200
v 0.12860000 0.14306000 0.23774900
v 0.12803500 0.14606100 0.23496100
v 0.13628800 0.13591100 0.22236400
v 0.13588300 0.08612950 0.17500500
v 0.13531800 0.08913030 0.17221700
v 0.14437000 0.10592000 0.19458400
v 0.14380500 0.10892100 0.19179500
v 0.27895700 0.38238100 0.46482800
v 0.26988800 0.38535200 0.46986300
v 0.04220830 0.32657000 0.45274900
v 0.04974460 0.29965000 0.42225100
v 0.05303770 0.28981000 0.41099400
v 0.26073400 0.21800600 0.29162300
v 0.43822700 0.26822800 0.30969800
v 0.14022400 0.11341100 0.20348500
v 0.32108300 0.05183600 0.10056300
v 0.42357200 0.14326600 0.17818600
v 0.04897310 0.37532100 0.50384200
v 0.02688260 0.35040000 0.48150000
v 0.03881720 0.33641400 0.46402900
v 0.24929100 0.38921000 0.47818900
v 0.18157000 0.05299820 0.13009000
v 0.21166200 0.04734430 0.11790700
v 0.25405800 0.04322630 0.10488200
v 0.24383600 0.21312900 0.28980000
v 0.40068700 0.12082200 0.15867000
v 0.04464820 0.31438100 0.43913600
v 0.12997600 0.18136000 0.27868700
v 0.12840700 0.17182700 0.26874600
v 0.13011100 0.15735300 0.25282500
v 0.33430000 0.06054800 0.10726000
v 0.34982000 0.07148990 0.11589000
v 0.37567000 0.09250280 0.13326400
v 0.13646600 0.12690500 0.21876900
v 0.13900400 0.11471200 0.20513300
v 0.05024670 0.27199300 0.39238400
v 0.06971860 0.24067300 0.35473200
v 0.10385900 0.22753300 0.33367100
v 0.13852500 0.22515000 0.32408100
v 0.21955700 0.21123600 0.29268300
v 0.18956200 0.20729900 0.29452600
v 0.17144400 0.20372400 0.29435100
v 0.15135000 0.19909800 0.29344400
v 0.13040400 0.19212100 0.29018200
v 0.28905200 0.03243540 0.08617670
v 0.30513600 0.03971920 0.09075550
v 0.04408310 0.31738200 0.43634800
v 0.04164310 0.32957100 0.44996000
v 0.04917940 0.30265100 0.41946200
v 0.26932300 0.38835300 0.46707500
v 0.03825200 0.33941500 0.46124100
v 0.24872600 0.39221100 0.47540100
v 0.40012200 0.12382300 0.15588200
v 0.37510500 0.09550360 0.13047600
v 0.34925500 0.07449080 0.11310200
v 0.33373400 0.06354880 0.10447200
v 0.32051800 0.05483680 0.09777490
v 0.12954600 0.16035400 0.25003600
v 0.12784200 0.17482800 0.26595800
v 0.12941100 0.18436000 0.27589900
v 0.24327100 0.21613000 0.28701200
v 0.13796000 0.22815100 0.32129300
v 0.10329400 0.23053300 0.33088300
v 0.06915340 0.24367400 0.35194400
v 0.04968150 0.27499400 0.38959600
v 0.05247250 0.29281100 0.40820500
v 0.26016800 0.22100600 0.28883500
v 0.13965900 0.11641100 0.20069600
v 0.02631750 0.35340100 0.47871100
v 0.04840790 0.37832100 0.50105300
v 0.12983900 0.19512200 0.28739300
v 0.15078500 0.20209900 0.29065600
v 0.17087900 0.20672500 0.29156300
v 0.18899600 0.21030000 0.29173800
v 0.21899200 0.21423600 0.28989500
v 0.42300700 0.14626700 0.17539800
v 0.43766200 0.27122900 0.30690900
v 0.27839100 0.38538200 0.46203900
v 0.13843800 0.11771300 0.20234400
v 0.13590000 0.12990600 0.21598100
v 0.21109700 0.05034510 0.11511800
v 0.25349300 0.04622710 0.10209400
v 0.18100500 0.05599910 0.12730200
v 0.28848700 0.03543620 0.08338830
v 0.30457100 0.04272000 0.08796710
v 0.42709500 0.23435300 0.25859700
v 0.43314700 0.25466400 0.27833100
v 0.44618000 0.26506300 0.27536400
v 0.43717900 0.23547400 0.24639200
v 0.45437400 0.25783600 0.30885300
v 0.42007600 0.10011600 0.11092000
v 0.40948600 0.10578000 0.12783600
v 0.41559000 0.12563900 0.14871900
v 0.42762600 0.12501500 0.13798000
v 0.43517900 0.18922900 0.23083300
v 0.42717200 0.21227400 0.26338800
v 0.43419300 0.19721800 0.22557000
v 0.42885700 0.20900700 0.27045000
v 0.43742600 0.20321200 0.25335200
v 0.43986900 0.19849600 0.26378600
v 0.43643600 0.17642800 0.21799800
v 0.43507500 0.18468400 0.21070600
v 0.42538200 0.15516000 0.17970100
v 0.42707200 0.14635600 0.18888000
v 0.47538100 0.26739600 0.31892100
v 0.47874100 0.26967500 0.33131200
v 0.45269500 0.23928200 0.23567900
v 0.44667800 0.19883800 0.21984800
v 0.45592900 0.16895100 0.21467600
v 0.44853700 0.16941500 0.21667300
v 0.43986500 0.13706100 0.18600500
v 0.44715800 0.13660000 0.18403100
v 0.45828200 0.15318800 0.17091100
v 0.44424100 0.15484400 0.16880800
v 0.45334600 0.18507200 0.20158700
v 0.46601500 0.18277900 0.20238600
v 0.45358200 0.19519900 0.24743700
v 0.45725500 0.19650200 0.26170600
v 0.40871900 0.08302900 0.12833600
v 0.40714500 0.09258990 0.12039800
v 0.41817000 0.08014730 0.10626900
v 0.42023400 0.06780910 0.11665300
v 0.41761500 0.11643100 0.15978700
v 0.46406000 0.27712800 0.27246000
v 0.47270100 0.25394300 0.31097000
v 0.45043200 0.12353000 0.13938800
v 0.43503800 0.12462000 0.13605300
v 0.43109400 0.10471000 0.15536100
v 0.43848600 0.10424600 0.15336300
v 0.48026700 0.28461500 0.33466700
v 0.47858200 0.29046700 0.32679800
v 0.47535300 0.28732200 0.31464500
v 0.47158500 0.28510100 0.31526200
v 0.46036400 0.14437100 0.17999600
v 0.45302500 0.11423200 0.15024500
v 0.45706800 0.30010000 0.31445300
v 0.45476300 0.30011300 0.31089600
v 0.47051800 0.28371500 0.31144400
v 0.36306700 0.41509700 0.42226400
v 0.36176700 0.41511300 0.42030100
v 0.36189700 0.41391400 0.41928300
v 0.36387300 0.41392300 0.42233200
v 0.44866700 0.18449700 0.23063400
v 0.45745000 0.18405400 0.22837800
v 0.46226700 0.19476000 0.24520400
v 0.53434100 0.33797500 0.30799300
v 0.53497700 0.33840500 0.30279200
v 0.52100500 0.32388600 0.29897400
v 0.52068300 0.32351600 0.30417500
v 0.48864700 0.26297200 0.26450600
v 0.50340400 0.22036900 0.27893500
v 0.50605300 0.24636700 0.28409100
v 0.49682200 0.25567600 0.29792500
v 0.49300000 0.21784600 0.29044400
v 0.52352000 0.32036700 0.29871500
v 0.52330900 0.32043700 0.30302100
v 0.50108300 0.29788600 0.30314900
v 0.50142500 0.29780800 0.29895800
v 0.42425900 0.07257050 0.13232900
v 0.42764500 0.06741410 0.11472600
v 0.43165100 0.07210620 0.13033100
v 0.48897100 0.28424500 0.33250500
v 0.48728700 0.29009700 0.32463600
v 0.44007200 0.32786100 0.31965400
v 0.44288600 0.32738300 0.32410400
v 0.46109900 0.30195600 0.31368900
v 0.45828500 0.30243400 0.30924000
v 0.45053400 0.21993700 0.30130100
v 0.46905800 0.21860500 0.30344300
v 0.43409500 0.34296400 0.33368000
v 0.43078700 0.34037300 0.33410400
v 0.43963700 0.32464900 0.32436300
v 0.47402700 0.28610900 0.30971900
v 0.48403800 0.28688300 0.31241200
v 0.48274500 0.28566600 0.30762600
v 0.62074900 0.40190000 0.35538500
v 0.61928900 0.40344400 0.35599700
v 0.61773000 0.40327400 0.35687800
v 0.62001200 0.40099100 0.35590300
v 0.49741000 0.30014700 0.30438300
v 0.48738700 0.28427700 0.31117300
v 0.47974400 0.23337900 0.23551100
v 0.49434400 0.23098900 0.24134700
v 0.46885600 0.19553500 0.21673400
v 0.53760900 0.33495100 0.30258100
v 0.53716900 0.33503200 0.30679500
v 0.42556100 0.07968300 0.10427100
v 0.36687600 0.41624000 0.42197300
v 0.36330800 0.41692400 0.41954300
v 0.36502400 0.41659700 0.42198500
v 0.36422800 0.41669800 0.41821700
v 0.47774300 0.21816600 0.30121000
v 0.48140500 0.25357400 0.30880800
v 0.49773200 0.30051700 0.29918200
v 0.49442100 0.20891000 0.24613900
v 0.46974400 0.18755000 0.22202000
v 0.50042900 0.25129600 0.26122000
v 0.48416400 0.26695400 0.31666500
v 0.48742600 0.26923600 0.32908000
v 0.43752800 0.32465600 0.32075900
v 0.42838400 0.34038900 0.33057000
v 0.43110400 0.34351900 0.32934800
v 0.47274500 0.27668900 0.27022700
v 0.46147900 0.23884000 0.23342300
v 0.61958100 0.40362600 0.35329200
v 0.62095300 0.40186100 0.35320900
v 0.62035600 0.40089700 0.35259100
v 0.61829800 0.40354400 0.35271600
v 0.48643800 0.28295700 0.30740200
v 0.44489600 0.10358200 0.11829400
v 0.42748700 0.09972130 0.10899300
v 0.45546200 0.19839600 0.21759100
v 0.44257500 0.09046100 0.11092600
v 0.44753400 0.08545020 0.13190000
v 0.44414900 0.08090010 0.11886500
v 0.46757100 0.17451700 0.20963100
v 0.48233500 0.19640500 0.25292800
v 0.46603800 0.19606000 0.25945000
v 0.47989300 0.20112000 0.24249400
v 0.49612500 0.20571300 0.25327100
v 0.41199200 0.08765570 0.14132700
v 0.44595400 0.18553600 0.20358500
v 0.43684900 0.15530800 0.17080600
v 0.43615500 0.22373300 0.29618500
v 0.43878500 0.24966200 0.30127000
f 2 3 4
f 1 2 4
f 6 7 8
f 5 6 8
f 10 11 12
f 9 10 12
f 3 13 6
f 4 3 6
f 15 16 17
f 14 15 17
f 18 1 19
f 11 20 15
f 12 11 15
f 12 15 14
f 21 12 14
f 18 2 1
f 16 15 20
f 23 16 20
f 22 23 20
f 4 6 5
f 24 4 5
f 26 27 28
f 25 26 28
f 29 30 31
f 32 33 27
f 26 32 27
f 25 28 35
f 34 25 35
f 29 36 30
f 28 38 39
f 35 28 39
f 37 35 39
f 34 35 41
f 40 34 41
f 29 42 36
f 27 43 38
f 28 27 38
f 40 41 45
f 44 40 45
f 29 46 42
f 33 47 43
f 27 33 43
f 18 9 48
f 29 31 49
f 44 45 33
f 32 44 33
f 29 49 46
f 45 50 47
f 33 45 47
f 46 34 40
f 42 46 40
f 49 25 34
f 46 49 34
f 41 51 50
f 45 41 50
f 42 40 44
f 36 42 44
f 31 26 25
f 49 31 25
f 35 37 51
f 41 35 51
f 36 44 32
f 30 36 32
f 30 32 26
f 31 30 26
f 18 10 9
f 13 52 7
f 6 13 7
f 1 4 24
f 19 1 24
f 48 21 3
f 2 48 3
f 5 8 22
f 20 5 22
f 9 12 21
f 48 9 21
f 19 24 11
f 10 19 11
f 14 17 52
f 13 14 52
f 18 19 10
f 24 5 20
f 11 24 20
f 21 14 13
f 3 21 13
f 18 48 2
f 54 55 56
f 53 54 56
f 58 59 60
f 57 58 60
f 53 56 62
f 61 53 62
f 63 64 59
f 58 63 59
f 65 66 64
f 63 65 64
f 61 62 66
f 65 61 66
f 68 69 70
f 67 68 70
f 54 53 71
f 76 77 78
f 75 76 78
f 74 75 78
f 69 74 78
f 70 69 78
f 73 70 78
f 72 73 78
f 65 72 78
f 61 65 78
f 53 61 78
f 79 71 80
f 82 78 77
f 81 82 77
f 71 53 78
f 80 71 78
f 83 80 78
f 84 85 72
f 57 84 72
f 58 57 72
f 63 58 72
f 65 63 72
f 89 90 91
f 88 89 91
f 87 88 91
f 86 87 91
f 98 72 85
f 97 98 85
f 96 97 85
f 95 96 85
f 94 95 85
f 90 94 85
f 91 90 85
f 93 91 85
f 92 93 85
f 101 102 56
f 100 101 56
f 99 100 56
f 103 100 99
f 105 106 107
f 104 105 107
f 109 110 102
f 108 109 102
f 119 120 121
f 118 119 121
f 117 118 121
f 116 117 121
f 115 116 121
f 114 115 121
f 113 114 121
f 112 113 121
f 111 112 121
f 62 56 102
f 66 62 102
f 121 66 102
f 125 121 102
f 106 125 102
f 107 106 102
f 124 107 102
f 123 124 102
f 122 123 102
f 110 122 102
f 129 117 116
f 128 129 116
f 127 128 116
f 126 127 116
f 66 121 120
f 64 66 120
f 59 64 120
f 60 59 120
f 130 60 120
f 55 99 56
f 90 116 115
f 94 90 115
f 98 111 121
f 72 98 121
f 74 124 123
f 75 74 123
f 89 126 116
f 90 89 116
f 72 121 125
f 73 72 125
f 94 115 114
f 95 94 114
f 97 112 111
f 98 97 111
f 69 107 124
f 74 69 124
f 67 70 106
f 105 67 106
f 104 107 69
f 68 104 69
f 96 113 112
f 97 96 112
f 95 114 113
f 96 95 113
f 88 127 126
f 89 88 126
f 73 125 106
f 70 73 106
f 68 67 105
f 104 68 105
f 71 99 55
f 54 71 55
f 79 103 99
f 71 79 99
f 78 102 101
f 83 78 101
f 83 101 100
f 80 83 100
f 80 100 103
f 79 80 103
f 93 118 117
f 91 93 117
f 91 117 129
f 86 91 129
f 86 129 128
f 87 86 128
f 92 119 118
f 93 92 118
f 85 120 119
f 92 85 119
f 81 109 108
f 82 81 108
f 75 123 122
f 76 75 122
f 76 122 110
f 77 76 110
f 77 110 109
f 81 77 109
f 82 108 102
f 78 82 102
f 87 128 127
f 88 87 127
f 57 60 130
f 84 57 130
f 84 130 120
f 85 84 120
f 132 133 134
f 131 132 134
f 136 137 138
f 135 136 138
f 140 141 142
f 139 140 142
f 144 145 146
f 143 144 146
f 147 148 133
f 132 147 133
f 149 150 148
f 147 149 148
f 155 156 157
f 154 155 157
f 153 154 157
f 152 153 157
f 151 152 157
f 158 149 159
f 143 158 159
f 140 157 160
f 141 140 160
f 162 163 164
f 135 162 164
f 136 135 164
f 161 136 164
f 166 167 159
f 165 166 159
f 131 165 159
f 132 131 159
f 149 132 159
f 160 157 156
f 169 160 156
f 168 169 156
f 170 154 153
f 147 132 149
f 176 169 168
f 175 176 168
f 174 175 168
f 159 174 168
f 173 159 168
f 172 173 168
f 171 172 168
f 178 158 143
f 177 178 143
f 182 156 155
f 181 182 155
f 180 181 155
f 179 180 155
f 187 171 168
f 186 187 168
f 185 186 168
f 184 185 168
f 183 184 168
f 163 153 152
f 164 163 152
f 144 143 159
f 173 144 159
f 189 159 167
f 188 189 167
f 190 191 192
f 191 194 195
f 193 191 195
f 202 203 204
f 201 202 204
f 200 201 204
f 199 200 204
f 198 199 204
f 197 198 204
f 196 197 204
f 208 209 210
f 207 208 210
f 206 207 210
f 205 206 210
f 146 200 150
f 211 146 150
f 213 195 194
f 137 213 194
f 138 137 194
f 212 138 194
f 218 204 203
f 217 218 203
f 216 217 203
f 215 216 203
f 214 215 203
f 142 219 220
f 139 142 220
f 221 220 210
f 193 221 210
f 191 193 210
f 192 191 210
f 209 192 210
f 201 200 146
f 145 201 146
f 204 210 220
f 196 204 220
f 219 196 220
f 223 146 211
f 222 223 211
f 155 209 208
f 179 155 208
f 163 194 191
f 153 163 191
f 135 138 212
f 162 135 212
f 154 192 209
f 155 154 209
f 153 191 190
f 170 153 190
f 179 208 207
f 180 179 207
f 162 212 194
f 163 162 194
f 170 190 192
f 154 170 192
f 181 206 205
f 182 181 205
f 180 207 206
f 181 180 206
f 182 205 210
f 156 182 210
f 168 204 218
f 183 168 218
f 185 216 215
f 186 185 215
f 156 210 204
f 168 156 204
f 183 218 217
f 184 183 217
f 186 215 214
f 187 186 214
f 184 217 216
f 185 184 216
f 158 211 150
f 149 158 150
f 143 146 223
f 177 143 223
f 178 222 211
f 158 178 211
f 177 223 222
f 178 177 222
f 166 224 225
f 167 166 225
f 131 134 226
f 165 131 226
f 167 225 227
f 188 167 227
f 165 226 224
f 166 165 224
f 176 197 196
f 169 176 196
f 189 228 200
f 159 189 200
f 159 200 199
f 174 159 199
f 175 198 197
f 176 175 197
f 169 196 219
f 160 169 219
f 141 160 219
f 142 141 219
f 188 227 228
f 189 188 228
f 174 199 198
f 175 174 198
f 152 193 195
f 164 152 195
f 139 220 157
f 140 139 157
f 151 221 193
f 152 151 193
f 164 195 213
f 161 164 213
f 157 220 221
f 151 157 221
f 161 213 137
f 136 161 137
f 148 150 133
f 227 225 200
f 228 227 200
f 133 150 200
f 134 133 200
f 226 134 200
f 224 226 200
f 225 224 200
f 171 203 202
f 172 171 202
f 172 202 201
f 173 172 201
f 187 214 203
f 171 187 203
f 173 201 145
f 144 173 145
f 230 231 232
f 229 230 232
f 233 50 51
f 231 233 51
f 235 236 237
f 234 235 237
f 239 229 240
f 238 239 240
f 239 242 243
f 241 239 243
f 232 240 229
f 245 246 247
f 244 245 247
f 47 248 249
f 232 250 251
f 240 232 251
f 253 254 255
f 252 253 255
f 257 258 259
f 256 257 259
f 243 260 261
f 263 264 265
f 262 263 265
f 246 236 266
f 247 246 266
f 244 247 254
f 253 244 254
f 231 267 250
f 232 231 250
f 233 268 248
f 50 233 248
f 256 269 270
f 257 256 270
f 254 271 272
f 255 254 272
f 43 273 274
f 38 43 274
f 47 249 273
f 43 47 273
f 275 276 38
f 274 275 38
f 255 272 278
f 277 255 278
f 280 281 276
f 279 280 276
f 283 284 285
f 282 283 285
f 286 287 288
f 260 286 288
f 290 291 292
f 289 290 292
f 293 22 8
f 295 296 297
f 294 295 297
f 299 300 301
f 298 299 301
f 265 303 304
f 302 265 304
f 273 305 306
f 274 273 306
f 308 309 310
f 307 308 310
f 243 261 312
f 311 243 312
f 314 315 308
f 313 314 308
f 275 317 318
f 316 275 318
f 320 321 322
f 319 320 322
f 323 317 324
f 300 323 324
f 325 326 327
f 8 296 293
f 329 299 298
f 328 329 298
f 264 330 303
f 265 264 303
f 285 314 313
f 331 285 313
f 39 38 276
f 309 275 316
f 310 309 316
f 333 331 334
f 332 333 334
f 312 335 336
f 268 312 336
f 298 301 337
f 291 298 337
f 339 327 326
f 338 339 326
f 326 325 293
f 340 326 293
f 291 337 323
f 292 291 323
f 268 336 341
f 248 268 341
f 248 341 342
f 249 248 342
f 343 280 279
f 315 343 279
f 253 286 238
f 244 253 238
f 345 307 343
f 344 345 343
f 267 346 347
f 250 267 347
f 349 350 351
f 348 349 351
f 301 352 318
f 337 301 318
f 354 270 269
f 353 354 269
f 352 324 23
f 22 352 23
f 350 328 290
f 351 350 290
f 237 270 354
f 234 237 354
f 334 345 344
f 284 334 344
f 37 39 276
f 281 37 276
f 258 355 327
f 259 258 327
f 356 330 354
f 353 269 278
f 356 353 278
f 358 356 278
f 357 358 278
f 357 304 303
f 358 357 303
f 325 347 346
f 293 325 346
f 17 305 342
f 52 17 342
f 358 303 330
f 356 358 330
f 354 353 356
f 52 342 341
f 359 339 287
f 252 359 287
f 306 16 324
f 317 306 324
f 7 341 336
f 278 272 304
f 357 278 304
f 347 325 327
f 355 347 327
f 341 7 52
f 360 361 288
f 259 327 339
f 359 259 339
f 296 7 336
f 362 288 287
f 339 362 287
f 293 346 318
f 22 293 318
f 352 22 318
f 296 336 335
f 297 296 335
f 288 362 360
f 16 306 305
f 17 16 305
f 297 335 361
f 360 297 361
f 315 279 309
f 308 315 309
f 249 342 305
f 273 249 305
f 302 304 272
f 271 302 272
f 292 323 300
f 299 292 300
f 363 360 362
f 338 363 362
f 294 297 360
f 363 294 360
f 289 292 299
f 329 289 299
f 260 288 361
f 261 260 361
f 282 285 331
f 333 282 331
f 279 276 275
f 309 279 275
f 262 265 302
f 364 262 302
f 331 313 345
f 334 331 345
f 365 251 355
f 258 365 355
f 322 329 328
f 350 322 328
f 348 320 319
f 349 348 319
f 294 363 338
f 295 294 338
f 340 295 338
f 326 340 338
f 23 324 16
f 321 289 329
f 322 321 329
f 250 347 355
f 251 250 355
f 344 343 315
f 314 344 315
f 364 302 271
f 266 364 271
f 307 310 280
f 343 307 280
f 274 306 317
f 275 274 317
f 348 351 321
f 320 348 321
f 337 318 317
f 323 337 317
f 340 293 296
f 295 340 296
f 362 339 338
f 328 298 291
f 290 328 291
f 252 287 286
f 253 252 286
f 332 334 284
f 283 332 284
f 310 316 281
f 280 310 281
f 283 282 333
f 332 283 333
f 284 344 314
f 285 284 314
f 234 354 330
f 264 234 330
f 351 290 289
f 321 351 289
f 312 261 361
f 335 312 361
f 296 8 7
f 300 324 352
f 301 300 352
f 319 322 350
f 349 319 350
f 316 318 346
f 267 316 346
f 313 308 307
f 345 313 307
f 238 286 260
f 242 238 260
f 257 270 237
f 366 257 237
f 311 312 268
f 233 311 268
f 263 235 234
f 366 237 236
f 246 366 236
f 359 277 256
f 259 359 256
f 263 234 264
f 47 50 248
f 365 366 246
f 245 365 246
f 247 266 271
f 254 247 271
f 244 238 240
f 245 244 240
f 364 266 236
f 262 364 236
f 263 262 236
f 235 263 236
f 281 316 267
f 37 281 267
f 231 37 267
f 277 278 269
f 256 277 269
f 258 257 366
f 365 258 366
f 243 242 260
f 251 365 245
f 240 251 245
f 252 255 277
f 359 252 277
f 242 239 238
f 229 239 241
f 230 229 241
f 368 230 241
f 367 368 241
f 241 243 311
f 367 241 311
f 367 311 233
f 368 367 233
f 368 233 231
f 230 368 231
f 37 231 51

