# https://github.com/mikedh/trimesh

o m23.off
v 0.23715300 0.20926400 0.78969400
v 0.25399800 0.20620700 0.78596400
v 0.27070900 0.20926400 0.78969400
v 0.29725700 0.20149400 0.63662700
v 0.28566800 0.20149400 0.60430500
v 0.25372900 0.20009300 0.56467800
v 0.22179000 0.20149400 0.60430500
v 0.21020000 0.20149400 0.63662700
v 0.20480900 0.20149400 0.66832800
v 0.20723500 0.20149400 0.70391400
v 0.22974100 0.21283100 0.79373400
v 0.25345900 0.19372400 0.86319700
v 0.27663900 0.21283100 0.79373400
v 0.30022200 0.20149400 0.70391400
v 0.30264800 0.20149400 0.66832800
v 0.30413000 0.20722600 0.63025600
v 0.28229900 0.20709900 0.54230100
v 0.25372900 0.20722600 0.54230100
v 0.22529300 0.20709900 0.54230100
v 0.20332700 0.20722600 0.63025600
v 0.19712800 0.21143000 0.70251600
v 0.22381100 0.21665200 0.79995000
v 0.24052200 0.19945600 0.86848000
v 0.25372900 0.19945600 0.87298700
v 0.26639600 0.19945600 0.86848000
v 0.28378100 0.21665200 0.79995000
v 0.31033000 0.21143000 0.70251600
v 0.31518100 0.21461400 0.61906700
v 0.30157000 0.21244900 0.59808900
v 0.20588700 0.21244900 0.59808900
v 0.19227600 0.21461400 0.61906700
v 0.18230400 0.21830800 0.66832800
v 0.18270800 0.22111100 0.70236000
v 0.21626400 0.22263900 0.81144900
v 0.23243600 0.21244900 0.87143300
v 0.27326900 0.21244900 0.87143300
v 0.29051900 0.22263900 0.81144900
v 0.32474900 0.22111100 0.70236000
v 0.32515400 0.21830800 0.66832800
v 0.33094800 0.22760700 0.60523700
v 0.28229900 0.22760700 0.54230100
v 0.25372900 0.22760700 0.54230100
v 0.22529300 0.22760700 0.54230100
v 0.17597000 0.22760700 0.60803400
v 0.15710300 0.23346600 0.70717800
v 0.21020000 0.23295700 0.81890800
v 0.22812300 0.22760700 0.87158800
v 0.25372900 0.22760700 0.87780400
v 0.27987300 0.22760700 0.87158800
v 0.29617900 0.23295700 0.81890800
v 0.35035400 0.23346600 0.70717800
v 0.36437000 0.24467600 0.62559400
v 0.34725500 0.24467600 0.59622400
v 0.31450700 0.24467600 0.57275900
v 0.29078900 0.24467600 0.55877300
v 0.25372900 0.24467600 0.55193600
v 0.21666800 0.24467600 0.55877300
v 0.18958100 0.24467600 0.57275900
v 0.16141500 0.24467600 0.59622400
v 0.14308700 0.24467600 0.62559400
v 0.13864000 0.24467600 0.66832800
v 0.14362600 0.24467600 0.71106300
v 0.15952800 0.24467600 0.75255400
v 0.20332700 0.24467600 0.82326000
v 0.22462000 0.24467600 0.87065600
v 0.28526300 0.24467600 0.87065600
v 0.30130000 0.24467600 0.82326000
v 0.34792900 0.24467600 0.75255400
v 0.36383100 0.24467600 0.71106300
v 0.36881700 0.24467600 0.66848400
v 0.37501600 0.26314600 0.62264200
v 0.32906200 0.26314600 0.56483400
v 0.25372900 0.26314600 0.54354400
v 0.17839500 0.26314600 0.56483400
v 0.13244100 0.26314600 0.62264200
v 0.13176700 0.26314600 0.71401500
v 0.19429800 0.26314600 0.82403700
v 0.21882500 0.26314600 0.86832500
v 0.25372900 0.26314600 0.87547300
v 0.28984500 0.26314600 0.86832500
v 0.31356400 0.26314600 0.82403700
v 0.37569000 0.26314600 0.71401500
v 0.38027200 0.28263500 0.62093200
v 0.35871000 0.28263500 0.58177200
v 0.33202700 0.28263500 0.55830700
v 0.29483200 0.28263500 0.54292300
v 0.25372900 0.28263500 0.53670700
v 0.21262600 0.28263500 0.54292300
v 0.17543100 0.28263500 0.55830700
v 0.14874700 0.28263500 0.58177200
v 0.12718500 0.28263500 0.62093200
v 0.12058200 0.28263500 0.66832800
v 0.12718500 0.28263500 0.71572500
v 0.14605200 0.28263500 0.76079000
v 0.18823300 0.28263500 0.82465800
v 0.21262600 0.28263500 0.86304100
v 0.29483200 0.28263500 0.86304100
v 0.31922400 0.28263500 0.82465800
v 0.36140500 0.28263500 0.76079000
v 0.38027200 0.28263500 0.71572500
v 0.38687600 0.28263500 0.66832800
v 0.38188900 0.30250600 0.62031100
v 0.33297000 0.30250600 0.55333400
v 0.25372900 0.30250600 0.53266700
v 0.17448700 0.30250600 0.55333400
v 0.12556800 0.30250600 0.62031100
v 0.12556800 0.30250600 0.71634600
v 0.18526800 0.30250600 0.82465800
v 0.21208600 0.30250600 0.85589300
v 0.25372900 0.30250600 0.86350700
v 0.29537100 0.30250600 0.85589300
v 0.32057200 0.30250600 0.82465800
v 0.38188900 0.30250600 0.71634600
v 0.38027200 0.32237700 0.62093200
v 0.36073100 0.32237700 0.57804300
v 0.33108300 0.32237700 0.55147000
v 0.29483200 0.32237700 0.54043600
v 0.25372900 0.32237700 0.53297700
v 0.21262600 0.32237700 0.54043600
v 0.17637400 0.32237700 0.55147000
v 0.14672600 0.32237700 0.57804300
v 0.12718500 0.32237700 0.62093200
v 0.12058200 0.32237700 0.66832800
v 0.12718500 0.32237700 0.71572500
v 0.14605200 0.32237700 0.76032400
v 0.18446000 0.32237700 0.82061800
v 0.21262600 0.32237700 0.84703500
v 0.29483200 0.32237700 0.84703500
v 0.32245800 0.32237700 0.82061800
v 0.36140500 0.32237700 0.76032400
v 0.38027200 0.32237700 0.71572500
v 0.38687600 0.32237700 0.66832800
v 0.37569000 0.34186600 0.62264200
v 0.32906200 0.34186600 0.55597600
v 0.25372900 0.34186600 0.53670700
v 0.17839500 0.34186600 0.55597600
v 0.13176700 0.34186600 0.62264200
v 0.13176700 0.34186600 0.71401500
v 0.18729000 0.34186600 0.81036200
v 0.21410800 0.34186600 0.83677900
v 0.25372900 0.34186600 0.84408300
v 0.29334900 0.34186600 0.83677900
v 0.32057200 0.34186600 0.81036200
v 0.37569000 0.34186600 0.71401500
v 0.36787400 0.36033600 0.62559400
v 0.35089400 0.36033600 0.58690000
v 0.32434500 0.36033600 0.56359100
v 0.29078900 0.36033600 0.54820600
v 0.25372900 0.36033600 0.54136900
v 0.21666800 0.36033600 0.54820600
v 0.18311200 0.36033600 0.56359100
v 0.15656400 0.36033600 0.58690000
v 0.13958300 0.36033600 0.62559400
v 0.13365400 0.36033600 0.66832800
v 0.13958300 0.36033600 0.71106300
v 0.15656400 0.36033600 0.74975700
v 0.19065900 0.36033600 0.79715300
v 0.21666800 0.36033600 0.82201600
v 0.29078900 0.36033600 0.82201600
v 0.31720300 0.36033600 0.79715300
v 0.35089400 0.36033600 0.74975700
v 0.36787400 0.36033600 0.71106300
v 0.37380300 0.36033600 0.66832800
v 0.35736200 0.37740400 0.62947900
v 0.31787600 0.37740400 0.57384700
v 0.25372900 0.37740400 0.54991600
v 0.18958100 0.37740400 0.57384700
v 0.15009500 0.37740400 0.62947900
v 0.15009500 0.37740400 0.70717800
v 0.19537600 0.37740400 0.78456600
v 0.22003800 0.37740400 0.80632100
v 0.25372900 0.37740400 0.81238200
v 0.28742000 0.37740400 0.80632100
v 0.31208100 0.37740400 0.78456600
v 0.35736200 0.37740400 0.70717800
v 0.34429000 0.39256200 0.63429600
v 0.33081400 0.39256200 0.60368300
v 0.30979000 0.39256200 0.58674500
v 0.28324200 0.39256200 0.56685400
v 0.25372900 0.39256200 0.56157000
v 0.22421500 0.39256200 0.56685400
v 0.19766700 0.39256200 0.58674500
v 0.17664400 0.39256200 0.60368300
v 0.16316700 0.39256200 0.63429600
v 0.15845000 0.39256200 0.66832800
v 0.16316700 0.39256200 0.70236000
v 0.17664400 0.39256200 0.73297400
v 0.20049700 0.39256200 0.76840400
v 0.22421500 0.39256200 0.78984900
v 0.28324200 0.39256200 0.78984900
v 0.30696000 0.39256200 0.76840400
v 0.33081400 0.39256200 0.73297400
v 0.34429000 0.39256200 0.70236000
v 0.34900700 0.39256200 0.66832800
v 0.21181700 0.41166900 0.74229800
v 0.22920200 0.41166900 0.75783700
v 0.25372900 0.41179700 0.76172200
v 0.27825600 0.41166900 0.75783700
v 0.29564000 0.41166900 0.74229800
v 0.31194700 0.42071300 0.64657300
v 0.28971100 0.42071300 0.61129800
v 0.25372900 0.42071300 0.59979800
v 0.21774700 0.42071300 0.61129800
v 0.19551100 0.42071300 0.64657300
v 0.19551100 0.42058600 0.69008400
v 0.21774700 0.42058600 0.72535900
v 0.23486200 0.42058600 0.73499400
v 0.27259600 0.42058600 0.73546000
v 0.28971100 0.42058600 0.72535900
v 0.31194700 0.42058600 0.69008400
v 0.29334900 0.42580800 0.65356600
v 0.28742000 0.42580800 0.64004600
v 0.27825600 0.42580800 0.62947900
v 0.26653100 0.42580800 0.62264200
v 0.25372900 0.42580800 0.62031100
v 0.24092600 0.42580800 0.62264200
v 0.22920200 0.42580800 0.62947900
v 0.22003800 0.42580800 0.64004600
v 0.21410800 0.42580800 0.65356600
v 0.21208600 0.42580800 0.66832800
v 0.21410800 0.42593600 0.68309100
v 0.22003800 0.42593600 0.69661100
v 0.22920200 0.42593600 0.70717800
v 0.24092600 0.42593600 0.71401500
v 0.25372900 0.42593600 0.71634600
v 0.26653100 0.42593600 0.71401500
v 0.27825600 0.42593600 0.70717800
v 0.28742000 0.42593600 0.69661100
v 0.29334900 0.42593600 0.68309100
v 0.29537100 0.42580800 0.66832800
v 0.22756600 0.17930700 0.44074600
v 0.25359800 0.16839000 0.46194400
v 0.23132500 0.19200700 0.44469600
v 0.25387400 0.18370000 0.46407600
v 0.13306000 0.29312500 0.18083900
v 0.15043500 0.29367300 0.17465100
v 0.13148900 0.28208400 0.18189400
v 0.14873300 0.28261500 0.17609200
v 0.10478700 0.23162100 0.06871940
v 0.11290000 0.23187700 0.06583000
v 0.11615900 0.22115100 0.07107540
v 0.10717300 0.22088000 0.07393690
v 0.12959600 0.13581900 0.02742670
v 0.13244100 0.13578000 0.02533140
v 0.13296400 0.12613300 0.02753770
v 0.13051500 0.12606400 0.02944540
v 0.14178800 0.30502000 0.17782700
v 0.24251400 0.19954300 0.45419600
v 0.14171200 0.29919000 0.17762700
v 0.10879600 0.23754000 0.06716080
v 0.25354200 0.16859900 0.46163700
v 0.27813100 0.17881800 0.44071600
v 0.25407500 0.18354500 0.46581800
v 0.27453300 0.19153400 0.44907500
v 0.35032800 0.29664300 0.17611800
v 0.36782300 0.29618400 0.18204500
v 0.35220900 0.28220800 0.17745100
v 0.36954200 0.28176900 0.18298600
v 0.38674800 0.23622300 0.06615100
v 0.39490600 0.23600900 0.06891470
v 0.39271500 0.22519700 0.07407070
v 0.38363600 0.22542000 0.07133190
v 0.36733200 0.14038300 0.02500000
v 0.37166500 0.14033200 0.02718030
v 0.37104900 0.13065700 0.02888300
v 0.36699800 0.13068400 0.02713520
v 0.35910100 0.30804400 0.17899500
v 0.26428100 0.19912800 0.45749800
v 0.35906100 0.30256100 0.17916300
v 0.39081300 0.24226300 0.06761490
v 0.25368300 0.16631300 0.48208000
v 0.22670300 0.17277800 0.48396900
v 0.25433000 0.18012000 0.48603600
v 0.23442900 0.18697100 0.48516100
v 0.07971480 0.27522100 0.67737600
v 0.06415870 0.27598200 0.66434500
v 0.07510710 0.25934100 0.67846400
v 0.05955070 0.25998600 0.66550500
v 0.04248980 0.31736000 0.82661700
v 0.03435160 0.31775800 0.81979900
v 0.03380110 0.30790500 0.81429700
v 0.04376890 0.30729100 0.81666000
v 0.08367500 0.16061700 0.95773800
v 0.07842490 0.16164400 0.95978700
v 0.07657640 0.15095600 0.96069600
v 0.08165870 0.15122100 0.95813000
v 0.07229120 0.28822000 0.67099600
v 0.24445500 0.19616400 0.48485900
v 0.03859020 0.32360400 0.82300300
v 0.07194520 0.28178000 0.67087400
v 0.27307400 0.17066000 0.48338400
v 0.25365100 0.16636700 0.48221300
v 0.27526700 0.18740100 0.48625700
v 0.25427000 0.17997300 0.48602200
v 0.44520700 0.26528900 0.67707700
v 0.43022100 0.26564800 0.68934000
v 0.44824600 0.25329600 0.67833200
v 0.43327500 0.25374800 0.69053000
v 0.47497500 0.30316700 0.83103900
v 0.46675400 0.30336400 0.83776600
v 0.46551600 0.29512700 0.83701600
v 0.47426400 0.29313500 0.83086700
v 0.42377400 0.15173700 0.97397100
v 0.41924200 0.15124300 0.97157800
v 0.41892100 0.14197000 0.97194000
v 0.42484500 0.14075900 0.97500000
v 0.43746700 0.27757100 0.68343500
v 0.26470500 0.19573400 0.48603000
v 0.47096400 0.30898700 0.83451700
v 0.43781300 0.27119000 0.68332200
v 0.25352600 0.16843400 0.46175600
v 0.27512000 0.17440500 0.46409000
v 0.25413500 0.18391700 0.46619000
v 0.26880200 0.18862400 0.46595400
v 0.40474600 0.24174800 0.33484000
v 0.41768600 0.23755300 0.34882700
v 0.40064500 0.22969800 0.33619000
v 0.41354300 0.22544100 0.35011400
v 0.45537700 0.16366300 0.24218100
v 0.46391700 0.16089400 0.25141200
v 0.46121300 0.15313000 0.25433300
v 0.45478400 0.15499700 0.24336900
v 0.47169800 0.08727270 0.20885000
v 0.47563100 0.08599730 0.21310200
v 0.47322600 0.07890920 0.21292900
v 0.46932700 0.08015660 0.20907200
v 0.26155400 0.19824800 0.46599300
v 0.41121500 0.25163000 0.34183500
v 0.41134800 0.24605100 0.34172600
v 0.45960500 0.16864200 0.24683900
v 0.23272000 0.17392600 0.46355400
v 0.25365200 0.16835800 0.46190100
v 0.23312300 0.19010800 0.46608500
v 0.25378800 0.18380300 0.46308600
v 0.08862770 0.23779900 0.35146800
v 0.10125900 0.24111600 0.33697400
v 0.09216120 0.22920800 0.35313300
v 0.10494600 0.23255700 0.33883200
v 0.03728390 0.16135200 0.25724200
v 0.04562070 0.16354100 0.24767600
v 0.04751020 0.15442900 0.24750000
v 0.03959520 0.15319900 0.25865100
v 0.02500000 0.08524800 0.22124200
v 0.02885260 0.08625970 0.21682200
v 0.03103250 0.07908810 0.21715900
v 0.02739360 0.07805700 0.22131500
v 0.24343800 0.19990900 0.46458000
v 0.09493200 0.25240300 0.34420600
v 0.09498230 0.24701400 0.34425100
v 0.04149120 0.17000300 0.25248900
v 0.26317800 0.17109600 0.46282300
v 0.26326200 0.16835700 0.48284300
v 0.26654700 0.18750100 0.46600300
v 0.26682300 0.18425500 0.48532100
v 0.39280400 0.21038100 0.47095900
v 0.39255600 0.20638300 0.49005400
v 0.38821600 0.19926500 0.46950900
v 0.38819400 0.19518500 0.48852900
v 0.43898400 0.11407700 0.45988500
v 0.43882000 0.11143800 0.47248700
v 0.43288100 0.10692000 0.47343800
v 0.43292200 0.11108400 0.45876100
v 0.44627900 0.03275220 0.46834700
v 0.44620300 0.03153670 0.47415200
v 0.44490500 0.02987570 0.47245200
v 0.44475000 0.03112120 0.46696900
v 0.39525200 0.22060300 0.48048700
v 0.26927300 0.19830500 0.47589600
v 0.39384800 0.21447100 0.48050100
v 0.44030100 0.11882900 0.46618000
v 0.24342000 0.16896700 0.48288400
v 0.24448000 0.17090800 0.46266900
v 0.23973400 0.18577200 0.48454700
v 0.24035300 0.18720000 0.46581200
v 0.11448300 0.20415900 0.48772000
v 0.11449300 0.20720100 0.46844800
v 0.11818500 0.19707400 0.48707800
v 0.11818600 0.20020600 0.46786000
v 0.06946670 0.10794000 0.47339600
v 0.06947340 0.10994800 0.46067700
v 0.07866850 0.10650000 0.46041400
v 0.07850780 0.10328700 0.47527400
v 0.06479790 0.02688960 0.47667700
v 0.06480100 0.02781440 0.47081900
v 0.06777500 0.02597550 0.47068800
v 0.06754420 0.02500000 0.47647900
v 0.11177700 0.21729200 0.47803900
v 0.23727500 0.19864700 0.47551800
v 0.11296700 0.21200700 0.47805500
v 0.06818280 0.11527400 0.46700800
v 0.25453700 0.23064700 0.39997000
v 0.26076000 0.23064700 0.40356300
v 0.25453700 0.23783200 0.39997000
v 0.26076000 0.23783200 0.40356300
v 0.27391600 0.23783200 0.36981100
v 0.28013600 0.23783200 0.37000200
v 0.27391600 0.23064700 0.36981100
v 0.28013600 0.23064700 0.37000200
v 0.26472900 0.22787300 0.35009800
v 0.26842000 0.22787300 0.35021600
v 0.26842000 0.22068800 0.35021600
v 0.26472900 0.22068800 0.35009800
v 0.24605200 0.23101200 0.40167300
v 0.25164200 0.23101200 0.39844600
v 0.24605200 0.23746600 0.40167300
v 0.25164200 0.23746600 0.39844600
v 0.22864700 0.23746600 0.37152600
v 0.23424600 0.23746600 0.37171000
v 0.22864700 0.23101200 0.37152600
v 0.23424600 0.23101200 0.37171000
v 0.23835600 0.22750700 0.35181100
v 0.24166300 0.22750700 0.35191100
v 0.24166300 0.22105300 0.35191100
v 0.23835600 0.22105300 0.35181100
v 0.30170500 0.23050500 0.43408700
v 0.27581600 0.24032600 0.39292100
v 0.25376500 0.24495500 0.39288300
v 0.23171500 0.24032600 0.39292100
v 0.20582600 0.23050500 0.43408700
v 0.19194000 0.23050500 0.46817900
v 0.22558100 0.22745700 0.54264800
v 0.25376500 0.22745700 0.54264800
v 0.28195000 0.22745700 0.54264800
v 0.31559000 0.23050500 0.46817900
v 0.25376500 0.25165300 0.46532000
v 0.27190300 0.19690200 0.49218700
v 0.27261800 0.19690200 0.45549800
v 0.28195000 0.20747600 0.54264800
v 0.26539300 0.20747600 0.54264800
v 0.25376500 0.20747600 0.54264800
v 0.24213800 0.20747600 0.54264800
v 0.22558100 0.20747600 0.54264800
v 0.23562800 0.19690200 0.49218700
v 0.23491300 0.19690200 0.45549800
v 0.25263600 0.22305500 0.39295900
v 0.24439600 0.17090000 0.46264800
v 0.24364300 0.16894400 0.48289300
v 0.26313500 0.17112600 0.46279900
v 0.26332300 0.16837900 0.48278000
v 0.27570300 0.21944200 0.42234700
v 0.26260800 0.20999700 0.42422900
v 0.26486600 0.22956400 0.39295900
v 0.27826200 0.23754200 0.40462400
v 0.28714200 0.21372300 0.44481200
v 0.23111300 0.21936700 0.42264800
v 0.24153600 0.22956400 0.39295900
v 0.24375600 0.20999700 0.42422900
v 0.22038800 0.21372300 0.44481200
v 0.22964500 0.23754200 0.40526300
v 0.31005900 0.22309200 0.50524400
v 0.30926900 0.22900000 0.50528200
v 0.28195000 0.21748500 0.54264800
v 0.30926900 0.21899100 0.50528200
v 0.19747200 0.22309200 0.50524400
v 0.19826200 0.22900000 0.50528200
v 0.19826200 0.21899100 0.50528200
v 0.22558100 0.21748500 0.54264800
v 0.25376500 0.16725000 0.47254400
v 0.26321000 0.16969600 0.47246900
v 0.25376500 0.16642300 0.48206500
v 0.24390600 0.17003500 0.47246900
v 0.25350200 0.16845500 0.46155700
f 2 12 1
f 1 12 11
f 2 3 12
f 3 13 12
f 6 19 18
f 12 23 11
f 11 23 22
f 23 12 24
f 24 12 25
f 12 13 25
f 13 26 25
f 4 5 16
f 28 16 29
f 16 5 29
f 17 29 6
f 29 5 6
f 8 20 7
f 31 30 20
f 20 30 7
f 19 6 30
f 30 6 7
f 31 20 32
f 33 32 21
f 8 9 20
f 32 20 21
f 20 9 21
f 9 10 21
f 34 33 22
f 33 21 22
f 22 21 11
f 21 10 11
f 22 23 34
f 23 35 34
f 26 37 25
f 25 37 36
f 37 26 38
f 38 26 27
f 26 13 27
f 13 14 27
f 28 39 16
f 38 27 39
f 4 16 15
f 39 27 16
f 16 27 15
f 27 14 15
f 17 18 41
f 19 43 18
f 41 18 42
f 42 18 43
f 34 35 46
f 35 47 46
f 25 36 24
f 23 24 35
f 49 48 36
f 36 48 24
f 48 47 24
f 47 35 24
f 37 50 36
f 36 50 49
f 28 29 40
f 53 40 54
f 40 29 54
f 29 17 54
f 17 41 54
f 54 41 55
f 55 41 56
f 41 42 56
f 57 56 43
f 42 43 56
f 31 44 30
f 59 58 44
f 44 58 30
f 30 58 19
f 19 58 43
f 58 57 43
f 33 45 32
f 59 44 60
f 62 61 45
f 45 61 32
f 32 61 31
f 31 61 44
f 61 60 44
f 64 63 46
f 46 63 34
f 33 34 45
f 45 34 62
f 63 62 34
f 46 47 64
f 47 65 64
f 50 67 49
f 49 67 66
f 67 50 68
f 50 37 68
f 38 51 37
f 51 69 37
f 68 37 69
f 38 39 51
f 53 52 40
f 69 51 70
f 51 39 70
f 39 28 70
f 70 28 52
f 28 40 52
f 64 65 77
f 65 78 77
f 47 48 65
f 49 66 48
f 78 65 79
f 65 48 79
f 79 48 80
f 48 66 80
f 67 81 66
f 66 81 80
f 52 53 71
f 85 84 72
f 83 71 84
f 71 53 84
f 53 54 84
f 84 54 72
f 87 86 73
f 85 72 86
f 54 55 72
f 72 55 86
f 55 56 86
f 86 56 73
f 87 73 88
f 58 74 57
f 89 88 74
f 74 88 57
f 57 88 56
f 88 73 56
f 60 75 59
f 89 74 90
f 91 90 75
f 75 90 59
f 59 90 58
f 90 74 58
f 93 92 76
f 60 61 75
f 91 75 92
f 62 76 61
f 75 61 92
f 92 61 76
f 95 94 77
f 77 94 64
f 93 76 94
f 62 63 76
f 64 94 63
f 94 76 63
f 77 78 95
f 78 96 95
f 81 98 80
f 80 98 97
f 98 81 99
f 67 68 81
f 100 99 82
f 69 82 68
f 81 68 99
f 99 68 82
f 100 82 101
f 52 71 70
f 83 101 71
f 69 70 82
f 82 70 101
f 101 70 71
f 95 96 108
f 96 109 108
f 80 97 79
f 78 79 96
f 109 96 110
f 96 79 110
f 110 79 111
f 79 97 111
f 98 112 97
f 97 112 111
f 85 103 84
f 116 115 103
f 103 115 84
f 114 102 115
f 115 102 84
f 102 83 84
f 87 104 86
f 118 117 104
f 104 117 86
f 85 86 103
f 86 117 103
f 117 116 103
f 118 104 119
f 87 88 104
f 104 88 119
f 89 105 88
f 88 105 119
f 119 105 120
f 89 90 105
f 120 105 121
f 105 90 121
f 122 121 106
f 121 90 106
f 90 91 106
f 93 107 92
f 124 123 107
f 107 123 92
f 91 92 106
f 92 123 106
f 123 122 106
f 126 125 108
f 95 108 94
f 108 125 94
f 124 107 125
f 125 107 94
f 107 93 94
f 108 109 126
f 109 127 126
f 112 129 111
f 111 129 128
f 129 112 130
f 98 99 112
f 100 113 99
f 131 130 113
f 112 99 130
f 130 99 113
f 131 113 132
f 100 101 113
f 113 101 132
f 83 102 101
f 101 102 132
f 132 102 114
f 126 127 139
f 127 140 139
f 109 110 127
f 127 110 140
f 140 110 141
f 141 110 142
f 142 110 128
f 110 111 128
f 129 143 128
f 128 143 142
f 116 134 115
f 145 133 146
f 147 146 134
f 134 146 115
f 146 133 115
f 133 114 115
f 118 135 117
f 149 148 135
f 135 148 117
f 147 134 148
f 148 134 117
f 134 116 117
f 118 119 135
f 149 135 150
f 135 119 150
f 151 150 136
f 150 119 136
f 119 120 136
f 120 121 136
f 153 152 137
f 151 136 152
f 136 121 152
f 152 121 137
f 121 122 137
f 155 154 138
f 124 138 123
f 138 154 123
f 153 137 154
f 154 137 123
f 137 122 123
f 157 156 139
f 155 138 156
f 126 139 125
f 139 156 125
f 156 138 125
f 138 124 125
f 140 158 139
f 139 158 157
f 142 143 159
f 143 160 159
f 160 143 161
f 162 161 144
f 129 130 143
f 143 130 161
f 161 130 144
f 130 131 144
f 162 144 163
f 131 132 144
f 144 132 163
f 145 163 133
f 163 132 133
f 132 114 133
f 157 158 170
f 158 171 170
f 171 158 172
f 173 172 159
f 140 141 158
f 158 141 172
f 141 142 172
f 172 142 159
f 160 174 159
f 159 174 173
f 147 165 146
f 178 177 165
f 176 164 177
f 165 177 146
f 177 164 146
f 164 145 146
f 178 165 179
f 149 166 148
f 180 179 166
f 166 179 148
f 148 179 147
f 179 165 147
f 182 181 167
f 149 150 166
f 180 166 181
f 166 150 181
f 150 151 181
f 181 151 167
f 182 167 183
f 151 152 167
f 184 183 168
f 167 152 183
f 183 152 168
f 152 153 168
f 155 169 154
f 184 168 185
f 186 185 169
f 169 185 154
f 185 168 154
f 168 153 154
f 157 170 156
f 188 187 170
f 170 187 156
f 155 156 169
f 156 187 169
f 187 186 169
f 171 189 170
f 170 189 188
f 173 174 190
f 174 191 190
f 160 161 174
f 191 174 192
f 174 161 192
f 162 175 161
f 161 175 192
f 192 175 193
f 162 163 175
f 193 175 194
f 176 194 164
f 175 163 194
f 194 163 164
f 163 145 164
f 188 189 195
f 189 196 195
f 171 172 189
f 173 190 172
f 196 189 197
f 189 172 197
f 172 190 197
f 197 190 198
f 191 199 190
f 190 199 198
f 207 206 196
f 195 196 206
f 208 198 209
f 198 199 209
f 178 201 177
f 176 177 200
f 177 201 200
f 201 213 200
f 213 212 200
f 212 211 200
f 178 179 201
f 180 202 179
f 179 202 201
f 202 215 201
f 215 214 201
f 214 213 201
f 182 203 181
f 180 181 202
f 181 203 202
f 202 203 215
f 215 203 216
f 203 217 216
f 182 183 203
f 184 204 183
f 183 204 203
f 203 204 217
f 217 204 218
f 204 219 218
f 184 185 204
f 186 205 185
f 185 205 204
f 205 221 204
f 221 220 204
f 220 219 204
f 223 222 206
f 188 195 187
f 186 187 205
f 187 195 205
f 195 206 205
f 206 222 205
f 222 221 205
f 206 207 223
f 207 224 223
f 196 197 207
f 198 208 197
f 226 225 208
f 224 207 225
f 197 208 207
f 225 207 208
f 209 227 208
f 208 227 226
f 227 209 228
f 191 192 199
f 193 210 192
f 192 210 199
f 199 210 209
f 209 210 228
f 210 229 228
f 193 194 210
f 176 200 194
f 194 200 210
f 210 200 229
f 229 200 230
f 200 211 230
f 221 222 220
f 225 226 224
f 229 230 228
f 222 223 220
f 228 230 227
f 211 212 230
f 213 214 212
f 215 216 214
f 217 218 216
f 219 220 218
f 224 226 223
f 227 230 226
f 220 223 218
f 212 214 230
f 216 218 214
f 223 226 218
f 218 226 214
f 214 226 230
f 248 233 234
f 231 232 233
f 233 232 234
f 236 247 234
f 234 247 248
f 243 244 246
f 246 244 245
f 232 231 238
f 238 231 237
f 232 238 234
f 238 236 234
f 231 233 237
f 235 237 233
f 236 249 247
f 247 249 235
f 239 235 250
f 249 250 235
f 241 240 238
f 238 240 236
f 237 242 238
f 238 242 241
f 242 237 239
f 239 237 235
f 244 243 240
f 250 240 239
f 240 243 239
f 240 241 244
f 244 241 245
f 245 241 246
f 246 241 242
f 239 243 242
f 242 243 246
f 248 247 233
f 233 247 235
f 240 250 236
f 249 236 250
f 268 253 254
f 252 254 251
f 251 254 253
f 264 265 263
f 263 265 266
f 251 257 252
f 252 257 258
f 254 252 256
f 252 258 256
f 253 255 251
f 255 257 251
f 256 269 267
f 267 269 255
f 261 260 258
f 258 260 256
f 258 257 261
f 261 257 262
f 262 257 259
f 259 257 255
f 263 259 264
f 270 260 259
f 264 259 260
f 260 261 264
f 264 261 265
f 261 262 265
f 265 262 266
f 259 263 262
f 262 263 266
f 255 253 267
f 267 253 268
f 268 254 267
f 267 254 256
f 260 270 256
f 269 256 270
f 259 255 270
f 269 270 255
f 288 273 274
f 272 274 271
f 271 274 273
f 276 287 274
f 274 287 288
f 285 286 284
f 284 286 283
f 278 272 277
f 277 272 271
f 274 272 276
f 276 272 278
f 277 271 275
f 275 271 273
f 276 290 287
f 287 290 275
f 276 278 280
f 280 278 281
f 278 277 281
f 281 277 282
f 275 279 277
f 279 282 277
f 289 280 279
f 280 284 279
f 279 284 283
f 285 284 281
f 281 284 280
f 281 282 285
f 282 286 285
f 286 282 283
f 282 279 283
f 287 275 288
f 288 275 273
f 290 289 275
f 289 279 275
f 280 289 276
f 289 290 276
f 308 293 294
f 294 293 292
f 292 293 291
f 306 303 305
f 305 303 304
f 297 298 291
f 291 298 292
f 294 292 296
f 292 298 296
f 297 291 295
f 295 291 293
f 310 296 309
f 309 296 300
f 295 307 310
f 307 296 310
f 301 300 298
f 298 300 296
f 297 302 298
f 298 302 301
f 302 297 299
f 299 297 295
f 304 303 300
f 309 300 299
f 299 300 303
f 300 301 304
f 304 301 305
f 302 306 301
f 301 306 305
f 299 303 302
f 302 303 306
f 295 293 307
f 307 293 308
f 307 308 296
f 296 308 294
f 299 295 309
f 309 295 310
f 327 313 314
f 311 312 313
f 313 312 314
f 313 327 315
f 327 328 315
f 323 324 326
f 326 324 325
f 311 317 312
f 312 317 318
f 316 314 318
f 318 314 312
f 311 313 317
f 317 313 315
f 316 329 328
f 328 329 315
f 316 318 320
f 320 318 321
f 322 321 317
f 317 321 318
f 315 319 317
f 317 319 322
f 330 320 319
f 319 320 323
f 323 320 324
f 325 324 321
f 321 324 320
f 321 322 325
f 325 322 326
f 326 322 323
f 323 322 319
f 328 327 316
f 316 327 314
f 320 330 316
f 329 316 330
f 319 315 330
f 329 330 315
f 347 333 334
f 332 334 331
f 331 334 333
f 343 344 346
f 346 344 345
f 332 331 338
f 338 331 337
f 332 338 334
f 334 338 336
f 331 333 337
f 333 335 337
f 335 348 349
f 348 336 349
f 339 335 350
f 349 350 335
f 341 340 338
f 340 336 338
f 341 338 342
f 342 338 337
f 335 339 337
f 337 339 342
f 350 340 339
f 339 340 343
f 343 340 344
f 340 341 344
f 344 341 345
f 342 346 341
f 341 346 345
f 346 342 343
f 343 342 339
f 334 336 347
f 347 336 348
f 348 335 347
f 347 335 333
f 340 350 336
f 349 336 350
f 368 353 354
f 352 354 351
f 351 354 353
f 364 365 363
f 363 365 366
f 351 357 352
f 352 357 358
f 352 358 354
f 354 358 356
f 351 353 357
f 357 353 355
f 356 369 367
f 367 369 355
f 359 355 370
f 369 370 355
f 356 358 360
f 360 358 361
f 361 358 362
f 358 357 362
f 355 359 357
f 357 359 362
f 364 363 360
f 370 360 359
f 363 359 360
f 365 364 361
f 360 361 364
f 362 366 361
f 361 366 365
f 359 363 362
f 362 363 366
f 367 355 368
f 368 355 353
f 367 368 356
f 356 368 354
f 360 370 356
f 369 356 370
f 388 373 374
f 371 372 373
f 373 372 374
f 384 385 383
f 383 385 386
f 371 377 372
f 377 378 372
f 372 378 374
f 374 378 376
f 371 373 377
f 377 373 375
f 376 389 387
f 387 389 375
f 376 378 380
f 380 378 381
f 378 377 381
f 381 377 382
f 375 379 377
f 377 379 382
f 383 379 384
f 390 380 379
f 379 380 384
f 385 384 381
f 381 384 380
f 381 382 385
f 385 382 386
f 379 383 382
f 382 383 386
f 373 388 375
f 375 388 387
f 374 376 388
f 388 376 387
f 380 390 376
f 389 376 390
f 379 375 390
f 389 390 375
f 391 392 393
f 392 394 393
f 393 394 395
f 394 396 395
f 399 400 402
f 400 401 402
f 391 397 392
f 397 398 392
f 392 398 394
f 398 396 394
f 397 391 395
f 391 393 395
f 396 400 395
f 395 400 399
f 396 398 400
f 398 401 400
f 398 397 401
f 397 402 401
f 395 399 397
f 397 399 402
f 403 404 405
f 404 406 405
f 406 408 405
f 405 408 407
f 411 412 414
f 412 413 414
f 404 403 410
f 409 410 403
f 404 410 406
f 410 408 406
f 409 403 407
f 403 405 407
f 407 408 411
f 408 412 411
f 408 410 412
f 410 413 412
f 409 414 410
f 410 414 413
f 407 411 409
f 409 411 414
f 416 417 443
f 417 425 443
f 443 425 415
f 415 425 424
f 427 441 444
f 444 441 440
f 418 449 417
f 417 449 425
f 425 449 419
f 425 419 420
f 446 445 418
f 445 449 418
f 421 425 455
f 425 420 455
f 425 421 422
f 435 441 447
f 427 434 441
f 441 434 447
f 431 433 430
f 429 430 426
f 430 433 426
f 432 433 431
f 426 428 429
f 421 431 422
f 431 430 422
f 423 422 429
f 422 430 429
f 423 451 425
f 451 424 425
f 422 423 425
f 427 424 426
f 426 424 453
f 426 453 428
f 427 444 424
f 424 444 415
f 453 424 450
f 424 451 450
f 423 429 452
f 452 429 428
f 421 457 431
f 431 457 432
f 434 433 420
f 420 433 456
f 433 432 456
f 421 455 457
f 457 455 454
f 434 420 448
f 420 419 448
f 416 442 417
f 442 446 417
f 417 446 418
f 442 435 446
f 462 438 458
f 438 459 458
f 434 436 433
f 436 461 433
f 433 461 437
f 434 427 436
f 436 427 462
f 427 438 462
f 427 426 438
f 438 426 459
f 426 439 459
f 433 437 426
f 437 460 426
f 460 439 426
f 441 435 440
f 435 442 440
f 442 416 440
f 443 440 416
f 443 415 440
f 440 415 444
f 435 447 446
f 446 447 445
f 434 448 447
f 447 448 445
f 449 445 419
f 419 445 448
f 423 452 451
f 451 452 450
f 452 428 450
f 450 428 453
f 456 454 420
f 455 420 454
f 457 454 432
f 432 454 456
f 439 460 459
f 459 460 458
f 437 461 460
f 460 461 458
f 462 458 436
f 461 436 458
f 6 18 17
f 6 17 6
f 6 6 5
f 6 5 4
f 6 4 15
f 6 15 14
f 6 14 13
f 6 13 3
f 6 3 2
f 6 2 1
f 6 1 11
f 6 11 10
f 6 10 9
f 6 9 8
f 6 8 7

