# https://github.com/mikedh/trimesh

o m10.off
v 0.46930600 0.48863700 0.17191700
v 0.46964800 0.48854400 0.16985600
v 0.46881800 0.49317700 0.16985600
v 0.46892800 0.48904100 0.17383800
v 0.46854500 0.48972700 0.17548800
v 0.46817800 0.49064800 0.17675500
v 0.46785700 0.49174000 0.17755100
v 0.46760000 0.49293200 0.17782300
v 0.46742700 0.49413900 0.17755100
v 0.46734900 0.49528100 0.17675500
v 0.46736900 0.49628000 0.17548800
v 0.46749000 0.49706900 0.17383800
v 0.46770000 0.49759100 0.17191700
v 0.46798700 0.49781300 0.16985600
v 0.46833100 0.49772000 0.16779300
v 0.46870700 0.49731600 0.16587200
v 0.46909200 0.49663000 0.16422200
v 0.46945600 0.49570900 0.16295500
v 0.46978000 0.49461700 0.16215900
v 0.47003500 0.49342500 0.16189000
v 0.47021000 0.49221800 0.16215900
v 0.47028800 0.49107600 0.16295500
v 0.47026500 0.49007700 0.16422200
v 0.47014600 0.48928800 0.16587200
v 0.46993400 0.48876500 0.16779300
v 0.45031100 0.47974200 0.16240500
v 0.44992800 0.47926800 0.15731900
v 0.45066800 0.48113200 0.16714400
v 0.45097500 0.48334100 0.17121400
v 0.45120900 0.48622300 0.17433500
v 0.45135800 0.48957800 0.17629900
v 0.45140800 0.49317700 0.17696900
v 0.45135800 0.49677800 0.17629900
v 0.45120900 0.50013400 0.17433500
v 0.45097500 0.50301500 0.17121400
v 0.45066800 0.50522500 0.16714400
v 0.45031100 0.50661400 0.16240500
v 0.44992800 0.50708900 0.15731900
v 0.44954500 0.50661400 0.15223400
v 0.44918700 0.50522500 0.14749500
v 0.44888100 0.50301500 0.14342500
v 0.44864600 0.50013400 0.14030200
v 0.44849700 0.49677800 0.13834000
v 0.44844700 0.49317700 0.13767000
v 0.44849700 0.48957800 0.13834000
v 0.44864600 0.48622300 0.14030200
v 0.44888100 0.48334100 0.14342500
v 0.44918700 0.48113200 0.14749500
v 0.44954500 0.47974200 0.15223400
v 0.38960500 0.47804800 0.15180100
v 0.38997500 0.47751400 0.14602900
v 0.38925700 0.47961200 0.15717800
v 0.38896100 0.48210300 0.16179700
v 0.38873200 0.48534700 0.16534000
v 0.38858900 0.48912400 0.16756800
v 0.38854100 0.49317700 0.16832900
v 0.38858900 0.49723200 0.16756800
v 0.38873200 0.50101000 0.16534000
v 0.38896100 0.50425400 0.16179700
v 0.38925700 0.50674500 0.15717800
v 0.38960500 0.50830900 0.15180100
v 0.38997500 0.50884300 0.14602900
v 0.39034700 0.50830900 0.14025700
v 0.39069300 0.50674500 0.13488000
v 0.39099100 0.50425400 0.13026100
v 0.39121700 0.50101000 0.12671600
v 0.39136300 0.49723200 0.12449000
v 0.39141100 0.49317700 0.12372900
v 0.39136300 0.48912400 0.12449000
v 0.39121700 0.48534700 0.12671600
v 0.39099100 0.48210300 0.13026100
v 0.39069300 0.47961200 0.13488000
v 0.39034700 0.47804800 0.14025700
v 0.33004800 0.47537900 0.14589000
v 0.32986000 0.47475000 0.13909100
v 0.33022500 0.47722000 0.15222500
v 0.33037600 0.48014800 0.15766400
v 0.33049100 0.48396500 0.16183900
v 0.33056300 0.48840800 0.16446200
v 0.33058800 0.49317700 0.16535900
v 0.33056300 0.49794800 0.16446200
v 0.33049100 0.50239200 0.16183900
v 0.33037600 0.50620900 0.15766400
v 0.33022500 0.50913600 0.15222500
v 0.33004800 0.51097800 0.14589000
v 0.32986000 0.51160700 0.13909100
v 0.32967300 0.51097800 0.13229300
v 0.32949800 0.50913600 0.12595700
v 0.32934700 0.50620900 0.12051700
v 0.32923000 0.50239200 0.11634300
v 0.32915700 0.49794800 0.11371800
v 0.32913300 0.49317700 0.11282400
v 0.32915700 0.48840800 0.11371800
v 0.32923000 0.48396500 0.11634300
v 0.32934700 0.48014800 0.12051700
v 0.32949800 0.47722000 0.12595700
v 0.32967300 0.47537900 0.13229300
v 0.26959300 0.47537900 0.14746300
v 0.26898300 0.47475000 0.14070200
v 0.27016200 0.47722000 0.15376300
v 0.27065200 0.48014800 0.15917400
v 0.27102500 0.48396500 0.16332600
v 0.27126200 0.48840800 0.16593500
v 0.27134200 0.49317700 0.16682600
v 0.27126200 0.49794800 0.16593500
v 0.27102500 0.50239200 0.16332600
v 0.27065200 0.50620900 0.15917400
v 0.27016200 0.50913600 0.15376300
v 0.26959300 0.51097800 0.14746300
v 0.26898300 0.51160700 0.14070200
v 0.26837300 0.51097800 0.13394100
v 0.26780400 0.50913600 0.12763900
v 0.26731500 0.50620900 0.12222800
v 0.26693900 0.50239200 0.11807600
v 0.26670500 0.49794800 0.11546700
v 0.26662300 0.49317700 0.11457800
v 0.26670500 0.48840800 0.11546700
v 0.26693900 0.48396500 0.11807600
v 0.26731500 0.48014800 0.12222800
v 0.26780400 0.47722000 0.12763900
v 0.26837300 0.47537900 0.13394100
v 0.23807700 0.47537900 0.15506100
v 0.23746500 0.47475000 0.14830000
v 0.23864400 0.47722000 0.16136100
v 0.23913300 0.48014800 0.16677200
v 0.23950900 0.48396500 0.17092400
v 0.23974300 0.48840800 0.17353300
v 0.23982500 0.49317700 0.17442400
v 0.23974300 0.49794800 0.17353300
v 0.23950900 0.50239200 0.17092400
v 0.23913300 0.50620900 0.16677200
v 0.23864400 0.50913600 0.16136100
v 0.23807700 0.51097800 0.15506100
v 0.23746500 0.51160700 0.14830000
v 0.23685500 0.51097800 0.14153700
v 0.23628600 0.50913600 0.13523700
v 0.23579600 0.50620900 0.12982600
v 0.23542200 0.50239200 0.12567500
v 0.23518600 0.49794800 0.12306500
v 0.23510600 0.49317700 0.12217400
v 0.23518600 0.48840800 0.12306500
v 0.23542200 0.48396500 0.12567500
v 0.23579600 0.48014800 0.12982600
v 0.23628600 0.47722000 0.13523700
v 0.23685500 0.47537900 0.14153700
v 0.20872200 0.47823600 0.16235500
v 0.20812600 0.47770900 0.15685400
v 0.20927600 0.47978100 0.16747900
v 0.20975400 0.48224000 0.17187800
v 0.21011900 0.48544300 0.17525600
v 0.21034900 0.48917500 0.17737800
v 0.21042700 0.49317700 0.17810200
v 0.21034900 0.49718200 0.17737800
v 0.21011900 0.50091300 0.17525600
v 0.20975400 0.50411600 0.17187800
v 0.20927600 0.50657500 0.16747900
v 0.20872200 0.50812100 0.16235500
v 0.20812600 0.50864700 0.15685400
v 0.20753100 0.50812100 0.15135600
v 0.20697700 0.50657500 0.14623200
v 0.20649900 0.50411600 0.14183100
v 0.20613400 0.50091300 0.13845500
v 0.20590400 0.49718200 0.13633300
v 0.20582600 0.49317700 0.13560900
v 0.20590400 0.48917500 0.13633300
v 0.20613400 0.48544300 0.13845500
v 0.20649900 0.48224000 0.14183100
v 0.20697700 0.47978100 0.14623200
v 0.20753100 0.47823600 0.15135600
v 0.18079900 0.47974200 0.17188900
v 0.17993400 0.47926800 0.16721100
v 0.18160400 0.48113200 0.17624900
v 0.18229600 0.48334100 0.17999100
v 0.18282800 0.48622300 0.18286500
v 0.18316100 0.48957800 0.18466900
v 0.18327400 0.49317700 0.18528500
v 0.18316100 0.49677800 0.18466900
v 0.18282800 0.50013400 0.18286500
v 0.18229600 0.50301500 0.17999100
v 0.18160400 0.50522500 0.17624900
v 0.18079900 0.50661400 0.17188900
v 0.17993400 0.50708900 0.16721100
v 0.17906700 0.50661400 0.16253500
v 0.17826200 0.50522500 0.15817500
v 0.17757000 0.50301500 0.15443300
v 0.17703800 0.50013400 0.15155900
v 0.17670500 0.49677800 0.14975500
v 0.17659100 0.49317700 0.14913700
v 0.17670500 0.48957800 0.14975500
v 0.17703800 0.48622300 0.15155900
v 0.17757000 0.48334100 0.15443300
v 0.17826200 0.48113200 0.15817500
v 0.17906700 0.47974200 0.16253500
v 0.14936800 0.49239600 0.18289900
v 0.14850300 0.49236800 0.18262700
v 0.15017500 0.49247800 0.18315400
v 0.15086700 0.49260600 0.18337100
v 0.15139700 0.49277400 0.18353900
v 0.15173200 0.49296900 0.18364300
v 0.15184500 0.49317700 0.18368000
v 0.15173200 0.49338800 0.18364300
v 0.15139700 0.49358300 0.18353900
v 0.15086700 0.49375000 0.18337100
v 0.15017500 0.49387900 0.18315400
v 0.14936800 0.49396000 0.18289900
v 0.14850300 0.49398800 0.18262700
v 0.14763800 0.49396000 0.18235600
v 0.14683300 0.49387900 0.18210100
v 0.14614100 0.49375000 0.18188300
v 0.14560900 0.49358300 0.18171600
v 0.14527600 0.49338800 0.18161200
v 0.14516000 0.49317700 0.18157600
v 0.14527600 0.49296900 0.18161200
v 0.14560900 0.49277400 0.18171600
v 0.14614100 0.49260600 0.18188300
v 0.14683300 0.49247800 0.18210100
v 0.14763800 0.49239600 0.18235600
v 0.14850300 0.49317700 0.18262700
v 0.30145900 0.56835800 0.16938900
v 0.30321700 0.56877700 0.16633500
v 0.30079700 0.56868700 0.16699200
v 0.29837700 0.56859800 0.16764600
v 0.30013500 0.56901700 0.16459200
v 0.30297700 0.49724900 0.15846000
v 0.29955500 0.49712300 0.15938800
v 0.29861700 0.49758800 0.15599700
v 0.30204000 0.49771400 0.15506900
v 0.30079700 0.49741800 0.15722800
v 0.30111900 0.62974700 0.22243800
v 0.30305900 0.63141500 0.22046200
v 0.30079700 0.63120700 0.22071000
v 0.29853500 0.63099900 0.22095500
v 0.30047500 0.63266700 0.21898200
v 0.30262400 0.56608500 0.16747300
v 0.29942500 0.56579100 0.16782100
v 0.29897100 0.56785600 0.16537700
v 0.30217000 0.56815000 0.16502900
v 0.30079700 0.56697100 0.16642400
v 0.24755600 0.42315300 0.16588700
v 0.24907300 0.42221900 0.16281800
v 0.24685600 0.42319200 0.16347800
v 0.24463900 0.42416400 0.16413600
v 0.24615700 0.42323100 0.16106700
v 0.27597900 0.48878400 0.15794600
v 0.27284300 0.49015900 0.15887800
v 0.27185300 0.49021400 0.15547100
v 0.27498900 0.48883800 0.15453700
v 0.27391600 0.48949800 0.15670700
v 0.22322600 0.36443700 0.21631800
v 0.22442400 0.36223600 0.21427600
v 0.22240400 0.36327400 0.21453100
v 0.22038400 0.36431200 0.21478500
v 0.22158200 0.36211200 0.21274300
v 0.24952300 0.42489000 0.16406800
v 0.24666600 0.42635500 0.16442900
v 0.24550400 0.42471300 0.16190100
v 0.24836100 0.42324500 0.16154000
v 0.24751300 0.42480000 0.16298300
v 0.30145900 0.41639300 0.16588700
v 0.30321700 0.41610300 0.16281800
v 0.30079700 0.41616400 0.16347800
v 0.29837700 0.41622800 0.16413600
v 0.30013500 0.41593700 0.16106700
v 0.30297700 0.48789700 0.15794600
v 0.29955500 0.48798600 0.15887800
v 0.29861700 0.48766400 0.15547100
v 0.30204000 0.48757500 0.15453700
v 0.30079700 0.48778100 0.15670700
v 0.30111900 0.35283700 0.21631800
v 0.30305900 0.35125300 0.21427600
v 0.30079700 0.35145000 0.21453100
v 0.29853500 0.35164700 0.21478500
v 0.30047500 0.35006400 0.21274300
v 0.30262400 0.41874400 0.16406800
v 0.29942500 0.41902300 0.16442900
v 0.29897100 0.41706300 0.16190100
v 0.30217000 0.41678400 0.16154000
v 0.30079700 0.41790300 0.16298300
v 0.23642900 0.55649100 0.16938900
v 0.23764700 0.55782500 0.16633500
v 0.23569600 0.55639100 0.16699200
v 0.23374500 0.55495500 0.16764600
v 0.23496300 0.55629000 0.16459200
v 0.27765300 0.49853100 0.15846000
v 0.27489300 0.49650100 0.15938800
v 0.27385800 0.49636000 0.15599700
v 0.27661700 0.49838900 0.15506900
v 0.27575600 0.49744400 0.15722800
v 0.20164200 0.60707300 0.22243800
v 0.20230800 0.60954300 0.22046200
v 0.20055400 0.60810000 0.22071000
v 0.19880000 0.60665600 0.22095500
v 0.19946800 0.60912700 0.21898200
v 0.23867000 0.55526500 0.16747300
v 0.23618900 0.55322500 0.16782100
v 0.23465200 0.55467600 0.16537700
v 0.23713200 0.55671800 0.16502900
v 0.23666100 0.55497200 0.16642400
v 0.37729500 0.55042000 0.16938900
v 0.37883300 0.54947300 0.16633500
v 0.37705900 0.55112100 0.16699200
v 0.37528400 0.55276900 0.16764600
v 0.37682300 0.55182100 0.16459200
v 0.32808600 0.49906400 0.15846000
v 0.32557500 0.50139500 0.15938800
v 0.32524200 0.50238600 0.15599700
v 0.32775100 0.50005600 0.15506900
v 0.32666300 0.50072500 0.15722800
v 0.42046300 0.59406800 0.22243800
v 0.42301300 0.59387600 0.22046200
v 0.42126600 0.59532900 0.22071000
v 0.41952000 0.59678200 0.22095500
v 0.42207200 0.59658800 0.21898200
v 0.37651000 0.54798900 0.16747300
v 0.37404200 0.55004300 0.16782100
v 0.37517800 0.55182400 0.16537700
v 0.37764900 0.54977100 0.16502900
v 0.37584400 0.54990700 0.16642400
v 0.36813100 0.43256800 0.16588700
v 0.36967800 0.43345000 0.16281800
v 0.36775900 0.43197500 0.16347800
v 0.36583900 0.43050000 0.16413600
v 0.36738700 0.43138100 0.16106700
v 0.32431000 0.48909500 0.15794600
v 0.32159400 0.48700800 0.15887800
v 0.32106800 0.48616900 0.15547100
v 0.32378500 0.48825400 0.15453700
v 0.32269000 0.48763100 0.15670700
v 0.40786300 0.38296300 0.21631800
v 0.41036700 0.38295300 0.21427600
v 0.40848400 0.38168300 0.21453100
v 0.40660200 0.38041300 0.21478500
v 0.40910700 0.38040300 0.21274300
v 0.36755600 0.43512900 0.16406800
v 0.36489400 0.43333200 0.16442900
v 0.36577400 0.43152300 0.16190100
v 0.36843600 0.43331900 0.16154000
v 0.36666500 0.43332700 0.16298300
v 0.87468100 0.96262500 0.03190630
v 0.88245200 0.96149400 0.03220950
v 0.89410900 0.95019100 0.03523770
v 0.86431800 0.96771200 0.03054290
v 0.84877600 0.97223400 0.02933200
v 0.82028000 0.97336300 0.02902880
v 0.77106200 0.96884100 0.03023970
v 0.71407000 0.95753800 0.03326970
v 0.89410900 0.90384800 0.04765530
v 0.66744300 0.94284400 0.03720560
v 0.64930900 0.93549700 0.03917540
v 0.63894700 0.92758400 0.04129580
v 0.87597700 0.87558800 0.05522750
v 0.61304200 0.92814900 0.04114330
v 0.59231700 0.92136800 0.04296050
v 0.58713700 0.91967300 0.04341440
v 0.57547800 0.91176100 0.04553480
v 0.57029800 0.90837000 0.04644440
v 0.54050800 0.91119500 0.04568740
v 0.56641300 0.91063000 0.04583800
v 0.87468100 0.96488500 0.03130000
v 0.84748100 0.84280900 0.06401060
v 0.51460300 0.90441300 0.04750460
v 0.50424100 0.90045700 0.04856480
v 0.49776400 0.89593500 0.04977570
v 0.48222200 0.88463200 0.05280390
v 0.48092700 0.88124100 0.05371340
v 0.82675700 0.82246200 0.06946240
v 0.45761200 0.87954500 0.05416730
v 0.43429800 0.87106800 0.05643840
v 0.42264100 0.85750300 0.06007290
v 0.42005000 0.84733100 0.06279970
v 0.76976700 0.76933700 0.08369730
v 0.41616400 0.84506900 0.06340420
v 0.70759500 0.71847100 0.09732760
v 0.37083100 0.77498800 0.08218320
v 0.62987900 0.66308500 0.11216700
v 0.33974500 0.66986600 0.11035000
v 0.55993600 0.61900200 0.12398000
v 0.48999300 0.58056900 0.13427700
v 0.44336400 0.55909300 0.14003200
v 0.43688900 0.55457200 0.14124300
v 0.42393600 0.55118100 0.14215300
v 0.41616400 0.54779000 0.14306000
v 0.41098200 0.54552800 0.14366700
v 0.31902000 0.56135300 0.13942600
v 0.40321100 0.53987700 0.14518100
v 0.38766900 0.53648700 0.14609000
v 0.40062200 0.84394000 0.06370740
v 0.42134500 0.54779000 0.14306000
v 0.38248800 0.53196500 0.14730100
v 0.36953500 0.52970500 0.14790800
v 0.36176400 0.52631400 0.14881500
v 0.36694400 0.52631400 0.14881500
v 0.35140100 0.52348700 0.14957200
v 0.36176400 0.52405200 0.14942200
v 0.41616400 0.54552800 0.14366700
v 0.31772500 0.51501100 0.15184300
v 0.31643100 0.51388000 0.15214700
v 0.31772500 0.51582900 0.15490000
v 0.31643100 0.51469800 0.15520300
v 0.31902000 0.56217200 0.14248200
v 0.33974500 0.67068500 0.11340600
v 0.37083100 0.77580700 0.08523740
v 0.40062200 0.84475800 0.06676350
v 0.41616400 0.84588900 0.06646030
v 0.42005000 0.84814900 0.06585390
v 0.42264100 0.85832200 0.06312890
v 0.43429800 0.87188700 0.05949440
v 0.45761200 0.88036300 0.05722150
v 0.48092700 0.88205900 0.05676760
v 0.48222200 0.88545000 0.05585990
v 0.49776400 0.89675400 0.05282990
v 0.50424100 0.90127600 0.05161900
v 0.51460300 0.90523200 0.05055880
v 0.54050800 0.91201400 0.04874150
v 0.56641300 0.91144800 0.04889220
v 0.57029800 0.90918800 0.04949860
v 0.57547800 0.91257900 0.04859090
v 0.58713700 0.92049200 0.04647040
v 0.59231700 0.92218600 0.04601470
v 0.61304200 0.92896800 0.04419930
v 0.63894700 0.92840200 0.04435000
v 0.64930900 0.93631500 0.04222950
v 0.66744300 0.94366200 0.04026160
v 0.71407000 0.95835800 0.03632390
v 0.77106200 0.96966000 0.03329580
v 0.82028000 0.97418200 0.03208300
v 0.84877600 0.97305300 0.03238620
v 0.86431800 0.96853100 0.03359710
v 0.87468100 0.96570500 0.03435410
v 0.87468100 0.96344400 0.03496050
v 0.88245200 0.96231300 0.03526370
v 0.89410900 0.95100900 0.03829180
v 0.89410900 0.90466600 0.05070950
v 0.87597700 0.87640700 0.05828170
v 0.84748100 0.84362700 0.06706480
v 0.82675700 0.82328200 0.07251660
v 0.76976700 0.77015600 0.08675140
v 0.70759500 0.71928900 0.10038200
v 0.62987900 0.66390300 0.11522300
v 0.55993600 0.61982000 0.12703400
v 0.48999300 0.58138800 0.13733100
v 0.44336400 0.55991200 0.14308600
v 0.43688900 0.55539000 0.14429900
v 0.42393600 0.55199900 0.14520700
v 0.42134500 0.54860800 0.14611600
v 0.41616400 0.54860800 0.14611600
v 0.41616400 0.54634700 0.14672100
v 0.41098200 0.54634700 0.14672100
v 0.40321100 0.54069600 0.14823500
v 0.38766900 0.53730500 0.14914500
v 0.38248800 0.53278300 0.15035500
v 0.36953500 0.53052300 0.15096200
v 0.36694400 0.52713200 0.15187000
v 0.36176400 0.52713200 0.15187000
v 0.36176400 0.52487100 0.15247600
v 0.35140100 0.52430500 0.15262700
v 0.31772500 0.51664700 0.15795400
v 0.31643100 0.51551600 0.15825700
v 0.31902000 0.56299000 0.14553600
v 0.33974500 0.67150300 0.11646000
v 0.37083100 0.77662500 0.08829340
v 0.40062200 0.84557700 0.06981760
v 0.41616400 0.84670800 0.06951450
v 0.42005000 0.84896700 0.06890810
v 0.42264100 0.85914000 0.06618310
v 0.43429800 0.87270500 0.06254860
v 0.45761200 0.88118100 0.06027750
v 0.48092700 0.88287800 0.05982180
v 0.48222200 0.88626900 0.05891410
v 0.49776400 0.89757200 0.05588590
v 0.50424100 0.90209400 0.05467320
v 0.51460300 0.90605000 0.05361300
v 0.54050800 0.91283200 0.05179570
v 0.56641300 0.91226600 0.05194820
v 0.57029800 0.91000700 0.05255280
v 0.57547800 0.91339700 0.05164510
v 0.58713700 0.92131000 0.04952460
v 0.59231700 0.92300400 0.04907080
v 0.61304200 0.92978600 0.04725350
v 0.63894700 0.92922300 0.04740420
v 0.64930900 0.93713300 0.04528370
v 0.66744300 0.94448000 0.04331580
v 0.71407000 0.95917700 0.03937810
v 0.77106200 0.97048000 0.03635000
v 0.82028000 0.97500000 0.03513910
v 0.84877600 0.97387100 0.03544040
v 0.86431800 0.96934900 0.03665310
v 0.87468100 0.96652400 0.03741020
v 0.87468100 0.96426200 0.03801470
v 0.88245200 0.96313300 0.03831790
v 0.89410900 0.95182800 0.04134790
v 0.89410900 0.90548500 0.05376550
v 0.87597700 0.87722500 0.06133770
v 0.84748100 0.84444600 0.07012080
v 0.82675700 0.82410100 0.07557260
v 0.76976700 0.77097400 0.08980750
v 0.70759500 0.72010800 0.10343600
v 0.62987900 0.66472100 0.11827700
v 0.55993600 0.62063800 0.13008800
v 0.48999300 0.58220600 0.14038800
v 0.44336400 0.56073000 0.14614200
v 0.43688900 0.55620800 0.14735300
v 0.42393600 0.55281800 0.14826100
v 0.42134500 0.54942700 0.14917100
v 0.41616400 0.54942700 0.14917100
v 0.41616400 0.54716700 0.14977700
v 0.41098200 0.54716700 0.14977700
v 0.40321100 0.54151400 0.15129100
v 0.38766900 0.53812300 0.15219900
v 0.38248800 0.53360200 0.15341200
v 0.36953500 0.53134200 0.15401600
v 0.36694400 0.52795100 0.15492600
v 0.36176400 0.52795100 0.15492600
v 0.36176400 0.52568900 0.15553000
v 0.35140100 0.52512400 0.15568300
v 0.18172500 0.15125200 0.05701310
v 0.19467600 0.15125200 0.05701310
v 0.20245000 0.15351900 0.05759530
v 0.17395400 0.15295200 0.05745020
v 0.16747700 0.15748700 0.05861460
v 0.21281000 0.15408700 0.05774040
v 0.38378300 0.14841900 0.05628590
v 0.21669600 0.15181900 0.05715820
v 0.26980200 0.14048400 0.05424910
v 0.25166800 0.13651900 0.05322980
v 0.22576300 0.14048400 0.05424910
v 0.23612600 0.13651900 0.05322980
v 0.27886700 0.13595100 0.05308470
v 0.33974500 0.13028400 0.05162830
v 0.32679100 0.12745100 0.05090100
v 0.28534400 0.12235100 0.04959160
v 0.29311500 0.11951600 0.04886430
v 0.30866000 0.11951600 0.04886430
v 0.37471700 0.13481900 0.05279270
v 0.33974500 0.12801600 0.05104800
v 0.34492500 0.12631600 0.05061090
v 0.36046900 0.12575100 0.05046580
v 0.38896300 0.14841900 0.05628590
v 0.39155400 0.15295200 0.05745020
v 0.39673600 0.15295200 0.05745020
v 0.39803100 0.15408700 0.05774040
v 0.16229700 0.16542200 0.06065140
v 0.37730600 0.19942500 0.06938240
v 0.15193500 0.18582300 0.06588920
v 0.14804900 0.19035700 0.06705360
v 0.11696200 0.19659000 0.06865330
v 0.10919100 0.19942500 0.06938240
v 0.10271400 0.20849300 0.07170930
v 0.09753410 0.22322600 0.07549260
v 0.08458080 0.23229400 0.07782140
v 0.35140100 0.27990000 0.09004370
v 0.03536230 0.25723100 0.08422360
v 0.02500000 0.26969900 0.08742480
v 0.02759100 0.28330000 0.09091790
v 0.32290600 0.40344500 0.12176500
v 0.28534400 0.48562200 0.14286500
v 0.31384000 0.48505500 0.14271800
v 0.24389700 0.49299000 0.14475700
v 0.22187800 0.49639000 0.14562900
v 0.23224000 0.49979000 0.14650100
v 0.22964900 0.50319000 0.14737600
v 0.23224000 0.49900300 0.14956500
v 0.22964900 0.50240300 0.15043900
v 0.22187800 0.49560300 0.14869300
v 0.02759100 0.28251300 0.09397950
v 0.02500000 0.26891200 0.09048820
v 0.03536230 0.25644500 0.08728710
v 0.08458080 0.23150900 0.08088490
v 0.09753410 0.22244100 0.07855610
v 0.10271400 0.20770600 0.07477280
v 0.10919100 0.19863800 0.07244400
v 0.11696200 0.19580400 0.07171670
v 0.14804900 0.18957100 0.07011710
v 0.15193500 0.18503600 0.06895270
v 0.16229700 0.16463500 0.06371480
v 0.16747700 0.15670000 0.06167620
v 0.17395400 0.15216700 0.06051190
v 0.18172500 0.15046700 0.06007660
v 0.19467600 0.15046700 0.06007660
v 0.20245000 0.15273300 0.06065880
v 0.21281000 0.15330000 0.06080390
v 0.21669600 0.15103300 0.06022170
v 0.22576300 0.13969900 0.05731070
v 0.23612600 0.13573200 0.05629330
v 0.25166800 0.13573200 0.05629330
v 0.26980200 0.13969900 0.05731070
v 0.27886700 0.13516500 0.05614820
v 0.28534400 0.12156400 0.05265510
v 0.29311500 0.11872900 0.05192780
v 0.30866000 0.11872900 0.05192780
v 0.32679100 0.12666400 0.05396450
v 0.33974500 0.12949700 0.05469180
v 0.33974500 0.12723100 0.05410960
v 0.34492500 0.12553100 0.05367440
v 0.36046900 0.12496400 0.05352740
v 0.37471700 0.13403200 0.05585620
v 0.38378300 0.14763200 0.05934930
v 0.38896300 0.14763200 0.05934930
v 0.39155400 0.15216700 0.06051190
v 0.39673600 0.15216700 0.06051190
v 0.39803100 0.15330000 0.06080390
v 0.37730600 0.19863800 0.07244400
v 0.35140100 0.27911300 0.09310720
v 0.32290600 0.40265900 0.12482800
v 0.31384000 0.48426800 0.14578200
v 0.28534400 0.48483500 0.14592700
v 0.24389700 0.49220300 0.14781800
v 0.23224000 0.49821600 0.15262800
v 0.22964900 0.50161600 0.15350100
v 0.22187800 0.49481600 0.15175600
v 0.02759100 0.28172600 0.09704300
v 0.02500000 0.26812600 0.09355170
v 0.03536230 0.25565800 0.09035060
v 0.08458080 0.23072200 0.08394840
v 0.09753410 0.22165400 0.08161960
v 0.10271400 0.20691900 0.07783630
v 0.10919100 0.19785200 0.07550750
v 0.11696200 0.19501900 0.07478020
v 0.14804900 0.18878400 0.07318060
v 0.15193500 0.18425100 0.07201620
v 0.16229700 0.16384800 0.06677650
v 0.16747700 0.15591300 0.06473970
v 0.17395400 0.15138000 0.06357530
v 0.18172500 0.14968000 0.06314010
v 0.19467600 0.14968000 0.06314010
v 0.20245000 0.15194800 0.06372230
v 0.21281000 0.15251300 0.06386740
v 0.21669600 0.15024600 0.06328520
v 0.22576300 0.13891200 0.06037420
v 0.23612600 0.13494500 0.05935680
v 0.25166800 0.13494500 0.05935680
v 0.26980200 0.13891200 0.06037420
v 0.27886700 0.13437800 0.05920980
v 0.28534400 0.12077700 0.05571850
v 0.29311500 0.11794200 0.05499130
v 0.30866000 0.11794200 0.05499130
v 0.32679100 0.12587700 0.05702800
v 0.33974500 0.12871000 0.05775530
v 0.33974500 0.12644500 0.05717310
v 0.34492500 0.12474500 0.05673780
v 0.36046900 0.12417700 0.05659090
v 0.37471700 0.13324500 0.05891970
v 0.38378300 0.14684600 0.06241100
v 0.38896300 0.14684600 0.06241100
v 0.39155400 0.15138000 0.06357530
v 0.39673600 0.15138000 0.06357530
v 0.39803100 0.15251300 0.06386740
v 0.37730600 0.19785200 0.07550750
v 0.35140100 0.27832600 0.09617070
v 0.32290600 0.40187400 0.12789200
v 0.31384000 0.48348100 0.14884500
v 0.28534400 0.48404800 0.14899000
v 0.24389700 0.49141600 0.15088200
v 0.86431800 0.03734140 0.02776590
v 0.87209000 0.03847410 0.02805600
v 0.88374800 0.04980920 0.03096700
v 0.85395800 0.03224110 0.02645640
v 0.83841400 0.02770640 0.02529200
v 0.80991800 0.02657360 0.02500000
v 0.76069900 0.03110650 0.02616440
v 0.70370800 0.04244160 0.02907530
v 0.88374800 0.09628040 0.04289920
v 0.65708000 0.05717680 0.03285870
v 0.63894700 0.06454440 0.03475030
v 0.62858500 0.07247750 0.03678710
v 0.86561500 0.12461600 0.05017380
v 0.60268000 0.07191200 0.03664200
v 0.58195500 0.07871230 0.03838860
v 0.57677500 0.08041240 0.03882380
v 0.56511800 0.08834550 0.04086060
v 0.55993600 0.09174750 0.04173480
v 0.53014600 0.08891280 0.04100750
v 0.55605000 0.08948010 0.04115260
v 0.86431800 0.03507400 0.02718370
v 0.83711900 0.15748700 0.05861460
v 0.50424100 0.09571310 0.04275220
v 0.49387900 0.09968060 0.04377150
v 0.48740200 0.10421500 0.04493590
v 0.47185900 0.11554900 0.04784690
v 0.47056500 0.11894900 0.04871920
v 0.81639500 0.17789000 0.06385250
v 0.44724900 0.12064900 0.04915630
v 0.42393600 0.12915100 0.05133820
v 0.41227900 0.14275200 0.05483130
v 0.40968800 0.15295200 0.05745020
v 0.75940500 0.23116100 0.07752940
v 0.40580200 0.15521900 0.05803240
v 0.69723300 0.28216700 0.09062590
v 0.36046900 0.22549400 0.07607480
v 0.61951700 0.33770600 0.10488700
v 0.32938200 0.33090600 0.10314000
v 0.54957400 0.38191000 0.11623700
v 0.47963100 0.42044800 0.12613000
v 0.43300300 0.44198400 0.13166000
v 0.42652700 0.44651600 0.13282500
v 0.41357300 0.44991700 0.13369700
v 0.40580200 0.45331900 0.13456900
v 0.40062200 0.45558400 0.13515200
v 0.30866000 0.43971600 0.13107800
v 0.39285100 0.46125200 0.13660800
v 0.37730600 0.46465200 0.13748000
v 0.39026000 0.15635400 0.05832260
v 0.41098200 0.45331900 0.13456900
v 0.37212600 0.46918700 0.13864500
v 0.35917300 0.47145200 0.13922700
v 0.35140100 0.47485400 0.14009900
v 0.35658400 0.47485400 0.14009900
v 0.34103900 0.47768700 0.14082600
v 0.35140100 0.47712000 0.14068100
v 0.40580200 0.45558400 0.13515200
v 0.30736300 0.48618700 0.14301000
v 0.30606900 0.48732200 0.14330000
v 0.30736300 0.48540100 0.14607400
v 0.30606900 0.48653500 0.14636400
v 0.30866000 0.43892900 0.13414200
v 0.32938200 0.33011900 0.10620400
v 0.36046900 0.22470700 0.07913830
v 0.39026000 0.15556700 0.06138610
v 0.40580200 0.15443300 0.06109410
v 0.40968800 0.15216700 0.06051190
v 0.41227900 0.14196500 0.05789290
v 0.42393600 0.12836400 0.05440160
v 0.44724900 0.11986400 0.05221790
v 0.47056500 0.11816400 0.05178270
v 0.47185900 0.11476400 0.05090850
v 0.48740200 0.10342900 0.04799940
v 0.49387900 0.09889380 0.04683500
v 0.50424100 0.09492820 0.04581570
v 0.53014600 0.08812600 0.04407100
v 0.55605000 0.08869330 0.04421610
v 0.55993600 0.09096070 0.04479830
v 0.56511800 0.08756050 0.04392400
v 0.57677500 0.07962560 0.04188730
v 0.58195500 0.07792550 0.04145020
v 0.60268000 0.07112520 0.03970550
v 0.62858500 0.07169070 0.03985060
v 0.63894700 0.06375760 0.03781380
v 0.65708000 0.05639000 0.03592210
v 0.70370800 0.04165480 0.03213880
v 0.76069900 0.03031970 0.02922790
v 0.80991800 0.02578680 0.02806350
v 0.83841400 0.02691960 0.02835550
v 0.85395800 0.03145430 0.02951990
v 0.86431800 0.03428720 0.03024720
v 0.86431800 0.03655460 0.03082940
v 0.87209000 0.03768730 0.03111950
v 0.88374800 0.04902240 0.03403050
v 0.88374800 0.09549360 0.04596260
v 0.86561500 0.12382900 0.05323730
v 0.83711900 0.15670000 0.06167620
v 0.81639500 0.17710300 0.06691600
v 0.75940500 0.23037400 0.08059280
v 0.69723300 0.28138000 0.09368940
v 0.61951700 0.33691900 0.10794800
v 0.54957400 0.38112300 0.11929800
v 0.47963100 0.41966100 0.12919400
v 0.43300300 0.44119700 0.13472400
v 0.42652700 0.44573100 0.13588800
v 0.41357300 0.44913200 0.13676000
v 0.41098200 0.45253200 0.13763300
v 0.40580200 0.45253200 0.13763300
v 0.40580200 0.45479700 0.13821500
v 0.40062200 0.45479700 0.13821500
v 0.39285100 0.46046500 0.13967100
v 0.37730600 0.46386500 0.14054400
v 0.37212600 0.46840000 0.14170800
v 0.35917300 0.47066700 0.14229000
v 0.35658400 0.47406700 0.14316300
v 0.35140100 0.47406700 0.14316300
v 0.35140100 0.47633500 0.14374500
v 0.34103900 0.47690000 0.14389000
v 0.30736300 0.48461600 0.14913500
v 0.30606900 0.48574800 0.14942700
v 0.30866000 0.43814300 0.13720500
v 0.32938200 0.32933200 0.10926500
v 0.36046900 0.22392200 0.08220180
v 0.39026000 0.15478000 0.06444960
v 0.40580200 0.15364800 0.06415750
v 0.40968800 0.15138000 0.06357530
v 0.41227900 0.14118000 0.06095640
v 0.42393600 0.12757700 0.05746510
v 0.44724900 0.11907700 0.05528140
v 0.47056500 0.11737700 0.05484620
v 0.47185900 0.11397700 0.05397200
v 0.48740200 0.10264200 0.05106290
v 0.49387900 0.09810700 0.04989850
v 0.50424100 0.09414140 0.04887920
v 0.53014600 0.08733920 0.04713260
v 0.55605000 0.08790650 0.04727950
v 0.55993600 0.09017390 0.04786170
v 0.56511800 0.08677380 0.04698750
v 0.57677500 0.07883880 0.04495080
v 0.58195500 0.07713880 0.04451370
v 0.60268000 0.07033850 0.04276710
v 0.62858500 0.07090580 0.04291400
v 0.63894700 0.06297080 0.04087540
v 0.65708000 0.05560320 0.03898380
v 0.70370800 0.04086800 0.03520230
v 0.76069900 0.02953480 0.03229140
v 0.80991800 0.02500000 0.03112700
v 0.83841400 0.02613280 0.03141900
v 0.85395800 0.03066750 0.03258150
v 0.86431800 0.03350040 0.03331070
v 0.86431800 0.03576780 0.03389100
v 0.87209000 0.03690050 0.03418300
v 0.88374800 0.04823560 0.03709210
v 0.88374800 0.09470680 0.04902430
v 0.86561500 0.12304500 0.05630070
v 0.83711900 0.15591300 0.06473970
v 0.81639500 0.17631600 0.06997760
v 0.75940500 0.22958800 0.08365630
v 0.69723300 0.28059400 0.09675290
v 0.61951700 0.33613200 0.11101200
v 0.54957400 0.38033800 0.12236200
v 0.47963100 0.41887400 0.13225700
v 0.43300300 0.44041000 0.13778700
v 0.42652700 0.44494500 0.13895000
v 0.41357300 0.44834500 0.13982400
v 0.41098200 0.45174500 0.14069600
v 0.40580200 0.45174500 0.14069600
v 0.40580200 0.45401200 0.14127800
v 0.40062200 0.45401200 0.14127800
v 0.39285100 0.45968000 0.14273300
v 0.37730600 0.46308000 0.14360700
v 0.37212600 0.46761300 0.14477200
v 0.35917300 0.46988000 0.14535200
v 0.35658400 0.47328100 0.14622600
v 0.35140100 0.47328100 0.14622600
v 0.35140100 0.47554800 0.14680800
v 0.34103900 0.47611300 0.14695300
v 0.18464700 0.84902500 0.06234400
v 0.19759900 0.84902500 0.06234400
v 0.20537000 0.84676500 0.06295040
v 0.17687600 0.84733100 0.06279970
v 0.17039900 0.84280900 0.06401060
v 0.21573200 0.84620000 0.06310290
v 0.38670500 0.85185200 0.06158700
v 0.21961800 0.84846200 0.06249650
v 0.27272400 0.85976500 0.05946840
v 0.25459000 0.86371900 0.05840820
v 0.22868500 0.85976500 0.05946840
v 0.23904800 0.86371900 0.05840820
v 0.28179000 0.86428500 0.05825560
v 0.34266700 0.86993800 0.05674160
v 0.32971300 0.87276300 0.05598450
v 0.28826600 0.87785000 0.05462110
v 0.29603700 0.88067600 0.05386410
v 0.31158000 0.88067600 0.05386410
v 0.37763700 0.86541600 0.05795240
v 0.34266700 0.87219800 0.05613520
v 0.34784700 0.87389400 0.05568130
v 0.36339100 0.87445900 0.05553070
v 0.39188500 0.85185200 0.06158700
v 0.39447600 0.84733100 0.06279970
v 0.39965600 0.84733100 0.06279970
v 0.40095300 0.84620000 0.06310290
v 0.16521700 0.83489600 0.06613100
v 0.38022800 0.80098600 0.07521730
v 0.15485700 0.81455100 0.07158280
v 0.15097100 0.81002900 0.07279370
v 0.11988400 0.80381100 0.07446030
v 0.11211300 0.80098600 0.07521730
v 0.10563600 0.79194400 0.07763910
v 0.10045600 0.77725000 0.08157680
v 0.08750290 0.76820600 0.08400040
v 0.35432400 0.72073300 0.09672120
v 0.03828440 0.74334000 0.09066310
v 0.02792210 0.73090500 0.09399440
v 0.03051320 0.71734200 0.09762890
v 0.32582800 0.59752600 0.12973500
v 0.28826600 0.51557400 0.15169300
v 0.31676200 0.51614000 0.15154200
v 0.24681900 0.50822700 0.15366100
v 0.22480000 0.50483600 0.15457000
v 0.23516200 0.50144500 0.15547800
v 0.23257100 0.49805400 0.15638800
v 0.23516200 0.50226400 0.15853400
v 0.23257100 0.49887300 0.15944200
v 0.22480000 0.50565500 0.15762400
v 0.03051320 0.71816000 0.10068500
v 0.02792210 0.73172400 0.09705050
v 0.03828440 0.74415800 0.09371910
v 0.08750290 0.76902500 0.08705460
v 0.10045600 0.77806800 0.08463290
v 0.10563600 0.79276300 0.08069510
v 0.11211300 0.80180400 0.07827150
v 0.11988400 0.80463200 0.07751450
v 0.15097100 0.81084800 0.07584790
v 0.15485700 0.81537000 0.07463700
v 0.16521700 0.83571500 0.06918520
v 0.17039900 0.84362700 0.06706480
v 0.17687600 0.84814900 0.06585390
v 0.18464700 0.84984400 0.06540000
v 0.19759900 0.84984400 0.06540000
v 0.20537000 0.84758400 0.06600460
v 0.21573200 0.84701800 0.06615710
v 0.21961800 0.84928000 0.06555070
v 0.22868500 0.86058300 0.06252260
v 0.23904800 0.86454000 0.06146230
v 0.25459000 0.86454000 0.06146230
v 0.27272400 0.86058300 0.06252260
v 0.28179000 0.86510300 0.06131170
v 0.28826600 0.87866900 0.05767720
v 0.29603700 0.88149400 0.05691830
v 0.31158000 0.88149400 0.05691830
v 0.32971300 0.87358100 0.05903870
v 0.34266700 0.87075600 0.05979570
v 0.34266700 0.87301600 0.05919120
v 0.34784700 0.87471200 0.05873550
v 0.36339100 0.87527800 0.05858490
v 0.37763700 0.86623400 0.06100850
v 0.38670500 0.85267100 0.06464300
v 0.39188500 0.85267100 0.06464300
v 0.39447600 0.84814900 0.06585390
v 0.39965600 0.84814900 0.06585390
v 0.40095300 0.84701800 0.06615710
v 0.38022800 0.80180400 0.07827150
v 0.35432400 0.72155100 0.09977540
v 0.32582800 0.59834400 0.13278900
v 0.31676200 0.51695800 0.15459600
v 0.28826600 0.51639300 0.15474700
v 0.24681900 0.50904500 0.15671700
v 0.23516200 0.50308200 0.16158800
v 0.23257100 0.49969100 0.16249800
v 0.22480000 0.50647300 0.16068100
v 0.03051320 0.71897900 0.10373900
v 0.02792210 0.73254200 0.10010500
v 0.03828440 0.74497600 0.09677330
v 0.08750290 0.76984300 0.09011070
v 0.10045600 0.77888700 0.08768700
v 0.10563600 0.79358100 0.08374930
v 0.11211300 0.80262300 0.08132570
v 0.11988400 0.80545000 0.08056870
v 0.15097100 0.81166600 0.07890390
v 0.15485700 0.81618800 0.07769120
v 0.16521700 0.83653300 0.07223940
v 0.17039900 0.84444600 0.07012080
v 0.17687600 0.84896700 0.06890810
v 0.18464700 0.85066400 0.06845420
v 0.19759900 0.85066400 0.06845420
v 0.20537000 0.84840200 0.06906060
v 0.21573200 0.84783700 0.06921130
v 0.21961800 0.85009800 0.06860670
v 0.22868500 0.86140200 0.06557670
v 0.23904800 0.86535800 0.06451650
v 0.25459000 0.86535800 0.06451650
v 0.27272400 0.86140200 0.06557670
v 0.28179000 0.86592200 0.06436590
v 0.28826600 0.87948700 0.06073130
v 0.29603700 0.88231200 0.05997430
v 0.31158000 0.88231200 0.05997430
v 0.32971300 0.87440000 0.06209480
v 0.34266700 0.87157400 0.06285180
v 0.34266700 0.87383400 0.06224540
v 0.34784700 0.87553100 0.06179160
v 0.36339100 0.87609600 0.06163900
v 0.37763700 0.86705300 0.06406270
v 0.38670500 0.85348900 0.06769720
v 0.39188500 0.85348900 0.06769720
v 0.39447600 0.84896700 0.06890810
v 0.39965600 0.84896700 0.06890810
v 0.40095300 0.84783700 0.06921130
v 0.38022800 0.80262300 0.08132570
v 0.35432400 0.72236900 0.10283100
v 0.32582800 0.59916200 0.13584300
v 0.31676200 0.51777600 0.15765100
v 0.28826600 0.51721100 0.15780300
v 0.24681900 0.50986400 0.15977100
v 0.50379300 0.49111500 0.16840700
v 0.50272900 0.48714300 0.16840700
v 0.49982100 0.49005100 0.16974300
v 0.50088500 0.49402200 0.16840700
v 0.49691400 0.49295800 0.16840700
v 0.49585000 0.48898700 0.16840700
v 0.49875700 0.48607900 0.16840700
v 0.50624600 0.48832800 0.16491000
v 0.50452500 0.49475500 0.16491000
v 0.49809900 0.49647500 0.16491000
v 0.49339700 0.49177100 0.16491000
v 0.49511700 0.48534700 0.16491000
v 0.50154400 0.48362400 0.16491000
v 0.50624600 0.49177100 0.16058800
v 0.50154400 0.49647500 0.16058800
v 0.49511700 0.49475500 0.16058800
v 0.49339700 0.48832800 0.16058800
v 0.49809900 0.48362400 0.16058800
v 0.50452500 0.48534700 0.16058800
v 0.50272900 0.49295800 0.15709100
v 0.49875700 0.49402200 0.15709100
v 0.49585000 0.49111500 0.15709100
v 0.49691400 0.48714300 0.15709100
v 0.50088500 0.48607900 0.15709100
v 0.50379300 0.48898700 0.15709100
v 0.49982100 0.49005100 0.15575500
v 0.50379300 0.50505400 0.16840700
v 0.50272900 0.50108300 0.16840700
v 0.49982100 0.50399000 0.16974300
v 0.50088500 0.50796100 0.16840700
v 0.49691400 0.50689700 0.16840700
v 0.49585000 0.50292600 0.16840700
v 0.49875700 0.50001900 0.16840700
v 0.50624600 0.50226900 0.16491000
v 0.50452500 0.50869400 0.16491000
v 0.49809900 0.51041600 0.16491000
v 0.49339700 0.50571200 0.16491000
v 0.49511700 0.49928600 0.16491000
v 0.50154400 0.49756500 0.16491000
v 0.50624600 0.50571200 0.16058800
v 0.50154400 0.51041600 0.16058800
v 0.49511700 0.50869400 0.16058800
v 0.49339700 0.50226900 0.16058800
v 0.49809900 0.49756500 0.16058800
v 0.50452500 0.49928600 0.16058800
v 0.50272900 0.50689700 0.15709100
v 0.49875700 0.50796100 0.15709100
v 0.49585000 0.50505400 0.15709100
v 0.49691400 0.50108300 0.15709100
v 0.50088500 0.50001900 0.15709100
v 0.50379300 0.50292600 0.15709100
v 0.49982100 0.50399000 0.15575500
v 0.70152400 0.39667100 0.11210700
v 0.70080600 0.39399300 0.11210700
v 0.69884600 0.39595300 0.11301000
v 0.69956400 0.39863200 0.11210700
v 0.69688500 0.39791400 0.11210700
v 0.69616700 0.39523500 0.11210700
v 0.69812800 0.39327500 0.11210700
v 0.70317900 0.39479200 0.10974900
v 0.70201900 0.39912600 0.10974900
v 0.69768500 0.40028700 0.10974900
v 0.69451200 0.39711400 0.10974900
v 0.69567200 0.39278000 0.10974900
v 0.70000600 0.39161900 0.10974900
v 0.70317900 0.39711400 0.10683200
v 0.70000600 0.40028700 0.10683200
v 0.69567200 0.39912600 0.10683200
v 0.69451200 0.39479200 0.10683200
v 0.69768500 0.39161900 0.10683200
v 0.70201900 0.39278000 0.10683200
v 0.70080600 0.39791400 0.10447400
v 0.69812800 0.39863200 0.10447400
v 0.69616700 0.39667100 0.10447400
v 0.69688500 0.39399300 0.10447400
v 0.69956400 0.39327500 0.10447400
v 0.70152400 0.39523500 0.10447400
v 0.69884600 0.39595300 0.10357400
v 0.68571400 0.62152900 0.11210700
v 0.68499600 0.61885100 0.11210700
v 0.68303500 0.62081100 0.11301000
v 0.68375300 0.62349000 0.11210700
v 0.68107500 0.62277200 0.11210700
v 0.68035700 0.62009300 0.11210700
v 0.68231700 0.61813300 0.11210700
v 0.68736900 0.61964900 0.10974900
v 0.68620800 0.62398500 0.10974900
v 0.68187500 0.62514500 0.10974900
v 0.67870100 0.62197200 0.10974900
v 0.67986200 0.61763800 0.10974900
v 0.68419600 0.61647700 0.10974900
v 0.68736900 0.62197200 0.10683200
v 0.68419600 0.62514500 0.10683200
v 0.67986200 0.62398500 0.10683200
v 0.67870100 0.61964900 0.10683200
v 0.68187500 0.61647700 0.10683200
v 0.68620800 0.61763800 0.10683200
v 0.68499600 0.62277200 0.10447400
v 0.68231700 0.62349000 0.10447400
v 0.68035700 0.62152900 0.10447400
v 0.68107500 0.61885100 0.10447400
v 0.68375300 0.61813300 0.10447400
v 0.68571400 0.62009300 0.10447400
v 0.68303500 0.62081100 0.10357400
v 0.48365000 0.48908300 0.16261500
v 0.48318500 0.48770000 0.16307600
v 0.48308100 0.48817900 0.16187100
v 0.48332800 0.48921900 0.16112500
v 0.48266400 0.48791900 0.16066600
v 0.48257700 0.48698000 0.16187100
v 0.70054900 0.39720100 0.10785200
v 0.70063700 0.39814100 0.10664600
v 0.70002700 0.39742100 0.10544100
v 0.69956400 0.39603700 0.10590200
v 0.69988500 0.39590100 0.10739200
v 0.70013300 0.39694100 0.10664600
v 0.48499900 0.49352300 0.18295800
v 0.48410400 0.49253000 0.18270900
v 0.47851300 0.49520700 0.18174700
v 0.48546200 0.49463400 0.18308700
v 0.48546200 0.49578100 0.18308700
v 0.48499900 0.49689000 0.18295800
v 0.48410400 0.49788300 0.18270900
v 0.48283900 0.49869600 0.18235600
v 0.48129000 0.49926900 0.18192200
v 0.47956200 0.49956700 0.18144000
v 0.47777300 0.49956700 0.18094000
v 0.47604500 0.49926900 0.18045800
v 0.47449500 0.49869600 0.18002500
v 0.47323000 0.49788300 0.17967200
v 0.47233600 0.49689000 0.17942200
v 0.47187200 0.49578100 0.17929400
v 0.47187200 0.49463400 0.17929400
v 0.47233600 0.49352300 0.17942200
v 0.47323000 0.49253000 0.17967200
v 0.47449500 0.49171900 0.18002500
v 0.47604500 0.49114400 0.18045800
v 0.47777300 0.49084700 0.18094000
v 0.47956200 0.49084700 0.18144000
v 0.48129000 0.49114400 0.18192200
v 0.48283900 0.49171900 0.18235600
v 0.49059000 0.49096000 0.18275700
v 0.49191300 0.49300800 0.18312600
v 0.49236300 0.49520700 0.18325200
v 0.49191300 0.49740500 0.18312600
v 0.49059000 0.49945500 0.18275700
v 0.48848600 0.50121500 0.18217000
v 0.48574500 0.50256300 0.18140300
v 0.48255100 0.50341300 0.18051200
v 0.47912500 0.50370100 0.17955600
v 0.47569900 0.50341300 0.17859800
v 0.47250500 0.50256300 0.17770700
v 0.46976300 0.50121500 0.17694100
v 0.46766000 0.49945500 0.17635500
v 0.46633700 0.49740500 0.17598500
v 0.46588500 0.49520700 0.17585800
v 0.46633700 0.49300800 0.17598500
v 0.46766000 0.49096000 0.17635500
v 0.46976300 0.48920100 0.17694100
v 0.47250500 0.48785000 0.17770700
v 0.47569900 0.48700200 0.17859800
v 0.47912500 0.48671200 0.17955600
v 0.48255100 0.48700200 0.18051200
v 0.48574500 0.48785000 0.18140300
v 0.48848600 0.48920100 0.18217000
v 0.49714900 0.49060900 0.18178500
v 0.49841300 0.49363900 0.18213800
v 0.49841300 0.49677500 0.18213800
v 0.49714900 0.49980500 0.18178500
v 0.49470400 0.50252000 0.18110200
v 0.49124900 0.50473700 0.18013700
v 0.48701500 0.50630600 0.17895500
v 0.48229400 0.50711800 0.17763700
v 0.47740600 0.50711800 0.17627300
v 0.47268500 0.50630600 0.17495400
v 0.46845200 0.50473700 0.17377300
v 0.46499600 0.50252000 0.17280800
v 0.46255200 0.49980500 0.17212500
v 0.46128700 0.49677500 0.17177200
v 0.46128700 0.49363900 0.17177200
v 0.46255200 0.49060900 0.17212500
v 0.46499600 0.48789300 0.17280800
v 0.46845200 0.48567600 0.17377300
v 0.47268500 0.48410800 0.17495400
v 0.47740600 0.48329700 0.17627300
v 0.48229400 0.48329700 0.17763700
v 0.48701500 0.48410800 0.17895500
v 0.49124900 0.48567600 0.18013700
v 0.49470400 0.48789300 0.18110200
v 0.50294600 0.49139900 0.17975000
v 0.50372700 0.49520700 0.17996900
v 0.50294600 0.49901400 0.17975000
v 0.50065500 0.50256300 0.17911000
v 0.49701100 0.50561200 0.17809200
v 0.49226200 0.50795000 0.17676800
v 0.48673200 0.50941900 0.17522200
v 0.48079700 0.50992100 0.17356500
v 0.47486200 0.50941900 0.17191000
v 0.46933200 0.50795000 0.17036400
v 0.46458100 0.50561200 0.16904000
v 0.46093700 0.50256300 0.16802000
v 0.45864800 0.49901400 0.16738200
v 0.45786500 0.49520700 0.16716300
v 0.45864800 0.49139900 0.16738200
v 0.46093700 0.48785000 0.16802000
v 0.46458100 0.48480300 0.16904000
v 0.46933200 0.48246400 0.17036400
v 0.47486200 0.48099400 0.17191000
v 0.48079700 0.48049400 0.17356500
v 0.48673200 0.48099400 0.17522200
v 0.49226200 0.48246400 0.17676800
v 0.49701100 0.48480300 0.17809200
v 0.50065500 0.48785000 0.17911000
v 0.50725600 0.49306400 0.17669900
v 0.50725600 0.49734900 0.17669900
v 0.50552800 0.50148800 0.17621700
v 0.50218900 0.50519700 0.17528400
v 0.49746900 0.50822700 0.17396700
v 0.49168600 0.51036800 0.17235200
v 0.48523700 0.51147800 0.17055200
v 0.47855900 0.51147800 0.16868800
v 0.47211100 0.51036800 0.16688600
v 0.46632800 0.50822700 0.16527100
v 0.46160700 0.50519700 0.16395400
v 0.45826800 0.50148800 0.16302200
v 0.45654000 0.49734900 0.16253900
v 0.45654000 0.49306400 0.16253900
v 0.45826800 0.48892700 0.16302200
v 0.46160700 0.48521600 0.16395400
v 0.46632800 0.48218600 0.16527100
v 0.47211100 0.48004500 0.16688600
v 0.47855900 0.47893700 0.16868800
v 0.48523700 0.47893700 0.17055200
v 0.49168600 0.48004500 0.17235200
v 0.49746900 0.48218600 0.17396700
v 0.50218900 0.48521600 0.17528400
v 0.50552800 0.48892700 0.17621700
v 0.50956100 0.49520700 0.17277600
v 0.50865700 0.49960400 0.17252500
v 0.50601200 0.50370100 0.17178700
v 0.50180400 0.50722100 0.17061100
v 0.49632100 0.50992100 0.16908000
v 0.48993300 0.51161800 0.16729700
v 0.48308100 0.51219600 0.16538500
v 0.47622900 0.51161800 0.16347100
v 0.46984100 0.50992100 0.16168700
v 0.46435800 0.50722100 0.16015600
v 0.46015100 0.50370100 0.15898000
v 0.45750600 0.49960400 0.15824200
v 0.45660200 0.49520700 0.15799100
v 0.45750600 0.49081000 0.15824200
v 0.46015100 0.48671200 0.15898000
v 0.46435800 0.48319300 0.16015600
v 0.46984100 0.48049400 0.16168700
v 0.47622900 0.47879600 0.16347100
v 0.48308100 0.47821700 0.16538500
v 0.48993300 0.47879600 0.16729700
v 0.49632100 0.48049400 0.16908000
v 0.50180400 0.48319300 0.17061100
v 0.50601200 0.48671200 0.17178700
v 0.50865700 0.49081000 0.17252500
v 0.50962200 0.49734900 0.16822900
v 0.50789200 0.50148800 0.16774700
v 0.50455500 0.50519700 0.16681300
v 0.49983300 0.50822700 0.16549600
v 0.49405200 0.51036800 0.16388200
v 0.48760300 0.51147800 0.16208100
v 0.48092500 0.51147800 0.16021600
v 0.47447700 0.51036800 0.15841500
v 0.46869400 0.50822700 0.15680000
v 0.46397300 0.50519700 0.15548400
v 0.46063400 0.50148800 0.15455200
v 0.45890600 0.49734900 0.15406800
v 0.45890600 0.49306400 0.15406800
v 0.46063400 0.48892700 0.15455200
v 0.46397300 0.48521600 0.15548400
v 0.46869400 0.48218600 0.15680000
v 0.47447700 0.48004500 0.15841500
v 0.48092500 0.47893700 0.16021600
v 0.48760300 0.47893700 0.16208100
v 0.49405200 0.48004500 0.16388200
v 0.49983300 0.48218600 0.16549600
v 0.50455500 0.48521600 0.16681300
v 0.50789200 0.48892700 0.16774700
v 0.50962200 0.49306400 0.16822900
v 0.50751500 0.49901400 0.16338700
v 0.50522500 0.50256300 0.16274700
v 0.50158100 0.50561200 0.16173000
v 0.49683000 0.50795000 0.16040300
v 0.49130100 0.50941900 0.15886000
v 0.48536500 0.50992100 0.15720200
v 0.47943000 0.50941900 0.15554500
v 0.47390000 0.50795000 0.15400100
v 0.46915100 0.50561200 0.15267500
v 0.46550700 0.50256300 0.15165700
v 0.46321600 0.49901400 0.15101800
v 0.46243500 0.49520700 0.15080000
v 0.46321600 0.49139900 0.15101800
v 0.46550700 0.48785000 0.15165700
v 0.46915100 0.48480300 0.15267500
v 0.47390000 0.48246400 0.15400100
v 0.47943000 0.48099400 0.15554500
v 0.48536500 0.48049400 0.15720200
v 0.49130100 0.48099400 0.15886000
v 0.49683000 0.48246400 0.16040300
v 0.50158100 0.48480300 0.16173000
v 0.50522500 0.48785000 0.16274700
v 0.50751500 0.49139900 0.16338700
v 0.50829600 0.49520700 0.16360500
v 0.50361000 0.49980500 0.15864200
v 0.50116600 0.50252000 0.15795900
v 0.49771000 0.50473700 0.15699600
v 0.49347700 0.50630600 0.15581300
v 0.48875600 0.50711800 0.15449600
v 0.48386800 0.50711800 0.15313100
v 0.47914700 0.50630600 0.15181200
v 0.47491400 0.50473700 0.15063100
v 0.47145800 0.50252000 0.14966500
v 0.46901400 0.49980500 0.14898300
v 0.46774900 0.49677500 0.14862900
v 0.46774900 0.49363900 0.14862900
v 0.46901400 0.49060900 0.14898300
v 0.47145800 0.48789300 0.14966500
v 0.47491400 0.48567600 0.15063100
v 0.47914700 0.48410800 0.15181200
v 0.48386800 0.48329700 0.15313100
v 0.48875600 0.48329700 0.15449600
v 0.49347700 0.48410800 0.15581300
v 0.49771000 0.48567600 0.15699600
v 0.50116600 0.48789300 0.15795900
v 0.50361000 0.49060900 0.15864200
v 0.50487500 0.49363900 0.15899500
v 0.50487500 0.49677500 0.15899500
v 0.49850300 0.49945500 0.15441400
v 0.49639900 0.50121500 0.15382600
v 0.49365700 0.50256300 0.15306000
v 0.49046400 0.50341300 0.15216900
v 0.48703700 0.50370100 0.15121300
v 0.48361100 0.50341300 0.15025500
v 0.48041800 0.50256300 0.14936400
v 0.47767600 0.50121500 0.14859800
v 0.47557200 0.49945500 0.14801200
v 0.47425000 0.49740500 0.14764200
v 0.47379900 0.49520700 0.14751500
v 0.47425000 0.49300800 0.14764200
v 0.47557200 0.49096000 0.14801200
v 0.47767600 0.48920100 0.14859800
v 0.48041800 0.48785000 0.14936400
v 0.48361100 0.48700200 0.15025500
v 0.48703700 0.48671200 0.15121300
v 0.49046400 0.48700200 0.15216900
v 0.49365700 0.48785000 0.15306000
v 0.49639900 0.48920100 0.15382600
v 0.49850300 0.49096000 0.15441400
v 0.49982500 0.49300800 0.15478200
v 0.50027700 0.49520700 0.15490900
v 0.49982500 0.49740500 0.15478200
v 0.49293200 0.49788300 0.15109600
v 0.49166700 0.49869600 0.15074200
v 0.49011800 0.49926900 0.15030900
v 0.48839000 0.49956700 0.14982700
v 0.48660000 0.49956700 0.14932700
v 0.48487200 0.49926900 0.14884500
v 0.48332300 0.49869600 0.14841200
v 0.48205800 0.49788300 0.14806000
v 0.48116300 0.49689000 0.14780900
v 0.48070000 0.49578100 0.14768100
v 0.48070000 0.49463400 0.14768100
v 0.48116300 0.49352300 0.14780900
v 0.48205800 0.49253000 0.14806000
v 0.48332300 0.49171900 0.14841200
v 0.48487200 0.49114400 0.14884500
v 0.48660000 0.49084700 0.14932700
v 0.48839000 0.49084700 0.14982700
v 0.49011800 0.49114400 0.15030900
v 0.49166700 0.49171900 0.15074200
v 0.49293200 0.49253000 0.15109600
v 0.49382700 0.49352300 0.15134500
v 0.49429000 0.49463400 0.15147500
v 0.49429000 0.49578100 0.15147500
v 0.49382700 0.49689000 0.15134500
v 0.48764900 0.49520700 0.14902000
v 0.48269600 0.50322900 0.16261500
v 0.48352900 0.50203100 0.16307600
v 0.48308100 0.50223400 0.16187100
v 0.48239500 0.50305200 0.16112500
v 0.48304200 0.50174300 0.16066600
v 0.48374300 0.50111200 0.16187100
v 0.68578100 0.62257700 0.10785200
v 0.68507800 0.62320700 0.10664600
v 0.68529300 0.62228800 0.10544100
v 0.68612700 0.62109000 0.10590200
v 0.68642800 0.62126900 0.10739200
v 0.68574200 0.62208700 0.10664600
f 1 2 3
f 4 1 3
f 5 4 3
f 6 5 3
f 7 6 3
f 8 7 3
f 9 8 3
f 10 9 3
f 11 10 3
f 12 11 3
f 13 12 3
f 14 13 3
f 15 14 3
f 16 15 3
f 17 16 3
f 18 17 3
f 19 18 3
f 20 19 3
f 21 20 3
f 22 21 3
f 23 22 3
f 24 23 3
f 25 24 3
f 2 25 3
f 26 27 2
f 1 26 2
f 28 26 1
f 4 28 1
f 29 28 4
f 5 29 4
f 30 29 5
f 6 30 5
f 31 30 6
f 7 31 6
f 32 31 7
f 8 32 7
f 33 32 8
f 9 33 8
f 34 33 9
f 10 34 9
f 35 34 10
f 11 35 10
f 36 35 11
f 12 36 11
f 37 36 12
f 13 37 12
f 38 37 13
f 14 38 13
f 39 38 14
f 15 39 14
f 40 39 15
f 16 40 15
f 41 40 16
f 17 41 16
f 42 41 17
f 18 42 17
f 43 42 18
f 19 43 18
f 44 43 19
f 20 44 19
f 45 44 20
f 21 45 20
f 46 45 21
f 22 46 21
f 47 46 22
f 23 47 22
f 48 47 23
f 24 48 23
f 49 48 24
f 25 49 24
f 27 49 25
f 2 27 25
f 50 51 27
f 26 50 27
f 52 50 26
f 28 52 26
f 53 52 28
f 29 53 28
f 54 53 29
f 30 54 29
f 55 54 30
f 31 55 30
f 56 55 31
f 32 56 31
f 57 56 32
f 33 57 32
f 58 57 33
f 34 58 33
f 59 58 34
f 35 59 34
f 60 59 35
f 36 60 35
f 61 60 36
f 37 61 36
f 62 61 37
f 38 62 37
f 63 62 38
f 39 63 38
f 64 63 39
f 40 64 39
f 65 64 40
f 41 65 40
f 66 65 41
f 42 66 41
f 67 66 42
f 43 67 42
f 68 67 43
f 44 68 43
f 69 68 44
f 45 69 44
f 70 69 45
f 46 70 45
f 71 70 46
f 47 71 46
f 72 71 47
f 48 72 47
f 73 72 48
f 49 73 48
f 51 73 49
f 27 51 49
f 74 75 51
f 50 74 51
f 76 74 50
f 52 76 50
f 77 76 52
f 53 77 52
f 78 77 53
f 54 78 53
f 79 78 54
f 55 79 54
f 80 79 55
f 56 80 55
f 81 80 56
f 57 81 56
f 82 81 57
f 58 82 57
f 83 82 58
f 59 83 58
f 84 83 59
f 60 84 59
f 85 84 60
f 61 85 60
f 86 85 61
f 62 86 61
f 87 86 62
f 63 87 62
f 88 87 63
f 64 88 63
f 89 88 64
f 65 89 64
f 90 89 65
f 66 90 65
f 91 90 66
f 67 91 66
f 92 91 67
f 68 92 67
f 93 92 68
f 69 93 68
f 94 93 69
f 70 94 69
f 95 94 70
f 71 95 70
f 96 95 71
f 72 96 71
f 97 96 72
f 73 97 72
f 75 97 73
f 51 75 73
f 98 99 75
f 74 98 75
f 100 98 74
f 76 100 74
f 101 100 76
f 77 101 76
f 102 101 77
f 78 102 77
f 103 102 78
f 79 103 78
f 104 103 79
f 80 104 79
f 105 104 80
f 81 105 80
f 106 105 81
f 82 106 81
f 107 106 82
f 83 107 82
f 108 107 83
f 84 108 83
f 109 108 84
f 85 109 84
f 110 109 85
f 86 110 85
f 111 110 86
f 87 111 86
f 112 111 87
f 88 112 87
f 113 112 88
f 89 113 88
f 114 113 89
f 90 114 89
f 115 114 90
f 91 115 90
f 116 115 91
f 92 116 91
f 117 116 92
f 93 117 92
f 118 117 93
f 94 118 93
f 119 118 94
f 95 119 94
f 120 119 95
f 96 120 95
f 121 120 96
f 97 121 96
f 99 121 97
f 75 99 97
f 122 123 99
f 98 122 99
f 124 122 98
f 100 124 98
f 125 124 100
f 101 125 100
f 126 125 101
f 102 126 101
f 127 126 102
f 103 127 102
f 128 127 103
f 104 128 103
f 129 128 104
f 105 129 104
f 130 129 105
f 106 130 105
f 131 130 106
f 107 131 106
f 132 131 107
f 108 132 107
f 133 132 108
f 109 133 108
f 134 133 109
f 110 134 109
f 135 134 110
f 111 135 110
f 136 135 111
f 112 136 111
f 137 136 112
f 113 137 112
f 138 137 113
f 114 138 113
f 139 138 114
f 115 139 114
f 140 139 115
f 116 140 115
f 141 140 116
f 117 141 116
f 142 141 117
f 118 142 117
f 143 142 118
f 119 143 118
f 144 143 119
f 120 144 119
f 145 144 120
f 121 145 120
f 123 145 121
f 99 123 121
f 146 147 123
f 122 146 123
f 148 146 122
f 124 148 122
f 149 148 124
f 125 149 124
f 150 149 125
f 126 150 125
f 151 150 126
f 127 151 126
f 152 151 127
f 128 152 127
f 153 152 128
f 129 153 128
f 154 153 129
f 130 154 129
f 155 154 130
f 131 155 130
f 156 155 131
f 132 156 131
f 157 156 132
f 133 157 132
f 158 157 133
f 134 158 133
f 159 158 134
f 135 159 134
f 160 159 135
f 136 160 135
f 161 160 136
f 137 161 136
f 162 161 137
f 138 162 137
f 163 162 138
f 139 163 138
f 164 163 139
f 140 164 139
f 165 164 140
f 141 165 140
f 166 165 141
f 142 166 141
f 167 166 142
f 143 167 142
f 168 167 143
f 144 168 143
f 169 168 144
f 145 169 144
f 147 169 145
f 123 147 145
f 170 171 147
f 146 170 147
f 172 170 146
f 148 172 146
f 173 172 148
f 149 173 148
f 174 173 149
f 150 174 149
f 175 174 150
f 151 175 150
f 176 175 151
f 152 176 151
f 177 176 152
f 153 177 152
f 178 177 153
f 154 178 153
f 179 178 154
f 155 179 154
f 180 179 155
f 156 180 155
f 181 180 156
f 157 181 156
f 182 181 157
f 158 182 157
f 183 182 158
f 159 183 158
f 184 183 159
f 160 184 159
f 185 184 160
f 161 185 160
f 186 185 161
f 162 186 161
f 187 186 162
f 163 187 162
f 188 187 163
f 164 188 163
f 189 188 164
f 165 189 164
f 190 189 165
f 166 190 165
f 191 190 166
f 167 191 166
f 192 191 167
f 168 192 167
f 193 192 168
f 169 193 168
f 171 193 169
f 147 171 169
f 194 195 171
f 170 194 171
f 196 194 170
f 172 196 170
f 197 196 172
f 173 197 172
f 198 197 173
f 174 198 173
f 199 198 174
f 175 199 174
f 200 199 175
f 176 200 175
f 201 200 176
f 177 201 176
f 202 201 177
f 178 202 177
f 203 202 178
f 179 203 178
f 204 203 179
f 180 204 179
f 205 204 180
f 181 205 180
f 206 205 181
f 182 206 181
f 207 206 182
f 183 207 182
f 208 207 183
f 184 208 183
f 209 208 184
f 185 209 184
f 210 209 185
f 186 210 185
f 211 210 186
f 187 211 186
f 212 211 187
f 188 212 187
f 213 212 188
f 189 213 188
f 214 213 189
f 190 214 189
f 215 214 190
f 191 215 190
f 216 215 191
f 192 216 191
f 217 216 192
f 193 217 192
f 195 217 193
f 171 195 193
f 218 195 194
f 218 194 196
f 218 196 197
f 218 197 198
f 218 198 199
f 218 199 200
f 218 200 201
f 218 201 202
f 218 202 203
f 218 203 204
f 218 204 205
f 218 205 206
f 218 206 207
f 218 207 208
f 218 208 209
f 218 209 210
f 218 210 211
f 218 211 212
f 218 212 213
f 218 213 214
f 218 214 215
f 218 215 216
f 218 216 217
f 218 217 195
f 219 220 221
f 222 219 221
f 223 222 221
f 220 223 221
f 220 219 224
f 219 225 224
f 219 222 225
f 222 226 225
f 222 223 226
f 223 227 226
f 223 220 227
f 220 224 227
f 224 225 228
f 225 226 228
f 226 227 228
f 227 224 228
f 229 230 231
f 232 229 231
f 233 232 231
f 230 233 231
f 230 229 234
f 229 235 234
f 229 232 235
f 232 236 235
f 232 233 236
f 233 237 236
f 233 230 237
f 230 234 237
f 234 235 238
f 235 236 238
f 236 237 238
f 237 234 238
f 239 240 241
f 242 239 241
f 243 242 241
f 240 243 241
f 240 239 244
f 239 245 244
f 239 242 245
f 242 246 245
f 242 243 246
f 243 247 246
f 243 240 247
f 240 244 247
f 244 245 248
f 245 246 248
f 246 247 248
f 247 244 248
f 249 250 251
f 252 249 251
f 253 252 251
f 250 253 251
f 250 249 254
f 249 255 254
f 249 252 255
f 252 256 255
f 252 253 256
f 253 257 256
f 253 250 257
f 250 254 257
f 254 255 258
f 255 256 258
f 256 257 258
f 257 254 258
f 259 260 261
f 262 259 261
f 263 262 261
f 260 263 261
f 260 259 264
f 259 265 264
f 259 262 265
f 262 266 265
f 262 263 266
f 263 267 266
f 263 260 267
f 260 264 267
f 264 265 268
f 265 266 268
f 266 267 268
f 267 264 268
f 269 270 271
f 272 269 271
f 273 272 271
f 270 273 271
f 270 269 274
f 269 275 274
f 269 272 275
f 272 276 275
f 272 273 276
f 273 277 276
f 273 270 277
f 270 274 277
f 274 275 278
f 275 276 278
f 276 277 278
f 277 274 278
f 279 280 281
f 282 279 281
f 283 282 281
f 280 283 281
f 280 279 284
f 279 285 284
f 279 282 285
f 282 286 285
f 282 283 286
f 283 287 286
f 283 280 287
f 280 284 287
f 284 285 288
f 285 286 288
f 286 287 288
f 287 284 288
f 289 290 291
f 292 289 291
f 293 292 291
f 290 293 291
f 290 289 294
f 289 295 294
f 289 292 295
f 292 296 295
f 292 293 296
f 293 297 296
f 293 290 297
f 290 294 297
f 294 295 298
f 295 296 298
f 296 297 298
f 297 294 298
f 299 300 301
f 302 299 301
f 303 302 301
f 300 303 301
f 300 299 304
f 299 305 304
f 299 302 305
f 302 306 305
f 302 303 306
f 303 307 306
f 303 300 307
f 300 304 307
f 304 305 308
f 305 306 308
f 306 307 308
f 307 304 308
f 309 310 311
f 312 309 311
f 313 312 311
f 310 313 311
f 310 309 314
f 309 315 314
f 309 312 315
f 312 316 315
f 312 313 316
f 313 317 316
f 313 310 317
f 310 314 317
f 314 315 318
f 315 316 318
f 316 317 318
f 317 314 318
f 319 320 321
f 322 319 321
f 323 322 321
f 320 323 321
f 320 319 324
f 319 325 324
f 319 322 325
f 322 326 325
f 322 323 326
f 323 327 326
f 323 320 327
f 320 324 327
f 324 325 328
f 325 326 328
f 326 327 328
f 327 324 328
f 329 330 331
f 332 329 331
f 333 332 331
f 330 333 331
f 330 329 334
f 329 335 334
f 329 332 335
f 332 336 335
f 332 333 336
f 333 337 336
f 333 330 337
f 330 334 337
f 334 335 338
f 335 336 338
f 336 337 338
f 337 334 338
f 339 340 341
f 341 342 339
f 341 343 342
f 341 344 343
f 341 345 344
f 341 346 345
f 341 347 346
f 347 348 346
f 347 349 348
f 347 350 349
f 347 351 350
f 351 352 350
f 351 353 352
f 351 354 353
f 351 355 354
f 351 356 355
f 351 357 356
f 357 358 356
f 342 359 339
f 351 360 357
f 360 361 357
f 360 362 361
f 360 363 362
f 360 364 363
f 360 365 364
f 360 366 365
f 366 367 365
f 366 368 367
f 366 369 368
f 366 370 369
f 366 371 370
f 371 372 370
f 371 373 372
f 373 374 372
f 373 375 374
f 375 376 374
f 375 377 376
f 377 378 376
f 378 379 376
f 379 380 376
f 380 381 376
f 381 382 376
f 382 383 376
f 383 384 376
f 383 385 384
f 385 386 384
f 374 387 372
f 381 388 382
f 386 389 384
f 389 390 384
f 390 391 384
f 390 392 391
f 391 393 384
f 391 394 393
f 382 395 383
f 393 396 384
f 396 397 384
f 398 399 397
f 396 398 397
f 399 400 384
f 397 399 384
f 400 401 376
f 384 400 376
f 401 402 374
f 376 401 374
f 402 403 387
f 374 402 387
f 403 404 372
f 387 403 372
f 404 405 370
f 372 404 370
f 405 406 369
f 370 405 369
f 406 407 368
f 369 406 368
f 407 408 367
f 368 407 367
f 408 409 365
f 367 408 365
f 409 410 364
f 365 409 364
f 410 411 363
f 364 410 363
f 411 412 362
f 363 411 362
f 412 413 361
f 362 412 361
f 413 414 357
f 361 413 357
f 414 415 358
f 357 414 358
f 415 416 356
f 358 415 356
f 416 417 355
f 356 416 355
f 417 418 354
f 355 417 354
f 418 419 353
f 354 418 353
f 419 420 352
f 353 419 352
f 420 421 350
f 352 420 350
f 421 422 349
f 350 421 349
f 422 423 348
f 349 422 348
f 423 424 346
f 348 423 346
f 424 425 345
f 346 424 345
f 425 426 344
f 345 425 344
f 426 427 343
f 344 426 343
f 427 428 342
f 343 427 342
f 428 429 359
f 342 428 359
f 429 430 339
f 359 429 339
f 430 431 340
f 339 430 340
f 431 432 341
f 340 431 341
f 432 433 347
f 341 432 347
f 433 434 351
f 347 433 351
f 434 435 360
f 351 434 360
f 435 436 366
f 360 435 366
f 436 437 371
f 366 436 371
f 437 438 373
f 371 437 373
f 438 439 375
f 373 438 375
f 439 440 377
f 375 439 377
f 440 441 378
f 377 440 378
f 441 442 379
f 378 441 379
f 442 443 380
f 379 442 380
f 443 444 381
f 380 443 381
f 444 445 388
f 381 444 388
f 445 446 382
f 388 445 382
f 446 447 395
f 382 446 395
f 447 448 383
f 395 447 383
f 448 449 385
f 383 448 385
f 449 450 386
f 385 449 386
f 450 451 389
f 386 450 389
f 451 452 390
f 389 451 390
f 452 453 392
f 390 452 392
f 453 454 391
f 392 453 391
f 454 455 394
f 391 454 394
f 455 456 393
f 394 455 393
f 456 398 396
f 393 456 396
f 457 458 399
f 398 457 399
f 458 459 400
f 399 458 400
f 459 460 401
f 400 459 401
f 460 461 402
f 401 460 402
f 461 462 403
f 402 461 403
f 462 463 404
f 403 462 404
f 463 464 405
f 404 463 405
f 464 465 406
f 405 464 406
f 465 466 407
f 406 465 407
f 466 467 408
f 407 466 408
f 467 468 409
f 408 467 409
f 468 469 410
f 409 468 410
f 469 470 411
f 410 469 411
f 470 471 412
f 411 470 412
f 471 472 413
f 412 471 413
f 472 473 414
f 413 472 414
f 473 474 415
f 414 473 415
f 474 475 416
f 415 474 416
f 475 476 417
f 416 475 417
f 476 477 418
f 417 476 418
f 477 478 419
f 418 477 419
f 478 479 420
f 419 478 420
f 479 480 421
f 420 479 421
f 480 481 422
f 421 480 422
f 481 482 423
f 422 481 423
f 482 483 424
f 423 482 424
f 483 484 425
f 424 483 425
f 484 485 426
f 425 484 426
f 485 486 427
f 426 485 427
f 486 487 428
f 427 486 428
f 487 488 429
f 428 487 429
f 488 489 430
f 429 488 430
f 489 490 431
f 430 489 431
f 490 491 432
f 431 490 432
f 491 492 433
f 432 491 433
f 492 493 434
f 433 492 434
f 493 494 435
f 434 493 435
f 494 495 436
f 435 494 436
f 495 496 437
f 436 495 437
f 496 497 438
f 437 496 438
f 497 498 439
f 438 497 439
f 498 499 440
f 439 498 440
f 499 500 441
f 440 499 441
f 500 501 442
f 441 500 442
f 501 502 443
f 442 501 443
f 502 503 444
f 443 502 444
f 503 504 445
f 444 503 445
f 504 505 446
f 445 504 446
f 505 506 447
f 446 505 447
f 506 507 448
f 447 506 448
f 507 508 449
f 448 507 449
f 508 509 450
f 449 508 450
f 509 510 451
f 450 509 451
f 510 511 452
f 451 510 452
f 511 512 453
f 452 511 453
f 512 513 454
f 453 512 454
f 513 514 455
f 454 513 455
f 514 515 456
f 455 514 456
f 515 457 398
f 456 515 398
f 491 490 489
f 489 487 491
f 487 486 491
f 486 485 491
f 485 484 491
f 484 483 491
f 483 492 491
f 483 482 492
f 482 481 492
f 481 480 492
f 480 493 492
f 480 479 493
f 479 478 493
f 478 477 493
f 477 476 493
f 476 475 493
f 475 473 493
f 475 474 473
f 489 488 487
f 473 494 493
f 473 472 494
f 472 471 494
f 471 470 494
f 470 469 494
f 469 468 494
f 468 495 494
f 468 467 495
f 467 466 495
f 466 465 495
f 465 464 495
f 464 496 495
f 464 463 496
f 463 497 496
f 463 461 497
f 461 498 497
f 461 460 498
f 460 499 498
f 460 500 499
f 460 501 500
f 460 502 501
f 460 503 502
f 460 505 503
f 460 507 505
f 460 459 507
f 459 508 507
f 459 509 508
f 463 462 461
f 505 504 503
f 459 510 509
f 459 511 510
f 459 513 511
f 513 512 511
f 459 515 513
f 515 514 513
f 507 506 505
f 459 457 515
f 459 458 457
f 516 517 518
f 518 519 516
f 518 520 519
f 518 521 520
f 521 522 520
f 521 523 522
f 523 524 522
f 523 525 524
f 523 526 525
f 526 527 525
f 524 528 522
f 528 529 522
f 528 530 529
f 528 531 530
f 531 532 530
f 532 533 530
f 529 534 522
f 529 535 534
f 535 536 534
f 536 537 534
f 522 538 520
f 538 539 520
f 539 540 520
f 540 541 520
f 541 542 520
f 541 543 542
f 543 544 542
f 543 545 544
f 543 546 545
f 543 547 546
f 543 548 547
f 543 549 548
f 543 550 549
f 543 551 550
f 551 552 550
f 551 553 552
f 551 554 553
f 551 555 554
f 555 556 554
f 555 557 556
f 556 558 554
f 558 559 554
f 558 560 559
f 560 561 559
f 562 563 561
f 560 562 561
f 563 564 559
f 561 563 559
f 564 565 554
f 559 564 554
f 565 566 553
f 554 565 553
f 566 567 552
f 553 566 552
f 567 568 550
f 552 567 550
f 568 569 549
f 550 568 549
f 569 570 548
f 549 569 548
f 570 571 547
f 548 570 547
f 571 572 546
f 547 571 546
f 572 573 545
f 546 572 545
f 573 574 544
f 545 573 544
f 574 575 542
f 544 574 542
f 575 576 520
f 542 575 520
f 576 577 519
f 520 576 519
f 577 578 516
f 519 577 516
f 578 579 517
f 516 578 517
f 579 580 518
f 517 579 518
f 580 581 521
f 518 580 521
f 581 582 523
f 521 581 523
f 582 583 526
f 523 582 526
f 583 584 527
f 526 583 527
f 584 585 525
f 527 584 525
f 585 586 524
f 525 585 524
f 586 587 528
f 524 586 528
f 587 588 531
f 528 587 531
f 588 589 532
f 531 588 532
f 589 590 533
f 532 589 533
f 590 591 530
f 533 590 530
f 591 592 529
f 530 591 529
f 592 593 535
f 529 592 535
f 593 594 536
f 535 593 536
f 594 595 537
f 536 594 537
f 595 596 534
f 537 595 534
f 596 597 522
f 534 596 522
f 597 598 538
f 522 597 538
f 598 599 539
f 538 598 539
f 599 600 540
f 539 599 540
f 600 601 541
f 540 600 541
f 601 602 543
f 541 601 543
f 602 603 551
f 543 602 551
f 603 604 555
f 551 603 555
f 604 605 557
f 555 604 557
f 605 606 556
f 557 605 556
f 606 607 558
f 556 606 558
f 607 562 560
f 558 607 560
f 608 609 563
f 562 608 563
f 609 610 564
f 563 609 564
f 610 611 565
f 564 610 565
f 611 612 566
f 565 611 566
f 612 613 567
f 566 612 567
f 613 614 568
f 567 613 568
f 614 615 569
f 568 614 569
f 615 616 570
f 569 615 570
f 616 617 571
f 570 616 571
f 617 618 572
f 571 617 572
f 618 619 573
f 572 618 573
f 619 620 574
f 573 619 574
f 620 621 575
f 574 620 575
f 621 622 576
f 575 621 576
f 622 623 577
f 576 622 577
f 623 624 578
f 577 623 578
f 624 625 579
f 578 624 579
f 625 626 580
f 579 625 580
f 626 627 581
f 580 626 581
f 627 628 582
f 581 627 582
f 628 629 583
f 582 628 583
f 629 630 584
f 583 629 584
f 630 631 585
f 584 630 585
f 631 632 586
f 585 631 586
f 632 633 587
f 586 632 587
f 633 634 588
f 587 633 588
f 634 635 589
f 588 634 589
f 635 636 590
f 589 635 590
f 636 637 591
f 590 636 591
f 637 638 592
f 591 637 592
f 638 639 593
f 592 638 593
f 639 640 594
f 593 639 594
f 640 641 595
f 594 640 595
f 641 642 596
f 595 641 596
f 642 643 597
f 596 642 597
f 643 644 598
f 597 643 598
f 644 645 599
f 598 644 599
f 645 646 600
f 599 645 600
f 646 647 601
f 600 646 601
f 647 648 602
f 601 647 602
f 648 649 603
f 602 648 603
f 649 650 604
f 603 649 604
f 650 651 605
f 604 650 605
f 651 652 606
f 605 651 606
f 652 653 607
f 606 652 607
f 653 608 562
f 607 653 562
f 626 625 624
f 624 623 626
f 623 622 626
f 622 627 626
f 622 643 627
f 643 628 627
f 643 632 628
f 632 631 628
f 631 629 628
f 631 630 629
f 643 633 632
f 643 638 633
f 638 637 633
f 637 634 633
f 637 635 634
f 637 636 635
f 643 642 638
f 642 639 638
f 642 640 639
f 642 641 640
f 622 644 643
f 622 645 644
f 622 646 645
f 622 647 646
f 622 621 647
f 621 648 647
f 621 620 648
f 620 619 648
f 619 618 648
f 618 617 648
f 617 616 648
f 616 615 648
f 615 614 648
f 614 649 648
f 614 613 649
f 613 612 649
f 612 611 649
f 611 650 649
f 611 652 650
f 652 651 650
f 611 653 652
f 611 610 653
f 610 608 653
f 610 609 608
f 654 655 656
f 656 657 654
f 656 658 657
f 656 659 658
f 656 660 659
f 656 661 660
f 656 662 661
f 662 663 661
f 662 664 663
f 662 665 664
f 662 666 665
f 666 667 665
f 666 668 667
f 666 669 668
f 666 670 669
f 666 671 670
f 666 672 671
f 672 673 671
f 657 674 654
f 666 675 672
f 675 676 672
f 675 677 676
f 675 678 677
f 675 679 678
f 675 680 679
f 675 681 680
f 681 682 680
f 681 683 682
f 681 684 683
f 681 685 684
f 681 686 685
f 686 687 685
f 686 688 687
f 688 689 687
f 688 690 689
f 690 691 689
f 690 692 691
f 692 693 691
f 693 694 691
f 694 695 691
f 695 696 691
f 696 697 691
f 697 698 691
f 698 699 691
f 698 700 699
f 700 701 699
f 689 702 687
f 696 703 697
f 701 704 699
f 704 705 699
f 705 706 699
f 705 707 706
f 706 708 699
f 706 709 708
f 697 710 698
f 708 711 699
f 711 712 699
f 713 714 712
f 711 713 712
f 714 715 699
f 712 714 699
f 715 716 691
f 699 715 691
f 716 717 689
f 691 716 689
f 717 718 702
f 689 717 702
f 718 719 687
f 702 718 687
f 719 720 685
f 687 719 685
f 720 721 684
f 685 720 684
f 721 722 683
f 684 721 683
f 722 723 682
f 683 722 682
f 723 724 680
f 682 723 680
f 724 725 679
f 680 724 679
f 725 726 678
f 679 725 678
f 726 727 677
f 678 726 677
f 727 728 676
f 677 727 676
f 728 729 672
f 676 728 672
f 729 730 673
f 672 729 673
f 730 731 671
f 673 730 671
f 731 732 670
f 671 731 670
f 732 733 669
f 670 732 669
f 733 734 668
f 669 733 668
f 734 735 667
f 668 734 667
f 735 736 665
f 667 735 665
f 736 737 664
f 665 736 664
f 737 738 663
f 664 737 663
f 738 739 661
f 663 738 661
f 739 740 660
f 661 739 660
f 740 741 659
f 660 740 659
f 741 742 658
f 659 741 658
f 742 743 657
f 658 742 657
f 743 744 674
f 657 743 674
f 744 745 654
f 674 744 654
f 745 746 655
f 654 745 655
f 746 747 656
f 655 746 656
f 747 748 662
f 656 747 662
f 748 749 666
f 662 748 666
f 749 750 675
f 666 749 675
f 750 751 681
f 675 750 681
f 751 752 686
f 681 751 686
f 752 753 688
f 686 752 688
f 753 754 690
f 688 753 690
f 754 755 692
f 690 754 692
f 755 756 693
f 692 755 693
f 756 757 694
f 693 756 694
f 757 758 695
f 694 757 695
f 758 759 696
f 695 758 696
f 759 760 703
f 696 759 703
f 760 761 697
f 703 760 697
f 761 762 710
f 697 761 710
f 762 763 698
f 710 762 698
f 763 764 700
f 698 763 700
f 764 765 701
f 700 764 701
f 765 766 704
f 701 765 704
f 766 767 705
f 704 766 705
f 767 768 707
f 705 767 707
f 768 769 706
f 707 768 706
f 769 770 709
f 706 769 709
f 770 771 708
f 709 770 708
f 771 713 711
f 708 771 711
f 772 773 714
f 713 772 714
f 773 774 715
f 714 773 715
f 774 775 716
f 715 774 716
f 775 776 717
f 716 775 717
f 776 777 718
f 717 776 718
f 777 778 719
f 718 777 719
f 778 779 720
f 719 778 720
f 779 780 721
f 720 779 721
f 780 781 722
f 721 780 722
f 781 782 723
f 722 781 723
f 782 783 724
f 723 782 724
f 783 784 725
f 724 783 725
f 784 785 726
f 725 784 726
f 785 786 727
f 726 785 727
f 786 787 728
f 727 786 728
f 787 788 729
f 728 787 729
f 788 789 730
f 729 788 730
f 789 790 731
f 730 789 731
f 790 791 732
f 731 790 732
f 791 792 733
f 732 791 733
f 792 793 734
f 733 792 734
f 793 794 735
f 734 793 735
f 794 795 736
f 735 794 736
f 795 796 737
f 736 795 737
f 796 797 738
f 737 796 738
f 797 798 739
f 738 797 739
f 798 799 740
f 739 798 740
f 799 800 741
f 740 799 741
f 800 801 742
f 741 800 742
f 801 802 743
f 742 801 743
f 802 803 744
f 743 802 744
f 803 804 745
f 744 803 745
f 804 805 746
f 745 804 746
f 805 806 747
f 746 805 747
f 806 807 748
f 747 806 748
f 807 808 749
f 748 807 749
f 808 809 750
f 749 808 750
f 809 810 751
f 750 809 751
f 810 811 752
f 751 810 752
f 811 812 753
f 752 811 753
f 812 813 754
f 753 812 754
f 813 814 755
f 754 813 755
f 814 815 756
f 755 814 756
f 815 816 757
f 756 815 757
f 816 817 758
f 757 816 758
f 817 818 759
f 758 817 759
f 818 819 760
f 759 818 760
f 819 820 761
f 760 819 761
f 820 821 762
f 761 820 762
f 821 822 763
f 762 821 763
f 822 823 764
f 763 822 764
f 823 824 765
f 764 823 765
f 824 825 766
f 765 824 766
f 825 826 767
f 766 825 767
f 826 827 768
f 767 826 768
f 827 828 769
f 768 827 769
f 828 829 770
f 769 828 770
f 829 830 771
f 770 829 771
f 830 772 713
f 771 830 713
f 806 805 804
f 804 802 806
f 802 801 806
f 801 800 806
f 800 799 806
f 799 798 806
f 798 807 806
f 798 797 807
f 797 796 807
f 796 795 807
f 795 808 807
f 795 794 808
f 794 793 808
f 793 792 808
f 792 791 808
f 791 790 808
f 790 788 808
f 790 789 788
f 804 803 802
f 788 809 808
f 788 787 809
f 787 786 809
f 786 785 809
f 785 784 809
f 784 783 809
f 783 810 809
f 783 782 810
f 782 781 810
f 781 780 810
f 780 779 810
f 779 811 810
f 779 778 811
f 778 812 811
f 778 776 812
f 776 813 812
f 776 775 813
f 775 814 813
f 775 815 814
f 775 816 815
f 775 817 816
f 775 818 817
f 775 820 818
f 775 822 820
f 775 774 822
f 774 823 822
f 774 824 823
f 778 777 776
f 820 819 818
f 774 825 824
f 774 826 825
f 774 828 826
f 828 827 826
f 774 830 828
f 830 829 828
f 822 821 820
f 774 772 830
f 774 773 772
f 831 832 833
f 833 834 831
f 833 835 834
f 833 836 835
f 836 837 835
f 836 838 837
f 838 839 837
f 838 840 839
f 838 841 840
f 841 842 840
f 839 843 837
f 843 844 837
f 843 845 844
f 843 846 845
f 846 847 845
f 847 848 845
f 844 849 837
f 844 850 849
f 850 851 849
f 851 852 849
f 837 853 835
f 853 854 835
f 854 855 835
f 855 856 835
f 856 857 835
f 856 858 857
f 858 859 857
f 858 860 859
f 858 861 860
f 858 862 861
f 858 863 862
f 858 864 863
f 858 865 864
f 858 866 865
f 866 867 865
f 866 868 867
f 866 869 868
f 866 870 869
f 870 871 869
f 870 872 871
f 871 873 869
f 873 874 869
f 873 875 874
f 875 876 874
f 877 878 876
f 875 877 876
f 878 879 874
f 876 878 874
f 879 880 869
f 874 879 869
f 880 881 868
f 869 880 868
f 881 882 867
f 868 881 867
f 882 883 865
f 867 882 865
f 883 884 864
f 865 883 864
f 884 885 863
f 864 884 863
f 885 886 862
f 863 885 862
f 886 887 861
f 862 886 861
f 887 888 860
f 861 887 860
f 888 889 859
f 860 888 859
f 889 890 857
f 859 889 857
f 890 891 835
f 857 890 835
f 891 892 834
f 835 891 834
f 892 893 831
f 834 892 831
f 893 894 832
f 831 893 832
f 894 895 833
f 832 894 833
f 895 896 836
f 833 895 836
f 896 897 838
f 836 896 838
f 897 898 841
f 838 897 841
f 898 899 842
f 841 898 842
f 899 900 840
f 842 899 840
f 900 901 839
f 840 900 839
f 901 902 843
f 839 901 843
f 902 903 846
f 843 902 846
f 903 904 847
f 846 903 847
f 904 905 848
f 847 904 848
f 905 906 845
f 848 905 845
f 906 907 844
f 845 906 844
f 907 908 850
f 844 907 850
f 908 909 851
f 850 908 851
f 909 910 852
f 851 909 852
f 910 911 849
f 852 910 849
f 911 912 837
f 849 911 837
f 912 913 853
f 837 912 853
f 913 914 854
f 853 913 854
f 914 915 855
f 854 914 855
f 915 916 856
f 855 915 856
f 916 917 858
f 856 916 858
f 917 918 866
f 858 917 866
f 918 919 870
f 866 918 870
f 919 920 872
f 870 919 872
f 920 921 871
f 872 920 871
f 921 922 873
f 871 921 873
f 922 877 875
f 873 922 875
f 923 924 878
f 877 923 878
f 924 925 879
f 878 924 879
f 925 926 880
f 879 925 880
f 926 927 881
f 880 926 881
f 927 928 882
f 881 927 882
f 928 929 883
f 882 928 883
f 929 930 884
f 883 929 884
f 930 931 885
f 884 930 885
f 931 932 886
f 885 931 886
f 932 933 887
f 886 932 887
f 933 934 888
f 887 933 888
f 934 935 889
f 888 934 889
f 935 936 890
f 889 935 890
f 936 937 891
f 890 936 891
f 937 938 892
f 891 937 892
f 938 939 893
f 892 938 893
f 939 940 894
f 893 939 894
f 940 941 895
f 894 940 895
f 941 942 896
f 895 941 896
f 942 943 897
f 896 942 897
f 943 944 898
f 897 943 898
f 944 945 899
f 898 944 899
f 945 946 900
f 899 945 900
f 946 947 901
f 900 946 901
f 947 948 902
f 901 947 902
f 948 949 903
f 902 948 903
f 949 950 904
f 903 949 904
f 950 951 905
f 904 950 905
f 951 952 906
f 905 951 906
f 952 953 907
f 906 952 907
f 953 954 908
f 907 953 908
f 954 955 909
f 908 954 909
f 955 956 910
f 909 955 910
f 956 957 911
f 910 956 911
f 957 958 912
f 911 957 912
f 958 959 913
f 912 958 913
f 959 960 914
f 913 959 914
f 960 961 915
f 914 960 915
f 961 962 916
f 915 961 916
f 962 963 917
f 916 962 917
f 963 964 918
f 917 963 918
f 964 965 919
f 918 964 919
f 965 966 920
f 919 965 920
f 966 967 921
f 920 966 921
f 967 968 922
f 921 967 922
f 968 923 877
f 922 968 877
f 941 940 939
f 939 938 941
f 938 937 941
f 937 942 941
f 937 958 942
f 958 943 942
f 958 947 943
f 947 946 943
f 946 944 943
f 946 945 944
f 958 948 947
f 958 953 948
f 953 952 948
f 952 949 948
f 952 950 949
f 952 951 950
f 958 957 953
f 957 954 953
f 957 955 954
f 957 956 955
f 937 959 958
f 937 960 959
f 937 961 960
f 937 962 961
f 937 936 962
f 936 963 962
f 936 935 963
f 935 934 963
f 934 933 963
f 933 932 963
f 932 931 963
f 931 930 963
f 930 929 963
f 929 964 963
f 929 928 964
f 928 927 964
f 927 926 964
f 926 965 964
f 926 967 965
f 967 966 965
f 926 968 967
f 926 925 968
f 925 923 968
f 925 924 923
f 969 970 971
f 972 969 971
f 973 972 971
f 974 973 971
f 975 974 971
f 970 975 971
f 970 969 976
f 969 977 976
f 969 972 977
f 972 978 977
f 972 973 978
f 973 979 978
f 973 974 979
f 974 980 979
f 974 975 980
f 975 981 980
f 975 970 981
f 970 976 981
f 976 977 982
f 977 983 982
f 977 978 983
f 978 984 983
f 978 979 984
f 979 985 984
f 979 980 985
f 980 986 985
f 980 981 986
f 981 987 986
f 981 976 987
f 976 982 987
f 982 983 988
f 983 989 988
f 983 984 989
f 984 990 989
f 984 985 990
f 985 991 990
f 985 986 991
f 986 992 991
f 986 987 992
f 987 993 992
f 987 982 993
f 982 988 993
f 988 989 994
f 989 990 994
f 990 991 994
f 991 992 994
f 992 993 994
f 993 988 994
f 995 996 997
f 998 995 997
f 999 998 997
f 1000 999 997
f 1001 1000 997
f 996 1001 997
f 996 995 1002
f 995 1003 1002
f 995 998 1003
f 998 1004 1003
f 998 999 1004
f 999 1005 1004
f 999 1000 1005
f 1000 1006 1005
f 1000 1001 1006
f 1001 1007 1006
f 1001 996 1007
f 996 1002 1007
f 1002 1003 1008
f 1003 1009 1008
f 1003 1004 1009
f 1004 1010 1009
f 1004 1005 1010
f 1005 1011 1010
f 1005 1006 1011
f 1006 1012 1011
f 1006 1007 1012
f 1007 1013 1012
f 1007 1002 1013
f 1002 1008 1013
f 1008 1009 1014
f 1009 1015 1014
f 1009 1010 1015
f 1010 1016 1015
f 1010 1011 1016
f 1011 1017 1016
f 1011 1012 1017
f 1012 1018 1017
f 1012 1013 1018
f 1013 1019 1018
f 1013 1008 1019
f 1008 1014 1019
f 1014 1015 1020
f 1015 1016 1020
f 1016 1017 1020
f 1017 1018 1020
f 1018 1019 1020
f 1019 1014 1020
f 1021 1022 1023
f 1024 1021 1023
f 1025 1024 1023
f 1026 1025 1023
f 1027 1026 1023
f 1022 1027 1023
f 1022 1021 1028
f 1021 1029 1028
f 1021 1024 1029
f 1024 1030 1029
f 1024 1025 1030
f 1025 1031 1030
f 1025 1026 1031
f 1026 1032 1031
f 1026 1027 1032
f 1027 1033 1032
f 1027 1022 1033
f 1022 1028 1033
f 1028 1029 1034
f 1029 1035 1034
f 1029 1030 1035
f 1030 1036 1035
f 1030 1031 1036
f 1031 1037 1036
f 1031 1032 1037
f 1032 1038 1037
f 1032 1033 1038
f 1033 1039 1038
f 1033 1028 1039
f 1028 1034 1039
f 1034 1035 1040
f 1035 1041 1040
f 1035 1036 1041
f 1036 1042 1041
f 1036 1037 1042
f 1037 1043 1042
f 1037 1038 1043
f 1038 1044 1043
f 1038 1039 1044
f 1039 1045 1044
f 1039 1034 1045
f 1034 1040 1045
f 1040 1041 1046
f 1041 1042 1046
f 1042 1043 1046
f 1043 1044 1046
f 1044 1045 1046
f 1045 1040 1046
f 1047 1048 1049
f 1050 1047 1049
f 1051 1050 1049
f 1052 1051 1049
f 1053 1052 1049
f 1048 1053 1049
f 1048 1047 1054
f 1047 1055 1054
f 1047 1050 1055
f 1050 1056 1055
f 1050 1051 1056
f 1051 1057 1056
f 1051 1052 1057
f 1052 1058 1057
f 1052 1053 1058
f 1053 1059 1058
f 1053 1048 1059
f 1048 1054 1059
f 1054 1055 1060
f 1055 1061 1060
f 1055 1056 1061
f 1056 1062 1061
f 1056 1057 1062
f 1057 1063 1062
f 1057 1058 1063
f 1058 1064 1063
f 1058 1059 1064
f 1059 1065 1064
f 1059 1054 1065
f 1054 1060 1065
f 1060 1061 1066
f 1061 1067 1066
f 1061 1062 1067
f 1062 1068 1067
f 1062 1063 1068
f 1063 1069 1068
f 1063 1064 1069
f 1064 1070 1069
f 1064 1065 1070
f 1065 1071 1070
f 1065 1060 1071
f 1060 1066 1071
f 1066 1067 1072
f 1067 1068 1072
f 1068 1069 1072
f 1069 1070 1072
f 1070 1071 1072
f 1071 1066 1072
f 1073 1074 1075
f 1076 1073 1075
f 1077 1076 1075
f 1078 1077 1075
f 1074 1078 1075
f 1074 1073 1079
f 1073 1080 1079
f 1073 1076 1080
f 1076 1081 1080
f 1076 1077 1081
f 1077 1082 1081
f 1077 1078 1082
f 1078 1083 1082
f 1078 1074 1083
f 1074 1079 1083
f 1079 1080 1084
f 1080 1081 1084
f 1081 1082 1084
f 1082 1083 1084
f 1083 1079 1084
f 1085 1086 1087
f 1088 1085 1087
f 1089 1088 1087
f 1090 1089 1087
f 1091 1090 1087
f 1092 1091 1087
f 1093 1092 1087
f 1094 1093 1087
f 1095 1094 1087
f 1096 1095 1087
f 1097 1096 1087
f 1098 1097 1087
f 1099 1098 1087
f 1100 1099 1087
f 1101 1100 1087
f 1102 1101 1087
f 1103 1102 1087
f 1104 1103 1087
f 1105 1104 1087
f 1106 1105 1087
f 1107 1106 1087
f 1108 1107 1087
f 1109 1108 1087
f 1086 1109 1087
f 1086 1085 1110
f 1085 1111 1110
f 1085 1088 1111
f 1088 1112 1111
f 1088 1089 1112
f 1089 1113 1112
f 1089 1090 1113
f 1090 1114 1113
f 1090 1091 1114
f 1091 1115 1114
f 1091 1092 1115
f 1092 1116 1115
f 1092 1093 1116
f 1093 1117 1116
f 1093 1094 1117
f 1094 1118 1117
f 1094 1095 1118
f 1095 1119 1118
f 1095 1096 1119
f 1096 1120 1119
f 1096 1097 1120
f 1097 1121 1120
f 1097 1098 1121
f 1098 1122 1121
f 1098 1099 1122
f 1099 1123 1122
f 1099 1100 1123
f 1100 1124 1123
f 1100 1101 1124
f 1101 1125 1124
f 1101 1102 1125
f 1102 1126 1125
f 1102 1103 1126
f 1103 1127 1126
f 1103 1104 1127
f 1104 1128 1127
f 1104 1105 1128
f 1105 1129 1128
f 1105 1106 1129
f 1106 1130 1129
f 1106 1107 1130
f 1107 1131 1130
f 1107 1108 1131
f 1108 1132 1131
f 1108 1109 1132
f 1109 1133 1132
f 1109 1086 1133
f 1086 1110 1133
f 1110 1111 1134
f 1111 1135 1134
f 1111 1112 1135
f 1112 1136 1135
f 1112 1113 1136
f 1113 1137 1136
f 1113 1114 1137
f 1114 1138 1137
f 1114 1115 1138
f 1115 1139 1138
f 1115 1116 1139
f 1116 1140 1139
f 1116 1117 1140
f 1117 1141 1140
f 1117 1118 1141
f 1118 1142 1141
f 1118 1119 1142
f 1119 1143 1142
f 1119 1120 1143
f 1120 1144 1143
f 1120 1121 1144
f 1121 1145 1144
f 1121 1122 1145
f 1122 1146 1145
f 1122 1123 1146
f 1123 1147 1146
f 1123 1124 1147
f 1124 1148 1147
f 1124 1125 1148
f 1125 1149 1148
f 1125 1126 1149
f 1126 1150 1149
f 1126 1127 1150
f 1127 1151 1150
f 1127 1128 1151
f 1128 1152 1151
f 1128 1129 1152
f 1129 1153 1152
f 1129 1130 1153
f 1130 1154 1153
f 1130 1131 1154
f 1131 1155 1154
f 1131 1132 1155
f 1132 1156 1155
f 1132 1133 1156
f 1133 1157 1156
f 1133 1110 1157
f 1110 1134 1157
f 1134 1135 1158
f 1135 1159 1158
f 1135 1136 1159
f 1136 1160 1159
f 1136 1137 1160
f 1137 1161 1160
f 1137 1138 1161
f 1138 1162 1161
f 1138 1139 1162
f 1139 1163 1162
f 1139 1140 1163
f 1140 1164 1163
f 1140 1141 1164
f 1141 1165 1164
f 1141 1142 1165
f 1142 1166 1165
f 1142 1143 1166
f 1143 1167 1166
f 1143 1144 1167
f 1144 1168 1167
f 1144 1145 1168
f 1145 1169 1168
f 1145 1146 1169
f 1146 1170 1169
f 1146 1147 1170
f 1147 1171 1170
f 1147 1148 1171
f 1148 1172 1171
f 1148 1149 1172
f 1149 1173 1172
f 1149 1150 1173
f 1150 1174 1173
f 1150 1151 1174
f 1151 1175 1174
f 1151 1152 1175
f 1152 1176 1175
f 1152 1153 1176
f 1153 1177 1176
f 1153 1154 1177
f 1154 1178 1177
f 1154 1155 1178
f 1155 1179 1178
f 1155 1156 1179
f 1156 1180 1179
f 1156 1157 1180
f 1157 1181 1180
f 1157 1134 1181
f 1134 1158 1181
f 1158 1159 1182
f 1159 1183 1182
f 1159 1160 1183
f 1160 1184 1183
f 1160 1161 1184
f 1161 1185 1184
f 1161 1162 1185
f 1162 1186 1185
f 1162 1163 1186
f 1163 1187 1186
f 1163 1164 1187
f 1164 1188 1187
f 1164 1165 1188
f 1165 1189 1188
f 1165 1166 1189
f 1166 1190 1189
f 1166 1167 1190
f 1167 1191 1190
f 1167 1168 1191
f 1168 1192 1191
f 1168 1169 1192
f 1169 1193 1192
f 1169 1170 1193
f 1170 1194 1193
f 1170 1171 1194
f 1171 1195 1194
f 1171 1172 1195
f 1172 1196 1195
f 1172 1173 1196
f 1173 1197 1196
f 1173 1174 1197
f 1174 1198 1197
f 1174 1175 1198
f 1175 1199 1198
f 1175 1176 1199
f 1176 1200 1199
f 1176 1177 1200
f 1177 1201 1200
f 1177 1178 1201
f 1178 1202 1201
f 1178 1179 1202
f 1179 1203 1202
f 1179 1180 1203
f 1180 1204 1203
f 1180 1181 1204
f 1181 1205 1204
f 1181 1158 1205
f 1158 1182 1205
f 1182 1183 1206
f 1183 1207 1206
f 1183 1184 1207
f 1184 1208 1207
f 1184 1185 1208
f 1185 1209 1208
f 1185 1186 1209
f 1186 1210 1209
f 1186 1187 1210
f 1187 1211 1210
f 1187 1188 1211
f 1188 1212 1211
f 1188 1189 1212
f 1189 1213 1212
f 1189 1190 1213
f 1190 1214 1213
f 1190 1191 1214
f 1191 1215 1214
f 1191 1192 1215
f 1192 1216 1215
f 1192 1193 1216
f 1193 1217 1216
f 1193 1194 1217
f 1194 1218 1217
f 1194 1195 1218
f 1195 1219 1218
f 1195 1196 1219
f 1196 1220 1219
f 1196 1197 1220
f 1197 1221 1220
f 1197 1198 1221
f 1198 1222 1221
f 1198 1199 1222
f 1199 1223 1222
f 1199 1200 1223
f 1200 1224 1223
f 1200 1201 1224
f 1201 1225 1224
f 1201 1202 1225
f 1202 1226 1225
f 1202 1203 1226
f 1203 1227 1226
f 1203 1204 1227
f 1204 1228 1227
f 1204 1205 1228
f 1205 1229 1228
f 1205 1182 1229
f 1182 1206 1229
f 1206 1207 1230
f 1207 1231 1230
f 1207 1208 1231
f 1208 1232 1231
f 1208 1209 1232
f 1209 1233 1232
f 1209 1210 1233
f 1210 1234 1233
f 1210 1211 1234
f 1211 1235 1234
f 1211 1212 1235
f 1212 1236 1235
f 1212 1213 1236
f 1213 1237 1236
f 1213 1214 1237
f 1214 1238 1237
f 1214 1215 1238
f 1215 1239 1238
f 1215 1216 1239
f 1216 1240 1239
f 1216 1217 1240
f 1217 1241 1240
f 1217 1218 1241
f 1218 1242 1241
f 1218 1219 1242
f 1219 1243 1242
f 1219 1220 1243
f 1220 1244 1243
f 1220 1221 1244
f 1221 1245 1244
f 1221 1222 1245
f 1222 1246 1245
f 1222 1223 1246
f 1223 1247 1246
f 1223 1224 1247
f 1224 1248 1247
f 1224 1225 1248
f 1225 1249 1248
f 1225 1226 1249
f 1226 1250 1249
f 1226 1227 1250
f 1227 1251 1250
f 1227 1228 1251
f 1228 1252 1251
f 1228 1229 1252
f 1229 1253 1252
f 1229 1206 1253
f 1206 1230 1253
f 1230 1231 1254
f 1231 1255 1254
f 1231 1232 1255
f 1232 1256 1255
f 1232 1233 1256
f 1233 1257 1256
f 1233 1234 1257
f 1234 1258 1257
f 1234 1235 1258
f 1235 1259 1258
f 1235 1236 1259
f 1236 1260 1259
f 1236 1237 1260
f 1237 1261 1260
f 1237 1238 1261
f 1238 1262 1261
f 1238 1239 1262
f 1239 1263 1262
f 1239 1240 1263
f 1240 1264 1263
f 1240 1241 1264
f 1241 1265 1264
f 1241 1242 1265
f 1242 1266 1265
f 1242 1243 1266
f 1243 1267 1266
f 1243 1244 1267
f 1244 1268 1267
f 1244 1245 1268
f 1245 1269 1268
f 1245 1246 1269
f 1246 1270 1269
f 1246 1247 1270
f 1247 1271 1270
f 1247 1248 1271
f 1248 1272 1271
f 1248 1249 1272
f 1249 1273 1272
f 1249 1250 1273
f 1250 1274 1273
f 1250 1251 1274
f 1251 1275 1274
f 1251 1252 1275
f 1252 1276 1275
f 1252 1253 1276
f 1253 1277 1276
f 1253 1230 1277
f 1230 1254 1277
f 1254 1255 1278
f 1255 1279 1278
f 1255 1256 1279
f 1256 1280 1279
f 1256 1257 1280
f 1257 1281 1280
f 1257 1258 1281
f 1258 1282 1281
f 1258 1259 1282
f 1259 1283 1282
f 1259 1260 1283
f 1260 1284 1283
f 1260 1261 1284
f 1261 1285 1284
f 1261 1262 1285
f 1262 1286 1285
f 1262 1263 1286
f 1263 1287 1286
f 1263 1264 1287
f 1264 1288 1287
f 1264 1265 1288
f 1265 1289 1288
f 1265 1266 1289
f 1266 1290 1289
f 1266 1267 1290
f 1267 1291 1290
f 1267 1268 1291
f 1268 1292 1291
f 1268 1269 1292
f 1269 1293 1292
f 1269 1270 1293
f 1270 1294 1293
f 1270 1271 1294
f 1271 1295 1294
f 1271 1272 1295
f 1272 1296 1295
f 1272 1273 1296
f 1273 1297 1296
f 1273 1274 1297
f 1274 1298 1297
f 1274 1275 1298
f 1275 1299 1298
f 1275 1276 1299
f 1276 1300 1299
f 1276 1277 1300
f 1277 1301 1300
f 1277 1254 1301
f 1254 1278 1301
f 1278 1279 1302
f 1279 1303 1302
f 1279 1280 1303
f 1280 1304 1303
f 1280 1281 1304
f 1281 1305 1304
f 1281 1282 1305
f 1282 1306 1305
f 1282 1283 1306
f 1283 1307 1306
f 1283 1284 1307
f 1284 1308 1307
f 1284 1285 1308
f 1285 1309 1308
f 1285 1286 1309
f 1286 1310 1309
f 1286 1287 1310
f 1287 1311 1310
f 1287 1288 1311
f 1288 1312 1311
f 1288 1289 1312
f 1289 1313 1312
f 1289 1290 1313
f 1290 1314 1313
f 1290 1291 1314
f 1291 1315 1314
f 1291 1292 1315
f 1292 1316 1315
f 1292 1293 1316
f 1293 1317 1316
f 1293 1294 1317
f 1294 1318 1317
f 1294 1295 1318
f 1295 1319 1318
f 1295 1296 1319
f 1296 1320 1319
f 1296 1297 1320
f 1297 1321 1320
f 1297 1298 1321
f 1298 1322 1321
f 1298 1299 1322
f 1299 1323 1322
f 1299 1300 1323
f 1300 1324 1323
f 1300 1301 1324
f 1301 1325 1324
f 1301 1278 1325
f 1278 1302 1325
f 1302 1303 1326
f 1303 1327 1326
f 1303 1304 1327
f 1304 1328 1327
f 1304 1305 1328
f 1305 1329 1328
f 1305 1306 1329
f 1306 1330 1329
f 1306 1307 1330
f 1307 1331 1330
f 1307 1308 1331
f 1308 1332 1331
f 1308 1309 1332
f 1309 1333 1332
f 1309 1310 1333
f 1310 1334 1333
f 1310 1311 1334
f 1311 1335 1334
f 1311 1312 1335
f 1312 1336 1335
f 1312 1313 1336
f 1313 1337 1336
f 1313 1314 1337
f 1314 1338 1337
f 1314 1315 1338
f 1315 1339 1338
f 1315 1316 1339
f 1316 1340 1339
f 1316 1317 1340
f 1317 1341 1340
f 1317 1318 1341
f 1318 1342 1341
f 1318 1319 1342
f 1319 1343 1342
f 1319 1320 1343
f 1320 1344 1343
f 1320 1321 1344
f 1321 1345 1344
f 1321 1322 1345
f 1322 1346 1345
f 1322 1323 1346
f 1323 1347 1346
f 1323 1324 1347
f 1324 1348 1347
f 1324 1325 1348
f 1325 1349 1348
f 1325 1302 1349
f 1302 1326 1349
f 1326 1327 1350
f 1327 1328 1350
f 1328 1329 1350
f 1329 1330 1350
f 1330 1331 1350
f 1331 1332 1350
f 1332 1333 1350
f 1333 1334 1350
f 1334 1335 1350
f 1335 1336 1350
f 1336 1337 1350
f 1337 1338 1350
f 1338 1339 1350
f 1339 1340 1350
f 1340 1341 1350
f 1341 1342 1350
f 1342 1343 1350
f 1343 1344 1350
f 1344 1345 1350
f 1345 1346 1350
f 1346 1347 1350
f 1347 1348 1350
f 1348 1349 1350
f 1349 1326 1350
f 1351 1352 1353
f 1354 1351 1353
f 1355 1354 1353
f 1356 1355 1353
f 1352 1356 1353
f 1352 1351 1357
f 1351 1358 1357
f 1351 1354 1358
f 1354 1359 1358
f 1354 1355 1359
f 1355 1360 1359
f 1355 1356 1360
f 1356 1361 1360
f 1356 1352 1361
f 1352 1357 1361
f 1357 1358 1362
f 1358 1359 1362
f 1359 1360 1362
f 1360 1361 1362
f 1361 1357 1362

