# https://github.com/mikedh/trimesh

o m39.off
v 0.29156600 0.51727200 0.17718400
v 0.30218400 0.51727200 0.18502500
v 0.31280200 0.51727200 0.18698600
v 0.32342000 0.51727200 0.18894600
v 0.33403800 0.51727200 0.18943600
v 0.35527400 0.51727200 0.18992600
v 0.41898200 0.51727200 0.18894600
v 0.50392600 0.51727200 0.17718400
v 0.41898200 0.51727200 0.16542300
v 0.35527400 0.51727200 0.16444300
v 0.33403800 0.51727200 0.16493300
v 0.32342000 0.51727200 0.16542300
v 0.31280200 0.51727200 0.16738300
v 0.30218400 0.51727200 0.16934300
v 0.23220500 0.69590200 0.21374200
v 0.24340500 0.69590200 0.22201300
v 0.25460500 0.69590200 0.22408000
v 0.26580500 0.69590200 0.22614800
v 0.27700500 0.69590200 0.22666500
v 0.29940500 0.69590200 0.22718200
v 0.45620700 0.69590200 0.21374200
v 0.36660600 0.69590200 0.20133500
v 0.29940500 0.69590200 0.20030200
v 0.27700500 0.69590200 0.20081900
v 0.26580500 0.69590200 0.20133500
v 0.25460500 0.69590200 0.20340300
v 0.24340500 0.69590200 0.20547100
v 0.29156600 0.48272800 0.17718400
v 0.30218400 0.48272800 0.18502500
v 0.31280200 0.48272800 0.18698600
v 0.32342000 0.48272800 0.18894600
v 0.33403800 0.48272800 0.18943600
v 0.35527400 0.48272800 0.18992600
v 0.41898200 0.48272800 0.18894600
v 0.50392600 0.48272800 0.17718400
v 0.41898200 0.48272800 0.16542300
v 0.35527400 0.48272800 0.16444300
v 0.33403800 0.48272800 0.16493300
v 0.32342000 0.48272800 0.16542300
v 0.31280200 0.48272800 0.16738300
v 0.30218400 0.48272800 0.16934300
v 0.23220500 0.30409800 0.21374200
v 0.24340500 0.30409800 0.22201300
v 0.25460500 0.30409800 0.22408000
v 0.26580500 0.30409800 0.22614800
v 0.27700500 0.30409800 0.22666500
v 0.29940500 0.30409800 0.22718200
v 0.45620700 0.30409800 0.21374200
v 0.36660600 0.30409800 0.20133500
v 0.29940500 0.30409800 0.20030200
v 0.27700500 0.30409800 0.20081900
v 0.26580500 0.30409800 0.20133500
v 0.25460500 0.30409800 0.20340300
v 0.24340500 0.30409800 0.20547100
v 0.36660600 0.69590200 0.22614800
v 0.48493100 0.97500000 0.20507700
v 0.48645900 0.97500000 0.20620600
v 0.48798800 0.97500000 0.20648800
v 0.48951600 0.97500000 0.20677000
v 0.49104400 0.97500000 0.20684100
v 0.49410100 0.97500000 0.20691100
v 0.50327100 0.97500000 0.20677000
v 0.51549800 0.97500000 0.20507700
v 0.50327100 0.97500000 0.20338400
v 0.49410100 0.97500000 0.20324300
v 0.49104400 0.97500000 0.20331400
v 0.48951600 0.97500000 0.20338400
v 0.48798800 0.97500000 0.20366600
v 0.48645900 0.97500000 0.20394800
v 0.36660600 0.30409800 0.22614800
v 0.48493100 0.02500000 0.20507700
v 0.48645900 0.02500000 0.20620600
v 0.48798800 0.02500000 0.20648800
v 0.48951600 0.02500000 0.20677000
v 0.49104400 0.02500000 0.20684100
v 0.49410100 0.02500000 0.20691100
v 0.50327100 0.02500000 0.20677000
v 0.51549800 0.02500000 0.20507700
v 0.50327100 0.02500000 0.20338400
v 0.49410100 0.02500000 0.20324300
v 0.49104400 0.02500000 0.20331400
v 0.48951600 0.02500000 0.20338400
v 0.48798800 0.02500000 0.20366600
v 0.48645900 0.02500000 0.20394800
v 0.54837800 0.50000000 0.13215500
v 0.56216400 0.50000000 0.13639600
v 0.57594900 0.50000000 0.13745700
v 0.58973500 0.50000000 0.13851700
v 0.60352000 0.50000000 0.13878200
v 0.63109100 0.50000000 0.13904700
v 0.71380400 0.50000000 0.13851700
v 0.82408700 0.50000000 0.13215500
v 0.71380400 0.50000000 0.12579200
v 0.63109100 0.50000000 0.12526200
v 0.60352000 0.50000000 0.12552700
v 0.58973500 0.50000000 0.12579200
v 0.57594900 0.50000000 0.12685200
v 0.56216400 0.50000000 0.12791300
v 0.83526200 0.60441100 0.13561800
v 0.83767800 0.60441100 0.13561800
v 0.84009300 0.60441100 0.13561800
v 0.84250900 0.60441100 0.13561800
v 0.84492400 0.60441100 0.13561800
v 0.84975600 0.60441100 0.13561800
v 0.86424900 0.60441100 0.13561800
v 0.88357400 0.60441100 0.13561800
v 0.83526200 0.39558900 0.13561800
v 0.83767800 0.39558900 0.13561800
v 0.84009300 0.39558900 0.13561800
v 0.84250900 0.39558900 0.13561800
v 0.84492400 0.39558900 0.13561800
v 0.84975600 0.39558900 0.13561800
v 0.86424900 0.39558900 0.13561800
v 0.88357400 0.39558900 0.13561800
v 0.02500000 0.50213200 0.15825200
v 0.02500000 0.50202800 0.15994500
v 0.02500000 0.50172500 0.16147200
v 0.02500000 0.50125300 0.16268400
v 0.02500000 0.50065900 0.16346200
v 0.02500000 0.50000000 0.16373000
v 0.02500000 0.49934100 0.16346200
v 0.02500000 0.49874700 0.16268400
v 0.02500000 0.49827500 0.16147200
v 0.02500000 0.49797200 0.15994500
v 0.02500000 0.49786800 0.15825200
v 0.02500000 0.49796700 0.15645700
v 0.02500000 0.49825600 0.15494600
v 0.02500000 0.49871300 0.15377300
v 0.02500000 0.49930100 0.15302900
v 0.02500000 0.50000000 0.15277400
v 0.02500000 0.50069900 0.15302900
v 0.02500000 0.50128700 0.15377300
v 0.02500000 0.50174400 0.15494600
v 0.02500000 0.50203300 0.15645700
v 0.03097930 0.50439400 0.16365200
v 0.03097930 0.50417900 0.16949300
v 0.03097930 0.50355500 0.17476200
v 0.03097930 0.50258300 0.17894400
v 0.03097930 0.50135800 0.18162900
v 0.03097930 0.50000000 0.18255400
v 0.03097930 0.49864200 0.18162900
v 0.03097930 0.49741700 0.17894400
v 0.03097930 0.49644500 0.17476200
v 0.03097930 0.49582100 0.16949300
v 0.03097930 0.49560600 0.16365200
v 0.03097930 0.49581000 0.15745700
v 0.03097930 0.49640700 0.15224200
v 0.03097930 0.49734700 0.14819700
v 0.03097930 0.49856000 0.14563000
v 0.03097930 0.50000000 0.14475000
v 0.03097930 0.50144000 0.14563000
v 0.03097930 0.50265300 0.14819700
v 0.03097930 0.50359300 0.15224200
v 0.03097930 0.50419000 0.15745700
v 0.02820050 0.50371000 0.17810400
v 0.02820050 0.50352900 0.17895900
v 0.02820050 0.50300200 0.17973000
v 0.02820050 0.50218100 0.18034100
v 0.02820050 0.50114600 0.18073400
v 0.02820050 0.50000000 0.18087000
v 0.02820050 0.49885300 0.18073400
v 0.02820050 0.49781900 0.18034100
v 0.02820050 0.49699800 0.17973000
v 0.02820050 0.49647100 0.17895900
v 0.02820050 0.49629000 0.17810400
v 0.02820050 0.49646300 0.17719700
v 0.02820050 0.49696600 0.17643400
v 0.02820050 0.49776000 0.17584200
v 0.02820050 0.49878400 0.17546700
v 0.02820050 0.50000000 0.17533800
v 0.02820050 0.50121600 0.17546700
v 0.02820050 0.50224000 0.17584200
v 0.02820050 0.50303400 0.17643400
v 0.02820050 0.50353700 0.17719700
v 0.03890990 0.50703100 0.18546900
v 0.03890990 0.50668700 0.18859400
v 0.03890990 0.50568800 0.19141200
v 0.03890990 0.50413300 0.19364900
v 0.03890990 0.50217300 0.19508500
v 0.03890990 0.50000000 0.19558000
v 0.03890990 0.49782700 0.19508500
v 0.03890990 0.49586700 0.19364900
v 0.03890990 0.49431200 0.19141200
v 0.03890990 0.49331300 0.18859400
v 0.03890990 0.49296900 0.18546900
v 0.03890990 0.49329600 0.18215600
v 0.03890990 0.49425100 0.17936600
v 0.03890990 0.49575600 0.17720300
v 0.03890990 0.49769600 0.17582900
v 0.03890990 0.50000000 0.17535900
v 0.03890990 0.50230400 0.17582900
v 0.03890990 0.50424400 0.17720300
v 0.03890990 0.50574900 0.17936600
v 0.03890990 0.50670400 0.18215600
v 0.06113350 0.51212100 0.19044700
v 0.06113350 0.51152700 0.19508300
v 0.06113350 0.50980600 0.19926600
v 0.06113350 0.50712400 0.20258500
v 0.06113350 0.50374500 0.20471600
v 0.06113350 0.50000000 0.20545100
v 0.06113350 0.49625500 0.20471600
v 0.06113350 0.49287600 0.20258500
v 0.06113350 0.49019400 0.19926600
v 0.06113350 0.48847300 0.19508300
v 0.06113350 0.48787900 0.19044700
v 0.06113350 0.48844400 0.18553000
v 0.06113350 0.49009000 0.18139000
v 0.06113350 0.49268400 0.17817900
v 0.06113350 0.49602800 0.17614100
v 0.06113350 0.50000000 0.17544300
v 0.06113350 0.50397200 0.17614100
v 0.06113350 0.50731600 0.17817900
v 0.06113350 0.50991000 0.18139000
v 0.06113350 0.51155600 0.18553000
v 0.08145610 0.51663200 0.19102200
v 0.08145610 0.51581800 0.19677100
v 0.08145610 0.51345600 0.20195800
v 0.08145610 0.50977600 0.20607400
v 0.08145610 0.50514000 0.20871600
v 0.08145610 0.50000000 0.20962700
v 0.08145610 0.49486000 0.20871600
v 0.08145610 0.49022400 0.20607400
v 0.08145610 0.48654400 0.20195800
v 0.08145610 0.48418200 0.19677100
v 0.08145610 0.48336800 0.19102200
v 0.08145610 0.48414200 0.18492500
v 0.08145610 0.48640100 0.17979200
v 0.08145610 0.48996100 0.17581000
v 0.08145610 0.49455000 0.17328300
v 0.08145610 0.50000000 0.17241700
v 0.08145610 0.50545000 0.17328300
v 0.08145610 0.51003900 0.17581000
v 0.08145610 0.51359900 0.17979200
v 0.08145610 0.51585800 0.18492500
v 0.11205200 0.52273500 0.19178000
v 0.11205200 0.52162200 0.19965900
v 0.11205200 0.51839300 0.20676600
v 0.11205200 0.51336300 0.21240600
v 0.11205200 0.50702600 0.21602700
v 0.11205200 0.50000000 0.21727500
v 0.11205200 0.49297400 0.21602700
v 0.11205200 0.48663700 0.21240600
v 0.11205200 0.48160700 0.20676600
v 0.11205200 0.47837800 0.19965900
v 0.11205200 0.47726500 0.19178000
v 0.11205200 0.47832300 0.18342600
v 0.11205200 0.48141100 0.17639200
v 0.11205200 0.48627700 0.17093500
v 0.11205200 0.49255000 0.16747300
v 0.11205200 0.50000000 0.16628600
v 0.11205200 0.50745000 0.16747300
v 0.11205200 0.51372300 0.17093500
v 0.11205200 0.51858900 0.17639200
v 0.11205200 0.52167700 0.18342600
v 0.13084700 0.52898700 0.19136000
v 0.13084700 0.52756900 0.20068100
v 0.13084700 0.52345100 0.20909000
v 0.13084700 0.51703800 0.21576300
v 0.13084700 0.50895800 0.22004700
v 0.13084700 0.50000000 0.22152400
v 0.13084700 0.49104200 0.22004700
v 0.13084700 0.48296200 0.21576300
v 0.13084700 0.47654900 0.20909000
v 0.13084700 0.47243100 0.20068100
v 0.13084700 0.47101300 0.19136000
v 0.13084700 0.47236200 0.18147500
v 0.13084700 0.47629900 0.17315200
v 0.13084700 0.48250300 0.16669700
v 0.13084700 0.49050100 0.16260000
v 0.13084700 0.50000000 0.16119600
v 0.13084700 0.50949900 0.16260000
v 0.13084700 0.51749700 0.16669700
v 0.13084700 0.52370100 0.17315200
v 0.13084700 0.52763800 0.18147500
v 0.15647200 0.53628600 0.19773000
v 0.15647200 0.53451000 0.21169000
v 0.15647200 0.52935600 0.22428400
v 0.15647200 0.52132800 0.23427900
v 0.15647200 0.51121300 0.24069600
v 0.15647200 0.50000000 0.24290700
v 0.15647200 0.48878700 0.24069600
v 0.15647200 0.47867200 0.23427900
v 0.15647200 0.47064400 0.22428400
v 0.15647200 0.46549000 0.21169000
v 0.15647200 0.46371400 0.19773000
v 0.15647200 0.46540300 0.18292500
v 0.15647200 0.47033100 0.17046000
v 0.15647200 0.47809700 0.16079100
v 0.15647200 0.48810900 0.15465600
v 0.15647200 0.50000000 0.15255200
v 0.15647200 0.51189100 0.15465600
v 0.15647200 0.52190300 0.16079100
v 0.15647200 0.52966900 0.17046000
v 0.15647200 0.53459700 0.18292500
v 0.18423200 0.54230000 0.20034200
v 0.18423200 0.54022900 0.21792000
v 0.18423200 0.53422100 0.23377700
v 0.18423200 0.52486300 0.24636200
v 0.18423200 0.51307100 0.25444200
v 0.18423200 0.50000000 0.25722600
v 0.18423200 0.48692900 0.25444200
v 0.18423200 0.47513700 0.24636200
v 0.18423200 0.46577900 0.23377700
v 0.18423200 0.45977100 0.21792000
v 0.18423200 0.45770000 0.20034200
v 0.18423200 0.45967000 0.18170100
v 0.18423200 0.46541400 0.16600700
v 0.18423200 0.47446800 0.15383200
v 0.18423200 0.48613800 0.14610700
v 0.18423200 0.50000000 0.14345900
v 0.18423200 0.51386200 0.14610700
v 0.18423200 0.52553200 0.15383200
v 0.18423200 0.53458600 0.16600700
v 0.18423200 0.54033000 0.18170100
v 0.21097000 0.54641800 0.19520900
v 0.21097000 0.54414600 0.21509300
v 0.21097000 0.53755300 0.23303100
v 0.21097000 0.52728400 0.24726700
v 0.21097000 0.51434400 0.25640700
v 0.21097000 0.50000000 0.25955700
v 0.21097000 0.48565600 0.25640700
v 0.21097000 0.47271600 0.24726700
v 0.21097000 0.46244700 0.23303100
v 0.21097000 0.45585400 0.21509300
v 0.21097000 0.45358200 0.19520900
v 0.21097000 0.45574300 0.17412200
v 0.21097000 0.46204700 0.15636700
v 0.21097000 0.47198100 0.14259500
v 0.21097000 0.48478900 0.13385600
v 0.21097000 0.50000000 0.13086100
v 0.21097000 0.51521100 0.13385600
v 0.21097000 0.52801900 0.14259500
v 0.21097000 0.53795300 0.15636700
v 0.21097000 0.54425700 0.17412200
v 0.24188800 0.54511700 0.18077300
v 0.24188800 0.54290900 0.20193900
v 0.24188800 0.53650000 0.22103300
v 0.24188800 0.52651900 0.23618600
v 0.24188800 0.51394200 0.24591500
v 0.24188800 0.50000000 0.24926700
v 0.24188800 0.48605800 0.24591500
v 0.24188800 0.47348100 0.23618600
v 0.24188800 0.46350000 0.22103300
v 0.24188800 0.45709100 0.20193900
v 0.24188800 0.45488300 0.18077300
v 0.24188800 0.45698400 0.15832600
v 0.24188800 0.46311100 0.13942800
v 0.24188800 0.47276700 0.12476900
v 0.24188800 0.48521500 0.11546600
v 0.24188800 0.50000000 0.11227800
v 0.24188800 0.51478500 0.11546600
v 0.24188800 0.52723300 0.12476900
v 0.24188800 0.53688900 0.13942800
v 0.24188800 0.54301600 0.15832600
v 0.25943600 0.54606500 0.16679400
v 0.25943600 0.54381100 0.18875800
v 0.25943600 0.53726800 0.20857200
v 0.25943600 0.52707700 0.22429600
v 0.25943600 0.51423500 0.23439200
v 0.25943600 0.50000000 0.23787000
v 0.25943600 0.48576500 0.23439200
v 0.25943600 0.47292300 0.22429600
v 0.25943600 0.46273200 0.20857200
v 0.25943600 0.45618900 0.18875800
v 0.25943600 0.45393500 0.16679400
v 0.25943600 0.45563600 0.13733600
v 0.25943600 0.46070400 0.11908100
v 0.25943600 0.46907600 0.10616300
v 0.25943600 0.48090800 0.09834330
v 0.25943600 0.50000000 0.09571790
v 0.25943600 0.51909300 0.09834330
v 0.25943600 0.53092400 0.10616300
v 0.25943600 0.53929600 0.11908100
v 0.25943600 0.54436400 0.13733600
v 0.26999400 0.55012100 0.15670900
v 0.26999400 0.54766800 0.17962200
v 0.26999400 0.54054900 0.20029200
v 0.26999400 0.52946100 0.21669600
v 0.26999400 0.51548800 0.22722800
v 0.26999400 0.50000000 0.23085800
v 0.26999400 0.48451200 0.22722800
v 0.26999400 0.47053900 0.21669600
v 0.26999400 0.45945100 0.20029200
v 0.26999400 0.45233200 0.17962200
v 0.26999400 0.44987900 0.15670900
v 0.26999400 0.45204400 0.13032800
v 0.26999400 0.45840600 0.11025600
v 0.26999400 0.46860000 0.09517610
v 0.26999400 0.48216800 0.08576330
v 0.26999400 0.50000000 0.08256020
v 0.26999400 0.51783200 0.08576330
v 0.26999400 0.53140000 0.09517610
v 0.26999400 0.54159300 0.11025600
v 0.26999400 0.54795600 0.13032800
v 0.29954400 0.56834700 0.13462700
v 0.29954400 0.56387000 0.15053900
v 0.29954400 0.55134100 0.17253000
v 0.29954400 0.53335500 0.19296800
v 0.29954400 0.51400200 0.20720600
v 0.29954400 0.50000000 0.21229300
v 0.29954400 0.48599800 0.20720600
v 0.29954400 0.46664500 0.19296800
v 0.29954400 0.44865900 0.17253000
v 0.29954400 0.43613000 0.15053900
v 0.29954400 0.43165300 0.13462700
v 0.29954400 0.43483500 0.10917600
v 0.29954400 0.44411700 0.08774780
v 0.29954400 0.45874500 0.07112560
v 0.29954400 0.47760200 0.06057780
v 0.29954400 0.50000000 0.05696220
v 0.29954400 0.52239800 0.06057780
v 0.29954400 0.54125500 0.07112560
v 0.29954400 0.55588300 0.08774780
v 0.29954400 0.56516500 0.10917600
v 0.33109100 0.57658400 0.12456600
v 0.33109100 0.57283600 0.15149100
v 0.33109100 0.56195800 0.17578000
v 0.33109100 0.54501500 0.19505500
v 0.33109100 0.52366600 0.20743100
v 0.33109100 0.50000000 0.21169600
v 0.33109100 0.47633400 0.20743100
v 0.33109100 0.45498500 0.19505500
v 0.33109100 0.43804200 0.17578000
v 0.33109100 0.42716400 0.15149100
v 0.33109100 0.42341600 0.12456600
v 0.33109100 0.42698100 0.09601310
v 0.33109100 0.43738200 0.07197350
v 0.33109100 0.45377300 0.05332560
v 0.33109100 0.47490300 0.04149250
v 0.33109100 0.50000000 0.03743630
v 0.33109100 0.52509700 0.04149250
v 0.33109100 0.54622700 0.05332560
v 0.33109100 0.56261800 0.07197350
v 0.33109100 0.57301900 0.09601310
v 0.37833000 0.57849800 0.12123400
v 0.37833000 0.57465600 0.15020600
v 0.37833000 0.56350600 0.17634300
v 0.37833000 0.54614000 0.19708500
v 0.37833000 0.52425700 0.21040200
v 0.37833000 0.50000000 0.21499100
v 0.37833000 0.47574300 0.21040200
v 0.37833000 0.45386000 0.19708500
v 0.37833000 0.43649400 0.17634300
v 0.37833000 0.42534400 0.15020600
v 0.37833000 0.42150200 0.12123400
v 0.37833000 0.42515700 0.09050910
v 0.37833000 0.43581800 0.06464080
v 0.37833000 0.45261800 0.04457450
v 0.37833000 0.47427600 0.03184130
v 0.37833000 0.50000000 0.02747650
v 0.37833000 0.52572400 0.03184130
v 0.37833000 0.54738200 0.04457450
v 0.37833000 0.56418200 0.06464080
v 0.37833000 0.57484300 0.09050910
v 0.41912700 0.57598200 0.11718200
v 0.41912700 0.57226300 0.14566700
v 0.41912700 0.56147100 0.17136500
v 0.41912700 0.54466100 0.19175800
v 0.41912700 0.52348000 0.20485200
v 0.41912700 0.50000000 0.20936300
v 0.41912700 0.47652000 0.20485200
v 0.41912700 0.45533900 0.19175800
v 0.41912700 0.43852900 0.17136500
v 0.41912700 0.42773700 0.14566700
v 0.41912700 0.42401800 0.11718200
v 0.41912700 0.42755600 0.08697330
v 0.41912700 0.43787500 0.06153970
v 0.41912700 0.45413700 0.04181070
v 0.41912700 0.47510000 0.02929140
v 0.41912700 0.50000000 0.02500000
v 0.41912700 0.52490000 0.02929140
v 0.41912700 0.54586400 0.04181070
v 0.41912700 0.56212500 0.06153970
v 0.41912700 0.57244400 0.08697330
v 0.46864200 0.56202800 0.11379900
v 0.46864200 0.55899300 0.13970200
v 0.46864200 0.55018200 0.16306900
v 0.46864200 0.53645900 0.18161300
v 0.46864200 0.51916800 0.19351900
v 0.46864200 0.50000000 0.19762100
v 0.46864200 0.48083200 0.19351900
v 0.46864200 0.46354100 0.18161300
v 0.46864200 0.44981800 0.16306900
v 0.46864200 0.44100800 0.13970200
v 0.46864200 0.43797200 0.11379900
v 0.46864200 0.44085900 0.08633010
v 0.46864200 0.44928300 0.06320300
v 0.46864200 0.46255900 0.04526310
v 0.46864200 0.47967300 0.03387910
v 0.46864200 0.50000000 0.02997690
v 0.46864200 0.52032700 0.03387910
v 0.46864200 0.53744100 0.04526310
v 0.46864200 0.55071700 0.06320300
v 0.46864200 0.55914100 0.08633010
v 0.52803200 0.54997200 0.10917400
v 0.52803200 0.54752600 0.13086600
v 0.52803200 0.54042800 0.15043400
v 0.52803200 0.52937300 0.16596300
v 0.52803200 0.51544200 0.17593400
v 0.52803200 0.50000000 0.17936900
v 0.52803200 0.48455800 0.17593400
v 0.52803200 0.47062700 0.16596300
v 0.52803200 0.45957200 0.15043400
v 0.52803200 0.45247300 0.13086600
v 0.52803200 0.45002800 0.10917400
v 0.52803200 0.45235400 0.08617070
v 0.52803200 0.45914100 0.06680340
v 0.52803200 0.46983600 0.05177990
v 0.52803200 0.48362400 0.04224670
v 0.52803200 0.50000000 0.03897880
v 0.52803200 0.51637600 0.04224670
v 0.52803200 0.53016400 0.05177990
v 0.52803200 0.54085900 0.06680340
v 0.52803200 0.54764600 0.08617070
v 0.62199000 0.52938900 0.11389300
v 0.62199000 0.52795100 0.12779800
v 0.62199000 0.52377600 0.14034200
v 0.62199000 0.51727400 0.15029700
v 0.62199000 0.50908200 0.15668900
v 0.62199000 0.50000000 0.15889100
v 0.62199000 0.49091800 0.15668900
v 0.62199000 0.48272600 0.15029700
v 0.62199000 0.47622400 0.14034200
v 0.62199000 0.47204900 0.12779800
v 0.62199000 0.47061100 0.11389300
v 0.62199000 0.47197900 0.09914680
v 0.62199000 0.47597100 0.08673150
v 0.62199000 0.48226000 0.07710090
v 0.62199000 0.49036900 0.07098970
v 0.62199000 0.50000000 0.06889480
v 0.62199000 0.50963100 0.07098970
v 0.62199000 0.51774000 0.07710090
v 0.62199000 0.52402900 0.08673150
v 0.62199000 0.52802100 0.09914680
v 0.70954200 0.51911900 0.12001500
v 0.70954200 0.51818300 0.12816300
v 0.70954200 0.51546800 0.13551300
v 0.70954200 0.51123800 0.14134600
v 0.70954200 0.50590800 0.14509100
v 0.70954200 0.50000000 0.14638100
v 0.70954200 0.49409200 0.14509100
v 0.70954200 0.48876200 0.14134600
v 0.70954200 0.48453200 0.13551300
v 0.70954200 0.48181700 0.12816300
v 0.70954200 0.48088100 0.12001500
v 0.70954200 0.48177100 0.11137500
v 0.70954200 0.48436700 0.10410100
v 0.70954200 0.48845900 0.09845780
v 0.70954200 0.49373500 0.09487700
v 0.70954200 0.50000000 0.09364960
v 0.70954200 0.50626500 0.09487700
v 0.70954200 0.51154100 0.09845780
v 0.70954200 0.51563300 0.10410100
v 0.70954200 0.51822900 0.11137500
v 0.78855200 0.50554800 0.13116900
v 0.78855200 0.50527600 0.13058200
v 0.78855200 0.50448800 0.13005300
v 0.78855200 0.50326100 0.12963300
v 0.78855200 0.50171400 0.12936300
v 0.78855200 0.50000000 0.12927100
v 0.78855200 0.49828600 0.12936300
v 0.78855200 0.49673900 0.12963300
v 0.78855200 0.49551200 0.13005300
v 0.78855200 0.49472400 0.13058200
v 0.78855200 0.49445200 0.13116900
v 0.78855200 0.49471100 0.13179100
v 0.78855200 0.49546400 0.13231500
v 0.78855200 0.49665100 0.13272100
v 0.78855200 0.49818200 0.13297900
v 0.78855200 0.50000000 0.13306700
v 0.78855200 0.50181800 0.13297900
v 0.78855200 0.50334900 0.13272100
v 0.78855200 0.50453600 0.13231500
v 0.78855200 0.50528900 0.13179100
v 0.56904400 0.50000000 0.13987500
v 0.56904400 0.50000000 0.14435700
v 0.56904400 0.50000000 0.14840000
v 0.56904400 0.50000000 0.15160900
v 0.56904400 0.50000000 0.15367000
v 0.56904400 0.50000000 0.15437900
v 0.56904400 0.50000000 0.13512100
v 0.56904400 0.50000000 0.13112000
v 0.56904400 0.50000000 0.12801500
v 0.56904400 0.50000000 0.12604500
v 0.56904400 0.50000000 0.12537000
v 0.60579900 0.46363000 0.06089350
v 0.60923600 0.46574500 0.06089350
v 0.61267300 0.46627400 0.06089350
v 0.61611000 0.46680200 0.06089350
v 0.61954700 0.46693400 0.06089350
v 0.62642000 0.46706700 0.06089350
v 0.64704200 0.46680200 0.06089350
v 0.67453700 0.46363000 0.06089350
v 0.64704200 0.46045700 0.06089350
v 0.62642000 0.46019300 0.06089350
v 0.61954700 0.46032500 0.06089350
v 0.61611000 0.46045700 0.06089350
v 0.61267300 0.46098600 0.06089350
v 0.60923600 0.46151500 0.06089350
v 0.33953100 0.53463800 0.17376600
v 0.34067400 0.53534200 0.17376600
v 0.34181700 0.53551700 0.17376600
v 0.34296000 0.53569300 0.17376600
v 0.34410300 0.53573700 0.17376600
v 0.34638900 0.53578100 0.17376600
v 0.35324700 0.53569300 0.17376600
v 0.36239000 0.53463800 0.17376600
v 0.35324700 0.53358300 0.17376600
v 0.34638900 0.53349500 0.17376600
v 0.34410300 0.53353900 0.17376600
v 0.34296000 0.53358300 0.17376600
v 0.34181700 0.53375900 0.17376600
v 0.34067400 0.53393500 0.17376600
v 0.60579900 0.53637000 0.06089350
v 0.60923600 0.53848500 0.06089350
v 0.61267300 0.53901400 0.06089350
v 0.61611000 0.53954300 0.06089350
v 0.61954700 0.53967500 0.06089350
v 0.62642000 0.53980700 0.06089350
v 0.64704200 0.53954300 0.06089350
v 0.67453700 0.53637000 0.06089350
v 0.64704200 0.53319800 0.06089350
v 0.62642000 0.53293300 0.06089350
v 0.61954700 0.53306600 0.06089350
v 0.61611000 0.53319800 0.06089350
v 0.61267300 0.53372600 0.06089350
v 0.60923600 0.53425500 0.06089350
v 0.33953100 0.46536200 0.17376600
v 0.34067400 0.46606500 0.17376600
v 0.34181700 0.46624100 0.17376600
v 0.34296000 0.46641700 0.17376600
v 0.34410300 0.46646100 0.17376600
v 0.34638900 0.46650500 0.17376600
v 0.35324700 0.46641700 0.17376600
v 0.36239000 0.46536200 0.17376600
v 0.35324700 0.46430700 0.17376600
v 0.34638900 0.46421900 0.17376600
v 0.34410300 0.46426300 0.17376600
v 0.34296000 0.46430700 0.17376600
v 0.34181700 0.46448300 0.17376600
v 0.34067400 0.46465800 0.17376600
v 0.02872580 0.48903200 0.14317500
v 0.06821050 0.48903200 0.14317500
v 0.06821050 0.51096800 0.14317500
v 0.02872580 0.51096800 0.14317500
v 0.02872580 0.48903200 0.15195000
v 0.06821050 0.48903200 0.15195000
v 0.06821050 0.51096800 0.15195000
v 0.02872580 0.51096800 0.15195000
f 1 16 15
f 2 17 16
f 3 18 17
f 4 19 18
f 5 20 19
f 6 55 20
f 7 21 55
f 8 22 21
f 9 23 22
f 10 24 23
f 11 25 24
f 12 26 25
f 13 27 26
f 14 15 27
f 1 2 16
f 2 3 17
f 3 4 18
f 4 5 19
f 5 6 20
f 6 7 55
f 7 8 21
f 8 9 22
f 9 10 23
f 10 11 24
f 11 12 25
f 12 13 26
f 13 14 27
f 14 1 15
f 28 43 42
f 29 44 43
f 30 45 44
f 31 46 45
f 32 47 46
f 33 70 47
f 34 48 70
f 35 49 48
f 36 50 49
f 37 51 50
f 38 52 51
f 39 53 52
f 40 54 53
f 41 42 54
f 28 29 43
f 29 30 44
f 30 31 45
f 31 32 46
f 32 33 47
f 33 34 70
f 34 35 48
f 35 36 49
f 36 37 50
f 37 38 51
f 38 39 52
f 39 40 53
f 40 41 54
f 41 28 42
f 15 57 56
f 16 58 57
f 17 59 58
f 18 60 59
f 19 61 60
f 20 62 61
f 55 63 62
f 21 64 63
f 22 65 64
f 23 66 65
f 24 67 66
f 25 68 67
f 26 69 68
f 27 56 69
f 15 16 57
f 16 17 58
f 17 18 59
f 18 19 60
f 19 20 61
f 20 55 62
f 55 21 63
f 21 22 64
f 22 23 65
f 23 24 66
f 24 25 67
f 25 26 68
f 26 27 69
f 27 15 56
f 42 72 71
f 43 73 72
f 44 74 73
f 45 75 74
f 46 76 75
f 47 77 76
f 70 78 77
f 48 79 78
f 49 80 79
f 50 81 80
f 51 82 81
f 52 83 82
f 53 84 83
f 54 71 84
f 42 43 72
f 43 44 73
f 44 45 74
f 45 46 75
f 46 47 76
f 47 70 77
f 70 48 78
f 48 49 79
f 49 50 80
f 50 51 81
f 51 52 82
f 52 53 83
f 53 54 84
f 54 42 71
f 85 100 99
f 86 101 100
f 87 102 101
f 88 103 102
f 89 104 103
f 90 105 104
f 91 106 105
f 92 105 106
f 93 104 105
f 94 103 104
f 95 102 103
f 96 101 102
f 97 100 101
f 98 99 100
f 85 86 100
f 86 87 101
f 87 88 102
f 88 89 103
f 89 90 104
f 90 91 105
f 91 92 106
f 92 93 105
f 93 94 104
f 94 95 103
f 95 96 102
f 96 97 101
f 97 98 100
f 98 85 99
f 85 108 107
f 86 109 108
f 87 110 109
f 88 111 110
f 89 112 111
f 90 113 112
f 91 114 113
f 92 113 114
f 93 112 113
f 94 111 112
f 95 110 111
f 96 109 110
f 97 108 109
f 98 107 108
f 85 86 108
f 86 87 109
f 87 88 110
f 88 89 111
f 89 90 112
f 90 91 113
f 91 92 114
f 92 93 113
f 93 94 112
f 94 95 111
f 95 96 110
f 96 97 109
f 97 98 108
f 98 85 107
f 115 136 135
f 116 137 136
f 117 138 137
f 118 139 138
f 119 140 139
f 120 141 140
f 121 142 141
f 122 143 142
f 123 144 143
f 124 145 144
f 125 146 145
f 126 147 146
f 127 148 147
f 128 149 148
f 129 150 149
f 130 151 150
f 131 152 151
f 132 153 152
f 133 154 153
f 134 135 154
f 135 156 155
f 136 157 156
f 137 158 157
f 138 159 158
f 139 160 159
f 140 161 160
f 141 162 161
f 142 163 162
f 143 164 163
f 144 165 164
f 145 166 165
f 146 167 166
f 147 168 167
f 148 169 168
f 149 170 169
f 150 171 170
f 151 172 171
f 152 173 172
f 153 174 173
f 154 155 174
f 155 176 175
f 156 177 176
f 157 178 177
f 158 179 178
f 159 180 179
f 160 181 180
f 161 182 181
f 162 183 182
f 163 184 183
f 164 185 184
f 165 186 185
f 166 187 186
f 167 188 187
f 168 189 188
f 169 190 189
f 170 191 190
f 171 192 191
f 172 193 192
f 173 194 193
f 174 175 194
f 175 196 195
f 176 197 196
f 177 198 197
f 178 199 198
f 179 200 199
f 180 201 200
f 181 202 201
f 182 203 202
f 183 204 203
f 184 205 204
f 185 206 205
f 186 207 206
f 187 208 207
f 188 209 208
f 189 210 209
f 190 211 210
f 191 212 211
f 192 213 212
f 193 214 213
f 194 195 214
f 195 216 215
f 196 217 216
f 197 218 217
f 198 219 218
f 199 220 219
f 200 221 220
f 201 222 221
f 202 223 222
f 203 224 223
f 204 225 224
f 205 226 225
f 206 227 226
f 207 228 227
f 208 229 228
f 209 230 229
f 210 231 230
f 211 232 231
f 212 233 232
f 213 234 233
f 214 215 234
f 215 236 235
f 216 237 236
f 217 238 237
f 218 239 238
f 219 240 239
f 220 241 240
f 221 242 241
f 222 243 242
f 223 244 243
f 224 245 244
f 225 246 245
f 226 247 246
f 227 248 247
f 228 249 248
f 229 250 249
f 230 251 250
f 231 252 251
f 232 253 252
f 233 254 253
f 234 235 254
f 235 256 255
f 236 257 256
f 237 258 257
f 238 259 258
f 239 260 259
f 240 261 260
f 241 262 261
f 242 263 262
f 243 264 263
f 244 265 264
f 245 266 265
f 246 267 266
f 247 268 267
f 248 269 268
f 249 270 269
f 250 271 270
f 251 272 271
f 252 273 272
f 253 274 273
f 254 255 274
f 255 276 275
f 256 277 276
f 257 278 277
f 258 279 278
f 259 280 279
f 260 281 280
f 261 282 281
f 262 283 282
f 263 284 283
f 264 285 284
f 265 286 285
f 266 287 286
f 267 288 287
f 268 289 288
f 269 290 289
f 270 291 290
f 271 292 291
f 272 293 292
f 273 294 293
f 274 275 294
f 275 296 295
f 276 297 296
f 277 298 297
f 278 299 298
f 279 300 299
f 280 301 300
f 281 302 301
f 282 303 302
f 283 304 303
f 284 305 304
f 285 306 305
f 286 307 306
f 287 308 307
f 288 309 308
f 289 310 309
f 290 311 310
f 291 312 311
f 292 313 312
f 293 314 313
f 294 295 314
f 295 316 315
f 296 317 316
f 297 318 317
f 298 319 318
f 299 320 319
f 300 321 320
f 301 322 321
f 302 323 322
f 303 324 323
f 304 325 324
f 305 326 325
f 306 327 326
f 307 328 327
f 308 329 328
f 309 330 329
f 310 331 330
f 311 332 331
f 312 333 332
f 313 334 333
f 314 315 334
f 315 336 335
f 316 337 336
f 317 338 337
f 318 339 338
f 319 340 339
f 320 341 340
f 321 342 341
f 322 343 342
f 323 344 343
f 324 345 344
f 325 346 345
f 326 347 346
f 327 348 347
f 328 349 348
f 329 350 349
f 330 351 350
f 331 352 351
f 332 353 352
f 333 354 353
f 334 335 354
f 335 356 355
f 336 357 356
f 337 358 357
f 338 359 358
f 339 360 359
f 340 361 360
f 341 362 361
f 342 363 362
f 343 364 363
f 344 365 364
f 345 366 365
f 346 367 366
f 347 368 367
f 348 369 368
f 349 370 369
f 350 371 370
f 351 372 371
f 352 373 372
f 353 374 373
f 354 355 374
f 355 376 375
f 356 377 376
f 357 378 377
f 358 379 378
f 359 380 379
f 360 381 380
f 361 382 381
f 362 383 382
f 363 384 383
f 364 385 384
f 365 386 385
f 366 387 386
f 367 388 387
f 368 389 388
f 369 390 389
f 370 391 390
f 371 392 391
f 372 393 392
f 373 394 393
f 374 375 394
f 375 396 395
f 376 397 396
f 377 398 397
f 378 399 398
f 379 400 399
f 380 401 400
f 381 402 401
f 382 403 402
f 383 404 403
f 384 405 404
f 385 406 405
f 386 407 406
f 387 408 407
f 388 409 408
f 389 410 409
f 390 411 410
f 391 412 411
f 392 413 412
f 393 414 413
f 394 395 414
f 395 416 415
f 396 417 416
f 397 418 417
f 398 419 418
f 399 420 419
f 400 421 420
f 401 422 421
f 402 423 422
f 403 424 423
f 404 425 424
f 405 426 425
f 406 427 426
f 407 428 427
f 408 429 428
f 409 430 429
f 410 431 430
f 411 432 431
f 412 433 432
f 413 434 433
f 414 415 434
f 415 436 435
f 416 437 436
f 417 438 437
f 418 439 438
f 419 440 439
f 420 441 440
f 421 442 441
f 422 443 442
f 423 444 443
f 424 445 444
f 425 446 445
f 426 447 446
f 427 448 447
f 428 449 448
f 429 450 449
f 430 451 450
f 431 452 451
f 432 453 452
f 433 454 453
f 434 435 454
f 435 456 455
f 436 457 456
f 437 458 457
f 438 459 458
f 439 460 459
f 440 461 460
f 441 462 461
f 442 463 462
f 443 464 463
f 444 465 464
f 445 466 465
f 446 467 466
f 447 468 467
f 448 469 468
f 449 470 469
f 450 471 470
f 451 472 471
f 452 473 472
f 453 474 473
f 454 455 474
f 455 476 475
f 456 477 476
f 457 478 477
f 458 479 478
f 459 480 479
f 460 481 480
f 461 482 481
f 462 483 482
f 463 484 483
f 464 485 484
f 465 486 485
f 466 487 486
f 467 488 487
f 468 489 488
f 469 490 489
f 470 491 490
f 471 492 491
f 472 493 492
f 473 494 493
f 474 475 494
f 475 496 495
f 476 497 496
f 477 498 497
f 478 499 498
f 479 500 499
f 480 501 500
f 481 502 501
f 482 503 502
f 483 504 503
f 484 505 504
f 485 506 505
f 486 507 506
f 487 508 507
f 488 509 508
f 489 510 509
f 490 511 510
f 491 512 511
f 492 513 512
f 493 514 513
f 494 495 514
f 495 516 515
f 496 517 516
f 497 518 517
f 498 519 518
f 499 520 519
f 500 521 520
f 501 522 521
f 502 523 522
f 503 524 523
f 504 525 524
f 505 526 525
f 506 527 526
f 507 528 527
f 508 529 528
f 509 530 529
f 510 531 530
f 511 532 531
f 512 533 532
f 513 534 533
f 514 515 534
f 515 536 535
f 516 537 536
f 517 538 537
f 518 539 538
f 519 540 539
f 520 541 540
f 521 542 541
f 522 543 542
f 523 544 543
f 524 545 544
f 525 546 545
f 526 547 546
f 527 548 547
f 528 549 548
f 529 550 549
f 530 551 550
f 531 552 551
f 532 553 552
f 533 554 553
f 534 535 554
f 535 556 555
f 536 557 556
f 537 558 557
f 538 559 558
f 539 560 559
f 540 561 560
f 541 562 561
f 542 563 562
f 543 564 563
f 544 565 564
f 545 566 565
f 546 567 566
f 547 568 567
f 548 569 568
f 549 570 569
f 550 571 570
f 551 572 571
f 552 573 572
f 553 574 573
f 554 555 574
f 555 576 575
f 556 577 576
f 557 578 577
f 558 579 578
f 559 580 579
f 560 579 580
f 561 578 579
f 562 577 578
f 563 576 577
f 564 575 576
f 565 581 575
f 566 582 581
f 567 583 582
f 568 584 583
f 569 585 584
f 570 584 585
f 571 583 584
f 572 582 583
f 573 581 582
f 574 575 581
f 115 116 136
f 116 117 137
f 117 118 138
f 118 119 139
f 119 120 140
f 120 121 141
f 121 122 142
f 122 123 143
f 123 124 144
f 124 125 145
f 125 126 146
f 126 127 147
f 127 128 148
f 128 129 149
f 129 130 150
f 130 131 151
f 131 132 152
f 132 133 153
f 133 134 154
f 134 115 135
f 135 136 156
f 136 137 157
f 137 138 158
f 138 139 159
f 139 140 160
f 140 141 161
f 141 142 162
f 142 143 163
f 143 144 164
f 144 145 165
f 145 146 166
f 146 147 167
f 147 148 168
f 148 149 169
f 149 150 170
f 150 151 171
f 151 152 172
f 152 153 173
f 153 154 174
f 154 135 155
f 155 156 176
f 156 157 177
f 157 158 178
f 158 159 179
f 159 160 180
f 160 161 181
f 161 162 182
f 162 163 183
f 163 164 184
f 164 165 185
f 165 166 186
f 166 167 187
f 167 168 188
f 168 169 189
f 169 170 190
f 170 171 191
f 171 172 192
f 172 173 193
f 173 174 194
f 174 155 175
f 175 176 196
f 176 177 197
f 177 178 198
f 178 179 199
f 179 180 200
f 180 181 201
f 181 182 202
f 182 183 203
f 183 184 204
f 184 185 205
f 185 186 206
f 186 187 207
f 187 188 208
f 188 189 209
f 189 190 210
f 190 191 211
f 191 192 212
f 192 193 213
f 193 194 214
f 194 175 195
f 195 196 216
f 196 197 217
f 197 198 218
f 198 199 219
f 199 200 220
f 200 201 221
f 201 202 222
f 202 203 223
f 203 204 224
f 204 205 225
f 205 206 226
f 206 207 227
f 207 208 228
f 208 209 229
f 209 210 230
f 210 211 231
f 211 212 232
f 212 213 233
f 213 214 234
f 214 195 215
f 215 216 236
f 216 217 237
f 217 218 238
f 218 219 239
f 219 220 240
f 220 221 241
f 221 222 242
f 222 223 243
f 223 224 244
f 224 225 245
f 225 226 246
f 226 227 247
f 227 228 248
f 228 229 249
f 229 230 250
f 230 231 251
f 231 232 252
f 232 233 253
f 233 234 254
f 234 215 235
f 235 236 256
f 236 237 257
f 237 238 258
f 238 239 259
f 239 240 260
f 240 241 261
f 241 242 262
f 242 243 263
f 243 244 264
f 244 245 265
f 245 246 266
f 246 247 267
f 247 248 268
f 248 249 269
f 249 250 270
f 250 251 271
f 251 252 272
f 252 253 273
f 253 254 274
f 254 235 255
f 255 256 276
f 256 257 277
f 257 258 278
f 258 259 279
f 259 260 280
f 260 261 281
f 261 262 282
f 262 263 283
f 263 264 284
f 264 265 285
f 265 266 286
f 266 267 287
f 267 268 288
f 268 269 289
f 269 270 290
f 270 271 291
f 271 272 292
f 272 273 293
f 273 274 294
f 274 255 275
f 275 276 296
f 276 277 297
f 277 278 298
f 278 279 299
f 279 280 300
f 280 281 301
f 281 282 302
f 282 283 303
f 283 284 304
f 284 285 305
f 285 286 306
f 286 287 307
f 287 288 308
f 288 289 309
f 289 290 310
f 290 291 311
f 291 292 312
f 292 293 313
f 293 294 314
f 294 275 295
f 295 296 316
f 296 297 317
f 297 298 318
f 298 299 319
f 299 300 320
f 300 301 321
f 301 302 322
f 302 303 323
f 303 304 324
f 304 305 325
f 305 306 326
f 306 307 327
f 307 308 328
f 308 309 329
f 309 310 330
f 310 311 331
f 311 312 332
f 312 313 333
f 313 314 334
f 314 295 315
f 315 316 336
f 316 317 337
f 317 318 338
f 318 319 339
f 319 320 340
f 320 321 341
f 321 322 342
f 322 323 343
f 323 324 344
f 324 325 345
f 325 326 346
f 326 327 347
f 327 328 348
f 328 329 349
f 329 330 350
f 330 331 351
f 331 332 352
f 332 333 353
f 333 334 354
f 334 315 335
f 335 336 356
f 336 337 357
f 337 338 358
f 338 339 359
f 339 340 360
f 340 341 361
f 341 342 362
f 342 343 363
f 343 344 364
f 344 345 365
f 345 346 366
f 346 347 367
f 347 348 368
f 348 349 369
f 349 350 370
f 350 351 371
f 351 352 372
f 352 353 373
f 353 354 374
f 354 335 355
f 355 356 376
f 356 357 377
f 357 358 378
f 358 359 379
f 359 360 380
f 360 361 381
f 361 362 382
f 362 363 383
f 363 364 384
f 364 365 385
f 365 366 386
f 366 367 387
f 367 368 388
f 368 369 389
f 369 370 390
f 370 371 391
f 371 372 392
f 372 373 393
f 373 374 394
f 374 355 375
f 375 376 396
f 376 377 397
f 377 378 398
f 378 379 399
f 379 380 400
f 380 381 401
f 381 382 402
f 382 383 403
f 383 384 404
f 384 385 405
f 385 386 406
f 386 387 407
f 387 388 408
f 388 389 409
f 389 390 410
f 390 391 411
f 391 392 412
f 392 393 413
f 393 394 414
f 394 375 395
f 395 396 416
f 396 397 417
f 397 398 418
f 398 399 419
f 399 400 420
f 400 401 421
f 401 402 422
f 402 403 423
f 403 404 424
f 404 405 425
f 405 406 426
f 406 407 427
f 407 408 428
f 408 409 429
f 409 410 430
f 410 411 431
f 411 412 432
f 412 413 433
f 413 414 434
f 414 395 415
f 415 416 436
f 416 417 437
f 417 418 438
f 418 419 439
f 419 420 440
f 420 421 441
f 421 422 442
f 422 423 443
f 423 424 444
f 424 425 445
f 425 426 446
f 426 427 447
f 427 428 448
f 428 429 449
f 429 430 450
f 430 431 451
f 431 432 452
f 432 433 453
f 433 434 454
f 434 415 435
f 435 436 456
f 436 437 457
f 437 438 458
f 438 439 459
f 439 440 460
f 440 441 461
f 441 442 462
f 442 443 463
f 443 444 464
f 444 445 465
f 445 446 466
f 446 447 467
f 447 448 468
f 448 449 469
f 449 450 470
f 450 451 471
f 451 452 472
f 452 453 473
f 453 454 474
f 454 435 455
f 455 456 476
f 456 457 477
f 457 458 478
f 458 459 479
f 459 460 480
f 460 461 481
f 461 462 482
f 462 463 483
f 463 464 484
f 464 465 485
f 465 466 486
f 466 467 487
f 467 468 488
f 468 469 489
f 469 470 490
f 470 471 491
f 471 472 492
f 472 473 493
f 473 474 494
f 474 455 475
f 475 476 496
f 476 477 497
f 477 478 498
f 478 479 499
f 479 480 500
f 480 481 501
f 481 482 502
f 482 483 503
f 483 484 504
f 484 485 505
f 485 486 506
f 486 487 507
f 487 488 508
f 488 489 509
f 489 490 510
f 490 491 511
f 491 492 512
f 492 493 513
f 493 494 514
f 494 475 495
f 495 496 516
f 496 497 517
f 497 498 518
f 498 499 519
f 499 500 520
f 500 501 521
f 501 502 522
f 502 503 523
f 503 504 524
f 504 505 525
f 505 506 526
f 506 507 527
f 507 508 528
f 508 509 529
f 509 510 530
f 510 511 531
f 511 512 532
f 512 513 533
f 513 514 534
f 514 495 515
f 515 516 536
f 516 517 537
f 517 518 538
f 518 519 539
f 519 520 540
f 520 521 541
f 521 522 542
f 522 523 543
f 523 524 544
f 524 525 545
f 525 526 546
f 526 527 547
f 527 528 548
f 528 529 549
f 529 530 550
f 530 531 551
f 531 532 552
f 532 533 553
f 533 534 554
f 534 515 535
f 535 536 556
f 536 537 557
f 537 538 558
f 538 539 559
f 539 540 560
f 540 541 561
f 541 542 562
f 542 543 563
f 543 544 564
f 544 545 565
f 545 546 566
f 546 547 567
f 547 548 568
f 548 549 569
f 549 550 570
f 550 551 571
f 551 552 572
f 552 553 573
f 553 554 574
f 554 535 555
f 555 556 576
f 556 557 577
f 557 558 578
f 558 559 579
f 559 560 580
f 560 561 579
f 561 562 578
f 562 563 577
f 563 564 576
f 564 565 575
f 565 566 581
f 566 567 582
f 567 568 583
f 568 569 584
f 569 570 585
f 570 571 584
f 571 572 583
f 572 573 582
f 573 574 581
f 574 555 575
f 586 601 600
f 587 602 601
f 588 603 602
f 589 604 603
f 590 605 604
f 591 606 605
f 592 607 606
f 593 608 607
f 594 609 608
f 595 610 609
f 596 611 610
f 597 612 611
f 598 613 612
f 599 600 613
f 586 587 601
f 587 588 602
f 588 589 603
f 589 590 604
f 590 591 605
f 591 592 606
f 592 593 607
f 593 594 608
f 594 595 609
f 595 596 610
f 596 597 611
f 597 598 612
f 598 599 613
f 599 586 600
f 614 629 628
f 615 630 629
f 616 631 630
f 617 632 631
f 618 633 632
f 619 634 633
f 620 635 634
f 621 636 635
f 622 637 636
f 623 638 637
f 624 639 638
f 625 640 639
f 626 641 640
f 627 628 641
f 614 615 629
f 615 616 630
f 616 617 631
f 617 618 632
f 618 619 633
f 619 620 634
f 620 621 635
f 621 622 636
f 622 623 637
f 623 624 638
f 624 625 639
f 625 626 640
f 626 627 641
f 627 614 628
f 642 645 643
f 643 645 644
f 642 647 646
f 642 643 647
f 642 646 645
f 645 646 649
f 645 649 648
f 645 648 644
f 643 648 647
f 643 644 648
f 647 649 646
f 647 648 649

