# https://github.com/mikedh/trimesh

o m12.off
v 0.58374600 0.13991600 0.36689600
v 0.58461300 0.11973700 0.37735200
v 0.60076900 0.11476000 0.31378900
v 0.58544900 0.14737200 0.27814800
v 0.58692700 0.12994700 0.25617300
v 0.58830400 0.10816900 0.24951000
v 0.58917100 0.08798230 0.26002200
v 0.58746700 0.08052720 0.34877000
v 0.58599000 0.09800790 0.37075200
v 0.54275400 0.15681300 0.40501200
v 0.54427500 0.12180000 0.42314800
v 0.54249800 0.17969900 0.36206200
v 0.54359000 0.18444200 0.30586300
v 0.54573400 0.16972200 0.25139500
v 0.54829100 0.13945200 0.21333100
v 0.55069100 0.10179100 0.20180700
v 0.55215500 0.06682700 0.22000500
v 0.55241100 0.04388570 0.26294800
v 0.55131900 0.03919200 0.31920900
v 0.54923100 0.05391130 0.37367800
v 0.54661900 0.08418840 0.41168500
v 0.48882800 0.16082000 0.41804600
v 0.49056100 0.12039800 0.43900800
v 0.48854200 0.18728500 0.36850400
v 0.48976400 0.19275200 0.30352300
v 0.49223300 0.17571700 0.24066100
v 0.49524400 0.14075500 0.19669900
v 0.49794400 0.09730490 0.18344100
v 0.49967600 0.05688290 0.20440300
v 0.49996200 0.03041120 0.25400100
v 0.49874100 0.02500000 0.31898800
v 0.49627100 0.04198550 0.38178800
v 0.49331700 0.07694690 0.42575100
v 0.43629300 0.15087600 0.40244400
v 0.43781400 0.11591200 0.42064200
v 0.43603700 0.17381100 0.35955600
v 0.43712900 0.17856000 0.30330100
v 0.43921700 0.16378500 0.24882700
v 0.44183000 0.13357000 0.21077000
v 0.44417400 0.09590980 0.19924500
v 0.44569400 0.06088960 0.21743700
v 0.44595000 0.03800410 0.26038700
v 0.44485800 0.03325460 0.31664200
v 0.44271400 0.04797440 0.37111000
v 0.44015800 0.07825100 0.40911800
v 0.39927700 0.12971400 0.36248200
v 0.40014400 0.10952800 0.37299500
v 0.39913400 0.14295000 0.33768300
v 0.40245700 0.11968900 0.25175300
v 0.40383500 0.09796020 0.24515200
v 0.40470200 0.07778030 0.25560900
v 0.40484500 0.06454440 0.28040800
v 0.40152100 0.08775010 0.36633200
v 0.38773500 0.10293600 0.30871500
v 0.61469800 0.13745500 0.29369800
v 0.61291700 0.13758600 0.30646000
v 0.78000200 0.20287600 0.22612000
v 0.77195100 0.19889800 0.21802700
v 0.59221000 0.12755000 0.28852700
v 0.60305700 0.13181100 0.28363200
v 0.61683000 0.12442800 0.09006160
v 0.62624000 0.12887000 0.09697730
v 0.71561300 0.16235100 0.03286970
v 0.71428000 0.16266300 0.04599480
v 0.81523000 0.21043000 0.11898400
v 0.80320800 0.20561300 0.12290100
v 0.76265400 0.18909600 0.13228700
v 0.73653000 0.17903900 0.14739600
v 0.77856400 0.19612000 0.13594100
v 0.70933500 0.16268600 0.07616570
v 0.77848600 0.18347900 0.21908400
v 0.62123200 0.12198000 0.29474800
v 0.80974300 0.19019400 0.12395700
v 0.72081500 0.14724500 0.04705140
v 0.63277500 0.11345100 0.09803380
v 0.60959200 0.11639200 0.28468900
v 0.59874500 0.11213100 0.28958400
v 0.61945200 0.12216800 0.30751700
v 0.62336500 0.10900900 0.09111810
v 0.72214800 0.14693300 0.03392620
v 0.82176500 0.19501100 0.12004000
v 0.78653700 0.18745800 0.22717700
v 0.76918900 0.17367700 0.13334400
v 0.74306500 0.16362000 0.14845300
v 0.71587000 0.14726700 0.07722230
v 0.69960000 0.16113500 0.11447200
v 0.70613500 0.14571600 0.11552900
v 0.78509800 0.18064600 0.13699200
v 0.60939200 0.14770500 0.36027600
v 0.59437800 0.13817700 0.36854000
v 0.79609000 0.28243400 0.53529100
v 0.79932400 0.28351600 0.51726000
v 0.59949400 0.13900700 0.32452000
v 0.61227900 0.14819500 0.33562300
v 0.83113400 0.28575900 0.19275400
v 0.83009300 0.28613500 0.21170500
v 0.96088700 0.37754400 0.28323700
v 0.94575400 0.36802700 0.29240400
v 0.93621600 0.37355700 0.49494800
v 0.92373000 0.36442600 0.48136900
v 0.88654300 0.33491400 0.43248600
v 0.85218300 0.31082300 0.40853200
v 0.89352500 0.34104000 0.45787000
v 0.91072900 0.34376700 0.31083300
v 0.68286100 0.19558500 0.35928900
v 0.79396600 0.23361100 0.29052600
v 0.65838100 0.17946900 0.35818800
v 0.78107000 0.23368800 0.43498600
v 0.81343800 0.26231300 0.51851000
v 0.62356100 0.12650100 0.36152600
v 0.93790000 0.34322200 0.48261900
v 0.95992300 0.34682300 0.29365500
v 0.84426300 0.26493100 0.21295600
v 0.62644900 0.12699100 0.33687400
v 0.61366300 0.11780400 0.32577000
v 0.60854800 0.11697300 0.36979000
v 0.84530300 0.26455600 0.19400400
v 0.97500000 0.35634100 0.28448700
v 0.95038500 0.35235300 0.49619800
v 0.81025900 0.26123000 0.53654200
v 0.90060000 0.31365600 0.43373000
v 0.86624100 0.28957100 0.40971900
v 0.92478600 0.32250800 0.31207700
v 0.86240700 0.31289300 0.32923600
v 0.87646400 0.29163400 0.33047900
v 0.90758200 0.31978200 0.45911400
v 0.67232500 0.15814900 0.35948000
v 0.69680500 0.17421000 0.36057400
v 0.43433700 0.16803500 0.40608800
v 0.42206300 0.15605500 0.41290900
v 0.42272500 0.16426100 0.39448600
v 0.37845600 0.21494200 0.43712400
v 0.38888700 0.22909600 0.43166500
v 0.37593400 0.22701500 0.42114900
v 0.34346600 0.24519700 0.49031900
v 0.35119700 0.26186400 0.48873900
v 0.33621800 0.26161700 0.48107000
v 0.31728600 0.25459400 0.55639100
v 0.32422100 0.27173200 0.55666500
v 0.30861700 0.27183300 0.55044200
v 0.55398100 0.17024300 0.39744400
v 0.55466700 0.16219200 0.41589700
v 0.54152000 0.17280900 0.40841600
v 0.59058400 0.22535700 0.44174600
v 0.57890600 0.23839700 0.43568500
v 0.59249600 0.23767000 0.42583800
v 0.61963100 0.25930500 0.49631800
v 0.61024500 0.27508600 0.49426200
v 0.62545800 0.27638600 0.48731500
v 0.64149200 0.27153600 0.56347200
v 0.63282600 0.28783200 0.56328800
v 0.64859200 0.28952400 0.55780300
v 0.53819800 0.11995200 0.45247300
v 0.54584400 0.14842000 0.44597700
v 0.52043100 0.16400200 0.44133000
v 0.49718200 0.14524400 0.44496400
v 0.50811400 0.11800200 0.45181800
v 0.46412600 0.11691600 0.45097200
v 0.47171600 0.14538500 0.44447600
v 0.44635900 0.16096600 0.43982900
v 0.42299700 0.14215300 0.44345500
v 0.43398600 0.11496600 0.45031700
v 0.53865800 0.11709100 0.44046000
v 0.50857400 0.11508500 0.43979900
v 0.54624900 0.14556600 0.43390800
v 0.52089200 0.16114800 0.42926100
v 0.49764300 0.14233400 0.43288800
v 0.46453000 0.11405500 0.43895800
v 0.43444600 0.11204900 0.43829700
v 0.47217600 0.14246800 0.43245600
v 0.44676400 0.15811200 0.42776000
v 0.42345800 0.13929900 0.43138600
v 0.48595200 0.05114700 0.44243700
v 0.55577800 0.08886920 0.45149200
v 0.53874200 0.10769400 0.45542100
v 0.48223300 0.08902950 0.45064400
v 0.41656800 0.07688220 0.44726800
v 0.42822100 0.09870900 0.45213000
v 0.48234900 0.09165470 0.43857900
v 0.53891500 0.11032500 0.44330100
v 0.42833700 0.10133400 0.44006500
v 0.41668500 0.07956950 0.43515300
v 0.48606800 0.05377860 0.43031700
v 0.55595000 0.09150040 0.43937100
v 0.23133900 0.18233200 0.12581200
v 0.27340400 0.16641100 0.13869700
v 0.24757700 0.17579100 0.12266300
v 0.30366200 0.15119400 0.06843580
v 0.24148900 0.16016600 0.12341600
v 0.26731600 0.15078600 0.13945000
v 0.29757400 0.13562500 0.06919580
v 0.30590300 0.13417100 0.10789600
v 0.31204700 0.14974000 0.10713700
v 0.22519500 0.16671500 0.12651000
v 0.22637700 0.18853100 0.21587100
v 0.39209400 0.12754900 0.30208800
v 0.39084600 0.12745000 0.28924700
v 0.23482100 0.18484300 0.20806800
v 0.41374600 0.11822300 0.28494400
v 0.40299400 0.12224300 0.27966400
v 0.39669000 0.11551800 0.08565510
v 0.38691300 0.11963700 0.09225380
v 0.29905800 0.15096000 0.02500000
v 0.29991300 0.15125300 0.03814200
v 0.19496000 0.19572800 0.10749200
v 0.20695000 0.19124100 0.11182600
v 0.22873300 0.16921800 0.20882200
v 0.38470200 0.11182600 0.29000000
v 0.20080600 0.17561700 0.11257900
v 0.29376900 0.13562900 0.03889520
v 0.38076900 0.10406900 0.09301330
v 0.39684900 0.10661900 0.28041700
v 0.40760200 0.10265400 0.28570300
v 0.38595000 0.11192500 0.30284100
v 0.39054600 0.09989410 0.08640820
v 0.29297100 0.13534200 0.02569780
v 0.18881600 0.18010300 0.10824500
v 0.22023400 0.17291300 0.21656900
v 0.19644400 0.26590300 0.52456000
v 0.40828000 0.12835200 0.36488900
v 0.39333500 0.13749500 0.35609400
v 0.19390100 0.26698700 0.50642300
v 0.40481400 0.12926900 0.32069200
v 0.39134200 0.13803400 0.33134900
v 0.17411000 0.27013700 0.18095000
v 0.17447100 0.27043800 0.19996100
v 0.03854440 0.35772000 0.26694600
v 0.05359440 0.34852900 0.27664000
v 0.05538030 0.35321100 0.47941100
v 0.06864690 0.34450700 0.46627500
v 0.18030000 0.24533700 0.50704100
v 0.37973400 0.11590100 0.35672000
v 0.05504640 0.32291300 0.46690000
v 0.04004990 0.32693500 0.27726600
v 0.16092700 0.24884300 0.20058700
v 0.37779800 0.11639000 0.33191200
v 0.39121300 0.10767500 0.32131700
v 0.39473500 0.10670200 0.36550800
v 0.16056500 0.24848600 0.18156900
v 0.02500000 0.33612600 0.26757200
v 0.04183540 0.33156100 0.48003000
v 0.18284300 0.24425300 0.52517900
v 0.34358200 0.16785000 0.35230800
v 0.20908800 0.21853900 0.27986600
v 0.31863400 0.18326200 0.35255800
v 0.21660600 0.21812900 0.42472900
v 0.33020500 0.14614200 0.35292200
v 0.30525700 0.16149900 0.35316600
v 0.10032600 0.32215800 0.44382900
v 0.14437500 0.29336700 0.39596300
v 0.10843600 0.31634100 0.41866900
v 0.08858670 0.32517300 0.29623400
v 0.09494750 0.29469000 0.41928800
v 0.13088600 0.27166100 0.39657600
v 0.07509790 0.30352200 0.29685400
v 0.12355300 0.27390200 0.31697700
v 0.13704300 0.29561400 0.31630800
v 0.08683640 0.30045100 0.44444200
v 0.52980000 0.12372700 0.46887000
v 0.53367700 0.14029200 0.46498600
v 0.52087700 0.14960800 0.46193300
v 0.50909900 0.13886000 0.46387400
v 0.51459400 0.12285000 0.46818600
v 0.53007800 0.12607000 0.45728300
v 0.51487200 0.12519400 0.45659800
v 0.53395500 0.14263600 0.45339900
v 0.52115500 0.15195100 0.45034600
v 0.50937700 0.14120400 0.45228600
v 0.45483500 0.12175600 0.46799100
v 0.45871100 0.13826600 0.46410100
v 0.44591100 0.14763700 0.46105500
v 0.43413300 0.13683400 0.46298900
v 0.43962900 0.12087900 0.46730700
v 0.45511300 0.12409900 0.45640400
v 0.43990700 0.12322300 0.45571900
v 0.45898900 0.14060900 0.45251400
v 0.44618900 0.14992400 0.44946100
v 0.43441100 0.13917700 0.45140100
f 1 2 3
f 4 1 3
f 5 4 3
f 6 5 3
f 7 6 3
f 8 7 3
f 9 8 3
f 2 9 3
f 10 11 2
f 1 10 2
f 12 10 1
f 13 12 1
f 4 13 1
f 14 13 4
f 15 14 4
f 5 15 4
f 16 15 5
f 6 16 5
f 17 16 6
f 7 17 6
f 18 17 7
f 19 18 7
f 8 19 7
f 20 19 8
f 21 20 8
f 9 21 8
f 11 21 9
f 2 11 9
f 22 23 11
f 10 22 11
f 24 22 10
f 12 24 10
f 25 24 12
f 13 25 12
f 26 25 13
f 14 26 13
f 27 26 14
f 15 27 14
f 28 27 15
f 16 28 15
f 29 28 16
f 17 29 16
f 30 29 17
f 18 30 17
f 31 30 18
f 19 31 18
f 32 31 19
f 20 32 19
f 33 32 20
f 21 33 20
f 23 33 21
f 11 23 21
f 34 35 23
f 22 34 23
f 36 34 22
f 24 36 22
f 37 36 24
f 25 37 24
f 38 37 25
f 26 38 25
f 39 38 26
f 27 39 26
f 40 39 27
f 28 40 27
f 41 40 28
f 29 41 28
f 42 41 29
f 30 42 29
f 43 42 30
f 31 43 30
f 44 43 31
f 32 44 31
f 45 44 32
f 33 45 32
f 35 45 33
f 23 35 33
f 46 47 35
f 34 46 35
f 48 46 34
f 36 48 34
f 37 48 36
f 49 48 37
f 38 49 37
f 39 49 38
f 50 49 39
f 40 50 39
f 51 50 40
f 41 51 40
f 52 51 41
f 42 52 41
f 43 52 42
f 53 52 43
f 44 53 43
f 45 53 44
f 47 53 45
f 35 47 45
f 52 53 54
f 51 52 54
f 50 51 54
f 49 50 54
f 48 49 54
f 46 48 54
f 47 46 54
f 53 47 54
f 55 56 57
f 58 55 57
f 59 56 55
f 59 55 60
f 61 59 60
f 61 60 62
f 63 61 62
f 63 62 64
f 65 63 64
f 65 64 66
f 57 65 66
f 57 66 58
f 67 68 69
f 67 69 70
f 55 58 71
f 55 71 72
f 58 66 73
f 58 73 71
f 66 64 74
f 66 74 73
f 64 62 75
f 64 75 74
f 62 60 76
f 62 76 75
f 60 55 72
f 60 72 76
f 56 59 77
f 56 77 78
f 59 61 79
f 59 79 77
f 61 63 80
f 61 80 79
f 63 65 81
f 63 81 80
f 65 57 82
f 65 82 81
f 57 56 78
f 57 78 82
f 68 67 83
f 68 83 84
f 67 70 85
f 67 85 83
f 70 86 87
f 70 87 85
f 86 70 85
f 86 85 87
f 70 69 88
f 70 88 85
f 69 68 84
f 69 84 88
f 82 78 72
f 82 72 71
f 72 78 77
f 76 72 77
f 76 77 79
f 75 76 79
f 75 79 80
f 74 75 80
f 74 80 81
f 73 74 81
f 73 81 82
f 71 73 82
f 88 84 83
f 85 88 83
f 89 90 91
f 92 89 91
f 93 90 89
f 93 89 94
f 95 93 94
f 95 94 96
f 97 95 96
f 97 96 98
f 99 97 98
f 99 98 100
f 91 99 100
f 91 100 92
f 101 102 103
f 101 103 104
f 105 106 107
f 107 108 105
f 89 92 109
f 89 109 110
f 92 100 111
f 92 111 109
f 100 98 112
f 100 112 111
f 98 96 113
f 98 113 112
f 96 94 114
f 96 114 113
f 94 89 110
f 94 110 114
f 90 93 115
f 90 115 116
f 93 95 117
f 93 117 115
f 95 97 118
f 95 118 117
f 97 99 119
f 97 119 118
f 99 91 120
f 99 120 119
f 91 90 116
f 91 116 120
f 102 101 121
f 102 121 122
f 101 104 123
f 101 123 121
f 104 124 125
f 104 125 123
f 124 104 123
f 124 123 125
f 104 103 126
f 104 126 123
f 103 102 122
f 103 122 126
f 108 107 127
f 107 106 127
f 106 105 128
f 105 108 128
f 120 116 110
f 120 110 109
f 110 116 115
f 114 110 115
f 114 115 117
f 113 114 117
f 113 117 118
f 112 113 118
f 112 118 119
f 111 112 119
f 111 119 120
f 109 111 120
f 126 122 121
f 123 126 121
f 127 106 128
f 128 108 127
f 129 130 131
f 132 130 129
f 133 132 129
f 134 131 130
f 132 134 130
f 133 129 131
f 134 133 131
f 135 132 133
f 136 135 133
f 137 134 132
f 135 137 132
f 136 133 134
f 137 136 134
f 138 135 136
f 139 138 136
f 140 137 135
f 138 140 135
f 139 136 137
f 140 139 137
f 140 138 139
f 141 142 143
f 143 142 144
f 143 144 145
f 142 141 146
f 142 146 144
f 141 143 145
f 141 145 146
f 145 144 147
f 145 147 148
f 144 146 149
f 144 149 147
f 146 145 148
f 146 148 149
f 148 147 150
f 148 150 151
f 147 149 152
f 147 152 150
f 149 148 151
f 149 151 152
f 151 150 152
f 153 154 155
f 153 155 156
f 153 156 157
f 158 159 160
f 158 160 161
f 158 161 162
f 163 153 157
f 164 163 157
f 165 154 153
f 163 165 153
f 166 155 154
f 165 166 154
f 167 156 155
f 166 167 155
f 164 157 156
f 167 164 156
f 168 158 162
f 169 168 162
f 170 159 158
f 168 170 158
f 171 160 159
f 170 171 159
f 172 161 160
f 171 172 160
f 169 162 161
f 172 169 161
f 166 165 163
f 167 166 163
f 164 167 163
f 171 170 168
f 172 171 168
f 169 172 168
f 173 174 175
f 173 175 176
f 177 173 176
f 177 176 178
f 179 176 175
f 180 179 175
f 181 178 176
f 179 181 176
f 182 177 178
f 181 182 178
f 183 173 177
f 182 183 177
f 184 174 173
f 183 184 173
f 180 175 174
f 184 180 174
f 180 184 183
f 179 180 183
f 179 183 182
f 181 179 182
f 185 186 187
f 188 185 187
f 189 187 186
f 190 189 186
f 191 188 187
f 189 191 187
f 192 193 188
f 191 192 188
f 191 188 193
f 192 191 193
f 194 185 188
f 191 194 188
f 190 186 185
f 194 190 185
f 189 190 194
f 189 194 191
f 195 196 197
f 195 197 198
f 197 196 199
f 200 197 199
f 200 199 201
f 202 200 201
f 202 201 203
f 204 202 203
f 204 203 205
f 206 204 205
f 206 205 195
f 198 206 195
f 207 198 197
f 208 207 197
f 209 206 198
f 207 209 198
f 210 204 206
f 209 210 206
f 211 202 204
f 210 211 204
f 212 200 202
f 211 212 202
f 208 197 200
f 212 208 200
f 213 199 196
f 214 213 196
f 215 201 199
f 213 215 199
f 216 203 201
f 215 216 201
f 217 205 203
f 216 217 203
f 218 195 205
f 217 218 205
f 214 196 195
f 218 214 195
f 208 214 218
f 207 208 218
f 213 214 208
f 213 208 212
f 215 213 212
f 215 212 211
f 216 215 211
f 216 211 210
f 217 216 210
f 217 210 209
f 218 217 209
f 218 209 207
f 219 220 221
f 219 221 222
f 221 220 223
f 224 221 223
f 224 223 225
f 226 224 225
f 226 225 227
f 228 226 227
f 228 227 229
f 230 228 229
f 230 229 219
f 222 230 219
f 231 222 221
f 232 231 221
f 233 230 222
f 231 233 222
f 234 228 230
f 233 234 230
f 235 226 228
f 234 235 228
f 236 224 226
f 235 236 226
f 232 221 224
f 236 232 224
f 237 223 220
f 238 237 220
f 239 225 223
f 237 239 223
f 240 227 225
f 239 240 225
f 241 229 227
f 240 241 227
f 242 219 229
f 241 242 229
f 238 220 219
f 242 238 219
f 232 238 242
f 231 232 242
f 237 238 232
f 237 232 236
f 239 237 236
f 239 236 235
f 240 239 235
f 240 235 234
f 241 240 234
f 241 234 233
f 242 241 233
f 242 233 231
f 243 244 245
f 245 246 243
f 247 243 246
f 247 244 243
f 248 245 244
f 248 246 245
f 248 244 247
f 247 246 248
f 249 250 251
f 252 249 251
f 253 251 250
f 254 253 250
f 255 252 251
f 253 255 251
f 256 257 252
f 255 256 252
f 255 252 257
f 256 255 257
f 258 249 252
f 255 258 252
f 254 250 249
f 258 254 249
f 253 254 258
f 253 258 255
f 259 260 261
f 259 261 262
f 259 262 263
f 264 259 263
f 265 264 263
f 266 260 259
f 264 266 259
f 267 261 260
f 266 267 260
f 268 262 261
f 267 268 261
f 265 263 262
f 268 265 262
f 267 266 264
f 268 267 264
f 265 268 264
f 269 270 271
f 269 271 272
f 269 272 273
f 274 269 273
f 275 274 273
f 276 270 269
f 274 276 269
f 277 271 270
f 276 277 270
f 278 272 271
f 277 278 271
f 275 273 272
f 278 275 272
f 277 276 274
f 278 277 274
f 275 278 274

