# https://github.com/mikedh/trimesh

o m37.off
v 0.49324900 0.16734200 0.74331900
v 0.50000800 0.16560400 0.74620300
v 0.50000800 0.16199400 0.74226900
v 0.49292600 0.16358300 0.74036600
v 0.49482900 0.17163200 0.74312200
v 0.50000800 0.17204500 0.74599500
v 0.49312000 0.17737600 0.73770300
v 0.50000800 0.17754900 0.74038600
v 0.49134000 0.17422300 0.73507800
v 0.49131100 0.16766900 0.73177500
v 0.48968300 0.19154200 0.71666200
v 0.50000700 0.19194900 0.72029200
v 0.48583000 0.18748700 0.70821700
v 0.48629000 0.19660300 0.70699700
v 0.48453300 0.17994800 0.70669100
v 0.49141200 0.19659900 0.71611100
v 0.49062600 0.20605000 0.70653300
v 0.49324500 0.20712600 0.70810400
v 0.50000700 0.20679200 0.70965500
v 0.48004100 0.19395300 0.69794300
v 0.48017800 0.20327600 0.69475400
v 0.47915500 0.18799400 0.69344800
v 0.48800300 0.20559800 0.70403900
v 0.48936300 0.22488100 0.70576500
v 0.50000700 0.22443500 0.70697000
v 0.48196200 0.22294700 0.70297000
v 0.47592500 0.21052300 0.69204700
v 0.47382600 0.22365300 0.69504000
v 0.47053300 0.18835700 0.67956800
v 0.46832300 0.20736200 0.68275000
v 0.46988000 0.23420900 0.68493900
v 0.47216100 0.23928800 0.68612900
v 0.48549400 0.24299400 0.68598900
v 0.50000600 0.24519800 0.68417100
v 0.48081200 0.24806500 0.65058000
v 0.50000500 0.24967400 0.64151100
v 0.46836600 0.24002000 0.67249300
v 0.46645900 0.23494800 0.67391200
v 0.46955100 0.22949800 0.68536400
v 0.46647700 0.23023800 0.67692500
v 0.47311300 0.22201700 0.69041800
v 0.47327700 0.21601900 0.68918900
v 0.46842400 0.22082300 0.68549900
v 0.46785400 0.22378300 0.68490100
v 0.46661500 0.22622500 0.68317800
v 0.46549600 0.22580000 0.67936600
v 0.46989300 0.21393400 0.68207900
v 0.46711600 0.21852100 0.68295600
v 0.46598200 0.21551900 0.67614600
v 0.46485800 0.21957600 0.67920500
v 0.46438300 0.20866000 0.67080200
v 0.45995700 0.20120500 0.65913700
v 0.46161900 0.18807100 0.64650600
v 0.46399800 0.21468600 0.63301600
v 0.46223000 0.21806100 0.66582900
v 0.46419800 0.21998000 0.67259000
v 0.46491300 0.22356900 0.67799700
v 0.46556500 0.22527400 0.67180700
v 0.46288200 0.22745600 0.66508800
v 0.47681000 0.23929200 0.63084400
v 0.46228600 0.23259800 0.65414800
v 0.47399800 0.22306700 0.60995200
v 0.45889500 0.19973600 0.61965900
v 0.47123200 0.21194200 0.59143700
v 0.50000500 0.23689100 0.61851600
v 0.50000400 0.22444400 0.59959600
v 0.50000400 0.21673900 0.58039900
v 0.50000600 0.17862900 0.68512200
v 0.50000700 0.18014200 0.69669600
v 0.50000700 0.17493900 0.71038500
v 0.50000800 0.16542400 0.73243200
v 0.46465900 0.22202400 0.67794100
v 0.44327700 0.16743700 0.62081800
v 0.45202600 0.14793200 0.63807500
v 0.50000600 0.13004400 0.65765000
v 0.50000300 0.21618400 0.56841600
v 0.46792600 0.20703000 0.58056000
v 0.44748400 0.18907400 0.59629800
v 0.50000600 0.17222300 0.67434400
v 0.46325400 0.17973400 0.66275700
v 0.47871800 0.13322000 0.65352000
v 0.48632000 0.17543700 0.67216800
v 0.48819100 0.18266400 0.68814400
v 0.49164900 0.18274200 0.69540300
v 0.49380600 0.17678000 0.70853800
v 0.50000200 0.21744600 0.52730800
v 0.46553400 0.20466200 0.53896500
v 0.44248200 0.17830900 0.56058200
v 0.43792000 0.14790100 0.58413000
v 0.44787400 0.12377500 0.60112500
v 0.47213400 0.10472200 0.61487000
v 0.50000500 0.09822070 0.62076300
v 0.44915400 0.10284100 0.54133900
v 0.47350100 0.08435250 0.54979300
v 0.50000300 0.07650430 0.55309000
v 0.50000100 0.21528200 0.48637100
v 0.46695800 0.19996900 0.49428200
v 0.44365000 0.16612700 0.51110200
v 0.43916000 0.12977300 0.52859900
v 0.45964200 0.18448000 0.39008800
v 0.43094700 0.14506200 0.40787000
v 0.42541800 0.09961560 0.42791900
v 0.43985700 0.06740180 0.43255400
v 0.46769700 0.04286370 0.45214700
v 0.50000100 0.03307270 0.45588400
v 0.49999900 0.20364400 0.38097800
v 0.47919600 0.06703980 0.34202400
v 0.49999800 0.06094550 0.34442400
v 0.49999600 0.16711500 0.29780000
v 0.47412000 0.15518700 0.30320900
v 0.45536100 0.13065200 0.31158500
v 0.45225300 0.10236400 0.32506100
v 0.46036300 0.08141420 0.33549300
v 0.45648200 0.04705270 0.47548900
v 0.44393100 0.05675340 0.47152000
v 0.45725700 0.08560960 0.52595800
v 0.46516300 0.07956940 0.52861900
v 0.43680000 0.05100320 0.40956900
v 0.42656700 0.03839320 0.44434500
v 0.44395100 0.02500000 0.44994100
v 0.46710500 0.03325160 0.43098200
v 0.45559500 0.04988890 0.43247400
v 0.43657000 0.03420330 0.45123000
v 0.49999700 0.09158620 0.33492000
v 0.47077500 0.11764400 0.32442400
v 0.48536300 0.09241470 0.33381400
v 0.46157000 0.12593700 0.31808900
v 0.46634000 0.10988400 0.29366800
v 0.47744600 0.09892570 0.29604900
v 0.49999600 0.08805110 0.27216200
v 0.49999400 0.13317000 0.22941500
v 0.48171900 0.13190200 0.24664800
v 0.46556300 0.12970300 0.26687900
v 0.46137600 0.12168300 0.29045000
v 0.49999400 0.07886380 0.19916300
v 0.49999300 0.09273640 0.18585500
v 0.48236800 0.08306390 0.20966500
v 0.47306500 0.09441820 0.25359100
v 0.48064000 0.09619200 0.19949700
v 0.46963200 0.10682000 0.24664200
v 0.48885400 0.09348840 0.28454900
v 0.47794600 0.08890110 0.23229700
v 0.47537300 0.10167200 0.22376100
v 0.46514000 0.11399800 0.26748400
v 0.46949700 0.10200800 0.27302900
v 0.36676000 0.07320480 0.11692800
v 0.35965300 0.08221170 0.15070200
v 0.36854800 0.07370210 0.15613200
v 0.36923800 0.06765340 0.11878100
v 0.38475000 0.05772850 0.08875140
v 0.40609400 0.04917090 0.06444390
v 0.43614300 0.04500220 0.04797370
v 0.46985500 0.04234390 0.03782490
v 0.49999000 0.04126030 0.03873070
v 0.49998900 0.04788640 0.03242040
v 0.46913700 0.04867990 0.03328480
v 0.43507100 0.05123350 0.04448860
v 0.40456800 0.05521350 0.06166290
v 0.38272200 0.06350080 0.08632950
v 0.36445900 0.06485420 0.13278800
v 0.35877300 0.07188470 0.12914500
v 0.37176900 0.05895990 0.09556150
v 0.39158900 0.04970940 0.07130090
v 0.41995300 0.04306550 0.04851220
v 0.45008800 0.03848820 0.03492240
v 0.48437100 0.04216720 0.02500280
v 0.48472300 0.03568600 0.03042650
v 0.44919300 0.04477160 0.03090980
v 0.41865500 0.04920260 0.04537780
v 0.38981200 0.05561670 0.06869950
v 0.36951600 0.06462170 0.09342410
v 0.45955800 0.18910500 0.49977900
v 0.45842900 0.18528900 0.44552100
v 0.46330000 0.19222400 0.44218500
v 0.35495300 0.27548000 0.51535700
v 0.30651700 0.31911900 0.55214800
v 0.29500000 0.30946100 0.56005800
v 0.33048400 0.25633600 0.53174200
v 0.40989200 0.22737300 0.50509800
v 0.43478100 0.20278500 0.45933800
v 0.43905000 0.20926400 0.45456800
v 0.40561300 0.24407800 0.49854700
v 0.45148700 0.22276300 0.58261400
v 0.43104500 0.20480700 0.59835200
v 0.42500600 0.19578200 0.55746800
v 0.45236100 0.21520800 0.53798500
v 0.29790700 0.31905300 0.54386600
v 0.28639000 0.30939500 0.55177600
v 0.44818900 0.17095000 0.36700500
v 0.39558500 0.21081100 0.39389100
v 0.34979100 0.24872200 0.42640000
v 0.29422700 0.29023900 0.43176200
v 0.18924600 0.35883200 0.51704300
v 0.18037800 0.35215600 0.52495200
v 0.28270400 0.27970300 0.44733400
v 0.34309900 0.23940000 0.43484600
v 0.39133800 0.20469100 0.39913200
v 0.44361700 0.16407500 0.37085000
v 0.28743000 0.22504100 0.35704500
v 0.35198100 0.17829000 0.32720400
v 0.44318900 0.15217000 0.32484600
v 0.44544400 0.15556000 0.32295000
v 0.35536000 0.18318000 0.32300000
v 0.28999600 0.22921200 0.35395600
v 0.21465300 0.28739400 0.34093900
v 0.03833570 0.43254100 0.48819500
v 0.03396140 0.42924900 0.49209500
v 0.20846100 0.28167500 0.34946300
v 0.10151000 0.36323600 0.37452100
v 0.04362140 0.41122900 0.42589900
v 0.03881350 0.40730200 0.43105900
v 0.09626300 0.35867500 0.38094000
v 0.19036700 0.34023900 0.49407400
v 0.22447500 0.31608800 0.46820100
v 0.23511200 0.32533700 0.45518300
v 0.20011800 0.34820200 0.48361000
v 0.17343300 0.31387600 0.34515700
v 0.13660400 0.33876700 0.35864500
v 0.23449200 0.26461300 0.34961800
v 0.26173500 0.24497000 0.35653800
v 0.26582900 0.24976700 0.35120100
v 0.23938000 0.26960900 0.34311100
v 0.33597400 0.19989500 0.33931200
v 0.31524200 0.21472600 0.35051100
v 0.35221000 0.18018000 0.32450100
v 0.31199400 0.21082200 0.35416100
v 0.33347700 0.19635100 0.34242300
v 0.13121400 0.33399400 0.36548400
v 0.16789600 0.30889200 0.35241600
v 0.05622810 0.39151500 0.41196400
v 0.07537980 0.37530600 0.39525800
v 0.08047770 0.37965500 0.38925800
v 0.06118240 0.39565300 0.40638500
v 0.03715380 0.42116500 0.44318600
v 0.03539190 0.42826900 0.46395100
v 0.03087390 0.42476600 0.46827200
v 0.03249220 0.41745000 0.44792700
v 0.38258900 0.16657000 0.31273300
v 0.40790000 0.16068800 0.31261300
v 0.41010100 0.16395400 0.31048800
v 0.38473700 0.16971200 0.31037800
v 0.42891900 0.18465900 0.37357800
v 0.41138400 0.19794500 0.38254000
v 0.37858500 0.22387000 0.40233800
v 0.36332000 0.23650700 0.41317500
v 0.32953400 0.26298300 0.42579800
v 0.31101300 0.27682200 0.42758500
v 0.27278700 0.30236000 0.43718000
v 0.25308200 0.31405900 0.44498700
v 0.22171100 0.33338000 0.46227000
v 0.21004600 0.34100200 0.47174600
v 0.19475800 0.35216700 0.49236600
v 0.19113500 0.35571000 0.50351000
v 0.18197200 0.34860600 0.51227100
v 0.18530200 0.34463300 0.50197800
v 0.20000000 0.33261100 0.48306100
v 0.21136900 0.32456000 0.47443600
v 0.24214900 0.30438100 0.45885700
v 0.26155900 0.29225300 0.45190100
v 0.30110000 0.26669000 0.44078300
v 0.32123200 0.25325600 0.43662000
v 0.35744300 0.22825200 0.42055300
v 0.37352300 0.21668300 0.40864800
v 0.40702900 0.19157400 0.38731600
v 0.42445500 0.17803500 0.37788900
v 0.42681300 0.15124200 0.31155000
v 0.42904100 0.15457000 0.30953900
v 0.39636100 0.16223500 0.30283000
v 0.39418700 0.15903100 0.30507100
v 0.36302800 0.16943400 0.31269100
v 0.36579200 0.17345000 0.30941100
v 0.33630400 0.18644600 0.32864800
v 0.33924100 0.19066400 0.32499000
v 0.32033900 0.20511500 0.33802000
v 0.31746800 0.20139200 0.34140000
v 0.29672000 0.21390800 0.34819200
v 0.29962700 0.21794500 0.34482300
v 0.27464800 0.23521800 0.34542500
v 0.27131800 0.23073500 0.34963900
v 0.24575100 0.24911000 0.34658200
v 0.25024200 0.25400600 0.34066000
v 0.22380700 0.27300300 0.33573800
v 0.19005500 0.29570000 0.33673800
v 0.15010600 0.32251800 0.34546100
v 0.11384900 0.34771600 0.36009100
v 0.08502880 0.36948500 0.37551400
v 0.06449630 0.38664600 0.39158200
v 0.04089570 0.39942300 0.41549800
v 0.21826800 0.26764500 0.34325400
v 0.18419200 0.29034900 0.34463000
v 0.14464300 0.31764000 0.35251100
v 0.10853000 0.34305000 0.36672100
v 0.07985630 0.36503000 0.38172400
v 0.05947020 0.38240300 0.39737200
v 0.04577550 0.40345500 0.41012900
v 0.03325990 0.41925000 0.43007800
v 0.02852380 0.41542900 0.43502800
v 0.02500000 0.42653200 0.45564700
v 0.02959250 0.43013900 0.45111800
v 0.03113630 0.43725800 0.47554300
v 0.02669010 0.43386100 0.47965300
v 0.97331300 0.43386100 0.47962900
v 0.96886600 0.43725800 0.47551800
v 0.97041000 0.43013900 0.45109300
v 0.97500000 0.42653200 0.45562300
v 0.97147600 0.41542900 0.43500400
v 0.96674000 0.41925000 0.43005400
v 0.95422200 0.40345500 0.41010500
v 0.94053000 0.38240300 0.39734900
v 0.92014100 0.36503000 0.38170200
v 0.89146700 0.34305000 0.36670000
v 0.85535400 0.31764000 0.35249200
v 0.81580200 0.29034900 0.34461300
v 0.78173000 0.26764500 0.34323900
v 0.95910400 0.39942300 0.41547400
v 0.93550100 0.38664600 0.39156000
v 0.91496600 0.36948500 0.37549200
v 0.88614800 0.34771600 0.36007100
v 0.84988900 0.32251800 0.34544300
v 0.80993900 0.29570000 0.33672200
v 0.77619000 0.27300300 0.33572400
v 0.74975300 0.25400600 0.34064700
v 0.75424400 0.24911000 0.34656900
v 0.72867800 0.23073500 0.34962600
v 0.72534800 0.23521800 0.34541400
v 0.70036900 0.21794500 0.34481300
v 0.70327600 0.21390800 0.34818200
v 0.68252800 0.20139200 0.34139100
v 0.67965500 0.20511500 0.33801100
v 0.66075200 0.19066400 0.32498200
v 0.66369100 0.18644600 0.32863900
v 0.63420200 0.17345000 0.30940400
v 0.63696500 0.16943400 0.31268400
v 0.60580600 0.15903100 0.30506500
v 0.60363200 0.16223500 0.30282500
v 0.57095300 0.15457000 0.30953500
v 0.57318100 0.15124200 0.31154600
v 0.57554200 0.17803500 0.37788500
v 0.59296900 0.19157400 0.38731100
v 0.62647600 0.21668300 0.40864100
v 0.64255600 0.22825200 0.42054500
v 0.67876800 0.25325600 0.43661100
v 0.69890000 0.26669000 0.44077200
v 0.73844200 0.29225300 0.45188800
v 0.75785200 0.30438100 0.45884300
v 0.78863100 0.32456000 0.47442100
v 0.80000300 0.33261100 0.48304500
v 0.81470300 0.34463300 0.50196100
v 0.81803100 0.34860600 0.51225400
v 0.80887100 0.35571000 0.50349400
v 0.80524500 0.35216700 0.49235000
v 0.78995400 0.34100200 0.47173000
v 0.77828900 0.33338000 0.46225500
v 0.74691900 0.31405900 0.44497400
v 0.72721400 0.30236000 0.43716800
v 0.68898700 0.27682200 0.42757500
v 0.67046500 0.26298300 0.42578900
v 0.63667900 0.23650700 0.41316700
v 0.62141400 0.22387000 0.40233200
v 0.58861300 0.19794500 0.38253600
v 0.57107800 0.18465900 0.37357400
v 0.61525700 0.16971200 0.31037200
v 0.58989300 0.16395400 0.31048300
v 0.59209400 0.16068800 0.31260800
v 0.61740400 0.16657000 0.31272700
v 0.96751100 0.41745000 0.44790200
v 0.96912600 0.42476600 0.46824700
v 0.96461100 0.42826900 0.46392700
v 0.96284600 0.42116500 0.44316200
v 0.93881800 0.39565300 0.40636100
v 0.91952000 0.37965500 0.38923600
v 0.92462000 0.37530600 0.39523600
v 0.94377200 0.39151500 0.41194100
v 0.83209800 0.30889200 0.35239900
v 0.86878300 0.33399400 0.36546400
v 0.66651800 0.19635100 0.34241400
v 0.68800200 0.21082200 0.35415100
v 0.68475400 0.21472600 0.35050200
v 0.66402200 0.19989500 0.33930300
v 0.76061500 0.26960900 0.34309700
v 0.73416700 0.24976700 0.35118900
v 0.73826100 0.24497000 0.35652500
v 0.76550300 0.26461300 0.34960400
v 0.86339300 0.33876700 0.35862500
v 0.82656100 0.31387600 0.34514000
v 0.79988400 0.34820200 0.48359400
v 0.76488900 0.32533700 0.45516900
v 0.77552700 0.31608800 0.46818600
v 0.80963600 0.34023900 0.49405800
v 0.90373400 0.35867500 0.38091900
v 0.96118600 0.40730200 0.43103500
v 0.95637900 0.41122900 0.42587600
v 0.89848700 0.36323600 0.37450000
v 0.79153600 0.28167500 0.34944700
v 0.96604100 0.42924900 0.49207100
v 0.96167000 0.43254100 0.48817000
v 0.78534500 0.28739400 0.34092400
v 0.71000000 0.22921200 0.35394500
v 0.64463400 0.18318000 0.32299200
v 0.55455000 0.15556000 0.32294700
v 0.55680500 0.15217000 0.32484300
v 0.64801300 0.17829000 0.32719600
v 0.71256600 0.22504100 0.35703400
v 0.55638000 0.16407500 0.37084700
v 0.60866000 0.20469100 0.39912700
v 0.65690100 0.23940000 0.43483800
v 0.71729600 0.27970300 0.44732300
v 0.81962700 0.35215600 0.52493600
v 0.81076000 0.35883200 0.51702700
v 0.70577300 0.29023900 0.43175100
v 0.65020800 0.24872200 0.42639200
v 0.60441300 0.21081100 0.39388500
v 0.55180800 0.17095000 0.36700200
v 0.71361600 0.30939500 0.55176400
v 0.70209900 0.31905300 0.54385600
v 0.54764400 0.21520800 0.53798200
v 0.57500000 0.19578200 0.55746400
v 0.56896300 0.20480700 0.59834800
v 0.54852100 0.22276300 0.58261200
v 0.59439100 0.24407800 0.49854200
v 0.56095100 0.20926400 0.45456500
v 0.56522000 0.20278500 0.45933400
v 0.59011200 0.22737300 0.50509300
v 0.66952100 0.25633600 0.53173400
v 0.70500700 0.30946100 0.56004600
v 0.69348900 0.31911900 0.55213800
v 0.64505100 0.27548000 0.51534900
v 0.53670000 0.19222400 0.44218300
v 0.54157200 0.18528900 0.44551800
v 0.54044500 0.18910500 0.49977700
v 0.63046600 0.06462170 0.09341850
v 0.61016900 0.05561670 0.06869400
v 0.58132500 0.04920260 0.04537510
v 0.55078500 0.04477160 0.03090710
v 0.51525500 0.03568600 0.03042650
v 0.51560800 0.04216720 0.02500000
v 0.54989100 0.03848820 0.03491970
v 0.58002600 0.04306550 0.04850950
v 0.60839200 0.04970940 0.07129540
v 0.62821300 0.05895990 0.09555600
v 0.64121100 0.07188470 0.12913700
v 0.63552500 0.06485420 0.13278000
v 0.61726000 0.06350080 0.08632400
v 0.59541200 0.05521350 0.06165740
v 0.56490800 0.05123350 0.04448580
v 0.53084200 0.04867990 0.03328200
v 0.53012400 0.04234390 0.03782210
v 0.56383700 0.04500220 0.04797100
v 0.59388600 0.04917090 0.06443840
v 0.61523200 0.05772850 0.08874590
v 0.63074600 0.06765340 0.11877600
v 0.63143700 0.07370210 0.15612600
v 0.64033300 0.08221170 0.15069700
v 0.63322300 0.07320480 0.11692000
v 0.53049500 0.10200800 0.27302700
v 0.53485200 0.11399800 0.26748200
v 0.52461600 0.10167200 0.22376000
v 0.52204300 0.08890110 0.23229600
v 0.51113800 0.09348840 0.28454800
v 0.53035900 0.10682000 0.24664000
v 0.51934700 0.09619200 0.19949400
v 0.52692500 0.09441820 0.25358900
v 0.51762000 0.08306390 0.20966200
v 0.53861700 0.12168300 0.29044800
v 0.53442900 0.12970300 0.26687800
v 0.51827100 0.13190200 0.24664700
v 0.52254600 0.09892570 0.29604800
v 0.53365300 0.10988400 0.29366700
v 0.53842500 0.12593700 0.31808700
v 0.51463200 0.09241470 0.33381400
v 0.52921900 0.11764400 0.32442300
v 0.56343000 0.03420330 0.45122700
v 0.54440500 0.04988890 0.43247200
v 0.53289500 0.03325160 0.43098000
v 0.55605000 0.02500000 0.44993800
v 0.57343400 0.03839320 0.44434100
v 0.56319900 0.05100320 0.40956600
v 0.53484200 0.07956940 0.52861800
v 0.54274800 0.08560960 0.52595500
v 0.55607100 0.05675340 0.47151800
v 0.54352000 0.04705270 0.47548700
v 0.53963100 0.08141420 0.33549100
v 0.54774100 0.10236400 0.32505900
v 0.54463200 0.13065200 0.31158200
v 0.52587300 0.15518700 0.30320800
v 0.52079900 0.06703980 0.34202300
v 0.53230400 0.04286370 0.45214500
v 0.56014300 0.06740180 0.43255000
v 0.57458100 0.09961560 0.42791500
v 0.56905200 0.14506200 0.40786700
v 0.54035600 0.18448000 0.39008600
v 0.56084500 0.12977300 0.52859600
v 0.55635300 0.16612700 0.51109900
v 0.53304500 0.19996900 0.49428000
v 0.52650500 0.08435250 0.54979100
v 0.55085200 0.10284100 0.54133600
v 0.52787600 0.10472200 0.61486800
v 0.55213500 0.12377500 0.60112200
v 0.56208800 0.14790100 0.58412700
v 0.55752400 0.17830900 0.56057900
v 0.53447100 0.20466200 0.53896400
v 0.50620800 0.17678000 0.70853800
v 0.50836500 0.18274200 0.69540300
v 0.51182200 0.18266400 0.68814300
v 0.51369200 0.17543700 0.67216800
v 0.52129300 0.13322000 0.65351900
v 0.53675800 0.17973400 0.66275500
v 0.55252400 0.18907400 0.59629500
v 0.53208100 0.20703000 0.58055900
v 0.54798500 0.14793200 0.63807200
v 0.55673300 0.16743700 0.62081500
v 0.53535400 0.22202400 0.67794000
v 0.52877600 0.21194200 0.59143500
v 0.54111500 0.19973600 0.61965700
v 0.52601100 0.22306700 0.60995100
v 0.53772500 0.23259800 0.65414500
v 0.52320000 0.23929200 0.63084300
v 0.53713000 0.22745600 0.66508600
v 0.53444700 0.22527400 0.67180600
v 0.53510000 0.22356900 0.67799500
v 0.53581400 0.21998000 0.67258800
v 0.53778200 0.21806100 0.66582700
v 0.53601300 0.21468600 0.63301400
v 0.53839300 0.18807100 0.64650400
v 0.54005500 0.20120500 0.65913400
v 0.53562900 0.20866000 0.67080100
v 0.53515500 0.21957600 0.67920300
v 0.53403100 0.21551900 0.67614400
v 0.53289700 0.21852100 0.68295500
v 0.53012000 0.21393400 0.68207700
v 0.53451700 0.22580000 0.67936400
v 0.53339800 0.22622500 0.68317600
v 0.53215900 0.22378300 0.68490000
v 0.53159000 0.22082300 0.68549800
v 0.52673600 0.21601900 0.68918700
v 0.52690000 0.22201700 0.69041600
v 0.53353600 0.23023800 0.67692400
v 0.53046200 0.22949800 0.68536200
v 0.53355300 0.23494800 0.67391000
v 0.53164600 0.24002000 0.67249100
v 0.51919900 0.24806500 0.65057800
v 0.51451900 0.24299400 0.68598800
v 0.52785200 0.23928800 0.68612700
v 0.53013300 0.23420900 0.68493800
v 0.53169000 0.20736200 0.68274800
v 0.52948000 0.18835700 0.67956600
v 0.52618700 0.22365300 0.69503900
v 0.52408900 0.21052300 0.69204600
v 0.51805200 0.22294700 0.70296900
v 0.51065100 0.22488100 0.70576500
v 0.51201200 0.20559800 0.70403800
v 0.52085900 0.18799400 0.69344700
v 0.51983600 0.20327600 0.69475300
v 0.51997200 0.19395300 0.69794200
v 0.50676900 0.20712600 0.70810400
v 0.50938900 0.20605000 0.70653300
v 0.50860200 0.19659900 0.71611000
v 0.51548200 0.17994800 0.70669100
v 0.51372400 0.19660300 0.70699600
v 0.51418500 0.18748700 0.70821700
v 0.51033200 0.19154200 0.71666100
v 0.50870500 0.16766900 0.73177500
v 0.50867600 0.17422300 0.73507800
v 0.50689700 0.17737600 0.73770200
v 0.50518700 0.17163200 0.74312100
v 0.50709000 0.16358300 0.74036500
v 0.50676700 0.16734200 0.74331800
f 536 533 532
f 520 531 532
f 49 47 48
f 41 44 43
f 58 57 46
f 532 534 529
f 534 533 536
f 527 528 521
f 45 72 50
f 45 39 40
f 42 43 48
f 57 58 56
f 535 530 529
f 536 535 534
f 520 519 537
f 50 72 56
f 43 42 41
f 49 50 56
f 519 520 512
f 538 532 531
f 535 529 534
f 50 48 43
f 48 47 42
f 44 41 39
f 45 46 57
f 530 528 527
f 567 2 3
f 557 556 555
f 566 3 71
f 15 22 84
f 15 13 20
f 11 7 8
f 7 5 6
f 12 19 18
f 11 16 14
f 12 561 557
f 556 557 551
f 567 563 564
f 564 561 12
f 560 558 552
f 552 558 502
f 3 4 10
f 16 18 17
f 2 1 4
f 10 9 13
f 71 10 85
f 558 562 502
f 502 70 69
f 559 561 560
f 565 564 8
f 12 555 19
f 561 559 557
f 12 16 11
f 17 23 16
f 9 1 5
f 10 4 1
f 20 13 14
f 21 14 16
f 564 563 560
f 12 557 555
f 567 565 6
f 563 562 558
f 562 71 70
f 15 85 10
f 70 85 84
f 14 13 11
f 5 1 2
f 16 12 18
f 9 7 11
f 559 553 551
f 560 554 553
f 566 562 563
f 437 434 445
f 462 449 439
f 446 461 457
f 446 447 435
f 158 151 163
f 157 169 158
f 151 164 152
f 161 147 127
f 127 146 161
f 155 154 167
f 148 160 149
f 154 135 137
f 157 143 139
f 151 158 169
f 447 446 434
f 445 434 446
f 448 458 463
f 452 453 469
f 454 441 442
f 452 471 451
f 154 435 135
f 443 432 444
f 449 444 432
f 153 156 166
f 156 139 136
f 149 162 150
f 150 145 128
f 168 165 152
f 162 171 159
f 150 163 138
f 156 168 157
f 156 153 165
f 444 449 438
f 444 433 445
f 448 438 449
f 453 441 469
f 441 454 469
f 154 155 436
f 451 442 452
f 155 136 461
f 439 432 443
f 148 147 161
f 159 171 146
f 153 137 142
f 147 148 125
f 146 160 161
f 149 125 148
f 152 165 153
f 158 170 159
f 149 146 171
f 433 438 448
f 446 436 155
f 439 450 455
f 454 464 469
f 431 440 450
f 450 440 451
f 435 447 463
f 454 431 443
f 453 452 442
f 170 163 150
f 153 167 154
f 163 151 138
f 127 134 146
f 146 149 160
f 149 128 125
f 155 166 156
f 164 169 157
f 454 451 440
f 443 460 456
f 447 437 448
f 471 468 451
f 442 451 454
f 418 419 509
f 424 425 418
f 410 356 357
f 407 424 423
f 397 321 380
f 313 320 385
f 316 371 353
f 368 304 369
f 394 407 343
f 343 342 382
f 305 367 349
f 329 328 376
f 402 399 330
f 375 384 318
f 368 367 305
f 397 394 314
f 401 400 336
f 308 315 373
f 344 374 312
f 314 394 383
f 325 398 411
f 363 361 360
f 390 388 345
f 307 306 391
f 412 399 332
f 407 344 345
f 425 424 414
f 423 424 417
f 331 330 379
f 416 494 501
f 426 415 427
f 408 409 415
f 327 403 406
f 347 346 372
f 351 369 307
f 322 381 357
f 317 393 387
f 344 407 394
f 323 383 343
f 403 398 325
f 372 371 316
f 381 382 324
f 392 391 315
f 370 373 309
f 377 378 326
f 393 390 311
f 398 403 327
f 312 375 345
f 405 402 331
f 354 384 319
f 393 318 384
f 386 392 308
f 395 396 409
f 404 338 339
f 409 350 351
f 427 420 494
f 420 421 428
f 508 500 417
f 425 426 419
f 412 360 361
f 407 414 424
f 330 399 412
f 383 380 321
f 375 311 390
f 335 363 360
f 389 391 306
f 338 364 334
f 310 372 346
f 303 302 367
f 362 365 334
f 394 397 320
f 396 395 302
f 384 375 312
f 365 362 332
f 337 336 363
f 315 391 389
f 333 402 405
f 336 400 413
f 369 351 350
f 396 303 368
f 368 350 409
f 402 333 332
f 380 356 410
f 423 406 342
f 411 358 359
f 500 430 417
f 419 416 501
f 422 423 430
f 426 427 416
f 387 354 355
f 405 340 341
f 320 397 410
f 317 310 390
f 384 354 387
f 317 353 371
f 313 374 344
f 328 377 341
f 364 363 335
f 382 381 322
f 378 377 328
f 371 372 310
f 369 366 306
f 380 383 323
f 366 369 304
f 319 312 374
f 346 388 390
f 334 365 339
f 358 378 329
f 411 398 326
f 302 395 408
f 406 403 324
f 404 401 337
f 388 346 347
f 426 425 414
f 417 430 423
f 413 400 401
f 230 233 287
f 224 226 276
f 234 237 298
f 291 284 217
f 293 257 231
f 272 200 197
f 274 224 245
f 299 252 234
f 292 228 258
f 203 271 225
f 231 230 294
f 196 199 276
f 193 194 188
f 176 175 187
f 186 87 97
f 88 78 184
f 176 177 184
f 189 242 243
f 188 214 258
f 190 203 273
f 222 219 289
f 194 207 301
f 243 242 240
f 189 202 267
f 197 200 270
f 213 211 288
f 267 266 239
f 241 238 270
f 208 205 282
f 236 235 299
f 211 210 295
f 220 221 278
f 202 201 266
f 288 295 233
f 291 229 228
f 229 259 258
f 195 208 289
f 191 204 278
f 277 204 191
f 295 210 216
f 279 199 196
f 266 201 198
f 194 254 255
f 177 176 187
f 178 179 185
f 273 272 227
f 179 172 185
f 177 188 178
f 195 178 188
f 271 203 190
f 297 296 210
f 296 234 252
f 240 268 241
f 218 249 248
f 219 260 195
f 280 220 261
f 199 204 277
f 212 209 285
f 225 200 272
f 218 228 292
f 237 234 296
f 219 222 281
f 238 241 268
f 301 300 235
f 293 212 214
f 269 239 264
f 297 211 213
f 286 232 250
f 250 232 287
f 200 225 271
f 205 283 217
f 217 248 192
f 196 262 263
f 192 248 249
f 175 176 183
f 179 180 173
f 183 184 78
f 177 178 185
f 191 246 247
f 195 260 261
f 205 192 247
f 271 270 200
f 300 206 193
f 299 235 253
f 290 208 229
f 239 265 264
f 240 239 269
f 221 220 280
f 225 272 273
f 228 218 284
f 198 201 202
f 231 232 286
f 226 224 274
f 232 231 294
f 204 199 279
f 280 260 219
f 195 289 219
f 284 218 217
f 285 209 218
f 209 215 249
f 283 290 229
f 206 207 194
f 197 264 265
f 215 250 251
f 182 175 186
f 181 182 97
f 186 183 77
f 88 185 172
f 190 244 245
f 195 179 178
f 282 205 222
f 231 257 256
f 293 286 209
f 246 221 281
f 250 215 209
f 208 195 259
f 262 226 275
f 254 236 298
f 275 274 223
f 203 225 273
f 205 208 290
f 207 206 300
f 543 542 550
f 548 535 536
f 522 526 525
f 516 517 541
f 136 131 466
f 509 67 513
f 546 552 503
f 494 96 86
f 428 96 494
f 487 478 495
f 474 475 481
f 486 470 471
f 464 465 484
f 465 460 457
f 429 490 404
f 135 130 141
f 141 129 138
f 125 113 112
f 122 103 104
f 93 103 115
f 109 110 100
f 99 93 90
f 88 89 73
f 78 73 53
f 20 21 29
f 38 59 58
f 55 51 49
f 27 42 47
f 33 34 36
f 18 19 25
f 33 24 25
f 27 47 30
f 52 51 55
f 37 61 59
f 22 20 29
f 77 78 63
f 86 87 77
f 98 99 89
f 107 108 105
f 123 122 121
f 121 122 104
f 111 127 112
f 133 111 110
f 143 132 139
f 101 198 100
f 467 470 459
f 459 463 458
f 130 470 124
f 476 472 473
f 477 488 480
f 482 483 489
f 481 480 479
f 92 497 506
f 504 68 79
f 549 556 551
f 517 65 36
f 525 524 514
f 545 546 525
f 543 544 539
f 548 547 549
f 549 547 544
f 544 547 536
f 510 511 507
f 514 513 515
f 69 68 504
f 509 76 67
f 507 546 504
f 95 495 497
f 428 491 106
f 487 481 478
f 475 472 480
f 108 124 470
f 465 485 484
f 464 456 465
f 413 491 428
f 189 174 100
f 144 134 133
f 110 132 133
f 124 108 107
f 123 120 114
f 104 94 117
f 106 100 174
f 94 95 92
f 29 80 82
f 77 64 67
f 68 69 84
f 64 63 54
f 80 53 73
f 31 39 41
f 32 26 24
f 28 27 21
f 31 32 37
f 49 51 30
f 62 54 61
f 60 65 66
f 26 21 23
f 80 29 52
f 90 91 81
f 102 103 93
f 111 112 102
f 94 93 116
f 119 122 123
f 130 124 126
f 144 133 140
f 98 88 172
f 430 493 490
f 455 468 467
f 466 131 109
f 476 480 472
f 476 477 480
f 486 482 488
f 105 487 495
f 495 496 498
f 510 507 505
f 75 506 505
f 515 513 67
f 525 514 523
f 511 524 507
f 544 538 537
f 553 546 545
f 404 491 413
f 550 542 34
f 535 548 530
f 526 522 521
f 518 539 537
f 554 552 546
f 511 508 514
f 499 500 508
f 496 492 499
f 485 109 106
f 496 479 480
f 473 487 488
f 482 471 469
f 458 462 467
f 130 135 463
f 198 189 100
f 143 133 132
f 134 127 111
f 126 107 113
f 120 121 104
f 117 114 104
f 174 97 96
f 96 97 87
f 22 29 83
f 67 76 77
f 131 136 139
f 60 61 37
f 55 54 52
f 42 27 28
f 24 33 32
f 17 18 24
f 33 35 37
f 30 47 49
f 55 56 58
f 55 59 61
f 44 45 43
f 52 53 80
f 89 90 74
f 101 102 99
f 110 111 101
f 115 116 93
f 122 118 103
f 128 129 126
f 111 133 134
f 143 140 133
f 173 198 101
f 465 457 466
f 464 484 469
f 467 468 471
f 477 473 488
f 488 496 480
f 484 485 491
f 489 490 493
f 498 499 511
f 525 546 507
f 533 534 532
f 518 522 523
f 521 522 518
f 545 526 528
f 34 542 541
f 19 555 550
f 549 543 550
f 548 545 530
f 523 522 525
f 516 540 539
f 546 553 554
f 508 509 513
f 501 86 76
f 492 493 500
f 108 486 487
f 473 472 475
f 473 474 487
f 484 483 469
f 465 466 485
f 457 461 466
f 490 491 404
f 129 141 126
f 142 137 141
f 126 141 130
f 119 118 122
f 118 119 115
f 112 113 103
f 115 114 117
f 91 92 75
f 68 83 82
f 23 17 26
f 65 60 35
f 52 54 63
f 29 30 51
f 39 31 38
f 29 21 27
f 28 26 32
f 28 31 41
f 73 74 80
f 63 53 52
f 64 62 66
f 81 75 79
f 80 74 81
f 93 94 91
f 104 105 95
f 113 107 104
f 115 103 118
f 119 123 115
f 131 132 110
f 128 145 138
f 98 172 173
f 493 430 500
f 456 460 465
f 130 459 470
f 473 477 476
f 496 495 478
f 483 484 490
f 488 489 492
f 497 498 510
f 525 507 524
f 551 553 549
f 65 517 515
f 523 515 517
f 530 545 528
f 541 542 543
f 555 556 549
f 536 532 538
f 520 532 512
f 49 48 50
f 58 46 40
f 532 529 527
f 532 527 512
f 527 521 512
f 45 40 46
f 57 56 72
f 520 537 531
f 519 512 521
f 538 531 537
f 50 43 45
f 44 39 45
f 45 57 72
f 530 527 529
f 567 3 566
f 566 71 562
f 15 84 85
f 15 20 22
f 11 8 12
f 7 6 8
f 567 564 565
f 564 12 8
f 560 552 554
f 552 502 503
f 3 10 71
f 2 4 3
f 10 13 15
f 71 85 70
f 502 69 503
f 565 8 6
f 9 5 7
f 10 1 9
f 20 14 21
f 21 16 23
f 564 560 561
f 567 6 2
f 563 558 560
f 562 70 502
f 70 84 69
f 5 2 6
f 9 11 13
f 559 551 557
f 560 553 559
f 566 563 567
f 437 445 448
f 446 457 445
f 446 435 436
f 158 163 170
f 157 158 140
f 157 140 143
f 151 152 142
f 151 142 138
f 155 167 166
f 154 137 153
f 157 139 156
f 151 169 164
f 447 434 437
f 448 463 447
f 452 469 471
f 443 444 460
f 449 432 439
f 153 166 167
f 156 136 155
f 150 128 149
f 168 152 157
f 162 159 150
f 150 138 145
f 156 165 168
f 444 438 433
f 444 445 457
f 444 457 460
f 448 449 462
f 448 462 458
f 154 436 435
f 155 461 446
f 439 443 450
f 148 161 160
f 159 146 134
f 159 134 144
f 153 142 152
f 147 125 127
f 158 159 144
f 158 144 140
f 149 171 162
f 433 448 445
f 439 455 462
f 431 450 443
f 450 451 468
f 450 468 455
f 435 463 135
f 454 443 456
f 454 456 464
f 453 442 441
f 170 150 159
f 164 157 152
f 454 440 431
f 418 509 508
f 424 418 417
f 410 357 411
f 410 411 420
f 410 420 427
f 313 385 374
f 316 353 352
f 316 352 370
f 394 343 383
f 343 382 323
f 305 349 348
f 305 348 366
f 329 376 379
f 402 330 331
f 375 318 311
f 368 305 304
f 397 314 321
f 401 336 337
f 308 373 370
f 344 312 345
f 325 411 357
f 325 357 381
f 390 345 375
f 307 391 392
f 412 332 362
f 412 362 360
f 407 345 388
f 407 388 414
f 331 379 376
f 408 415 414
f 327 406 341
f 327 341 377
f 347 372 309
f 347 309 373
f 351 307 392
f 351 392 386
f 322 357 356
f 322 356 380
f 317 387 353
f 344 394 313
f 403 325 324
f 372 316 309
f 381 324 325
f 392 315 308
f 370 309 316
f 377 326 327
f 393 311 318
f 398 327 326
f 405 331 376
f 405 376 340
f 354 319 385
f 354 385 355
f 386 308 370
f 386 370 352
f 395 409 408
f 404 339 405
f 404 405 422
f 404 422 429
f 409 351 386
f 409 386 352
f 409 352 353
f 409 353 387
f 409 387 415
f 427 494 416
f 420 428 494
f 508 417 418
f 425 419 418
f 412 361 413
f 412 413 428
f 412 428 421
f 330 412 359
f 330 359 379
f 383 321 314
f 335 360 362
f 389 306 366
f 389 366 348
f 303 367 368
f 362 334 335
f 394 320 313
f 396 302 303
f 384 312 319
f 365 332 333
f 337 363 364
f 315 389 347
f 315 347 373
f 333 405 339
f 333 339 365
f 336 413 361
f 336 361 363
f 369 350 368
f 368 409 396
f 402 332 399
f 380 410 397
f 423 342 343
f 423 343 407
f 411 359 412
f 411 412 421
f 411 421 420
f 419 501 509
f 422 430 429
f 426 416 419
f 387 355 410
f 387 410 427
f 387 427 415
f 405 341 406
f 405 406 423
f 405 423 422
f 320 410 355
f 320 355 385
f 317 390 393
f 384 387 393
f 328 341 340
f 328 340 376
f 364 335 334
f 382 322 323
f 378 328 329
f 371 310 317
f 369 306 307
f 380 323 322
f 366 304 305
f 319 374 385
f 346 390 310
f 334 339 338
f 358 329 379
f 358 379 359
f 411 326 378
f 411 378 358
f 302 408 349
f 302 349 367
f 406 324 382
f 406 382 342
f 404 337 364
f 404 364 338
f 388 347 389
f 388 389 348
f 388 348 349
f 388 349 408
f 388 408 414
f 426 414 415
f 413 401 404
f 230 287 294
f 224 276 277
f 234 298 299
f 291 217 229
f 272 197 263
f 272 263 227
f 274 245 244
f 274 244 223
f 292 258 214
f 292 214 212
f 196 276 226
f 196 226 262
f 193 188 187
f 88 184 185
f 176 184 183
f 189 243 190
f 189 190 181
f 189 181 174
f 188 258 259
f 188 259 195
f 190 273 223
f 190 223 244
f 222 289 282
f 194 301 236
f 194 236 254
f 189 267 240
f 189 240 242
f 197 270 238
f 197 238 264
f 213 288 230
f 213 230 256
f 267 239 240
f 241 270 271
f 208 282 289
f 236 299 298
f 211 295 288
f 220 278 279
f 202 266 267
f 288 233 230
f 229 258 228
f 191 278 221
f 191 221 246
f 277 191 245
f 277 245 224
f 295 216 251
f 295 251 233
f 279 196 261
f 279 261 220
f 266 198 265
f 266 265 239
f 194 255 213
f 194 213 256
f 194 256 257
f 194 257 214
f 194 214 188
f 177 187 188
f 273 227 223
f 271 190 243
f 271 243 241
f 297 210 211
f 296 252 216
f 296 216 210
f 240 241 243
f 218 248 217
f 280 261 260
f 199 277 276
f 212 285 292
f 218 292 285
f 237 296 297
f 219 281 280
f 238 268 269
f 301 235 236
f 293 214 257
f 269 264 238
f 297 213 255
f 297 255 237
f 250 287 233
f 250 233 251
f 217 192 205
f 196 263 197
f 196 197 180
f 196 180 179
f 192 249 215
f 192 215 187
f 192 187 175
f 175 183 186
f 179 173 172
f 183 78 77
f 177 185 184
f 191 247 192
f 191 192 175
f 191 175 182
f 195 261 196
f 195 196 179
f 205 247 222
f 300 193 253
f 300 253 235
f 299 253 252
f 240 269 268
f 221 280 281
f 228 284 291
f 198 202 189
f 231 286 293
f 226 274 275
f 232 294 287
f 204 279 278
f 209 249 218
f 283 229 217
f 206 194 193
f 197 265 198
f 197 198 173
f 197 173 180
f 215 251 216
f 215 216 252
f 215 252 253
f 215 253 193
f 215 193 187
f 182 186 97
f 181 97 174
f 186 77 87
f 190 245 191
f 190 191 182
f 190 182 181
f 231 256 230
f 293 209 212
f 246 281 222
f 246 222 247
f 250 209 286
f 208 259 229
f 262 275 227
f 262 227 263
f 254 298 237
f 254 237 255
f 275 223 227
f 205 290 283
f 207 300 301
f 548 536 547
f 516 541 540
f 136 466 461
f 546 503 504
f 494 86 501
f 474 481 487
f 486 471 482
f 135 141 137
f 141 138 142
f 125 112 127
f 109 100 106
f 99 90 89
f 88 73 78
f 78 53 63
f 38 58 40
f 55 49 56
f 33 36 35
f 18 25 24
f 33 25 34
f 37 59 38
f 77 63 64
f 86 77 76
f 98 89 88
f 107 105 104
f 123 121 120
f 482 489 488
f 481 479 478
f 92 506 75
f 504 79 505
f 517 36 541
f 545 525 526
f 543 539 540
f 548 549 553
f 549 544 543
f 544 536 538
f 514 515 523
f 69 504 503
f 507 504 505
f 95 497 92
f 428 106 96
f 475 480 481
f 108 470 486
f 124 107 126
f 123 114 115
f 106 174 96
f 94 92 91
f 29 82 83
f 68 84 83
f 64 54 62
f 28 21 26
f 31 37 38
f 62 61 60
f 60 66 62
f 90 81 74
f 102 93 99
f 111 102 101
f 94 116 117
f 430 490 429
f 455 467 462
f 466 109 485
f 486 488 487
f 105 495 95
f 495 498 497
f 510 505 506
f 75 505 79
f 515 67 66
f 544 537 539
f 553 545 548
f 550 34 25
f 526 521 528
f 518 537 519
f 511 514 524
f 499 508 511
f 496 499 498
f 485 106 491
f 482 469 483
f 458 467 459
f 130 463 459
f 126 113 125
f 120 104 114
f 96 87 86
f 22 83 84
f 131 139 132
f 60 37 35
f 42 28 41
f 17 24 26
f 33 37 32
f 55 58 59
f 55 61 54
f 89 74 73
f 101 99 98
f 110 101 100
f 128 126 125
f 467 471 470
f 484 491 490
f 489 493 492
f 498 511 510
f 518 523 516
f 521 518 519
f 34 541 36
f 19 550 25
f 516 539 518
f 508 513 514
f 501 76 509
f 492 500 499
f 108 487 105
f 473 475 474
f 112 103 102
f 115 117 116
f 91 75 81
f 68 82 79
f 65 35 36
f 29 51 52
f 39 38 40
f 29 27 30
f 28 32 31
f 64 66 67
f 81 79 82
f 80 81 82
f 93 91 90
f 104 95 94
f 113 104 103
f 131 110 109
f 128 138 129
f 98 173 101
f 496 478 479
f 483 490 489
f 488 492 496
f 497 510 506
f 65 515 66
f 523 517 516
f 541 543 540
f 555 549 550

