# https://github.com/mikedh/trimesh

o m50.off
v 0.21552400 0.56428300 0.68447500
v 0.14275000 0.53995200 0.68447500
v 0.16406500 0.53995200 0.74724500
v 0.21552400 0.53995200 0.77324500
v 0.26698400 0.53995200 0.74724500
v 0.28829900 0.53995200 0.68447500
v 0.26698400 0.53995200 0.62170500
v 0.21552400 0.53995200 0.59570500
v 0.16406500 0.53995200 0.62170500
v 0.11260600 0.48121900 0.68447500
v 0.14275000 0.47691600 0.78836000
v 0.21552400 0.47691600 0.83364300
v 0.28829900 0.47691600 0.78836000
v 0.31844200 0.48121900 0.68447500
v 0.28829800 0.48121900 0.59570500
v 0.21552400 0.48121500 0.55893500
v 0.14275000 0.48121900 0.59570500
v 0.14275000 0.40628800 0.68447500
v 0.16406500 0.40198800 0.76612900
v 0.21552400 0.40198800 0.78836000
v 0.26698400 0.40198800 0.76612900
v 0.28829900 0.40628800 0.68447500
v 0.26698400 0.40628800 0.62170500
v 0.21552400 0.40628800 0.59570500
v 0.16406500 0.40628800 0.62170500
v 0.21552400 0.18641800 0.09982350
v 0.14275000 0.33581000 0.64376500
v 0.16406500 0.32680300 0.70588500
v 0.21552400 0.32307300 0.73161600
v 0.26698400 0.32680300 0.70588500
v 0.28829900 0.33581000 0.64376500
v 0.26698400 0.34481700 0.58164400
v 0.21552400 0.34854800 0.55591300
v 0.16406500 0.34481700 0.58164400
v 0.11556000 0.27570200 0.62995500
v 0.12413600 0.20209800 0.71880700
v 0.21552400 0.16627800 0.75440400
v 0.30691300 0.20209800 0.71880700
v 0.31548900 0.27570200 0.62995500
v 0.28621000 0.32819100 0.52702500
v 0.21552400 0.34993200 0.48438900
v 0.14483900 0.32819100 0.52702500
v 0.04444530 0.20696000 0.54681300
v 0.12195800 0.08144850 0.61339400
v 0.21552400 0.04112300 0.65846700
v 0.30909100 0.08144890 0.61339400
v 0.38660400 0.20696000 0.54681300
v 0.30909100 0.30431600 0.43799800
v 0.21552400 0.34464100 0.39292500
v 0.12195800 0.30431500 0.43799800
v 0.02500000 0.17151400 0.41878200
v 0.08080340 0.05504370 0.45773600
v 0.21552400 0.02500000 0.47387100
v 0.35024500 0.05504370 0.45773600
v 0.40604800 0.17151400 0.41878200
v 0.31972500 0.29502400 0.37982800
v 0.21552400 0.34618400 0.36369200
v 0.11132300 0.29502400 0.37982800
v 0.04135630 0.17980400 0.27642400
v 0.09236900 0.07419030 0.28546900
v 0.21552400 0.03044260 0.28921500
v 0.33867900 0.07419030 0.28546900
v 0.38969200 0.17980400 0.27642400
v 0.31078000 0.28541700 0.26737900
v 0.21552400 0.32916500 0.26363200
v 0.12026900 0.28541700 0.26737900
v 0.08838180 0.17697400 0.18005900
v 0.12562100 0.09987500 0.19462300
v 0.21552400 0.06794080 0.20065500
v 0.30542700 0.09987500 0.19462300
v 0.34266700 0.17697400 0.18005900
v 0.28506100 0.25407100 0.16549700
v 0.21552400 0.28600600 0.15946500
v 0.14598800 0.25407100 0.16549700
v 0.21552400 0.32408500 0.02500000
v 0.14271900 0.45309000 0.83266700
v 0.21550300 0.46334800 0.91653800
v 0.28826800 0.45309000 0.83266700
v 0.16403400 0.40198800 0.79712400
v 0.21549800 0.41256500 0.87166700
v 0.26695300 0.40198800 0.79712400
v 0.16090000 0.46869800 0.89757900
v 0.21549000 0.46387100 0.94260000
v 0.27006400 0.46869800 0.89757900
v 0.17280600 0.41256500 0.87566400
v 0.21548200 0.41609000 0.89789500
v 0.25814900 0.41256500 0.87566400
v 0.16875700 0.46538500 0.93007200
v 0.21547900 0.46286600 0.97500000
v 0.26217700 0.46538500 0.93007200
v 0.17877000 0.41609000 0.90833500
v 0.21546700 0.42666700 0.93056500
v 0.25215100 0.41609000 0.90833500
f 1 2 3
f 1 3 4
f 1 4 5
f 1 5 6
f 1 6 7
f 1 7 8
f 1 8 9
f 1 9 2
f 2 10 11
f 2 11 3
f 3 11 12
f 3 12 4
f 4 12 13
f 4 13 5
f 5 13 14
f 5 14 6
f 6 14 15
f 6 15 7
f 7 15 16
f 7 16 8
f 8 16 17
f 8 17 9
f 9 17 10
f 9 10 2
f 10 18 19
f 10 19 11
f 13 21 22
f 13 22 14
f 14 22 23
f 14 23 15
f 15 23 24
f 15 24 16
f 16 24 25
f 16 25 17
f 17 25 18
f 17 18 10
f 26 72 71
f 26 71 70
f 26 70 69
f 26 69 68
f 26 68 67
f 26 67 74
f 34 25 24
f 24 33 34
f 33 24 23
f 23 32 33
f 32 23 22
f 22 31 32
f 31 22 21
f 21 30 31
f 30 21 20
f 20 29 30
f 29 20 19
f 19 28 29
f 28 19 18
f 18 27 28
f 27 18 25
f 25 34 27
f 42 34 33
f 33 41 42
f 41 33 32
f 32 40 41
f 40 32 31
f 31 39 40
f 39 31 30
f 30 38 39
f 38 30 29
f 29 37 38
f 37 29 28
f 28 36 37
f 36 28 27
f 27 35 36
f 35 27 34
f 34 42 35
f 50 42 41
f 41 49 50
f 49 41 40
f 40 48 49
f 48 40 39
f 39 47 48
f 47 39 38
f 38 46 47
f 46 38 37
f 37 45 46
f 45 37 36
f 36 44 45
f 44 36 35
f 35 43 44
f 43 35 42
f 42 50 43
f 58 50 49
f 49 57 58
f 57 49 48
f 48 56 57
f 56 48 47
f 47 55 56
f 55 47 46
f 46 54 55
f 54 46 45
f 45 53 54
f 53 45 44
f 44 52 53
f 52 44 43
f 43 51 52
f 51 43 50
f 50 58 51
f 66 58 57
f 57 65 66
f 65 57 56
f 56 64 65
f 64 56 55
f 55 63 64
f 63 55 54
f 54 62 63
f 62 54 53
f 53 61 62
f 61 53 52
f 52 60 61
f 60 52 51
f 51 59 60
f 59 51 58
f 58 66 59
f 74 66 65
f 65 73 74
f 73 65 64
f 64 72 73
f 72 64 63
f 63 71 72
f 71 63 62
f 62 70 71
f 70 62 61
f 61 69 70
f 69 61 60
f 60 68 69
f 68 60 59
f 59 67 68
f 67 59 66
f 66 74 67
f 75 26 74
f 75 74 73
f 75 73 72
f 75 72 26
f 88 91 92
f 88 92 89
f 89 92 93
f 89 93 90
f 76 11 19
f 19 79 76
f 79 19 20
f 20 80 79
f 77 12 11
f 11 76 77
f 80 20 21
f 21 81 80
f 81 21 13
f 13 78 81
f 78 13 12
f 12 77 78
f 82 76 79
f 79 85 82
f 85 79 80
f 80 86 85
f 83 77 76
f 76 82 83
f 86 80 81
f 81 87 86
f 87 81 78
f 78 84 87
f 84 78 77
f 77 83 84
f 88 82 85
f 85 91 88
f 91 85 86
f 86 92 91
f 89 83 82
f 82 88 89
f 92 86 87
f 87 93 92
f 93 87 84
f 84 90 93
f 90 84 83
f 83 89 90

