# https://github.com/mikedh/trimesh

o m13.off
v 0.19129600 0.13708900 0.48346200
v 0.19129600 0.14995200 0.47427500
v 0.19313300 0.16281400 0.48070600
v 0.19313300 0.16557100 0.49724400
v 0.19313300 0.16281400 0.52021300
v 0.19221500 0.14995200 0.52756300
v 0.19313300 0.13617000 0.52021300
v 0.19129600 0.13249500 0.50000000
v 0.23907200 0.13617000 0.48254400
v 0.23907200 0.14903300 0.47519300
v 0.23907200 0.16281400 0.48254400
v 0.23907200 0.16465200 0.49908100
v 0.23907200 0.16281400 0.51837500
v 0.23907200 0.14903300 0.52572500
v 0.23907200 0.13617000 0.51837500
v 0.23723400 0.13341400 0.50000000
v 0.32911000 0.12606400 0.48162500
v 0.32819100 0.14168300 0.47151800
v 0.32911000 0.15638300 0.48162500
v 0.32911000 0.16281400 0.49724400
v 0.32911000 0.15638300 0.51194400
v 0.32911000 0.14168300 0.52205000
v 0.32911000 0.12422600 0.51194400
v 0.32819100 0.11228200 0.49632500
v 0.36034800 0.12330800 0.48162500
v 0.36034800 0.13617000 0.47243700
v 0.36034800 0.14903300 0.48162500
v 0.36034800 0.15454500 0.49724400
v 0.36034800 0.14903300 0.51286300
v 0.36126700 0.13617000 0.52296900
v 0.36126700 0.12055100 0.51378100
v 0.36310400 0.10768900 0.49816200
v 0.38883000 0.11503900 0.48254400
v 0.38883000 0.12882000 0.47335600
v 0.38883000 0.14260200 0.48254400
v 0.38883000 0.14811400 0.49632500
v 0.38883000 0.14260200 0.51102500
v 0.38974900 0.12790100 0.52021300
v 0.38974900 0.11136400 0.51194400
v 0.38791100 0.10033800 0.49724400
v 0.42006800 0.10677000 0.48346200
v 0.42006800 0.11963200 0.47611200
v 0.42006800 0.13249500 0.48438100
v 0.42006800 0.13708900 0.49632500
v 0.42006800 0.13249500 0.50826900
v 0.42006800 0.11963200 0.51653800
v 0.42006800 0.10493200 0.50918800
v 0.41914900 0.09482590 0.49632500
v 0.43476800 0.10493200 0.48530000
v 0.43476800 0.11503900 0.47886800
v 0.43476800 0.12514500 0.48530000
v 0.43476800 0.12973900 0.49632500
v 0.43476800 0.12514500 0.50643100
v 0.43568700 0.11412000 0.51378100
v 0.43476800 0.10493200 0.50643100
v 0.43476800 0.09574470 0.49632500
v 0.44946800 0.10217600 0.48713700
v 0.44946800 0.10952600 0.48346200
v 0.44946800 0.11779500 0.48713700
v 0.45038700 0.12238900 0.49448700
v 0.44946800 0.11779500 0.50551300
v 0.44946800 0.10952600 0.50918800
v 0.44946800 0.10217600 0.50551300
v 0.44946800 0.09850100 0.49632500
v 0.47060000 0.10033800 0.49632500
v 0.47060000 0.10033800 0.49724400
v 0.47060000 0.09941970 0.49632500
v 0.19129600 0.15087000 0.50091900
v 0.47151800 0.10033800 0.49632500
v 0.16281400 0.13800800 0.48254400
v 0.16281400 0.14903300 0.47519300
v 0.16281400 0.15913900 0.48254400
v 0.16281400 0.16373300 0.50000000
v 0.16281400 0.15913900 0.51745600
v 0.16281400 0.14903300 0.52480700
v 0.16281400 0.13800800 0.51745600
v 0.16281400 0.13341400 0.50000000
v 0.18210800 0.13617000 0.47978700
v 0.18394600 0.14903300 0.47335600
v 0.18394600 0.16281400 0.47978700
v 0.18302700 0.17108300 0.49908100
v 0.18394600 0.16281400 0.52113200
v 0.18394600 0.14903300 0.52940000
v 0.18302700 0.13617000 0.52113200
v 0.18302700 0.13341400 0.50000000
v 0.20232100 0.13617000 0.47427500
v 0.20415900 0.14903300 0.47243700
v 0.20324000 0.16557100 0.47795000
v 0.20232100 0.17292100 0.50000000
v 0.20140200 0.16557100 0.52113200
v 0.20048400 0.14811400 0.52848200
v 0.20140200 0.13341400 0.52113200
v 0.20140200 0.12238900 0.50000000
v 0.22161500 0.13617000 0.48897500
v 0.22253400 0.14903300 0.48438100
v 0.22069600 0.16373300 0.48070600
v 0.22161500 0.17108300 0.50000000
v 0.22161500 0.16373300 0.52021300
v 0.21242700 0.14995200 0.52664400
v 0.22161500 0.13617000 0.51194400
v 0.22161500 0.13341400 0.50000000
v 0.23631500 0.13800800 0.48805600
v 0.23631500 0.14903300 0.48346200
v 0.23631500 0.15913900 0.48805600
v 0.24090900 0.16465200 0.50000000
v 0.25560900 0.15270800 0.51378100
v 0.23723400 0.14995200 0.51561900
v 0.23723400 0.13525100 0.51194400
v 0.23631500 0.13341400 0.50000000
v 0.14811400 0.14903300 0.50091900
v 0.24182800 0.14903300 0.50000000
v 0.19497100 0.10768900 0.51286300
v 0.19221500 0.09574470 0.51929400
v 0.19129600 0.09574470 0.51378100
v 0.18854000 0.09850100 0.50735000
v 0.19405200 0.10309500 0.50735000
v 0.22620900 0.11412000 0.55053200
v 0.22345300 0.10952600 0.55145100
v 0.22529000 0.10768900 0.55328800
v 0.22804600 0.10768900 0.55145100
v 0.22804600 0.10952600 0.54777600
v 0.23447800 0.08655710 0.60014500
v 0.23172100 0.08196320 0.60014500
v 0.23264000 0.07920700 0.59830800
v 0.23447800 0.07920700 0.59647000
v 0.23447800 0.08288200 0.59738900
v 0.24274700 0.04429400 0.61943900
v 0.23999000 0.04245650 0.61943900
v 0.23999000 0.04153770 0.61760200
v 0.24090900 0.04061900 0.61668300
v 0.24182800 0.04337520 0.61852000
v 0.18854000 0.10125700 0.51194400
v 0.24366500 0.03970020 0.61852000
v 0.19680900 0.12238900 0.51286300
v 0.19589000 0.13249500 0.51010600
v 0.19589000 0.13341400 0.50826900
v 0.19313300 0.13249500 0.50735000
v 0.19497100 0.13249500 0.50275600
v 0.19772700 0.13249500 0.50643100
v 0.19864600 0.12698300 0.51102500
v 0.19589000 0.13892700 0.51286300
v 0.19680900 0.12973900 0.50918800
v 0.19129600 0.13065800 0.50918800
v 0.19497100 0.12973900 0.50275600
v 0.20232100 0.13065800 0.50459400
v 0.19864600 0.13525100 0.51286300
v 0.19497100 0.13341400 0.51286300
v 0.19589000 0.13433300 0.51010600
v 0.19313300 0.13433300 0.51010600
v 0.19497100 0.13525100 0.50735000
v 0.19772700 0.13617000 0.50918800
v 0.19221500 0.10952600 0.49265000
v 0.19497100 0.10585100 0.49356900
v 0.19405200 0.09941970 0.50000000
v 0.18945800 0.09941970 0.50000000
v 0.18762100 0.10677000 0.49448700
v 0.20691500 0.13249500 0.43384900
v 0.20967100 0.12882000 0.43293000
v 0.20783400 0.12514500 0.43293000
v 0.20507700 0.12514500 0.43293000
v 0.20415900 0.12882000 0.43293000
v 0.21242700 0.11595700 0.39342400
v 0.21518400 0.11228200 0.39434200
v 0.21885900 0.10952600 0.39342400
v 0.21610300 0.10952600 0.39342400
v 0.21059000 0.11136400 0.39434200
v 0.23264000 0.07185690 0.34932300
v 0.23264000 0.07277560 0.35024200
v 0.23264000 0.07185690 0.35024200
v 0.19221500 0.10309500 0.49816200
v 0.19129600 0.12147000 0.48805600
v 0.19405200 0.12790100 0.48713700
v 0.19037700 0.12055100 0.49081200
v 0.19497100 0.12606400 0.49632500
v 0.19037700 0.12698300 0.49632500
v 0.18854000 0.12055100 0.49081200
v 0.19497100 0.13433300 0.48621900
v 0.19864600 0.13249500 0.48989400
v 0.19313300 0.13157600 0.49265000
v 0.19497100 0.13157600 0.49908100
v 0.18945800 0.13157600 0.50000000
v 0.19037700 0.13341400 0.49173100
v 0.16373300 0.14627700 0.51102500
v 0.19221500 0.13708900 0.51653800
v 0.20140200 0.14168300 0.54961300
v 0.17108300 0.14719500 0.56615100
v 0.24458400 0.13157600 0.51470000
v 0.28317200 0.12698300 0.57258200
v 0.29603500 0.12606400 0.51378100
v 0.31900400 0.11595700 0.57625700
v 0.34564800 0.11228200 0.50826900
v 0.35391700 0.10952600 0.57625700
v 0.40996100 0.09666340 0.48897500
v 0.39801700 0.09206960 0.59279500
v 0.51194400 0.05715670 0.50275600
v 0.55328800 0.03510640 0.54410100
v 0.22253400 0.13249500 0.64516400
v 0.17567700 0.14627700 0.61852000
v 0.30522200 0.11595700 0.67732100
v 0.33554200 0.10401400 0.66170200
v 0.36402300 0.09666340 0.65067700
v 0.39066700 0.08931330 0.63965200
v 0.54226300 0.02500000 0.64792100
v 0.24458400 0.12882000 0.71590900
v 0.18394600 0.14260200 0.66721500
v 0.30338500 0.10952600 0.73244700
v 0.34289200 0.09941970 0.70947800
v 0.36953600 0.08931330 0.69569600
v 0.43568700 0.06634430 0.72785300
v 0.50459400 0.02959380 0.69937100
v 0.26847200 0.11136400 0.80502900
v 0.19864600 0.13433300 0.72969100
v 0.30614100 0.09023210 0.80594800
v 0.34197300 0.09115090 0.76736000
v 0.36586100 0.08380080 0.74806600
v 0.42925500 0.04061900 0.75357800
v 0.46876200 0.03878140 0.74622800
v 0.27857800 0.09758220 0.85280500
v 0.21977800 0.12330800 0.79584100
v 0.30522200 0.08380080 0.85280500
v 0.33554200 0.08012570 0.84821100
v 0.35851100 0.08104450 0.81789200
v 0.39709900 0.07001930 0.78941000
v 0.45314300 0.04245650 0.78757300
v 0.29879100 0.07369440 0.95386800
v 0.25009700 0.10401400 0.87761100
v 0.34564800 0.05072530 0.97500000
v 0.37780500 0.04613150 0.96489400
v 0.40812400 0.04245650 0.93825000
v 0.42466200 0.02867500 0.90058000
v 0.43660500 0.04429400 0.83075400
v 0.11320100 0.14260200 0.47611200
v 0.11963200 0.16373300 0.47335600
v 0.12238900 0.16924600 0.50000000
v 0.11871400 0.16373300 0.52756300
v 0.11503900 0.14627700 0.52296900
v 0.11320100 0.14352000 0.49908100
v 0.13249500 0.14168300 0.46600600
v 0.13892700 0.16648900 0.45957400
v 0.13892700 0.17751500 0.49908100
v 0.13800800 0.16832700 0.53950700
v 0.13341400 0.14260200 0.53675000
v 0.13433300 0.13433300 0.49908100
v 0.14168300 0.14076400 0.46141200
v 0.15178900 0.16373300 0.46049300
v 0.14995200 0.17567700 0.49908100
v 0.14811400 0.16373300 0.54226300
v 0.14443900 0.14076400 0.53766900
v 0.14627700 0.13433300 0.50000000
v 0.15546400 0.14443900 0.46508700
v 0.16465200 0.16465200 0.46600600
v 0.16465200 0.17016400 0.50000000
v 0.16465200 0.16189600 0.53491300
v 0.16373300 0.14076400 0.53307500
v 0.16005800 0.13433300 0.50000000
v 0.17108300 0.14076400 0.47978700
v 0.17475800 0.15638300 0.47795000
v 0.17475800 0.16189600 0.50551300
v 0.17200200 0.15362700 0.52296900
v 0.17016400 0.13984500 0.52021300
v 0.16832700 0.13341400 0.50000000
v 0.10860700 0.16189600 0.50000000
v 0.18854000 0.14535800 0.49816200
v 0.11779500 0.16648900 0.47703100
v 0.11779500 0.16832700 0.49632500
v 0.11687600 0.16648900 0.49724400
v 0.11779500 0.16832700 0.50275600
v 0.11320100 0.16924600 0.52021300
v 0.11503900 0.16740800 0.50275600
v 0.04061900 0.16281400 0.55972000
v 0.12790100 0.14903300 0.50826900
v 0.04061900 0.16648900 0.55972000
v 0.12790100 0.15270800 0.50826900
v 0.03970020 0.16648900 0.55788200
v 0.12698300 0.15270800 0.50643100
v 0.03970020 0.16281400 0.55788200
v 0.12698300 0.14903300 0.50643100
v 0.02959380 0.16373300 0.56707000
v 0.03143130 0.16373300 0.56890700
v 0.03051260 0.16648900 0.56798800
v 0.02959380 0.16648900 0.56615100
v 0.03051260 0.16281400 0.57350100
v 0.03143130 0.16373300 0.57533800
v 0.03051260 0.16557100 0.57442000
v 0.03051260 0.16557100 0.57350100
v 0.04245650 0.15730200 0.43568700
v 0.13249500 0.14903300 0.48438100
v 0.04245650 0.16097700 0.43568700
v 0.13157600 0.15270800 0.48438100
v 0.04337520 0.16097700 0.43384900
v 0.13341400 0.15270800 0.48254400
v 0.04337520 0.15730200 0.43384900
v 0.13341400 0.14903300 0.48254400
v 0.03143130 0.15730200 0.43017400
v 0.03051260 0.15822000 0.43201200
v 0.03051260 0.16097700 0.43109300
v 0.03143130 0.16097700 0.42925500
v 0.02500000 0.15730200 0.43384900
v 0.02500000 0.15730200 0.43476800
v 0.02500000 0.15913900 0.43476800
v 0.02500000 0.15913900 0.43384900
v 0.16005800 0.11963200 0.51929400
v 0.15638300 0.11779500 0.51470000
v 0.16281400 0.11320100 0.51102500
v 0.16832700 0.11320100 0.51102500
v 0.16557100 0.11687600 0.51653800
v 0.11320100 0.11963200 0.55972000
v 0.11228200 0.11412000 0.55788200
v 0.11503900 0.11136400 0.55880100
v 0.11779500 0.11228200 0.56063800
v 0.11687600 0.11595700 0.56063800
v 0.09850100 0.07920700 0.59095700
v 0.09758220 0.07920700 0.58820100
v 0.09850100 0.07920700 0.58728200
v 0.09941970 0.07645070 0.58728200
v 0.09850100 0.07828820 0.58912000
v 0.09115090 0.04613150 0.59830800
v 0.09023210 0.04705030 0.59738900
v 0.09023210 0.04705030 0.59647000
v 0.09115090 0.04613150 0.59738900
v 0.16373300 0.11412000 0.51194400
v 0.09023210 0.04613150 0.59738900
v 0.15730200 0.13525100 0.51929400
v 0.15638300 0.13617000 0.51653800
v 0.15822000 0.13708900 0.51653800
v 0.15822000 0.13617000 0.51378100
v 0.16281400 0.13708900 0.51378100
v 0.16097700 0.13708900 0.51745600
v 0.15822000 0.13984500 0.51929400
v 0.15178900 0.14168300 0.51745600
v 0.15822000 0.14260200 0.51653800
v 0.15638300 0.14260200 0.51102500
v 0.16465200 0.14352000 0.51286300
v 0.16373300 0.14535800 0.52021300
v 0.15454500 0.14719500 0.51929400
v 0.15362700 0.14535800 0.51653800
v 0.15546400 0.14719500 0.51561900
v 0.15546400 0.14627700 0.51286300
v 0.15822000 0.14811400 0.51378100
v 0.15730200 0.14903300 0.51745600
v 0.16005800 0.11320100 0.48254400
v 0.16557100 0.11228200 0.47886800
v 0.17016400 0.10860700 0.47978700
v 0.17200200 0.10768900 0.48438100
v 0.16557100 0.11044500 0.48530000
v 0.10768900 0.11687600 0.44487400
v 0.11044500 0.11320100 0.44211800
v 0.11136400 0.10860700 0.44395600
v 0.11136400 0.10860700 0.44763100
v 0.10952600 0.11320100 0.44763100
v 0.08471950 0.08563830 0.42649900
v 0.08747580 0.08288200 0.42466200
v 0.08931330 0.07920700 0.42649900
v 0.08839460 0.07920700 0.42925500
v 0.08747580 0.08196320 0.42925500
v 0.07001930 0.04980660 0.41914900
v 0.07277560 0.04888780 0.41914900
v 0.07277560 0.04888780 0.42098600
v 0.07277560 0.04980660 0.42282400
v 0.07185690 0.04980660 0.42190500
v 0.16924600 0.10952600 0.48162500
v 0.06726310 0.03970020 0.42098600
v 0.15730200 0.12882000 0.48438100
v 0.15822000 0.12973900 0.48162500
v 0.15913900 0.13157600 0.48438100
v 0.16189600 0.13065800 0.48254400
v 0.16373300 0.13065800 0.48713700
v 0.15913900 0.12973900 0.48621900
v 0.15638300 0.13341400 0.48621900
v 0.15546400 0.13617000 0.48070600
v 0.15822000 0.13525100 0.48530000
v 0.16373300 0.13708900 0.48989400
v 0.15730200 0.13617000 0.49265000
v 0.15362700 0.14076400 0.48438100
v 0.15638300 0.13984500 0.48162500
v 0.15730200 0.14076400 0.48438100
v 0.16005800 0.14076400 0.48346200
v 0.16005800 0.14168300 0.48621900
v 0.15638300 0.14168300 0.48621900
v 0.16924600 0.15362700 0.47795000
v 0.17292100 0.14719500 0.41914900
v 0.21426500 0.13892700 0.39526100
v 0.18210800 0.14995200 0.50918800
v 0.27214700 0.12422600 0.38974900
v 0.23264000 0.13433300 0.48346200
v 0.32911000 0.11044500 0.39801700
v 0.29879100 0.12698300 0.47795000
v 0.37504800 0.09206960 0.39526100
v 0.38331700 0.09758220 0.48805600
v 0.43568700 0.07920700 0.40077400
v 0.42098600 0.08563830 0.49724400
v 0.55236900 0.03418760 0.45130600
v 0.51102500 0.05807540 0.48989400
v 0.17935200 0.14535800 0.36586100
v 0.24825900 0.12330800 0.31165400
v 0.29144100 0.11412000 0.31165400
v 0.32635400 0.10125700 0.31992300
v 0.36034800 0.09298840 0.32176000
v 0.43017400 0.06450680 0.32727300
v 0.53491300 0.02775630 0.34381000
v 0.18762100 0.14260200 0.31808500
v 0.25285300 0.12055100 0.24642200
v 0.29327900 0.09941970 0.24550300
v 0.33370400 0.08747580 0.23723400
v 0.37229200 0.07369440 0.26112200
v 0.43293000 0.05531910 0.28317200
v 0.46141200 0.04337520 0.27766000
v 0.19772700 0.13525100 0.25744700
v 0.23355900 0.11687600 0.19313300
v 0.30246600 0.09390720 0.18302700
v 0.33186700 0.08288200 0.19956500
v 0.37045500 0.06450680 0.22069600
v 0.41455500 0.04796910 0.22529000
v 0.42282400 0.04153770 0.22804600
v 0.22345300 0.11136400 0.15638300
v 0.26847200 0.09298840 0.12422600
v 0.30614100 0.08104450 0.13341400
v 0.33094800 0.07185690 0.13525100
v 0.36218600 0.06175050 0.14168300
v 0.38699200 0.05440040 0.16189600
v 0.42190500 0.04245650 0.17383900
v 0.26112200 0.07828820 0.05348160
v 0.30889700 0.05256290 0.02500000
v 0.34105400 0.04888780 0.03694390
v 0.37596700 0.04888780 0.07001930
v 0.40536700 0.03878140 0.10585100
v 0.41455500 0.04245650 0.14168300
v 0.11044500 0.16832700 0.46600600
v 0.11595700 0.17475800 0.46600600
v 0.11687600 0.17751500 0.47703100
v 0.11320100 0.17475800 0.48805600
v 0.10768900 0.16832700 0.48713700
v 0.10585100 0.16373300 0.47611200
v 0.11412000 0.16373300 0.46325000
v 0.12147000 0.17200200 0.46416800
v 0.12238900 0.17475800 0.47795000
v 0.11779500 0.17200200 0.49081200
v 0.11044500 0.16281400 0.48989400
v 0.10860700 0.15913900 0.47611200
v 0.11963200 0.15822000 0.46141200
v 0.12790100 0.16832700 0.46233100
v 0.12973900 0.17200200 0.47886800
v 0.12422600 0.16832700 0.49448700
v 0.11595700 0.15730200 0.49265000
v 0.11320100 0.15270800 0.47611200
v 0.12606400 0.15362700 0.46416800
v 0.13249500 0.16281400 0.46508700
v 0.13433300 0.16740800 0.47978700
v 0.12973900 0.16281400 0.49265000
v 0.12238900 0.15362700 0.49173100
v 0.12055100 0.14903300 0.47703100
v 0.13065800 0.15270800 0.47060000
v 0.13525100 0.15730200 0.47151800
v 0.13800800 0.16281400 0.47978700
v 0.13341400 0.15822000 0.48989400
v 0.12882000 0.15178900 0.48621900
v 0.12790100 0.14995200 0.47795000
v 0.10860700 0.17383900 0.47703100
v 0.13341400 0.15362700 0.47886800
v 0.10860700 0.16740800 0.51286300
v 0.11136400 0.17383900 0.51378100
v 0.11687600 0.17567700 0.52572500
v 0.11044500 0.17200200 0.53307500
v 0.10677000 0.16465200 0.53215700
v 0.10493200 0.16097700 0.52113200
v 0.11228200 0.16281400 0.50826900
v 0.11779500 0.17383900 0.50918800
v 0.11871400 0.17751500 0.52388800
v 0.11595700 0.17108300 0.53675000
v 0.11044500 0.16097700 0.53583200
v 0.10952600 0.15638300 0.52113200
v 0.11963200 0.15913900 0.50643100
v 0.12514500 0.17108300 0.50826900
v 0.12698300 0.17567700 0.52480700
v 0.12238900 0.16832700 0.53950700
v 0.11503900 0.15913900 0.53950700
v 0.11503900 0.15178900 0.52113200
v 0.12606400 0.15730200 0.50735000
v 0.13157600 0.16648900 0.51010600
v 0.13249500 0.17016400 0.52480700
v 0.12882000 0.16373300 0.53766900
v 0.12422600 0.15362700 0.53583200
v 0.12238900 0.14995200 0.52205000
v 0.13157600 0.15546400 0.51470000
v 0.13433300 0.16189600 0.51561900
v 0.13617000 0.16557100 0.52480700
v 0.13433300 0.16097700 0.53399400
v 0.13065800 0.15454500 0.53031900
v 0.13157600 0.15270800 0.52021300
v 0.10585100 0.17108300 0.52388800
v 0.13433300 0.15730200 0.52296900
f 1 2 10
f 2 3 11
f 3 4 12
f 4 5 13
f 5 6 14
f 6 7 15
f 7 8 16
f 8 1 9
f 9 10 18
f 10 11 19
f 11 12 20
f 12 13 21
f 13 14 22
f 14 15 23
f 15 16 24
f 16 9 17
f 17 18 26
f 18 19 27
f 19 20 28
f 20 21 29
f 21 22 30
f 22 23 31
f 23 24 32
f 24 17 25
f 25 26 34
f 26 27 35
f 27 28 36
f 28 29 37
f 29 30 38
f 30 31 39
f 31 32 40
f 32 25 33
f 33 34 42
f 34 35 43
f 35 36 44
f 36 37 45
f 37 38 46
f 38 39 47
f 39 40 48
f 40 33 41
f 41 42 50
f 42 43 51
f 43 44 52
f 44 45 53
f 45 46 54
f 46 47 55
f 47 48 56
f 48 41 49
f 49 50 58
f 50 51 59
f 51 52 60
f 52 53 61
f 53 54 62
f 54 55 63
f 55 56 64
f 56 49 57
f 57 58 65
f 58 59 65
f 59 60 65
f 60 61 66
f 61 62 66
f 62 63 66
f 63 64 67
f 64 57 65
f 2 1 68
f 3 2 68
f 4 3 68
f 5 4 68
f 6 5 68
f 7 6 68
f 8 7 68
f 1 8 68
f 65 66 69
f 66 67 69
f 67 65 69
f 70 71 79
f 71 72 80
f 72 73 81
f 73 74 82
f 74 75 83
f 75 76 84
f 76 77 85
f 77 70 78
f 78 79 87
f 79 80 88
f 80 81 89
f 81 82 90
f 82 83 91
f 83 84 92
f 84 85 93
f 85 78 86
f 86 87 95
f 87 88 96
f 88 89 97
f 89 90 98
f 90 91 99
f 91 92 100
f 92 93 101
f 93 86 94
f 94 95 103
f 95 96 104
f 96 97 105
f 97 98 106
f 98 99 107
f 99 100 108
f 100 101 109
f 101 94 102
f 71 70 110
f 72 71 110
f 73 72 110
f 74 73 110
f 75 74 110
f 76 75 110
f 77 76 110
f 70 77 110
f 102 103 111
f 103 104 111
f 104 105 111
f 105 106 111
f 106 107 111
f 107 108 111
f 108 109 111
f 109 102 111
f 112 113 118
f 113 114 119
f 114 115 120
f 115 116 121
f 116 112 117
f 117 118 123
f 118 119 124
f 119 120 125
f 120 121 126
f 121 117 122
f 122 123 128
f 123 124 129
f 124 125 130
f 125 126 131
f 126 122 127
f 147 146 148
f 149 147 148
f 150 149 148
f 151 150 148
f 146 151 148
f 127 128 133
f 128 129 133
f 129 130 133
f 130 131 133
f 131 127 133
f 113 112 134
f 112 132 136
f 132 113 135
f 114 113 135
f 113 132 136
f 132 114 137
f 115 114 137
f 114 132 136
f 132 115 138
f 116 115 138
f 115 132 136
f 132 116 139
f 112 116 139
f 116 132 136
f 132 112 134
f 135 134 140
f 134 136 142
f 136 135 141
f 137 135 141
f 135 136 142
f 136 137 143
f 138 137 143
f 137 136 142
f 136 138 144
f 139 138 144
f 138 136 142
f 136 139 145
f 134 139 145
f 139 136 142
f 136 134 140
f 141 140 146
f 140 142 148
f 142 141 147
f 143 141 147
f 141 142 148
f 142 143 149
f 144 143 149
f 143 142 148
f 142 144 150
f 145 144 150
f 144 142 148
f 142 145 151
f 140 145 151
f 145 142 148
f 142 140 146
f 152 153 158
f 153 154 159
f 154 155 160
f 155 156 161
f 156 152 157
f 157 158 163
f 158 159 164
f 159 160 165
f 160 161 166
f 161 157 162
f 162 163 167
f 163 164 168
f 164 165 168
f 165 166 169
f 166 162 167
f 178 177 179
f 180 178 179
f 181 180 179
f 182 181 179
f 177 182 179
f 167 168 169
f 153 152 171
f 152 170 173
f 170 153 172
f 154 153 172
f 153 170 173
f 170 154 174
f 155 154 174
f 154 170 173
f 170 155 175
f 156 155 175
f 155 170 173
f 170 156 176
f 152 156 176
f 156 170 173
f 170 152 171
f 172 171 177
f 171 173 179
f 173 172 178
f 174 172 178
f 172 173 179
f 173 174 180
f 175 174 180
f 174 173 179
f 173 175 181
f 176 175 181
f 175 173 179
f 173 176 182
f 171 176 182
f 176 173 179
f 173 171 177
f 178 177 177
f 177 179 179
f 179 178 178
f 180 178 178
f 178 179 179
f 179 180 180
f 181 180 180
f 180 179 179
f 179 181 181
f 182 181 181
f 181 179 179
f 179 182 182
f 177 182 182
f 182 179 179
f 179 177 177
f 183 186 185
f 184 185 188
f 187 188 190
f 189 190 192
f 191 192 194
f 193 194 196
f 186 198 197
f 185 197 199
f 188 199 200
f 190 200 201
f 192 201 202
f 194 202 203
f 198 205 204
f 197 204 206
f 199 206 207
f 200 207 208
f 201 208 209
f 202 209 210
f 205 212 211
f 204 211 213
f 206 213 214
f 207 214 215
f 208 215 216
f 209 216 217
f 212 219 218
f 211 218 220
f 213 220 221
f 214 221 222
f 215 222 223
f 216 223 224
f 219 226 225
f 218 225 227
f 220 227 228
f 221 228 229
f 222 229 230
f 223 230 231
f 232 233 239
f 233 234 240
f 234 235 241
f 235 236 242
f 236 237 243
f 237 232 238
f 238 239 245
f 239 240 246
f 240 241 247
f 241 242 248
f 242 243 249
f 243 238 244
f 244 245 251
f 245 246 252
f 246 247 253
f 247 248 254
f 248 249 255
f 249 244 250
f 250 251 257
f 251 252 258
f 252 253 259
f 253 254 260
f 254 255 261
f 255 250 256
f 233 232 262
f 265 264 266
f 268 267 269
f 236 235 262
f 237 236 262
f 232 237 262
f 256 257 263
f 257 258 263
f 258 259 263
f 259 260 263
f 260 261 263
f 261 256 263
f 234 233 264
f 233 262 266
f 262 234 265
f 235 234 267
f 234 262 269
f 262 235 268
f 270 271 273
f 272 273 275
f 274 275 277
f 276 277 271
f 271 277 275
f 282 283 284
f 276 270 279
f 270 272 280
f 272 274 281
f 274 276 278
f 278 279 283
f 279 280 284
f 280 281 285
f 281 278 282
f 286 287 289
f 288 289 291
f 290 291 293
f 292 293 287
f 287 293 291
f 298 299 300
f 292 286 295
f 286 288 296
f 288 290 297
f 290 292 294
f 294 295 299
f 295 296 300
f 296 297 301
f 297 294 298
f 302 303 308
f 303 304 309
f 304 305 310
f 305 306 311
f 306 302 307
f 307 308 313
f 308 309 314
f 309 310 315
f 310 311 316
f 311 307 312
f 312 313 317
f 313 314 318
f 314 315 319
f 315 316 320
f 316 312 317
f 336 335 337
f 338 336 337
f 339 338 337
f 340 339 337
f 335 340 337
f 317 318 322
f 318 319 322
f 319 320 322
f 320 317 322
f 303 302 323
f 302 321 325
f 321 303 324
f 304 303 324
f 303 321 325
f 321 304 326
f 305 304 326
f 304 321 325
f 321 305 327
f 306 305 327
f 305 321 325
f 321 306 328
f 302 306 328
f 306 321 325
f 321 302 323
f 324 323 329
f 323 325 331
f 325 324 330
f 326 324 330
f 324 325 331
f 325 326 332
f 327 326 332
f 326 325 331
f 325 327 333
f 328 327 333
f 327 325 331
f 325 328 334
f 323 328 334
f 328 325 331
f 325 323 329
f 330 329 335
f 329 331 337
f 331 330 336
f 332 330 336
f 330 331 337
f 331 332 338
f 333 332 338
f 332 331 337
f 331 333 339
f 334 333 339
f 333 331 337
f 331 334 340
f 329 334 340
f 334 331 337
f 331 329 335
f 341 342 347
f 342 343 348
f 343 344 349
f 344 345 350
f 345 341 346
f 346 347 352
f 347 348 353
f 348 349 354
f 349 350 355
f 350 346 351
f 351 352 357
f 352 353 358
f 353 354 359
f 354 355 360
f 355 351 356
f 375 374 376
f 377 375 376
f 378 377 376
f 379 378 376
f 374 379 376
f 356 357 362
f 357 358 362
f 358 359 362
f 359 360 362
f 360 356 362
f 342 341 363
f 341 361 365
f 361 342 364
f 343 342 364
f 342 361 365
f 361 343 366
f 344 343 366
f 343 361 365
f 361 344 367
f 345 344 367
f 344 361 365
f 361 345 368
f 341 345 368
f 345 361 365
f 361 341 363
f 364 363 369
f 363 365 371
f 365 364 370
f 366 364 370
f 364 365 371
f 365 366 70
f 367 366 70
f 366 365 371
f 365 367 372
f 368 367 372
f 367 365 371
f 365 368 373
f 363 368 373
f 368 365 371
f 365 363 369
f 370 369 374
f 369 371 376
f 371 370 375
f 70 370 375
f 370 371 376
f 371 70 377
f 372 70 377
f 70 371 376
f 371 372 378
f 373 372 378
f 372 371 376
f 371 373 379
f 369 373 379
f 373 371 376
f 371 369 374
f 380 383 382
f 383 385 384
f 385 387 386
f 387 389 388
f 389 391 390
f 391 393 392
f 381 382 395
f 382 384 396
f 384 386 397
f 386 388 398
f 388 390 399
f 390 392 400
f 394 395 402
f 395 396 403
f 396 397 404
f 397 398 405
f 398 399 406
f 399 400 407
f 401 402 409
f 402 403 410
f 403 404 411
f 404 405 412
f 405 406 413
f 406 407 414
f 408 409 416
f 409 410 417
f 410 411 418
f 411 412 419
f 412 413 420
f 413 414 421
f 415 416 422
f 416 417 423
f 417 418 424
f 418 419 425
f 419 420 426
f 420 421 427
f 428 429 435
f 429 430 436
f 430 431 437
f 431 432 438
f 432 433 439
f 433 428 434
f 434 435 441
f 435 436 442
f 436 437 443
f 437 438 444
f 438 439 445
f 439 434 440
f 440 441 447
f 441 442 448
f 442 443 449
f 443 444 450
f 444 445 451
f 445 440 446
f 446 447 453
f 447 448 454
f 448 449 455
f 449 450 456
f 450 451 457
f 451 446 452
f 429 428 458
f 430 429 458
f 431 430 458
f 432 431 458
f 433 432 458
f 428 433 458
f 452 453 459
f 453 454 459
f 454 455 459
f 455 456 459
f 456 457 459
f 457 452 459
f 460 461 467
f 461 462 468
f 462 463 469
f 463 464 470
f 464 465 471
f 465 460 466
f 466 467 473
f 467 468 474
f 468 469 475
f 469 470 476
f 470 471 477
f 471 466 472
f 472 473 479
f 473 474 480
f 474 475 481
f 475 476 482
f 476 477 483
f 477 472 478
f 478 479 485
f 479 480 486
f 480 481 487
f 481 482 488
f 482 483 489
f 483 478 484
f 461 460 490
f 462 461 490
f 463 462 490
f 464 463 490
f 465 464 490
f 460 465 490
f 484 485 491
f 485 486 491
f 486 487 491
f 487 488 491
f 488 489 491
f 489 484 491
f 1 10 9
f 2 11 10
f 3 12 11
f 4 13 12
f 5 14 13
f 6 15 14
f 7 16 15
f 8 9 16
f 9 18 17
f 10 19 18
f 11 20 19
f 12 21 20
f 13 22 21
f 14 23 22
f 15 24 23
f 16 17 24
f 17 26 25
f 18 27 26
f 19 28 27
f 20 29 28
f 21 30 29
f 22 31 30
f 23 32 31
f 24 25 32
f 25 34 33
f 26 35 34
f 27 36 35
f 28 37 36
f 29 38 37
f 30 39 38
f 31 40 39
f 32 33 40
f 33 42 41
f 34 43 42
f 35 44 43
f 36 45 44
f 37 46 45
f 38 47 46
f 39 48 47
f 40 41 48
f 41 50 49
f 42 51 50
f 43 52 51
f 44 53 52
f 45 54 53
f 46 55 54
f 47 56 55
f 48 49 56
f 49 58 57
f 50 59 58
f 51 60 59
f 52 61 60
f 53 62 61
f 54 63 62
f 55 64 63
f 56 57 64
f 57 65 65
f 58 65 65
f 59 65 65
f 60 66 65
f 61 66 66
f 62 66 66
f 63 67 66
f 64 65 67
f 70 79 78
f 71 80 79
f 72 81 80
f 73 82 81
f 74 83 82
f 75 84 83
f 76 85 84
f 77 78 85
f 78 87 86
f 79 88 87
f 80 89 88
f 81 90 89
f 82 91 90
f 83 92 91
f 84 93 92
f 85 86 93
f 86 95 94
f 87 96 95
f 88 97 96
f 89 98 97
f 90 99 98
f 91 100 99
f 92 101 100
f 93 94 101
f 94 103 102
f 95 104 103
f 96 105 104
f 97 106 105
f 98 107 106
f 99 108 107
f 100 109 108
f 101 102 109
f 112 118 117
f 113 119 118
f 114 120 119
f 115 121 120
f 116 117 121
f 117 123 122
f 118 124 123
f 119 125 124
f 120 126 125
f 121 122 126
f 122 128 127
f 123 129 128
f 124 130 129
f 125 131 130
f 126 127 131
f 113 134 135
f 112 136 134
f 132 135 136
f 114 135 137
f 113 136 135
f 132 137 136
f 115 137 138
f 114 136 137
f 132 138 136
f 116 138 139
f 115 136 138
f 132 139 136
f 112 139 134
f 116 136 139
f 132 134 136
f 135 140 141
f 134 142 140
f 136 141 142
f 137 141 143
f 135 142 141
f 136 143 142
f 138 143 144
f 137 142 143
f 136 144 142
f 139 144 145
f 138 142 144
f 136 145 142
f 134 145 140
f 139 142 145
f 136 140 142
f 141 146 147
f 140 148 146
f 142 147 148
f 143 147 149
f 141 148 147
f 142 149 148
f 144 149 150
f 143 148 149
f 142 150 148
f 145 150 151
f 144 148 150
f 142 151 148
f 140 151 146
f 145 148 151
f 142 146 148
f 152 158 157
f 153 159 158
f 154 160 159
f 155 161 160
f 156 157 161
f 157 163 162
f 158 164 163
f 159 165 164
f 160 166 165
f 161 162 166
f 162 167 167
f 163 168 167
f 164 168 168
f 165 169 168
f 166 167 169
f 153 171 172
f 152 173 171
f 170 172 173
f 154 172 174
f 153 173 172
f 170 174 173
f 155 174 175
f 154 173 174
f 170 175 173
f 156 175 176
f 155 173 175
f 170 176 173
f 152 176 171
f 156 173 176
f 170 171 173
f 172 177 178
f 171 179 177
f 173 178 179
f 174 178 180
f 172 179 178
f 173 180 179
f 175 180 181
f 174 179 180
f 173 181 179
f 176 181 182
f 175 179 181
f 173 182 179
f 171 182 177
f 176 179 182
f 173 177 179
f 178 177 178
f 177 179 177
f 179 178 179
f 180 178 180
f 178 179 178
f 179 180 179
f 181 180 181
f 180 179 180
f 179 181 179
f 182 181 182
f 181 179 181
f 179 182 179
f 177 182 177
f 182 179 182
f 179 177 179
f 183 185 184
f 184 188 187
f 187 190 189
f 189 192 191
f 191 194 193
f 193 196 195
f 186 197 185
f 185 199 188
f 188 200 190
f 190 201 192
f 192 202 194
f 194 203 196
f 198 204 197
f 197 206 199
f 199 207 200
f 200 208 201
f 201 209 202
f 202 210 203
f 205 211 204
f 204 213 206
f 206 214 207
f 207 215 208
f 208 216 209
f 209 217 210
f 212 218 211
f 211 220 213
f 213 221 214
f 214 222 215
f 215 223 216
f 216 224 217
f 219 225 218
f 218 227 220
f 220 228 221
f 221 229 222
f 222 230 223
f 223 231 224
f 232 239 238
f 233 240 239
f 234 241 240
f 235 242 241
f 236 243 242
f 237 238 243
f 238 245 244
f 239 246 245
f 240 247 246
f 241 248 247
f 242 249 248
f 243 244 249
f 244 251 250
f 245 252 251
f 246 253 252
f 247 254 253
f 248 255 254
f 249 250 255
f 250 257 256
f 251 258 257
f 252 259 258
f 253 260 259
f 254 261 260
f 255 256 261
f 234 264 265
f 233 266 264
f 262 265 266
f 235 267 268
f 234 269 267
f 262 268 269
f 270 273 272
f 272 275 274
f 274 277 276
f 276 271 270
f 271 275 273
f 282 284 285
f 276 279 278
f 270 280 279
f 272 281 280
f 274 278 281
f 278 283 282
f 279 284 283
f 280 285 284
f 281 282 285
f 286 289 288
f 288 291 290
f 290 293 292
f 292 287 286
f 287 291 289
f 298 300 301
f 292 295 294
f 286 296 295
f 288 297 296
f 290 294 297
f 294 299 298
f 295 300 299
f 296 301 300
f 297 298 301
f 302 308 307
f 303 309 308
f 304 310 309
f 305 311 310
f 306 307 311
f 307 313 312
f 308 314 313
f 309 315 314
f 310 316 315
f 311 312 316
f 312 317 317
f 313 318 317
f 314 319 318
f 315 320 319
f 316 317 320
f 303 323 324
f 302 325 323
f 321 324 325
f 304 324 326
f 303 325 324
f 321 326 325
f 305 326 327
f 304 325 326
f 321 327 325
f 306 327 328
f 305 325 327
f 321 328 325
f 302 328 323
f 306 325 328
f 321 323 325
f 324 329 330
f 323 331 329
f 325 330 331
f 326 330 332
f 324 331 330
f 325 332 331
f 327 332 333
f 326 331 332
f 325 333 331
f 328 333 334
f 327 331 333
f 325 334 331
f 323 334 329
f 328 331 334
f 325 329 331
f 330 335 336
f 329 337 335
f 331 336 337
f 332 336 338
f 330 337 336
f 331 338 337
f 333 338 339
f 332 337 338
f 331 339 337
f 334 339 340
f 333 337 339
f 331 340 337
f 329 340 335
f 334 337 340
f 331 335 337
f 341 347 346
f 342 348 347
f 343 349 348
f 344 350 349
f 345 346 350
f 346 352 351
f 347 353 352
f 348 354 353
f 349 355 354
f 350 351 355
f 351 357 356
f 352 358 357
f 353 359 358
f 354 360 359
f 355 356 360
f 342 363 364
f 341 365 363
f 361 364 365
f 343 364 366
f 342 365 364
f 361 366 365
f 344 366 367
f 343 365 366
f 361 367 365
f 345 367 368
f 344 365 367
f 361 368 365
f 341 368 363
f 345 365 368
f 361 363 365
f 364 369 370
f 363 371 369
f 365 370 371
f 366 370 70
f 364 371 370
f 365 70 371
f 367 70 372
f 366 371 70
f 365 372 371
f 368 372 373
f 367 371 372
f 365 373 371
f 363 373 369
f 368 371 373
f 365 369 371
f 370 374 375
f 369 376 374
f 371 375 376
f 70 375 377
f 370 376 375
f 371 377 376
f 372 377 378
f 70 376 377
f 371 378 376
f 373 378 379
f 372 376 378
f 371 379 376
f 369 379 374
f 373 376 379
f 371 374 376
f 380 382 381
f 383 384 382
f 385 386 384
f 387 388 386
f 389 390 388
f 391 392 390
f 381 395 394
f 382 396 395
f 384 397 396
f 386 398 397
f 388 399 398
f 390 400 399
f 394 402 401
f 395 403 402
f 396 404 403
f 397 405 404
f 398 406 405
f 399 407 406
f 401 409 408
f 402 410 409
f 403 411 410
f 404 412 411
f 405 413 412
f 406 414 413
f 408 416 415
f 409 417 416
f 410 418 417
f 411 419 418
f 412 420 419
f 413 421 420
f 416 423 422
f 417 424 423
f 418 425 424
f 419 426 425
f 420 427 426
f 428 435 434
f 429 436 435
f 430 437 436
f 431 438 437
f 432 439 438
f 433 434 439
f 434 441 440
f 435 442 441
f 436 443 442
f 437 444 443
f 438 445 444
f 439 440 445
f 440 447 446
f 441 448 447
f 442 449 448
f 443 450 449
f 444 451 450
f 445 446 451
f 446 453 452
f 447 454 453
f 448 455 454
f 449 456 455
f 450 457 456
f 451 452 457
f 460 467 466
f 461 468 467
f 462 469 468
f 463 470 469
f 464 471 470
f 465 466 471
f 466 473 472
f 467 474 473
f 468 475 474
f 469 476 475
f 470 477 476
f 471 472 477
f 472 479 478
f 473 480 479
f 474 481 480
f 475 482 481
f 476 483 482
f 477 478 483
f 478 485 484
f 479 486 485
f 480 487 486
f 481 488 487
f 482 489 488
f 483 484 489

