# https://github.com/mikedh/trimesh

o m27.off
v 0.53008600 0.81378100 0.64660100
v 0.53312600 0.83211700 0.66211000
v 0.53008600 0.83211700 0.64660100
v 0.53312600 0.81378100 0.66211000
v 0.51457200 0.81378100 0.64964100
v 0.51761700 0.83211700 0.66515000
v 0.51457200 0.83211700 0.64964100
v 0.51761700 0.81378100 0.66515000
v 0.53780900 0.82294600 0.65314000
v 0.52385100 0.80644800 0.65587600
v 0.53432100 0.81057300 0.65382300
v 0.52658700 0.82294600 0.66983300
v 0.53637400 0.82294600 0.66429200
v 0.52385100 0.83945000 0.65587600
v 0.53432100 0.83532500 0.65382300
v 0.53226800 0.82294600 0.64335300
v 0.52179800 0.83532500 0.64540600
v 0.50988900 0.82294600 0.65861100
v 0.51132900 0.82294600 0.64745900
v 0.52590400 0.83532500 0.66634500
v 0.51338200 0.83532500 0.65792900
v 0.52590400 0.81057300 0.66634500
v 0.51543500 0.82294600 0.66839800
v 0.51338200 0.81057300 0.65792900
v 0.41436900 0.81378100 0.64880600
v 0.41041200 0.81057300 0.65618100
v 0.40689600 0.82294600 0.65563500
v 0.41206200 0.82294600 0.64564300
v 0.41192000 0.81378100 0.66441800
v 0.40875700 0.82294600 0.66672400
v 0.41192000 0.83211700 0.66441800
v 0.41041200 0.83532500 0.65618100
v 0.41436900 0.83211700 0.64880600
v 0.42998500 0.83211700 0.65125000
v 0.42260500 0.83532500 0.64729300
v 0.42095000 0.83945000 0.65783600
v 0.43149300 0.83532500 0.65948600
v 0.41930000 0.83532500 0.66837400
v 0.42753700 0.83211700 0.66686600
v 0.41874900 0.82294600 0.67189000
v 0.42983800 0.82294600 0.67002900
v 0.41930000 0.81057300 0.66837400
v 0.42753700 0.81378100 0.66686600
v 0.42095000 0.80644800 0.65783600
v 0.43149300 0.81057300 0.65948600
v 0.42998500 0.81378100 0.65125000
v 0.43314300 0.82294600 0.64894800
v 0.43500400 0.82294600 0.66003800
v 0.48065900 0.61443500 0.69187800
v 0.31323100 0.68484300 0.60708200
v 0.47904500 0.75968800 0.60720300
v 0.48222700 0.19473000 0.77430300
v 0.29071600 0.42080700 0.79225700
v 0.48396100 0.40618400 0.86538300
v 0.27289900 0.19391700 0.60809400
v 0.47904500 0.12999800 0.60720300
v 0.21183500 0.44315800 0.60925800
v 0.71404700 0.30590400 0.49535200
v 0.59552300 0.16839400 0.49760800
v 0.66782000 0.21240000 0.49623300
v 0.71802000 0.30590400 0.70395100
v 0.73499700 0.29490500 0.59929100
v 0.65556200 0.55598900 0.51029800
v 0.71825400 0.44036200 0.48483600
v 0.59353400 0.30590400 0.39331100
v 0.65813800 0.30590400 0.42364200
v 0.60176900 0.28826500 0.82571100
v 0.66503600 0.29670200 0.78567200
v 0.65951200 0.54018300 0.67532400
v 0.72265000 0.43722200 0.70768800
v 0.59949600 0.16839400 0.70620800
v 0.67179200 0.21240000 0.70483200
v 0.58916100 0.67058400 0.65912500
v 0.62516700 0.61610100 0.65870400
v 0.67086500 0.57077300 0.60040300
v 0.58746000 0.53854800 0.75849700
v 0.62560100 0.53070000 0.72556000
v 0.58081000 0.56576400 0.43147300
v 0.61954300 0.55626500 0.45943400
v 0.58957800 0.71242800 0.51225100
v 0.62576700 0.65420100 0.51547500
v 0.35649100 0.30590400 0.39782400
v 0.35847500 0.16839400 0.50212600
v 0.35750900 0.20758200 0.45127900
v 0.47475200 0.29897300 0.38191300
v 0.36952900 0.56809700 0.43550200
v 0.34974900 0.44372600 0.37900900
v 0.23995100 0.30590400 0.50438200
v 0.29308800 0.30590400 0.43059300
v 0.59922200 0.44451800 0.37425800
v 0.59455200 0.20758200 0.44676200
v 0.58331500 0.66285600 0.48404100
v 0.47550600 0.57212700 0.42149600
v 0.29504300 0.56225400 0.51716800
v 0.32469600 0.56794000 0.46505400
v 0.36464800 0.71398000 0.51653600
v 0.36862300 0.66608000 0.48813200
v 0.47716000 0.72986900 0.50832700
v 0.36996000 0.67318300 0.66349500
v 0.35520900 0.74207600 0.60652000
v 0.32399900 0.66219500 0.52122000
v 0.60249000 0.74072200 0.60180900
v 0.58485500 0.60732600 0.68238500
v 0.48018700 0.68167200 0.66724100
v 0.29704900 0.54591700 0.68113500
v 0.32897100 0.62502700 0.66407100
v 0.37545000 0.54028700 0.76204200
v 0.37432900 0.61084700 0.68622000
v 0.48239200 0.54585500 0.78292100
v 0.36472600 0.28826500 0.83022800
v 0.35626800 0.40927200 0.83943300
v 0.32875000 0.54038100 0.72840700
v 0.61003200 0.40973000 0.83454500
v 0.60046200 0.20758200 0.75705400
v 0.48368200 0.27795400 0.85060900
v 0.24392900 0.30590400 0.71298100
v 0.29998600 0.29670200 0.79262200
v 0.36244700 0.16839400 0.71072500
v 0.36341900 0.20758200 0.76157200
v 0.48118800 0.15321400 0.71984800
v 0.35098100 0.14639200 0.60660500
v 0.29015100 0.21240000 0.71210100
v 0.60699000 0.14639200 0.60172900
v 0.62570100 0.24217200 0.46755300
v 0.60179700 0.58578200 0.67644700
v 0.59897800 0.62669400 0.49867600
v 0.63079800 0.24217200 0.73509700
v 0.32717200 0.24217200 0.47324200
v 0.35285800 0.59442700 0.68025500
v 0.34902500 0.63578100 0.50343800
v 0.33227000 0.24217200 0.74078000
v 0.68507200 0.19391700 0.60024000
v 0.67312300 0.42017200 0.78506500
v 0.64351000 0.68012500 0.60077500
v 0.66139900 0.44313800 0.40791000
v 0.74205800 0.43974700 0.59915500
v 0.47584300 0.19473000 0.43918600
v 0.47656700 0.67704700 0.47721700
v 0.28652700 0.44569500 0.41505300
v 0.47436000 0.44396000 0.36135900
v 0.47689700 0.15321400 0.49455800
v 0.28617800 0.21240000 0.50350100
v 0.23045100 0.44465300 0.49412800
v 0.22297400 0.29490500 0.60904300
v 0.28942200 0.57179400 0.60766600
v 0.23456000 0.44123200 0.71644900
v 0.54677500 0.70751200 0.51135600
v 0.54917800 0.83937700 0.63744200
v 0.54677500 0.84961000 0.51135600
v 0.54897400 0.69651400 0.62682300
v 0.38874600 0.70751200 0.51436300
v 0.39114500 0.83937700 0.64045300
v 0.38874600 0.84961000 0.51436300
v 0.39094500 0.69651400 0.62983000
v 0.61126800 0.77856100 0.57736600
v 0.57571100 0.68264500 0.57804200
v 0.47134600 0.74556000 0.70106300
v 0.57743900 0.74556000 0.66878400
v 0.46904100 0.90644700 0.58007600
v 0.57571100 0.87447700 0.57804200
v 0.46673700 0.77856100 0.45908400
v 0.57398300 0.77856100 0.48730000
v 0.46731200 0.68264500 0.48933400
v 0.46731200 0.87447700 0.48933400
v 0.32681600 0.77856100 0.58278100
v 0.36064000 0.77856100 0.49136300
v 0.47061100 0.86424400 0.66247000
v 0.36237300 0.87447700 0.58210500
v 0.47040900 0.67164700 0.65185200
v 0.36410000 0.74556000 0.67284700
v 0.36237300 0.68264500 0.58210500
v 0.54676800 0.72996300 0.67695100
v 0.45688300 0.78435700 0.68046900
v 0.41402200 0.72996300 0.67948000
v 0.50839100 0.78435700 0.67949100
v 0.53939300 0.73184300 0.69650800
v 0.46047700 0.78277900 0.70722600
v 0.42225500 0.73182700 0.69924100
v 0.50592800 0.78278500 0.70616900
v 0.53223100 0.73234300 0.72169800
v 0.46418600 0.77973300 0.73382600
v 0.43070100 0.73229600 0.72450600
v 0.50358000 0.77975400 0.73273700
v 0.52518400 0.73145200 0.74705000
v 0.46800100 0.77524000 0.76021300
v 0.43926100 0.73135800 0.74979100
v 0.50134100 0.77527500 0.75914900
v 0.51824600 0.72915000 0.77250100
v 0.47192400 0.76931000 0.78631800
v 0.44792500 0.72902000 0.77504500
v 0.49921200 0.76936100 0.78533200
v 0.51142800 0.72604700 0.79812300
v 0.47594900 0.76153200 0.81200100
v 0.45670400 0.72588500 0.80033000
v 0.49718000 0.76159400 0.81114500
v 0.50472600 0.72218800 0.82395900
v 0.48006700 0.75175200 0.83711700
v 0.46559800 0.72202600 0.82569800
v 0.49525200 0.75181400 0.83643600
v 0.49805800 0.71397500 0.84892500
v 0.48416400 0.73336900 0.85888900
v 0.47451900 0.71384500 0.85006200
v 0.49329700 0.73342100 0.85844700
v 0.49157900 0.70141400 0.88165000
v 0.48850200 0.70223200 0.88210300
v 0.48849200 0.70139300 0.88181200
v 0.49158500 0.70225300 0.88193700
v 0.44414200 0.75135100 0.69517500
v 0.43893800 0.75584000 0.68462700
v 0.46302600 0.70408000 0.67252800
v 0.46541000 0.70328400 0.68490300
v 0.50010900 0.70408000 0.67182300
v 0.49815100 0.70313300 0.68534500
v 0.52495700 0.75584000 0.68298500
v 0.52009300 0.75104400 0.69625700
v 0.44927500 0.74641400 0.70674900
v 0.46774200 0.70251800 0.69797600
v 0.49612700 0.70226300 0.69929000
v 0.51512100 0.74598700 0.70996700
v 0.45431600 0.74110700 0.71984900
v 0.46999900 0.70159600 0.71218900
v 0.49402100 0.70130500 0.71410900
v 0.51130300 0.74079500 0.72277300
v 0.45926600 0.73548300 0.73500600
v 0.47215400 0.70034100 0.72802200
v 0.49180700 0.70008600 0.73028300
v 0.50486900 0.73525900 0.74066200
v 0.46410600 0.72905700 0.75268900
v 0.47416500 0.69902400 0.74619400
v 0.48945100 0.69885700 0.74851300
v 0.49957500 0.72907700 0.75854300
v 0.46881800 0.72192200 0.77333500
v 0.47597500 0.69777400 0.76743400
v 0.48689600 0.69773700 0.76951000
v 0.49416500 0.72218200 0.77860600
v 0.47333200 0.71862600 0.79659600
v 0.47748200 0.69998200 0.79203200
v 0.48404400 0.70007100 0.79351100
v 0.48856500 0.71903700 0.80036300
v 0.47805500 0.71224600 0.83015200
v 0.47808600 0.71136600 0.82992300
v 0.48030100 0.71148600 0.83050300
v 0.48027000 0.71236100 0.83073200
v 0.58834200 0.08038400 0.43895500
v 0.81615100 0.02929120 0.71515300
v 0.58834200 0.19039700 0.43895500
v 0.81615100 0.02500000 0.71515300
v 0.50172700 0.08038400 0.46839700
v 0.62505800 0.02929120 0.96970300
v 0.50172700 0.19039700 0.46839700
v 0.62505800 0.02500000 0.96970300
v 0.36341700 0.08038400 0.44324000
v 0.14629200 0.02500000 0.72791600
v 0.14629200 0.02929120 0.72791600
v 0.36341700 0.19039700 0.44324000
v 0.45108900 0.08038400 0.46936300
v 0.45108900 0.19039700 0.46936300
v 0.34694300 0.02929120 0.97500000
v 0.34694300 0.02500000 0.97500000
v 0.89379700 0.14208500 0.28279900
v 0.74793400 0.33995700 0.57372100
v 0.74564300 0.38528500 0.45348400
v 0.84599200 0.14191800 0.51637400
v 0.87984800 0.12457100 0.27815500
v 0.72777700 0.33304700 0.57217000
v 0.72548700 0.37837400 0.45193300
v 0.82989400 0.12681100 0.51244700
v 0.79406200 0.26253400 0.48466300
v 0.92517900 0.07932160 0.39094500
v 0.89775500 0.12375900 0.40391900
v 0.77946700 0.21162400 0.59036200
v 0.79144600 0.22941300 0.56519500
v 0.71876100 0.44980900 0.53856500
v 0.74108000 0.40200200 0.52474300
v 0.80488900 0.24682800 0.34042900
v 0.81708000 0.24567200 0.36979700
v 0.91456000 0.12241500 0.23367300
v 0.72567100 0.42900400 0.44284500
v 0.79373200 0.22759000 0.36517300
v 0.72876200 0.36781300 0.60516500
v 0.71335200 0.39482000 0.52326100
v 0.86311600 0.09647060 0.52658500
v 0.76646400 0.21423800 0.56142200
v 0.87888300 0.10015800 0.39766400
v 0.05223940 0.14208500 0.29882500
v 0.05289070 0.12375900 0.42001300
v 0.15958900 0.26253400 0.49675100
v 0.13221300 0.24567200 0.38283900
v 0.10890400 0.14191800 0.53041600
v 0.16526800 0.22941300 0.57712300
v 0.20907100 0.33995700 0.58398500
v 0.21405400 0.40200200 0.53478400
v 0.20678100 0.38528500 0.46375200
v 0.06600040 0.12457100 0.29365800
v 0.02961830 0.12241500 0.25052800
v 0.14327300 0.24682800 0.35303300
v 0.15536800 0.22759000 0.37733400
v 0.22633300 0.42900400 0.45235300
v 0.22686300 0.37837400 0.46143400
v 0.23688500 0.44980900 0.54774100
v 0.24170900 0.39482000 0.53224600
v 0.22942500 0.36781300 0.61467800
v 0.22915300 0.33304700 0.58166600
v 0.17819700 0.21162400 0.60181300
v 0.19009100 0.21423800 0.57239600
v 0.09217820 0.09647060 0.54127100
v 0.12483700 0.12681100 0.52587600
v 0.02500000 0.07932160 0.40809000
v 0.07151280 0.10015800 0.41304200
v 0.60666600 0.24609300 0.42783800
v 0.78089700 0.45887500 0.16398300
v 0.59358600 0.26439300 0.41930300
v 0.78345200 0.32562000 0.21164000
v 0.58952500 0.27865700 0.41022700
v 0.76528700 0.46300500 0.14292700
v 0.73847800 0.60457700 0.09722480
v 0.57117800 0.29085400 0.40343900
v 0.52149300 0.31129400 0.40114400
v 0.49270000 0.30749800 0.40818900
v 0.53508000 0.86758200 0.02500000
v 0.62401100 0.71447500 0.04744940
v 0.55912700 0.29513400 0.40648400
v 0.71614800 0.59259400 0.08448060
v 0.66119100 0.76366700 0.04866610
v 0.53392200 0.30026400 0.40693600
v 0.45386100 0.31054400 0.40169900
v 0.33896000 0.71130400 0.04980430
v 0.42583300 0.86636800 0.02590310
v 0.48276400 0.30738800 0.40827200
v 0.41662500 0.29354600 0.40766400
v 0.44171100 0.29923800 0.40769700
v 0.30222800 0.75967300 0.05163340
v 0.24979200 0.58740700 0.08833240
v 0.38663000 0.27639700 0.41190400
v 0.40466400 0.28900500 0.40481400
v 0.22880500 0.59890500 0.10143200
v 0.20405900 0.45676100 0.14756500
v 0.37031700 0.24346400 0.42979300
v 0.18934700 0.31900700 0.21654900
v 0.19002100 0.45230300 0.16886600
v 0.38293700 0.26205000 0.42104500
f 26 27 28
f 30 27 26
f 32 27 30
f 28 27 32
f 35 36 37
f 32 36 35
f 38 36 32
f 37 36 38
f 38 40 41
f 30 40 38
f 42 40 30
f 41 40 42
f 42 44 45
f 26 44 42
f 47 48 45
f 37 48 47
f 41 48 37
f 45 48 41
f 16 9 11
f 11 9 13
f 13 9 15
f 15 9 16
f 21 14 17
f 17 14 15
f 15 14 20
f 20 14 21
f 23 12 20
f 20 12 13
f 13 12 22
f 22 12 23
f 24 10 22
f 22 10 11
f 24 18 19
f 19 18 21
f 21 18 23
f 23 18 24
f 25 28 27
f 29 26 27
f 31 30 27
f 33 32 27
f 34 37 36
f 33 35 36
f 31 32 36
f 39 38 36
f 39 41 40
f 31 38 40
f 29 30 40
f 43 42 40
f 43 45 44
f 29 42 44
f 46 45 48
f 34 47 48
f 39 37 48
f 43 41 48
f 1 11 9
f 4 13 9
f 2 15 9
f 3 16 9
f 7 17 14
f 3 15 14
f 2 20 14
f 6 21 14
f 6 20 12
f 2 13 12
f 4 22 12
f 8 23 12
f 8 22 10
f 4 11 10
f 5 19 18
f 7 21 18
f 6 23 18
f 8 24 18
f 98 96 100
f 102 80 98
f 103 73 104
f 104 73 102
f 100 99 104
f 104 99 108
f 108 107 109
f 109 107 111
f 113 76 109
f 109 76 103
f 114 67 115
f 115 67 113
f 111 110 115
f 115 110 119
f 119 118 120
f 120 118 121
f 123 71 120
f 120 71 114
f 51 100 96
f 51 98 80
f 49 104 73
f 51 102 73
f 51 104 99
f 49 108 99
f 49 109 107
f 54 111 107
f 54 109 76
f 49 103 76
f 52 115 67
f 54 113 67
f 54 115 110
f 52 119 110
f 52 120 118
f 56 121 118
f 56 120 71
f 52 114 71
f 66 58 60
f 60 58 62
f 62 58 64
f 64 58 66
f 72 61 68
f 68 61 70
f 70 61 62
f 62 61 72
f 77 69 74
f 74 69 75
f 75 69 70
f 70 69 77
f 81 63 79
f 79 63 64
f 64 63 75
f 75 63 81
f 89 82 84
f 84 82 85
f 85 82 87
f 87 82 89
f 91 65 66
f 66 65 90
f 90 65 85
f 85 65 91
f 79 78 92
f 92 78 93
f 93 78 90
f 90 78 79
f 97 86 95
f 95 86 87
f 87 86 93
f 93 86 97
f 101 96 97
f 97 96 98
f 100 96 101
f 92 80 81
f 81 80 102
f 98 80 92
f 74 73 103
f 102 73 74
f 108 99 106
f 106 99 100
f 112 107 108
f 111 107 112
f 103 76 77
f 77 76 113
f 68 67 114
f 113 67 68
f 119 110 117
f 117 110 111
f 122 118 119
f 121 118 122
f 114 71 72
f 72 71 123
f 60 59 91
f 91 59 141
f 141 59 123
f 123 59 60
f 84 83 142
f 142 83 121
f 121 83 141
f 141 83 84
f 142 88 89
f 89 88 143
f 143 88 144
f 144 88 142
f 95 94 101
f 101 94 145
f 145 94 143
f 143 94 95
f 106 105 112
f 112 105 146
f 146 105 145
f 145 105 106
f 117 116 122
f 122 116 144
f 144 116 146
f 146 116 117
f 162 155 156
f 156 155 158
f 158 155 160
f 160 155 162
f 166 161 163
f 163 161 162
f 162 161 164
f 164 161 166
f 168 159 164
f 164 159 160
f 160 159 167
f 167 159 168
f 170 157 167
f 167 157 158
f 158 157 169
f 169 157 170
f 171 165 166
f 166 165 168
f 168 165 170
f 170 165 171
f 286 287 288
f 290 287 286
f 292 287 290
f 288 287 292
f 295 296 297
f 288 296 295
f 298 296 288
f 297 296 298
f 298 300 301
f 292 300 298
f 302 300 292
f 301 300 302
f 302 304 305
f 290 304 302
f 306 304 290
f 305 304 306
f 306 308 309
f 286 308 306
f 295 308 286
f 309 308 295
f 276 268 270
f 270 268 272
f 272 268 274
f 274 268 276
f 279 275 277
f 277 275 276
f 276 275 278
f 278 275 279
f 281 273 278
f 278 273 274
f 274 273 280
f 280 273 281
f 283 271 280
f 280 271 272
f 272 271 282
f 282 271 283
f 284 269 282
f 282 269 270
f 270 269 277
f 277 269 284
f 327 328 329
f 331 332 333
f 335 336 337
f 339 340 341
f 319 320 321
f 323 324 325
f 315 316 317
f 312 311 313
f 124 60 58
f 132 62 58
f 136 64 58
f 135 66 58
f 127 68 61
f 133 70 61
f 136 62 61
f 132 72 61
f 125 74 69
f 134 75 69
f 136 70 69
f 133 77 69
f 126 79 63
f 135 64 63
f 136 75 63
f 134 81 63
f 128 84 82
f 137 85 82
f 140 87 82
f 139 89 82
f 124 66 65
f 135 90 65
f 140 85 65
f 137 91 65
f 126 92 78
f 138 93 78
f 140 90 78
f 135 79 78
f 130 95 86
f 139 87 86
f 140 93 86
f 138 97 86
f 130 97 96
f 138 98 96
f 50 101 96
f 126 81 80
f 134 102 80
f 138 92 80
f 125 103 73
f 134 74 73
f 129 106 99
f 50 100 99
f 129 108 107
f 53 112 107
f 125 77 76
f 133 113 76
f 127 114 67
f 133 68 67
f 131 117 110
f 53 111 110
f 131 119 118
f 55 122 118
f 127 72 71
f 132 123 71
f 124 91 59
f 137 141 59
f 56 123 59
f 132 60 59
f 128 142 83
f 55 121 83
f 56 141 83
f 137 84 83
f 128 89 88
f 139 143 88
f 57 144 88
f 55 142 88
f 130 101 94
f 50 145 94
f 57 143 94
f 139 95 94
f 129 112 105
f 53 146 105
f 57 145 105
f 50 106 105
f 131 122 116
f 55 144 116
f 57 146 116
f 53 117 116
f 147 156 155
f 150 158 155
f 148 160 155
f 149 162 155
f 151 163 161
f 147 162 161
f 149 164 161
f 153 166 161
f 153 164 159
f 149 160 159
f 148 167 159
f 152 168 159
f 152 167 157
f 148 158 157
f 150 169 157
f 154 170 157
f 151 166 165
f 153 168 165
f 152 170 165
f 154 171 165
f 285 288 287
f 289 286 287
f 291 290 287
f 293 292 287
f 294 297 296
f 285 295 296
f 293 288 296
f 299 298 296
f 299 301 300
f 293 298 300
f 291 292 300
f 303 302 300
f 303 305 304
f 291 302 304
f 289 290 304
f 307 306 304
f 307 309 308
f 289 306 308
f 285 286 308
f 294 295 308
f 260 270 268
f 263 272 268
f 261 274 268
f 262 276 268
f 264 277 275
f 260 276 275
f 262 278 275
f 266 279 275
f 266 278 273
f 262 274 273
f 261 280 273
f 265 281 273
f 265 280 271
f 261 272 271
f 263 282 271
f 267 283 271
f 267 282 269
f 263 270 269
f 260 277 269
f 264 284 269
f 326 329 328
f 330 333 332
f 334 337 336
f 338 341 340
f 318 321 320
f 322 325 324
f 314 317 316
f 310 313 311
f 253 254 255
f 252 255 257
f 255 254 258
f 257 258 259
f 246 245 247
f 250 246 244
f 249 245 246
f 251 249 250
f 252 255 254
f 256 257 255
f 257 258 254
f 256 259 258
f 244 247 245
f 248 244 246
f 250 246 245
f 248 250 249
f 209 210 211
f 210 212 213
f 212 214 215
f 208 211 217
f 211 213 218
f 213 215 219
f 216 217 221
f 217 218 222
f 218 219 223
f 220 221 225
f 221 222 226
f 222 223 227
f 224 225 229
f 225 226 230
f 226 227 231
f 228 229 233
f 229 230 234
f 230 231 235
f 232 233 237
f 233 234 238
f 234 235 239
f 236 237 241
f 237 238 242
f 238 239 243
f 177 173 174
f 179 175 173
f 176 172 175
f 181 177 178
f 183 179 177
f 180 176 179
f 185 181 182
f 187 183 181
f 184 180 183
f 189 185 186
f 191 187 185
f 188 184 187
f 193 189 190
f 195 191 189
f 192 188 191
f 197 193 194
f 199 195 193
f 196 192 195
f 201 197 198
f 203 199 197
f 200 196 199
f 205 201 202
f 207 203 201
f 204 200 203
f 208 211 210
f 211 213 212
f 213 215 214
f 216 217 211
f 217 218 213
f 218 219 215
f 220 221 217
f 221 222 218
f 222 223 219
f 224 225 221
f 225 226 222
f 226 227 223
f 228 229 225
f 229 230 226
f 230 231 227
f 232 233 229
f 233 234 230
f 234 235 231
f 236 237 233
f 237 238 234
f 238 239 235
f 240 241 237
f 241 242 238
f 242 243 239
f 178 174 173
f 177 173 175
f 179 175 172
f 182 178 177
f 181 177 179
f 183 179 176
f 186 182 181
f 185 181 183
f 187 183 180
f 190 186 185
f 189 185 187
f 191 187 184
f 194 190 189
f 193 189 191
f 195 191 188
f 198 194 193
f 197 193 195
f 199 195 192
f 202 198 197
f 201 197 199
f 203 199 196
f 206 202 201
f 205 201 203
f 207 203 200
f 26 28 25
f 30 26 29
f 32 30 31
f 28 32 33
f 35 37 34
f 32 35 33
f 38 32 31
f 37 38 39
f 38 41 39
f 30 38 31
f 42 30 29
f 41 42 43
f 42 45 43
f 26 42 29
f 47 45 46
f 37 47 34
f 41 37 39
f 45 41 43
f 16 11 1
f 11 13 4
f 13 15 2
f 15 16 3
f 21 17 7
f 17 15 3
f 15 20 2
f 20 21 6
f 23 20 6
f 20 13 2
f 13 22 4
f 22 23 8
f 24 22 8
f 22 11 4
f 24 19 5
f 19 21 7
f 21 23 6
f 23 24 8
f 25 27 26
f 29 27 30
f 31 27 32
f 33 27 28
f 34 36 35
f 33 36 32
f 31 36 38
f 39 36 37
f 39 40 38
f 31 40 30
f 29 40 42
f 43 40 41
f 43 44 42
f 29 44 26
f 46 48 47
f 34 48 37
f 39 48 41
f 43 48 45
f 1 9 16
f 4 9 11
f 2 9 13
f 3 9 15
f 7 14 21
f 3 14 17
f 2 14 15
f 6 14 20
f 6 12 23
f 2 12 20
f 4 12 13
f 8 12 22
f 8 10 24
f 4 10 22
f 5 18 24
f 7 18 19
f 6 18 21
f 8 18 23
f 98 100 51
f 102 98 51
f 103 104 49
f 104 102 51
f 100 104 51
f 104 108 49
f 108 109 49
f 109 111 54
f 113 109 54
f 109 103 49
f 114 115 52
f 115 113 54
f 111 115 54
f 115 119 52
f 119 120 52
f 120 121 56
f 123 120 56
f 120 114 52
f 51 96 98
f 51 80 102
f 49 73 103
f 51 73 104
f 51 99 100
f 49 99 104
f 49 107 108
f 54 107 109
f 54 76 113
f 49 76 109
f 52 67 114
f 54 67 115
f 54 110 111
f 52 110 115
f 52 118 119
f 56 118 120
f 56 71 123
f 52 71 120
f 66 60 124
f 60 62 132
f 62 64 136
f 64 66 135
f 72 68 127
f 68 70 133
f 70 62 136
f 62 72 132
f 77 74 125
f 74 75 134
f 75 70 136
f 70 77 133
f 81 79 126
f 79 64 135
f 64 75 136
f 75 81 134
f 89 84 128
f 84 85 137
f 85 87 140
f 87 89 139
f 91 66 124
f 66 90 135
f 90 85 140
f 85 91 137
f 79 92 126
f 92 93 138
f 93 90 140
f 90 79 135
f 97 95 130
f 95 87 139
f 87 93 140
f 93 97 138
f 101 97 130
f 97 98 138
f 100 101 50
f 92 81 126
f 81 102 134
f 98 92 138
f 74 103 125
f 102 74 134
f 108 106 129
f 106 100 50
f 112 108 129
f 111 112 53
f 103 77 125
f 77 113 133
f 68 114 127
f 113 68 133
f 119 117 131
f 117 111 53
f 122 119 131
f 121 122 55
f 114 72 127
f 72 123 132
f 60 91 124
f 91 141 137
f 141 123 56
f 123 60 132
f 84 142 128
f 142 121 55
f 121 141 56
f 141 84 137
f 142 89 128
f 89 143 139
f 143 144 57
f 144 142 55
f 95 101 130
f 101 145 50
f 145 143 57
f 143 95 139
f 106 112 129
f 112 146 53
f 146 145 57
f 145 106 50
f 117 122 131
f 122 144 55
f 144 146 57
f 146 117 53
f 162 156 147
f 156 158 150
f 158 160 148
f 160 162 149
f 166 163 151
f 163 162 147
f 162 164 149
f 164 166 153
f 168 164 153
f 164 160 149
f 160 167 148
f 167 168 152
f 170 167 152
f 167 158 148
f 158 169 150
f 169 170 154
f 171 166 151
f 166 168 153
f 168 170 152
f 170 171 154
f 286 288 285
f 290 286 289
f 292 290 291
f 288 292 293
f 295 297 294
f 288 295 285
f 298 288 293
f 297 298 299
f 298 301 299
f 292 298 293
f 302 292 291
f 301 302 303
f 302 305 303
f 290 302 291
f 306 290 289
f 305 306 307
f 306 309 307
f 286 306 289
f 295 286 285
f 309 295 294
f 276 270 260
f 270 272 263
f 272 274 261
f 274 276 262
f 279 277 264
f 277 276 260
f 276 278 262
f 278 279 266
f 281 278 266
f 278 274 262
f 274 280 261
f 280 281 265
f 283 280 265
f 280 272 261
f 272 282 263
f 282 283 267
f 284 282 267
f 282 270 263
f 270 277 260
f 277 284 264
f 327 329 326
f 331 333 330
f 335 337 334
f 339 341 338
f 319 321 318
f 323 325 322
f 315 317 314
f 312 313 310
f 124 58 66
f 132 58 60
f 136 58 62
f 135 58 64
f 127 61 72
f 133 61 68
f 136 61 70
f 132 61 62
f 125 69 77
f 134 69 74
f 136 69 75
f 133 69 70
f 126 63 81
f 135 63 79
f 136 63 64
f 134 63 75
f 128 82 89
f 137 82 84
f 140 82 85
f 139 82 87
f 124 65 91
f 135 65 66
f 140 65 90
f 137 65 85
f 126 78 79
f 138 78 92
f 140 78 93
f 135 78 90
f 130 86 97
f 139 86 95
f 140 86 87
f 138 86 93
f 130 96 101
f 138 96 97
f 50 96 100
f 126 80 92
f 134 80 81
f 138 80 98
f 125 73 74
f 134 73 102
f 129 99 108
f 50 99 106
f 129 107 112
f 53 107 111
f 125 76 103
f 133 76 77
f 127 67 68
f 133 67 113
f 131 110 119
f 53 110 117
f 131 118 122
f 55 118 121
f 127 71 114
f 132 71 72
f 124 59 60
f 137 59 91
f 56 59 141
f 132 59 123
f 128 83 84
f 55 83 142
f 56 83 121
f 137 83 141
f 128 88 142
f 139 88 89
f 57 88 143
f 55 88 144
f 130 94 95
f 50 94 101
f 57 94 145
f 139 94 143
f 129 105 106
f 53 105 112
f 57 105 146
f 50 105 145
f 131 116 117
f 55 116 122
f 57 116 144
f 53 116 146
f 147 155 162
f 150 155 156
f 148 155 158
f 149 155 160
f 151 161 166
f 147 161 163
f 149 161 162
f 153 161 164
f 153 159 168
f 149 159 164
f 148 159 160
f 152 159 167
f 152 157 170
f 148 157 167
f 150 157 158
f 154 157 169
f 151 165 171
f 153 165 166
f 152 165 168
f 154 165 170
f 285 287 286
f 289 287 290
f 291 287 292
f 293 287 288
f 294 296 295
f 285 296 288
f 293 296 298
f 299 296 297
f 299 300 298
f 293 300 292
f 291 300 302
f 303 300 301
f 303 304 302
f 291 304 290
f 289 304 306
f 307 304 305
f 307 308 306
f 289 308 286
f 285 308 295
f 294 308 309
f 260 268 276
f 263 268 270
f 261 268 272
f 262 268 274
f 264 275 279
f 260 275 277
f 262 275 276
f 266 275 278
f 266 273 281
f 262 273 278
f 261 273 274
f 265 273 280
f 265 271 283
f 261 271 280
f 263 271 272
f 267 271 282
f 267 269 284
f 263 269 282
f 260 269 270
f 264 269 277
f 326 328 327
f 330 332 331
f 334 336 335
f 338 340 339
f 318 320 319
f 322 324 323
f 314 316 315
f 310 311 312
f 253 255 252
f 252 257 256
f 255 258 257
f 257 259 256
f 246 247 244
f 250 244 248
f 249 246 250
f 251 250 248
f 252 254 253
f 256 255 252
f 257 254 255
f 256 258 257
f 244 245 246
f 248 246 250
f 250 245 249
f 248 249 251
f 209 211 208
f 210 213 211
f 212 215 213
f 208 217 216
f 211 218 217
f 213 219 218
f 216 221 220
f 217 222 221
f 218 223 222
f 220 225 224
f 221 226 225
f 222 227 226
f 224 229 228
f 225 230 229
f 226 231 230
f 228 233 232
f 229 234 233
f 230 235 234
f 232 237 236
f 233 238 237
f 234 239 238
f 236 241 240
f 237 242 241
f 238 243 242
f 177 174 178
f 179 173 177
f 176 175 179
f 181 178 182
f 183 177 181
f 180 179 183
f 185 182 186
f 187 181 185
f 184 183 187
f 189 186 190
f 191 185 189
f 188 187 191
f 193 190 194
f 195 189 193
f 192 191 195
f 197 194 198
f 199 193 197
f 196 195 199
f 201 198 202
f 203 197 201
f 200 199 203
f 205 202 206
f 207 201 205
f 204 203 207
f 208 210 209
f 211 212 210
f 213 214 212
f 216 211 208
f 217 213 211
f 218 215 213
f 220 217 216
f 221 218 217
f 222 219 218
f 224 221 220
f 225 222 221
f 226 223 222
f 228 225 224
f 229 226 225
f 230 227 226
f 232 229 228
f 233 230 229
f 234 231 230
f 236 233 232
f 237 234 233
f 238 235 234
f 240 237 236
f 241 238 237
f 242 239 238
f 178 173 177
f 177 175 179
f 179 172 176
f 182 177 181
f 181 179 183
f 183 176 180
f 186 181 185
f 185 183 187
f 187 180 184
f 190 185 189
f 189 187 191
f 191 184 188
f 194 189 193
f 193 191 195
f 195 188 192
f 198 193 197
f 197 195 199
f 199 192 196
f 202 197 201
f 201 199 203
f 203 196 200
f 206 201 205
f 205 203 207
f 207 200 204

