# https://github.com/mikedh/trimesh

o m34.off
v 0.47403500 0.10136700 0.45418000
v 0.47098100 0.09525720 0.45418000
v 0.47556300 0.09372990 0.46487100
v 0.52443700 0.09372990 0.46487100
v 0.52901900 0.09525720 0.45418000
v 0.52596500 0.10136700 0.45418000
v 0.92307100 0.24951800 0.25715400
v 0.87419600 0.24035400 0.21591600
v 0.90168800 0.24340800 0.19911600
v 0.97500000 0.25562700 0.23424400
v 0.02500000 0.25715400 0.24951800
v 0.06929260 0.25257200 0.27242800
v 0.06929260 0.25410000 0.27242800
v 0.87419600 0.24188100 0.21591600
v 0.92154300 0.25257200 0.25562700
v 0.07692930 0.24951800 0.25562700
v 0.02500000 0.25562700 0.23424400
v 0.88030500 0.23882600 0.18537000
v 0.85586800 0.23577200 0.18689700
v 0.90321500 0.24340800 0.19147900
v 0.93070700 0.25410000 0.27242800
v 0.97500000 0.25715400 0.24951800
v 0.07845660 0.25257200 0.25562700
v 0.93070700 0.25257200 0.27242800
v 0.12580400 0.24188100 0.21591600
v 0.09831190 0.24340800 0.19911600
v 0.09678460 0.24340800 0.18995200
v 0.14413200 0.23577200 0.18689700
v 0.11969500 0.23882600 0.18537000
v 0.12580400 0.24035400 0.21591600
v 0.48778100 0.08151130 0.52901900
v 0.50000000 0.08151130 0.52901900
v 0.50000000 0.08914790 0.49541800
v 0.48319900 0.08914790 0.49541800
v 0.51221900 0.08151130 0.52901900
v 0.50000000 0.05707400 0.54429300
v 0.51680100 0.06318330 0.52443700
v 0.48319900 0.06318330 0.52443700
v 0.50000000 0.06012860 0.52749200
v 0.51680100 0.08914790 0.49541800
v 0.51985500 0.07234730 0.49083600
v 0.53054700 0.07845660 0.45265300
v 0.46945300 0.07845660 0.45265300
v 0.48014500 0.07234730 0.49083600
v 0.50000000 0.06471060 0.49083600
v 0.41141500 0.14565900 0.27090000
v 0.43890700 0.11664000 0.23271700
v 0.41905100 0.13191300 0.24035400
v 0.45112500 0.11969500 0.23882600
v 0.44654300 0.09220260 0.20369800
v 0.24340800 0.22660800 0.36712200
v 0.24646300 0.23271700 0.36712200
v 0.17315100 0.24799000 0.32741200
v 0.17162400 0.24188100 0.32893900
v 0.41141500 0.09678460 0.03569130
v 0.45112500 0.07845660 0.15482300
v 0.44348900 0.09067520 0.16398700
v 0.13191300 0.24493600 0.28617400
v 0.12122200 0.24799000 0.29992000
v 0.40225100 0.14260500 0.32741200
v 0.42516100 0.10747600 0.31824800
v 0.43279700 0.10289400 0.36254000
v 0.42057900 0.13191300 0.36559500
v 0.42210600 0.10136700 0.02805470
v 0.43279700 0.10136700 0.03569130
v 0.47098100 0.08914790 0.14565900
v 0.53054700 0.11205800 0.42057900
v 0.54429300 0.10442100 0.40072300
v 0.53665600 0.11511300 0.40072300
v 0.81310300 0.23119000 0.19758800
v 0.83601300 0.24035400 0.23577200
v 0.65578800 0.18231500 0.27701000
v 0.58858500 0.14565900 0.27090000
v 0.59316700 0.15024100 0.32588400
v 0.65120600 0.18231500 0.33963000
v 0.50000000 0.10900300 0.27242800
v 0.53054700 0.10900300 0.27242800
v 0.53054700 0.10442100 0.23882600
v 0.50000000 0.10442100 0.23882600
v 0.82226700 0.24035400 0.31519300
v 0.75353700 0.22508000 0.34574000
v 0.73368200 0.21438900 0.28464600
v 0.79324800 0.23271700 0.26173600
v 0.56873000 0.11358500 0.27548200
v 0.55956600 0.06012860 0.27242800
v 0.55345700 0.07081990 0.22660800
v 0.56109300 0.11664000 0.23271700
v 0.52749200 0.03263670 0.26173600
v 0.50000000 0.03263670 0.25868200
v 0.50000000 0.04638260 0.20980700
v 0.52596500 0.04791000 0.21591600
v 0.51527300 0.09372990 0.13802300
v 0.50000000 0.09220260 0.12885900
v 0.50000000 0.10747600 0.03721860
v 0.52596500 0.10900300 0.02500000
v 0.54582000 0.07540190 0.19147900
v 0.55345700 0.09220260 0.20369800
v 0.72299000 0.20828000 0.23577200
v 0.77186500 0.22660800 0.20980700
v 0.53054700 0.10136700 0.19758800
v 0.50000000 0.10136700 0.19758800
v 0.50000000 0.09678460 0.16398700
v 0.86808700 0.24799000 0.28617400
v 0.55498400 0.12885900 0.36559500
v 0.57331200 0.14107700 0.36559500
v 0.55956600 0.12733100 0.32893900
v 0.46487100 0.03263670 0.36559500
v 0.50000000 0.03263670 0.36559500
v 0.50000000 0.03874600 0.41141500
v 0.47250800 0.03569130 0.40988700
v 0.45418000 0.07540190 0.19147900
v 0.47403500 0.06623790 0.18537000
v 0.47403500 0.04791000 0.21591600
v 0.44654300 0.07081990 0.22660800
v 0.29533800 0.19758800 0.28311900
v 0.33963000 0.17773300 0.27701000
v 0.34421200 0.17467800 0.33963000
v 0.28617400 0.20369800 0.34726700
v 0.47709000 0.11511300 0.45265300
v 0.46945300 0.10900300 0.27242800
v 0.44501600 0.12274900 0.27242800
v 0.44043400 0.12733100 0.32893900
v 0.46945300 0.11511300 0.32893900
v 0.28922800 0.21133400 0.37170400
v 0.28922800 0.20980700 0.34726700
v 0.24951800 0.23119000 0.34574000
v 0.40683300 0.15024100 0.32588400
v 0.42668800 0.14107700 0.36559500
v 0.44501600 0.12885900 0.36559500
v 0.46334400 0.11511300 0.40072300
v 0.46945300 0.10136700 0.19758800
v 0.17926000 0.24646300 0.31519300
v 0.26937300 0.21897100 0.28464600
v 0.20828000 0.23729900 0.26173600
v 0.46945300 0.09678460 0.16398700
v 0.16246000 0.23729900 0.23729900
v 0.40683300 0.13955000 0.27090000
v 0.43127000 0.11358500 0.27548200
v 0.44043400 0.05249200 0.36406800
v 0.54887500 0.11969500 0.23882600
v 0.82074000 0.24646300 0.31519300
v 0.74895500 0.23119000 0.34574000
v 0.75353700 0.23271700 0.36712200
v 0.82684900 0.24799000 0.32741200
v 0.52291000 0.11511300 0.45265300
v 0.50000000 0.11205800 0.42057900
v 0.50000000 0.11511300 0.45418000
v 0.83754000 0.23729900 0.23729900
v 0.57942100 0.13191300 0.36559500
v 0.56720300 0.10289400 0.36254000
v 0.53512900 0.10442100 0.03721860
v 0.53512900 0.03263670 0.36559500
v 0.50000000 0.02500000 0.30908400
v 0.53360100 0.02805470 0.30755600
v 0.71535400 0.20369800 0.37170400
v 0.65120600 0.17162400 0.37781400
v 0.65578800 0.17467800 0.33963000
v 0.71382600 0.20369800 0.34726700
v 0.53054700 0.09678460 0.16398700
v 0.56720300 0.10136700 0.03569130
v 0.55192900 0.10594900 0.02805470
v 0.87877800 0.25104500 0.29992000
v 0.87877800 0.24799000 0.29992000
v 0.52596500 0.06623790 0.18537000
v 0.54887500 0.07845660 0.15482300
v 0.46639900 0.02805470 0.30755600
v 0.48472700 0.09372990 0.13802300
v 0.20675200 0.23271700 0.26173600
v 0.17773300 0.24035400 0.31519300
v 0.29992000 0.20369800 0.28311900
v 0.30297400 0.19453400 0.23577200
v 0.34421200 0.18231500 0.27701000
v 0.34115800 0.17773300 0.23119000
v 0.35490400 0.18078800 0.37781400
v 0.13191300 0.24799000 0.28617400
v 0.16398700 0.24035400 0.23577200
v 0.44807100 0.10594900 0.02805470
v 0.46487100 0.10442100 0.03721860
v 0.18689700 0.23119000 0.19758800
v 0.45570700 0.06623790 0.41141500
v 0.48167200 0.05249200 0.45112500
v 0.58094900 0.13191300 0.24035400
v 0.82837600 0.24188100 0.32893900
v 0.75659200 0.22660800 0.36712200
v 0.52901900 0.08914790 0.14565900
v 0.59316700 0.13955000 0.27090000
v 0.51832800 0.05249200 0.45112500
v 0.52749200 0.03569130 0.40988700
v 0.54429300 0.06623790 0.41141500
v 0.50000000 0.06318330 0.17620600
v 0.57483900 0.10747600 0.31824800
v 0.56262100 0.05401930 0.31519300
v 0.50000000 0.11511300 0.32893900
v 0.53054700 0.11511300 0.32893900
v 0.71077200 0.20980700 0.34726700
v 0.64509600 0.18078800 0.37781400
v 0.71077200 0.21133400 0.37170400
v 0.79172000 0.23729900 0.26173600
v 0.50000000 0.05401930 0.45570700
v 0.47403500 0.10900300 0.02500000
v 0.22813500 0.22660800 0.20980700
v 0.27701000 0.20828000 0.23577200
v 0.26631800 0.21438900 0.28464600
v 0.46945300 0.10442100 0.23882600
v 0.34879400 0.18231500 0.33963000
v 0.46945300 0.11205800 0.42057900
v 0.45570700 0.10442100 0.40072300
v 0.24646300 0.22508000 0.34574000
v 0.44043400 0.06012860 0.27242800
v 0.43737900 0.05401930 0.31519300
v 0.50000000 0.11511300 0.39308700
v 0.53054700 0.11053100 0.39308700
v 0.53054700 0.11664000 0.36559500
v 0.50000000 0.11664000 0.36559500
v 0.70466200 0.19758800 0.28311900
v 0.55956600 0.05249200 0.36406800
v 0.57789400 0.10136700 0.02805470
v 0.58858500 0.09678460 0.03569130
v 0.59774900 0.14260500 0.32741200
v 0.86808700 0.24493600 0.28617400
v 0.55651100 0.09067520 0.16398700
v 0.73062700 0.21897100 0.28464600
v 0.70008000 0.20369800 0.28311900
v 0.65884200 0.17773300 0.23119000
v 0.69702600 0.19453400 0.23577200
v 0.28464600 0.20369800 0.37170400
v 0.12122200 0.25104500 0.29992000
v 0.46945300 0.11053100 0.39308700
v 0.46945300 0.11664000 0.36559500
v 0.34879400 0.17162400 0.37781400
v 0.47250800 0.03263670 0.26173600
v 0.66037000 0.17773300 0.27701000
v 0.55498400 0.12274900 0.27242800
f 1 2 3
f 4 5 6
f 7 8 9
f 11 12 13
f 9 14 15
f 16 12 11
f 18 19 14
f 10 15 21
f 11 13 23
f 21 24 22
f 17 23 25
f 8 19 18
f 27 26 25
f 10 22 24
f 26 27 29
f 17 26 30
f 31 32 33
f 35 36 37
f 38 39 36
f 40 41 42
f 36 39 37
f 43 44 34
f 37 39 45
f 34 44 38
f 44 45 39
f 40 33 32
f 38 36 31
f 35 37 41
f 32 31 36
f 36 35 32
f 46 47 48
f 49 50 47
f 51 52 53
f 55 56 57
f 12 16 58
f 60 61 62
f 56 55 64
f 67 68 69
f 70 71 14
f 72 73 74
f 76 77 78
f 80 81 82
f 84 85 86
f 88 89 90
f 92 93 94
f 87 86 96
f 83 82 98
f 79 78 100
f 95 94 102
f 14 71 103
f 104 105 74
f 107 108 109
f 111 112 113
f 115 116 117
f 119 1 3
f 120 121 122
f 124 125 126
f 122 127 128
f 128 130 129
f 50 49 131
f 132 126 133
f 57 50 131
f 30 136 58
f 137 138 61
f 139 107 110
f 104 69 105
f 100 78 140
f 141 142 143
f 145 67 146
f 148 83 99
f 149 68 150
f 95 151 92
f 152 108 153
f 85 88 91
f 155 156 157
f 145 147 33
f 159 160 161
f 24 21 162
f 164 165 96
f 166 153 108
f 66 167 112
f 57 56 111
f 136 168 169
f 102 135 131
f 126 125 170
f 171 170 172
f 130 128 174
f 121 46 127
f 175 132 134
f 66 65 177
f 28 179 136
f 48 47 138
f 180 110 181
f 182 87 73
f 87 97 140
f 183 144 143
f 151 161 160
f 8 148 70
f 186 84 87
f 42 187 188
f 92 164 190
f 91 90 190
f 191 192 85
f 183 184 81
f 193 194 77
f 195 75 196
f 99 198 71
f 73 87 140
f 181 199 45
f 167 178 200
f 50 111 114
f 201 202 203
f 101 131 204
f 125 205 172
f 202 133 170
f 2 206 207
f 3 2 43
f 179 176 134
f 124 174 205
f 76 120 123
f 169 208 51
f 138 209 210
f 112 190 90
f 40 42 5
f 163 162 144
f 75 74 105
f 211 212 213
f 81 158 215
f 68 189 216
f 154 153 89
f 185 160 217
f 149 150 191
f 163 220 7
f 221 165 218
f 222 223 195
f 224 72 223
f 196 105 69
f 210 166 107
f 116 137 60
f 51 208 118
f 178 177 65
f 59 227 13
f 111 56 112
f 228 229 129
f 201 134 133
f 230 174 124
f 79 204 120
f 168 203 208
f 47 114 209
f 113 90 89
f 184 143 197
f 156 196 69
f 213 104 106
f 146 67 212
f 215 232 224
f 5 42 189
f 187 199 109
f 41 187 42
f 219 191 84
f 7 220 148
f 159 100 97
f 198 222 142
f 100 140 97
f 182 73 72
f 139 110 180
f 117 60 63
f 230 63 207
f 57 135 65
f 227 175 23
f 49 47 46
f 173 172 46
f 49 46 121
f 23 175 176
f 135 102 94
f 58 169 54
f 173 48 137
f 209 231 166
f 200 94 93
f 68 67 5
f 140 233 73
f 21 15 103
f 218 217 160
f 68 149 156
f 156 149 219
f 189 188 152
f 45 199 187
f 92 185 164
f 150 216 192
f 82 215 225
f 214 213 194
f 77 233 140
f 103 141 144
f 145 6 5
f 167 93 190
f 61 210 139
f 202 171 115
f 193 123 229
f 205 127 46
f 28 25 176
f 130 207 206
f 226 124 52
f 207 130 174
f 123 122 129
f 34 33 147
f 118 117 230
f 114 113 231
f 167 190 112
f 69 104 213
f 98 222 198
f 155 197 196
f 101 100 159
f 220 80 83
f 97 96 165
f 190 93 92
f 188 109 108
f 86 91 164
f 158 157 232
f 40 4 6
f 194 106 233
f 143 142 195
f 164 185 165
f 231 89 153
f 62 139 180
f 203 115 118
f 214 229 228
f 174 128 127
f 54 53 227
f 56 66 112
f 228 130 206
f 49 204 131
f 53 52 126
f 147 146 206
f 179 201 168
f 62 207 63
f 43 181 44
f 67 69 212
f 225 223 222
f 223 72 75
f 102 159 151
f 163 183 80
f 232 186 182
f 192 154 88
f 41 45 187
f 216 152 154
f 157 219 186
f 155 158 81
f 185 92 151
f 71 198 141
f 106 74 73
f 110 109 199
f 207 180 43
f 171 173 116
f 211 228 206
f 204 49 121
f 227 53 132
f 206 2 1
f 7 9 10
f 9 15 10
f 16 11 17
f 18 14 9
f 18 9 20
f 10 21 22
f 11 23 17
f 17 25 26
f 8 18 20
f 8 20 9
f 27 25 28
f 27 28 29
f 10 24 7
f 26 29 28
f 26 28 30
f 17 30 16
f 31 33 34
f 37 45 41
f 34 38 31
f 44 39 38
f 40 32 35
f 35 41 40
f 51 53 54
f 12 58 59
f 60 62 63
f 56 64 65
f 56 65 66
f 70 14 19
f 72 74 75
f 76 78 79
f 80 82 83
f 84 86 87
f 88 90 91
f 92 94 95
f 87 96 97
f 83 98 99
f 79 100 101
f 14 103 15
f 104 74 106
f 107 109 110
f 111 113 114
f 115 117 118
f 119 3 34
f 120 122 123
f 124 126 52
f 122 128 129
f 132 133 134
f 57 131 135
f 30 58 16
f 137 61 60
f 141 143 144
f 145 146 147
f 148 99 70
f 152 153 154
f 85 91 86
f 155 157 158
f 145 33 40
f 159 161 151
f 24 162 163
f 166 108 107
f 57 111 50
f 136 169 58
f 102 131 101
f 126 170 133
f 171 172 173
f 121 127 122
f 175 134 176
f 66 177 178
f 66 178 167
f 28 136 30
f 48 138 137
f 180 181 43
f 183 143 184
f 151 160 185
f 8 70 19
f 186 87 182
f 42 188 189
f 91 190 164
f 191 85 84
f 183 81 80
f 193 77 76
f 195 196 197
f 99 71 70
f 181 45 44
f 50 114 47
f 201 203 168
f 101 204 79
f 125 172 170
f 202 170 171
f 3 43 34
f 179 134 201
f 124 205 125
f 76 123 193
f 169 51 54
f 138 210 61
f 112 90 113
f 40 5 4
f 163 144 183
f 75 105 196
f 211 213 214
f 81 215 82
f 68 216 150
f 154 89 88
f 185 217 218
f 185 218 165
f 149 191 219
f 163 7 24
f 222 195 142
f 224 223 225
f 210 107 139
f 116 60 117
f 51 118 226
f 178 65 135
f 59 13 12
f 228 129 130
f 201 133 202
f 230 124 226
f 79 120 76
f 168 208 169
f 47 209 138
f 113 89 231
f 184 197 155
f 156 69 68
f 213 106 194
f 146 212 211
f 215 224 225
f 5 189 68
f 187 109 188
f 219 84 186
f 7 148 8
f 159 97 221
f 198 142 141
f 182 72 224
f 117 63 230
f 57 65 64
f 57 64 55
f 227 23 13
f 173 46 48
f 23 176 25
f 135 94 200
f 135 200 178
f 58 54 59
f 173 137 116
f 209 166 210
f 200 93 167
f 21 103 162
f 218 160 159
f 218 159 221
f 156 219 157
f 189 152 216
f 150 192 191
f 82 225 98
f 214 194 193
f 77 140 78
f 103 144 162
f 145 5 67
f 61 139 62
f 202 115 203
f 193 229 214
f 205 46 172
f 28 176 179
f 226 52 51
f 207 174 230
f 123 129 229
f 34 147 119
f 118 230 226
f 114 231 209
f 69 213 212
f 98 198 99
f 155 196 156
f 101 159 102
f 220 83 148
f 97 165 221
f 188 108 152
f 86 164 96
f 158 232 215
f 40 6 145
f 194 233 77
f 143 195 197
f 231 153 166
f 62 180 207
f 203 118 208
f 214 228 211
f 174 127 205
f 54 227 59
f 53 126 132
f 147 206 119
f 179 168 136
f 225 222 98
f 223 75 195
f 102 151 95
f 163 80 220
f 232 182 224
f 192 88 85
f 216 154 192
f 157 186 232
f 155 81 184
f 71 141 103
f 106 73 233
f 110 199 181
f 207 43 2
f 171 116 115
f 211 206 146
f 204 121 120
f 227 132 175
f 206 1 119

