# https://github.com/mikedh/trimesh

o m36.off
v 0.54746000 0.44616300 0.42615100
v 0.59285200 0.43909100 0.43035100
v 0.58097700 0.44973200 0.48222000
v 0.55626600 0.45630900 0.51322000
v 0.52815800 0.45630900 0.51150900
v 0.50739000 0.44973200 0.47774100
v 0.50189400 0.43909100 0.42481400
v 0.51376900 0.42844900 0.37294500
v 0.53848000 0.42187300 0.34194500
v 0.56658800 0.42187300 0.34365600
v 0.58735600 0.42844900 0.37742400
v 0.61103800 0.43880600 0.53566300
v 0.56403600 0.45131500 0.59462700
v 0.51057200 0.45131500 0.59137300
v 0.47106800 0.43880600 0.52714200
v 0.46061400 0.41856500 0.42647000
v 0.48320200 0.39832400 0.32780900
v 0.53020500 0.38581500 0.26884400
v 0.58366800 0.38581500 0.27209800
v 0.62317200 0.39832400 0.33632900
v 0.63362600 0.41856500 0.43700100
v 0.63470200 0.41445500 0.58124700
v 0.57000900 0.43167300 0.66240500
v 0.49642200 0.43167300 0.65792600
v 0.44205000 0.41445500 0.56952000
v 0.42766100 0.38659600 0.43095600
v 0.45875100 0.35873600 0.29516100
v 0.52344400 0.34151900 0.21400300
v 0.59703100 0.34151900 0.21848200
v 0.65140300 0.35873600 0.30688800
v 0.66579200 0.38659600 0.44545200
v 0.64965200 0.37906200 0.61451200
v 0.57360000 0.39930300 0.70991900
v 0.48709400 0.39930300 0.70465300
v 0.42317600 0.37906200 0.60072600
v 0.40626000 0.34631200 0.43783500
v 0.44280900 0.31356100 0.27819800
v 0.51886000 0.29332100 0.18279100
v 0.60536700 0.29332100 0.18805700
v 0.66928500 0.31356100 0.29198400
v 0.68620000 0.34631200 0.45487500
v 0.65442400 0.33609300 0.63220100
v 0.57445900 0.35737500 0.73251800
v 0.48350100 0.35737500 0.72698100
v 0.41629300 0.33609300 0.61770600
v 0.39850700 0.30165700 0.44643200
v 0.43693600 0.26722100 0.27857900
v 0.51690200 0.24593900 0.17826200
v 0.60786000 0.24593900 0.18379900
v 0.67506700 0.26722100 0.29307400
v 0.69285300 0.30165700 0.46434900
v 0.64855200 0.28975300 0.63258300
v 0.57250000 0.30999300 0.72799000
v 0.48599400 0.30999300 0.72272400
v 0.42207600 0.28975300 0.61879700
v 0.40516000 0.25700200 0.45590500
v 0.44170900 0.22425200 0.29626800
v 0.51776000 0.20401100 0.20086100
v 0.60426700 0.20401100 0.20612700
v 0.66818500 0.22425200 0.31005400
v 0.68510000 0.25700200 0.47294600
v 0.63261000 0.24457800 0.61562000
v 0.56791600 0.26179500 0.69677700
v 0.49433000 0.26179500 0.69229800
v 0.43995800 0.24457800 0.60389300
v 0.42556900 0.21671800 0.46532900
v 0.45665900 0.18885900 0.32953300
v 0.52135200 0.17164100 0.24837500
v 0.59493800 0.17164100 0.25285500
v 0.64931000 0.18885900 0.34126000
v 0.66370000 0.21671800 0.47982400
v 0.60815800 0.20499000 0.58297200
v 0.56115600 0.21749900 0.64193600
v 0.50769200 0.21749900 0.63868200
v 0.46818900 0.20499000 0.57445200
v 0.45773400 0.18474900 0.47377900
v 0.48032200 0.16450800 0.37511800
v 0.52732500 0.15199900 0.31615300
v 0.58078900 0.15199900 0.31940800
v 0.62029200 0.16450800 0.38363800
v 0.63074600 0.18474900 0.48431100
v 0.58946700 0.16422300 0.48596600
v 0.57759100 0.17486500 0.53783600
v 0.55288100 0.18144100 0.56883500
v 0.52477300 0.18144100 0.56712400
v 0.50400500 0.17486500 0.53335600
v 0.49850900 0.16422300 0.48043000
v 0.51038400 0.15358200 0.42856000
v 0.53509500 0.14700500 0.39756100
v 0.56320200 0.14700500 0.39927200
v 0.58397000 0.15358200 0.43304000
v 0.54390000 0.15715100 0.48462900
v 0.52344400 0.48225500 0.82069700
v 0.56338100 0.47841000 0.82076600
v 0.55404700 0.46091200 0.84879100
v 0.53307800 0.45009800 0.86518600
v 0.50848400 0.45009800 0.86368800
v 0.48965900 0.46091200 0.84487100
v 0.48379300 0.47841000 0.81592200
v 0.49312700 0.49590800 0.78789800
v 0.51409500 0.50672200 0.77150300
v 0.53869000 0.50672200 0.77300000
v 0.55751500 0.49590800 0.79181700
v 0.59969500 0.46725100 0.81612300
v 0.58194100 0.43396800 0.86942800
v 0.54205600 0.41339900 0.90061300
v 0.49527500 0.41339900 0.89776500
v 0.45946700 0.43396800 0.86197300
v 0.44831000 0.46725100 0.80690800
v 0.46606400 0.50053400 0.75360200
v 0.50594900 0.52110400 0.72241800
v 0.55273000 0.52110400 0.72526500
v 0.58853800 0.50053400 0.76105700
v 0.62883200 0.44987100 0.80722000
v 0.60439500 0.40406100 0.88058900
v 0.54949800 0.37574900 0.92351100
v 0.48511000 0.37574900 0.91959200
v 0.43582500 0.40406100 0.87032800
v 0.42046800 0.44987100 0.79453700
v 0.44490500 0.49568100 0.72116800
v 0.49980100 0.52399300 0.67824600
v 0.56418900 0.52399300 0.68216600
v 0.61347500 0.49568100 0.73142900
v 0.61921200 0.37411700 0.88118100
v 0.55467700 0.34083400 0.93163900
v 0.47898400 0.34083400 0.92703100
v 0.42104600 0.37411700 0.86911800
v 0.40299200 0.42797000 0.78002100
v 0.43171900 0.48182300 0.69377100
v 0.49625500 0.51510500 0.64331300
v 0.57194700 0.51510500 0.64792000
v 0.62988600 0.48182300 0.70583300
v 0.64793900 0.42797000 0.79493100
v 0.65514600 0.40369200 0.78045800
v 0.62494100 0.34706800 0.87114600
v 0.55708500 0.31207300 0.92420100
v 0.47749700 0.31207300 0.91935600
v 0.41657600 0.34706800 0.85846300
v 0.39759400 0.40369200 0.76478000
v 0.42779900 0.46031700 0.67409200
v 0.49565600 0.49531200 0.62103700
v 0.57524400 0.49531200 0.62588200
v 0.63616400 0.46031700 0.68677500
v 0.62102100 0.32556200 0.85146700
v 0.55648600 0.29228000 0.90192500
v 0.48079300 0.29228000 0.89731700
v 0.42285400 0.32556200 0.83940400
v 0.40480100 0.37941500 0.75030700
v 0.43352800 0.43326800 0.66405700
v 0.49806300 0.46655100 0.61359900
v 0.57375600 0.46655100 0.61820600
v 0.63169400 0.43326800 0.67611900
v 0.64974800 0.37941500 0.76521700
v 0.63227300 0.35751400 0.75070100
v 0.60783600 0.31170400 0.82406900
v 0.55293900 0.28339200 0.86699100
v 0.48855100 0.28339200 0.86307200
v 0.43926500 0.31170400 0.81380800
v 0.42390800 0.35751400 0.73801700
v 0.44834500 0.40332400 0.66464900
v 0.50324200 0.43163600 0.62172700
v 0.56763000 0.43163600 0.62564600
v 0.61691500 0.40332400 0.67491000
v 0.60443100 0.34013400 0.73833000
v 0.58667600 0.30685100 0.79163600
v 0.54679100 0.28628100 0.82282000
v 0.50001100 0.28628100 0.81997300
v 0.46420300 0.30685100 0.78418000
v 0.45304500 0.34013400 0.72911500
v 0.47079900 0.37341700 0.67581000
v 0.51068400 0.39398600 0.64462500
v 0.55746500 0.39398600 0.64747300
v 0.59327300 0.37341700 0.68326500
v 0.55961400 0.31147700 0.75734000
v 0.53864500 0.30066300 0.77373500
v 0.51405100 0.30066300 0.77223800
v 0.49522500 0.31147700 0.75342100
v 0.48935900 0.32897500 0.72447100
v 0.49869300 0.34647200 0.69644700
v 0.51966200 0.35728700 0.68005200
v 0.54425600 0.35728700 0.68154900
v 0.56308200 0.34647200 0.70036600
v 0.56894800 0.32897500 0.72931600
v 0.52929700 0.32513000 0.72454100
v 0.51405100 0.21899800 0.97500000
v 0.56491000 0.41083300 0.85267700
v 0.52108700 0.42133200 0.85940700
v 0.52407200 0.36635700 0.81037900
v 0.59313400 0.38334500 0.82978900
v 0.59497900 0.34936800 0.79948800
v 0.56973900 0.32188100 0.77334600
v 0.52705600 0.31138100 0.76135000
v 0.48323300 0.32188100 0.76808000
v 0.45500900 0.34936800 0.79096800
v 0.45316500 0.38334500 0.82126900
v 0.47840400 0.41083300 0.84741100
v 0.42213000 0.34559600 0.66503000
v 0.44847100 0.25771800 0.23231200
v 0.02500000 0.71128600 0.34050600
v 0.64289000 0.34559600 0.67846800
v 0.66923000 0.25771800 0.24575000
v 0.94454100 0.80892200 0.37665100
v 0.55885000 0.25771800 0.23903100
v 0.71850600 0.46925900 0.04291720
v 0.42416000 0.46925900 0.02500000
v 0.63976600 0.35206500 0.82768700
v 0.64089100 0.34992100 0.82819100
v 0.64029400 0.35100300 0.83231500
v 0.63924300 0.35213400 0.83472800
v 0.63813900 0.35288200 0.83450900
v 0.63740300 0.35296100 0.83174100
v 0.63731700 0.35234100 0.82748200
v 0.63791300 0.35125900 0.82335800
v 0.63896500 0.35012800 0.82094400
v 0.64006900 0.34938000 0.82116300
v 0.64080500 0.34930100 0.82393100
v 0.64058100 0.34611800 0.82894400
v 0.63944600 0.34817700 0.83678900
v 0.63744700 0.35032900 0.84137900
v 0.63534600 0.35175200 0.84096300
v 0.63394700 0.35190200 0.83569800
v 0.63378300 0.35072300 0.82759500
v 0.63491800 0.34866400 0.81975100
v 0.63691700 0.34651200 0.81516000
v 0.63901700 0.34508900 0.81557700
v 0.64041700 0.34493900 0.82084200
v 0.63886600 0.34103000 0.82987300
v 0.63730500 0.34386400 0.84067000
v 0.63455300 0.34682600 0.84698900
v 0.63166200 0.34878400 0.84641500
v 0.62973600 0.34899100 0.83916800
v 0.62951100 0.34736700 0.82801700
v 0.63107200 0.34453300 0.81722000
v 0.63382400 0.34157200 0.81090100
v 0.63671500 0.33961300 0.81147500
v 0.63864100 0.33940700 0.81872100
v 0.63591600 0.33515400 0.83088700
v 0.63408000 0.33848600 0.84358000
v 0.63084500 0.34196700 0.85100700
v 0.62744600 0.34427000 0.85033300
v 0.62518200 0.34451300 0.84181400
v 0.62491700 0.34260400 0.82870400
v 0.62675300 0.33927300 0.81601200
v 0.62998800 0.33579100 0.80858400
v 0.63338600 0.33348900 0.80925800
v 0.63565100 0.33324600 0.81777700
v 0.63201700 0.32906600 0.83188600
v 0.63008700 0.33256900 0.84523200
v 0.62668600 0.33623000 0.85304200
v 0.62311200 0.33865000 0.85233300
v 0.62073100 0.33890600 0.84337600
v 0.62045300 0.33689900 0.82959100
v 0.62238300 0.33339600 0.81624500
v 0.62578400 0.32973500 0.80843500
v 0.62935800 0.32731500 0.80914400
v 0.63173900 0.32705900 0.81810200
v 0.62755300 0.32336100 0.83277300
v 0.62571700 0.32669200 0.84546600
v 0.62248200 0.33017400 0.85289300
v 0.61908400 0.33247600 0.85221900
v 0.61682000 0.33271900 0.84370000
v 0.61655500 0.33081000 0.83059000
v 0.61839000 0.32747900 0.81789800
v 0.62162500 0.32399700 0.81047000
v 0.62502400 0.32169500 0.81114400
v 0.62728800 0.32145200 0.81966300
v 0.62296000 0.31859700 0.83346100
v 0.62139800 0.32143100 0.84425800
v 0.61864600 0.32439300 0.85057600
v 0.61575500 0.32635100 0.85000300
v 0.61382900 0.32655800 0.84275600
v 0.61360400 0.32493400 0.83160400
v 0.61516500 0.32210100 0.82080700
v 0.61791700 0.31913900 0.81448900
v 0.62080800 0.31718100 0.81506200
v 0.62273400 0.31697400 0.82230900
v 0.61868700 0.31524200 0.83388200
v 0.61755200 0.31730100 0.84172700
v 0.61555300 0.31945300 0.84631700
v 0.61345300 0.32087600 0.84590000
v 0.61205300 0.32102600 0.84063500
v 0.61189000 0.31984600 0.83253300
v 0.61302400 0.31778700 0.82468900
v 0.61502300 0.31563600 0.82009800
v 0.61712400 0.31421300 0.82051500
v 0.61852300 0.31406300 0.82578000
v 0.61515300 0.31362300 0.83399600
v 0.61455700 0.31470600 0.83812000
v 0.61350600 0.31583700 0.84053300
v 0.61240100 0.31658500 0.84031400
v 0.61166600 0.31666400 0.83754600
v 0.61157900 0.31604400 0.83328600
v 0.61217600 0.31496200 0.82916200
v 0.61322700 0.31383000 0.82674900
v 0.61433100 0.31308200 0.82696800
v 0.61506700 0.31300300 0.82973600
v 0.61270400 0.31390000 0.83379000
v 0.63509900 0.34233500 0.83164000
v 0.63597700 0.34066000 0.83203300
v 0.63551100 0.34150600 0.83525500
v 0.63469000 0.34239000 0.83714100
v 0.63382700 0.34297400 0.83696900
v 0.63325300 0.34303600 0.83480700
v 0.63318500 0.34255100 0.83147900
v 0.63365100 0.34170600 0.82825700
v 0.63447200 0.34082200 0.82637200
v 0.63533500 0.34023700 0.82654300
v 0.63591000 0.34017600 0.82870500
v 0.63573500 0.33769000 0.83262200
v 0.63484900 0.33929800 0.83875000
v 0.63328700 0.34097900 0.84233700
v 0.63164600 0.34209100 0.84201100
v 0.63055200 0.34220800 0.83789800
v 0.63042500 0.34128700 0.83156800
v 0.63131100 0.33967800 0.82543900
v 0.63287300 0.33799700 0.82185300
v 0.63451400 0.33688600 0.82217900
v 0.63560700 0.33676800 0.82629200
v 0.63439600 0.33371500 0.83334800
v 0.63317600 0.33592900 0.84178300
v 0.63102600 0.33824200 0.84671900
v 0.62876700 0.33977200 0.84627100
v 0.62726300 0.33993400 0.84060900
v 0.62708700 0.33866500 0.83189700
v 0.62830600 0.33645200 0.82346200
v 0.63045600 0.33413800 0.81852600
v 0.63271500 0.33260800 0.81897400
v 0.63422000 0.33244600 0.82463500
v 0.63209000 0.32912400 0.83413900
v 0.63065600 0.33172700 0.84405600
v 0.62812900 0.33444700 0.84985900
v 0.62547400 0.33624500 0.84933200
v 0.62370500 0.33643500 0.84267600
v 0.62349800 0.33494400 0.83243400
v 0.62493200 0.33234100 0.82251800
v 0.62745900 0.32962100 0.81671500
v 0.63011400 0.32782300 0.81724200
v 0.63188300 0.32763300 0.82389800
v 0.62904500 0.32436700 0.83492000
v 0.62753700 0.32710400 0.84534700
v 0.62488000 0.32996400 0.85144800
v 0.62208800 0.33185500 0.85089400
v 0.62022800 0.33205500 0.84389600
v 0.62001000 0.33048700 0.83312700
v 0.62151800 0.32775000 0.82270100
v 0.62417500 0.32489000 0.81659900
v 0.62696700 0.32299900 0.81715300
v 0.62882700 0.32280000 0.82415100
v 0.62555700 0.31991000 0.83561300
v 0.62412300 0.32251300 0.84552900
v 0.62159600 0.32523300 0.85133200
v 0.61894100 0.32703100 0.85080500
v 0.61717200 0.32722100 0.84415000
v 0.61696500 0.32573000 0.83390800
v 0.61839900 0.32312800 0.82399200
v 0.62092600 0.32040800 0.81818900
v 0.62358100 0.31860900 0.81871600
v 0.62535000 0.31841900 0.82537100
v 0.62196900 0.31618900 0.83615000
v 0.62074900 0.31840300 0.84458600
v 0.61859900 0.32071700 0.84952200
v 0.61634000 0.32224700 0.84907400
v 0.61483500 0.32240800 0.84341200
v 0.61465900 0.32114000 0.83470000
v 0.61587900 0.31892600 0.82626500
v 0.61802900 0.31661200 0.82132800
v 0.62028800 0.31508200 0.82177700
v 0.62179200 0.31492000 0.82743800
v 0.61863100 0.31356800 0.83647900
v 0.61774400 0.31517600 0.84260800
v 0.61618200 0.31685700 0.84619400
v 0.61454100 0.31796900 0.84586900
v 0.61344800 0.31808600 0.84175600
v 0.61332000 0.31716500 0.83542600
v 0.61420600 0.31555600 0.82929700
v 0.61576800 0.31387500 0.82571100
v 0.61740900 0.31276300 0.82603600
v 0.61850300 0.31264600 0.83015000
v 0.61587000 0.31230300 0.83656800
v 0.61540400 0.31314900 0.83979000
v 0.61458300 0.31403200 0.84167600
v 0.61372000 0.31461700 0.84150400
v 0.61314500 0.31467900 0.83934200
v 0.61307800 0.31419400 0.83601400
v 0.61354400 0.31334800 0.83279200
v 0.61436500 0.31246500 0.83090700
v 0.61522800 0.31188000 0.83107800
v 0.61580200 0.31181900 0.83324000
v 0.61395600 0.31251900 0.83640800
v 0.40713200 0.35206500 0.81352600
v 0.40958800 0.35234100 0.81362000
v 0.40898600 0.35296100 0.81783700
v 0.40792000 0.35288200 0.82049500
v 0.40679700 0.35213400 0.82057900
v 0.40604600 0.35100300 0.81805600
v 0.40595500 0.34992100 0.81389000
v 0.40655700 0.34930100 0.80967200
v 0.40762300 0.34938000 0.80701400
v 0.40874500 0.35012800 0.80693000
v 0.40949600 0.35125900 0.80945400
v 0.41308200 0.35072300 0.81416100
v 0.41193700 0.35190200 0.82218300
v 0.40990900 0.35175200 0.82724000
v 0.40777300 0.35032900 0.82739900
v 0.40634600 0.34817700 0.82260000
v 0.40617100 0.34611800 0.81467500
v 0.40731600 0.34493900 0.80665300
v 0.40934400 0.34508900 0.80159600
v 0.41148000 0.34651200 0.80143700
v 0.41290700 0.34866400 0.80623700
v 0.41727200 0.34736700 0.81509700
v 0.41569600 0.34899100 0.82613900
v 0.41290500 0.34878400 0.83309900
v 0.40996500 0.34682600 0.83331800
v 0.40800000 0.34386400 0.82671200
v 0.40776000 0.34103000 0.81580500
v 0.40933600 0.33940700 0.80476300
v 0.41212700 0.33961300 0.79780400
v 0.41506600 0.34157200 0.79758500
v 0.41703200 0.34453300 0.80419100
v 0.42174800 0.34260400 0.81633700
v 0.41989500 0.34451300 0.82931800
v 0.41661400 0.34427000 0.83749900
v 0.41315900 0.34196700 0.83775600
v 0.41084800 0.33848600 0.82999100
v 0.41056600 0.33515400 0.81716900
v 0.41241900 0.33324600 0.80418900
v 0.41570000 0.33348900 0.79600700
v 0.41915500 0.33579100 0.79575000
v 0.42146500 0.33927300 0.80351600
v 0.42607200 0.33689900 0.81775900
v 0.42412300 0.33890600 0.83140800
v 0.42067400 0.33865000 0.84001000
v 0.41704000 0.33623000 0.84028100
v 0.41461100 0.33256900 0.83211600
v 0.41431400 0.32906600 0.81863400
v 0.41626300 0.32705900 0.80498600
v 0.41971200 0.32731500 0.79638300
v 0.42334600 0.32973500 0.79611300
v 0.42577500 0.33339600 0.80427800
v 0.42982000 0.33081000 0.81922400
v 0.42796700 0.33271900 0.83220400
v 0.42468600 0.33247600 0.84038600
v 0.42123100 0.33017400 0.84064300
v 0.41892100 0.32669200 0.83287800
v 0.41863800 0.32336100 0.82005600
v 0.42049100 0.32145200 0.80707500
v 0.42377200 0.32169500 0.79889400
v 0.42722700 0.32399700 0.79863700
v 0.42953800 0.32747900 0.80640200
v 0.43262600 0.32493400 0.82058800
v 0.43105000 0.32655800 0.83163000
v 0.42825900 0.32635100 0.83858900
v 0.42531900 0.32439300 0.83880800
v 0.42335400 0.32143100 0.83220300
v 0.42311400 0.31859700 0.82129600
v 0.42469000 0.31697400 0.81025400
v 0.42748100 0.31718100 0.80329400
v 0.43042100 0.31913900 0.80307500
v 0.43238600 0.32210100 0.80968100
v 0.43421500 0.31984600 0.82171800
v 0.43307000 0.32102600 0.82974000
v 0.43104200 0.32087600 0.83479700
v 0.42890600 0.31945300 0.83495600
v 0.42747900 0.31730100 0.83015700
v 0.42730400 0.31524200 0.82223200
v 0.42844900 0.31406300 0.81421000
v 0.43047700 0.31421300 0.80915300
v 0.43261300 0.31563600 0.80899400
v 0.43404000 0.31778700 0.81379400
v 0.43443100 0.31604400 0.82250300
v 0.43382900 0.31666400 0.82672100
v 0.43276300 0.31658500 0.82937900
v 0.43164000 0.31583700 0.82946300
v 0.43089000 0.31470600 0.82694000
v 0.43079800 0.31362300 0.82277400
v 0.43140000 0.31300300 0.81855600
v 0.43246600 0.31308200 0.81589800
v 0.43358900 0.31383000 0.81581400
v 0.43434000 0.31496200 0.81833700
v 0.43325400 0.31390000 0.82286700
v 0.41128600 0.34233500 0.81801600
v 0.41320400 0.34255100 0.81808900
v 0.41273400 0.34303600 0.82138400
v 0.41190100 0.34297400 0.82346100
v 0.41102400 0.34239000 0.82352600
v 0.41043700 0.34150600 0.82155500
v 0.41036600 0.34066000 0.81830000
v 0.41083600 0.34017600 0.81500500
v 0.41166900 0.34023700 0.81292800
v 0.41254600 0.34082200 0.81286300
v 0.41313200 0.34170600 0.81483400
v 0.41593400 0.34128700 0.81851200
v 0.41503900 0.34220800 0.82477900
v 0.41345500 0.34209100 0.82873000
v 0.41178700 0.34097900 0.82885400
v 0.41067100 0.33929800 0.82510400
v 0.41053500 0.33769000 0.81891400
v 0.41143000 0.33676800 0.81264600
v 0.41301400 0.33688600 0.80869600
v 0.41468200 0.33799700 0.80857200
v 0.41579700 0.33967800 0.81232100
v 0.41920700 0.33866500 0.81924300
v 0.41797600 0.33993400 0.82787000
v 0.41579500 0.33977200 0.83330700
v 0.41349900 0.33824200 0.83347800
v 0.41196400 0.33592900 0.82831700
v 0.41177600 0.33371500 0.81979600
v 0.41300800 0.33244600 0.81117000
v 0.41518800 0.33260800 0.80573300
v 0.41748400 0.33413800 0.80556200
v 0.41902000 0.33645200 0.81072200
v 0.42270400 0.33494400 0.82021200
v 0.42125600 0.33643500 0.83035300
v 0.41869300 0.33624500 0.83674500
v 0.41599400 0.33444700 0.83694600
v 0.41418900 0.33172700 0.83087900
v 0.41396800 0.32912400 0.82086200
v 0.41541600 0.32763300 0.81072100
v 0.41797900 0.32782300 0.80432900
v 0.42067900 0.32962100 0.80412800
v 0.42248400 0.33234100 0.81019500
v 0.42608200 0.33048700 0.82132300
v 0.42456000 0.33205500 0.83198600
v 0.42186500 0.33185500 0.83870600
v 0.41902600 0.32996400 0.83891800
v 0.41712900 0.32710400 0.83253900
v 0.41689700 0.32436700 0.82200600
v 0.41841900 0.32280000 0.81134300
v 0.42111400 0.32299900 0.80462300
v 0.42395200 0.32489000 0.80441100
v 0.42585000 0.32775000 0.81079000
v 0.42901100 0.32573000 0.82246700
v 0.42756300 0.32722100 0.83260800
v 0.42500000 0.32703100 0.83900000
v 0.42230000 0.32523300 0.83920100
v 0.42049500 0.32251300 0.83313400
v 0.42027500 0.31991000 0.82311700
v 0.42172200 0.31841900 0.81297600
v 0.42428600 0.31860900 0.80658400
v 0.42698500 0.32040800 0.80638300
v 0.42879000 0.32312800 0.81245000
v 0.43120300 0.32114000 0.82353300
v 0.42997100 0.32240800 0.83215900
v 0.42779100 0.32224700 0.83759600
v 0.42549500 0.32071700 0.83776700
v 0.42395900 0.31840300 0.83260700
v 0.42377200 0.31618900 0.82408600
v 0.42500300 0.31492000 0.81545900
v 0.42718300 0.31508200 0.81002200
v 0.42948000 0.31661200 0.80985100
v 0.43101500 0.31892600 0.81501200
v 0.43244400 0.31716500 0.82441600
v 0.43154900 0.31808600 0.83068300
v 0.42996500 0.31796900 0.83463300
v 0.42829700 0.31685700 0.83475800
v 0.42718100 0.31517600 0.83100800
v 0.42704500 0.31356800 0.82481700
v 0.42794000 0.31264600 0.81855000
v 0.42952400 0.31276300 0.81460000
v 0.43119200 0.31387500 0.81447500
v 0.43230800 0.31555600 0.81822500
v 0.43261300 0.31419400 0.82502900
v 0.43214300 0.31467900 0.82832400
v 0.43131000 0.31461700 0.83040100
v 0.43043300 0.31403200 0.83046600
v 0.42984600 0.31314900 0.82849500
v 0.42977500 0.31230300 0.82524000
v 0.43024500 0.31181900 0.82194500
v 0.43107800 0.31188000 0.81986900
v 0.43195500 0.31246500 0.81980300
v 0.43254100 0.31334800 0.82177400
v 0.43169300 0.31251900 0.82531300
v 0.45816300 0.14069800 0.37274700
v 0.47208200 0.14070600 0.37203800
v 0.46989600 0.12683300 0.38082900
v 0.46325400 0.11798600 0.38611500
v 0.45469200 0.11754600 0.38587700
v 0.44748200 0.12568100 0.38020600
v 0.44437700 0.13928200 0.37126700
v 0.44656400 0.15315600 0.36247600
v 0.45320600 0.16200200 0.35718900
v 0.46176700 0.16244200 0.35742800
v 0.46897700 0.15430800 0.36309900
v 0.48477200 0.13930400 0.36920800
v 0.48061400 0.11291500 0.38593000
v 0.46797900 0.09608900 0.39598500
v 0.45169500 0.09525220 0.39553200
v 0.43798000 0.11072500 0.38474400
v 0.43207400 0.13659600 0.36774200
v 0.43623300 0.16298500 0.35102000
v 0.44886700 0.17981200 0.34096500
v 0.46515200 0.18064800 0.34141800
v 0.47886600 0.16517600 0.35220600
v 0.49499100 0.13663000 0.36453500
v 0.48926700 0.10030900 0.38755100
v 0.47187700 0.07714970 0.40139100
v 0.44946300 0.07599790 0.40076700
v 0.43058700 0.09729390 0.38591900
v 0.42245800 0.13290300 0.36251700
v 0.42818200 0.16922400 0.33950100
v 0.44557200 0.19238400 0.32566200
v 0.46798600 0.19353600 0.32628500
v 0.48686200 0.17224000 0.34113300
v 0.50173800 0.13294600 0.35847600
v 0.49500900 0.09024810 0.38553400
v 0.47456600 0.06302240 0.40180300
v 0.44821700 0.06166850 0.40107000
v 0.42602600 0.08670340 0.38361500
v 0.41647000 0.12856500 0.35610400
v 0.42319900 0.17126300 0.32904700
v 0.44364200 0.19848800 0.31277800
v 0.46999100 0.19984200 0.31351100
v 0.49218200 0.17480700 0.33096600
v 0.50435200 0.12861200 0.35162500
v 0.49727700 0.08371680 0.38007400
v 0.47578200 0.05509000 0.39718100
v 0.44807700 0.05366640 0.39641000
v 0.42474500 0.07998970 0.37805700
v 0.41469700 0.12400500 0.34913100
v 0.42177200 0.16890100 0.32068100
v 0.44326700 0.19752700 0.30357500
v 0.47097200 0.19895100 0.30434500
v 0.49430500 0.17262800 0.32269900
v 0.50257900 0.12405300 0.34465100
v 0.49585000 0.08135470 0.37170800
v 0.47540700 0.05412900 0.38797800
v 0.44905800 0.05277510 0.38724500
v 0.42686800 0.07781000 0.36979000
v 0.41731200 0.11967100 0.34227900
v 0.42404100 0.16236900 0.31522200
v 0.44448400 0.18959500 0.29895300
v 0.47083300 0.19094900 0.29968600
v 0.49302300 0.16591400 0.31714100
v 0.49659100 0.11971400 0.33823800
v 0.49086800 0.08339300 0.36125500
v 0.47347800 0.06023350 0.37509400
v 0.45106400 0.05908170 0.37447100
v 0.43218800 0.08037770 0.35962200
v 0.42405900 0.11598700 0.33622100
v 0.42978300 0.15230800 0.31320400
v 0.44717300 0.17546800 0.29936500
v 0.46958600 0.17661900 0.29998800
v 0.48846300 0.15532300 0.31483700
v 0.48697500 0.11602100 0.33301400
v 0.48281700 0.08963220 0.34973600
v 0.47018200 0.07280580 0.35979100
v 0.45389800 0.07196900 0.35933800
v 0.44018300 0.08744150 0.34855000
v 0.43427700 0.11331300 0.33154800
v 0.43843600 0.13970200 0.31482500
v 0.45107000 0.15652800 0.30477000
v 0.46735500 0.15736500 0.30522300
v 0.48107000 0.14189300 0.31601100
v 0.47467200 0.11333500 0.32948900
v 0.47248600 0.09946160 0.33828000
v 0.46584400 0.09061540 0.34356600
v 0.45728200 0.09017550 0.34332800
v 0.45007200 0.09830980 0.33765700
v 0.44696700 0.11191100 0.32871800
v 0.44915400 0.12578500 0.31992700
v 0.45579600 0.13463100 0.31464000
v 0.46435700 0.13507100 0.31487800
v 0.47156700 0.12693700 0.32055000
v 0.46088600 0.11191900 0.32800900
v 0.46863300 0.23711100 0.44833500
v 0.46542100 0.22783200 0.45410800
v 0.47617200 0.15744600 0.32449300
v 0.47296000 0.14816700 0.33026600
v 0.45777200 0.15650300 0.32397900
v 0.45023400 0.23616900 0.44782100
v 0.45640800 0.22173700 0.45748000
v 0.46394700 0.14207200 0.33363800
v 0.44503700 0.22115500 0.45716300
v 0.45257500 0.14149000 0.33332100
v 0.43565000 0.22630700 0.45327700
v 0.44318900 0.14664200 0.32943500
v 0.43183400 0.23522600 0.44730700
v 0.43937300 0.15556100 0.32346500
v 0.43504600 0.24450500 0.44153400
v 0.44258500 0.16484000 0.31769200
v 0.44405900 0.25060000 0.43816200
v 0.45159800 0.17093500 0.31432000
v 0.45543100 0.25118200 0.43847900
v 0.46296900 0.17151700 0.31463700
v 0.46481700 0.24603000 0.44236500
v 0.47235600 0.16636500 0.31852300
v 0.44924200 0.02500000 0.41674700
v 0.45133900 0.03537100 0.41020600
v 0.45130500 0.03485150 0.40940200
v 0.45110700 0.03435870 0.40864900
v 0.45075900 0.03392680 0.40799700
v 0.45028400 0.03358440 0.40749100
v 0.44971500 0.03335520 0.40716400
v 0.44909100 0.03325520 0.40704200
v 0.44845400 0.03329050 0.40712900
v 0.44784700 0.03345950 0.40742200
v 0.44731200 0.03375030 0.40790100
v 0.44688600 0.03414260 0.40853100
v 0.44659700 0.03461030 0.40927100
v 0.44646500 0.03512130 0.41007000
v 0.44649900 0.03564080 0.41087400
v 0.44669700 0.03613360 0.41162700
v 0.44704600 0.03656550 0.41227900
v 0.44752000 0.03690790 0.41278600
v 0.44808900 0.03713720 0.41311200
v 0.44871400 0.03723710 0.41323400
v 0.44935100 0.03720180 0.41314700
v 0.44995800 0.03703280 0.41285400
v 0.45049200 0.03674200 0.41237500
v 0.45091900 0.03634970 0.41174500
v 0.45120800 0.03588200 0.41100500
v 0.45343600 0.04574810 0.40366100
v 0.45336800 0.04470930 0.40205400
v 0.45297200 0.04372370 0.40054700
v 0.45227500 0.04285970 0.39924300
v 0.45132500 0.04217490 0.39823000
v 0.45018700 0.04171650 0.39757800
v 0.44893900 0.04151650 0.39733200
v 0.44766500 0.04158730 0.39750800
v 0.44645100 0.04192530 0.39809400
v 0.44538200 0.04250670 0.39905100
v 0.44452900 0.04329130 0.40031100
v 0.44395100 0.04422700 0.40179100
v 0.44368700 0.04524890 0.40338900
v 0.44375600 0.04628770 0.40499600
v 0.44415200 0.04727330 0.40650400
v 0.44484900 0.04813730 0.40780700
v 0.44579800 0.04882210 0.40882000
v 0.44693700 0.04928050 0.40947200
v 0.44818500 0.04948050 0.40971800
v 0.44945900 0.04940970 0.40954300
v 0.45067300 0.04907170 0.40895600
v 0.45174200 0.04849030 0.40800000
v 0.45259500 0.04770570 0.40673900
v 0.45317300 0.04677000 0.40525900
v 0.45553400 0.05610670 0.39712800
v 0.45543100 0.05454800 0.39471700
v 0.45483700 0.05307000 0.39245600
v 0.45379200 0.05177320 0.39050000
v 0.45236700 0.05074690 0.38898200
v 0.45066100 0.05005930 0.38800400
v 0.44878700 0.04975930 0.38763500
v 0.44687600 0.04986540 0.38789800
v 0.44505600 0.05037240 0.38877800
v 0.44345100 0.05124360 0.39021100
v 0.44217300 0.05242150 0.39210300
v 0.44130500 0.05382450 0.39432300
v 0.44091100 0.05535780 0.39672000
v 0.44101300 0.05691650 0.39913100
v 0.44160800 0.05839450 0.40139200
v 0.44265200 0.05969140 0.40334900
v 0.44407700 0.06071760 0.40486700
v 0.44578400 0.06140520 0.40584500
v 0.44765700 0.06170520 0.40621400
v 0.44956800 0.06159910 0.40595100
v 0.45138800 0.06109210 0.40507100
v 0.45299300 0.06022100 0.40363800
v 0.45427100 0.05904300 0.40174600
v 0.45513900 0.05764000 0.39952600
v 0.45763100 0.06648080 0.39058600
v 0.45749300 0.06440210 0.38737000
v 0.45670100 0.06243190 0.38435600
v 0.45530800 0.06070300 0.38174800
v 0.45340900 0.05933430 0.37972300
v 0.45113400 0.05841850 0.37842100
v 0.44863600 0.05801750 0.37792800
v 0.44608600 0.05816000 0.37828000
v 0.44366000 0.05883510 0.37945100
v 0.44152100 0.05999690 0.38136200
v 0.43981600 0.06156710 0.38388500
v 0.43866100 0.06343760 0.38684400
v 0.43813300 0.06548220 0.39004100
v 0.43827100 0.06756090 0.39325700
v 0.43906300 0.06953110 0.39627000
v 0.44045500 0.07126000 0.39887900
v 0.44235500 0.07262870 0.40090300
v 0.44463000 0.07354450 0.40220600
v 0.44712800 0.07394550 0.40269900
v 0.44967700 0.07380300 0.40234700
v 0.45210300 0.07312790 0.40117600
v 0.45424200 0.07196610 0.39926400
v 0.45594700 0.07039590 0.39674200
v 0.45710300 0.06852540 0.39378300
v 0.45972700 0.07685480 0.38404300
v 0.45955600 0.07425720 0.38002400
v 0.45856600 0.07179370 0.37625600
v 0.45682400 0.06963290 0.37299600
v 0.45445000 0.06792180 0.37046500
v 0.45160500 0.06677680 0.36883600
v 0.44848400 0.06627580 0.36822000
v 0.44529800 0.06645370 0.36866000
v 0.44226500 0.06729770 0.37012500
v 0.43959100 0.06875030 0.37251400
v 0.43746000 0.07071280 0.37566700
v 0.43601500 0.07305160 0.37936700
v 0.43535600 0.07560670 0.38336200
v 0.43552700 0.07820430 0.38738100
v 0.43651700 0.08066780 0.39114900
v 0.43825900 0.08282860 0.39440900
v 0.44063300 0.08453970 0.39694000
v 0.44347800 0.08568480 0.39856900
v 0.44659900 0.08618570 0.39918500
v 0.44978500 0.08600780 0.39874500
v 0.45281900 0.08516380 0.39728000
v 0.45549200 0.08371120 0.39489100
v 0.45762300 0.08174870 0.39173800
v 0.45906800 0.07940990 0.38803800
v 0.44754200 0.07623070 0.38370200
v 0.47608200 0.02553060 0.41618900
v 0.47817900 0.03590160 0.40964800
v 0.47814500 0.03538210 0.40884400
v 0.47794700 0.03488940 0.40809000
v 0.47759800 0.03445740 0.40743900
v 0.47712400 0.03411500 0.40693200
v 0.47655500 0.03388580 0.40660600
v 0.47593000 0.03378580 0.40648300
v 0.47529300 0.03382120 0.40657100
v 0.47468700 0.03399020 0.40686400
v 0.47415200 0.03428090 0.40734200
v 0.47372600 0.03467320 0.40797300
v 0.47343600 0.03514090 0.40871300
v 0.47330500 0.03565200 0.40951200
v 0.47333900 0.03617150 0.41031500
v 0.47353700 0.03666420 0.41106900
v 0.47388600 0.03709620 0.41172100
v 0.47436000 0.03743860 0.41222700
v 0.47492900 0.03766780 0.41255300
v 0.47555400 0.03776780 0.41267600
v 0.47619100 0.03773240 0.41258900
v 0.47679700 0.03756340 0.41229500
v 0.47733200 0.03727270 0.41181700
v 0.47775800 0.03688040 0.41118700
v 0.47804800 0.03641260 0.41044700
v 0.48027600 0.04627880 0.40310300
v 0.48020800 0.04523990 0.40149600
v 0.47981100 0.04425430 0.39998800
v 0.47911400 0.04339030 0.39868500
v 0.47816500 0.04270550 0.39767200
v 0.47702700 0.04224710 0.39702000
v 0.47577800 0.04204710 0.39677400
v 0.47450400 0.04211790 0.39694900
v 0.47329100 0.04245590 0.39753600
v 0.47222200 0.04303740 0.39849200
v 0.47136900 0.04382190 0.39975300
v 0.47079100 0.04475760 0.40123300
v 0.47052700 0.04577950 0.40283100
v 0.47059500 0.04681830 0.40443800
v 0.47099200 0.04780390 0.40594500
v 0.47168900 0.04866790 0.40724900
v 0.47263800 0.04935270 0.40826200
v 0.47377600 0.04981110 0.40891400
v 0.47502500 0.05001110 0.40916000
v 0.47629900 0.04994030 0.40898400
v 0.47751200 0.04960230 0.40839800
v 0.47858100 0.04902090 0.40744100
v 0.47943400 0.04823630 0.40618100
v 0.48001300 0.04730060 0.40470100
v 0.48237300 0.05663730 0.39657000
v 0.48227100 0.05507860 0.39415900
v 0.48167600 0.05360070 0.39189800
v 0.48063200 0.05230380 0.38994100
v 0.47920700 0.05127750 0.38842300
v 0.47750000 0.05058990 0.38744500
v 0.47562700 0.05028990 0.38707700
v 0.47371500 0.05039610 0.38734000
v 0.47189600 0.05090310 0.38821900
v 0.47029100 0.05177420 0.38965200
v 0.46901300 0.05295210 0.39154400
v 0.46814500 0.05435520 0.39376400
v 0.46775000 0.05588840 0.39616200
v 0.46785300 0.05744720 0.39857300
v 0.46844700 0.05892510 0.40083400
v 0.46949200 0.06022200 0.40279100
v 0.47091700 0.06124830 0.40430800
v 0.47262300 0.06193590 0.40528700
v 0.47449700 0.06223590 0.40565500
v 0.47640800 0.06212970 0.40539200
v 0.47822800 0.06162270 0.40451300
v 0.47983300 0.06075160 0.40307900
v 0.48111100 0.05957370 0.40118700
v 0.48197800 0.05817060 0.39896800
v 0.48447000 0.06701140 0.39002700
v 0.48433300 0.06493270 0.38681200
v 0.48354100 0.06296250 0.38379800
v 0.48214800 0.06123360 0.38118900
v 0.48024900 0.05986500 0.37916500
v 0.47797300 0.05894920 0.37786200
v 0.47547500 0.05854810 0.37736900
v 0.47292600 0.05869070 0.37772100
v 0.47050000 0.05936570 0.37889300
v 0.46836100 0.06052760 0.38080400
v 0.46665600 0.06209780 0.38332600
v 0.46550100 0.06396820 0.38628600
v 0.46497300 0.06601290 0.38948300
v 0.46511000 0.06809160 0.39269800
v 0.46590200 0.07006180 0.39571200
v 0.46729500 0.07179060 0.39832100
v 0.46919400 0.07315930 0.40034500
v 0.47147000 0.07407510 0.40164800
v 0.47396800 0.07447610 0.40214100
v 0.47651700 0.07433360 0.40178900
v 0.47894300 0.07365860 0.40061700
v 0.48108200 0.07249670 0.39870600
v 0.48278700 0.07092650 0.39618400
v 0.48394200 0.06905600 0.39322400
v 0.48656700 0.07738550 0.38348400
v 0.48639600 0.07478780 0.37946600
v 0.48540500 0.07232430 0.37569800
v 0.48366400 0.07016350 0.37243700
v 0.48129000 0.06845240 0.36990700
v 0.47844500 0.06730740 0.36827800
v 0.47532300 0.06680640 0.36766200
v 0.47213800 0.06698430 0.36810200
v 0.46910400 0.06782830 0.36956600
v 0.46643100 0.06928090 0.37195600
v 0.46429900 0.07124340 0.37510800
v 0.46285500 0.07358220 0.37880900
v 0.46219500 0.07613730 0.38280400
v 0.46236700 0.07873490 0.38682200
v 0.46335700 0.08119840 0.39059100
v 0.46509800 0.08335920 0.39385100
v 0.46747200 0.08507030 0.39638200
v 0.47031800 0.08621540 0.39801000
v 0.47343900 0.08671640 0.39862600
v 0.47662500 0.08653840 0.39818700
v 0.47965800 0.08569440 0.39672200
v 0.48233200 0.08424180 0.39433200
v 0.48446300 0.08227930 0.39118000
v 0.48590800 0.07994050 0.38748000
v 0.47438100 0.07676140 0.38314400
v 0.64212900 0.14069800 0.38394500
v 0.65604800 0.14070600 0.38323600
v 0.65386200 0.12683300 0.39202700
v 0.64722000 0.11798600 0.39731400
v 0.63865800 0.11754600 0.39707500
v 0.63144800 0.12568100 0.39140400
v 0.62834300 0.13928200 0.38246500
v 0.63053000 0.15315600 0.37367400
v 0.63717200 0.16200200 0.36838800
v 0.64573300 0.16244200 0.36862600
v 0.65294300 0.15430800 0.37429700
v 0.66873800 0.13930400 0.38040600
v 0.66458000 0.11291500 0.39712900
v 0.65194500 0.09608900 0.40718400
v 0.63566100 0.09525220 0.40673100
v 0.62194600 0.11072500 0.39594300
v 0.61604000 0.13659600 0.37894000
v 0.62019900 0.16298500 0.36221800
v 0.63283300 0.17981200 0.35216300
v 0.64911800 0.18064800 0.35261600
v 0.66283200 0.16517600 0.36340400
v 0.67895700 0.13663000 0.37573300
v 0.67323300 0.10030900 0.39875000
v 0.65584300 0.07714970 0.41258900
v 0.63342900 0.07599790 0.41196600
v 0.61455300 0.09729390 0.39711700
v 0.60642400 0.13290300 0.37371600
v 0.61214800 0.16922400 0.35069900
v 0.62953800 0.19238400 0.33686000
v 0.65195200 0.19353600 0.33748300
v 0.67082800 0.17224000 0.35233200
v 0.68570400 0.13294600 0.36967500
v 0.67897500 0.09024810 0.39673200
v 0.65853200 0.06302240 0.41300100
v 0.63218300 0.06166850 0.41226800
v 0.60999300 0.08670340 0.39481300
v 0.60043700 0.12856500 0.36730300
v 0.60716500 0.17126300 0.34024500
v 0.62760800 0.19848800 0.32397600
v 0.65395700 0.19984200 0.32470900
v 0.67614800 0.17480700 0.34216400
v 0.68831800 0.12861200 0.36282300
v 0.68124400 0.08371680 0.39127300
v 0.65974800 0.05509000 0.40837900
v 0.63204300 0.05366640 0.40760900
v 0.60871100 0.07998970 0.38925500
v 0.59866300 0.12400500 0.36032900
v 0.60573800 0.16890100 0.33187900
v 0.62723300 0.19752700 0.31477300
v 0.65493800 0.19895100 0.31554400
v 0.67827100 0.17262800 0.33389700
v 0.68654500 0.12405300 0.35585000
v 0.67981700 0.08135470 0.38290700
v 0.65937400 0.05412900 0.39917600
v 0.63302500 0.05277510 0.39844300
v 0.61083400 0.07781000 0.38098800
v 0.60127800 0.11967100 0.35347800
v 0.60800700 0.16236900 0.32642000
v 0.62845000 0.18959500 0.31015100
v 0.65479900 0.19094900 0.31088400
v 0.67698900 0.16591400 0.32833900
v 0.68055800 0.11971400 0.34943700
v 0.67483400 0.08339300 0.37245300
v 0.65744400 0.06023350 0.38629200
v 0.63503000 0.05908170 0.38566900
v 0.61615400 0.08037770 0.37082100
v 0.60802500 0.11598700 0.34741900
v 0.61374900 0.15230800 0.32440300
v 0.63113900 0.17546800 0.31056300
v 0.65355300 0.17661900 0.31118700
v 0.67242900 0.15532300 0.32603500
v 0.67094200 0.11602100 0.34421200
v 0.66678300 0.08963220 0.36093400
v 0.65414800 0.07280580 0.37098900
v 0.63786400 0.07196900 0.37053600
v 0.62414900 0.08744150 0.35974800
v 0.61824400 0.11331300 0.34274600
v 0.62240200 0.13970200 0.32602400
v 0.63503700 0.15652800 0.31596900
v 0.65132100 0.15736500 0.31642200
v 0.66503600 0.14189300 0.32721000
v 0.65863800 0.11333500 0.34068700
v 0.65645200 0.09946160 0.34947800
v 0.64981000 0.09061540 0.35476500
v 0.64124900 0.09017550 0.35452600
v 0.63403800 0.09830980 0.34885500
v 0.63093300 0.11191100 0.33991600
v 0.63312000 0.12578500 0.33112500
v 0.63976200 0.13463100 0.32583900
v 0.64832300 0.13507100 0.32607700
v 0.65553400 0.12693700 0.33174800
v 0.64485300 0.11191900 0.33920700
v 0.65259900 0.23711100 0.45953300
v 0.64938700 0.22783200 0.46530600
v 0.66013800 0.15744600 0.33569100
v 0.65692600 0.14816700 0.34146500
v 0.64173800 0.15650300 0.33517700
v 0.63420000 0.23616900 0.45901900
v 0.64037400 0.22173700 0.46867800
v 0.64791300 0.14207200 0.34483700
v 0.62900300 0.22115500 0.46836100
v 0.63654100 0.14149000 0.34451900
v 0.61961700 0.22630700 0.46447500
v 0.62715500 0.14664200 0.34063300
v 0.61580100 0.23522600 0.45850500
v 0.62333900 0.15556100 0.33466400
v 0.61901300 0.24450500 0.45273200
v 0.62655100 0.16484000 0.32889000
v 0.62802600 0.25060000 0.44936000
v 0.63556400 0.17093500 0.32551800
v 0.63939700 0.25118200 0.44967700
v 0.64693500 0.17151700 0.32583600
v 0.64878300 0.24603000 0.45356300
v 0.65632200 0.16636500 0.32972100
v 0.63320900 0.02500000 0.42794500
v 0.63530600 0.03537100 0.42140400
v 0.63527100 0.03485150 0.42060100
v 0.63507300 0.03435870 0.41984700
v 0.63472500 0.03392680 0.41919500
v 0.63425000 0.03358440 0.41868900
v 0.63368100 0.03335520 0.41836300
v 0.63305700 0.03325520 0.41824000
v 0.63242000 0.03329050 0.41832800
v 0.63181300 0.03345950 0.41862100
v 0.63127900 0.03375030 0.41909900
v 0.63085200 0.03414260 0.41972900
v 0.63056300 0.03461030 0.42046900
v 0.63043100 0.03512130 0.42126800
v 0.63046500 0.03564080 0.42207200
v 0.63066400 0.03613360 0.42282600
v 0.63101200 0.03656550 0.42347700
v 0.63148700 0.03690790 0.42398400
v 0.63205600 0.03713720 0.42431000
v 0.63268000 0.03723710 0.42443300
v 0.63331700 0.03720180 0.42434500
v 0.63392400 0.03703280 0.42405200
v 0.63445800 0.03674200 0.42357400
v 0.63488500 0.03634970 0.42294300
v 0.63517400 0.03588200 0.42220300
v 0.63740200 0.04574810 0.41486000
v 0.63733400 0.04470930 0.41325200
v 0.63693800 0.04372370 0.41174500
v 0.63624100 0.04285970 0.41044100
v 0.63529200 0.04217490 0.40942800
v 0.63415300 0.04171650 0.40877600
v 0.63290500 0.04151650 0.40853100
v 0.63163100 0.04158730 0.40870600
v 0.63041700 0.04192530 0.40929200
v 0.62934800 0.04250670 0.41024900
v 0.62849500 0.04329130 0.41150900
v 0.62791700 0.04422700 0.41298900
v 0.62765400 0.04524890 0.41458700
v 0.62772200 0.04628770 0.41619400
v 0.62811800 0.04727330 0.41770200
v 0.62881500 0.04813730 0.41900600
v 0.62976400 0.04882210 0.42001800
v 0.63090300 0.04928050 0.42067100
v 0.63215100 0.04948050 0.42091600
v 0.63342500 0.04940970 0.42074100
v 0.63463900 0.04907170 0.42015500
v 0.63570800 0.04849030 0.41919800
v 0.63656100 0.04770570 0.41793800
v 0.63713900 0.04677000 0.41645700
v 0.63950000 0.05610670 0.40832700
v 0.63939800 0.05454800 0.40591500
v 0.63880300 0.05307000 0.40365500
v 0.63775800 0.05177320 0.40169800
v 0.63633400 0.05074690 0.40018000
v 0.63462700 0.05005930 0.39920200
v 0.63275400 0.04975930 0.39883300
v 0.63084200 0.04986540 0.39909600
v 0.62902200 0.05037240 0.39997600
v 0.62741800 0.05124360 0.40140900
v 0.62613900 0.05242150 0.40330100
v 0.62527200 0.05382450 0.40552100
v 0.62487700 0.05535780 0.40791800
v 0.62497900 0.05691650 0.41033000
v 0.62557400 0.05839450 0.41259000
v 0.62661800 0.05969140 0.41454700
v 0.62804300 0.06071760 0.41606500
v 0.62975000 0.06140520 0.41704300
v 0.63162300 0.06170520 0.41741200
v 0.63353500 0.06159910 0.41714900
v 0.63535400 0.06109210 0.41626900
v 0.63695900 0.06022100 0.41483600
v 0.63823700 0.05904300 0.41294400
v 0.63910500 0.05764000 0.41072400
v 0.64159700 0.06648080 0.40178400
v 0.64145900 0.06440210 0.39856800
v 0.64066700 0.06243190 0.39555400
v 0.63927500 0.06070300 0.39294600
v 0.63737500 0.05933430 0.39092200
v 0.63510000 0.05841850 0.38961900
v 0.63260200 0.05801750 0.38912600
v 0.63005200 0.05816000 0.38947800
v 0.62762600 0.05883510 0.39064900
v 0.62548700 0.05999690 0.39256100
v 0.62378200 0.06156710 0.39508300
v 0.62262700 0.06343760 0.39804200
v 0.62209900 0.06548220 0.40123900
v 0.62223700 0.06756090 0.40445500
v 0.62302900 0.06953110 0.40746900
v 0.62442100 0.07126000 0.41007700
v 0.62632100 0.07262870 0.41210200
v 0.62859600 0.07354450 0.41340400
v 0.63109400 0.07394550 0.41389700
v 0.63364400 0.07380300 0.41354500
v 0.63607000 0.07312790 0.41237400
v 0.63820900 0.07196610 0.41046200
v 0.63991300 0.07039590 0.40794000
v 0.64106900 0.06852540 0.40498100
v 0.64369400 0.07685480 0.39524100
v 0.64352200 0.07425720 0.39122300
v 0.64253200 0.07179370 0.38745400
v 0.64079100 0.06963290 0.38419400
v 0.63841700 0.06792180 0.38166300
v 0.63557100 0.06677680 0.38003400
v 0.63245000 0.06627580 0.37941800
v 0.62926400 0.06645370 0.37985800
v 0.62623100 0.06729770 0.38132300
v 0.62355700 0.06875030 0.38371300
v 0.62142600 0.07071280 0.38686500
v 0.61998100 0.07305160 0.39056500
v 0.61932200 0.07560670 0.39456000
v 0.61949300 0.07820430 0.39857900
v 0.62048400 0.08066780 0.40234700
v 0.62222500 0.08282860 0.40560800
v 0.62459900 0.08453970 0.40813800
v 0.62744400 0.08568480 0.40976700
v 0.63056600 0.08618570 0.41038300
v 0.63375100 0.08600780 0.40994300
v 0.63678500 0.08516380 0.40847800
v 0.63945800 0.08371120 0.40608900
v 0.64159000 0.08174870 0.40293700
v 0.64303400 0.07940990 0.39923600
v 0.63150800 0.07623070 0.39490100
v 0.66004800 0.02553060 0.42738700
v 0.66214500 0.03590160 0.42084600
v 0.66211100 0.03538210 0.42004200
v 0.66191300 0.03488940 0.41928900
v 0.66156400 0.03445740 0.41863700
v 0.66109000 0.03411500 0.41813100
v 0.66052100 0.03388580 0.41780400
v 0.65989700 0.03378580 0.41768200
v 0.65925900 0.03382120 0.41776900
v 0.65865300 0.03399020 0.41806200
v 0.65811800 0.03428090 0.41854100
v 0.65769200 0.03467320 0.41917100
v 0.65740300 0.03514090 0.41991100
v 0.65727100 0.03565200 0.42071000
v 0.65730500 0.03617150 0.42151400
v 0.65750300 0.03666420 0.42226700
v 0.65785200 0.03709620 0.42291900
v 0.65832600 0.03743860 0.42342500
v 0.65889500 0.03766780 0.42375200
v 0.65952000 0.03776780 0.42387400
v 0.66015700 0.03773240 0.42378700
v 0.66076400 0.03756340 0.42349400
v 0.66129800 0.03727270 0.42301500
v 0.66172500 0.03688040 0.42238500
v 0.66201400 0.03641260 0.42164500
v 0.66424200 0.04627880 0.41430100
v 0.66417400 0.04523990 0.41269400
v 0.66377700 0.04425430 0.41118700
v 0.66308000 0.04339030 0.40988300
v 0.66213100 0.04270550 0.40887000
v 0.66099300 0.04224710 0.40821800
v 0.65974500 0.04204710 0.40797200
v 0.65847100 0.04211790 0.40814800
v 0.65725700 0.04245590 0.40873400
v 0.65618800 0.04303740 0.40969000
v 0.65533500 0.04382190 0.41095100
v 0.65475700 0.04475760 0.41243100
v 0.65449300 0.04577950 0.41402900
v 0.65456200 0.04681830 0.41563600
v 0.65495800 0.04780390 0.41714400
v 0.65565500 0.04866790 0.41844700
v 0.65660400 0.04935270 0.41946000
v 0.65774200 0.04981110 0.42011200
v 0.65899100 0.05001110 0.42035800
v 0.66026500 0.04994030 0.42018300
v 0.66147900 0.04960230 0.41959600
v 0.66254700 0.04902090 0.41864000
v 0.66340100 0.04823630 0.41737900
v 0.66397900 0.04730060 0.41589900
v 0.66634000 0.05663730 0.40776800
v 0.66623700 0.05507860 0.40535700
v 0.66564200 0.05360070 0.40309600
v 0.66459800 0.05230380 0.40113900
v 0.66317300 0.05127750 0.39962200
v 0.66146700 0.05058990 0.39864400
v 0.65959300 0.05028990 0.39827500
v 0.65768200 0.05039610 0.39853800
v 0.65586200 0.05090310 0.39941800
v 0.65425700 0.05177420 0.40085100
v 0.65297900 0.05295210 0.40274300
v 0.65211100 0.05435520 0.40496300
v 0.65171600 0.05588840 0.40736000
v 0.65181900 0.05744720 0.40977100
v 0.65241400 0.05892510 0.41203200
v 0.65345800 0.06022200 0.41398900
v 0.65488300 0.06124830 0.41550700
v 0.65658900 0.06193590 0.41648500
v 0.65846300 0.06223590 0.41685400
v 0.66037400 0.06212970 0.41659100
v 0.66219400 0.06162270 0.41571100
v 0.66379900 0.06075160 0.41427800
v 0.66507700 0.05957370 0.41238600
v 0.66594500 0.05817060 0.41016600
v 0.66843600 0.06701140 0.40122600
v 0.66829900 0.06493270 0.39801000
v 0.66750700 0.06296250 0.39499600
v 0.66611400 0.06123360 0.39238800
v 0.66421500 0.05986500 0.39036300
v 0.66193900 0.05894920 0.38906100
v 0.65944100 0.05854810 0.38856800
v 0.65689200 0.05869070 0.38892000
v 0.65446600 0.05936570 0.39009100
v 0.65232700 0.06052760 0.39200200
v 0.65062200 0.06209780 0.39452500
v 0.64946700 0.06396820 0.39748400
v 0.64893900 0.06601290 0.40068100
v 0.64907700 0.06809160 0.40389700
v 0.64986800 0.07006180 0.40691000
v 0.65126100 0.07179060 0.40951900
v 0.65316100 0.07315930 0.41154300
v 0.65543600 0.07407510 0.41284600
v 0.65793400 0.07447610 0.41333900
v 0.66048300 0.07433360 0.41298700
v 0.66290900 0.07365860 0.41181600
v 0.66504800 0.07249670 0.40990400
v 0.66675300 0.07092650 0.40738200
v 0.66790900 0.06905600 0.40442300
v 0.67053300 0.07738550 0.39468300
v 0.67036200 0.07478780 0.39066400
v 0.66937200 0.07232430 0.38689600
v 0.66763000 0.07016350 0.38363600
v 0.66525600 0.06845240 0.38110500
v 0.66241100 0.06730740 0.37947600
v 0.65929000 0.06680640 0.37886000
v 0.65610400 0.06698430 0.37930000
v 0.65307000 0.06782830 0.38076500
v 0.65039700 0.06928090 0.38315400
v 0.64826600 0.07124340 0.38630700
v 0.64682100 0.07358220 0.39000700
v 0.64616100 0.07613730 0.39400200
v 0.64633300 0.07873490 0.39802100
v 0.64732300 0.08119840 0.40178900
v 0.64906500 0.08335920 0.40504900
v 0.65143900 0.08507030 0.40758000
v 0.65428400 0.08621540 0.40920900
v 0.65740500 0.08671640 0.40982500
v 0.66059100 0.08653840 0.40938500
v 0.66362400 0.08569440 0.40792000
v 0.66629800 0.08424180 0.40553100
v 0.66842900 0.08227930 0.40237800
v 0.66987400 0.07994050 0.39867800
v 0.65834700 0.07676140 0.39434200
f 2 3 1
f 3 4 1
f 4 5 1
f 5 6 1
f 6 7 1
f 7 8 1
f 8 9 1
f 9 10 1
f 10 11 1
f 11 2 1
f 2 21 3
f 21 12 3
f 3 12 4
f 12 13 4
f 4 13 5
f 13 14 5
f 5 14 6
f 14 15 6
f 6 15 7
f 15 16 7
f 7 16 8
f 16 17 8
f 8 17 9
f 17 18 9
f 9 18 10
f 18 19 10
f 10 19 11
f 19 20 11
f 11 20 2
f 20 21 2
f 21 31 12
f 31 22 12
f 12 22 13
f 22 23 13
f 13 23 14
f 23 24 14
f 14 24 15
f 24 25 15
f 15 25 16
f 25 26 16
f 16 26 17
f 26 27 17
f 17 27 18
f 27 28 18
f 18 28 19
f 28 29 19
f 19 29 20
f 29 30 20
f 20 30 21
f 30 31 21
f 31 41 22
f 41 32 22
f 22 32 23
f 32 33 23
f 23 33 24
f 33 34 24
f 24 34 25
f 34 35 25
f 25 35 26
f 35 36 26
f 26 36 27
f 36 37 27
f 27 37 28
f 37 38 28
f 28 38 29
f 38 39 29
f 29 39 30
f 39 40 30
f 30 40 31
f 40 41 31
f 41 51 32
f 51 42 32
f 32 42 33
f 42 43 33
f 33 43 34
f 43 44 34
f 34 44 35
f 44 45 35
f 35 45 36
f 45 46 36
f 36 46 37
f 46 47 37
f 37 47 38
f 47 48 38
f 38 48 39
f 48 49 39
f 39 49 40
f 49 50 40
f 40 50 41
f 50 51 41
f 51 61 42
f 61 52 42
f 42 52 43
f 52 53 43
f 43 53 44
f 53 54 44
f 44 54 45
f 54 55 45
f 45 55 46
f 55 56 46
f 46 56 47
f 56 57 47
f 47 57 48
f 57 58 48
f 48 58 49
f 58 59 49
f 49 59 50
f 59 60 50
f 50 60 51
f 60 61 51
f 61 71 52
f 71 62 52
f 52 62 53
f 62 63 53
f 53 63 54
f 63 64 54
f 54 64 55
f 64 65 55
f 55 65 56
f 65 66 56
f 56 66 57
f 66 67 57
f 57 67 58
f 67 68 58
f 58 68 59
f 68 69 59
f 59 69 60
f 69 70 60
f 60 70 61
f 70 71 61
f 71 81 62
f 81 72 62
f 62 72 63
f 72 73 63
f 63 73 64
f 73 74 64
f 64 74 65
f 74 75 65
f 65 75 66
f 75 76 66
f 66 76 67
f 76 77 67
f 67 77 68
f 77 78 68
f 68 78 69
f 78 79 69
f 69 79 70
f 79 80 70
f 70 80 71
f 80 81 71
f 81 82 72
f 82 83 72
f 72 83 73
f 83 84 73
f 73 84 74
f 84 85 74
f 74 85 75
f 85 86 75
f 75 86 76
f 86 87 76
f 76 87 77
f 87 88 77
f 77 88 78
f 88 89 78
f 78 89 79
f 89 90 79
f 79 90 80
f 90 91 80
f 80 91 81
f 91 82 81
f 82 92 83
f 92 92 83
f 83 92 84
f 92 92 84
f 84 92 85
f 92 92 85
f 85 92 86
f 92 92 86
f 86 92 87
f 92 92 87
f 87 92 88
f 92 92 88
f 88 92 89
f 92 92 89
f 89 92 90
f 92 92 90
f 90 92 91
f 92 92 91
f 91 92 82
f 92 92 82
f 94 95 93
f 95 96 93
f 96 97 93
f 97 98 93
f 98 99 93
f 99 100 93
f 100 101 93
f 101 102 93
f 102 103 93
f 103 94 93
f 94 104 95
f 104 105 95
f 95 105 96
f 105 106 96
f 96 106 97
f 106 107 97
f 97 107 98
f 107 108 98
f 98 108 99
f 108 109 99
f 99 109 100
f 109 110 100
f 100 110 101
f 110 111 101
f 101 111 102
f 111 112 102
f 102 112 103
f 112 113 103
f 103 113 94
f 113 104 94
f 104 114 105
f 114 115 105
f 105 115 106
f 115 116 106
f 106 116 107
f 116 117 107
f 107 117 108
f 117 118 108
f 108 118 109
f 118 119 109
f 109 119 110
f 119 120 110
f 110 120 111
f 120 121 111
f 111 121 112
f 121 122 112
f 112 122 113
f 122 123 113
f 113 123 104
f 123 114 104
f 114 133 115
f 133 124 115
f 115 124 116
f 124 125 116
f 116 125 117
f 125 126 117
f 117 126 118
f 126 127 118
f 118 127 119
f 127 128 119
f 119 128 120
f 128 129 120
f 120 129 121
f 129 130 121
f 121 130 122
f 130 131 122
f 122 131 123
f 131 132 123
f 123 132 114
f 132 133 114
f 133 134 124
f 134 135 124
f 124 135 125
f 135 136 125
f 125 136 126
f 136 137 126
f 126 137 127
f 137 138 127
f 127 138 128
f 138 139 128
f 128 139 129
f 139 140 129
f 129 140 130
f 140 141 130
f 130 141 131
f 141 142 131
f 131 142 132
f 142 143 132
f 132 143 133
f 143 134 133
f 134 153 135
f 153 144 135
f 135 144 136
f 144 145 136
f 136 145 137
f 145 146 137
f 137 146 138
f 146 147 138
f 138 147 139
f 147 148 139
f 139 148 140
f 148 149 140
f 140 149 141
f 149 150 141
f 141 150 142
f 150 151 142
f 142 151 143
f 151 152 143
f 143 152 134
f 152 153 134
f 153 154 144
f 154 155 144
f 144 155 145
f 155 156 145
f 145 156 146
f 156 157 146
f 146 157 147
f 157 158 147
f 147 158 148
f 158 159 148
f 148 159 149
f 159 160 149
f 149 160 150
f 160 161 150
f 150 161 151
f 161 162 151
f 151 162 152
f 162 163 152
f 152 163 153
f 163 154 153
f 154 164 155
f 164 165 155
f 155 165 156
f 165 166 156
f 156 166 157
f 166 167 157
f 157 167 158
f 167 168 158
f 158 168 159
f 168 169 159
f 159 169 160
f 169 170 160
f 160 170 161
f 170 171 161
f 161 171 162
f 171 172 162
f 162 172 163
f 172 173 163
f 163 173 154
f 173 164 154
f 164 183 165
f 183 174 165
f 165 174 166
f 174 175 166
f 166 175 167
f 175 176 167
f 167 176 168
f 176 177 168
f 168 177 169
f 177 178 169
f 169 178 170
f 178 179 170
f 170 179 171
f 179 180 171
f 171 180 172
f 180 181 172
f 172 181 173
f 181 182 173
f 173 182 164
f 182 183 164
f 183 184 174
f 184 184 174
f 174 184 175
f 184 184 175
f 175 184 176
f 184 184 176
f 176 184 177
f 184 184 177
f 177 184 178
f 184 184 178
f 178 184 179
f 184 184 179
f 179 184 180
f 184 184 180
f 180 184 181
f 184 184 181
f 181 184 182
f 184 184 182
f 182 184 183
f 184 184 183
f 185 186 187
f 188 187 186
f 185 189 186
f 188 186 189
f 185 190 189
f 188 189 190
f 185 191 190
f 188 190 191
f 185 192 191
f 188 191 192
f 185 193 192
f 188 192 193
f 185 194 193
f 188 193 194
f 185 195 194
f 188 194 195
f 185 196 195
f 188 195 196
f 185 187 196
f 188 196 187
f 197 198 199
f 200 201 202
f 203 204 205
f 207 208 206
f 208 209 206
f 209 210 206
f 210 211 206
f 211 212 206
f 212 213 206
f 213 214 206
f 214 215 206
f 215 216 206
f 216 207 206
f 207 217 208
f 217 218 208
f 208 218 209
f 218 219 209
f 209 219 210
f 219 220 210
f 210 220 211
f 220 221 211
f 211 221 212
f 221 222 212
f 212 222 213
f 222 223 213
f 213 223 214
f 223 224 214
f 214 224 215
f 224 225 215
f 215 225 216
f 225 226 216
f 216 226 207
f 226 217 207
f 217 227 218
f 227 228 218
f 218 228 219
f 228 229 219
f 219 229 220
f 229 230 220
f 220 230 221
f 230 231 221
f 221 231 222
f 231 232 222
f 222 232 223
f 232 233 223
f 223 233 224
f 233 234 224
f 224 234 225
f 234 235 225
f 225 235 226
f 235 236 226
f 226 236 217
f 236 227 217
f 227 237 228
f 237 238 228
f 228 238 229
f 238 239 229
f 229 239 230
f 239 240 230
f 230 240 231
f 240 241 231
f 231 241 232
f 241 242 232
f 232 242 233
f 242 243 233
f 233 243 234
f 243 244 234
f 234 244 235
f 244 245 235
f 235 245 236
f 245 246 236
f 236 246 227
f 246 237 227
f 237 247 238
f 247 248 238
f 238 248 239
f 248 249 239
f 239 249 240
f 249 250 240
f 240 250 241
f 250 251 241
f 241 251 242
f 251 252 242
f 242 252 243
f 252 253 243
f 243 253 244
f 253 254 244
f 244 254 245
f 254 255 245
f 245 255 246
f 255 256 246
f 246 256 237
f 256 247 237
f 247 257 248
f 257 258 248
f 248 258 249
f 258 259 249
f 249 259 250
f 259 260 250
f 250 260 251
f 260 261 251
f 251 261 252
f 261 262 252
f 252 262 253
f 262 263 253
f 253 263 254
f 263 264 254
f 254 264 255
f 264 265 255
f 255 265 256
f 265 266 256
f 256 266 247
f 266 257 247
f 257 267 258
f 267 268 258
f 258 268 259
f 268 269 259
f 259 269 260
f 269 270 260
f 260 270 261
f 270 271 261
f 261 271 262
f 271 272 262
f 262 272 263
f 272 273 263
f 263 273 264
f 273 274 264
f 264 274 265
f 274 275 265
f 265 275 266
f 275 276 266
f 266 276 257
f 276 267 257
f 267 277 268
f 277 278 268
f 268 278 269
f 278 279 269
f 269 279 270
f 279 280 270
f 270 280 271
f 280 281 271
f 271 281 272
f 281 282 272
f 272 282 273
f 282 283 273
f 273 283 274
f 283 284 274
f 274 284 275
f 284 285 275
f 275 285 276
f 285 286 276
f 276 286 267
f 286 277 267
f 277 287 278
f 287 288 278
f 278 288 279
f 288 289 279
f 279 289 280
f 289 290 280
f 280 290 281
f 290 291 281
f 281 291 282
f 291 292 282
f 282 292 283
f 292 293 283
f 283 293 284
f 293 294 284
f 284 294 285
f 294 295 285
f 285 295 286
f 295 296 286
f 286 296 277
f 296 287 277
f 287 297 288
f 288 297 289
f 289 297 290
f 290 297 291
f 291 297 292
f 292 297 293
f 293 297 294
f 294 297 295
f 295 297 296
f 296 297 287
f 299 300 298
f 300 301 298
f 301 302 298
f 302 303 298
f 303 304 298
f 304 305 298
f 305 306 298
f 306 307 298
f 307 308 298
f 308 299 298
f 299 309 300
f 309 310 300
f 300 310 301
f 310 311 301
f 301 311 302
f 311 312 302
f 302 312 303
f 312 313 303
f 303 313 304
f 313 314 304
f 304 314 305
f 314 315 305
f 305 315 306
f 315 316 306
f 306 316 307
f 316 317 307
f 307 317 308
f 317 318 308
f 308 318 299
f 318 309 299
f 309 319 310
f 319 320 310
f 310 320 311
f 320 321 311
f 311 321 312
f 321 322 312
f 312 322 313
f 322 323 313
f 313 323 314
f 323 324 314
f 314 324 315
f 324 325 315
f 315 325 316
f 325 326 316
f 316 326 317
f 326 327 317
f 317 327 318
f 327 328 318
f 318 328 309
f 328 319 309
f 319 329 320
f 329 330 320
f 320 330 321
f 330 331 321
f 321 331 322
f 331 332 322
f 322 332 323
f 332 333 323
f 323 333 324
f 333 334 324
f 324 334 325
f 334 335 325
f 325 335 326
f 335 336 326
f 326 336 327
f 336 337 327
f 327 337 328
f 337 338 328
f 328 338 319
f 338 329 319
f 329 339 330
f 339 340 330
f 330 340 331
f 340 341 331
f 331 341 332
f 341 342 332
f 332 342 333
f 342 343 333
f 333 343 334
f 343 344 334
f 334 344 335
f 344 345 335
f 335 345 336
f 345 346 336
f 336 346 337
f 346 347 337
f 337 347 338
f 347 348 338
f 338 348 329
f 348 339 329
f 339 349 340
f 349 350 340
f 340 350 341
f 350 351 341
f 341 351 342
f 351 352 342
f 342 352 343
f 352 353 343
f 343 353 344
f 353 354 344
f 344 354 345
f 354 355 345
f 345 355 346
f 355 356 346
f 346 356 347
f 356 357 347
f 347 357 348
f 357 358 348
f 348 358 339
f 358 349 339
f 349 359 350
f 359 360 350
f 350 360 351
f 360 361 351
f 351 361 352
f 361 362 352
f 352 362 353
f 362 363 353
f 353 363 354
f 363 364 354
f 354 364 355
f 364 365 355
f 355 365 356
f 365 366 356
f 356 366 357
f 366 367 357
f 357 367 358
f 367 368 358
f 358 368 349
f 368 359 349
f 359 369 360
f 369 370 360
f 360 370 361
f 370 371 361
f 361 371 362
f 371 372 362
f 362 372 363
f 372 373 363
f 363 373 364
f 373 374 364
f 364 374 365
f 374 375 365
f 365 375 366
f 375 376 366
f 366 376 367
f 376 377 367
f 367 377 368
f 377 378 368
f 368 378 359
f 378 369 359
f 369 379 370
f 379 380 370
f 370 380 371
f 380 381 371
f 371 381 372
f 381 382 372
f 372 382 373
f 382 383 373
f 373 383 374
f 383 384 374
f 374 384 375
f 384 385 375
f 375 385 376
f 385 386 376
f 376 386 377
f 386 387 377
f 377 387 378
f 387 388 378
f 378 388 369
f 388 379 369
f 379 389 380
f 389 389 380
f 380 389 381
f 381 389 382
f 382 389 383
f 383 389 384
f 384 389 385
f 385 389 386
f 386 389 387
f 387 389 388
f 388 389 379
f 391 392 390
f 392 393 390
f 393 394 390
f 394 395 390
f 395 396 390
f 396 397 390
f 397 398 390
f 398 399 390
f 399 400 390
f 400 391 390
f 391 401 392
f 401 402 392
f 392 402 393
f 402 403 393
f 393 403 394
f 403 404 394
f 394 404 395
f 404 405 395
f 395 405 396
f 405 406 396
f 396 406 397
f 406 407 397
f 397 407 398
f 407 408 398
f 398 408 399
f 408 409 399
f 399 409 400
f 409 410 400
f 400 410 391
f 410 401 391
f 401 411 402
f 411 412 402
f 402 412 403
f 412 413 403
f 403 413 404
f 413 414 404
f 404 414 405
f 414 415 405
f 405 415 406
f 415 416 406
f 406 416 407
f 416 417 407
f 407 417 408
f 417 418 408
f 408 418 409
f 418 419 409
f 409 419 410
f 419 420 410
f 410 420 401
f 420 411 401
f 411 421 412
f 421 422 412
f 412 422 413
f 422 423 413
f 413 423 414
f 423 424 414
f 414 424 415
f 424 425 415
f 415 425 416
f 425 426 416
f 416 426 417
f 426 427 417
f 417 427 418
f 427 428 418
f 418 428 419
f 428 429 419
f 419 429 420
f 429 430 420
f 420 430 411
f 430 421 411
f 421 431 422
f 431 432 422
f 422 432 423
f 432 433 423
f 423 433 424
f 433 434 424
f 424 434 425
f 434 435 425
f 425 435 426
f 435 436 426
f 426 436 427
f 436 437 427
f 427 437 428
f 437 438 428
f 428 438 429
f 438 439 429
f 429 439 430
f 439 440 430
f 430 440 421
f 440 431 421
f 431 441 432
f 441 442 432
f 432 442 433
f 442 443 433
f 433 443 434
f 443 444 434
f 434 444 435
f 444 445 435
f 435 445 436
f 445 446 436
f 436 446 437
f 446 447 437
f 437 447 438
f 447 448 438
f 438 448 439
f 448 449 439
f 439 449 440
f 449 450 440
f 440 450 431
f 450 441 431
f 441 451 442
f 451 452 442
f 442 452 443
f 452 453 443
f 443 453 444
f 453 454 444
f 444 454 445
f 454 455 445
f 445 455 446
f 455 456 446
f 446 456 447
f 456 457 447
f 447 457 448
f 457 458 448
f 448 458 449
f 458 459 449
f 449 459 450
f 459 460 450
f 450 460 441
f 460 451 441
f 451 461 452
f 461 462 452
f 452 462 453
f 462 463 453
f 453 463 454
f 463 464 454
f 454 464 455
f 464 465 455
f 455 465 456
f 465 466 456
f 456 466 457
f 466 467 457
f 457 467 458
f 467 468 458
f 458 468 459
f 468 469 459
f 459 469 460
f 469 470 460
f 460 470 451
f 470 461 451
f 461 471 462
f 471 472 462
f 462 472 463
f 472 473 463
f 463 473 464
f 473 474 464
f 464 474 465
f 474 475 465
f 465 475 466
f 475 476 466
f 466 476 467
f 476 477 467
f 467 477 468
f 477 478 468
f 468 478 469
f 478 479 469
f 469 479 470
f 479 480 470
f 470 480 461
f 480 471 461
f 471 481 472
f 472 481 473
f 473 481 474
f 474 481 475
f 481 481 475
f 475 481 476
f 476 481 477
f 477 481 478
f 478 481 479
f 479 481 480
f 480 481 471
f 483 484 482
f 484 485 482
f 485 486 482
f 486 487 482
f 487 488 482
f 488 489 482
f 489 490 482
f 490 491 482
f 491 492 482
f 492 483 482
f 483 493 484
f 493 494 484
f 484 494 485
f 494 495 485
f 485 495 486
f 495 496 486
f 486 496 487
f 496 497 487
f 487 497 488
f 497 498 488
f 488 498 489
f 498 499 489
f 489 499 490
f 499 500 490
f 490 500 491
f 500 501 491
f 491 501 492
f 501 502 492
f 492 502 483
f 502 493 483
f 493 503 494
f 503 504 494
f 494 504 495
f 504 505 495
f 495 505 496
f 505 506 496
f 496 506 497
f 506 507 497
f 497 507 498
f 507 508 498
f 498 508 499
f 508 509 499
f 499 509 500
f 509 510 500
f 500 510 501
f 510 511 501
f 501 511 502
f 511 512 502
f 502 512 493
f 512 503 493
f 503 513 504
f 513 514 504
f 504 514 505
f 514 515 505
f 505 515 506
f 515 516 506
f 506 516 507
f 516 517 507
f 507 517 508
f 517 518 508
f 508 518 509
f 518 519 509
f 509 519 510
f 519 520 510
f 510 520 511
f 520 521 511
f 511 521 512
f 521 522 512
f 512 522 503
f 522 513 503
f 513 523 514
f 523 524 514
f 514 524 515
f 524 525 515
f 515 525 516
f 525 526 516
f 516 526 517
f 526 527 517
f 517 527 518
f 527 528 518
f 518 528 519
f 528 529 519
f 519 529 520
f 529 530 520
f 520 530 521
f 530 531 521
f 521 531 522
f 531 532 522
f 522 532 513
f 532 523 513
f 523 533 524
f 533 534 524
f 524 534 525
f 534 535 525
f 525 535 526
f 535 536 526
f 526 536 527
f 536 537 527
f 527 537 528
f 537 538 528
f 528 538 529
f 538 539 529
f 529 539 530
f 539 540 530
f 530 540 531
f 540 541 531
f 531 541 532
f 541 542 532
f 532 542 523
f 542 533 523
f 533 543 534
f 543 544 534
f 534 544 535
f 544 545 535
f 535 545 536
f 545 546 536
f 536 546 537
f 546 547 537
f 537 547 538
f 547 548 538
f 538 548 539
f 548 549 539
f 539 549 540
f 549 550 540
f 540 550 541
f 550 551 541
f 541 551 542
f 551 552 542
f 542 552 533
f 552 543 533
f 543 553 544
f 553 554 544
f 544 554 545
f 554 555 545
f 545 555 546
f 555 556 546
f 546 556 547
f 556 557 547
f 547 557 548
f 557 558 548
f 548 558 549
f 558 559 549
f 549 559 550
f 559 560 550
f 550 560 551
f 560 561 551
f 551 561 552
f 561 562 552
f 552 562 543
f 562 553 543
f 553 563 554
f 563 564 554
f 554 564 555
f 564 565 555
f 555 565 556
f 565 566 556
f 556 566 557
f 566 567 557
f 557 567 558
f 567 568 558
f 558 568 559
f 568 569 559
f 559 569 560
f 569 570 560
f 560 570 561
f 570 571 561
f 561 571 562
f 571 572 562
f 562 572 553
f 572 563 553
f 563 573 564
f 564 573 565
f 565 573 566
f 566 573 567
f 567 573 568
f 568 573 569
f 569 573 570
f 570 573 571
f 573 573 571
f 571 573 572
f 572 573 563
f 575 576 574
f 576 577 574
f 577 578 574
f 578 579 574
f 579 580 574
f 580 581 574
f 581 582 574
f 582 583 574
f 583 584 574
f 584 575 574
f 575 585 576
f 585 586 576
f 576 586 577
f 586 587 577
f 577 587 578
f 587 588 578
f 578 588 579
f 588 589 579
f 579 589 580
f 589 590 580
f 580 590 581
f 590 591 581
f 581 591 582
f 591 592 582
f 582 592 583
f 592 593 583
f 583 593 584
f 593 594 584
f 584 594 575
f 594 585 575
f 585 595 586
f 595 596 586
f 586 596 587
f 596 597 587
f 587 597 588
f 597 598 588
f 588 598 589
f 598 599 589
f 589 599 590
f 599 600 590
f 590 600 591
f 600 601 591
f 591 601 592
f 601 602 592
f 592 602 593
f 602 603 593
f 593 603 594
f 603 604 594
f 594 604 585
f 604 595 585
f 595 605 596
f 605 606 596
f 596 606 597
f 606 607 597
f 597 607 598
f 607 608 598
f 598 608 599
f 608 609 599
f 599 609 600
f 609 610 600
f 600 610 601
f 610 611 601
f 601 611 602
f 611 612 602
f 602 612 603
f 612 613 603
f 603 613 604
f 613 614 604
f 604 614 595
f 614 605 595
f 605 615 606
f 615 616 606
f 606 616 607
f 616 617 607
f 607 617 608
f 617 618 608
f 608 618 609
f 618 619 609
f 609 619 610
f 619 620 610
f 610 620 611
f 620 621 611
f 611 621 612
f 621 622 612
f 612 622 613
f 622 623 613
f 613 623 614
f 623 624 614
f 614 624 605
f 624 615 605
f 615 625 616
f 625 626 616
f 616 626 617
f 626 627 617
f 617 627 618
f 627 628 618
f 618 628 619
f 628 629 619
f 619 629 620
f 629 630 620
f 620 630 621
f 630 631 621
f 621 631 622
f 631 632 622
f 622 632 623
f 632 633 623
f 623 633 624
f 633 634 624
f 624 634 615
f 634 625 615
f 625 635 626
f 635 636 626
f 626 636 627
f 636 637 627
f 627 637 628
f 637 638 628
f 628 638 629
f 638 639 629
f 629 639 630
f 639 640 630
f 630 640 631
f 640 641 631
f 631 641 632
f 641 642 632
f 632 642 633
f 642 643 633
f 633 643 634
f 643 644 634
f 634 644 625
f 644 635 625
f 635 645 636
f 645 646 636
f 636 646 637
f 646 647 637
f 637 647 638
f 647 648 638
f 638 648 639
f 648 649 639
f 639 649 640
f 649 650 640
f 640 650 641
f 650 651 641
f 641 651 642
f 651 652 642
f 642 652 643
f 652 653 643
f 643 653 644
f 653 654 644
f 644 654 635
f 654 645 635
f 645 655 646
f 655 656 646
f 646 656 647
f 656 657 647
f 647 657 648
f 657 658 648
f 648 658 649
f 658 659 649
f 649 659 650
f 659 660 650
f 650 660 651
f 660 661 651
f 651 661 652
f 661 662 652
f 652 662 653
f 662 663 653
f 653 663 654
f 663 664 654
f 654 664 645
f 664 655 645
f 655 665 656
f 656 665 657
f 665 665 657
f 657 665 658
f 665 665 658
f 658 665 659
f 665 665 659
f 659 665 660
f 660 665 661
f 661 665 662
f 662 665 663
f 663 665 664
f 664 665 655
f 666 667 668
f 667 669 668
f 670 668 669
f 671 667 666
f 667 672 669
f 672 673 669
f 670 669 673
f 671 672 667
f 672 674 673
f 674 675 673
f 670 673 675
f 671 674 672
f 674 676 675
f 676 677 675
f 670 675 677
f 671 676 674
f 676 678 677
f 678 679 677
f 670 677 679
f 671 678 676
f 678 680 679
f 680 681 679
f 670 679 681
f 671 680 678
f 680 682 681
f 682 683 681
f 670 681 683
f 671 682 680
f 682 684 683
f 684 685 683
f 670 683 685
f 671 684 682
f 684 686 685
f 686 687 685
f 670 685 687
f 671 686 684
f 686 666 687
f 666 668 687
f 670 687 668
f 671 666 686
f 688 690 689
f 688 691 690
f 688 692 691
f 688 693 692
f 688 694 693
f 688 695 694
f 688 696 695
f 688 697 696
f 688 698 697
f 688 699 698
f 688 700 699
f 688 701 700
f 688 702 701
f 688 703 702
f 688 704 703
f 688 705 704
f 688 706 705
f 688 707 706
f 688 708 707
f 688 709 708
f 688 710 709
f 688 711 710
f 688 712 711
f 688 689 712
f 689 714 713
f 689 690 714
f 690 715 714
f 690 691 715
f 691 716 715
f 691 692 716
f 692 717 716
f 692 693 717
f 693 718 717
f 693 694 718
f 694 719 718
f 694 695 719
f 695 720 719
f 695 696 720
f 696 721 720
f 696 697 721
f 697 722 721
f 697 698 722
f 698 723 722
f 698 699 723
f 699 724 723
f 699 700 724
f 700 725 724
f 700 701 725
f 701 726 725
f 701 702 726
f 702 727 726
f 702 703 727
f 703 728 727
f 703 704 728
f 704 729 728
f 704 705 729
f 705 730 729
f 705 706 730
f 706 731 730
f 706 707 731
f 707 732 731
f 707 708 732
f 708 733 732
f 708 709 733
f 709 734 733
f 709 710 734
f 710 735 734
f 710 711 735
f 711 736 735
f 711 712 736
f 712 713 736
f 712 689 713
f 713 738 737
f 713 714 738
f 714 739 738
f 714 715 739
f 715 740 739
f 715 716 740
f 716 741 740
f 716 717 741
f 717 742 741
f 717 718 742
f 718 743 742
f 718 719 743
f 719 744 743
f 719 720 744
f 720 745 744
f 720 721 745
f 721 746 745
f 721 722 746
f 722 747 746
f 722 723 747
f 723 748 747
f 723 724 748
f 724 749 748
f 724 725 749
f 725 750 749
f 725 726 750
f 726 751 750
f 726 727 751
f 727 752 751
f 727 728 752
f 728 753 752
f 728 729 753
f 729 754 753
f 729 730 754
f 730 755 754
f 730 731 755
f 731 756 755
f 731 732 756
f 732 757 756
f 732 733 757
f 733 758 757
f 733 734 758
f 734 759 758
f 734 735 759
f 735 760 759
f 735 736 760
f 736 737 760
f 736 713 737
f 737 762 761
f 737 738 762
f 738 763 762
f 738 739 763
f 739 764 763
f 739 740 764
f 740 765 764
f 740 741 765
f 741 766 765
f 741 742 766
f 742 767 766
f 742 743 767
f 743 768 767
f 743 744 768
f 744 769 768
f 744 745 769
f 745 770 769
f 745 746 770
f 746 771 770
f 746 747 771
f 747 772 771
f 747 748 772
f 748 773 772
f 748 749 773
f 749 774 773
f 749 750 774
f 750 775 774
f 750 751 775
f 751 776 775
f 751 752 776
f 752 777 776
f 752 753 777
f 753 778 777
f 753 754 778
f 754 779 778
f 754 755 779
f 755 780 779
f 755 756 780
f 756 781 780
f 756 757 781
f 757 782 781
f 757 758 782
f 758 783 782
f 758 759 783
f 759 784 783
f 759 760 784
f 760 761 784
f 760 737 761
f 761 786 785
f 761 762 786
f 762 787 786
f 762 763 787
f 763 788 787
f 763 764 788
f 764 789 788
f 764 765 789
f 765 790 789
f 765 766 790
f 766 791 790
f 766 767 791
f 767 792 791
f 767 768 792
f 768 793 792
f 768 769 793
f 769 794 793
f 769 770 794
f 770 795 794
f 770 771 795
f 771 796 795
f 771 772 796
f 772 797 796
f 772 773 797
f 773 798 797
f 773 774 798
f 774 799 798
f 774 775 799
f 775 800 799
f 775 776 800
f 776 801 800
f 776 777 801
f 777 802 801
f 777 778 802
f 778 803 802
f 778 779 803
f 779 804 803
f 779 780 804
f 780 805 804
f 780 781 805
f 781 806 805
f 781 782 806
f 782 807 806
f 782 783 807
f 783 808 807
f 783 784 808
f 784 785 808
f 784 761 785
f 809 785 786
f 809 786 787
f 809 787 788
f 809 788 789
f 809 789 790
f 809 790 791
f 809 791 792
f 809 792 793
f 809 793 794
f 809 794 795
f 809 795 796
f 809 796 797
f 809 797 798
f 809 798 799
f 809 799 800
f 809 800 801
f 809 801 802
f 809 802 803
f 809 803 804
f 809 804 805
f 809 805 806
f 809 806 807
f 809 807 808
f 809 808 785
f 810 812 811
f 810 813 812
f 810 814 813
f 810 815 814
f 810 816 815
f 810 817 816
f 810 818 817
f 810 819 818
f 810 820 819
f 810 821 820
f 810 822 821
f 810 823 822
f 810 824 823
f 810 825 824
f 810 826 825
f 810 827 826
f 810 828 827
f 810 829 828
f 810 830 829
f 810 831 830
f 810 832 831
f 810 833 832
f 810 834 833
f 810 811 834
f 811 836 835
f 811 812 836
f 812 837 836
f 812 813 837
f 813 838 837
f 813 814 838
f 814 839 838
f 814 815 839
f 815 840 839
f 815 816 840
f 816 841 840
f 816 817 841
f 817 842 841
f 817 818 842
f 818 843 842
f 818 819 843
f 819 844 843
f 819 820 844
f 820 845 844
f 820 821 845
f 821 846 845
f 821 822 846
f 822 847 846
f 822 823 847
f 823 848 847
f 823 824 848
f 824 849 848
f 824 825 849
f 825 850 849
f 825 826 850
f 826 851 850
f 826 827 851
f 827 852 851
f 827 828 852
f 828 853 852
f 828 829 853
f 829 854 853
f 829 830 854
f 830 855 854
f 830 831 855
f 831 856 855
f 831 832 856
f 832 857 856
f 832 833 857
f 833 858 857
f 833 834 858
f 834 835 858
f 834 811 835
f 835 860 859
f 835 836 860
f 836 861 860
f 836 837 861
f 837 862 861
f 837 838 862
f 838 863 862
f 838 839 863
f 839 864 863
f 839 840 864
f 840 865 864
f 840 841 865
f 841 866 865
f 841 842 866
f 842 867 866
f 842 843 867
f 843 868 867
f 843 844 868
f 844 869 868
f 844 845 869
f 845 870 869
f 845 846 870
f 846 871 870
f 846 847 871
f 847 872 871
f 847 848 872
f 848 873 872
f 848 849 873
f 849 874 873
f 849 850 874
f 850 875 874
f 850 851 875
f 851 876 875
f 851 852 876
f 852 877 876
f 852 853 877
f 853 878 877
f 853 854 878
f 854 879 878
f 854 855 879
f 855 880 879
f 855 856 880
f 856 881 880
f 856 857 881
f 857 882 881
f 857 858 882
f 858 859 882
f 858 835 859
f 859 884 883
f 859 860 884
f 860 885 884
f 860 861 885
f 861 886 885
f 861 862 886
f 862 887 886
f 862 863 887
f 863 888 887
f 863 864 888
f 864 889 888
f 864 865 889
f 865 890 889
f 865 866 890
f 866 891 890
f 866 867 891
f 867 892 891
f 867 868 892
f 868 893 892
f 868 869 893
f 869 894 893
f 869 870 894
f 870 895 894
f 870 871 895
f 871 896 895
f 871 872 896
f 872 897 896
f 872 873 897
f 873 898 897
f 873 874 898
f 874 899 898
f 874 875 899
f 875 900 899
f 875 876 900
f 876 901 900
f 876 877 901
f 877 902 901
f 877 878 902
f 878 903 902
f 878 879 903
f 879 904 903
f 879 880 904
f 880 905 904
f 880 881 905
f 881 906 905
f 881 882 906
f 882 883 906
f 882 859 883
f 883 908 907
f 883 884 908
f 884 909 908
f 884 885 909
f 885 910 909
f 885 886 910
f 886 911 910
f 886 887 911
f 887 912 911
f 887 888 912
f 888 913 912
f 888 889 913
f 889 914 913
f 889 890 914
f 890 915 914
f 890 891 915
f 891 916 915
f 891 892 916
f 892 917 916
f 892 893 917
f 893 918 917
f 893 894 918
f 894 919 918
f 894 895 919
f 895 920 919
f 895 896 920
f 896 921 920
f 896 897 921
f 897 922 921
f 897 898 922
f 898 923 922
f 898 899 923
f 899 924 923
f 899 900 924
f 900 925 924
f 900 901 925
f 901 926 925
f 901 902 926
f 902 927 926
f 902 903 927
f 903 928 927
f 903 904 928
f 904 929 928
f 904 905 929
f 905 930 929
f 905 906 930
f 906 907 930
f 906 883 907
f 931 907 908
f 931 908 909
f 931 909 910
f 931 910 911
f 931 911 912
f 931 912 913
f 931 913 914
f 931 914 915
f 931 915 916
f 931 916 917
f 931 917 918
f 931 918 919
f 931 919 920
f 931 920 921
f 931 921 922
f 931 922 923
f 931 923 924
f 931 924 925
f 931 925 926
f 931 926 927
f 931 927 928
f 931 928 929
f 931 929 930
f 931 930 907
f 933 934 932
f 934 935 932
f 935 936 932
f 936 937 932
f 937 938 932
f 938 939 932
f 939 940 932
f 940 941 932
f 941 942 932
f 942 933 932
f 933 943 934
f 943 944 934
f 934 944 935
f 944 945 935
f 935 945 936
f 945 946 936
f 936 946 937
f 946 947 937
f 937 947 938
f 947 948 938
f 938 948 939
f 948 949 939
f 939 949 940
f 949 950 940
f 940 950 941
f 950 951 941
f 941 951 942
f 951 952 942
f 942 952 933
f 952 943 933
f 943 953 944
f 953 954 944
f 944 954 945
f 954 955 945
f 945 955 946
f 955 956 946
f 946 956 947
f 956 957 947
f 947 957 948
f 957 958 948
f 948 958 949
f 958 959 949
f 949 959 950
f 959 960 950
f 950 960 951
f 960 961 951
f 951 961 952
f 961 962 952
f 952 962 943
f 962 953 943
f 953 963 954
f 963 964 954
f 954 964 955
f 964 965 955
f 955 965 956
f 965 966 956
f 956 966 957
f 966 967 957
f 957 967 958
f 967 968 958
f 958 968 959
f 968 969 959
f 959 969 960
f 969 970 960
f 960 970 961
f 970 971 961
f 961 971 962
f 971 972 962
f 962 972 953
f 972 963 953
f 963 973 964
f 973 974 964
f 964 974 965
f 974 975 965
f 965 975 966
f 975 976 966
f 966 976 967
f 976 977 967
f 967 977 968
f 977 978 968
f 968 978 969
f 978 979 969
f 969 979 970
f 979 980 970
f 970 980 971
f 980 981 971
f 971 981 972
f 981 982 972
f 972 982 963
f 982 973 963
f 973 983 974
f 983 984 974
f 974 984 975
f 984 985 975
f 975 985 976
f 985 986 976
f 976 986 977
f 986 987 977
f 977 987 978
f 987 988 978
f 978 988 979
f 988 989 979
f 979 989 980
f 989 990 980
f 980 990 981
f 990 991 981
f 981 991 982
f 991 992 982
f 982 992 973
f 992 983 973
f 983 993 984
f 993 994 984
f 984 994 985
f 994 995 985
f 985 995 986
f 995 996 986
f 986 996 987
f 996 997 987
f 987 997 988
f 997 998 988
f 988 998 989
f 998 999 989
f 989 999 990
f 999 1000 990
f 990 1000 991
f 1000 1001 991
f 991 1001 992
f 1001 1002 992
f 992 1002 983
f 1002 993 983
f 993 1003 994
f 1003 1004 994
f 994 1004 995
f 1004 1005 995
f 995 1005 996
f 1005 1006 996
f 996 1006 997
f 1006 1007 997
f 997 1007 998
f 1007 1008 998
f 998 1008 999
f 1008 1009 999
f 999 1009 1000
f 1009 1010 1000
f 1000 1010 1001
f 1010 1011 1001
f 1001 1011 1002
f 1011 1012 1002
f 1002 1012 993
f 1012 1003 993
f 1003 1013 1004
f 1013 1014 1004
f 1004 1014 1005
f 1014 1015 1005
f 1005 1015 1006
f 1015 1016 1006
f 1006 1016 1007
f 1016 1017 1007
f 1007 1017 1008
f 1017 1018 1008
f 1008 1018 1009
f 1018 1019 1009
f 1009 1019 1010
f 1019 1020 1010
f 1010 1020 1011
f 1020 1021 1011
f 1011 1021 1012
f 1021 1022 1012
f 1012 1022 1003
f 1022 1013 1003
f 1013 1023 1014
f 1014 1023 1015
f 1023 1023 1015
f 1015 1023 1016
f 1016 1023 1017
f 1023 1023 1017
f 1017 1023 1018
f 1018 1023 1019
f 1019 1023 1020
f 1020 1023 1021
f 1021 1023 1022
f 1022 1023 1013
f 1024 1025 1026
f 1025 1027 1026
f 1028 1026 1027
f 1029 1025 1024
f 1025 1030 1027
f 1030 1031 1027
f 1028 1027 1031
f 1029 1030 1025
f 1030 1032 1031
f 1032 1033 1031
f 1028 1031 1033
f 1029 1032 1030
f 1032 1034 1033
f 1034 1035 1033
f 1028 1033 1035
f 1029 1034 1032
f 1034 1036 1035
f 1036 1037 1035
f 1028 1035 1037
f 1029 1036 1034
f 1036 1038 1037
f 1038 1039 1037
f 1028 1037 1039
f 1029 1038 1036
f 1038 1040 1039
f 1040 1041 1039
f 1028 1039 1041
f 1029 1040 1038
f 1040 1042 1041
f 1042 1043 1041
f 1028 1041 1043
f 1029 1042 1040
f 1042 1044 1043
f 1044 1045 1043
f 1028 1043 1045
f 1029 1044 1042
f 1044 1024 1045
f 1024 1026 1045
f 1028 1045 1026
f 1029 1024 1044
f 1046 1048 1047
f 1046 1049 1048
f 1046 1050 1049
f 1046 1051 1050
f 1046 1052 1051
f 1046 1053 1052
f 1046 1054 1053
f 1046 1055 1054
f 1046 1056 1055
f 1046 1057 1056
f 1046 1058 1057
f 1046 1059 1058
f 1046 1060 1059
f 1046 1061 1060
f 1046 1062 1061
f 1046 1063 1062
f 1046 1064 1063
f 1046 1065 1064
f 1046 1066 1065
f 1046 1067 1066
f 1046 1068 1067
f 1046 1069 1068
f 1046 1070 1069
f 1046 1047 1070
f 1047 1072 1071
f 1047 1048 1072
f 1048 1073 1072
f 1048 1049 1073
f 1049 1074 1073
f 1049 1050 1074
f 1050 1075 1074
f 1050 1051 1075
f 1051 1076 1075
f 1051 1052 1076
f 1052 1077 1076
f 1052 1053 1077
f 1053 1078 1077
f 1053 1054 1078
f 1054 1079 1078
f 1054 1055 1079
f 1055 1080 1079
f 1055 1056 1080
f 1056 1081 1080
f 1056 1057 1081
f 1057 1082 1081
f 1057 1058 1082
f 1058 1083 1082
f 1058 1059 1083
f 1059 1084 1083
f 1059 1060 1084
f 1060 1085 1084
f 1060 1061 1085
f 1061 1086 1085
f 1061 1062 1086
f 1062 1087 1086
f 1062 1063 1087
f 1063 1088 1087
f 1063 1064 1088
f 1064 1089 1088
f 1064 1065 1089
f 1065 1090 1089
f 1065 1066 1090
f 1066 1091 1090
f 1066 1067 1091
f 1067 1092 1091
f 1067 1068 1092
f 1068 1093 1092
f 1068 1069 1093
f 1069 1094 1093
f 1069 1070 1094
f 1070 1071 1094
f 1070 1047 1071
f 1071 1096 1095
f 1071 1072 1096
f 1072 1097 1096
f 1072 1073 1097
f 1073 1098 1097
f 1073 1074 1098
f 1074 1099 1098
f 1074 1075 1099
f 1075 1100 1099
f 1075 1076 1100
f 1076 1101 1100
f 1076 1077 1101
f 1077 1102 1101
f 1077 1078 1102
f 1078 1103 1102
f 1078 1079 1103
f 1079 1104 1103
f 1079 1080 1104
f 1080 1105 1104
f 1080 1081 1105
f 1081 1106 1105
f 1081 1082 1106
f 1082 1107 1106
f 1082 1083 1107
f 1083 1108 1107
f 1083 1084 1108
f 1084 1109 1108
f 1084 1085 1109
f 1085 1110 1109
f 1085 1086 1110
f 1086 1111 1110
f 1086 1087 1111
f 1087 1112 1111
f 1087 1088 1112
f 1088 1113 1112
f 1088 1089 1113
f 1089 1114 1113
f 1089 1090 1114
f 1090 1115 1114
f 1090 1091 1115
f 1091 1116 1115
f 1091 1092 1116
f 1092 1117 1116
f 1092 1093 1117
f 1093 1118 1117
f 1093 1094 1118
f 1094 1095 1118
f 1094 1071 1095
f 1095 1120 1119
f 1095 1096 1120
f 1096 1121 1120
f 1096 1097 1121
f 1097 1122 1121
f 1097 1098 1122
f 1098 1123 1122
f 1098 1099 1123
f 1099 1124 1123
f 1099 1100 1124
f 1100 1125 1124
f 1100 1101 1125
f 1101 1126 1125
f 1101 1102 1126
f 1102 1127 1126
f 1102 1103 1127
f 1103 1128 1127
f 1103 1104 1128
f 1104 1129 1128
f 1104 1105 1129
f 1105 1130 1129
f 1105 1106 1130
f 1106 1131 1130
f 1106 1107 1131
f 1107 1132 1131
f 1107 1108 1132
f 1108 1133 1132
f 1108 1109 1133
f 1109 1134 1133
f 1109 1110 1134
f 1110 1135 1134
f 1110 1111 1135
f 1111 1136 1135
f 1111 1112 1136
f 1112 1137 1136
f 1112 1113 1137
f 1113 1138 1137
f 1113 1114 1138
f 1114 1139 1138
f 1114 1115 1139
f 1115 1140 1139
f 1115 1116 1140
f 1116 1141 1140
f 1116 1117 1141
f 1117 1142 1141
f 1117 1118 1142
f 1118 1119 1142
f 1118 1095 1119
f 1119 1144 1143
f 1119 1120 1144
f 1120 1145 1144
f 1120 1121 1145
f 1121 1146 1145
f 1121 1122 1146
f 1122 1147 1146
f 1122 1123 1147
f 1123 1148 1147
f 1123 1124 1148
f 1124 1149 1148
f 1124 1125 1149
f 1125 1150 1149
f 1125 1126 1150
f 1126 1151 1150
f 1126 1127 1151
f 1127 1152 1151
f 1127 1128 1152
f 1128 1153 1152
f 1128 1129 1153
f 1129 1154 1153
f 1129 1130 1154
f 1130 1155 1154
f 1130 1131 1155
f 1131 1156 1155
f 1131 1132 1156
f 1132 1157 1156
f 1132 1133 1157
f 1133 1158 1157
f 1133 1134 1158
f 1134 1159 1158
f 1134 1135 1159
f 1135 1160 1159
f 1135 1136 1160
f 1136 1161 1160
f 1136 1137 1161
f 1137 1162 1161
f 1137 1138 1162
f 1138 1163 1162
f 1138 1139 1163
f 1139 1164 1163
f 1139 1140 1164
f 1140 1165 1164
f 1140 1141 1165
f 1141 1166 1165
f 1141 1142 1166
f 1142 1143 1166
f 1142 1119 1143
f 1167 1143 1144
f 1167 1144 1145
f 1167 1145 1146
f 1167 1146 1147
f 1167 1147 1148
f 1167 1148 1149
f 1167 1149 1150
f 1167 1150 1151
f 1167 1151 1152
f 1167 1152 1153
f 1167 1153 1154
f 1167 1154 1155
f 1167 1155 1156
f 1167 1156 1157
f 1167 1157 1158
f 1167 1158 1159
f 1167 1159 1160
f 1167 1160 1161
f 1167 1161 1162
f 1167 1162 1163
f 1167 1163 1164
f 1167 1164 1165
f 1167 1165 1166
f 1167 1166 1143
f 1168 1170 1169
f 1168 1171 1170
f 1168 1172 1171
f 1168 1173 1172
f 1168 1174 1173
f 1168 1175 1174
f 1168 1176 1175
f 1168 1177 1176
f 1168 1178 1177
f 1168 1179 1178
f 1168 1180 1179
f 1168 1181 1180
f 1168 1182 1181
f 1168 1183 1182
f 1168 1184 1183
f 1168 1185 1184
f 1168 1186 1185
f 1168 1187 1186
f 1168 1188 1187
f 1168 1189 1188
f 1168 1190 1189
f 1168 1191 1190
f 1168 1192 1191
f 1168 1169 1192
f 1169 1194 1193
f 1169 1170 1194
f 1170 1195 1194
f 1170 1171 1195
f 1171 1196 1195
f 1171 1172 1196
f 1172 1197 1196
f 1172 1173 1197
f 1173 1198 1197
f 1173 1174 1198
f 1174 1199 1198
f 1174 1175 1199
f 1175 1200 1199
f 1175 1176 1200
f 1176 1201 1200
f 1176 1177 1201
f 1177 1202 1201
f 1177 1178 1202
f 1178 1203 1202
f 1178 1179 1203
f 1179 1204 1203
f 1179 1180 1204
f 1180 1205 1204
f 1180 1181 1205
f 1181 1206 1205
f 1181 1182 1206
f 1182 1207 1206
f 1182 1183 1207
f 1183 1208 1207
f 1183 1184 1208
f 1184 1209 1208
f 1184 1185 1209
f 1185 1210 1209
f 1185 1186 1210
f 1186 1211 1210
f 1186 1187 1211
f 1187 1212 1211
f 1187 1188 1212
f 1188 1213 1212
f 1188 1189 1213
f 1189 1214 1213
f 1189 1190 1214
f 1190 1215 1214
f 1190 1191 1215
f 1191 1216 1215
f 1191 1192 1216
f 1192 1193 1216
f 1192 1169 1193
f 1193 1218 1217
f 1193 1194 1218
f 1194 1219 1218
f 1194 1195 1219
f 1195 1220 1219
f 1195 1196 1220
f 1196 1221 1220
f 1196 1197 1221
f 1197 1222 1221
f 1197 1198 1222
f 1198 1223 1222
f 1198 1199 1223
f 1199 1224 1223
f 1199 1200 1224
f 1200 1225 1224
f 1200 1201 1225
f 1201 1226 1225
f 1201 1202 1226
f 1202 1227 1226
f 1202 1203 1227
f 1203 1228 1227
f 1203 1204 1228
f 1204 1229 1228
f 1204 1205 1229
f 1205 1230 1229
f 1205 1206 1230
f 1206 1231 1230
f 1206 1207 1231
f 1207 1232 1231
f 1207 1208 1232
f 1208 1233 1232
f 1208 1209 1233
f 1209 1234 1233
f 1209 1210 1234
f 1210 1235 1234
f 1210 1211 1235
f 1211 1236 1235
f 1211 1212 1236
f 1212 1237 1236
f 1212 1213 1237
f 1213 1238 1237
f 1213 1214 1238
f 1214 1239 1238
f 1214 1215 1239
f 1215 1240 1239
f 1215 1216 1240
f 1216 1217 1240
f 1216 1193 1217
f 1217 1242 1241
f 1217 1218 1242
f 1218 1243 1242
f 1218 1219 1243
f 1219 1244 1243
f 1219 1220 1244
f 1220 1245 1244
f 1220 1221 1245
f 1221 1246 1245
f 1221 1222 1246
f 1222 1247 1246
f 1222 1223 1247
f 1223 1248 1247
f 1223 1224 1248
f 1224 1249 1248
f 1224 1225 1249
f 1225 1250 1249
f 1225 1226 1250
f 1226 1251 1250
f 1226 1227 1251
f 1227 1252 1251
f 1227 1228 1252
f 1228 1253 1252
f 1228 1229 1253
f 1229 1254 1253
f 1229 1230 1254
f 1230 1255 1254
f 1230 1231 1255
f 1231 1256 1255
f 1231 1232 1256
f 1232 1257 1256
f 1232 1233 1257
f 1233 1258 1257
f 1233 1234 1258
f 1234 1259 1258
f 1234 1235 1259
f 1235 1260 1259
f 1235 1236 1260
f 1236 1261 1260
f 1236 1237 1261
f 1237 1262 1261
f 1237 1238 1262
f 1238 1263 1262
f 1238 1239 1263
f 1239 1264 1263
f 1239 1240 1264
f 1240 1241 1264
f 1240 1217 1241
f 1241 1266 1265
f 1241 1242 1266
f 1242 1267 1266
f 1242 1243 1267
f 1243 1268 1267
f 1243 1244 1268
f 1244 1269 1268
f 1244 1245 1269
f 1245 1270 1269
f 1245 1246 1270
f 1246 1271 1270
f 1246 1247 1271
f 1247 1272 1271
f 1247 1248 1272
f 1248 1273 1272
f 1248 1249 1273
f 1249 1274 1273
f 1249 1250 1274
f 1250 1275 1274
f 1250 1251 1275
f 1251 1276 1275
f 1251 1252 1276
f 1252 1277 1276
f 1252 1253 1277
f 1253 1278 1277
f 1253 1254 1278
f 1254 1279 1278
f 1254 1255 1279
f 1255 1280 1279
f 1255 1256 1280
f 1256 1281 1280
f 1256 1257 1281
f 1257 1282 1281
f 1257 1258 1282
f 1258 1283 1282
f 1258 1259 1283
f 1259 1284 1283
f 1259 1260 1284
f 1260 1285 1284
f 1260 1261 1285
f 1261 1286 1285
f 1261 1262 1286
f 1262 1287 1286
f 1262 1263 1287
f 1263 1288 1287
f 1263 1264 1288
f 1264 1265 1288
f 1264 1241 1265
f 1289 1265 1266
f 1289 1266 1267
f 1289 1267 1268
f 1289 1268 1269
f 1289 1269 1270
f 1289 1270 1271
f 1289 1271 1272
f 1289 1272 1273
f 1289 1273 1274
f 1289 1274 1275
f 1289 1275 1276
f 1289 1276 1277
f 1289 1277 1278
f 1289 1278 1279
f 1289 1279 1280
f 1289 1280 1281
f 1289 1281 1282
f 1289 1282 1283
f 1289 1283 1284
f 1289 1284 1285
f 1289 1285 1286
f 1289 1286 1287
f 1289 1287 1288
f 1289 1288 1265

