# https://github.com/mikedh/trimesh

o m51.off
v 0.60162600 0.46227300 0.28793000
v 0.63105800 0.47524700 0.28793000
v 0.61233300 0.46367400 0.25763100
v 0.66291700 0.47968400 0.28793000
v 0.64397600 0.47397800 0.25728400
v 0.62689100 0.45741900 0.22963800
v 0.72420800 0.46227300 0.28793000
v 0.71350100 0.46367400 0.25763100
v 0.69477500 0.47524700 0.28793000
v 0.69894300 0.45741900 0.22963800
v 0.68185700 0.47397800 0.25728400
v 0.66291700 0.42439300 0.18875800
v 0.64419100 0.44398400 0.20608300
v 0.68164200 0.44398400 0.20608300
v 0.66291700 0.46227300 0.22663800
v 0.58203400 0.44494800 0.26920400
v 0.59439100 0.44333200 0.23834400
v 0.56859900 0.42139300 0.25190300
v 0.63261800 0.41368500 0.18735700
v 0.60462500 0.39912700 0.19361200
v 0.61333100 0.43162700 0.20769800
v 0.56374500 0.36310100 0.22663800
v 0.56234400 0.39340000 0.23734600
v 0.58107000 0.38182700 0.20704700
v 0.58268500 0.41268700 0.21940400
v 0.58107000 0.34437500 0.20704700
v 0.60162600 0.36310100 0.18875800
v 0.60462500 0.32707500 0.19361200
v 0.66291700 0.39495900 0.17578400
v 0.66291700 0.36310100 0.17134600
v 0.63227100 0.38204100 0.17705300
v 0.66291700 0.30181000 0.18875800
v 0.63261800 0.31251700 0.18735700
v 0.66291700 0.33124300 0.17578400
v 0.63227100 0.34416100 0.17705300
v 0.69321600 0.41368500 0.18735700
v 0.72120800 0.39912700 0.19361200
v 0.69356200 0.38204100 0.17705300
v 0.76208800 0.36310100 0.22663800
v 0.74476300 0.34437500 0.20704700
v 0.74476300 0.38182700 0.20704700
v 0.72120800 0.32707500 0.19361200
v 0.72420800 0.36310100 0.18875800
v 0.69321600 0.31251700 0.18735700
v 0.69356200 0.34416100 0.17705300
v 0.71250200 0.43162700 0.20769800
v 0.74380000 0.44494800 0.26920400
v 0.75723400 0.42139300 0.25190300
v 0.73144200 0.44333200 0.23834400
v 0.76348900 0.39340000 0.23734600
v 0.74314800 0.41268700 0.21940400
v 0.77506200 0.36310100 0.25607200
v 0.77379400 0.39374700 0.26899000
v 0.77949900 0.36310100 0.28793000
v 0.74380000 0.44494800 0.30665600
v 0.75723400 0.42139300 0.32395600
v 0.76208800 0.42439300 0.28793000
v 0.76208800 0.36310100 0.34922100
v 0.77506200 0.36310100 0.31978800
v 0.76348900 0.39340000 0.33851400
v 0.77379400 0.39374700 0.30687000
v 0.76348900 0.33280200 0.23734600
v 0.77379400 0.33245600 0.26899000
v 0.75723400 0.30481000 0.25190300
v 0.76348900 0.33280200 0.33851400
v 0.75723400 0.30481000 0.32395600
v 0.77379400 0.33245600 0.30687000
v 0.72420800 0.26393000 0.28793000
v 0.74380000 0.28125500 0.26920400
v 0.74380000 0.28125500 0.30665600
v 0.76208800 0.30181000 0.28793000
v 0.68164200 0.28221800 0.20608300
v 0.71250200 0.29457500 0.20769800
v 0.69894300 0.26878400 0.22963800
v 0.74314800 0.31351600 0.21940400
v 0.71350100 0.26252900 0.25763100
v 0.73144200 0.28287000 0.23834400
v 0.64419100 0.28221800 0.20608300
v 0.66291700 0.26393000 0.22663800
v 0.62689100 0.26878400 0.22963800
v 0.69477500 0.25095600 0.28793000
v 0.66291700 0.24651800 0.28793000
v 0.68185700 0.25222400 0.25728400
v 0.60162600 0.26393000 0.28793000
v 0.61233300 0.26252900 0.25763100
v 0.63105800 0.25095600 0.28793000
v 0.64397600 0.25222400 0.25728400
v 0.61233300 0.26252900 0.31822900
v 0.64397600 0.25222400 0.31857500
v 0.62689100 0.26878400 0.34622100
v 0.71350100 0.26252900 0.31822900
v 0.69894300 0.26878400 0.34622100
v 0.68185700 0.25222400 0.31857500
v 0.66291700 0.30181000 0.38710100
v 0.64419100 0.28221800 0.36977600
v 0.68164200 0.28221800 0.36977600
v 0.66291700 0.26393000 0.34922100
v 0.69321600 0.31251700 0.38850200
v 0.71250200 0.29457500 0.36816100
v 0.72120800 0.32707500 0.38224700
v 0.73144200 0.28287000 0.33751600
v 0.74476300 0.34437500 0.36881300
v 0.74314800 0.31351600 0.35645500
v 0.66291700 0.33124300 0.40007500
v 0.69356200 0.34416100 0.39880700
v 0.66291700 0.36310100 0.40451300
v 0.74476300 0.38182700 0.36881300
v 0.72120800 0.39912700 0.38224700
v 0.72420800 0.36310100 0.38710100
v 0.66291700 0.42439300 0.38710100
v 0.66291700 0.39495900 0.40007500
v 0.69321600 0.41368500 0.38850200
v 0.69356200 0.38204100 0.39880700
v 0.63261800 0.31251700 0.38850200
v 0.63227100 0.34416100 0.39880700
v 0.60462500 0.32707500 0.38224700
v 0.63261800 0.41368500 0.38850200
v 0.60462500 0.39912700 0.38224700
v 0.63227100 0.38204100 0.39880700
v 0.56374500 0.36310100 0.34922100
v 0.58107000 0.34437500 0.36881300
v 0.58107000 0.38182700 0.36881300
v 0.60162600 0.36310100 0.38710100
v 0.56234400 0.39340000 0.33851400
v 0.58268500 0.41268700 0.35645500
v 0.56859900 0.42139300 0.32395600
v 0.64419100 0.44398400 0.36977600
v 0.62689100 0.45741900 0.34622100
v 0.61333100 0.43162700 0.36816100
v 0.58203400 0.44494800 0.30665600
v 0.61233300 0.46367400 0.31822900
v 0.59439100 0.44333200 0.33751600
v 0.64397600 0.47397800 0.31857500
v 0.68164200 0.44398400 0.36977600
v 0.69894300 0.45741900 0.34622100
v 0.66291700 0.46227300 0.34922100
v 0.71350100 0.46367400 0.31822900
v 0.68185700 0.47397800 0.31857500
v 0.71250200 0.43162700 0.36816100
v 0.74314800 0.41268700 0.35645500
v 0.73144200 0.44333200 0.33751600
v 0.55077100 0.36310100 0.25607200
v 0.54633400 0.36310100 0.28793000
v 0.55204000 0.39374700 0.26899000
v 0.55077100 0.36310100 0.31978800
v 0.55204000 0.39374700 0.30687000
v 0.56374500 0.42439300 0.28793000
v 0.56234400 0.33280200 0.23734600
v 0.56859900 0.30481000 0.25190300
v 0.55204000 0.33245600 0.26899000
v 0.58203400 0.28125500 0.30665600
v 0.58203400 0.28125500 0.26920400
v 0.56859900 0.30481000 0.32395600
v 0.56374500 0.30181000 0.28793000
v 0.56234400 0.33280200 0.33851400
v 0.55204000 0.33245600 0.30687000
v 0.58268500 0.31351600 0.21940400
v 0.61333100 0.29457500 0.20769800
v 0.59439100 0.28287000 0.23834400
v 0.61333100 0.29457500 0.36816100
v 0.58268500 0.31351600 0.35645500
v 0.59439100 0.28287000 0.33751600
v 0.75977000 0.35234000 0.28793000
v 0.75977000 0.35400700 0.27739900
v 0.97500000 0.38641800 0.28793000
v 0.75977000 0.35884800 0.26789900
v 0.75977000 0.36638700 0.26036000
v 0.75977000 0.37588700 0.25552000
v 0.75977000 0.38641800 0.25385100
v 0.75977000 0.39694800 0.25552000
v 0.75977000 0.40644800 0.26036000
v 0.75977000 0.41398700 0.26789900
v 0.75977000 0.41882800 0.27739900
v 0.75977000 0.42049600 0.28793000
v 0.75977000 0.41882800 0.29846000
v 0.75977000 0.41398700 0.30796000
v 0.75977000 0.40644800 0.31549900
v 0.75977000 0.39694800 0.32034000
v 0.75977000 0.38641800 0.32200800
v 0.75977000 0.37588700 0.32034000
v 0.75977000 0.36638700 0.31549900
v 0.75977000 0.35884800 0.30796000
v 0.75977000 0.35400700 0.29846000
v 0.74064700 0.44350300 0.33890000
v 0.75047300 0.44654800 0.33890000
v 0.74469800 0.44265500 0.32870600
v 0.76029800 0.44350300 0.33890000
v 0.75624800 0.44265500 0.32870600
v 0.75047300 0.43687900 0.32155600
v 0.73535300 0.43635400 0.33259900
v 0.74112900 0.43246000 0.32240500
v 0.73457500 0.42616000 0.32818100
v 0.74112900 0.41986000 0.32240500
v 0.75047300 0.42616000 0.31851200
v 0.75047300 0.41544200 0.32155600
v 0.75981700 0.43246000 0.32240500
v 0.76637100 0.42616000 0.32818100
v 0.75981700 0.41986000 0.32240500
v 0.76559300 0.43635400 0.33259900
v 0.76916200 0.42616000 0.33890000
v 0.76559300 0.43635400 0.34520000
v 0.76637100 0.42616000 0.34961800
v 0.76559300 0.41596600 0.33259900
v 0.76559300 0.41596600 0.34520000
v 0.76029800 0.40881700 0.33890000
v 0.75624800 0.40966600 0.32870600
v 0.74469800 0.40966600 0.32870600
v 0.75047300 0.40577200 0.33890000
v 0.74064700 0.40881700 0.33890000
v 0.74469800 0.40966600 0.34909400
v 0.75624800 0.40966600 0.34909400
v 0.75047300 0.41544200 0.35624300
v 0.75981700 0.41986000 0.35539400
v 0.75047300 0.42616000 0.35928800
v 0.75981700 0.43246000 0.35539400
v 0.75047300 0.43687900 0.35624300
v 0.74112900 0.41986000 0.35539400
v 0.74112900 0.43246000 0.35539400
v 0.73457500 0.42616000 0.34961800
v 0.73535300 0.43635400 0.34520000
v 0.74469800 0.44265500 0.34909400
v 0.75624800 0.44265500 0.34909400
v 0.73178400 0.42616000 0.33890000
v 0.73535300 0.41596600 0.33259900
v 0.73535300 0.41596600 0.34520000
v 0.74064700 0.44350300 0.23696000
v 0.75047300 0.44654800 0.23696000
v 0.74469800 0.44265500 0.22676500
v 0.76029800 0.44350300 0.23696000
v 0.75624800 0.44265500 0.22676500
v 0.75047300 0.43687900 0.21961600
v 0.73535300 0.43635400 0.23065900
v 0.74112900 0.43246000 0.22046500
v 0.73457500 0.42616000 0.22624100
v 0.74112900 0.41986000 0.22046500
v 0.75047300 0.42616000 0.21657200
v 0.75047300 0.41544200 0.21961600
v 0.75981700 0.43246000 0.22046500
v 0.76637100 0.42616000 0.22624100
v 0.75981700 0.41986000 0.22046500
v 0.76559300 0.43635400 0.23065900
v 0.76916200 0.42616000 0.23696000
v 0.76559300 0.43635400 0.24326000
v 0.76637100 0.42616000 0.24767800
v 0.76559300 0.41596600 0.23065900
v 0.76559300 0.41596600 0.24326000
v 0.76029800 0.40881700 0.23696000
v 0.75624800 0.40966600 0.22676500
v 0.74469800 0.40966600 0.22676500
v 0.75047300 0.40577200 0.23696000
v 0.74064700 0.40881700 0.23696000
v 0.74469800 0.40966600 0.24715300
v 0.75624800 0.40966600 0.24715300
v 0.75047300 0.41544200 0.25430200
v 0.75981700 0.41986000 0.25345400
v 0.75047300 0.42616000 0.25734800
v 0.75981700 0.43246000 0.25345400
v 0.75047300 0.43687900 0.25430200
v 0.74112900 0.41986000 0.25345400
v 0.74112900 0.43246000 0.25345400
v 0.73457500 0.42616000 0.24767800
v 0.73535300 0.43635400 0.24326000
v 0.74469800 0.44265500 0.24715300
v 0.75624800 0.44265500 0.24715300
v 0.73178400 0.42616000 0.23696000
v 0.73535300 0.41596600 0.23065900
v 0.73535300 0.41596600 0.24326000
v 0.18535200 0.33628100 0.28834300
v 0.36310100 0.36140200 0.28834300
v 0.25862200 0.32927800 0.15667000
v 0.54085100 0.33628100 0.28834300
v 0.46758000 0.32927800 0.15667000
v 0.36310100 0.28163000 0.06432680
v 0.08957130 0.27730200 0.20696500
v 0.19405300 0.24517800 0.07529150
v 0.07549350 0.19320100 0.14989500
v 0.19405300 0.14122400 0.07529150
v 0.36310100 0.19320100 0.02500000
v 0.36310100 0.10477300 0.06432680
v 0.53215100 0.24517800 0.07529150
v 0.65070700 0.19320100 0.14989500
v 0.53215100 0.14122400 0.07529150
v 0.63663000 0.27730200 0.20696500
v 0.70120200 0.19320100 0.28834300
v 0.63663000 0.27730200 0.36972100
v 0.65070700 0.19320100 0.42679200
v 0.63663000 0.10910100 0.20696500
v 0.63663000 0.10910100 0.36972100
v 0.54085100 0.05012050 0.28834300
v 0.46758000 0.05712360 0.15667000
v 0.25862200 0.05712360 0.15667000
v 0.36310100 0.02500000 0.28834300
v 0.18535200 0.05012050 0.28834300
v 0.25862200 0.05712360 0.42001500
v 0.46758000 0.05712360 0.42001500
v 0.36310100 0.10477300 0.51235800
v 0.53215100 0.14122400 0.50139400
v 0.36310100 0.19320100 0.55168800
v 0.53215100 0.24517800 0.50139400
v 0.36310100 0.28163000 0.51235800
v 0.19405300 0.14122400 0.50139400
v 0.19405300 0.24517800 0.50139400
v 0.07549350 0.19320100 0.42679200
v 0.08957130 0.27730200 0.36972100
v 0.25862200 0.32927800 0.42001500
v 0.46758000 0.32927800 0.42001500
v 0.02500000 0.19320100 0.28834300
v 0.08957130 0.10910100 0.20696500
v 0.08957130 0.10910100 0.36972100
f 1 2 3
f 4 5 2
f 6 3 5
f 2 5 3
f 7 8 9
f 10 11 8
f 4 9 11
f 8 11 9
f 12 13 14
f 6 15 13
f 10 14 15
f 13 15 14
f 4 11 5
f 10 15 11
f 6 5 15
f 11 15 5
f 1 3 16
f 6 17 3
f 18 16 17
f 3 17 16
f 12 19 13
f 20 21 19
f 6 13 21
f 19 21 13
f 22 23 24
f 18 25 23
f 20 24 25
f 23 25 24
f 6 21 17
f 20 25 21
f 18 17 25
f 21 25 17
f 22 24 26
f 20 27 24
f 28 26 27
f 24 27 26
f 12 29 19
f 30 31 29
f 20 19 31
f 29 31 19
f 32 33 34
f 28 35 33
f 30 34 35
f 33 35 34
f 20 31 27
f 30 35 31
f 28 27 35
f 31 35 27
f 12 36 29
f 37 38 36
f 30 29 38
f 36 38 29
f 39 40 41
f 42 43 40
f 37 41 43
f 40 43 41
f 32 34 44
f 30 45 34
f 42 44 45
f 34 45 44
f 37 43 38
f 42 45 43
f 30 38 45
f 43 45 38
f 12 14 36
f 10 46 14
f 37 36 46
f 14 46 36
f 7 47 8
f 48 49 47
f 10 8 49
f 47 49 8
f 39 41 50
f 37 51 41
f 48 50 51
f 41 51 50
f 10 49 46
f 48 51 49
f 37 46 51
f 49 51 46
f 39 50 52
f 48 53 50
f 54 52 53
f 50 53 52
f 7 55 47
f 56 57 55
f 48 47 57
f 55 57 47
f 58 59 60
f 54 61 59
f 56 60 61
f 59 61 60
f 48 57 53
f 56 61 57
f 54 53 61
f 57 61 53
f 39 52 62
f 54 63 52
f 64 62 63
f 52 63 62
f 58 65 59
f 66 67 65
f 54 59 67
f 65 67 59
f 68 69 70
f 64 71 69
f 66 70 71
f 69 71 70
f 54 67 63
f 66 71 67
f 64 63 71
f 67 71 63
f 32 44 72
f 42 73 44
f 74 72 73
f 44 73 72
f 39 62 40
f 64 75 62
f 42 40 75
f 62 75 40
f 68 76 69
f 74 77 76
f 64 69 77
f 76 77 69
f 42 75 73
f 64 77 75
f 74 73 77
f 75 77 73
f 32 72 78
f 74 79 72
f 80 78 79
f 72 79 78
f 68 81 76
f 82 83 81
f 74 76 83
f 81 83 76
f 84 85 86
f 80 87 85
f 82 86 87
f 85 87 86
f 74 83 79
f 82 87 83
f 80 79 87
f 83 87 79
f 84 86 88
f 82 89 86
f 90 88 89
f 86 89 88
f 68 91 81
f 92 93 91
f 82 81 93
f 91 93 81
f 94 95 96
f 90 97 95
f 92 96 97
f 95 97 96
f 82 93 89
f 92 97 93
f 90 89 97
f 93 97 89
f 94 96 98
f 92 99 96
f 100 98 99
f 96 99 98
f 68 70 91
f 66 101 70
f 92 91 101
f 70 101 91
f 58 102 65
f 100 103 102
f 66 65 103
f 102 103 65
f 92 101 99
f 66 103 101
f 100 99 103
f 101 103 99
f 94 98 104
f 100 105 98
f 106 104 105
f 98 105 104
f 58 107 102
f 108 109 107
f 100 102 109
f 107 109 102
f 110 111 112
f 106 113 111
f 108 112 113
f 111 113 112
f 100 109 105
f 108 113 109
f 106 105 113
f 109 113 105
f 94 104 114
f 106 115 104
f 116 114 115
f 104 115 114
f 110 117 111
f 118 119 117
f 106 111 119
f 117 119 111
f 120 121 122
f 116 123 121
f 118 122 123
f 121 123 122
f 106 119 115
f 118 123 119
f 116 115 123
f 119 123 115
f 120 122 124
f 118 125 122
f 126 124 125
f 122 125 124
f 110 127 117
f 128 129 127
f 118 117 129
f 127 129 117
f 1 130 131
f 126 132 130
f 128 131 132
f 130 132 131
f 118 129 125
f 128 132 129
f 126 125 132
f 129 132 125
f 1 131 2
f 128 133 131
f 4 2 133
f 131 133 2
f 110 134 127
f 135 136 134
f 128 127 136
f 134 136 127
f 7 9 137
f 4 138 9
f 135 137 138
f 9 138 137
f 128 136 133
f 135 138 136
f 4 133 138
f 136 138 133
f 110 112 134
f 108 139 112
f 135 134 139
f 112 139 134
f 58 60 107
f 56 140 60
f 108 107 140
f 60 140 107
f 7 137 55
f 135 141 137
f 56 55 141
f 137 141 55
f 108 140 139
f 56 141 140
f 135 139 141
f 140 141 139
f 22 142 23
f 143 144 142
f 18 23 144
f 142 144 23
f 120 124 145
f 126 146 124
f 143 145 146
f 124 146 145
f 1 16 130
f 18 147 16
f 126 130 147
f 16 147 130
f 143 146 144
f 126 147 146
f 18 144 147
f 146 147 144
f 22 148 142
f 149 150 148
f 143 142 150
f 148 150 142
f 84 151 152
f 153 154 151
f 149 152 154
f 151 154 152
f 120 145 155
f 143 156 145
f 153 155 156
f 145 156 155
f 149 154 150
f 153 156 154
f 143 150 156
f 154 156 150
f 22 26 148
f 28 157 26
f 149 148 157
f 26 157 148
f 32 78 33
f 80 158 78
f 28 33 158
f 78 158 33
f 84 152 85
f 149 159 152
f 80 85 159
f 152 159 85
f 28 158 157
f 80 159 158
f 149 157 159
f 158 159 157
f 94 114 95
f 116 160 114
f 90 95 160
f 114 160 95
f 120 155 121
f 153 161 155
f 116 121 161
f 155 161 121
f 84 88 151
f 90 162 88
f 153 151 162
f 88 162 151
f 116 161 160
f 153 162 161
f 90 160 162
f 161 162 160
f 163 164 165
f 164 166 165
f 166 167 165
f 167 168 165
f 168 169 165
f 169 170 165
f 170 171 165
f 171 172 165
f 172 173 165
f 173 174 165
f 174 175 165
f 175 176 165
f 176 177 165
f 177 178 165
f 178 179 165
f 179 180 165
f 180 181 165
f 181 182 165
f 182 183 165
f 183 163 165
f 183 182 181
f 184 185 186
f 187 188 185
f 189 186 188
f 185 188 186
f 184 186 190
f 189 191 186
f 192 190 191
f 186 191 190
f 192 191 193
f 189 194 191
f 195 193 194
f 191 194 193
f 189 196 194
f 197 198 196
f 195 194 198
f 196 198 194
f 189 188 196
f 187 199 188
f 197 196 199
f 188 199 196
f 197 199 200
f 187 201 199
f 202 200 201
f 199 201 200
f 197 200 203
f 202 204 200
f 205 203 204
f 200 204 203
f 195 198 206
f 197 203 198
f 205 206 203
f 198 203 206
f 195 206 207
f 205 208 206
f 209 207 208
f 206 208 207
f 209 208 210
f 205 211 208
f 212 210 211
f 208 211 210
f 212 211 213
f 205 204 211
f 202 213 204
f 211 204 213
f 212 213 214
f 202 215 213
f 216 214 215
f 213 215 214
f 212 214 217
f 216 218 214
f 219 217 218
f 214 218 217
f 219 218 220
f 216 221 218
f 184 220 221
f 218 221 220
f 184 221 185
f 216 222 221
f 187 185 222
f 221 222 185
f 216 215 222
f 202 201 215
f 187 222 201
f 215 201 222
f 192 223 190
f 219 220 223
f 184 190 220
f 223 220 190
f 192 224 223
f 209 225 224
f 219 223 225
f 224 225 223
f 192 193 224
f 195 207 193
f 209 224 207
f 193 207 224
f 212 217 210
f 219 225 217
f 209 210 225
f 217 225 210
f 226 227 228
f 229 230 227
f 231 228 230
f 227 230 228
f 226 228 232
f 231 233 228
f 234 232 233
f 228 233 232
f 234 233 235
f 231 236 233
f 237 235 236
f 233 236 235
f 231 238 236
f 239 240 238
f 237 236 240
f 238 240 236
f 231 230 238
f 229 241 230
f 239 238 241
f 230 241 238
f 239 241 242
f 229 243 241
f 244 242 243
f 241 243 242
f 239 242 245
f 244 246 242
f 247 245 246
f 242 246 245
f 237 240 248
f 239 245 240
f 247 248 245
f 240 245 248
f 237 248 249
f 247 250 248
f 251 249 250
f 248 250 249
f 251 250 252
f 247 253 250
f 254 252 253
f 250 253 252
f 254 253 255
f 247 246 253
f 244 255 246
f 253 246 255
f 254 255 256
f 244 257 255
f 258 256 257
f 255 257 256
f 254 256 259
f 258 260 256
f 261 259 260
f 256 260 259
f 261 260 262
f 258 263 260
f 226 262 263
f 260 263 262
f 226 263 227
f 258 264 263
f 229 227 264
f 263 264 227
f 258 257 264
f 244 243 257
f 229 264 243
f 257 243 264
f 234 265 232
f 261 262 265
f 226 232 262
f 265 262 232
f 234 266 265
f 251 267 266
f 261 265 267
f 266 267 265
f 234 235 266
f 237 249 235
f 251 266 249
f 235 249 266
f 254 259 252
f 261 267 259
f 251 252 267
f 259 267 252
f 268 269 270
f 271 272 269
f 269 272 270
f 268 270 274
f 271 283 272
f 281 283 284
f 286 284 285
f 283 285 284
f 281 284 287
f 286 288 284
f 289 287 288
f 284 288 287
f 268 304 305
f 268 305 269
f 271 269 306
f 305 306 269
f 271 306 285
f 268 274 304
f 273 270 272
f 273 275 270
f 276 274 275
f 270 275 274
f 281 282 280
f 279 278 282
f 280 282 278
f 273 272 280
f 281 280 283
f 272 283 280
f 279 282 290
f 281 287 282
f 289 290 287
f 282 287 290
f 279 290 291
f 289 292 290
f 293 291 292
f 290 292 291
f 293 292 294
f 289 295 292
f 296 294 295
f 292 295 294
f 296 295 297
f 289 288 295
f 286 297 288
f 295 288 297
f 296 297 298
f 286 299 297
f 297 299 298
f 303 302 304
f 300 305 302
f 302 305 304
f 300 306 305
f 300 299 306
f 286 285 299
f 299 285 306
f 276 307 274
f 303 304 307
f 307 304 274
f 276 308 307
f 293 309 308
f 303 307 309
f 308 309 307
f 276 277 308
f 279 291 277
f 293 308 291
f 296 301 294
f 303 309 301
f 293 294 309
f 276 275 277
f 273 278 275
f 279 277 278
f 275 278 277
f 273 280 278
f 300 298 299
f 296 298 301
f 300 302 298
f 303 301 302
f 298 302 301
f 271 285 283
f 277 291 308
f 301 309 294
f 183 181 180
f 183 180 179
f 183 179 178
f 183 178 177
f 183 177 176
f 183 176 175
f 183 175 174
f 183 174 173
f 183 173 172
f 183 172 171
f 183 171 170
f 183 170 169
f 183 169 168
f 183 168 167
f 183 167 166
f 183 166 164
f 183 164 163

