# https://github.com/mikedh/trimesh

o m46.off
v 0.49947900 0.24156300 0.43734900
v 0.49947800 0.24156300 0.43734900
v 0.49947900 0.24156300 0.43734800
v 0.49947900 0.24156300 0.43735000
v 0.49947800 0.24156300 0.43734800
v 0.49948000 0.24156300 0.43734800
v 0.49948000 0.24156300 0.43734900
v 0.49947800 0.24156300 0.43735000
v 0.49947900 0.24156300 0.43734700
v 0.49948000 0.24156300 0.43735000
v 0.49947900 0.24156200 0.43735000
v 0.49947800 0.24156200 0.43735000
v 0.49947700 0.24156200 0.43734900
v 0.49947700 0.24156200 0.43734800
v 0.49947800 0.24156200 0.43734700
v 0.49947900 0.24156200 0.43734700
v 0.49948000 0.24156200 0.43734700
v 0.49948000 0.24156200 0.43734800
v 0.49948000 0.24156200 0.43734900
v 0.49948000 0.24156200 0.43735000
v 0.49947900 0.24156100 0.43735000
v 0.49947800 0.24156100 0.43735000
v 0.49947700 0.24156100 0.43734900
v 0.49947700 0.24156100 0.43734800
v 0.49947800 0.24156100 0.43734700
v 0.49947900 0.24156100 0.43734700
v 0.49948000 0.24156100 0.43734700
v 0.49948000 0.24156100 0.43734800
v 0.49948000 0.24156100 0.43734900
v 0.49948000 0.24156100 0.43735000
v 0.49947800 0.24156100 0.43734900
v 0.49947800 0.24156100 0.43734800
v 0.49947900 0.24156000 0.43735000
v 0.49947800 0.24156000 0.43734900
v 0.49947800 0.24156000 0.43734800
v 0.49947900 0.24156000 0.43734800
v 0.49948000 0.24156000 0.43734800
v 0.49948000 0.24156000 0.43734900
v 0.49947900 0.24156000 0.43734900
v 0.49947900 0.24156500 0.43734900
v 0.49948100 0.24156200 0.43734900
v 0.49947900 0.24156200 0.43734900
v 0.49947700 0.24156200 0.43735000
v 0.49959300 0.22665100 0.58118500
v 0.52379600 0.23671400 0.58116600
v 0.50904700 0.25594900 0.61506200
v 0.49962000 0.25200000 0.61507000
v 0.49955500 0.22703300 0.53277900
v 0.52299400 0.23684200 0.53276000
v 0.49952300 0.19735200 0.49341700
v 0.54296200 0.21658700 0.49338200
v 0.49939500 0.20474000 0.33202000
v 0.53901200 0.22384800 0.33198800
v 0.49931500 0.26180900 0.23189500
v 0.52160800 0.26563100 0.23187700
v 0.53386000 0.26091700 0.58115800
v 0.51286800 0.26524800 0.61505900
v 0.53280200 0.26028000 0.53275200
v 0.56092300 0.24945300 0.49336800
v 0.55531700 0.25301900 0.33197500
v 0.53090700 0.27098100 0.23187000
v 0.52876500 0.27301900 0.58116200
v 0.51642200 0.27989800 0.59811400
v 0.50904700 0.27467500 0.61506200
v 0.52299400 0.28384700 0.53276000
v 0.52366000 0.28473800 0.56906400
v 0.54296200 0.28346500 0.49338200
v 0.53901200 0.28359200 0.33198800
v 0.52160800 0.27747700 0.23187700
v 0.49955500 0.29352800 0.53277900
v 0.49959300 0.29505700 0.58118500
v 0.51169500 0.29008900 0.58117600
v 0.49952300 0.30270000 0.49341700
v 0.49939500 0.30015200 0.33202000
v 0.49931500 0.27977000 0.23189500
v 0.48749200 0.29008900 0.58119500
v 0.48279200 0.27989800 0.59814100
v 0.49019400 0.27467500 0.61507700
v 0.49962000 0.27862400 0.61507000
v 0.47611600 0.28384700 0.53279700
v 0.47550800 0.28473800 0.56910300
v 0.45608500 0.28346500 0.49345100
v 0.45990600 0.28359200 0.33205100
v 0.47702300 0.27747700 0.23191300
v 0.46630700 0.26028000 0.53280500
v 0.46532700 0.26091700 0.58121200
v 0.47042200 0.27301900 0.58120800
v 0.43812400 0.24945300 0.49346600
v 0.44347300 0.25301900 0.33206400
v 0.46772400 0.27098100 0.23192000
v 0.47539000 0.23671400 0.58120400
v 0.49019400 0.25594900 0.61507700
v 0.48637200 0.26524800 0.61508000
v 0.47611600 0.23684200 0.53279700
v 0.45608500 0.21658700 0.49345100
v 0.45977800 0.22384800 0.33205100
v 0.47702300 0.26563100 0.23191300
v 0.49967600 0.27442000 0.68525900
v 0.48627200 0.26372000 0.64934700
v 0.49063500 0.26372000 0.68921500
v 0.49969200 0.26282800 0.70487600
v 0.51302300 0.26372000 0.64932600
v 0.50872400 0.26372000 0.68920100
v 0.49965200 0.25301900 0.65494100
v 0.49967300 0.26372000 0.68169200
v 0.48277900 0.31047000 0.58119900
v 0.47805500 0.30922300 0.58120200
v 0.47895700 0.30922300 0.58073900
v 0.48131800 0.30922300 0.58045100
v 0.48423800 0.30922300 0.58044900
v 0.48660000 0.30922300 0.58073300
v 0.48750200 0.30922300 0.58119500
v 0.48660000 0.30922300 0.58165800
v 0.48423900 0.30922300 0.58194600
v 0.48131900 0.30922300 0.58194800
v 0.47895700 0.30922300 0.58166400
v 0.47379400 0.30560400 0.58120600
v 0.47550900 0.30560400 0.58032400
v 0.48000100 0.30560400 0.57977700
v 0.48555400 0.30560400 0.57977200
v 0.49004700 0.30560400 0.58031300
v 0.49176400 0.30560400 0.58119100
v 0.49004800 0.30560400 0.58207300
v 0.48555600 0.30560400 0.58262100
v 0.48000300 0.30560400 0.58262500
v 0.47551000 0.30560400 0.58208500
v 0.47041200 0.29996800 0.58120800
v 0.47277300 0.29996800 0.57999500
v 0.47895500 0.29996800 0.57924100
v 0.48659800 0.29996800 0.57923500
v 0.49278300 0.29996800 0.57997900
v 0.49514500 0.29996800 0.58118900
v 0.49278400 0.29996800 0.58240200
v 0.48660200 0.29996800 0.58315600
v 0.47895900 0.29996800 0.58316200
v 0.47277500 0.29996800 0.58241800
v 0.46824000 0.29286600 0.58121000
v 0.47101600 0.29286600 0.57978400
v 0.47828400 0.29286600 0.57889800
v 0.48726900 0.29286600 0.57889100
v 0.49453900 0.29286600 0.57976500
v 0.49731700 0.29286600 0.58118700
v 0.49454100 0.29286600 0.58261300
v 0.48727300 0.29286600 0.58349900
v 0.47828800 0.29286600 0.58350700
v 0.47101800 0.29286600 0.58263200
v 0.46749200 0.28499300 0.58121100
v 0.47041100 0.28499300 0.57971100
v 0.47805300 0.28499300 0.57877900
v 0.48750000 0.28499300 0.57877200
v 0.49514400 0.28499300 0.57969100
v 0.49806500 0.28499300 0.58118600
v 0.49514700 0.28499300 0.58268600
v 0.48750400 0.28499300 0.58361800
v 0.47805700 0.28499300 0.58362500
v 0.47041300 0.28499300 0.58270600
v 0.46824000 0.27712000 0.58121000
v 0.47101600 0.27712000 0.57978400
v 0.47828400 0.27712000 0.57889800
v 0.48726900 0.27712000 0.57889100
v 0.49453900 0.27712000 0.57976500
v 0.49731700 0.27712000 0.58118700
v 0.49454100 0.27712000 0.58261300
v 0.48727300 0.27712000 0.58349900
v 0.47828800 0.27712000 0.58350700
v 0.47101800 0.27712000 0.58263200
v 0.47041200 0.27001800 0.58120800
v 0.47277300 0.27001800 0.57999500
v 0.47895500 0.27001800 0.57924100
v 0.48659800 0.27001800 0.57923500
v 0.49278300 0.27001800 0.57997900
v 0.49514500 0.27001800 0.58118900
v 0.49278400 0.27001800 0.58240200
v 0.48660200 0.27001800 0.58315600
v 0.47895900 0.27001800 0.58316200
v 0.47277500 0.27001800 0.58241800
v 0.47379400 0.26438200 0.58120600
v 0.47550900 0.26438200 0.58032400
v 0.48000100 0.26438200 0.57977700
v 0.48555400 0.26438200 0.57977200
v 0.49004700 0.26438200 0.58031300
v 0.49176400 0.26438200 0.58119100
v 0.49004800 0.26438200 0.58207300
v 0.48555600 0.26438200 0.58262100
v 0.48000300 0.26438200 0.58262500
v 0.47551000 0.26438200 0.58208500
v 0.47805500 0.26076300 0.58120200
v 0.47895700 0.26076300 0.58073900
v 0.48131800 0.26076300 0.58045100
v 0.48423800 0.26076300 0.58044900
v 0.48660000 0.26076300 0.58073300
v 0.48750200 0.26076300 0.58119500
v 0.48660000 0.26076300 0.58165800
v 0.48423900 0.26076300 0.58194600
v 0.48131900 0.26076300 0.58194800
v 0.47895700 0.26076300 0.58166400
v 0.48277900 0.25951600 0.58119900
v 0.48278000 0.29569300 0.58260000
v 0.48100800 0.29522600 0.58260100
v 0.48134600 0.29522600 0.58225400
v 0.48223200 0.29522600 0.58203900
v 0.48332700 0.29522600 0.58203800
v 0.48421200 0.29522600 0.58225200
v 0.48455100 0.29522600 0.58259800
v 0.48421300 0.29522600 0.58294600
v 0.48332700 0.29522600 0.58316100
v 0.48223300 0.29522600 0.58316200
v 0.48134700 0.29522600 0.58294800
v 0.47941000 0.29386900 0.58260200
v 0.48005300 0.29386900 0.58194200
v 0.48173800 0.29386900 0.58153200
v 0.48382000 0.29386900 0.58153100
v 0.48550500 0.29386900 0.58193700
v 0.48614900 0.29386900 0.58259700
v 0.48550600 0.29386900 0.58325800
v 0.48382200 0.29386900 0.58366700
v 0.48173900 0.29386900 0.58366900
v 0.48005400 0.29386900 0.58326200
v 0.47814200 0.29175500 0.58260300
v 0.47902700 0.29175500 0.58169400
v 0.48134500 0.29175500 0.58113100
v 0.48421200 0.29175500 0.58112800
v 0.48653100 0.29175500 0.58168800
v 0.48741700 0.29175500 0.58259600
v 0.48653200 0.29175500 0.58350500
v 0.48421400 0.29175500 0.58406900
v 0.48134800 0.29175500 0.58407100
v 0.47902800 0.29175500 0.58351100
v 0.47732800 0.28909200 0.58260400
v 0.47836800 0.28909200 0.58153500
v 0.48109400 0.28909200 0.58087300
v 0.48446300 0.28909200 0.58087000
v 0.48718900 0.28909200 0.58152800
v 0.48823100 0.28909200 0.58259500
v 0.48719100 0.28909200 0.58366400
v 0.48446600 0.28909200 0.58432700
v 0.48109600 0.28909200 0.58432900
v 0.47837000 0.28909200 0.58367100
v 0.47704700 0.28614000 0.58260400
v 0.47814100 0.28614000 0.58148000
v 0.48100700 0.28614000 0.58078400
v 0.48455000 0.28614000 0.58078100
v 0.48741600 0.28614000 0.58147300
v 0.48851200 0.28614000 0.58259500
v 0.48741800 0.28614000 0.58371900
v 0.48455200 0.28614000 0.58441600
v 0.48101000 0.28614000 0.58441800
v 0.47814300 0.28614000 0.58372700
v 0.47732800 0.28318700 0.58260400
v 0.47836800 0.28318700 0.58153500
v 0.48109400 0.28318700 0.58087300
v 0.48446300 0.28318700 0.58087000
v 0.48718900 0.28318700 0.58152800
v 0.48823100 0.28318700 0.58259500
v 0.48719100 0.28318700 0.58366400
v 0.48446600 0.28318700 0.58432700
v 0.48109600 0.28318700 0.58432900
v 0.47837000 0.28318700 0.58367100
v 0.47814200 0.28052400 0.58260300
v 0.47902700 0.28052400 0.58169400
v 0.48134500 0.28052400 0.58113100
v 0.48421200 0.28052400 0.58112800
v 0.48653100 0.28052400 0.58168800
v 0.48741700 0.28052400 0.58259600
v 0.48653200 0.28052400 0.58350500
v 0.48421400 0.28052400 0.58406900
v 0.48134800 0.28052400 0.58407100
v 0.47902800 0.28052400 0.58351100
v 0.47941000 0.27841000 0.58260200
v 0.48005300 0.27841000 0.58194200
v 0.48173800 0.27841000 0.58153200
v 0.48382000 0.27841000 0.58153100
v 0.48550500 0.27841000 0.58193700
v 0.48614900 0.27841000 0.58259700
v 0.48550600 0.27841000 0.58325800
v 0.48382200 0.27841000 0.58366700
v 0.48173900 0.27841000 0.58366900
v 0.48005400 0.27841000 0.58326200
v 0.48100800 0.27705300 0.58260100
v 0.48134600 0.27705300 0.58225400
v 0.48223200 0.27705300 0.58203900
v 0.48332700 0.27705300 0.58203800
v 0.48421200 0.27705300 0.58225200
v 0.48455100 0.27705300 0.58259800
v 0.48421300 0.27705300 0.58294600
v 0.48332700 0.27705300 0.58316100
v 0.48223300 0.27705300 0.58316200
v 0.48134700 0.27705300 0.58294800
v 0.48278000 0.27658600 0.58260000
v 0.52099400 0.31047000 0.58116800
v 0.51627000 0.30922300 0.58117200
v 0.51717200 0.30922300 0.58070800
v 0.51953400 0.30922300 0.58042100
v 0.52245300 0.30922300 0.58041800
v 0.52481500 0.30922300 0.58070200
v 0.52571800 0.30922300 0.58116400
v 0.52481600 0.30922300 0.58162800
v 0.52245400 0.30922300 0.58191600
v 0.51953500 0.30922300 0.58191800
v 0.51717300 0.30922300 0.58163400
v 0.51200900 0.30560400 0.58117500
v 0.51372400 0.30560400 0.58029400
v 0.51821600 0.30560400 0.57974600
v 0.52376900 0.30560400 0.57974200
v 0.52826200 0.30560400 0.58028200
v 0.52997900 0.30560400 0.58116100
v 0.52826400 0.30560400 0.58204300
v 0.52377200 0.30560400 0.58259000
v 0.51821900 0.30560400 0.58259500
v 0.51372600 0.30560400 0.58205400
v 0.50862700 0.29996800 0.58117800
v 0.51098800 0.29996800 0.57996500
v 0.51717100 0.29996800 0.57921100
v 0.52481400 0.29996800 0.57920500
v 0.53099800 0.29996800 0.57994900
v 0.53336100 0.29996800 0.58115800
v 0.53100000 0.29996800 0.58237200
v 0.52481700 0.29996800 0.58312500
v 0.51717400 0.29996800 0.58313100
v 0.51099000 0.29996800 0.58238800
v 0.50645600 0.29286600 0.58118000
v 0.50923100 0.29286600 0.57975300
v 0.51650000 0.29286600 0.57886700
v 0.52548500 0.29286600 0.57886000
v 0.53275400 0.29286600 0.57973500
v 0.53553200 0.29286600 0.58115700
v 0.53275700 0.29286600 0.58258300
v 0.52548800 0.29286600 0.58346900
v 0.51650300 0.29286600 0.58347600
v 0.50923400 0.29286600 0.58260200
v 0.50570800 0.28499300 0.58118000
v 0.50862600 0.28499300 0.57968000
v 0.51626800 0.28499300 0.57874900
v 0.52571600 0.28499300 0.57874100
v 0.53336000 0.28499300 0.57966100
v 0.53628000 0.28499300 0.58115600
v 0.53336200 0.28499300 0.58265600
v 0.52572000 0.28499300 0.58358700
v 0.51627200 0.28499300 0.58359500
v 0.50862800 0.28499300 0.58267500
v 0.50645600 0.27712000 0.58118000
v 0.50923100 0.27712000 0.57975300
v 0.51650000 0.27712000 0.57886700
v 0.52548500 0.27712000 0.57886000
v 0.53275400 0.27712000 0.57973500
v 0.53553200 0.27712000 0.58115700
v 0.53275700 0.27712000 0.58258300
v 0.52548800 0.27712000 0.58346900
v 0.51650300 0.27712000 0.58347600
v 0.50923400 0.27712000 0.58260200
v 0.50862700 0.27001800 0.58117800
v 0.51098800 0.27001800 0.57996500
v 0.51717100 0.27001800 0.57921100
v 0.52481400 0.27001800 0.57920500
v 0.53099800 0.27001800 0.57994900
v 0.53336100 0.27001800 0.58115800
v 0.53100000 0.27001800 0.58237200
v 0.52481700 0.27001800 0.58312500
v 0.51717400 0.27001800 0.58313100
v 0.51099000 0.27001800 0.58238800
v 0.51200900 0.26438200 0.58117500
v 0.51372400 0.26438200 0.58029400
v 0.51821600 0.26438200 0.57974600
v 0.52376900 0.26438200 0.57974200
v 0.52826200 0.26438200 0.58028200
v 0.52997900 0.26438200 0.58116100
v 0.52826400 0.26438200 0.58204300
v 0.52377200 0.26438200 0.58259000
v 0.51821900 0.26438200 0.58259500
v 0.51372600 0.26438200 0.58205400
v 0.51627000 0.26076300 0.58117200
v 0.51717200 0.26076300 0.58070800
v 0.51953400 0.26076300 0.58042100
v 0.52245300 0.26076300 0.58041800
v 0.52481500 0.26076300 0.58070200
v 0.52571800 0.26076300 0.58116400
v 0.52481600 0.26076300 0.58162800
v 0.52245400 0.26076300 0.58191600
v 0.51953500 0.26076300 0.58191800
v 0.51717300 0.26076300 0.58163400
v 0.52099400 0.25951600 0.58116800
v 0.52099500 0.29569300 0.58256900
v 0.51922400 0.29522600 0.58257100
v 0.51956200 0.29522600 0.58222300
v 0.52044700 0.29522600 0.58200800
v 0.52154200 0.29522600 0.58200700
v 0.52242800 0.29522600 0.58222100
v 0.52276700 0.29522600 0.58256800
v 0.52242900 0.29522600 0.58291500
v 0.52154300 0.29522600 0.58313000
v 0.52044800 0.29522600 0.58313100
v 0.51956200 0.29522600 0.58291800
v 0.51762600 0.29386900 0.58257200
v 0.51826900 0.29386900 0.58191100
v 0.51995300 0.29386900 0.58150200
v 0.52203600 0.29386900 0.58150000
v 0.52372100 0.29386900 0.58190700
v 0.52436500 0.29386900 0.58256700
v 0.52372200 0.29386900 0.58322700
v 0.52203700 0.29386900 0.58363700
v 0.51995500 0.29386900 0.58363800
v 0.51827000 0.29386900 0.58323200
v 0.51635800 0.29175500 0.58257300
v 0.51724300 0.29175500 0.58166400
v 0.51956100 0.29175500 0.58110000
v 0.52242700 0.29175500 0.58109800
v 0.52474600 0.29175500 0.58165800
v 0.52563300 0.29175500 0.58256600
v 0.52474800 0.29175500 0.58347500
v 0.52242900 0.29175500 0.58403800
v 0.51956300 0.29175500 0.58404100
v 0.51724400 0.29175500 0.58348100
v 0.51554300 0.28909200 0.58257400
v 0.51658400 0.28909200 0.58150500
v 0.51930900 0.28909200 0.58084200
v 0.52267800 0.28909200 0.58084000
v 0.52540500 0.28909200 0.58149800
v 0.52644700 0.28909200 0.58256500
v 0.52540700 0.28909200 0.58363400
v 0.52268100 0.28909200 0.58429600
v 0.51931200 0.28909200 0.58429900
v 0.51658500 0.28909200 0.58364100
v 0.51526300 0.28614000 0.58257400
v 0.51635700 0.28614000 0.58145000
v 0.51922200 0.28614000 0.58075400
v 0.52276500 0.28614000 0.58075100
v 0.52563200 0.28614000 0.58144300
v 0.52672700 0.28614000 0.58256500
v 0.52563400 0.28614000 0.58368900
v 0.52276800 0.28614000 0.58438500
v 0.51922500 0.28614000 0.58438800
v 0.51635800 0.28614000 0.58369600
v 0.51554300 0.28318700 0.58257400
v 0.51658400 0.28318700 0.58150500
v 0.51930900 0.28318700 0.58084200
v 0.52267800 0.28318700 0.58084000
v 0.52540500 0.28318700 0.58149800
v 0.52644700 0.28318700 0.58256500
v 0.52540700 0.28318700 0.58363400
v 0.52268100 0.28318700 0.58429600
v 0.51931200 0.28318700 0.58429900
v 0.51658500 0.28318700 0.58364100
v 0.51635800 0.28052400 0.58257300
v 0.51724300 0.28052400 0.58166400
v 0.51956100 0.28052400 0.58110000
v 0.52242700 0.28052400 0.58109800
v 0.52474600 0.28052400 0.58165800
v 0.52563300 0.28052400 0.58256600
v 0.52474800 0.28052400 0.58347500
v 0.52242900 0.28052400 0.58403800
v 0.51956300 0.28052400 0.58404100
v 0.51724400 0.28052400 0.58348100
v 0.51762600 0.27841000 0.58257200
v 0.51826900 0.27841000 0.58191100
v 0.51995300 0.27841000 0.58150200
v 0.52203600 0.27841000 0.58150000
v 0.52372100 0.27841000 0.58190700
v 0.52436500 0.27841000 0.58256700
v 0.52372200 0.27841000 0.58322700
v 0.52203700 0.27841000 0.58363700
v 0.51995500 0.27841000 0.58363800
v 0.51827000 0.27841000 0.58323200
v 0.51922400 0.27705300 0.58257100
v 0.51956200 0.27705300 0.58222300
v 0.52044700 0.27705300 0.58200800
v 0.52154200 0.27705300 0.58200700
v 0.52242800 0.27705300 0.58222100
v 0.52276700 0.27705300 0.58256800
v 0.52242900 0.27705300 0.58291500
v 0.52154300 0.27705300 0.58313000
v 0.52044800 0.27705300 0.58313100
v 0.51956200 0.27705300 0.58291800
v 0.52099500 0.27658600 0.58256900
v 0.45159100 0.27289800 0.48836000
v 0.21201400 0.31200500 0.53160700
v 0.20813300 0.31264200 0.45785400
v 0.45378700 0.27251600 0.36696000
v 0.21184500 0.32130400 0.47950600
v 0.45815700 0.28117800 0.41523500
v 0.21595500 0.32066700 0.52179500
v 0.45680000 0.28143300 0.47115800
v 0.21569800 0.31269300 0.53351400
v 0.04352960 0.27312300 0.47976800
v 0.02500000 0.26885300 0.44360500
v 0.21811100 0.31332400 0.45950200
v 0.06836590 0.28582900 0.46331500
v 0.21268400 0.32157900 0.47950500
v 0.06974850 0.28610700 0.47503300
v 0.21533800 0.32211100 0.52039400
v 0.54569500 0.27136900 0.36688700
v 0.79149400 0.31136800 0.45738900
v 0.78773100 0.31073100 0.53114800
v 0.54808500 0.27175100 0.48828300
v 0.54140300 0.28003200 0.41516900
v 0.78768900 0.32003000 0.47904800
v 0.54272100 0.28015900 0.47109000
v 0.78364700 0.31939400 0.52134300
v 0.78179000 0.31244900 0.45905300
v 0.97500000 0.26795200 0.44284800
v 0.95640300 0.27224700 0.47904100
v 0.78444600 0.31179300 0.53306200
v 0.78737400 0.32067900 0.47904800
v 0.93154100 0.28495300 0.46262800
v 0.78466000 0.32123500 0.51994100
v 0.93030200 0.28520600 0.47434800
v 0.47256300 0.26808400 0.23049400
v 0.45933000 0.27993100 0.08910650
v 0.49915000 0.28515400 0.02500000
v 0.53907300 0.27993100 0.08904300
v 0.52606500 0.26808400 0.23045100
v 0.49919300 0.28986700 0.07837440
v 0.49931400 0.27712800 0.23072700
v 0.49947900 0.02500000 0.43736700
v 0.37199200 0.02500000 0.31008400
v 0.37219500 0.02500000 0.56485400
f 1 1 1
f 1 2 1
f 2 2 1
f 2 3 1
f 3 3 1
f 3 3 1
f 3 1 1
f 1 1 1
f 1 1 1
f 1 1 1
f 1 4 1
f 4 2 1
f 1 2 2
f 2 2 2
f 2 2 2
f 2 5 2
f 2 5 3
f 5 5 3
f 3 5 3
f 5 3 3
f 3 3 3
f 3 3 3
f 3 3 1
f 3 6 1
f 1 6 1
f 6 7 1
f 1 7 1
f 7 1 1
f 1 1 1
f 1 4 1
f 4 4 2
f 4 8 2
f 2 8 2
f 8 2 2
f 2 2 5
f 2 5 5
f 5 5 5
f 5 5 5
f 5 5 3
f 5 9 3
f 3 9 3
f 9 6 3
f 3 6 6
f 6 6 6
f 6 6 7
f 6 7 7
f 7 7 1
f 7 10 1
f 1 10 4
f 10 4 4
f 4 11 8
f 11 12 8
f 8 12 2
f 12 13 2
f 2 13 5
f 13 14 5
f 5 14 5
f 14 15 5
f 5 15 9
f 15 16 9
f 9 16 6
f 16 17 6
f 6 17 6
f 17 18 6
f 6 18 7
f 18 19 7
f 7 19 10
f 19 20 10
f 10 20 4
f 20 11 4
f 11 11 12
f 11 12 12
f 12 12 13
f 12 13 13
f 13 13 14
f 13 14 14
f 14 14 15
f 14 15 15
f 15 15 16
f 15 16 16
f 16 16 17
f 16 17 17
f 17 17 18
f 17 18 18
f 18 18 19
f 18 19 19
f 19 19 20
f 19 20 20
f 20 20 11
f 20 11 11
f 11 21 12
f 21 22 12
f 12 22 13
f 22 23 13
f 13 23 14
f 23 24 14
f 14 24 15
f 24 25 15
f 15 25 16
f 25 26 16
f 16 26 17
f 26 27 17
f 17 27 18
f 27 28 18
f 18 28 19
f 28 29 19
f 19 29 20
f 29 30 20
f 20 30 11
f 30 21 11
f 21 21 22
f 21 22 22
f 22 22 23
f 22 31 23
f 23 31 24
f 31 32 24
f 24 32 25
f 32 32 25
f 25 32 26
f 32 26 26
f 26 26 27
f 26 28 27
f 27 28 28
f 28 28 28
f 28 28 29
f 28 29 29
f 29 29 30
f 29 30 30
f 30 30 21
f 30 21 21
f 21 33 22
f 33 34 22
f 22 34 31
f 34 34 31
f 31 34 32
f 34 35 32
f 32 35 32
f 35 35 32
f 32 35 26
f 35 36 26
f 26 36 28
f 36 36 28
f 28 36 28
f 36 37 28
f 28 37 29
f 37 38 29
f 29 38 30
f 38 39 30
f 30 39 21
f 39 33 21
f 33 39 34
f 39 39 34
f 34 39 34
f 39 34 34
f 34 34 35
f 34 34 35
f 35 34 35
f 34 36 35
f 35 36 36
f 36 36 36
f 36 36 36
f 36 36 36
f 36 36 37
f 36 39 37
f 37 39 38
f 39 39 38
f 38 39 39
f 39 39 39
f 39 39 33
f 39 39 33
f 39 39 39
f 39 39 34
f 34 39 34
f 34 39 36
f 36 39 36
f 39 39 36
f 36 39 36
f 36 39 39
f 39 39 39
f 39 39 39
f 39 39 39
f 39 39 39
f 40 20 41
f 42 41 20
f 40 11 20
f 42 20 11
f 40 12 11
f 42 11 12
f 40 43 12
f 42 12 43
f 40 13 43
f 42 43 13
f 40 14 13
f 42 13 14
f 40 15 14
f 42 14 15
f 40 16 15
f 42 15 16
f 40 18 16
f 42 16 18
f 40 41 18
f 42 18 41
f 44 45 46
f 44 46 47
f 48 49 45
f 48 45 44
f 50 51 49
f 50 49 48
f 52 53 51
f 52 51 50
f 54 55 53
f 54 53 52
f 45 56 57
f 45 57 46
f 49 58 56
f 49 56 45
f 51 59 58
f 51 58 49
f 53 60 59
f 53 59 51
f 55 61 60
f 55 60 53
f 56 62 63
f 56 63 64
f 56 64 57
f 58 65 66
f 58 66 62
f 58 62 56
f 59 67 65
f 59 65 58
f 60 68 67
f 60 67 59
f 61 69 68
f 61 68 60
f 65 70 71
f 65 71 72
f 65 72 66
f 67 73 70
f 67 70 65
f 68 74 73
f 68 73 67
f 69 75 74
f 69 74 68
f 71 76 77
f 71 78 79
f 70 80 81
f 70 81 76
f 70 76 71
f 73 82 80
f 73 80 70
f 74 83 82
f 74 82 73
f 75 84 83
f 75 83 74
f 80 85 86
f 80 86 87
f 80 87 81
f 82 88 85
f 82 85 80
f 83 89 88
f 83 88 82
f 84 90 89
f 84 89 83
f 86 91 92
f 86 92 93
f 85 94 91
f 85 91 86
f 88 95 94
f 88 94 85
f 89 96 95
f 89 95 88
f 90 97 96
f 90 96 89
f 91 44 47
f 91 47 92
f 94 48 44
f 94 44 91
f 95 50 48
f 95 48 94
f 96 52 50
f 96 50 95
f 97 54 52
f 97 52 96
f 55 54 97
f 87 86 93
f 87 93 78
f 87 78 77
f 72 71 79
f 72 79 64
f 72 64 63
f 77 76 81
f 77 81 87
f 62 66 72
f 62 72 63
f 98 79 78
f 99 78 93
f 99 98 78
f 100 98 99
f 100 101 98
f 64 79 98
f 57 64 102
f 64 98 102
f 102 98 103
f 98 101 103
f 93 92 99
f 104 92 47
f 104 105 99
f 104 99 92
f 102 46 57
f 47 46 104
f 102 105 104
f 46 102 104
f 100 99 105
f 100 105 101
f 103 101 105
f 103 105 102
f 107 108 106
f 108 109 106
f 109 110 106
f 110 111 106
f 111 112 106
f 112 113 106
f 113 114 106
f 114 115 106
f 115 116 106
f 116 107 106
f 107 117 108
f 117 118 108
f 108 118 109
f 118 119 109
f 109 119 110
f 119 120 110
f 110 120 111
f 120 121 111
f 111 121 112
f 121 122 112
f 112 122 113
f 122 123 113
f 113 123 114
f 123 124 114
f 114 124 115
f 124 125 115
f 115 125 116
f 125 126 116
f 116 126 107
f 126 117 107
f 117 127 118
f 127 128 118
f 118 128 119
f 128 129 119
f 119 129 120
f 129 130 120
f 120 130 121
f 130 131 121
f 121 131 122
f 131 132 122
f 122 132 123
f 132 133 123
f 123 133 124
f 133 134 124
f 124 134 125
f 134 135 125
f 125 135 126
f 135 136 126
f 126 136 117
f 136 127 117
f 127 137 128
f 137 138 128
f 128 138 129
f 138 139 129
f 129 139 130
f 139 140 130
f 130 140 131
f 140 141 131
f 131 141 132
f 141 142 132
f 132 142 133
f 142 143 133
f 133 143 134
f 143 144 134
f 134 144 135
f 144 145 135
f 135 145 136
f 145 146 136
f 136 146 127
f 146 137 127
f 137 147 138
f 147 148 138
f 138 148 139
f 148 149 139
f 139 149 140
f 149 150 140
f 140 150 141
f 150 151 141
f 141 151 142
f 151 152 142
f 142 152 143
f 152 153 143
f 143 153 144
f 153 154 144
f 144 154 145
f 154 155 145
f 145 155 146
f 155 156 146
f 146 156 137
f 156 147 137
f 147 157 148
f 157 158 148
f 148 158 149
f 158 159 149
f 149 159 150
f 159 160 150
f 150 160 151
f 160 161 151
f 151 161 152
f 161 162 152
f 152 162 153
f 162 163 153
f 153 163 154
f 163 164 154
f 154 164 155
f 164 165 155
f 155 165 156
f 165 166 156
f 156 166 147
f 166 157 147
f 157 167 158
f 167 168 158
f 158 168 159
f 168 169 159
f 159 169 160
f 169 170 160
f 160 170 161
f 170 171 161
f 161 171 162
f 171 172 162
f 162 172 163
f 172 173 163
f 163 173 164
f 173 174 164
f 164 174 165
f 174 175 165
f 165 175 166
f 175 176 166
f 166 176 157
f 176 167 157
f 167 177 168
f 177 178 168
f 168 178 169
f 178 179 169
f 169 179 170
f 179 180 170
f 170 180 171
f 180 181 171
f 171 181 172
f 181 182 172
f 172 182 173
f 182 183 173
f 173 183 174
f 183 184 174
f 174 184 175
f 184 185 175
f 175 185 176
f 185 186 176
f 176 186 167
f 186 177 167
f 177 187 178
f 187 188 178
f 178 188 179
f 188 189 179
f 179 189 180
f 189 190 180
f 180 190 181
f 190 191 181
f 181 191 182
f 191 192 182
f 182 192 183
f 192 193 183
f 183 193 184
f 193 194 184
f 184 194 185
f 194 195 185
f 185 195 186
f 195 196 186
f 186 196 177
f 196 187 177
f 187 197 188
f 188 197 189
f 197 197 189
f 189 197 190
f 190 197 191
f 191 197 192
f 192 197 193
f 193 197 194
f 197 197 194
f 194 197 195
f 195 197 196
f 197 197 196
f 196 197 187
f 199 200 198
f 200 201 198
f 201 202 198
f 202 203 198
f 203 204 198
f 204 205 198
f 205 206 198
f 206 207 198
f 207 208 198
f 208 199 198
f 199 209 200
f 209 210 200
f 200 210 201
f 210 211 201
f 201 211 202
f 211 212 202
f 202 212 203
f 212 213 203
f 203 213 204
f 213 214 204
f 204 214 205
f 214 215 205
f 205 215 206
f 215 216 206
f 206 216 207
f 216 217 207
f 207 217 208
f 217 218 208
f 208 218 199
f 218 209 199
f 209 219 210
f 219 220 210
f 210 220 211
f 220 221 211
f 211 221 212
f 221 222 212
f 212 222 213
f 222 223 213
f 213 223 214
f 223 224 214
f 214 224 215
f 224 225 215
f 215 225 216
f 225 226 216
f 216 226 217
f 226 227 217
f 217 227 218
f 227 228 218
f 218 228 209
f 228 219 209
f 219 229 220
f 229 230 220
f 220 230 221
f 230 231 221
f 221 231 222
f 231 232 222
f 222 232 223
f 232 233 223
f 223 233 224
f 233 234 224
f 224 234 225
f 234 235 225
f 225 235 226
f 235 236 226
f 226 236 227
f 236 237 227
f 227 237 228
f 237 238 228
f 228 238 219
f 238 229 219
f 229 239 230
f 239 240 230
f 230 240 231
f 240 241 231
f 231 241 232
f 241 242 232
f 232 242 233
f 242 243 233
f 233 243 234
f 243 244 234
f 234 244 235
f 244 245 235
f 235 245 236
f 245 246 236
f 236 246 237
f 246 247 237
f 237 247 238
f 247 248 238
f 238 248 229
f 248 239 229
f 239 249 240
f 249 250 240
f 240 250 241
f 250 251 241
f 241 251 242
f 251 252 242
f 242 252 243
f 252 253 243
f 243 253 244
f 253 254 244
f 244 254 245
f 254 255 245
f 245 255 246
f 255 256 246
f 246 256 247
f 256 257 247
f 247 257 248
f 257 258 248
f 248 258 239
f 258 249 239
f 249 259 250
f 259 260 250
f 250 260 251
f 260 261 251
f 251 261 252
f 261 262 252
f 252 262 253
f 262 263 253
f 253 263 254
f 263 264 254
f 254 264 255
f 264 265 255
f 255 265 256
f 265 266 256
f 256 266 257
f 266 267 257
f 257 267 258
f 267 268 258
f 258 268 249
f 268 259 249
f 259 269 260
f 269 270 260
f 260 270 261
f 270 271 261
f 261 271 262
f 271 272 262
f 262 272 263
f 272 273 263
f 263 273 264
f 273 274 264
f 264 274 265
f 274 275 265
f 265 275 266
f 275 276 266
f 266 276 267
f 276 277 267
f 267 277 268
f 277 278 268
f 268 278 259
f 278 269 259
f 269 279 270
f 279 280 270
f 270 280 271
f 280 281 271
f 271 281 272
f 281 282 272
f 272 282 273
f 282 283 273
f 273 283 274
f 283 284 274
f 274 284 275
f 284 285 275
f 275 285 276
f 285 286 276
f 276 286 277
f 286 287 277
f 277 287 278
f 287 288 278
f 278 288 269
f 288 279 269
f 279 289 280
f 280 289 281
f 281 289 282
f 282 289 283
f 283 289 284
f 284 289 285
f 285 289 286
f 286 289 287
f 287 289 288
f 288 289 279
f 291 292 290
f 292 293 290
f 293 294 290
f 294 295 290
f 295 296 290
f 296 297 290
f 297 298 290
f 298 299 290
f 299 300 290
f 300 291 290
f 291 301 292
f 301 302 292
f 292 302 293
f 302 303 293
f 293 303 294
f 303 304 294
f 294 304 295
f 304 305 295
f 295 305 296
f 305 306 296
f 296 306 297
f 306 307 297
f 297 307 298
f 307 308 298
f 298 308 299
f 308 309 299
f 299 309 300
f 309 310 300
f 300 310 291
f 310 301 291
f 301 311 302
f 311 312 302
f 302 312 303
f 312 313 303
f 303 313 304
f 313 314 304
f 304 314 305
f 314 315 305
f 305 315 306
f 315 316 306
f 306 316 307
f 316 317 307
f 307 317 308
f 317 318 308
f 308 318 309
f 318 319 309
f 309 319 310
f 319 320 310
f 310 320 301
f 320 311 301
f 311 321 312
f 321 322 312
f 312 322 313
f 322 323 313
f 313 323 314
f 323 324 314
f 314 324 315
f 324 325 315
f 315 325 316
f 325 326 316
f 316 326 317
f 326 327 317
f 317 327 318
f 327 328 318
f 318 328 319
f 328 329 319
f 319 329 320
f 329 330 320
f 320 330 311
f 330 321 311
f 321 331 322
f 331 332 322
f 322 332 323
f 332 333 323
f 323 333 324
f 333 334 324
f 324 334 325
f 334 335 325
f 325 335 326
f 335 336 326
f 326 336 327
f 336 337 327
f 327 337 328
f 337 338 328
f 328 338 329
f 338 339 329
f 329 339 330
f 339 340 330
f 330 340 321
f 340 331 321
f 331 341 332
f 341 342 332
f 332 342 333
f 342 343 333
f 333 343 334
f 343 344 334
f 334 344 335
f 344 345 335
f 335 345 336
f 345 346 336
f 336 346 337
f 346 347 337
f 337 347 338
f 347 348 338
f 338 348 339
f 348 349 339
f 339 349 340
f 349 350 340
f 340 350 331
f 350 341 331
f 341 351 342
f 351 352 342
f 342 352 343
f 352 353 343
f 343 353 344
f 353 354 344
f 344 354 345
f 354 355 345
f 345 355 346
f 355 356 346
f 346 356 347
f 356 357 347
f 347 357 348
f 357 358 348
f 348 358 349
f 358 359 349
f 349 359 350
f 359 360 350
f 350 360 341
f 360 351 341
f 351 361 352
f 361 362 352
f 352 362 353
f 362 363 353
f 353 363 354
f 363 364 354
f 354 364 355
f 364 365 355
f 355 365 356
f 365 366 356
f 356 366 357
f 366 367 357
f 357 367 358
f 367 368 358
f 358 368 359
f 368 369 359
f 359 369 360
f 369 370 360
f 360 370 351
f 370 361 351
f 361 371 362
f 371 372 362
f 362 372 363
f 372 373 363
f 363 373 364
f 373 374 364
f 364 374 365
f 374 375 365
f 365 375 366
f 375 376 366
f 366 376 367
f 376 377 367
f 367 377 368
f 377 378 368
f 368 378 369
f 378 379 369
f 369 379 370
f 379 380 370
f 370 380 361
f 380 371 361
f 371 381 372
f 372 381 373
f 381 381 373
f 373 381 374
f 374 381 375
f 381 381 375
f 375 381 376
f 376 381 377
f 377 381 378
f 381 381 378
f 378 381 379
f 379 381 380
f 380 381 371
f 383 384 382
f 384 385 382
f 385 386 382
f 386 387 382
f 387 388 382
f 388 389 382
f 389 390 382
f 390 391 382
f 391 392 382
f 392 383 382
f 383 393 384
f 393 394 384
f 384 394 385
f 394 395 385
f 385 395 386
f 395 396 386
f 386 396 387
f 396 397 387
f 387 397 388
f 397 398 388
f 388 398 389
f 398 399 389
f 389 399 390
f 399 400 390
f 390 400 391
f 400 401 391
f 391 401 392
f 401 402 392
f 392 402 383
f 402 393 383
f 393 403 394
f 403 404 394
f 394 404 395
f 404 405 395
f 395 405 396
f 405 406 396
f 396 406 397
f 406 407 397
f 397 407 398
f 407 408 398
f 398 408 399
f 408 409 399
f 399 409 400
f 409 410 400
f 400 410 401
f 410 411 401
f 401 411 402
f 411 412 402
f 402 412 393
f 412 403 393
f 403 413 404
f 413 414 404
f 404 414 405
f 414 415 405
f 405 415 406
f 415 416 406
f 406 416 407
f 416 417 407
f 407 417 408
f 417 418 408
f 408 418 409
f 418 419 409
f 409 419 410
f 419 420 410
f 410 420 411
f 420 421 411
f 411 421 412
f 421 422 412
f 412 422 403
f 422 413 403
f 413 423 414
f 423 424 414
f 414 424 415
f 424 425 415
f 415 425 416
f 425 426 416
f 416 426 417
f 426 427 417
f 417 427 418
f 427 428 418
f 418 428 419
f 428 429 419
f 419 429 420
f 429 430 420
f 420 430 421
f 430 431 421
f 421 431 422
f 431 432 422
f 422 432 413
f 432 423 413
f 423 433 424
f 433 434 424
f 424 434 425
f 434 435 425
f 425 435 426
f 435 436 426
f 426 436 427
f 436 437 427
f 427 437 428
f 437 438 428
f 428 438 429
f 438 439 429
f 429 439 430
f 439 440 430
f 430 440 431
f 440 441 431
f 431 441 432
f 441 442 432
f 432 442 423
f 442 433 423
f 433 443 434
f 443 444 434
f 434 444 435
f 444 445 435
f 435 445 436
f 445 446 436
f 436 446 437
f 446 447 437
f 437 447 438
f 447 448 438
f 438 448 439
f 448 449 439
f 439 449 440
f 449 450 440
f 440 450 441
f 450 451 441
f 441 451 442
f 451 452 442
f 442 452 433
f 452 443 433
f 443 453 444
f 453 454 444
f 444 454 445
f 454 455 445
f 445 455 446
f 455 456 446
f 446 456 447
f 456 457 447
f 447 457 448
f 457 458 448
f 448 458 449
f 458 459 449
f 449 459 450
f 459 460 450
f 450 460 451
f 460 461 451
f 451 461 452
f 461 462 452
f 452 462 443
f 462 453 443
f 453 463 454
f 463 464 454
f 454 464 455
f 464 465 455
f 455 465 456
f 465 466 456
f 456 466 457
f 466 467 457
f 457 467 458
f 467 468 458
f 458 468 459
f 468 469 459
f 459 469 460
f 469 470 460
f 460 470 461
f 470 471 461
f 461 471 462
f 471 472 462
f 462 472 453
f 472 463 453
f 463 473 464
f 464 473 465
f 465 473 466
f 466 473 467
f 467 473 468
f 468 473 469
f 469 473 470
f 470 473 471
f 471 473 472
f 472 473 463
f 474 475 476
f 474 476 477
f 476 478 479
f 476 479 477
f 478 480 481
f 478 481 479
f 480 475 474
f 480 474 481
f 482 483 484
f 482 484 485
f 484 486 487
f 484 487 485
f 486 488 489
f 486 489 487
f 488 483 482
f 488 482 489
f 484 483 488
f 484 488 486
f 490 491 492
f 490 492 493
f 490 494 495
f 490 495 491
f 494 496 497
f 494 497 495
f 496 493 492
f 496 492 497
f 498 499 500
f 498 500 501
f 498 502 503
f 498 503 499
f 502 504 505
f 502 505 503
f 504 501 500
f 504 500 505
f 503 505 500
f 503 500 499
f 506 507 508
f 506 508 509
f 506 509 510
f 508 507 511
f 506 512 511
f 506 511 507
f 509 508 511
f 509 511 512
f 509 512 510
f 513 514 515
f 71 77 78
f 55 97 90
f 55 90 84
f 55 84 75
f 55 75 69
f 55 69 61

