# https://github.com/mikedh/trimesh

o m21.off
v 0.48570000 0.23877900 0.51697100
v 0.48570000 0.24504300 0.52770200
v 0.49193900 0.23521000 0.53306800
v 0.49193900 0.22894600 0.52233600
v 0.45348100 0.21551900 0.54379900
v 0.51430000 0.23877900 0.51697100
v 0.51430000 0.24504300 0.52770200
v 0.55278300 0.22537700 0.53843300
v 0.44721700 0.22537700 0.53843300
v 0.44721700 0.21911300 0.52770200
v 0.49106600 0.21105200 0.53933200
v 0.45527800 0.20211700 0.53756000
v 0.45527800 0.21374700 0.53129600
v 0.55278300 0.21911300 0.52770200
v 0.54651900 0.21551900 0.54379900
v 0.50893400 0.21105200 0.53933200
v 0.54472200 0.20838100 0.54829100
v 0.54472200 0.22001100 0.54202700
v 0.54472200 0.21374700 0.53129600
v 0.45527800 0.22001100 0.54202700
v 0.45527800 0.20838100 0.54829100
v 0.54472200 0.20211700 0.53756000
v 0.50806100 0.23521000 0.53306800
v 0.45348100 0.20925500 0.53306800
v 0.50806100 0.22894600 0.52233600
v 0.54651900 0.20925500 0.53306800
v 0.50893400 0.25400200 0.53933200
v 0.50893400 0.27187100 0.53933200
v 0.50893400 0.27187100 0.52143800
v 0.52682800 0.25400200 0.53933200
v 0.50893400 0.25400200 0.52143800
v 0.54472200 0.27187100 0.53933200
v 0.56261600 0.27187100 0.53933200
v 0.56261600 0.27187100 0.52143800
v 0.43738400 0.27187100 0.52143800
v 0.45527800 0.27187100 0.52143800
v 0.45527800 0.25400200 0.52143800
v 0.49106600 0.27187100 0.53933200
v 0.49106600 0.25400200 0.53933200
v 0.49106600 0.25400200 0.52143800
v 0.47317200 0.27187100 0.53933200
v 0.49106600 0.27187100 0.52143800
v 0.52682800 0.25400200 0.52143800
v 0.54472200 0.27187100 0.52143800
v 0.54472200 0.25400200 0.52143800
v 0.54472200 0.25400200 0.53933200
v 0.56261600 0.25400200 0.52143800
v 0.56261600 0.25400200 0.53933200
v 0.43738400 0.25400200 0.53933200
v 0.45527800 0.25400200 0.53933200
v 0.45527800 0.27187100 0.53933200
v 0.47317200 0.27187100 0.52143800
v 0.47317200 0.25400200 0.52143800
v 0.47317200 0.25400200 0.53933200
v 0.43738400 0.27187100 0.53933200
v 0.52682800 0.27187100 0.53933200
v 0.52682800 0.27187100 0.52143800
v 0.43738400 0.25400200 0.52143800
v 0.43648500 0.24504300 0.46331400
v 0.50000000 0.24504300 0.44988700
v 0.50000000 0.20658500 0.47224800
v 0.43648500 0.24504300 0.52593000
v 0.43648500 0.21731600 0.51070600
v 0.50000000 0.20658500 0.51697100
v 0.50000000 0.28350100 0.51697100
v 0.56351500 0.27277000 0.51070600
v 0.56351500 0.27277000 0.47851200
v 0.54919000 0.23251500 0.23521000
v 0.58587600 0.22268200 0.28439900
v 0.53578800 0.19138600 0.28439900
v 0.45081000 0.25757100 0.23521000
v 0.41412400 0.26740400 0.28439900
v 0.46421200 0.29872500 0.28439900
v 0.59930300 0.21911300 0.35148300
v 0.54115400 0.18332500 0.35148300
v 0.40069700 0.27099800 0.35148300
v 0.45884600 0.30676100 0.35148300
v 0.58587600 0.22268200 0.41856600
v 0.41412400 0.26740400 0.41856600
v 0.53578800 0.19138600 0.41856600
v 0.54919000 0.23251500 0.46778100
v 0.46421200 0.29872500 0.41856600
v 0.45081000 0.25757100 0.46778100
v 0.51519900 0.19852400 0.30676100
v 0.54919000 0.24504300 0.30676100
v 0.51519900 0.29156200 0.30676100
v 0.57961200 0.15202900 0.24594100
v 0.57961200 0.33808100 0.24594100
v 0.53042200 0.33808100 0.27633800
v 0.49106600 0.36760500 0.24594100
v 0.37119900 0.18779200 0.19672700
v 0.40519000 0.14040000 0.19672700
v 0.43558700 0.14040000 0.24594100
v 0.63776100 0.21641800 0.19672700
v 0.63776100 0.27366800 0.19672700
v 0.61360300 0.29156200 0.24594100
v 0.40519000 0.34971100 0.19672700
v 0.37119900 0.30229300 0.19672700
v 0.38103200 0.27366800 0.24594100
v 0.49106600 0.12250600 0.24594100
v 0.56977900 0.36760500 0.19672700
v 0.48480100 0.38549900 0.14843600
v 0.43022100 0.36760500 0.14843600
v 0.38103200 0.21641800 0.24594100
v 0.59481000 0.14040000 0.14843600
v 0.56977900 0.12250600 0.19672700
v 0.48480100 0.10461200 0.14843600
v 0.61896800 0.21641800 0.09924600
v 0.61896800 0.27366800 0.09924600
v 0.62880100 0.30229300 0.14843600
v 0.51519900 0.38549900 0.19672700
v 0.59481000 0.34971100 0.14843600
v 0.43022100 0.12250600 0.14843600
v 0.42038800 0.15202900 0.09924600
v 0.46957800 0.15202900 0.06882390
v 0.57961200 0.30229300 0.06882390
v 0.36223900 0.27366800 0.14843600
v 0.38639700 0.29156200 0.09924600
v 0.40159600 0.24504300 0.06882390
v 0.38639700 0.19852400 0.09924600
v 0.45081000 0.24504300 0.03840170
v 0.53935700 0.21641800 0.03840170
v 0.48480100 0.29156200 0.03840170
v 0.46957800 0.33808100 0.06882390
v 0.50893400 0.36760500 0.09924600
v 0.42038800 0.33808100 0.09924600
v 0.41055500 0.24504300 0.49460900
v 0.43648500 0.21731600 0.47851200
v 0.43648500 0.27277000 0.51070600
v 0.58944500 0.24504300 0.49460900
v 0.56351500 0.24504300 0.46331400
v 0.50000000 0.28350100 0.47224800
v 0.50000000 0.24504300 0.21731600
v 0.52056400 0.21374700 0.23521000
v 0.47943600 0.21374700 0.23521000
v 0.47943600 0.27636300 0.23521000
v 0.52056400 0.27636300 0.23521000
v 0.50000000 0.24504300 0.48567500
v 0.47943600 0.21374700 0.46778100
v 0.52056400 0.21374700 0.46778100
v 0.52056400 0.27636300 0.46778100
v 0.47943600 0.27636300 0.46778100
v 0.46421200 0.19138600 0.28439900
v 0.53578800 0.29872500 0.28439900
v 0.45884600 0.18332500 0.35148300
v 0.54115400 0.30676100 0.35148300
v 0.46421200 0.19138600 0.41856600
v 0.53578800 0.29872500 0.41856600
v 0.46064300 0.21641800 0.30676100
v 0.43558700 0.34971100 0.24594100
v 0.46064300 0.27366800 0.30676100
v 0.59840400 0.24504300 0.27633800
v 0.36223900 0.21641800 0.14843600
v 0.53935700 0.27366800 0.03840170
v 0.48480100 0.19852400 0.03840170
v 0.56441300 0.14040000 0.09924600
v 0.56441300 0.34971100 0.09924600
v 0.51519900 0.10461200 0.19672700
v 0.53042200 0.15202900 0.27633800
v 0.45081000 0.23251500 0.46778100
v 0.41412400 0.22268200 0.41856600
v 0.54919000 0.25757100 0.46778100
v 0.58587600 0.26740400 0.41856600
v 0.40069700 0.21911300 0.35148300
v 0.59930300 0.27099800 0.35148300
v 0.41412400 0.22268200 0.28439900
v 0.58587600 0.26740400 0.28439900
v 0.45081000 0.23251500 0.23521000
v 0.54919000 0.25757100 0.23521000
v 0.56351500 0.24504300 0.52593000
v 0.50000000 0.24504300 0.53933200
v 0.56351500 0.21731600 0.47851200
v 0.43648500 0.27277000 0.47851200
v 0.56351500 0.21731600 0.51070600
v 0.50893400 0.12250600 0.09924600
v 0.62880100 0.18689400 0.14843600
v 0.61360300 0.19852400 0.24594100
v 0.42038800 0.30229300 0.27633800
v 0.42038800 0.18689400 0.27633800
v 0.57961200 0.18689400 0.06882390
v 0.50536600 0.25577400 0.34165000
v 0.49910200 0.23431100 0.33718300
v 0.28085600 0.50267000 0.17885800
v 0.14129800 0.32375600 0.07685990
v 0.13683100 0.32375600 0.10101800
v 0.13056700 0.34524400 0.09655070
v 0.28262800 0.50267000 0.20658500
v 0.27636300 0.52413300 0.20209200
v 0.50536600 0.23431100 0.36131600
v 0.49910200 0.25577400 0.36580800
v 0.49463400 0.25577400 0.34165000
v 0.72363700 0.50267000 0.20209200
v 0.50089800 0.23431100 0.33718300
v 0.71914400 0.52413300 0.17885800
v 0.72363700 0.52413300 0.20209200
v 0.86943300 0.34524400 0.09655070
v 0.27189600 0.52413300 0.29870000
v 0.26563200 0.50267000 0.29782600
v 0.26473400 0.50267000 0.32285800
v 0.49643100 0.23431100 0.36311300
v 0.50269500 0.25577400 0.36491000
v 0.11177400 0.34524400 0.27097300
v 0.26563200 0.52413300 0.29782600
v 0.27189600 0.50267000 0.29870000
v 0.11983500 0.32824800 0.27277000
v 0.10910400 0.34075200 0.27009900
v 0.10820500 0.34075200 0.29602900
v 0.49643100 0.25577400 0.33985300
v 0.49730500 0.25577400 0.36491000
v 0.72900200 0.52413300 0.32375600
v 0.73526600 0.52413300 0.32285800
v 0.73436800 0.52413300 0.29782600
v 0.72810400 0.50267000 0.29870000
v 0.88286000 0.32375600 0.29692800
v 0.72900200 0.50267000 0.32375600
v 0.50179700 0.25577400 0.33808100
v 0.49553300 0.23431100 0.34075200
v 0.27099800 0.50267000 0.46151700
v 0.12073400 0.34524400 0.54112900
v 0.12699800 0.32375600 0.53843300
v 0.13056700 0.32375600 0.56259100
v 0.27995700 0.50267000 0.48208100
v 0.27369300 0.52413300 0.48567500
v 0.12430300 0.34524400 0.56616000
v 0.49553300 0.25577400 0.36221400
v 0.49820300 0.25577400 0.33808100
v 0.50446700 0.23431100 0.34075200
v 0.50179700 0.23431100 0.36491000
v 0.72900200 0.50267000 0.46151700
v 0.87926600 0.34524400 0.54112900
v 0.72900200 0.52413300 0.46151700
v 0.72630700 0.52413300 0.48567500
v 0.29246000 0.50267000 0.57601800
v 0.29872500 0.50267000 0.59837900
v 0.30498900 0.52413300 0.59211500
v 0.50000000 0.23431100 0.36580800
v 0.50626400 0.25577400 0.35954400
v 0.15829300 0.34524400 0.73077400
v 0.29246000 0.52413300 0.57601800
v 0.29872500 0.50267000 0.56975400
v 0.15649700 0.34075200 0.73344500
v 0.16276100 0.34075200 0.75490700
v 0.17261900 0.32824800 0.74417600
v 0.70127500 0.52413300 0.56975400
v 0.50000000 0.25577400 0.33718300
v 0.49373600 0.25577400 0.35954400
v 0.69501100 0.50267000 0.59211500
v 0.70127500 0.52413300 0.59837900
v 0.70754000 0.52413300 0.57601800
v 0.70127500 0.50267000 0.56975400
v 0.83544200 0.32375600 0.72451000
v 0.28709500 0.52413300 0.18242700
v 0.13503400 0.34524400 0.07239270
v 0.05185340 0.02500000 0.02500000
v 0.12877000 0.34075200 0.09475380
v 0.13323700 0.34075200 0.07062080
v 0.71914400 0.50267000 0.17885800
v 0.86496600 0.34524400 0.07239270
v 0.94814700 0.02500000 0.02500000
v 0.87123000 0.34075200 0.09475380
v 0.86137200 0.32824800 0.10191600
v 0.27099800 0.52413300 0.32375600
v 0.11803800 0.32375600 0.27187100
v 0.11893700 0.32824800 0.29782600
v 0.02500000 0.02500000 0.26830200
v 0.72810400 0.52413300 0.29870000
v 0.88196200 0.32375600 0.27187100
v 0.97500000 0.02500000 0.26830200
v 0.88016500 0.32824800 0.27187100
v 0.89089600 0.34075200 0.27009900
v 0.27726200 0.52413300 0.45792300
v 0.03932510 0.02500000 0.59837900
v 0.12250600 0.34075200 0.56705900
v 0.11893700 0.34075200 0.54292500
v 0.72630700 0.50267000 0.48567500
v 0.87569700 0.34524400 0.56616000
v 0.96067500 0.02500000 0.59837900
v 0.87749400 0.34075200 0.56705900
v 0.86763700 0.32824800 0.56169300
v 0.29872500 0.52413300 0.56975400
v 0.16455800 0.32375600 0.72451000
v 0.16635400 0.32824800 0.72271300
v 0.08674280 0.02500000 0.82825500
v 0.69501100 0.52413300 0.59211500
v 0.82917800 0.32375600 0.74687100
v 0.91325700 0.02500000 0.82825500
v 0.83364600 0.32824800 0.72271300
v 0.84350300 0.34075200 0.73344500
v 0.83723900 0.34075200 0.75490700
v 0.84170700 0.34524400 0.73077400
v 0.83544200 0.34524400 0.75313500
v 0.70127500 0.50267000 0.59837900
v 0.17082200 0.32375600 0.74687100
v 0.30498900 0.50267000 0.59211500
v 0.87033200 0.32824800 0.53666100
v 0.88106300 0.34075200 0.54292500
v 0.86943300 0.32375600 0.56259100
v 0.72004300 0.50267000 0.48208100
v 0.72273800 0.52413300 0.45792300
v 0.72004300 0.52413300 0.48208100
v 0.12966800 0.32824800 0.53666100
v 0.27369300 0.50267000 0.48567500
v 0.49820300 0.23431100 0.36491000
v 0.50446700 0.25577400 0.36221400
v 0.89179500 0.34075200 0.29602900
v 0.88822600 0.34524400 0.27097300
v 0.88999800 0.34524400 0.29602900
v 0.73526600 0.50267000 0.32285800
v 0.11714000 0.32375600 0.29692800
v 0.27099800 0.50267000 0.32375600
v 0.26473400 0.52413300 0.32285800
v 0.50356900 0.25577400 0.33985300
v 0.85690500 0.32824800 0.07865680
v 0.86316900 0.32375600 0.10101800
v 0.71737200 0.50267000 0.20658500
v 0.71290500 0.52413300 0.18242700
v 0.71737200 0.52413300 0.20658500
v 0.14309500 0.32824800 0.07865680
v 0.28085600 0.52413300 0.17885800
v 0.27636300 0.50267000 0.20209200
v 0.49463400 0.23431100 0.36131600
v 0.29872500 0.52413300 0.59837900
v 0.27099800 0.52413300 0.46151700
v 0.50356900 0.23431100 0.36311300
v 0.86676300 0.34075200 0.07062080
v 0.50089800 0.25577400 0.36580800
v 0.28262800 0.52413300 0.20658500
v 0.28709500 0.50267000 0.18242700
v 0.85870200 0.32375600 0.07685990
v 0.71290500 0.50267000 0.18242700
v 0.49730500 0.23431100 0.33808100
v 0.11000200 0.34524400 0.29602900
v 0.73436800 0.50267000 0.29782600
v 0.50269500 0.23431100 0.33808100
v 0.27726200 0.50267000 0.45792300
v 0.87300200 0.32375600 0.53843300
v 0.72273800 0.50267000 0.45792300
v 0.49373600 0.23431100 0.34344700
v 0.70754000 0.50267000 0.57601800
v 0.50626400 0.23431100 0.34344700
v 0.82738100 0.32824800 0.74417600
v 0.13862800 0.32824800 0.10191600
v 0.88106300 0.32824800 0.29782600
v 0.27995700 0.52413300 0.48208100
v 0.13236400 0.32824800 0.56169300
v 0.16455800 0.34524400 0.75313500
f 1 2 3
f 4 3 5
f 6 7 8
f 9 10 5
f 11 12 13
f 14 8 15
f 16 17 18
f 16 18 19
f 19 18 17
f 11 13 20
f 20 13 21
f 17 22 19
f 8 7 23
f 3 2 9
f 10 24 5
f 10 1 4
f 13 12 21
f 25 6 14
f 10 9 1
f 11 21 12
f 15 8 23
f 16 22 17
f 16 19 22
f 8 14 6
f 11 20 21
f 9 5 3
f 15 23 25
f 15 26 14
f 9 2 1
f 27 28 29
f 30 27 31
f 32 33 34
f 35 36 37
f 38 39 40
f 41 38 42
f 43 31 29
f 44 45 46
f 45 47 48
f 49 50 51
f 52 53 54
f 53 40 39
f 40 53 52
f 36 35 55
f 37 36 51
f 47 45 44
f 27 30 56
f 39 54 53
f 54 41 52
f 51 55 49
f 48 46 45
f 46 32 44
f 29 57 43
f 56 30 43
f 28 56 57
f 33 32 46
f 49 55 35
f 50 49 58
f 38 41 54
f 29 31 27
f 31 43 30
f 34 44 32
f 37 58 35
f 40 42 38
f 42 52 41
f 54 39 38
f 58 37 50
f 35 58 49
f 46 48 33
f 57 29 28
f 43 57 56
f 52 42 40
f 55 51 36
f 51 50 37
f 44 34 47
f 56 28 27
f 59 60 61
f 62 63 64
f 65 66 67
f 68 69 70
f 71 72 73
f 69 74 75
f 72 76 77
f 75 74 78
f 77 76 79
f 80 78 81
f 82 79 83
f 84 85 86
f 85 84 87
f 88 89 86
f 86 89 90
f 91 92 93
f 94 95 96
f 97 98 99
f 100 93 92
f 101 88 95
f 102 103 97
f 104 99 98
f 105 106 107
f 108 109 110
f 111 101 112
f 113 114 115
f 110 109 116
f 117 118 119
f 120 119 121
f 109 108 122
f 123 124 125
f 126 124 123
f 5 24 4
f 127 128 63
f 127 62 129
f 130 131 67
f 64 63 128
f 65 129 62
f 131 60 132
f 133 134 135
f 133 136 137
f 138 139 140
f 138 141 142
f 143 135 134
f 144 137 136
f 145 143 70
f 146 144 73
f 147 145 75
f 148 146 77
f 139 147 80
f 141 148 82
f 86 149 84
f 90 150 151
f 94 96 152
f 106 105 94
f 153 120 113
f 103 126 117
f 102 124 126
f 122 154 109
f 122 121 123
f 155 122 156
f 110 116 157
f 112 157 102
f 98 117 91
f 92 113 158
f 158 87 159
f 96 88 86
f 160 161 147
f 162 163 148
f 161 164 145
f 163 165 146
f 164 166 145
f 165 167 146
f 166 168 143
f 167 169 144
f 138 160 139
f 138 162 141
f 133 135 168
f 133 137 169
f 170 171 64
f 172 61 131
f 132 173 129
f 130 170 174
f 130 172 131
f 127 129 173
f 47 34 33
f 24 10 4
f 121 119 118
f 125 157 154
f 175 115 155
f 155 115 114
f 126 103 102
f 108 176 105
f 98 97 103
f 157 125 102
f 110 95 176
f 92 91 153
f 117 153 91
f 97 150 111
f 177 87 106
f 113 107 158
f 89 88 101
f 159 100 158
f 151 178 99
f 150 178 151
f 86 85 96
f 149 179 93
f 86 151 149
f 82 142 141
f 80 140 139
f 77 82 148
f 75 80 147
f 73 77 146
f 70 75 145
f 136 73 144
f 134 70 143
f 132 67 131
f 62 171 65
f 128 61 64
f 59 173 132
f 61 172 174
f 65 171 170
f 68 169 167
f 71 168 166
f 69 167 165
f 72 166 164
f 74 165 163
f 76 164 161
f 78 163 162
f 79 161 160
f 84 149 93
f 177 152 85
f 85 152 96
f 149 151 99
f 179 104 91
f 152 177 94
f 178 150 97
f 94 177 106
f 110 112 101
f 150 90 111
f 113 92 153
f 175 156 105
f 95 94 176
f 117 98 103
f 175 107 113
f 157 112 110
f 120 153 117
f 156 175 155
f 154 116 109
f 157 116 154
f 122 155 121
f 14 26 25
f 127 59 128
f 127 63 62
f 130 67 66
f 61 128 59
f 171 62 64
f 67 132 65
f 133 68 134
f 133 71 136
f 138 140 81
f 138 142 83
f 70 134 68
f 73 136 71
f 75 70 69
f 77 73 72
f 80 75 78
f 82 77 79
f 140 80 81
f 142 82 83
f 93 100 84
f 99 104 149
f 101 90 89
f 95 110 101
f 107 175 105
f 113 115 175
f 117 119 120
f 154 123 125
f 123 121 118
f 121 155 114
f 105 180 108
f 176 108 110
f 111 102 97
f 97 99 178
f 91 93 179
f 87 177 85
f 83 79 160
f 81 78 162
f 79 76 161
f 78 74 163
f 76 72 164
f 74 69 165
f 72 71 166
f 69 68 167
f 138 83 160
f 138 81 162
f 133 168 71
f 133 169 68
f 66 65 170
f 174 64 61
f 60 59 132
f 130 66 170
f 130 174 172
f 127 173 59
f 26 15 25
f 123 154 122
f 118 126 123
f 108 180 122
f 122 180 156
f 114 120 121
f 102 125 124
f 105 156 180
f 126 118 117
f 102 111 112
f 106 158 107
f 120 114 113
f 91 104 98
f 88 96 95
f 105 176 94
f 158 100 92
f 101 111 90
f 158 106 87
f 104 179 149
f 151 86 90
f 84 159 87
f 100 159 84
f 147 139 160
f 148 141 162
f 145 147 161
f 146 148 163
f 166 143 145
f 167 144 146
f 168 135 143
f 169 137 144
f 64 174 170
f 61 60 131
f 129 65 132
f 33 48 47
f 3 4 1
f 181 182 183
f 184 185 186
f 187 188 186
f 189 190 191
f 192 189 193
f 194 195 196
f 197 198 199
f 199 200 201
f 202 203 204
f 205 206 207
f 208 209 210
f 211 212 213
f 214 215 213
f 216 217 218
f 219 220 221
f 222 223 224
f 225 226 227
f 228 227 229
f 230 231 232
f 233 234 235
f 234 236 237
f 238 239 240
f 241 242 243
f 244 245 246
f 247 248 249
f 247 250 251
f 183 252 181
f 186 253 184
f 186 185 187
f 254 255 256
f 193 189 191
f 257 192 193
f 196 258 194
f 259 260 261
f 262 197 199
f 262 199 201
f 263 202 204
f 264 205 207
f 265 205 264
f 210 266 208
f 213 215 211
f 267 214 213
f 268 269 270
f 218 271 216
f 224 219 221
f 224 221 222
f 272 273 274
f 227 228 225
f 229 275 228
f 276 230 232
f 277 278 279
f 235 280 233
f 235 234 237
f 281 238 240
f 243 282 241
f 283 282 243
f 284 244 246
f 250 247 249
f 251 285 247
f 286 287 288
f 286 288 289
f 290 251 250
f 290 291 285
f 292 284 246
f 283 243 242
f 293 281 294
f 294 240 239
f 280 235 237
f 277 279 295
f 295 279 296
f 297 276 298
f 299 229 226
f 299 300 229
f 272 274 301
f 219 224 223
f 302 218 303
f 303 217 304
f 268 270 305
f 306 267 213
f 306 307 267
f 308 210 209
f 265 264 207
f 309 263 204
f 310 204 311
f 197 262 312
f 259 261 313
f 313 261 260
f 314 196 315
f 316 257 191
f 316 317 192
f 254 256 318
f 253 186 319
f 320 183 182
f 321 182 181
f 250 249 290
f 285 251 290
f 246 236 292
f 281 240 294
f 239 322 294
f 237 245 280
f 279 278 296
f 276 232 298
f 229 227 226
f 300 275 229
f 223 323 219
f 218 217 303
f 217 216 304
f 213 212 306
f 307 214 267
f 209 324 308
f 204 310 309
f 204 203 311
f 262 201 312
f 260 325 313
f 196 195 315
f 257 193 191
f 192 257 316
f 186 188 319
f 182 321 320
f 181 326 321
f 23 7 6
f 25 23 6
f 327 326 181
f 328 319 188
f 328 187 185
f 190 189 192
f 196 314 329
f 330 194 258
f 312 201 200
f 331 200 199
f 332 311 203
f 308 333 266
f 333 334 208
f 307 211 215
f 305 270 269
f 304 216 271
f 323 223 222
f 220 335 222
f 225 228 275
f 297 336 230
f 337 231 230
f 338 245 237
f 233 338 236
f 322 239 238
f 284 292 339
f 339 340 245
f 291 248 247
f 341 289 288
f 252 327 181
f 187 328 188
f 185 184 328
f 254 342 255
f 192 317 190
f 258 196 329
f 258 329 330
f 259 325 260
f 200 331 312
f 199 198 331
f 202 332 203
f 265 206 205
f 266 210 308
f 266 333 208
f 214 307 215
f 269 343 305
f 268 343 269
f 271 344 304
f 222 335 323
f 221 220 222
f 272 345 273
f 275 300 225
f 230 276 297
f 230 336 337
f 277 296 278
f 236 338 237
f 234 233 236
f 238 346 322
f 283 241 282
f 244 284 339
f 244 339 245
f 285 291 247
f 287 341 288
f 286 341 287
f 286 289 341
f 291 290 248
f 339 292 236
f 340 236 246
f 283 242 241
f 346 293 294
f 346 238 293
f 233 280 245
f 277 295 296
f 336 297 298
f 337 298 231
f 300 299 225
f 272 301 345
f 345 301 274
f 220 219 335
f 344 302 304
f 344 271 218
f 268 305 343
f 307 306 212
f 333 308 334
f 334 324 208
f 265 207 206
f 332 309 310
f 332 202 263
f 198 197 312
f 259 313 325
f 329 314 330
f 330 315 195
f 317 316 191
f 254 318 342
f 342 318 255
f 184 253 328
f 327 320 326
f 327 252 320
f 290 249 248
f 236 340 339
f 246 245 340
f 294 322 346
f 238 281 293
f 245 338 233
f 298 337 336
f 298 232 231
f 299 226 225
f 274 273 345
f 219 323 335
f 302 303 304
f 218 302 344
f 212 211 307
f 308 324 334
f 324 209 208
f 310 311 332
f 263 309 332
f 312 331 198
f 314 315 330
f 195 194 330
f 191 190 317
f 318 256 255
f 253 319 328
f 320 321 326
f 252 183 320

