# https://github.com/mikedh/trimesh

o m35.off
v 0.24118500 0.45631000 0.74491400
v 0.25800200 0.42921900 0.78438700
v 0.25531000 0.44376800 0.79990000
v 0.28693300 0.40964900 0.81762500
v 0.28321300 0.43218900 0.84648500
v 0.32825000 0.39227000 0.83948100
v 0.43115000 0.38753500 0.83668800
v 0.47535500 0.40201000 0.81268200
v 0.48490700 0.42315700 0.84096100
v 0.50724500 0.42045600 0.77801000
v 0.51338700 0.43258200 0.79317100
v 0.52495200 0.44157600 0.73755000
v 0.25575200 0.49235800 0.79211900
v 0.29052100 0.52008700 0.83133700
v 0.33948000 0.53614400 0.85657100
v 0.39602100 0.53870700 0.86421300
v 0.45309900 0.52939700 0.85306200
v 0.50106500 0.50831200 0.82486400
v 0.52590400 0.47534100 0.78448300
v 0.25981500 0.41983200 0.76425500
v 0.29062300 0.39365800 0.78033500
v 0.33069500 0.37445100 0.79062200
v 0.37668300 0.36626000 0.79339600
v 0.42474800 0.37119900 0.78811500
v 0.46818700 0.38788000 0.77573100
v 0.50278400 0.41211300 0.75811800
v 0.25559700 0.50920400 0.77529200
v 0.28860000 0.55435900 0.79982300
v 0.34106900 0.58482900 0.81499000
v 0.40438600 0.59298600 0.81885900
v 0.46561800 0.57667000 0.81111300
v 0.51028100 0.53944300 0.79311800
v 0.53010400 0.49061600 0.76747200
v 0.25945900 0.41215300 0.71319700
v 0.29015700 0.37935600 0.68601200
v 0.37247800 0.34902800 0.66000500
v 0.46146400 0.37462400 0.68168300
v 0.49864100 0.40442200 0.70728200
v 0.31050600 0.40394000 0.13932100
v 0.31836700 0.42533600 0.13463600
v 0.31318800 0.39776800 0.09609670
v 0.33218300 0.44426500 0.13037600
v 0.36372300 0.38517000 0.02500000
v 0.39340800 0.45486200 0.12600900
v 0.40974400 0.44073700 0.12812300
v 0.40497300 0.38992800 0.05666600
v 0.42122200 0.42154700 0.13155400
v 0.41921600 0.39507600 0.09280340
v 0.42527700 0.40052700 0.13580100
v 0.31091900 0.38381400 0.14360900
v 0.32145100 0.36832900 0.14678800
v 0.36098100 0.35467300 0.14866700
v 0.40412700 0.36754500 0.14419300
v 0.41934100 0.38226800 0.14019800
v 0.30539600 0.38900600 0.16461000
v 0.29451600 0.38135300 0.20611000
v 0.29423700 0.40561400 0.20349100
v 0.30551100 0.41275900 0.17319100
v 0.31669300 0.37075700 0.15682100
v 0.30902000 0.36231300 0.20771200
v 0.33654500 0.35892700 0.15118500
v 0.35989900 0.34464800 0.20813100
v 0.38650500 0.35846900 0.14964600
v 0.40976100 0.36973800 0.15392000
v 0.41451900 0.36009300 0.20474200
v 0.42717800 0.38681100 0.16082900
v 0.43497900 0.37834500 0.20196200
v 0.43406400 0.40829400 0.16930300
v 0.44482900 0.40113700 0.19892900
v 0.30499500 0.43254600 0.20021500
v 0.31417200 0.43750800 0.18137500
v 0.32269000 0.45696600 0.19703000
v 0.32941500 0.45942900 0.18801100
v 0.35108400 0.47374900 0.19210100
v 0.37630100 0.47794700 0.19301600
v 0.40000000 0.47131700 0.19067100
v 0.42504600 0.45193700 0.19405300
v 0.41816900 0.45504700 0.18543300
v 0.44010500 0.42720400 0.19618700
v 0.43003600 0.43266300 0.17794900
v 0.28481900 0.39217600 0.22215900
v 0.28558900 0.42508100 0.22913100
v 0.30073700 0.36711500 0.21545200
v 0.28981900 0.35898800 0.37796900
v 0.32774600 0.35087300 0.21046700
v 0.36364700 0.33478600 0.39843300
v 0.39312400 0.34932400 0.20871300
v 0.42375700 0.36429900 0.21200600
v 0.43812600 0.35335700 0.37455600
v 0.44800500 0.38744600 0.21740500
v 0.46757200 0.37649400 0.34917900
v 0.45984800 0.41745200 0.22400300
v 0.48820300 0.40688500 0.31906400
v 0.26503300 0.45784900 0.29534600
v 0.29499000 0.46089400 0.23550000
v 0.29123000 0.49088500 0.26920300
v 0.31484900 0.49223500 0.24045800
v 0.33325500 0.51251500 0.25089000
v 0.34613900 0.51255200 0.24321300
v 0.38336700 0.51823700 0.24339100
v 0.43147300 0.50643500 0.24800300
v 0.41826400 0.50820100 0.24108600
v 0.46830600 0.47942600 0.26410800
v 0.44364700 0.48468800 0.23669800
v 0.48828000 0.44281400 0.28916000
v 0.45715100 0.45233900 0.23078100
v 0.28270100 0.36450200 0.39670300
v 0.28553900 0.36230000 0.50842800
v 0.32147100 0.34292800 0.39848400
v 0.36815800 0.33553600 0.52905400
v 0.40679900 0.34020300 0.39650100
v 0.44676900 0.35807000 0.39293000
v 0.45237700 0.35752200 0.50448200
v 0.48075100 0.38649500 0.38799200
v 0.48683100 0.38371200 0.47859600
v 0.27497300 0.53176400 0.39650300
v 0.28328700 0.53259900 0.37697700
v 0.33393500 0.56103000 0.37192000
v 0.39459900 0.56812300 0.36885400
v 0.45164400 0.55183300 0.36849900
v 0.50065900 0.51374200 0.39011100
v 0.49211700 0.51623700 0.37102200
v 0.51983700 0.46613400 0.41629300
v 0.50913800 0.47043900 0.37587500
v 0.28121900 0.36686700 0.52721100
v 0.28212200 0.37948400 0.63905200
v 0.32318500 0.34378500 0.52916000
v 0.41453700 0.34188400 0.52690900
v 0.45852500 0.36167400 0.52301700
v 0.46661200 0.37417400 0.63451000
v 0.49656800 0.39234200 0.51772400
v 0.50420100 0.40247800 0.60800800
v 0.26913800 0.56991700 0.52406500
v 0.27131200 0.56760800 0.50481500
v 0.33226300 0.60355900 0.49875200
v 0.40555500 0.61206700 0.49509300
v 0.47383600 0.59075300 0.49473900
v 0.52440900 0.54734200 0.51691800
v 0.52069500 0.54566700 0.49782300
v 0.54378200 0.49252100 0.54395700
v 0.53841200 0.48895400 0.50362700
v 0.23657100 0.53396400 0.64211000
v 0.27378400 0.58970900 0.63473300
v 0.33671400 0.62728500 0.62840600
v 0.41233400 0.63608000 0.62461500
v 0.48278500 0.61376700 0.62427700
v 0.53108800 0.56683300 0.62749300
v 0.54908900 0.50788000 0.63353600
v 0.28244100 0.38242700 0.65810500
v 0.32551500 0.35808600 0.66014400
v 0.42139700 0.35571400 0.65767200
v 0.46775100 0.37692800 0.65351400
v 0.50724500 0.40882500 0.64799300
v 0.49588000 0.42671500 0.33829100
v 0.50769300 0.44419800 0.37919000
v 0.51616800 0.45541800 0.40795000
v 0.51909000 0.45726600 0.42185700
v 0.53316100 0.47779500 0.48680500
v 0.53529600 0.48032500 0.49691700
v 0.53727500 0.48206500 0.50451600
v 0.54196400 0.48519100 0.53997200
v 0.54272300 0.48559700 0.54809400
v 0.54498700 0.48942300 0.60130500
v 0.54575400 0.49072200 0.61944800
v 0.54610700 0.49018400 0.63583900
v 0.53703800 0.47192300 0.67811300
v 0.53237400 0.44683600 0.68031600
v 0.51814400 0.42782800 0.67297600
v 0.51734400 0.42293500 0.64569200
v 0.51531100 0.41879200 0.61980400
v 0.51346000 0.41515200 0.59703200
v 0.50515700 0.40422300 0.53261200
v 0.50360800 0.40248600 0.51612200
v 0.50025700 0.40124100 0.49017700
v 0.49800300 0.39955900 0.46469200
v 0.49218800 0.39871300 0.40974500
v 0.48821100 0.39745000 0.38622700
v 0.48656700 0.39978200 0.36556000
v 0.49007300 0.40874000 0.32593600
v 0.48953600 0.40981300 0.32205600
v 0.48903200 0.41191900 0.31437600
v 0.55944800 0.37336500 0.33319500
v 0.58790600 0.39373500 0.40508500
v 0.60769900 0.41699800 0.48574500
v 0.61176300 0.42190000 0.50389300
v 0.61399000 0.43749600 0.62110000
v 0.61284100 0.43789300 0.63783100
v 0.59404000 0.42342800 0.68096300
v 0.57794900 0.40131100 0.68384200
v 0.55870600 0.39114000 0.67546300
v 0.54917800 0.36239100 0.53241300
v 0.54485800 0.35601400 0.46281600
v 0.53918000 0.35399900 0.38202100
v 0.53904300 0.35613300 0.36073400
v 0.54626300 0.35896000 0.32069400
v 0.54834700 0.36603300 0.29708900
v 0.59826300 0.33240400 0.32477800
v 0.62936900 0.35353400 0.40329000
v 0.65068000 0.37582600 0.49150400
v 0.65524600 0.38037000 0.51135300
v 0.65742200 0.39768400 0.63863300
v 0.65592700 0.39861700 0.65674700
v 0.63319000 0.38814700 0.70297300
v 0.61338000 0.36693300 0.70580600
v 0.58972700 0.35602000 0.69660400
v 0.57903800 0.32283400 0.54119800
v 0.57552100 0.31486700 0.46554600
v 0.57100200 0.31122400 0.37777100
v 0.57178000 0.31290500 0.35468500
v 0.58248600 0.31570700 0.31117900
v 0.58577400 0.32336400 0.28556800
v 0.62263400 0.30217100 0.32295000
v 0.70126900 0.30755800 0.49870600
v 0.70829000 0.30703000 0.51977900
v 0.72071300 0.29531000 0.65581600
v 0.71984400 0.29262800 0.67511600
v 0.69423500 0.28166400 0.72333900
v 0.66759400 0.26788500 0.72369200
v 0.64192400 0.26750000 0.71323900
v 0.62175500 0.25927500 0.54777300
v 0.61299000 0.26324500 0.46861900
v 0.60088500 0.27251900 0.37790000
v 0.59908500 0.27757500 0.35422500
v 0.60456900 0.28695900 0.30833200
v 0.60410500 0.30003400 0.28232200
v 0.63692700 0.28600000 0.32088500
v 0.72120700 0.26990100 0.49627300
v 0.72808900 0.26676300 0.51733900
v 0.73926000 0.24064800 0.65355800
v 0.73782500 0.23628100 0.67283600
v 0.70969900 0.22549400 0.72059700
v 0.68136500 0.21535200 0.71984400
v 0.65648900 0.21869300 0.70938400
v 0.61468500 0.25419000 0.37498900
v 0.61287300 0.26108900 0.35164700
v 0.61729200 0.27292500 0.30603300
v 0.61480400 0.28786100 0.28074800
v 0.64922100 0.27119000 0.31818200
v 0.72953200 0.24753900 0.49173900
v 0.73634600 0.24331100 0.51257200
v 0.74483500 0.21367700 0.64711500
v 0.74335500 0.20943400 0.66607200
v 0.71552400 0.19758400 0.71322700
v 0.68674000 0.18846000 0.71218400
v 0.66205400 0.19412600 0.70176500
v 0.64218800 0.20816700 0.53744400
v 0.63489500 0.22112200 0.45973800
v 0.62443300 0.24003900 0.37129000
v 0.62281700 0.24770700 0.34827700
v 0.62845400 0.26029200 0.30320500
v 0.62655400 0.27573500 0.27840000
v 0.66584900 0.24726200 0.30798500
v 0.73950900 0.21780000 0.48358600
v 0.74542400 0.21337800 0.50457500
v 0.75229700 0.18635200 0.63942200
v 0.75073600 0.18161700 0.65851400
v 0.72123300 0.16837300 0.70601800
v 0.69142200 0.16060100 0.70479700
v 0.66728700 0.16876500 0.69401000
v 0.64866600 0.18516200 0.52847900
v 0.64267400 0.19850900 0.45026400
v 0.63556700 0.21885400 0.36100200
v 0.63612200 0.22584000 0.33788400
v 0.64442600 0.23726600 0.29269800
v 0.64549600 0.25227000 0.26769100
v 0.67744300 0.22217600 0.29746800
v 0.71740900 0.20819500 0.37883300
v 0.74549500 0.19217600 0.47132900
v 0.75121600 0.18878400 0.49193700
v 0.75754100 0.16256700 0.62498000
v 0.75568900 0.15769600 0.64385000
v 0.72550300 0.14475400 0.69072600
v 0.69552800 0.13759600 0.68951100
v 0.67142400 0.14758700 0.67857600
v 0.65460800 0.16401800 0.51500700
v 0.64967800 0.17786400 0.43758600
v 0.64409600 0.19776100 0.34930400
v 0.64542100 0.20489600 0.32638300
v 0.65609800 0.21515800 0.28187400
v 0.66082500 0.22895000 0.25716000
v 0.71481200 0.10718600 0.20821800
v 0.75194400 0.11195600 0.30925100
v 0.77785900 0.12720800 0.42069400
v 0.78310000 0.13029300 0.44567000
v 0.77995800 0.13859500 0.60519400
v 0.77647800 0.13824900 0.62780500
v 0.66461300 0.10498900 0.26940500
v 0.66930700 0.10605800 0.24108300
v 0.68861100 0.10079900 0.18862000
v 0.70113400 0.10708000 0.15783500
v 0.72275500 0.05838430 0.19215400
v 0.76085900 0.07266060 0.29647500
v 0.78723000 0.09919020 0.41086500
v 0.79237300 0.10484500 0.43653000
v 0.78621900 0.12711500 0.59986900
v 0.78219900 0.12864000 0.62301700
v 0.73978800 0.12781900 0.67975000
v 0.66524500 0.07565290 0.36694800
v 0.66966600 0.06653960 0.25433400
v 0.67475700 0.06457540 0.22514200
v 0.69498700 0.05245860 0.17190800
v 0.70925600 0.05470600 0.14000200
v 0.72257100 0.05025100 0.21325600
v 0.75844500 0.06374620 0.31248600
v 0.78375600 0.08912760 0.42116200
v 0.78870500 0.09464690 0.44553800
v 0.70225100 0.11320900 0.67625300
v 0.67352200 0.12280100 0.66092300
v 0.66599000 0.08254330 0.47119800
v 0.67156500 0.05986790 0.27214400
v 0.67652700 0.05745790 0.24444100
v 0.69608500 0.04503850 0.19401800
v 0.70977300 0.04635030 0.16371300
v 0.72732800 0.04030240 0.21167000
v 0.77051400 0.05753970 0.35608100
v 0.77088100 0.07084570 0.48073600
v 0.74104800 0.07186560 0.53317000
v 0.71586900 0.06612900 0.53328700
v 0.69226600 0.07150980 0.52306100
v 0.68368000 0.05211810 0.39085600
v 0.68465900 0.04658750 0.32689500
v 0.68892600 0.04330480 0.25280400
v 0.69340000 0.04270160 0.23360100
v 0.70877000 0.03685200 0.19831400
v 0.71822100 0.03903650 0.17740100
v 0.72952000 0.03411740 0.21611800
v 0.74872200 0.03693130 0.26851600
v 0.76265800 0.04382480 0.32634100
v 0.76348100 0.05201480 0.42149800
v 0.74108000 0.05251120 0.46152000
v 0.70330200 0.05133640 0.45393500
v 0.69563500 0.03893730 0.35291300
v 0.69632600 0.03593030 0.30410100
v 0.69976100 0.03491600 0.24760100
v 0.70341000 0.03497220 0.23294600
v 0.71530800 0.03158730 0.20592300
v 0.72247100 0.03364250 0.19001800
v 0.72184100 0.03288580 0.38923500
v 0.42125800 0.38618600 0.83855900
v 0.43293800 0.39215600 0.84398200
v 0.45404400 0.41544000 0.86401600
v 0.44342600 0.43064600 0.87012200
v 0.40738400 0.43933000 0.87654400
v 0.37112900 0.43532900 0.87910400
v 0.31816500 0.43536000 0.86764300
v 0.31218000 0.42262900 0.86744100
v 0.32770700 0.39564900 0.84455900
v 0.33581400 0.39053100 0.84059700
v 0.37818900 0.37933400 0.83386300
v 0.42033900 0.38433900 0.84420400
v 0.43093100 0.38760800 0.85333200
v 0.44900900 0.40046100 0.88793000
v 0.44681600 0.40712800 0.89727200
v 0.40698900 0.41438800 0.91714800
v 0.38733400 0.41205100 0.91916800
v 0.32137500 0.42078500 0.90097300
v 0.31681400 0.41118000 0.89033300
v 0.32974900 0.39479400 0.85228900
v 0.33715900 0.39111700 0.84580700
v 0.37843300 0.38111800 0.83417100
v 0.40108900 0.38213600 0.82700900
v 0.41161500 0.36867300 0.90727700
v 0.43188600 0.38346900 0.93551800
v 0.42634900 0.39172600 0.94526500
v 0.40229100 0.39554000 0.95254500
v 0.34343200 0.39591600 0.94188100
v 0.35229500 0.37375000 0.91242200
v 0.38446600 0.36515600 0.90093600
v 0.39864700 0.36557600 0.89494100
v 0.40488300 0.36036600 0.94545400
v 0.41071100 0.36611600 0.95915900
v 0.40730000 0.37070100 0.96555000
v 0.36742900 0.37226400 0.96345000
v 0.37104500 0.36115500 0.94487200
v 0.39480000 0.35767700 0.93458900
v 0.39044900 0.34798100 0.97500000
v 0.26387700 0.38667000 0.33386000
v 0.26531100 0.38325900 0.36212800
v 0.27363400 0.37236500 0.38331300
v 0.27275900 0.37254700 0.39665300
v 0.27002100 0.37365900 0.41558500
v 0.26012000 0.38120100 0.47512100
v 0.26565600 0.37838900 0.49815300
v 0.26848400 0.37764200 0.51448000
v 0.26637500 0.38063000 0.52665500
v 0.25813100 0.40038100 0.62079800
v 0.23609700 0.47390800 0.70234100
v 0.23628600 0.53150800 0.64440500
v 0.23635100 0.53264300 0.64232300
v 0.23613200 0.53285000 0.64133300
v 0.23569300 0.53247500 0.64008800
v 0.24257700 0.53748400 0.57610300
v 0.24344500 0.53676100 0.54166700
v 0.24275400 0.53137600 0.50986300
v 0.23940300 0.51578900 0.47008900
v 0.25482400 0.51356200 0.40862600
v 0.25619400 0.50272000 0.38428700
v 0.26104300 0.46603500 0.31162500
v 0.26345800 0.45275500 0.30003600
v 0.26260300 0.41323600 0.29198700
v 0.25710600 0.41501000 0.32763000
v 0.25311800 0.46945800 0.35466700
v 0.23080600 0.48261600 0.43802800
v 0.22119300 0.48298600 0.50655400
v 0.22797400 0.51304600 0.56495500
v 0.23704900 0.46408800 0.69937200
v 0.23599000 0.47241400 0.69372000
v 0.23638900 0.49608600 0.65066700
v 0.22241800 0.49359800 0.61675700
v 0.22059100 0.48921300 0.58860200
v 0.22136800 0.48535000 0.56611000
v 0.21855200 0.47089600 0.52847200
v 0.22396400 0.46736400 0.51017200
v 0.22308200 0.46506500 0.49524800
v 0.22932500 0.45843100 0.45050500
v 0.23884200 0.45060000 0.41430900
v 0.24667700 0.44302100 0.39395700
v 0.24510300 0.43701800 0.38639000
v 0.24919400 0.42200000 0.36382400
v 0.25572900 0.39864300 0.37492600
v 0.25810200 0.39453900 0.38912000
v 0.25843400 0.39317300 0.39674400
v 0.25476400 0.38942900 0.42707800
v 0.25553100 0.38665300 0.45981500
v 0.25564900 0.38707500 0.47411400
v 0.25736700 0.38826700 0.49136500
v 0.25717000 0.38873900 0.50567800
v 0.25796500 0.38954200 0.51729700
v 0.25795300 0.38990800 0.52546700
v 0.25769700 0.39248300 0.55509700
v 0.25750000 0.39804800 0.59791100
v 0.25740100 0.40056200 0.61742300
v 0.25752600 0.40101800 0.62046200
v 0.25771100 0.40121600 0.62134000
v 0.25762400 0.40145400 0.62345600
v 0.25370800 0.41799400 0.68162100
v 0.24864800 0.42256000 0.68621500
v 0.24457800 0.43128700 0.69020300
v 0.21328400 0.45144200 0.67632100
v 0.21043800 0.47471800 0.63708000
v 0.19896200 0.47059300 0.60282400
v 0.19859400 0.46256200 0.55424300
v 0.19777800 0.44825700 0.51809200
v 0.20250000 0.44556400 0.50049400
v 0.20735500 0.43809300 0.44320800
v 0.22237200 0.42982300 0.38856200
v 0.22257300 0.42345000 0.38126700
v 0.22971800 0.41141900 0.35933500
v 0.24179900 0.38948100 0.36978600
v 0.24578100 0.38335600 0.39074200
v 0.24448300 0.37599800 0.42004900
v 0.24638400 0.37245700 0.46525200
v 0.24782300 0.37397200 0.49552300
v 0.24833900 0.37575600 0.53349200
v 0.24732500 0.38444800 0.60568600
v 0.24050000 0.39978000 0.66445100
v 0.21781100 0.44022500 0.68417000
v 0.17181800 0.35434700 0.72917100
v 0.15181500 0.38688200 0.68408900
v 0.14317600 0.38436700 0.64297400
v 0.14719400 0.38066700 0.58514200
v 0.15429700 0.36630200 0.54166200
v 0.16035000 0.36602800 0.52091300
v 0.16856800 0.36573900 0.45302800
v 0.18730000 0.36910900 0.38853400
v 0.19156000 0.36291100 0.37947800
v 0.20613600 0.35725700 0.35285700
v 0.22974200 0.33935100 0.36380100
v 0.23500700 0.33087600 0.38819700
v 0.23407000 0.31544800 0.42217300
v 0.23461700 0.30494600 0.47525800
v 0.23498800 0.30327300 0.51110100
v 0.23396300 0.30038300 0.55601500
v 0.23021500 0.30152700 0.64174900
v 0.22152700 0.31215800 0.71194700
v 0.18370500 0.34406400 0.73771900
v 0.15474500 0.31035900 0.73936700
v 0.13694200 0.33902900 0.69401200
v 0.12733500 0.33920000 0.65093500
v 0.13339700 0.33824700 0.59090900
v 0.14277500 0.32782400 0.54528700
v 0.15004300 0.32777700 0.52399100
v 0.15990000 0.32997900 0.45385200
v 0.18043400 0.33738100 0.38741300
v 0.18525100 0.33205800 0.37778900
v 0.20038500 0.32833700 0.35008500
v 0.22416700 0.31068300 0.36096500
v 0.22875900 0.30094000 0.38602500
v 0.22555300 0.28244500 0.42060800
v 0.22244800 0.26786900 0.47527400
v 0.22096400 0.26394500 0.51241800
v 0.21707100 0.25821700 0.55889100
v 0.20806400 0.25410800 0.64790200
v 0.19523700 0.26069000 0.72110400
v 0.16422300 0.29867000 0.74804000
v 0.11946500 0.26310000 0.73868500
v 0.11264400 0.29730100 0.69455500
v 0.10525400 0.30054000 0.65063700
v 0.11649500 0.30577100 0.59021600
v 0.12835300 0.30035700 0.54370100
v 0.13849000 0.30257800 0.52255000
v 0.17668200 0.31971800 0.38700800
v 0.18172700 0.31559400 0.37697200
v 0.22374800 0.28312300 0.38407200
v 0.21686200 0.26078700 0.41756300
v 0.20962700 0.24154000 0.47160800
v 0.20578600 0.23425200 0.50881400
v 0.19864000 0.22431600 0.55522800
v 0.18342600 0.21279000 0.64453800
v 0.17073600 0.21275900 0.70470700
v 0.16487900 0.21357700 0.71846400
v 0.12683600 0.24977700 0.74701300
v 0.09315150 0.20743900 0.72404600
v 0.08553360 0.25295800 0.68289400
v 0.08189560 0.26111400 0.63963400
v 0.09705330 0.27398500 0.58114900
v 0.11161300 0.27414100 0.53544600
v 0.12383000 0.27898100 0.51534000
v 0.17443900 0.30868000 0.38594200
v 0.17962200 0.30569800 0.37583000
v 0.19846500 0.22237700 0.46336100
v 0.19221100 0.21148500 0.49916300
v 0.18324500 0.19829100 0.54352200
v 0.16925000 0.17968400 0.62925500
v 0.15699100 0.17146200 0.68779900
v 0.15120000 0.16968300 0.70117000
v 0.14283900 0.16902500 0.70640400
v 0.10392700 0.19265400 0.73142200
v 0.08650440 0.18020500 0.71146600
v 0.07502410 0.22898100 0.67241700
v 0.07225320 0.24031800 0.63005100
v 0.08803710 0.25714700 0.57325000
v 0.10316800 0.25998700 0.52860200
v 0.11562000 0.26603200 0.50924900
v 0.14191700 0.28407000 0.44408900
v 0.17263500 0.30066600 0.38442700
v 0.17775400 0.29796600 0.37446600
v 0.19485900 0.30060900 0.34824600
v 0.21513300 0.28010500 0.35674400
v 0.21526900 0.26392200 0.37932600
v 0.20408200 0.23807700 0.40848300
v 0.19173400 0.21208700 0.45768500
v 0.18513800 0.20051100 0.49226500
v 0.17707700 0.18652100 0.53496800
v 0.16438500 0.16289400 0.61799700
v 0.15326100 0.15166700 0.67488200
v 0.14797200 0.14877200 0.68786300
v 0.13986300 0.14711200 0.69291400
v 0.09862580 0.16575900 0.71825300
v 0.08118960 0.15248700 0.69786500
v 0.06523230 0.20179200 0.65916400
v 0.06128860 0.21395000 0.61702500
v 0.07521370 0.23291500 0.56045100
v 0.08926710 0.23682600 0.51602900
v 0.10080600 0.24382200 0.49674800
v 0.12722600 0.26293300 0.43194800
v 0.16348100 0.27936400 0.37254500
v 0.16814800 0.27578900 0.36272200
v 0.18601400 0.27595900 0.33677400
v 0.20347500 0.25475400 0.34539000
v 0.20276300 0.23994400 0.36774700
v 0.19064900 0.21536300 0.39665400
v 0.17986400 0.19163300 0.44535100
v 0.17563500 0.18116900 0.47955200
v 0.17044800 0.16636500 0.52195300
v 0.16046600 0.14160000 0.60449900
v 0.15024900 0.12869200 0.66115400
v 0.14471200 0.12519600 0.67412400
v 0.13639300 0.12305800 0.67919900
v 0.09469030 0.13907600 0.70452500
v 0.07805360 0.11419900 0.65686300
v 0.05873140 0.16026300 0.62226200
v 0.05393960 0.17449000 0.58317700
v 0.06541480 0.19691900 0.53104900
v 0.07819320 0.20393500 0.48982700
v 0.08798550 0.21299500 0.47217200
v 0.11190900 0.23746200 0.41258400
v 0.14984800 0.25566600 0.35843200
v 0.15430000 0.25257900 0.34924400
v 0.17255800 0.25218400 0.32545500
v 0.18821600 0.23146000 0.33304800
v 0.18705300 0.21712100 0.35334800
v 0.17544900 0.19440300 0.37914200
v 0.16874500 0.17187500 0.42320800
v 0.16614700 0.15954800 0.45460100
v 0.16221900 0.14296700 0.49345900
v 0.15399900 0.11385900 0.56942600
v 0.14276300 0.09765190 0.62191400
v 0.13727600 0.09359120 0.63390200
v 0.12945900 0.09114130 0.63855600
v 0.09060610 0.10292300 0.66270500
v 0.07450050 0.09690760 0.63452600
v 0.05355310 0.13952000 0.59747800
v 0.04703740 0.15026400 0.55745300
v 0.05601880 0.16859100 0.50341700
v 0.06751910 0.17240200 0.46107800
v 0.07590540 0.18058100 0.44254000
v 0.09275270 0.20420800 0.38037100
v 0.12480100 0.22365200 0.32325700
v 0.14648800 0.21730500 0.28939400
v 0.16553800 0.19601300 0.29773200
v 0.16795800 0.18426100 0.31895300
v 0.16318600 0.16474500 0.34636300
v 0.16145100 0.14237400 0.39283000
v 0.16054100 0.13179400 0.42552900
v 0.15844400 0.11693000 0.46616200
v 0.15000000 0.09133610 0.54539200
v 0.13928900 0.07893910 0.59966600
v 0.13406100 0.07564320 0.61210200
v 0.12641500 0.07328740 0.61702900
v 0.08746710 0.08630710 0.64096400
v 0.06693730 0.09222460 0.61987400
v 0.04114490 0.13275700 0.57249800
v 0.03147580 0.13480300 0.52645100
v 0.03839240 0.14057900 0.46257300
v 0.04950460 0.13317300 0.41370300
v 0.05772380 0.13758200 0.39109700
v 0.07016680 0.14991900 0.31657900
v 0.09511110 0.16555800 0.24652100
v 0.11820400 0.15743700 0.20672500
v 0.14779100 0.13832100 0.21769200
v 0.15543800 0.12836700 0.24377900
v 0.15555200 0.10924000 0.27927300
v 0.15738800 0.09207330 0.33646200
v 0.15753000 0.08598240 0.37572400
v 0.15577800 0.07703370 0.42478000
v 0.14895500 0.06572980 0.51916500
v 0.13963400 0.06375480 0.58276500
v 0.13436700 0.06275790 0.59743500
v 0.12598800 0.06109030 0.60349700
v 0.08237970 0.08118650 0.62857100
v 0.06398540 0.08897270 0.61273400
v 0.03612200 0.12708000 0.56164300
v 0.02500000 0.12484800 0.51397300
v 0.03102140 0.12439700 0.44708500
v 0.04212080 0.11182300 0.39641100
v 0.05053320 0.11394100 0.37246300
v 0.06227530 0.11908400 0.29403000
v 0.09305740 0.12442300 0.20888000
v 0.11149000 0.12132900 0.17796000
v 0.14257400 0.10506600 0.18995400
v 0.15102500 0.09684830 0.21775800
v 0.15142100 0.07831900 0.25638000
v 0.15331200 0.06513160 0.31719500
v 0.15397700 0.06214550 0.35848700
v 0.15291300 0.05694260 0.41020800
v 0.14748400 0.05292940 0.50927400
v 0.13905700 0.05614820 0.57560300
v 0.13387200 0.05634340 0.59094800
v 0.12528500 0.05509450 0.59739400
v 0.08036140 0.07807610 0.62229300
v 0.06729670 0.08298350 0.60929800
v 0.04051550 0.11225600 0.56109700
v 0.03385820 0.09983130 0.45638000
v 0.04360600 0.08464610 0.41025900
v 0.05111350 0.08483570 0.38797400
v 0.06087150 0.08350450 0.31550700
v 0.08300650 0.08836530 0.24611500
v 0.10506600 0.07792430 0.20813600
v 0.13410400 0.06655640 0.21965200
v 0.14198900 0.06172980 0.24558800
v 0.14249400 0.04773060 0.28229300
v 0.14492300 0.04027120 0.33895200
v 0.14610100 0.04060550 0.37702700
v 0.14578400 0.03958460 0.42483600
v 0.14227000 0.04311470 0.51603200
v 0.13564400 0.05093970 0.57672000
v 0.13108300 0.05224690 0.59080300
v 0.12319900 0.05155880 0.59682000
v 0.04771020 0.09863450 0.56468200
v 0.04857780 0.06538210 0.43259300
v 0.05495240 0.06433610 0.41277800
v 0.06261790 0.05880760 0.34871600
v 0.08119670 0.05919210 0.28698600
v 0.08589090 0.05347280 0.27881200
v 0.10072700 0.04812790 0.25378400
v 0.12685000 0.04045830 0.26425900
v 0.13409500 0.03821650 0.28732600
v 0.13680600 0.02500000 0.37083700
v 0.13841000 0.02754490 0.40444500
v 0.13702900 0.03775950 0.52714300
v 0.08541750 0.07095410 0.61630400
v 0.07476280 0.07431190 0.60710000
v 0.05205770 0.09226450 0.56686700
v 0.04218010 0.08340070 0.53213400
v 0.04506500 0.07436710 0.48206400
v 0.05242430 0.05977590 0.44487100
v 0.05825910 0.05860720 0.42649800
v 0.08221410 0.05203730 0.30995300
v 0.08656470 0.04674340 0.30243600
v 0.10014700 0.04165300 0.27928100
v 0.12429300 0.03499780 0.28904200
v 0.13108200 0.03338220 0.31042300
v 0.13582800 0.02780870 0.45820800
v 0.13455500 0.03670270 0.53260300
v 0.13006900 0.04708390 0.58180700
v 0.12645500 0.04908030 0.59326200
v 0.11993300 0.04890900 0.59824000
v 0.10067100 0.03171410 0.30500700
f 1 2 3
f 4 5 3
f 4 3 2
f 6 5 4
f 8 9 7
f 10 11 8
f 11 9 8
f 11 10 12
f 1 3 13
f 5 14 13
f 5 13 3
f 11 19 9
f 19 18 9
f 19 11 12
f 1 20 2
f 21 4 2
f 21 2 20
f 22 6 4
f 22 4 21
f 23 6 22
f 24 7 23
f 25 8 24
f 8 7 24
f 26 10 25
f 10 8 25
f 10 26 12
f 1 13 27
f 14 28 27
f 14 27 13
f 15 29 28
f 15 28 14
f 16 30 29
f 16 29 15
f 17 31 16
f 31 30 16
f 18 32 17
f 32 31 17
f 19 33 18
f 33 32 18
f 33 19 12
f 1 34 20
f 35 21 34
f 21 20 34
f 22 21 35
f 37 25 24
f 38 26 25
f 38 25 37
f 26 38 12
f 39 40 41
f 42 41 40
f 45 46 44
f 47 48 45
f 48 46 45
f 48 47 49
f 39 41 50
f 51 50 41
f 48 54 53
f 48 53 46
f 54 48 49
f 55 56 57
f 55 57 58
f 59 60 56
f 59 56 55
f 61 60 59
f 64 65 63
f 66 67 64
f 67 65 64
f 68 69 66
f 69 67 66
f 70 71 58
f 70 58 57
f 72 73 71
f 72 71 70
f 79 80 77
f 80 78 77
f 69 68 79
f 68 80 79
f 85 84 83
f 88 89 87
f 90 91 88
f 91 89 88
f 92 93 90
f 93 91 90
f 94 95 82
f 96 97 95
f 96 95 94
f 98 99 97
f 98 97 96
f 100 99 98
f 101 102 100
f 103 104 101
f 104 102 101
f 105 106 103
f 106 104 103
f 92 106 105
f 109 108 107
f 112 113 111
f 114 115 112
f 115 113 112
f 123 124 121
f 124 122 121
f 127 126 125
f 129 130 128
f 131 132 129
f 132 130 129
f 140 141 138
f 141 139 138
f 28 143 27
f 143 142 27
f 29 144 28
f 144 143 28
f 30 145 29
f 145 144 29
f 31 146 145
f 31 145 30
f 32 147 146
f 32 146 31
f 33 148 147
f 33 147 32
f 12 148 33
f 153 38 37
f 153 37 152
f 144 133 143
f 147 138 146
f 148 140 147
f 140 138 147
f 132 153 130
f 153 152 130
f 135 116 134
f 139 121 137
f 141 123 139
f 123 121 139
f 115 131 113
f 131 129 113
f 117 96 94
f 118 98 96
f 118 96 117
f 119 100 98
f 119 98 118
f 120 101 119
f 101 100 119
f 122 103 120
f 103 101 120
f 124 105 122
f 105 103 122
f 91 114 89
f 114 112 89
f 95 70 82
f 70 57 82
f 97 72 95
f 72 70 95
f 100 75 99
f 102 75 100
f 106 79 77
f 106 77 104
f 92 69 79
f 92 79 106
f 56 81 57
f 81 82 57
f 60 83 56
f 83 81 56
f 85 83 60
f 65 88 87
f 67 90 88
f 67 88 65
f 69 92 90
f 69 90 67
f 71 40 58
f 40 39 58
f 73 42 71
f 42 40 71
f 78 45 44
f 78 44 76
f 80 47 45
f 80 45 78
f 68 49 47
f 68 47 80
f 50 55 39
f 55 58 39
f 51 59 50
f 59 55 50
f 61 59 51
f 53 64 63
f 54 66 64
f 54 64 53
f 49 68 66
f 49 66 54
f 42 43 41
f 43 51 41
f 44 43 42
f 75 44 74
f 76 44 75
f 74 44 73
f 44 42 73
f 46 43 44
f 74 73 72
f 74 72 97
f 75 74 99
f 99 74 97
f 102 76 75
f 77 78 76
f 104 77 76
f 104 76 102
f 118 117 116
f 135 118 116
f 136 119 118
f 136 118 135
f 120 119 136
f 121 122 120
f 121 120 137
f 137 120 136
f 135 134 133
f 144 135 133
f 145 136 135
f 145 135 144
f 137 136 145
f 138 139 137
f 138 137 146
f 146 137 145
f 150 22 35
f 23 22 150
f 150 35 149
f 36 23 150
f 151 24 23
f 37 24 151
f 151 23 36
f 152 37 151
f 127 150 126
f 110 150 127
f 150 149 126
f 110 36 150
f 128 151 110
f 130 151 128
f 151 36 110
f 130 152 151
f 109 127 108
f 86 127 109
f 127 125 108
f 86 110 127
f 111 128 86
f 113 128 111
f 128 110 86
f 113 129 128
f 85 109 84
f 62 109 85
f 109 107 84
f 62 86 109
f 87 111 62
f 89 111 87
f 111 86 62
f 89 112 111
f 61 85 60
f 52 85 61
f 52 62 85
f 63 87 52
f 65 87 63
f 87 62 52
f 61 51 43
f 52 61 43
f 43 63 52
f 46 53 63
f 46 63 43
f 154 124 155
f 156 123 157
f 159 141 160
f 161 140 162
f 164 148 165
f 170 132 171
f 172 131 173
f 174 115 175
f 176 114 177
f 179 93 180
f 180 93 181
f 154 155 182
f 183 182 155
f 155 156 183
f 156 157 183
f 184 183 157
f 157 158 184
f 158 159 184
f 185 184 159
f 159 160 185
f 160 161 185
f 161 162 185
f 186 185 162
f 162 163 186
f 163 164 186
f 187 186 164
f 164 165 187
f 188 187 165
f 165 166 188
f 166 167 188
f 189 188 167
f 190 189 167
f 167 168 190
f 168 169 190
f 169 170 190
f 170 171 190
f 191 190 171
f 171 172 191
f 172 173 191
f 173 174 191
f 192 191 174
f 174 175 192
f 176 177 193
f 194 193 177
f 177 178 194
f 178 179 194
f 195 194 179
f 179 180 195
f 180 181 195
f 196 182 197
f 197 211 196
f 182 183 198
f 198 197 182
f 183 184 198
f 199 198 184
f 184 185 199
f 200 199 185
f 185 186 200
f 201 200 186
f 186 187 201
f 202 201 187
f 187 188 202
f 203 202 188
f 188 189 203
f 204 203 189
f 189 190 205
f 205 204 189
f 190 191 206
f 206 205 190
f 191 192 207
f 207 206 191
f 192 193 208
f 208 207 192
f 193 194 208
f 209 208 194
f 194 195 209
f 210 209 195
f 195 196 210
f 211 210 196
f 211 197 225
f 212 225 197
f 197 198 212
f 199 200 213
f 214 213 200
f 200 201 214
f 215 214 201
f 201 202 215
f 216 215 202
f 202 203 216
f 217 216 203
f 203 204 217
f 218 217 204
f 204 205 219
f 219 218 204
f 205 206 220
f 220 219 205
f 206 207 221
f 221 220 206
f 207 208 222
f 222 221 207
f 208 209 223
f 223 222 208
f 209 210 223
f 224 223 210
f 210 211 225
f 225 224 210
f 225 212 237
f 226 237 212
f 213 214 227
f 228 227 214
f 214 215 228
f 229 228 215
f 215 216 229
f 230 229 216
f 216 217 231
f 231 230 216
f 217 218 231
f 232 231 218
f 218 219 233
f 233 232 218
f 219 220 233
f 221 222 234
f 222 223 235
f 235 234 222
f 223 224 235
f 236 235 224
f 224 225 237
f 237 236 224
f 237 226 251
f 238 251 226
f 227 228 240
f 240 239 227
f 228 229 241
f 241 240 228
f 229 230 242
f 242 241 229
f 230 231 243
f 243 242 230
f 231 232 243
f 244 243 232
f 232 233 245
f 245 244 232
f 234 235 249
f 249 248 234
f 235 236 249
f 250 249 236
f 236 237 251
f 251 250 236
f 251 238 252
f 252 265 251
f 239 240 254
f 254 253 239
f 240 241 255
f 255 254 240
f 241 242 256
f 256 255 241
f 242 243 257
f 257 256 242
f 243 244 257
f 258 257 244
f 244 245 259
f 259 258 244
f 245 246 259
f 260 259 246
f 246 247 260
f 261 260 247
f 247 248 261
f 262 261 248
f 248 249 262
f 263 262 249
f 249 250 263
f 264 263 250
f 250 251 264
f 265 264 251
f 265 252 266
f 266 280 265
f 267 266 252
f 253 254 269
f 269 268 253
f 254 255 270
f 270 269 254
f 255 256 271
f 271 270 255
f 256 257 272
f 272 271 256
f 257 258 272
f 273 272 258
f 258 259 274
f 274 273 258
f 259 260 274
f 275 274 260
f 260 261 275
f 276 275 261
f 261 262 276
f 277 276 262
f 262 263 277
f 278 277 263
f 263 264 278
f 279 278 264
f 264 265 279
f 280 279 265
f 280 266 281
f 281 290 280
f 266 267 282
f 282 281 266
f 267 268 283
f 283 282 267
f 268 269 284
f 284 283 268
f 269 270 285
f 285 284 269
f 270 271 286
f 286 285 270
f 277 278 287
f 288 287 278
f 278 279 288
f 289 288 279
f 279 280 289
f 290 289 280
f 290 281 291
f 291 302 290
f 281 282 292
f 292 291 281
f 282 283 293
f 293 292 282
f 283 284 294
f 294 293 283
f 284 285 295
f 295 294 284
f 285 286 296
f 296 295 285
f 297 296 286
f 299 298 287
f 287 288 299
f 300 299 288
f 288 289 300
f 301 300 289
f 289 290 301
f 302 301 290
f 302 291 313
f 303 313 291
f 291 292 303
f 304 303 292
f 292 293 304
f 305 304 293
f 293 294 305
f 306 305 294
f 294 295 306
f 298 299 310
f 299 300 311
f 311 310 299
f 300 301 312
f 312 311 300
f 301 302 313
f 313 312 301
f 313 303 325
f 314 325 303
f 304 305 315
f 318 317 307
f 307 308 318
f 319 318 308
f 308 309 319
f 320 319 309
f 322 321 310
f 310 311 322
f 323 322 311
f 311 312 323
f 324 323 312
f 312 313 325
f 325 324 312
f 325 314 337
f 326 337 314
f 327 326 314
f 317 318 330
f 319 320 331
f 332 331 320
f 320 321 332
f 333 332 321
f 321 322 333
f 334 333 322
f 322 323 334
f 335 334 323
f 323 324 335
f 336 335 324
f 324 325 337
f 337 336 324
f 337 326 338
f 326 327 338
f 327 328 338
f 331 332 338
f 332 333 338
f 333 334 338
f 334 335 338
f 335 336 338
f 336 337 338
f 141 159 158
f 148 164 163
f 12 167 166
f 166 165 148
f 148 12 166
f 175 176 192
f 193 192 176
f 246 233 220
f 233 246 245
f 220 221 247
f 234 247 221
f 247 246 220
f 247 234 248
f 226 267 238
f 267 252 238
f 267 239 253
f 267 253 268
f 267 227 239
f 212 267 226
f 227 267 213
f 213 267 199
f 267 212 198
f 198 199 267
f 271 272 297
f 297 286 271
f 306 295 316
f 296 297 317
f 297 307 317
f 307 297 272
f 273 274 307
f 272 273 307
f 308 307 274
f 274 275 308
f 275 276 309
f 309 308 275
f 309 298 320
f 298 310 321
f 321 320 298
f 305 306 315
f 316 315 306
f 315 316 329
f 317 316 296
f 316 317 330
f 295 296 316
f 303 304 327
f 315 327 304
f 327 314 303
f 327 315 328
f 329 328 315
f 328 329 338
f 330 329 316
f 329 330 338
f 318 319 330
f 331 330 319
f 330 331 338
f 182 196 181
f 196 195 181
f 92 105 181
f 181 154 182
f 181 93 92
f 298 309 276
f 276 277 298
f 287 298 277
f 339 7 340
f 342 17 343
f 347 6 348
f 350 361 339
f 339 340 350
f 351 350 340
f 340 341 351
f 352 351 341
f 353 352 341
f 342 343 354
f 345 346 356
f 357 356 346
f 358 357 346
f 346 347 358
f 359 358 347
f 347 348 359
f 360 359 348
f 348 349 360
f 361 350 369
f 362 369 350
f 350 351 362
f 365 364 354
f 354 355 365
f 356 357 366
f 357 358 367
f 360 361 369
f 369 368 360
f 369 362 375
f 368 369 375
f 370 371 376
f 341 342 353
f 342 18 17
f 343 344 354
f 355 354 344
f 344 16 15
f 344 15 345
f 345 15 14
f 349 361 360
f 361 349 23
f 354 353 342
f 353 354 364
f 356 355 344
f 344 345 356
f 351 352 362
f 363 362 352
f 362 363 371
f 371 370 362
f 352 353 363
f 364 363 353
f 363 364 372
f 355 356 366
f 366 365 355
f 367 366 357
f 358 359 367
f 359 360 367
f 368 367 360
f 370 375 362
f 375 370 376
f 372 371 363
f 371 372 376
f 365 366 373
f 366 367 373
f 374 373 367
f 373 374 376
f 367 368 374
f 375 374 368
f 374 375 376
f 124 123 156
f 155 124 156
f 141 140 161
f 160 141 161
f 12 38 168
f 167 12 168
f 153 169 168
f 168 38 153
f 153 132 170
f 169 153 170
f 132 131 172
f 171 132 172
f 131 115 174
f 173 131 174
f 114 91 178
f 177 114 178
f 91 93 179
f 178 91 179
f 123 141 158
f 158 157 123
f 140 148 163
f 163 162 140
f 115 114 176
f 175 115 176
f 105 124 154
f 181 105 154
f 9 341 340
f 340 7 9
f 5 346 345
f 345 14 5
f 5 6 347
f 346 5 347
f 23 349 348
f 348 6 23
f 9 18 342
f 341 9 342
f 16 344 343
f 343 17 16
f 7 339 361
f 23 7 361
f 364 365 372
f 373 372 365
f 372 373 376
f 378 84 379
f 380 107 381
f 383 108 384
f 389 142 390
f 390 142 391
f 394 134 395
f 398 94 399
f 378 401 377
f 398 399 401
f 401 402 398
f 396 403 395
f 394 395 404
f 395 403 404
f 393 405 392
f 84 378 377
f 377 83 84
f 107 380 379
f 379 84 107
f 381 107 108
f 382 381 108
f 108 383 382
f 125 385 384
f 384 108 125
f 387 1 27
f 27 142 388
f 391 142 143
f 133 393 392
f 392 143 133
f 116 396 395
f 395 134 116
f 116 117 397
f 82 81 400
f 125 126 386
f 34 1 387
f 388 387 27
f 388 142 389
f 392 405 391
f 392 391 143
f 393 394 405
f 393 133 394
f 394 133 134
f 404 405 394
f 396 397 403
f 396 116 397
f 402 397 398
f 397 117 398
f 117 94 398
f 399 400 401
f 399 94 400
f 94 82 400
f 377 401 400
f 400 81 377
f 377 81 83
f 406 387 407
f 408 391 409
f 410 405 411
f 412 404 413
f 413 404 414
f 415 403 416
f 424 382 425
f 426 383 427
f 432 386 433
f 433 386 434
f 434 386 435
f 437 34 438
f 439 457 406
f 406 407 439
f 409 410 441
f 410 411 441
f 442 441 411
f 411 412 442
f 443 442 412
f 412 413 443
f 444 443 413
f 413 414 444
f 414 415 444
f 445 444 415
f 415 416 445
f 446 445 416
f 416 417 446
f 417 418 446
f 447 446 418
f 418 419 447
f 448 447 419
f 419 420 448
f 449 448 420
f 420 421 449
f 450 449 421
f 421 422 450
f 423 424 451
f 452 451 424
f 424 425 452
f 453 452 425
f 425 426 453
f 426 427 453
f 427 428 453
f 454 453 428
f 428 429 454
f 455 454 430
f 430 431 455
f 457 439 458
f 458 476 457
f 439 440 459
f 459 458 439
f 441 442 461
f 461 460 441
f 442 443 462
f 462 461 442
f 443 444 463
f 463 462 443
f 444 445 464
f 464 463 444
f 445 446 465
f 465 464 445
f 446 447 465
f 466 465 447
f 447 448 466
f 467 466 448
f 448 449 467
f 468 467 449
f 449 450 468
f 469 468 450
f 450 451 469
f 470 469 451
f 451 452 470
f 471 470 452
f 452 453 471
f 472 471 453
f 453 454 472
f 473 472 454
f 454 455 473
f 474 473 455
f 476 458 477
f 477 495 476
f 458 459 478
f 478 477 458
f 460 461 480
f 480 479 460
f 461 462 481
f 481 480 461
f 462 463 482
f 482 481 462
f 463 464 483
f 483 482 463
f 464 465 484
f 484 483 464
f 465 466 484
f 485 484 466
f 466 467 485
f 486 485 467
f 467 468 486
f 487 486 468
f 468 469 487
f 488 487 469
f 469 470 488
f 489 488 470
f 470 471 489
f 490 489 471
f 471 472 490
f 491 490 472
f 472 473 491
f 492 491 473
f 473 474 492
f 493 492 474
f 495 477 496
f 496 512 495
f 477 478 497
f 497 496 477
f 479 480 499
f 499 498 479
f 480 481 499
f 500 499 481
f 481 482 501
f 501 500 481
f 483 484 502
f 484 485 502
f 503 502 485
f 488 489 504
f 505 504 489
f 489 490 505
f 506 505 490
f 490 491 507
f 507 506 490
f 491 492 507
f 508 507 492
f 492 493 508
f 509 508 493
f 512 496 513
f 513 528 512
f 496 497 514
f 514 513 496
f 498 499 515
f 516 515 499
f 499 500 516
f 517 516 500
f 500 501 518
f 518 517 500
f 502 503 519
f 520 519 503
f 505 506 521
f 506 507 522
f 522 521 506
f 507 508 523
f 523 522 507
f 508 509 524
f 524 523 508
f 510 511 526
f 526 525 510
f 528 513 529
f 529 549 528
f 513 514 530
f 530 529 513
f 515 516 531
f 532 531 516
f 516 517 532
f 533 532 517
f 517 518 533
f 534 533 518
f 519 520 536
f 537 536 520
f 538 537 520
f 521 522 543
f 543 542 521
f 522 523 544
f 544 543 522
f 523 524 545
f 545 544 523
f 525 526 547
f 547 546 525
f 526 527 548
f 548 547 526
f 527 528 549
f 549 548 527
f 549 529 550
f 550 570 549
f 529 530 551
f 551 550 529
f 531 532 552
f 553 552 532
f 532 533 553
f 554 553 533
f 533 534 554
f 555 554 534
f 534 535 555
f 556 555 535
f 535 536 556
f 557 556 536
f 536 537 557
f 558 557 537
f 537 538 558
f 559 558 538
f 538 539 559
f 560 559 539
f 539 540 560
f 561 560 540
f 540 541 561
f 562 561 541
f 541 542 563
f 563 562 541
f 542 543 564
f 564 563 542
f 543 544 565
f 565 564 543
f 544 545 566
f 566 565 544
f 546 547 568
f 568 567 546
f 547 548 569
f 569 568 547
f 548 549 570
f 570 569 548
f 570 550 591
f 571 591 550
f 550 551 571
f 572 571 551
f 552 553 573
f 574 573 553
f 553 554 574
f 575 574 554
f 554 555 575
f 576 575 555
f 555 556 576
f 577 576 556
f 556 557 577
f 578 577 557
f 557 558 578
f 579 578 558
f 558 559 579
f 580 579 559
f 559 560 580
f 581 580 560
f 560 561 582
f 582 581 560
f 561 562 582
f 583 582 562
f 562 563 584
f 584 583 562
f 563 564 585
f 585 584 563
f 564 565 586
f 586 585 564
f 565 566 587
f 587 586 565
f 567 568 589
f 589 588 567
f 568 569 590
f 590 589 568
f 569 570 591
f 591 590 569
f 591 571 611
f 592 611 571
f 571 572 592
f 593 592 572
f 573 574 594
f 595 594 574
f 574 575 595
f 596 595 575
f 575 576 596
f 597 596 576
f 576 577 597
f 598 597 577
f 577 578 598
f 599 598 578
f 578 579 599
f 580 581 600
f 601 600 581
f 581 582 602
f 602 601 581
f 582 583 603
f 603 602 582
f 583 584 604
f 604 603 583
f 584 585 605
f 605 604 584
f 585 586 606
f 606 605 585
f 586 587 607
f 607 606 586
f 588 589 609
f 609 608 588
f 589 590 610
f 610 609 589
f 590 591 611
f 611 610 590
f 611 592 631
f 612 631 592
f 592 593 612
f 613 612 593
f 594 595 614
f 615 614 595
f 595 596 615
f 616 615 596
f 596 597 616
f 617 616 597
f 597 598 617
f 618 617 598
f 598 599 618
f 619 618 599
f 600 601 621
f 621 620 600
f 601 602 622
f 622 621 601
f 602 603 623
f 623 622 602
f 603 604 624
f 624 623 603
f 604 605 625
f 625 624 604
f 605 606 626
f 626 625 605
f 606 607 627
f 627 626 606
f 608 609 629
f 629 628 608
f 609 610 630
f 630 629 609
f 610 611 631
f 631 630 610
f 631 612 651
f 632 651 612
f 612 613 632
f 633 632 613
f 614 615 634
f 635 634 615
f 615 616 635
f 636 635 616
f 616 617 636
f 637 636 617
f 617 618 637
f 638 637 618
f 618 619 638
f 640 639 620
f 620 621 641
f 641 640 620
f 621 622 642
f 642 641 621
f 622 623 643
f 643 642 622
f 623 624 644
f 644 643 623
f 624 625 645
f 645 644 624
f 625 626 646
f 646 645 625
f 626 627 647
f 647 646 626
f 628 629 649
f 649 648 628
f 629 630 650
f 650 649 629
f 630 631 651
f 651 650 630
f 651 632 652
f 632 633 653
f 653 652 632
f 634 635 654
f 635 636 655
f 655 654 635
f 636 637 656
f 656 655 636
f 637 638 657
f 657 656 637
f 658 657 638
f 639 640 659
f 640 641 659
f 660 659 641
f 641 642 660
f 661 660 642
f 642 643 661
f 662 661 643
f 643 644 662
f 663 662 644
f 644 645 663
f 664 663 645
f 645 646 664
f 665 664 646
f 646 647 665
f 666 665 647
f 648 649 667
f 668 667 649
f 649 650 668
f 669 668 650
f 652 653 670
f 654 655 671
f 655 656 672
f 672 671 655
f 656 657 673
f 673 672 656
f 657 658 674
f 674 673 657
f 675 674 658
f 659 660 676
f 677 676 660
f 660 661 677
f 678 677 661
f 661 662 678
f 663 664 679
f 680 679 664
f 664 665 680
f 671 672 688
f 688 687 671
f 673 674 689
f 674 675 690
f 690 689 674
f 675 676 691
f 691 690 675
f 676 677 691
f 692 691 677
f 677 678 692
f 693 692 678
f 695 694 681
f 683 684 699
f 685 686 699
f 686 687 699
f 687 688 699
f 689 690 699
f 690 691 699
f 691 692 699
f 692 693 699
f 694 695 699
f 696 697 699
f 697 698 699
f 390 391 408
f 405 410 409
f 409 391 405
f 405 404 412
f 411 405 412
f 403 415 414
f 414 404 403
f 397 417 416
f 416 403 397
f 402 418 417
f 417 397 402
f 402 401 419
f 418 402 419
f 401 378 420
f 419 401 420
f 378 379 421
f 420 378 421
f 379 380 422
f 421 379 422
f 381 382 424
f 423 381 424
f 382 383 426
f 425 382 426
f 384 428 427
f 427 383 384
f 385 429 428
f 428 384 385
f 430 125 431
f 386 432 431
f 125 386 431
f 435 386 126
f 34 437 436
f 436 35 34
f 389 390 408
f 440 439 408
f 388 389 408
f 387 388 408
f 407 387 408
f 407 408 439
f 422 423 450
f 422 380 423
f 423 380 381
f 451 450 423
f 429 430 454
f 429 385 430
f 430 385 125
f 436 149 35
f 436 126 149
f 126 436 435
f 438 34 406
f 34 387 406
f 408 409 440
f 441 440 409
f 440 441 460
f 431 432 455
f 432 433 455
f 433 434 455
f 434 435 455
f 456 455 435
f 435 436 456
f 436 437 456
f 437 438 456
f 438 406 456
f 457 456 406
f 456 457 476
f 460 459 440
f 459 460 479
f 455 456 474
f 475 474 456
f 476 475 456
f 475 476 495
f 479 478 459
f 474 475 493
f 494 493 475
f 493 494 510
f 511 510 494
f 495 494 475
f 494 495 512
f 478 479 497
f 498 497 479
f 510 509 493
f 509 510 525
f 512 511 494
f 511 512 528
f 527 526 511
f 528 527 511
f 497 498 514
f 515 514 498
f 525 524 509
f 524 525 546
f 514 515 530
f 531 530 515
f 501 535 518
f 518 535 534
f 535 502 519
f 535 519 536
f 502 535 483
f 482 483 535
f 535 501 482
f 538 503 485
f 538 520 503
f 486 487 538
f 485 486 538
f 504 539 488
f 539 538 487
f 487 488 539
f 540 539 504
f 504 505 540
f 541 540 505
f 521 541 505
f 541 521 542
f 546 545 524
f 545 546 567
f 530 531 551
f 552 551 531
f 567 566 545
f 566 567 588
f 551 552 572
f 573 572 552
f 588 587 566
f 587 588 608
f 572 573 593
f 594 593 573
f 579 580 599
f 600 599 580
f 608 607 587
f 607 608 628
f 593 594 613
f 614 613 594
f 599 600 619
f 620 619 600
f 619 620 639
f 628 627 607
f 627 628 648
f 613 614 633
f 634 633 614
f 639 638 619
f 638 639 658
f 648 647 627
f 634 653 633
f 659 658 639
f 658 659 676
f 676 675 658
f 647 648 666
f 667 666 648
f 652 682 651
f 650 651 682
f 682 669 650
f 666 667 681
f 698 697 669
f 682 652 683
f 670 683 652
f 683 670 684
f 682 683 699
f 682 698 669
f 698 682 699
f 685 684 670
f 684 685 699
f 685 670 653
f 653 634 685
f 634 654 686
f 671 686 654
f 686 671 687
f 686 685 634
f 673 688 672
f 688 673 699
f 673 689 699
f 693 678 662
f 662 663 693
f 679 693 663
f 693 679 699
f 680 694 699
f 679 680 699
f 694 680 665
f 665 666 694
f 681 694 666
f 695 696 699
f 696 681 667
f 667 668 696
f 681 696 695
f 697 696 668
f 668 669 697

