# https://github.com/mikedh/trimesh

o m44.off
v 0.42431700 0.03038330 0.14501700
v 0.43191700 0.03038330 0.15420000
v 0.42083300 0.02563330 0.15578300
v 0.43191700 0.04115000 0.15135000
v 0.42685000 0.04146670 0.14533300
v 0.42020000 0.04146670 0.13456700
v 0.41925000 0.04146670 0.12633300
v 0.40595000 0.02500000 0.13045000
v 0.44205000 0.03006670 0.16116700
v 0.45186700 0.03038330 0.16528300
v 0.44015000 0.02500000 0.17351700
v 0.44711700 0.04146670 0.16148300
v 0.44046700 0.04146670 0.15895000
v 0.41671700 0.03038330 0.11968300
v 0.41830000 0.03006670 0.13266700
v 0.56808300 0.03038330 0.15420000
v 0.57568300 0.03038330 0.14501700
v 0.57916700 0.02563330 0.15578300
v 0.57315000 0.04146670 0.14533300
v 0.56808300 0.04115000 0.15135000
v 0.58075000 0.04146670 0.12633300
v 0.57980000 0.04146670 0.13456700
v 0.59405000 0.02500000 0.13045000
v 0.54813300 0.03038330 0.16528300
v 0.55795000 0.03006670 0.16116700
v 0.55985000 0.02500000 0.17351700
v 0.55953300 0.04146670 0.15895000
v 0.55288300 0.04146670 0.16148300
v 0.58170000 0.03006670 0.13266700
v 0.58328300 0.03038330 0.11968300
v 0.48796700 0.41291700 0.23748300
v 0.49081700 0.41481700 0.24318300
v 0.48321700 0.41513300 0.23811700
v 0.48511700 0.42115000 0.24001700
v 0.48036700 0.41513300 0.23115000
v 0.49461700 0.42970000 0.26503300
v 0.49050000 0.42590000 0.26345000
v 0.50000000 0.40848300 0.26630000
v 0.50000000 0.41196700 0.25806700
v 0.49145000 0.41608300 0.25965000
v 0.50000000 0.40753300 0.24160000
v 0.48955000 0.43065000 0.24698300
v 0.51488300 0.42115000 0.24001700
v 0.51045000 0.43065000 0.24698300
v 0.51678300 0.41513300 0.23811700
v 0.50538300 0.42970000 0.26503300
v 0.50950000 0.42590000 0.26345000
v 0.50570000 0.43666700 0.24856700
v 0.50855000 0.41608300 0.25965000
v 0.50918300 0.41481700 0.24318300
v 0.51203300 0.41291700 0.23748300
v 0.51963300 0.41513300 0.23115000
v 0.49430000 0.43666700 0.24856700
v 0.09118330 0.06806670 0.15800000
v 0.13868300 0.09498330 0.13488300
v 0.22196700 0.22101700 0.14501700
v 0.22196700 0.22101700 0.13805000
v 0.26408300 0.25616700 0.13140000
v 0.30303300 0.28371700 0.11936700
v 0.26408300 0.25616700 0.13836700
v 0.23463300 0.11461700 0.11525000
v 0.30303300 0.28371700 0.11113300
v 0.34293300 0.26693300 0.11746700
v 0.28371700 0.16053300 0.11240000
v 0.34261700 0.26725000 0.10796700
v 0.36826700 0.26091700 0.10638300
v 0.33691700 0.19093300 0.10131700
v 0.36826700 0.26091700 0.09656670
v 0.39455000 0.25901700 0.10480000
v 0.36415000 0.18776700 0.10036700
v 0.39455000 0.25901700 0.09593330
v 0.41988300 0.27073300 0.10068300
v 0.39328300 0.20898300 0.09656670
v 0.41988300 0.27073300 0.09245000
v 0.44585000 0.28783300 0.09498330
v 0.41545000 0.21531700 0.09118330
v 0.44585000 0.28783300 0.08801670
v 0.02500000 0.03640000 0.19441700
v 0.06616670 0.06268330 0.17003300
v 0.17700000 0.23336700 0.19441700
v 0.77803300 0.22101700 0.14501700
v 0.73591700 0.25616700 0.13836700
v 0.86131700 0.09498330 0.13488300
v 0.90881700 0.06806670 0.15800000
v 0.73591700 0.25616700 0.13140000
v 0.76536700 0.11461700 0.11525000
v 0.69696700 0.28371700 0.11113300
v 0.71628300 0.16053300 0.11240000
v 0.69696700 0.28371700 0.11936700
v 0.65738300 0.26725000 0.10796700
v 0.66308300 0.19093300 0.10131700
v 0.65706700 0.26693300 0.11746700
v 0.63173300 0.26091700 0.09656670
v 0.63585000 0.18776700 0.10036700
v 0.63173300 0.26091700 0.10638300
v 0.60545000 0.25901700 0.09593330
v 0.60671700 0.20898300 0.09656670
v 0.60545000 0.25901700 0.10480000
v 0.58011700 0.27073300 0.09245000
v 0.58455000 0.21531700 0.09118330
v 0.58011700 0.27073300 0.10068300
v 0.55415000 0.28783300 0.08801670
v 0.55415000 0.28783300 0.09498330
v 0.82300000 0.23336700 0.19441700
v 0.93383300 0.06268330 0.17003300
v 0.77803300 0.22101700 0.13805000
v 0.97500000 0.03640000 0.19441700
v 0.43825000 0.04178330 0.13330000
v 0.43413300 0.02563330 0.13266700
v 0.44585000 0.02531670 0.14628300
v 0.44585000 0.04178330 0.14216700
v 0.43761700 0.04178330 0.12316700
v 0.45883300 0.02563330 0.15356700
v 0.45503300 0.04210000 0.14533300
v 0.42938300 0.02563330 0.11715000
v 0.45820000 0.05571670 0.11366700
v 0.46643300 0.05571670 0.12348300
v 0.44015000 0.02753330 0.11461700
v 0.46231700 0.02753330 0.14090000
v 0.44933300 0.02595000 0.10701700
v 0.47150000 0.02595000 0.13298300
v 0.47656700 0.02563330 0.12538300
v 0.47055000 0.02563330 0.11050000
v 0.47213300 0.04621670 0.12063300
v 0.45693300 0.02563330 0.10321700
v 0.46896700 0.04558330 0.10733300
v 0.46231700 0.04621670 0.10923300
v 0.47466700 0.04558330 0.11398300
v 0.48131700 0.09435000 0.10828300
v 0.47878300 0.09371670 0.11493300
v 0.47593300 0.09435000 0.10163300
v 0.47308300 0.09276670 0.11810000
v 0.46896700 0.09371670 0.10353300
v 0.46516700 0.09276670 0.10796700
v 0.48670000 0.14343300 0.10575000
v 0.48511700 0.13868300 0.11335000
v 0.47910000 0.14375000 0.09656670
v 0.47910000 0.13393300 0.11588300
v 0.47150000 0.13868300 0.09751670
v 0.46770000 0.13425000 0.10226700
v 0.56586700 0.02563330 0.13266700
v 0.56175000 0.04178330 0.13330000
v 0.55415000 0.02531670 0.14628300
v 0.55415000 0.04178330 0.14216700
v 0.56238300 0.04178330 0.12316700
v 0.54116700 0.02563330 0.15356700
v 0.54496700 0.04210000 0.14533300
v 0.57061700 0.02563330 0.11715000
v 0.54180000 0.05571670 0.11366700
v 0.53356700 0.05571670 0.12348300
v 0.55985000 0.02753330 0.11461700
v 0.53768300 0.02753330 0.14090000
v 0.55066700 0.02595000 0.10701700
v 0.52850000 0.02595000 0.13298300
v 0.52945000 0.02563330 0.11050000
v 0.52343300 0.02563330 0.12538300
v 0.52786700 0.04621670 0.12063300
v 0.54306700 0.02563330 0.10321700
v 0.53103300 0.04558330 0.10733300
v 0.53768300 0.04621670 0.10923300
v 0.52533300 0.04558330 0.11398300
v 0.51868300 0.09435000 0.10828300
v 0.52121700 0.09371670 0.11493300
v 0.52406700 0.09435000 0.10163300
v 0.52691700 0.09276670 0.11810000
v 0.53103300 0.09371670 0.10353300
v 0.53483300 0.09276670 0.10796700
v 0.51330000 0.14343300 0.10575000
v 0.51488300 0.13868300 0.11335000
v 0.52090000 0.14375000 0.09656670
v 0.52090000 0.13393300 0.11588300
v 0.52850000 0.13868300 0.09751670
v 0.53230000 0.13425000 0.10226700
v 0.48100000 0.17573300 0.02500000
v 0.50000000 0.17288300 0.02690000
v 0.50000000 0.19346700 0.05033330
v 0.51900000 0.17573300 0.02500000
v 0.54370000 0.19631700 0.04051670
v 0.45630000 0.19631700 0.04051670
v 0.50000000 0.22260000 0.07598330
v 0.52090000 0.24793300 0.06553330
v 0.47910000 0.24793300 0.06553330
v 0.48670000 0.41830000 0.17003300
v 0.51330000 0.41830000 0.17003300
v 0.51330000 0.41640000 0.15641700
v 0.50000000 0.40436700 0.23210000
v 0.44426700 0.17161700 0.15293300
v 0.45915000 0.17636700 0.13266700
v 0.45028300 0.17826700 0.13995000
v 0.44680000 0.17636700 0.11810000
v 0.44015000 0.17826700 0.12760000
v 0.45440000 0.17035000 0.10765000
v 0.46865000 0.17003300 0.12475000
v 0.46010000 0.15990000 0.14311700
v 0.43476700 0.15990000 0.11430000
v 0.44680000 0.15578300 0.15008300
v 0.42621700 0.15641700 0.12475000
v 0.42653300 0.17161700 0.13235000
v 0.43508300 0.16876700 0.15768300
v 0.42020000 0.16908300 0.13963300
v 0.42653300 0.18333300 0.13203300
v 0.44458300 0.18333300 0.15261700
v 0.43540000 0.18586700 0.15736700
v 0.42083300 0.18586700 0.13931700
v 0.42526700 0.18681700 0.15008300
v 0.48733300 0.20581700 0.11240000
v 0.48796700 0.22956700 0.12855000
v 0.47055000 0.20993300 0.08833330
v 0.47846700 0.24920000 0.13488300
v 0.45535000 0.25173300 0.12380000
v 0.44933300 0.23273300 0.08738330
v 0.44363300 0.25110000 0.10131700
v 0.50000000 0.24508300 0.11176700
v 0.50000000 0.26503300 0.12570000
v 0.46263300 0.28086700 0.08580000
v 0.46643300 0.26978300 0.11335000
v 0.48131700 0.43856700 0.24191700
v 0.48955000 0.44775000 0.24350000
v 0.47815000 0.43888300 0.22861700
v 0.50000000 0.39740000 0.21816700
v 0.48765000 0.44838300 0.22798300
v 0.47625000 0.44585000 0.21468300
v 0.47846700 0.41228300 0.21690000
v 0.50000000 0.39645000 0.21310000
v 0.48670000 0.45883300 0.21373300
v 0.47625000 0.42653300 0.18713300
v 0.47846700 0.40595000 0.20486700
v 0.50000000 0.37998300 0.20328300
v 0.48670000 0.43476700 0.17985000
v 0.47625000 0.41006700 0.17700000
v 0.47846700 0.38948300 0.19505000
v 0.50000000 0.37808300 0.18935000
v 0.47625000 0.40816700 0.16338300
v 0.47846700 0.38758300 0.18143300
v 0.50000000 0.37206700 0.18111700
v 0.45883300 0.38441700 0.16465000
v 0.50000000 0.33596700 0.17985000
v 0.44553300 0.34990000 0.15768300
v 0.50000000 0.30651700 0.16591700
v 0.46485000 0.29005000 0.12570000
v 0.50000000 0.28435000 0.14153300
v 0.45313300 0.31031700 0.13456700
v 0.44870000 0.32488300 0.13805000
v 0.50000000 0.30271700 0.15420000
v 0.54085000 0.17636700 0.13266700
v 0.55573300 0.17161700 0.15293300
v 0.54971700 0.17826700 0.13995000
v 0.55320000 0.17636700 0.11810000
v 0.55985000 0.17826700 0.12760000
v 0.53135000 0.17003300 0.12475000
v 0.54560000 0.17035000 0.10765000
v 0.53990000 0.15990000 0.14311700
v 0.56523300 0.15990000 0.11430000
v 0.55320000 0.15578300 0.15008300
v 0.57378300 0.15641700 0.12475000
v 0.57346700 0.17161700 0.13235000
v 0.56491700 0.16876700 0.15768300
v 0.57980000 0.16908300 0.13963300
v 0.57346700 0.18333300 0.13203300
v 0.56460000 0.18586700 0.15736700
v 0.55541700 0.18333300 0.15261700
v 0.57916700 0.18586700 0.13931700
v 0.57473300 0.18681700 0.15008300
v 0.51266700 0.20581700 0.11240000
v 0.51203300 0.22956700 0.12855000
v 0.52945000 0.20993300 0.08833330
v 0.52153300 0.24920000 0.13488300
v 0.54465000 0.25173300 0.12380000
v 0.55066700 0.23273300 0.08738330
v 0.55636700 0.25110000 0.10131700
v 0.53736700 0.28086700 0.08580000
v 0.53356700 0.26978300 0.11335000
v 0.51045000 0.44775000 0.24350000
v 0.51868300 0.43856700 0.24191700
v 0.51235000 0.44838300 0.22798300
v 0.52185000 0.43888300 0.22861700
v 0.51330000 0.45883300 0.21373300
v 0.52375000 0.44585000 0.21468300
v 0.52153300 0.41228300 0.21690000
v 0.51330000 0.43476700 0.17985000
v 0.52375000 0.42653300 0.18713300
v 0.52153300 0.40595000 0.20486700
v 0.52375000 0.41006700 0.17700000
v 0.52153300 0.38948300 0.19505000
v 0.52375000 0.40816700 0.16338300
v 0.52153300 0.38758300 0.18143300
v 0.54116700 0.38441700 0.16465000
v 0.55446700 0.34990000 0.15768300
v 0.53515000 0.29005000 0.12570000
v 0.54686700 0.31031700 0.13456700
v 0.55130000 0.32488300 0.13805000
v 0.50000000 0.40436700 0.23653300
v 0.48670000 0.41640000 0.15641700
v 0.20043300 0.27485000 0.20613300
v 0.19948300 0.27421700 0.19885000
v 0.23748300 0.31000000 0.17256700
v 0.19505000 0.27833300 0.21025000
v 0.22830000 0.31918300 0.17668300
v 0.23653300 0.30936700 0.16528300
v 0.19948300 0.29606700 0.21025000
v 0.20518300 0.29036700 0.20771700
v 0.23273300 0.31665000 0.18238300
v 0.19821700 0.29416700 0.20455000
v 0.20423300 0.28973300 0.20043300
v 0.23843300 0.31095000 0.17985000
v 0.24096700 0.30683300 0.17225000
v 0.26376700 0.32393300 0.15831700
v 0.26725000 0.32076700 0.16560000
v 0.33026700 0.34483300 0.13615000
v 0.33470000 0.33913300 0.14850000
v 0.34800000 0.35211700 0.13488300
v 0.35116700 0.34768300 0.14438300
v 0.39233300 0.35465000 0.12063300
v 0.39518300 0.34736700 0.13615000
v 0.41101700 0.35940000 0.12063300
v 0.41260000 0.35306700 0.13425000
v 0.43065000 0.35401700 0.11461700
v 0.43191700 0.34388300 0.13266700
v 0.44300000 0.34831700 0.09878330
v 0.26281700 0.33343300 0.17478300
v 0.25933300 0.33660000 0.16876700
v 0.26630000 0.32583300 0.17288300
v 0.33311700 0.36193300 0.16211700
v 0.32931700 0.36795000 0.15198300
v 0.33565000 0.34831700 0.15990000
v 0.35116700 0.36541700 0.15451700
v 0.34831700 0.37016700 0.14660000
v 0.35211700 0.35496700 0.15325000
v 0.39328300 0.37586700 0.15261700
v 0.39043300 0.38346700 0.13931700
v 0.39518300 0.35876700 0.15071700
v 0.41418300 0.37808300 0.14818300
v 0.41291700 0.38473300 0.13646700
v 0.41418300 0.36320000 0.14660000
v 0.43350000 0.38315000 0.15103300
v 0.43223300 0.39360000 0.13583300
v 0.43318300 0.35971700 0.14913300
v 0.45408300 0.40215000 0.13805000
v 0.43951700 0.38125000 0.10923300
v 0.47435000 0.41038300 0.12633300
v 0.46611700 0.38916700 0.09688330
v 0.46801700 0.35971700 0.08041670
v 0.46105000 0.30303300 0.09055000
v 0.47910000 0.28530000 0.07503330
v 0.47815000 0.30810000 0.07693330
v 0.44806700 0.32710000 0.09118330
v 0.47086700 0.33375000 0.07408330
v 0.80051700 0.27421700 0.19885000
v 0.79956700 0.27485000 0.20613300
v 0.76251700 0.31000000 0.17256700
v 0.80495000 0.27833300 0.21025000
v 0.77170000 0.31918300 0.17668300
v 0.76346700 0.30936700 0.16528300
v 0.79481700 0.29036700 0.20771700
v 0.80051700 0.29606700 0.21025000
v 0.76726700 0.31665000 0.18238300
v 0.80178300 0.29416700 0.20455000
v 0.79576700 0.28973300 0.20043300
v 0.76156700 0.31095000 0.17985000
v 0.75903300 0.30683300 0.17225000
v 0.73623300 0.32393300 0.15831700
v 0.73275000 0.32076700 0.16560000
v 0.66973300 0.34483300 0.13615000
v 0.66530000 0.33913300 0.14850000
v 0.65200000 0.35211700 0.13488300
v 0.64883300 0.34768300 0.14438300
v 0.60766700 0.35465000 0.12063300
v 0.60481700 0.34736700 0.13615000
v 0.58898300 0.35940000 0.12063300
v 0.58740000 0.35306700 0.13425000
v 0.56935000 0.35401700 0.11461700
v 0.56808300 0.34388300 0.13266700
v 0.55700000 0.34831700 0.09878330
v 0.73718300 0.33343300 0.17478300
v 0.74066700 0.33660000 0.16876700
v 0.73370000 0.32583300 0.17288300
v 0.66688300 0.36193300 0.16211700
v 0.67068300 0.36795000 0.15198300
v 0.66435000 0.34831700 0.15990000
v 0.64883300 0.36541700 0.15451700
v 0.65168300 0.37016700 0.14660000
v 0.64788300 0.35496700 0.15325000
v 0.60671700 0.37586700 0.15261700
v 0.60956700 0.38346700 0.13931700
v 0.60481700 0.35876700 0.15071700
v 0.58581700 0.37808300 0.14818300
v 0.58708300 0.38473300 0.13646700
v 0.58581700 0.36320000 0.14660000
v 0.56650000 0.38315000 0.15103300
v 0.56776700 0.39360000 0.13583300
v 0.56681700 0.35971700 0.14913300
v 0.54591700 0.40215000 0.13805000
v 0.56048300 0.38125000 0.10923300
v 0.52565000 0.41038300 0.12633300
v 0.53388300 0.38916700 0.09688330
v 0.53198300 0.35971700 0.08041670
v 0.52090000 0.28530000 0.07503330
v 0.53895000 0.30303300 0.09055000
v 0.52185000 0.30810000 0.07693330
v 0.55193300 0.32710000 0.09118330
v 0.52913300 0.33375000 0.07408330
f 1 2 3
f 4 5 3
f 6 7 8
f 9 10 11
f 12 13 11
f 14 15 8
f 16 17 18
f 19 20 18
f 21 22 23
f 24 25 26
f 27 28 26
f 29 30 23
f 30 21 23
f 28 24 26
f 25 27 26
f 22 29 23
f 20 16 18
f 17 19 18
f 7 14 8
f 10 12 11
f 13 9 11
f 15 6 8
f 2 4 3
f 5 1 3
f 31 32 33
f 34 35 33
f 36 37 38
f 39 40 41
f 37 36 42
f 40 37 32
f 32 31 41
f 33 35 31
f 43 44 45
f 46 36 38
f 47 46 38
f 36 46 48
f 49 39 41
f 46 47 44
f 47 49 50
f 51 50 41
f 52 45 51
f 44 50 45
f 50 44 47
f 44 48 46
f 41 50 49
f 48 53 36
f 49 47 38
f 39 49 38
f 52 43 45
f 50 51 45
f 32 42 33
f 42 32 37
f 53 42 36
f 32 41 40
f 37 40 38
f 40 39 38
f 42 34 33
f 54 55 56
f 56 57 54
f 57 58 54
f 59 60 61
f 58 62 55
f 63 59 64
f 62 65 61
f 66 63 67
f 65 68 64
f 69 66 70
f 68 71 67
f 72 69 73
f 71 74 70
f 75 72 76
f 74 77 73
f 78 79 80
f 79 78 57
f 57 56 79
f 81 82 83
f 84 83 85
f 86 83 82
f 83 86 87
f 88 86 89
f 86 88 90
f 91 88 92
f 88 91 93
f 94 91 95
f 91 94 96
f 97 94 98
f 94 97 99
f 100 97 101
f 97 100 102
f 103 102 100
f 104 81 105
f 106 104 107
f 81 106 105
f 107 105 106
f 105 107 104
f 102 99 97
f 101 103 100
f 99 96 94
f 98 101 97
f 96 93 91
f 95 98 94
f 93 90 88
f 92 95 91
f 90 87 86
f 89 92 88
f 87 85 83
f 82 89 86
f 85 106 84
f 106 81 84
f 83 84 81
f 80 57 78
f 56 80 79
f 77 75 76
f 76 73 77
f 73 76 72
f 73 70 74
f 70 73 69
f 70 67 71
f 67 70 66
f 67 64 68
f 64 67 63
f 64 61 65
f 61 64 59
f 61 55 62
f 55 61 60
f 55 54 58
f 60 56 55
f 108 109 5
f 109 110 1
f 110 111 2
f 111 108 4
f 108 112 6
f 109 108 15
f 110 113 9
f 113 114 10
f 114 111 12
f 112 115 7
f 115 109 14
f 111 110 13
f 116 108 117
f 114 113 117
f 114 117 111
f 116 118 112
f 118 119 115
f 111 117 108
f 118 116 120
f 120 121 118
f 122 123 124
f 123 125 126
f 117 121 124
f 125 120 127
f 128 126 129
f 124 128 130
f 126 127 131
f 117 124 132
f 127 116 133
f 116 117 134
f 129 131 135
f 130 129 136
f 131 133 137
f 132 130 138
f 133 134 139
f 134 132 140
f 123 122 121
f 121 120 123
f 141 142 19
f 143 141 17
f 144 143 16
f 142 144 20
f 145 142 22
f 142 141 29
f 146 143 25
f 147 146 24
f 144 147 28
f 148 145 21
f 141 148 30
f 143 144 27
f 142 149 150
f 146 147 150
f 150 147 144
f 151 149 145
f 152 151 148
f 150 144 142
f 149 151 153
f 154 153 151
f 155 156 157
f 158 155 159
f 154 150 157
f 153 158 160
f 159 161 162
f 161 157 163
f 160 159 164
f 157 150 165
f 149 160 166
f 150 149 167
f 164 162 168
f 162 163 169
f 166 164 170
f 163 165 171
f 167 166 172
f 165 167 173
f 156 155 154
f 153 154 155
f 155 158 153
f 173 171 165
f 172 173 167
f 171 169 163
f 170 172 166
f 169 168 162
f 168 170 164
f 167 165 150
f 166 167 149
f 165 163 157
f 164 166 160
f 163 162 161
f 162 164 159
f 160 149 153
f 157 156 154
f 159 160 158
f 157 161 155
f 161 159 155
f 151 152 154
f 150 154 152
f 149 142 145
f 148 141 152
f 145 148 151
f 150 152 146
f 143 146 152
f 152 141 143
f 27 25 143
f 30 29 141
f 21 30 148
f 28 27 144
f 24 28 147
f 25 24 146
f 29 22 142
f 22 21 145
f 20 19 142
f 16 20 144
f 17 16 143
f 19 17 141
f 125 123 120
f 138 140 132
f 140 139 134
f 136 138 130
f 139 137 133
f 135 136 129
f 137 135 131
f 132 134 117
f 134 133 116
f 130 132 124
f 133 131 127
f 129 130 128
f 131 129 126
f 116 127 120
f 122 124 121
f 127 126 125
f 128 124 123
f 126 128 123
f 119 118 121
f 121 117 119
f 108 116 112
f 109 115 119
f 115 112 118
f 119 117 113
f 113 110 119
f 109 119 110
f 9 13 110
f 15 14 109
f 14 7 115
f 13 12 111
f 12 10 114
f 10 9 113
f 6 15 108
f 7 6 112
f 5 4 108
f 4 2 111
f 2 1 110
f 1 5 109
f 174 175 176
f 175 177 178
f 177 174 179
f 179 176 180
f 176 178 181
f 178 179 182
f 183 184 185
f 35 186 31
f 187 188 189
f 189 190 191
f 192 193 137
f 193 194 135
f 195 192 139
f 194 196 136
f 197 195 140
f 196 197 138
f 192 190 188
f 193 188 194
f 195 198 190
f 187 199 194
f 200 198 197
f 199 200 196
f 201 191 198
f 202 203 187
f 198 200 201
f 204 200 205
f 189 191 206
f 202 189 207
f 191 201 208
f 203 202 209
f 205 203 210
f 201 204 211
f 204 205 212
f 207 206 213
f 180 208 182
f 209 207 214
f 182 211 215
f 210 209 216
f 206 208 180
f 42 53 217
f 217 34 42
f 217 218 219
f 35 34 219
f 186 35 220
f 219 221 222
f 35 219 223
f 220 223 224
f 222 225 226
f 223 222 227
f 224 227 228
f 226 229 230
f 227 226 231
f 228 231 232
f 230 183 233
f 231 230 234
f 232 234 235
f 235 236 237
f 237 238 239
f 216 214 240
f 240 241 242
f 243 244 239
f 186 52 51
f 245 246 247
f 248 247 249
f 250 251 170
f 252 250 168
f 251 253 172
f 254 252 169
f 253 255 173
f 255 254 171
f 248 251 245
f 245 250 252
f 256 253 248
f 257 246 252
f 256 258 255
f 258 257 254
f 249 259 256
f 260 261 246
f 258 256 259
f 258 262 263
f 249 247 264
f 247 261 265
f 259 249 266
f 261 260 267
f 260 263 268
f 262 259 269
f 263 262 270
f 264 265 213
f 266 180 181
f 265 267 214
f 269 181 271
f 267 268 272
f 266 264 180
f 273 218 53
f 48 44 274
f 43 274 44
f 275 221 218
f 273 274 276
f 43 52 276
f 221 275 277
f 52 186 220
f 275 276 278
f 276 52 279
f 225 277 280
f 279 220 224
f 277 278 281
f 278 279 282
f 229 280 184
f 282 224 228
f 280 281 283
f 281 282 284
f 284 228 232
f 184 283 285
f 283 284 286
f 286 232 235
f 287 235 237
f 288 237 239
f 174 177 175
f 289 241 214
f 290 244 241
f 244 290 291
f 244 291 239
f 241 289 290
f 214 272 289
f 239 291 288
f 237 288 287
f 235 287 286
f 286 285 283
f 285 185 184
f 232 286 284
f 284 283 281
f 283 184 280
f 228 284 282
f 184 183 229
f 282 281 278
f 281 280 277
f 224 282 279
f 280 229 225
f 279 278 276
f 278 277 275
f 220 279 52
f 277 225 221
f 276 274 43
f 276 275 273
f 51 292 186
f 218 273 275
f 274 273 48
f 41 292 51
f 53 48 273
f 272 214 267
f 271 270 269
f 214 213 265
f 181 269 266
f 213 180 264
f 270 268 263
f 269 270 262
f 268 267 260
f 267 265 261
f 266 269 259
f 265 264 247
f 264 266 249
f 263 257 258
f 259 262 258
f 263 260 257
f 246 257 260
f 247 246 261
f 254 255 258
f 255 253 256
f 252 254 257
f 253 251 248
f 252 246 245
f 251 250 245
f 171 173 255
f 173 172 253
f 169 171 254
f 172 170 251
f 168 169 252
f 170 168 250
f 248 249 256
f 245 247 248
f 242 244 243
f 244 242 241
f 241 240 214
f 243 239 238
f 238 237 236
f 236 235 234
f 233 234 230
f 293 233 183
f 234 232 231
f 230 231 226
f 183 230 229
f 231 228 227
f 226 227 222
f 229 226 225
f 227 224 223
f 222 223 219
f 225 222 221
f 223 220 35
f 217 219 34
f 221 219 218
f 292 31 186
f 218 217 53
f 292 41 31
f 214 216 209
f 212 215 211
f 213 214 207
f 211 182 208
f 180 213 206
f 210 212 205
f 212 211 204
f 209 210 203
f 207 209 202
f 211 208 201
f 206 207 189
f 208 206 191
f 199 205 200
f 204 201 200
f 203 205 199
f 199 187 203
f 187 189 202
f 197 196 200
f 195 197 198
f 196 194 199
f 192 195 190
f 187 194 188
f 193 192 188
f 140 138 197
f 139 140 195
f 138 136 196
f 137 139 192
f 136 135 194
f 135 137 193
f 191 190 198
f 189 188 190
f 185 293 183
f 182 181 178
f 181 180 176
f 180 182 179
f 179 178 177
f 178 176 175
f 176 179 174
f 294 295 296
f 297 294 298
f 295 297 299
f 300 301 302
f 303 300 298
f 304 303 296
f 301 304 305
f 80 296 299
f 306 80 56
f 56 60 306
f 58 57 307
f 60 59 308
f 309 62 307
f 59 63 310
f 65 62 311
f 63 66 312
f 68 65 313
f 66 69 314
f 71 68 315
f 69 72 316
f 74 71 317
f 72 75 318
f 77 74 319
f 75 77 243
f 306 305 80
f 212 210 215
f 302 305 320
f 298 302 321
f 299 298 307
f 305 306 322
f 320 322 323
f 321 320 324
f 307 321 309
f 322 308 325
f 323 325 326
f 324 323 327
f 309 324 311
f 325 310 328
f 326 328 329
f 327 326 330
f 311 327 313
f 328 312 331
f 329 331 332
f 330 329 333
f 313 330 315
f 331 314 334
f 332 334 335
f 333 332 336
f 315 333 317
f 334 316 337
f 335 337 236
f 336 335 338
f 317 336 339
f 337 318 238
f 339 319 317
f 340 338 293
f 338 236 233
f 341 339 340
f 304 301 303
f 342 319 341
f 215 216 343
f 344 215 345
f 343 240 346
f 345 343 347
f 319 242 243
f 342 346 319
f 348 349 350
f 349 351 352
f 351 348 353
f 354 355 356
f 355 357 352
f 357 358 350
f 358 354 359
f 350 104 353
f 104 360 81
f 82 81 360
f 106 85 361
f 89 82 362
f 87 363 361
f 92 89 364
f 87 90 365
f 95 92 366
f 90 93 367
f 98 95 368
f 93 96 369
f 101 98 370
f 96 99 371
f 103 101 372
f 99 102 373
f 102 103 291
f 359 360 104
f 268 270 271
f 359 356 374
f 356 352 375
f 352 353 361
f 360 359 376
f 376 374 377
f 374 375 378
f 375 361 363
f 362 376 379
f 379 377 380
f 377 378 381
f 378 363 365
f 364 379 382
f 382 380 383
f 380 381 384
f 381 365 367
f 366 382 385
f 385 383 386
f 383 384 387
f 384 367 369
f 368 385 388
f 388 386 389
f 386 387 390
f 387 369 371
f 370 388 391
f 391 389 287
f 389 390 392
f 390 371 393
f 372 391 288
f 373 393 371
f 394 340 293
f 392 394 185
f 287 392 285
f 395 341 340
f 393 395 394
f 354 358 357
f 396 342 341
f 373 396 395
f 397 181 182
f 397 344 345
f 272 271 398
f 271 397 399
f 289 398 400
f 399 345 347
f 398 399 401
f 290 373 291
f 401 342 396
f 400 396 373
f 400 401 396
f 401 347 342
f 290 400 373
f 401 400 398
f 347 401 399
f 400 290 289
f 399 398 271
f 398 289 272
f 345 399 397
f 397 271 181
f 182 344 397
f 395 393 373
f 341 395 396
f 357 355 354
f 394 392 393
f 340 394 395
f 285 286 287
f 185 285 392
f 293 185 394
f 288 291 372
f 393 392 390
f 392 287 389
f 287 288 391
f 391 372 370
f 371 390 387
f 390 389 386
f 389 391 388
f 388 370 368
f 369 387 384
f 387 386 383
f 386 388 385
f 385 368 366
f 367 384 381
f 384 383 380
f 383 385 382
f 382 366 364
f 365 381 378
f 381 380 377
f 380 382 379
f 379 364 362
f 363 378 375
f 378 377 374
f 377 379 376
f 376 362 360
f 361 375 352
f 375 374 356
f 374 376 359
f 271 272 268
f 350 359 104
f 291 373 102
f 373 371 99
f 372 291 103
f 371 369 96
f 370 372 101
f 369 367 93
f 368 370 98
f 367 365 90
f 366 368 95
f 365 363 87
f 364 366 92
f 361 85 87
f 362 364 89
f 361 353 106
f 360 362 82
f 104 106 353
f 351 349 348
f 359 350 358
f 350 352 357
f 352 356 355
f 356 359 354
f 353 352 351
f 352 350 349
f 350 353 348
f 347 346 342
f 346 242 319
f 346 347 343
f 242 346 240
f 343 345 215
f 240 343 216
f 215 344 182
f 339 341 319
f 300 303 301
f 338 340 339
f 234 233 236
f 233 293 338
f 243 238 318
f 338 339 336
f 236 338 335
f 238 236 337
f 318 337 316
f 336 317 333
f 335 336 332
f 337 335 334
f 316 334 314
f 333 315 330
f 332 333 329
f 334 332 331
f 314 331 312
f 330 313 327
f 329 330 326
f 331 329 328
f 312 328 310
f 327 311 324
f 326 327 323
f 328 326 325
f 310 325 308
f 324 309 321
f 323 324 320
f 325 323 322
f 308 322 306
f 321 307 298
f 320 321 302
f 322 320 305
f 216 215 210
f 305 296 80
f 319 243 77
f 317 319 74
f 243 318 75
f 315 317 71
f 318 316 72
f 313 315 68
f 316 314 69
f 311 313 65
f 314 312 66
f 309 311 62
f 312 310 63
f 58 307 62
f 310 308 59
f 299 307 57
f 308 306 60
f 57 80 299
f 294 297 295
f 296 305 304
f 298 296 303
f 302 298 300
f 305 302 301
f 298 299 297
f 296 298 294
f 299 296 295

