# https://github.com/mikedh/trimesh

o m42.off
v 0.50885700 0.17015600 0.46043900
v 0.70793500 0.20326600 0.38635600
v 0.80828400 0.19582700 0.34475400
v 0.54389900 0.16275200 0.37371000
v 0.55863100 0.19600500 0.25437400
v 0.55170700 0.18978100 0.19227900
v 0.55196600 0.17967900 0.14525400
v 0.55489000 0.09071230 0.20755100
v 0.54463100 0.08756010 0.21069900
v 0.52170400 0.18475000 0.46495300
v 0.66942200 0.21010900 0.37380100
v 0.50816600 0.18622700 0.18411500
v 0.54588700 0.14993000 0.21691100
v 0.51255300 0.19473900 0.12324400
v 0.54529000 0.12945400 0.21298300
v 0.57455700 0.18538600 0.33704200
v 0.51117100 0.20649800 0.44632700
v 0.54745700 0.19719600 0.37551000
v 0.57483500 0.20244700 0.37343500
v 0.73071200 0.20421900 0.37283600
v 0.54787200 0.12508600 0.29802600
v 0.56395300 0.14317300 0.24446700
v 0.49840400 0.18523600 0.46149700
v 0.31552800 0.20326700 0.39182200
v 0.25813200 0.19580600 0.36832100
v 0.45403000 0.19233600 0.26932300
v 0.46254000 0.19600500 0.25437400
v 0.30367100 0.20456400 0.27027900
v 0.46699900 0.17937600 0.11398500
v 0.46447800 0.09254900 0.20256300
v 0.48010300 0.14998000 0.22373200
v 0.48550800 0.12632900 0.29970800
v 0.47429500 0.08885770 0.19896800
v 0.48657900 0.20736800 0.41023600
v 0.48459100 0.20957900 0.37830200
v 0.47918100 0.16881200 0.34806500
v 0.87665200 0.19788900 0.20969100
v 0.79106900 0.19855300 0.25979200
v 0.02500000 0.20224200 0.22536100
v 0.07620690 0.19750900 0.28086500
v 0.54653000 0.17937600 0.02500000
v 0.51058500 0.13581300 0.24084300
v 0.72821800 0.20200900 0.26287800
v 0.51452500 0.18764800 0.09044610
v 0.47867000 0.18561800 0.02906590
v 0.55233600 0.08519730 0.21772400
v 0.97500000 0.20367000 0.19122500
v 0.50350900 0.17668600 0.44228900
v 0.46038500 0.08589320 0.21384300
v 0.47421500 0.20431200 0.26085900
v 0.50792000 0.17783000 0.49704300
v 0.49577800 0.18898700 0.12545100
v 0.58883200 0.20237000 0.25970300
v 0.66740000 0.20179300 0.26177000
v 0.43767100 0.20785100 0.38141300
v 0.40796300 0.20441000 0.26594300
v 0.36767700 0.20489400 0.37714700
v 0.89508200 0.19991100 0.26482000
v 0.26901700 0.20426800 0.26473400
v 0.55062500 0.17960400 0.11559100
v 0.43778500 0.17702100 0.34902000
v 0.35479900 0.19541700 0.35093200
v 0.54770900 0.05478850 0.16765600
v 0.54898900 0.05378990 0.16680600
v 0.54893600 0.05548220 0.16476800
v 0.55019300 0.05345370 0.17116400
v 0.54744100 0.05346820 0.17114700
v 0.55020400 0.05195130 0.16893300
v 0.54757100 0.05038270 0.16851100
v 0.54834400 0.04504310 0.17285700
v 0.54598600 0.05013170 0.17167300
v 0.55207700 0.04145150 0.16989700
v 0.55039400 0.04072360 0.16815700
v 0.54720000 0.04075860 0.16812600
v 0.54630200 0.04179520 0.17171100
v 0.54745400 0.05309400 0.17659200
v 0.55064500 0.05776340 0.17894800
v 0.54850600 0.06417310 0.17966800
v 0.54850900 0.06181330 0.18427700
v 0.55026900 0.06909650 0.18299000
v 0.54272900 0.03036900 0.17534800
v 0.54763800 0.03909620 0.17206000
v 0.55562700 0.03265590 0.17508100
v 0.55641000 0.02958570 0.17549400
v 0.55231400 0.03854290 0.16968200
v 0.55017300 0.03914230 0.17203400
v 0.55151600 0.03916800 0.17252300
v 0.54806400 0.02500000 0.17783700
v 0.46624500 0.05478850 0.16765700
v 0.46752600 0.05378990 0.16680600
v 0.46747300 0.05548220 0.16476800
v 0.46872900 0.05345370 0.17116400
v 0.46597800 0.05346820 0.17114700
v 0.46874100 0.05195130 0.16893300
v 0.46610700 0.05038270 0.16851100
v 0.46688000 0.04504310 0.17285700
v 0.46452200 0.05013170 0.17167300
v 0.47061300 0.04145150 0.16989700
v 0.46893000 0.04072360 0.16815800
v 0.46573600 0.04075860 0.16812600
v 0.46483800 0.04179520 0.17171100
v 0.46599000 0.05309400 0.17659200
v 0.46918100 0.05776340 0.17894800
v 0.46704200 0.06417310 0.17966800
v 0.46704500 0.06181330 0.18427700
v 0.46880500 0.06909650 0.18299000
v 0.46126500 0.03036900 0.17534800
v 0.46617400 0.03909620 0.17206000
v 0.47416300 0.03265590 0.17508100
v 0.47494600 0.02958570 0.17549400
v 0.47085000 0.03854290 0.16968200
v 0.46871000 0.03914230 0.17203400
v 0.47005200 0.03916800 0.17252300
v 0.46660000 0.02500000 0.17783700
v 0.54953000 0.11026700 0.26819300
v 0.47909500 0.11600700 0.27778900
f 46 9 8
f 23 10 17
f 4 18 10
f 1 4 10
f 18 17 10
f 18 50 17
f 19 50 18
f 2 20 11
f 19 18 4
f 11 19 4
f 44 41 12
f 7 6 12
f 41 60 12
f 12 13 42
f 60 41 44
f 14 7 44
f 7 14 6
f 21 4 36
f 42 46 115
f 9 46 42
f 8 9 42
f 42 15 8
f 43 11 20
f 4 16 11
f 53 16 5
f 11 16 53
f 5 16 6
f 6 14 5
f 19 11 43
f 50 19 53
f 19 54 53
f 53 5 50
f 14 50 5
f 13 12 6
f 42 13 15
f 22 15 13
f 22 115 46
f 46 8 22
f 15 22 8
f 22 16 21
f 16 4 21
f 36 4 1
f 29 12 27
f 12 29 45
f 30 33 49
f 17 34 23
f 50 35 17
f 17 35 34
f 35 36 34
f 57 28 24
f 28 25 24
f 57 24 25
f 1 34 36
f 45 44 12
f 42 31 12
f 14 44 29
f 45 29 44
f 14 29 27
f 21 32 42
f 36 32 21
f 32 116 42
f 49 33 42
f 31 42 33
f 26 36 61
f 26 28 27
f 35 56 28
f 27 28 56
f 50 14 27
f 27 12 31
f 31 49 26
f 27 31 26
f 30 49 31
f 31 33 30
f 36 26 32
f 116 32 26
f 51 10 23
f 10 51 1
f 23 1 51
f 25 40 39
f 25 28 40
f 1 23 34
f 1 10 18
f 23 48 1
f 1 23 18
f 14 44 52
f 14 52 44
f 40 39 59
f 10 18 1
f 48 1 23
f 1 18 23
f 35 61 36
f 26 25 28
f 3 38 20
f 13 6 22
f 1 18 23
f 14 52 44
f 14 44 52
f 40 59 39
f 10 1 18
f 48 23 1
f 1 23 18
f 3 20 38
f 1 18 10
f 1 48 23
f 2 11 53
f 53 54 20
f 16 22 6
f 3 58 37
f 3 37 38
f 20 43 38
f 3 37 58
f 3 38 37
f 20 38 43
f 19 43 54
f 54 43 20
f 35 55 25
f 35 28 55
f 35 50 56
f 27 56 50
f 55 57 25
f 55 28 57
f 58 47 37
f 40 59 28
f 7 60 44
f 60 7 12
f 2 53 20
f 39 40 25
f 1 18 10
f 23 1 48
f 1 18 23
f 14 52 44
f 14 44 52
f 10 1 18
f 48 23 1
f 1 23 18
f 1 23 18
f 14 44 52
f 14 52 44
f 10 18 1
f 48 1 23
f 1 18 23
f 1 10 18
f 1 23 48
f 58 37 47
f 40 28 59
f 20 3 2
f 40 28 25
f 35 25 62
f 26 62 25
f 26 61 62
f 35 62 61
f 63 65 64
f 64 65 68
f 68 65 66
f 66 65 63
f 68 72 73
f 69 75 70
f 66 63 67
f 67 63 69
f 64 69 63
f 71 70 76
f 72 68 66
f 67 69 71
f 70 71 69
f 68 74 69
f 68 73 74
f 74 75 69
f 64 68 69
f 72 66 78
f 76 67 71
f 70 77 76
f 67 78 66
f 67 76 78
f 76 79 78
f 77 80 79
f 79 9 78
f 79 46 9
f 78 8 80
f 80 8 46
f 77 70 72
f 78 77 72
f 77 79 76
f 78 80 77
f 9 8 78
f 8 9 78
f 9 8 78
f 80 46 79
f 81 82 75
f 86 84 83
f 85 84 86
f 86 73 85
f 88 73 86
f 88 82 74
f 70 82 86
f 82 70 75
f 86 87 70
f 81 75 74
f 87 85 72
f 74 82 81
f 83 84 85
f 85 87 83
f 87 86 83
f 74 73 88
f 86 82 88
f 87 72 70
f 85 73 72
f 9 46 8
f 89 91 90
f 90 91 94
f 94 91 92
f 92 91 89
f 94 98 99
f 95 101 96
f 92 89 93
f 93 89 95
f 90 95 89
f 97 96 102
f 98 94 92
f 93 95 97
f 96 97 95
f 94 100 95
f 94 99 100
f 100 101 95
f 90 94 95
f 98 92 104
f 102 93 97
f 96 103 102
f 93 104 92
f 93 102 104
f 102 105 104
f 103 106 105
f 105 30 104
f 105 49 30
f 106 30 33
f 104 30 106
f 106 33 49
f 103 96 98
f 104 103 98
f 103 105 102
f 104 106 103
f 106 49 105
f 107 108 101
f 112 110 109
f 111 110 112
f 112 99 111
f 114 99 112
f 114 108 100
f 96 108 112
f 108 96 101
f 112 113 96
f 107 101 100
f 113 111 98
f 100 108 107
f 109 110 111
f 111 113 109
f 113 112 109
f 100 99 114
f 112 108 114
f 113 98 96
f 111 99 98
f 30 49 33
f 22 21 115
f 42 115 21
f 49 116 26
f 116 49 42

