# https://github.com/mikedh/trimesh

o m0.off
v 0.27059800 0.25443900 0.47131100
v 0.27059800 0.25443900 0.51881400
v 0.27059800 0.28226800 0.51881400
v 0.27059800 0.28226800 0.47131100
v 0.39695100 0.25443900 0.47131100
v 0.39695100 0.28226800 0.47131100
v 0.39695100 0.28226800 0.51881400
v 0.39695100 0.25443900 0.51881400
v 0.25522500 0.28967400 0.43731000
v 0.41232400 0.28967400 0.43731000
v 0.41232400 0.28967400 0.38980600
v 0.25522500 0.28967400 0.38980600
v 0.41232400 0.26184500 0.38980600
v 0.25522500 0.26184500 0.38980600
v 0.25522500 0.26184500 0.43731000
v 0.41232400 0.26184500 0.43731000
v 0.26566100 0.23592400 0.32681700
v 0.26566100 0.23592400 0.37432100
v 0.26566100 0.26375300 0.37432100
v 0.26566100 0.26375300 0.32681700
v 0.40188800 0.23592400 0.32681700
v 0.40188800 0.26375300 0.32681700
v 0.40188800 0.26375300 0.37432100
v 0.40188800 0.23592400 0.37432100
v 0.39343500 0.20562600 0.24033800
v 0.36938300 0.23981400 0.26906400
v 0.29816500 0.23981400 0.26906400
v 0.27411400 0.20562600 0.24033800
v 0.26326700 0.15621500 0.14334800
v 0.32274000 0.13654000 0.03685720
v 0.34480900 0.13654000 0.03685720
v 0.40428200 0.15621500 0.14334800
v 0.27411400 0.31952300 0.20472900
v 0.39343500 0.31952300 0.20472900
v 0.40360900 0.28739300 0.09453500
v 0.26394000 0.28739300 0.09453500
v 0.32274000 0.15752400 0.03031140
v 0.34480900 0.15752400 0.03031140
v 0.36938300 0.30785300 0.24778100
v 0.29816500 0.30785300 0.24778100
v 0.27145800 0.33938500 0.63263600
v 0.29693100 0.32550800 0.61894600
v 0.29094600 0.27770500 0.60469500
v 0.26147100 0.25862900 0.60858500
v 0.26034900 0.31305200 0.71197100
v 0.24856700 0.22878000 0.66615100
v 0.27819100 0.23117400 0.73561100
v 0.28836500 0.25653400 0.77417500
v 0.37660300 0.27770500 0.60469500
v 0.37061800 0.32550800 0.61894600
v 0.37918300 0.25653400 0.77417500
v 0.40719900 0.31305200 0.71197100
v 0.38935700 0.23117400 0.73561100
v 0.41898200 0.22878000 0.66615100
v 0.40607700 0.25862900 0.60858500
v 0.39609000 0.33938500 0.63263600
v 0.15554200 0.16238700 0.60136600
v 0.07280300 0.03850300 0.64744900
v 0.07762820 0.03659540 0.65638800
v 0.16040400 0.16047900 0.61030600
v 0.08533350 0.03240610 0.65126400
v 0.16807200 0.15629000 0.60518200
v 0.08050830 0.03442590 0.64232400
v 0.18108900 0.30108300 0.63016800
v 0.27183200 0.28189400 0.51567300
v 0.25245700 0.28189400 0.50303000
v 0.16171400 0.30108300 0.61752500
v 0.25245700 0.25870300 0.50303000
v 0.16171400 0.27800400 0.61752500
v 0.18108900 0.27800400 0.63016800
v 0.15677600 0.29319000 0.63824700
v 0.14727500 0.15183900 0.61210100
v 0.16885800 0.14746200 0.61494400
v 0.17824600 0.28885100 0.64109000
v 0.17244900 0.15127800 0.59347400
v 0.18187500 0.29262900 0.61962000
v 0.15090400 0.15565400 0.59063100
v 0.16040400 0.29700600 0.61677700
v 0.27183200 0.25870300 0.51567300
v 0.16324700 0.15831000 0.59624200
v 0.58221500 0.03240610 0.65126400
v 0.58704000 0.03442590 0.64232400
v 0.59474600 0.03850300 0.64744900
v 0.58992000 0.03659540 0.65638800
v 0.49947600 0.15629000 0.60518200
v 0.50714400 0.16047900 0.61030600
v 0.51200700 0.16238700 0.60136600
v 0.50583500 0.30108300 0.61752500
v 0.48646000 0.30108300 0.63016800
v 0.48646000 0.27800400 0.63016800
v 0.50583500 0.27800400 0.61752500
v 0.41509200 0.28189400 0.50303000
v 0.41509200 0.25870300 0.50303000
v 0.39571600 0.28189400 0.51567300
v 0.49510000 0.15127800 0.59347400
v 0.51664500 0.15565400 0.59063100
v 0.52027300 0.15183900 0.61210100
v 0.49869100 0.14746200 0.61494400
v 0.48567400 0.29262900 0.61962000
v 0.48930200 0.28885100 0.64109000
v 0.51077300 0.29319000 0.63824700
v 0.50714400 0.29700600 0.61677700
v 0.39571600 0.25870300 0.51567300
v 0.50430200 0.15831000 0.59624200
v 0.08780220 0.31020900 0.35131700
v 0.04620840 0.19096400 0.33392400
v 0.06775340 0.18651300 0.33676700
v 0.10927200 0.30583300 0.35416000
v 0.07138160 0.19032800 0.31529600
v 0.11290100 0.30964800 0.33261500
v 0.04979920 0.19470400 0.31245400
v 0.10556900 0.32599400 0.35434700
v 0.23790700 0.29898800 0.40491800
v 0.24493900 0.29898800 0.38277400
v 0.11260100 0.32599400 0.33224100
v 0.24493900 0.27583500 0.38277400
v 0.11260100 0.30280300 0.33224100
v 0.10556900 0.30280300 0.35434700
v 0.04979920 0.19563900 0.32479700
v 0.02500000 0.02653360 0.33964700
v 0.03177020 0.02537400 0.34731500
v 0.05656940 0.19448000 0.33261500
v 0.03936330 0.02500000 0.34069400
v 0.06416250 0.19410600 0.32584500
v 0.03263050 0.02615950 0.33298900
v 0.05739230 0.19526500 0.31817700
v 0.23790700 0.27583500 0.40491800
v 0.09143040 0.31402500 0.32973500
v 0.59616700 0.19032800 0.31529600
v 0.61774900 0.19470400 0.31245400
v 0.62134000 0.19096400 0.33392400
v 0.59979500 0.18651300 0.33676700
v 0.55464800 0.30964800 0.33261500
v 0.55827600 0.30583300 0.35416000
v 0.57974600 0.31020900 0.35131700
v 0.55494700 0.32599400 0.33224100
v 0.56197900 0.32599400 0.35434700
v 0.56197900 0.30280300 0.35434700
v 0.55494700 0.30280300 0.33224100
v 0.42261000 0.29898800 0.38277400
v 0.42261000 0.27583500 0.38277400
v 0.42964200 0.29898800 0.40491800
v 0.62818500 0.02500000 0.34069400
v 0.63491800 0.02615950 0.33298900
v 0.64254900 0.02653360 0.33964700
v 0.63577800 0.02537400 0.34731500
v 0.60338600 0.19410600 0.32584500
v 0.61097900 0.19448000 0.33261500
v 0.61774900 0.19563900 0.32479700
v 0.61015600 0.19526500 0.31817700
v 0.42964200 0.27583500 0.40491800
v 0.57611800 0.31402500 0.32973500
v 0.09891130 0.31649300 0.18486700
v 0.09161750 0.16867100 0.14203900
v 0.11316200 0.16429400 0.14488100
v 0.12049400 0.31211700 0.18771000
v 0.11679100 0.16807200 0.12329900
v 0.12408500 0.31589500 0.16616500
v 0.09520830 0.17244900 0.12045600
v 0.10025800 0.32872500 0.18875700
v 0.24321800 0.27811600 0.34353700
v 0.25806800 0.27811600 0.32577000
v 0.11507000 0.32872500 0.17091500
v 0.25806800 0.25492600 0.32577000
v 0.11507000 0.30557100 0.17091500
v 0.10025800 0.30557100 0.18875700
v 0.09722810 0.17940600 0.13957000
v 0.10291400 0.05454960 0.02971300
v 0.10964600 0.04800380 0.03408930
v 0.10396100 0.17282300 0.14383400
v 0.11727700 0.05275420 0.02933890
v 0.11155400 0.17757300 0.13908400
v 0.11050700 0.05922510 0.02500000
v 0.10482100 0.18404400 0.13482000
v 0.24321800 0.25492600 0.34353700
v 0.10254000 0.32027100 0.16332200
v 0.55075800 0.16807200 0.12329900
v 0.57234000 0.17244900 0.12045600
v 0.57593100 0.16867100 0.14203900
v 0.55438600 0.16429400 0.14488100
v 0.54346400 0.31589500 0.16616500
v 0.54705500 0.31211700 0.18771000
v 0.56863700 0.31649300 0.18486700
v 0.55247900 0.32872500 0.17091500
v 0.56729100 0.32872500 0.18875700
v 0.56729100 0.30557100 0.18875700
v 0.55247900 0.30557100 0.17091500
v 0.40948100 0.27811600 0.32577000
v 0.40948100 0.25492600 0.32577000
v 0.42433100 0.27811600 0.34353700
v 0.55027200 0.05275420 0.02933890
v 0.55704200 0.05922510 0.02500000
v 0.56463500 0.05454960 0.02971300
v 0.55790200 0.04800380 0.03408930
v 0.55599500 0.17757300 0.13908400
v 0.56358800 0.17282300 0.14383400
v 0.57032000 0.17940600 0.13957000
v 0.56272700 0.18404400 0.13482000
v 0.42433100 0.25492600 0.34353700
v 0.56500900 0.32027100 0.16332200
v 0.30575800 0.27059800 0.33231600
v 0.32075800 0.25690800 0.24112300
v 0.34679100 0.25690800 0.24112300
v 0.36179000 0.27059800 0.33231600
v 0.28514800 0.26240600 0.34914800
v 0.38240000 0.26240600 0.34914800
v 0.31982200 0.31305200 0.59530700
v 0.32390000 0.31305200 0.63660100
v 0.34364900 0.31305200 0.63660100
v 0.34772600 0.31305200 0.59530700
v 0.36609200 0.34623000 0.61722600
v 0.34772600 0.29008600 0.57039500
v 0.36609200 0.27097200 0.53560900
v 0.39410800 0.37578000 0.54713000
v 0.39410800 0.30052200 0.46562500
v 0.39152700 0.38183900 0.46274500
v 0.27867700 0.28571000 0.40944400
v 0.27867700 0.34604300 0.38610300
v 0.28514800 0.32274000 0.32577000
v 0.32075800 0.27306700 0.23483900
v 0.34679100 0.27306700 0.23483900
v 0.38887100 0.34604300 0.38610300
v 0.38240000 0.32274000 0.32577000
v 0.38887100 0.28571000 0.40944400
v 0.27344100 0.30052200 0.46562500
v 0.30145700 0.27097200 0.53560900
v 0.31982200 0.29008600 0.57039500
v 0.34364900 0.29008600 0.61172700
v 0.27602200 0.38183900 0.46274500
v 0.36179000 0.30538400 0.31892500
v 0.30575800 0.30538400 0.31892500
v 0.32390000 0.29008600 0.61172700
v 0.30145700 0.34623000 0.61722600
v 0.27344100 0.37578000 0.54713000
v 0.21662300 0.54552100 0.92712200
v 0.20570100 0.54754100 0.96931500
v 0.21198500 0.54754100 0.97208200
v 0.23592400 0.54552100 0.93568800
v 0.24591100 0.52786600 0.86548000
v 0.26184500 0.52786600 0.87258600
v 0.30631900 0.48208300 0.73980000
v 0.31421200 0.48208300 0.74331600
v 0.30991000 0.47695900 0.72809300
v 0.32045800 0.47695900 0.73276800
v 0.31144400 0.46981500 0.72476400
v 0.32199200 0.46981500 0.72932700
v 0.31144400 0.45994000 0.72476400
v 0.32199200 0.45994000 0.72932700
v 0.31735400 0.26936400 0.73987500
v 0.32199200 0.26936400 0.72932700
v 0.31735400 0.45994000 0.73987500
v 0.30680600 0.26936400 0.73523700
v 0.30680600 0.45994000 0.73523700
v 0.45489000 0.52244300 0.93617400
v 0.46308200 0.54002300 0.97226900
v 0.45691000 0.54002300 0.97500000
v 0.43562700 0.52244300 0.94470200
v 0.42496700 0.50875300 0.87299800
v 0.40903200 0.50875300 0.88003000
v 0.36283800 0.47258200 0.74350300
v 0.35494500 0.47258200 0.74701900
v 0.36141600 0.46697200 0.73673300
v 0.35086800 0.46697200 0.74129700
v 0.36074300 0.46383000 0.73523700
v 0.35019500 0.46383000 0.73987500
v 0.36074300 0.45994000 0.73523700
v 0.35019500 0.45994000 0.73987500
v 0.46184700 0.54754100 0.96931500
v 0.45556300 0.54754100 0.97208200
v 0.34555700 0.45994000 0.72932700
v 0.35610500 0.45994000 0.72476400
v 0.35610500 0.26936400 0.72476400
v 0.34555700 0.26936400 0.72932700
v 0.36074300 0.26936400 0.73523700
v 0.34555700 0.46981500 0.72932700
v 0.34709000 0.47695900 0.73276800
v 0.35333700 0.48208300 0.74331600
v 0.40570300 0.52786600 0.87258600
v 0.43162500 0.54552100 0.93568800
v 0.31144400 0.26936400 0.72476400
v 0.30680600 0.46383000 0.73523700
v 0.30613200 0.46697200 0.73673300
v 0.30471100 0.47258200 0.74350300
v 0.24258200 0.50875300 0.87299800
v 0.21265800 0.52244300 0.93617400
v 0.20446700 0.54002300 0.97226900
v 0.21063900 0.54002300 0.97500000
v 0.23192200 0.52244300 0.94470200
v 0.25851600 0.50875300 0.88003000
v 0.31260300 0.47258200 0.74701900
v 0.31668000 0.46697200 0.74129700
v 0.31735400 0.46383000 0.73987500
v 0.45092500 0.54552100 0.92712200
v 0.42163800 0.52786600 0.86548000
v 0.36122900 0.48208300 0.73980000
v 0.35763800 0.47695900 0.72809300
v 0.35610500 0.46981500 0.72476400
v 0.35019500 0.26936400 0.73987500
f 1 2 3
f 5 1 4
f 3 7 6
f 8 5 6
f 2 8 7
f 1 5 8
f 9 10 11
f 13 14 12
f 14 15 9
f 14 13 16
f 15 16 10
f 16 13 11
f 17 18 19
f 21 17 20
f 19 23 22
f 24 21 22
f 18 24 23
f 17 21 24
f 25 26 27
f 29 30 31
f 33 34 35
f 31 30 37
f 29 28 33
f 36 37 30
f 34 39 26
f 28 27 40
f 32 31 38
f 29 32 25
f 27 26 39
f 25 32 35
f 35 38 37
f 33 40 39
f 41 42 43
f 45 41 44
f 46 47 48
f 49 43 42
f 48 51 52
f 53 54 51
f 46 44 55
f 56 50 42
f 44 43 49
f 52 56 41
f 54 52 51
f 47 53 51
f 54 53 47
f 54 55 56
f 55 49 50
f 57 58 59
f 60 59 61
f 59 58 63
f 64 65 66
f 68 69 67
f 69 70 64
f 71 72 73
f 74 73 75
f 73 72 77
f 76 75 77
f 72 71 78
f 71 74 76
f 69 68 79
f 70 79 65
f 79 68 66
f 62 61 63
f 58 57 80
f 57 60 62
f 81 82 83
f 85 81 84
f 86 84 83
f 88 89 90
f 92 88 91
f 88 92 94
f 95 96 97
f 99 95 98
f 100 98 97
f 102 99 100
f 96 102 101
f 102 96 95
f 94 92 93
f 89 94 103
f 90 103 93
f 104 85 86
f 82 104 87
f 104 82 81
f 105 106 107
f 108 107 109
f 107 106 111
f 112 113 114
f 116 117 115
f 117 118 112
f 119 120 121
f 122 121 123
f 121 120 125
f 124 123 125
f 120 119 126
f 119 122 124
f 117 116 127
f 118 127 113
f 127 116 114
f 110 109 111
f 106 105 128
f 105 108 110
f 129 130 131
f 133 129 132
f 134 132 131
f 136 137 138
f 140 136 139
f 136 140 142
f 143 144 145
f 147 143 146
f 148 146 145
f 150 147 148
f 144 150 149
f 150 144 143
f 142 140 141
f 137 142 151
f 138 151 141
f 152 133 134
f 130 152 135
f 152 130 129
f 153 154 155
f 156 155 157
f 155 154 159
f 160 161 162
f 164 165 163
f 165 166 160
f 167 168 169
f 170 169 171
f 169 168 173
f 172 171 173
f 168 167 174
f 167 170 172
f 165 164 175
f 166 175 161
f 175 164 162
f 158 157 159
f 154 153 176
f 153 156 158
f 177 178 179
f 181 177 180
f 182 180 179
f 184 185 186
f 188 184 187
f 184 188 190
f 191 192 193
f 195 191 194
f 196 194 193
f 198 195 196
f 192 198 197
f 198 192 191
f 190 188 189
f 185 190 199
f 186 199 189
f 200 181 182
f 178 200 183
f 200 178 177
f 201 202 203
f 205 201 204
f 207 208 209
f 211 210 212
f 214 211 213
f 216 214 215
f 205 217 218
f 203 202 220
f 218 222 223
f 224 215 225
f 215 213 226
f 213 212 227
f 210 209 228
f 229 218 217
f 206 204 230
f 204 203 221
f 231 220 202
f 219 231 201
f 215 224 222
f 227 232 208
f 233 207 210
f 234 233 211
f 229 234 214
f 224 206 223
f 228 209 208
f 205 206 224
f 225 234 229
f 225 226 233
f 226 227 207
f 212 228 232
f 216 222 218
f 223 230 231
f 230 221 220
f 235 236 237
f 239 235 238
f 241 239 240
f 243 241 242
f 245 243 244
f 247 245 246
f 249 250 248
f 252 249 251
f 254 255 256
f 258 254 257
f 260 258 259
f 262 260 261
f 264 262 263
f 266 264 265
f 268 269 256
f 270 271 272
f 271 266 274
f 267 265 275
f 265 263 276
f 263 261 277
f 261 259 278
f 259 257 279
f 257 256 269
f 280 250 249
f 253 281 245
f 281 282 243
f 282 283 241
f 283 284 239
f 284 285 235
f 285 286 236
f 238 237 287
f 240 238 288
f 242 240 289
f 244 242 290
f 246 244 291
f 248 246 292
f 280 252 253
f 250 280 247
f 293 268 255
f 294 293 254
f 295 294 258
f 296 295 260
f 297 296 262
f 271 297 264
f 274 298 273
f 266 267 298
f 267 270 273
f 270 275 297
f 275 276 296
f 276 277 295
f 277 278 294
f 278 279 293
f 279 269 268
f 286 287 237
f 251 292 281
f 292 291 282
f 291 290 283
f 290 289 284
f 289 288 285
f 288 287 286
f 1 3 4
f 5 4 6
f 3 6 4
f 8 6 7
f 2 7 3
f 1 8 2
f 9 11 12
f 13 12 11
f 14 9 12
f 14 16 15
f 15 10 9
f 16 11 10
f 17 19 20
f 21 20 22
f 19 22 20
f 24 22 23
f 18 23 19
f 17 24 18
f 25 27 28
f 29 31 32
f 33 35 36
f 31 37 38
f 29 33 36
f 36 30 29
f 34 26 25
f 28 40 33
f 32 38 35
f 29 25 28
f 27 39 40
f 25 35 34
f 35 37 36
f 33 39 34
f 41 43 44
f 45 44 46
f 46 48 45
f 49 42 50
f 48 52 45
f 46 55 54
f 56 42 41
f 44 49 55
f 52 41 45
f 47 51 48
f 54 47 46
f 54 56 52
f 55 50 56
f 57 59 60
f 60 61 62
f 59 63 61
f 64 66 67
f 68 67 66
f 69 64 67
f 71 73 74
f 74 75 76
f 73 77 75
f 76 77 78
f 72 78 77
f 71 76 78
f 69 79 70
f 70 65 64
f 79 66 65
f 62 63 80
f 58 80 63
f 57 62 80
f 81 83 84
f 85 84 86
f 86 83 87
f 88 90 91
f 92 91 93
f 88 94 89
f 95 97 98
f 99 98 100
f 100 97 101
f 102 100 101
f 96 101 97
f 102 95 99
f 94 93 103
f 89 103 90
f 90 93 91
f 104 86 87
f 82 87 83
f 104 81 85
f 105 107 108
f 108 109 110
f 107 111 109
f 112 114 115
f 116 115 114
f 117 112 115
f 119 121 122
f 122 123 124
f 121 125 123
f 124 125 126
f 120 126 125
f 119 124 126
f 117 127 118
f 118 113 112
f 127 114 113
f 110 111 128
f 106 128 111
f 105 110 128
f 129 131 132
f 133 132 134
f 134 131 135
f 136 138 139
f 140 139 141
f 136 142 137
f 143 145 146
f 147 146 148
f 148 145 149
f 150 148 149
f 144 149 145
f 150 143 147
f 142 141 151
f 137 151 138
f 138 141 139
f 152 134 135
f 130 135 131
f 152 129 133
f 153 155 156
f 156 157 158
f 155 159 157
f 160 162 163
f 164 163 162
f 165 160 163
f 167 169 170
f 170 171 172
f 169 173 171
f 172 173 174
f 168 174 173
f 167 172 174
f 165 175 166
f 166 161 160
f 175 162 161
f 158 159 176
f 154 176 159
f 153 158 176
f 177 179 180
f 181 180 182
f 182 179 183
f 184 186 187
f 188 187 189
f 184 190 185
f 191 193 194
f 195 194 196
f 196 193 197
f 198 196 197
f 192 197 193
f 198 191 195
f 190 189 199
f 185 199 186
f 186 189 187
f 200 182 183
f 178 183 179
f 200 177 181
f 201 203 204
f 205 204 206
f 207 209 210
f 211 212 213
f 214 213 215
f 205 218 219
f 203 220 221
f 218 223 219
f 224 225 217
f 215 226 225
f 213 227 226
f 210 228 212
f 229 217 225
f 206 230 223
f 204 221 230
f 231 202 201
f 219 201 205
f 215 222 216
f 227 208 207
f 233 210 211
f 234 211 214
f 229 214 216
f 224 223 222
f 228 208 232
f 205 224 217
f 225 233 234
f 226 207 233
f 212 232 227
f 216 218 229
f 223 231 219
f 230 220 231
f 235 237 238
f 239 238 240
f 241 240 242
f 243 242 244
f 245 244 246
f 247 246 248
f 249 248 251
f 252 251 253
f 254 256 257
f 258 257 259
f 260 259 261
f 262 261 263
f 264 263 265
f 266 265 267
f 268 256 255
f 270 272 273
f 271 274 272
f 267 275 270
f 265 276 275
f 263 277 276
f 261 278 277
f 259 279 278
f 257 269 279
f 280 249 252
f 253 245 247
f 281 243 245
f 282 241 243
f 283 239 241
f 284 235 239
f 285 236 235
f 238 287 288
f 240 288 289
f 242 289 290
f 244 290 291
f 246 291 292
f 248 292 251
f 280 253 247
f 250 247 248
f 293 255 254
f 294 254 258
f 295 258 260
f 296 260 262
f 297 262 264
f 271 264 266
f 274 273 272
f 266 298 274
f 267 273 298
f 270 297 271
f 275 296 297
f 276 295 296
f 277 294 295
f 278 293 294
f 279 268 293
f 286 237 236
f 251 281 253
f 292 282 281
f 291 283 282
f 290 284 283
f 289 285 284
f 288 286 285

