# https://github.com/mikedh/trimesh

o m38.off
v 0.50000000 0.09497960 0.20309200
v 0.54204300 0.10004000 0.19561000
v 0.50000000 0.13394800 0.20407500
v 0.55681400 0.12982000 0.19459200
v 0.50000000 0.19681600 0.14499600
v 0.54773200 0.18130500 0.14959600
v 0.50000000 0.15336900 0.08022380
v 0.54630900 0.15639900 0.09787200
v 0.50000000 0.12232800 0.08705210
v 0.55345100 0.12535700 0.12378700
v 0.50000000 0.08651520 0.12169500
v 0.54350700 0.08954430 0.14195700
v 0.50000000 0.21585700 0.12251600
v 0.53879100 0.21172900 0.11585900
v 0.52731300 0.17544000 0.08853120
v 0.50000000 0.17241000 0.07419090
v 0.50000000 0.22756800 0.09426030
v 0.52107200 0.22548100 0.09608890
v 0.51108300 0.20195200 0.07915000
v 0.50000000 0.20342600 0.07120220
v 0.50000000 0.07807100 0.14330400
v 0.53285500 0.07807100 0.15283200
v 0.53144100 0.06164370 0.17571300
v 0.50000000 0.07305110 0.16781100
v 0.50858600 0.10815000 0.21117200
v 0.50858600 0.09497960 0.20309200
v 0.54515900 0.10815000 0.20493600
v 0.50858600 0.13394800 0.20407500
v 0.50000000 0.10815000 0.21117200
v 0.50858600 0.16538000 0.17453300
v 0.54795500 0.16125100 0.16469100
v 0.50858600 0.19681600 0.14499600
v 0.50000000 0.16538000 0.17453300
v 0.51201500 0.21656600 0.07869910
v 0.51267900 0.22756800 0.09426030
v 0.52107200 0.21445400 0.08364300
v 0.50858600 0.20342600 0.07120220
v 0.50000000 0.21424100 0.07622720
v 0.52395000 0.14087800 0.09065370
v 0.51960300 0.15639900 0.08611500
v 0.54337600 0.14087800 0.10976600
v 0.52639600 0.12535700 0.09725400
v 0.50000000 0.13784900 0.08363800
v 0.52737900 0.10745100 0.11243500
v 0.55175900 0.10745100 0.13057000
v 0.52111300 0.08954430 0.12651200
v 0.50000000 0.10442200 0.10761800
v 0.51085000 0.06164370 0.14961100
v 0.50858600 0.07807100 0.14330400
v 0.53268800 0.06164370 0.14961100
v 0.51085000 0.06164370 0.17571300
v 0.50000000 0.07305110 0.15555800
v 0.55501100 0.10977100 0.15270100
v 0.54773200 0.08801450 0.16088700
v 0.55772100 0.12758600 0.14669300
v 0.55612600 0.14962100 0.14024000
v 0.54773200 0.16316100 0.12090000
v 0.50858600 0.20633400 0.13375600
v 0.54773200 0.20550800 0.13119300
v 0.50858600 0.21585700 0.12251600
v 0.50000000 0.20633400 0.13375600
v 0.54773200 0.20164800 0.10850900
v 0.54337600 0.16591700 0.09155020
v 0.53879100 0.20743300 0.09947770
v 0.51687800 0.16591700 0.08335430
v 0.50000000 0.16288700 0.07720480
v 0.51472000 0.17544000 0.08205250
v 0.50858600 0.22273100 0.11058100
v 0.52546900 0.21726500 0.10540900
v 0.50000000 0.22273100 0.11058100
v 0.52799700 0.21377500 0.09256330
v 0.51954300 0.18943000 0.08463080
v 0.50858600 0.18943000 0.07742770
v 0.50000000 0.18640100 0.07261040
v 0.50858600 0.08380510 0.13166900
v 0.54184100 0.08380510 0.14119200
v 0.50000000 0.08380510 0.13166900
v 0.54773200 0.08351130 0.16082600
v 0.54773200 0.07918040 0.18478000
v 0.50858600 0.07230140 0.18478000
v 0.50000000 0.07230140 0.18478000
v 0.59047400 0.18203000 0.14602900
v 0.59047400 0.18569200 0.13980400
v 0.59047400 0.17442700 0.13400900
v 0.59047400 0.18606700 0.12882200
v 0.76934700 0.18835700 0.14328900
v 0.76934700 0.19374100 0.13490600
v 0.76934700 0.18190800 0.13144600
v 0.76934700 0.18913700 0.13270200
v 0.88338100 0.18236900 0.13208400
v 0.88338100 0.18592500 0.12895400
v 0.88338100 0.17991800 0.12436400
v 0.88338100 0.18461800 0.12509900
v 0.94223600 0.18236900 0.12519500
v 0.94520500 0.18592500 0.12207000
v 0.95032600 0.17812400 0.12031700
v 0.95032600 0.18465900 0.11686800
v 0.50000000 0.04753120 0.29114000
v 0.50000000 0.04909650 0.29260900
v 0.52589000 0.04753120 0.28623200
v 0.52589000 0.04909650 0.28770100
v 0.52877700 0.04237970 0.28363800
v 0.55039600 0.03685320 0.26374100
v 0.56336400 0.03986210 0.25567200
v 0.52877700 0.04545440 0.28725500
v 0.56564400 0.10965900 0.19554500
v 0.57242600 0.11320500 0.19394400
v 0.58222300 0.11084500 0.18992200
v 0.59951100 0.11335700 0.19037800
v 0.80436900 0.10781500 0.20914000
v 0.88338100 0.11686200 0.18137600
v 0.97500000 0.15385100 0.14348700
v 0.66772800 0.19100100 0.14385100
v 0.66637100 0.18212100 0.15030500
v 0.67968800 0.10061200 0.20469300
v 0.67498200 0.17591600 0.14031100
v 0.67244900 0.18749000 0.13327000
v 0.93865500 0.13917600 0.15852100
v 0.91333800 0.12895400 0.17344900
v 0.96273100 0.14889700 0.15625200
v 0.82636400 0.18230800 0.13813200
v 0.84697000 0.11383800 0.19007900
v 0.82636400 0.17843300 0.13199800
v 0.82278200 0.18633000 0.12929300
v 0.82636400 0.18678100 0.13420200
v 0.50000000 0.21692600 0.06928750
v 0.52479000 0.21045700 0.07168340
v 0.50000000 0.23450300 0.08788790
v 0.52524600 0.22951900 0.08985840
v 0.50000000 0.24762300 0.08392670
v 0.51194900 0.24390500 0.08266540
v 0.50000000 0.22232600 0.06072180
v 0.51194900 0.22379500 0.06403460
v 0.50000000 0.21599400 0.07511780
v 0.51194900 0.21599400 0.07511780
v 0.51194900 0.22905300 0.09029910
v 0.50000000 0.22905300 0.09029910
v 0.50000000 0.21467200 0.06669900
v 0.52147800 0.20478900 0.06835540
v 0.51194900 0.21170300 0.07245850
v 0.50000000 0.21170300 0.07245850
v 0.50000000 0.23725900 0.08994960
v 0.51926400 0.23170700 0.09214800
v 0.50000000 0.23094200 0.09199090
v 0.51194900 0.22921500 0.09199090
v 0.50000000 0.23468000 0.09959420
v 0.51465400 0.23468000 0.09959420
v 0.50000000 0.23235500 0.09587110
v 0.51194900 0.23009600 0.09587110
v 0.50000000 0.23166600 0.10491300
v 0.50000000 0.23090200 0.10391500
v 0.50778100 0.23090200 0.10401100
v 0.50000000 0.19596500 0.06732210
v 0.51608300 0.19874600 0.06805660
v 0.51194900 0.19674000 0.06990040
v 0.50000000 0.19527600 0.06863910
v 0.50000000 0.23762900 0.08680390
v 0.51194900 0.23497400 0.08545650
v 0.51194900 0.21754400 0.06867450
v 0.50000000 0.21798500 0.06760570
v 0.50000000 0.25321500 0.07933230
v 0.51194900 0.24888900 0.07933230
v 0.51194900 0.22758400 0.05490660
v 0.50000000 0.22398200 0.05490660
v 0.50000000 0.25501300 0.07538120
v 0.51194900 0.25127500 0.07538120
v 0.51194900 0.22963500 0.05124420
v 0.50000000 0.22613000 0.05124420
v 0.50000000 0.24159500 0.05962760
v 0.51194900 0.24225300 0.05102640
v 0.51407200 0.24108300 0.07279780
v 0.51477600 0.23413800 0.07232170
v 0.51194900 0.22625700 0.07798490
v 0.52625900 0.22332400 0.08329860
v 0.51194900 0.22085200 0.08076580
v 0.50000000 0.23899600 0.05662880
v 0.51254700 0.23923400 0.05098080
v 0.51569300 0.23577500 0.05830550
v 0.51498400 0.23039000 0.06792990
v 0.51194900 0.22395200 0.07551800
v 0.53098000 0.21955500 0.07931710
v 0.51194900 0.21934700 0.07901830
v 0.50000000 0.25863500 0.06814270
v 0.51194900 0.25484600 0.06814270
v 0.51194900 0.24399600 0.05021090
v 0.50000000 0.24763300 0.04959290
v 0.50000000 0.26068100 0.05607160
v 0.51194900 0.25684200 0.05607160
v 0.51194900 0.24612800 0.04839240
v 0.50000000 0.24779000 0.04810360
v 0.50000000 0.25874600 0.04006980
v 0.50505000 0.25699400 0.04006980
v 0.50505000 0.24942600 0.03701020
v 0.50000000 0.25078900 0.03688870
v 0.50000000 0.25809300 0.02838880
v 0.50396600 0.25702400 0.02838880
v 0.50396600 0.25152800 0.03074930
v 0.50000000 0.25119400 0.03091140
v 0.50000000 0.25132600 0.02500000
v 0.50151500 0.25132600 0.02500000
v 0.50151500 0.25015000 0.02841410
v 0.50000000 0.25004900 0.02864210
v 0.50000000 0.24681700 0.02594720
v 0.50048100 0.24681700 0.02594720
v 0.50018700 0.24644200 0.02681340
v 0.50000000 0.24634600 0.02704140
v 0.50000000 0.23615400 0.04567730
v 0.51210100 0.23824100 0.04724250
v 0.50412300 0.22894100 0.04584950
v 0.50000000 0.22894100 0.04584950
v 0.50000000 0.23582500 0.03696470
v 0.50399700 0.23825700 0.03733440
v 0.50096200 0.23006600 0.03676710
v 0.50000000 0.22921000 0.03676710
v 0.50000000 0.23166600 0.02868260
v 0.50194000 0.23409800 0.02905740
v 0.50042600 0.22888500 0.02820640
v 0.50000000 0.22826200 0.02820640
v 0.51194900 0.25073800 0.07062480
v 0.51331700 0.24748600 0.06502230
v 0.51331700 0.25017100 0.06337100
v 0.51194900 0.25330100 0.06815280
v 0.51108800 0.25073800 0.07062480
v 0.51108800 0.24748600 0.06502230
v 0.51108800 0.25017100 0.06337100
v 0.51108800 0.25330100 0.06815280
v 0.51482700 0.24437100 0.06649640
v 0.51194900 0.24826600 0.06903930
v 0.51358100 0.25245500 0.05854870
v 0.51194900 0.25273900 0.06474880
v 0.53001800 0.05866010 0.15181400
v 0.52907100 0.05866010 0.17345400
v 0.51337300 0.05866010 0.17345400
v 0.51337300 0.05866010 0.15181400
v 0.52595500 0.05776860 0.15772600
v 0.52545900 0.05955160 0.16739600
v 0.51721800 0.05955160 0.16739600
v 0.51721800 0.05776860 0.15772600
v 0.52595500 0.04395500 0.16481200
v 0.52545900 0.04573300 0.17448200
v 0.51721800 0.04573300 0.17448200
v 0.51721800 0.04395500 0.16481200
v 0.51992800 0.03951770 0.16391100
v 0.51942600 0.03648340 0.17326100
v 0.51118500 0.03648340 0.17326100
v 0.51118500 0.03951770 0.16391100
v 0.52377200 0.03222340 0.15934700
v 0.52545900 0.02826720 0.16515700
v 0.51721800 0.02826720 0.16515700
v 0.51939600 0.03222340 0.15934700
v 0.52605700 0.02611950 0.15932100
v 0.52700900 0.02605870 0.16513100
v 0.51721800 0.02713760 0.16431100
v 0.51770400 0.02611950 0.15932100
v 0.52229300 0.02884980 0.15692000
v 0.52722700 0.02816090 0.16223900
v 0.52228300 0.02611950 0.15757900
v 0.51826600 0.02690460 0.14227600
v 0.51708600 0.02618030 0.14251400
v 0.51853500 0.02618030 0.14196200
v 0.53515900 0.02506590 0.16090200
v 0.53645100 0.02624610 0.16127700
v 0.53621300 0.02500000 0.16162600
v 0.52675600 0.02681850 0.14235700
v 0.52609200 0.02616000 0.14210400
v 0.52739400 0.02616000 0.14270100
v 0.47411000 0.04909650 0.28770100
v 0.47411000 0.04753120 0.28623200
v 0.49141400 0.16538000 0.17453300
v 0.49141400 0.13394800 0.20407500
v 0.47605000 0.14087800 0.09065370
v 0.48039700 0.15639900 0.08611500
v 0.47262100 0.10745100 0.11243500
v 0.47360400 0.12535700 0.09725400
v 0.48915000 0.06164370 0.14961100
v 0.49141400 0.07807100 0.14330400
v 0.45795700 0.10004000 0.19561000
v 0.45484100 0.10815000 0.20493600
v 0.44498900 0.10977100 0.15270100
v 0.45226800 0.08801450 0.16088700
v 0.43435600 0.10965900 0.19554500
v 0.42757400 0.11320500 0.19394400
v 0.44318600 0.12982000 0.19459200
v 0.45204500 0.16125100 0.16469100
v 0.49141400 0.20633400 0.13375600
v 0.49141400 0.19681600 0.14499600
v 0.05776350 0.18236900 0.12519500
v 0.05479510 0.18592500 0.12207000
v 0.02500000 0.15385100 0.14348700
v 0.45369100 0.15639900 0.09787200
v 0.45662400 0.16591700 0.09155020
v 0.48312200 0.16591700 0.08335430
v 0.49141400 0.22273100 0.11058100
v 0.49141400 0.21585700 0.12251600
v 0.46120900 0.21172900 0.11585900
v 0.46120900 0.20743300 0.09947770
v 0.47453100 0.21726500 0.10540900
v 0.47200300 0.21377500 0.09256330
v 0.48528000 0.17544000 0.08205250
v 0.47268700 0.17544000 0.08853120
v 0.48045700 0.18943000 0.08463080
v 0.49141400 0.18943000 0.07742770
v 0.49141400 0.08380510 0.13166900
v 0.47888700 0.08954430 0.12651200
v 0.45649300 0.08954430 0.14195700
v 0.45815900 0.08380510 0.14119200
v 0.45226800 0.08351130 0.16082600
v 0.45226800 0.07918040 0.18478000
v 0.49141400 0.07230140 0.18478000
v 0.49141400 0.09497960 0.20309200
v 0.43663600 0.03986210 0.25567200
v 0.47122300 0.04545440 0.28725500
v 0.44960400 0.03685320 0.26374100
v 0.47122300 0.04237970 0.28363800
v 0.49141400 0.10815000 0.21117200
v 0.45226800 0.18130500 0.14959600
v 0.48732100 0.22756800 0.09426030
v 0.48798500 0.21656600 0.07869910
v 0.47892800 0.21445400 0.08364300
v 0.47892800 0.22548100 0.09608890
v 0.48891700 0.20195200 0.07915000
v 0.49141400 0.20342600 0.07120220
v 0.45662400 0.14087800 0.10976600
v 0.44654900 0.12535700 0.12378700
v 0.44824100 0.10745100 0.13057000
v 0.46714500 0.07807100 0.15283200
v 0.46731200 0.06164370 0.14961100
v 0.47771700 0.02611950 0.15757900
v 0.48278200 0.02713760 0.16431100
v 0.48229600 0.02611950 0.15932100
v 0.48915000 0.06164370 0.17571300
v 0.44227900 0.12758600 0.14669300
v 0.44387500 0.14962100 0.14024000
v 0.45226800 0.16316100 0.12090000
v 0.41777700 0.11084500 0.18992200
v 0.45226800 0.20550800 0.13119300
v 0.45226800 0.20164800 0.10850900
v 0.46855900 0.06164370 0.17571300
v 0.40952500 0.18569200 0.13980400
v 0.40952500 0.18203000 0.14602900
v 0.40048900 0.11335700 0.19037800
v 0.40952500 0.17442700 0.13400900
v 0.40952500 0.18606700 0.12882200
v 0.33362900 0.18212100 0.15030500
v 0.23065300 0.18835700 0.14328900
v 0.33227200 0.19100100 0.14385100
v 0.23065300 0.19374100 0.13490600
v 0.19563100 0.10781500 0.20914000
v 0.32031200 0.10061200 0.20469300
v 0.32755100 0.18749000 0.13327000
v 0.23065300 0.18913700 0.13270200
v 0.32501800 0.17591600 0.14031100
v 0.23065300 0.18190800 0.13144600
v 0.17363600 0.18230800 0.13813200
v 0.11661900 0.18236900 0.13208400
v 0.17363600 0.18678100 0.13420200
v 0.11661900 0.18592500 0.12895400
v 0.15303000 0.11383800 0.19007900
v 0.11661900 0.11686200 0.18137600
v 0.17721800 0.18633000 0.12929300
v 0.11661900 0.18461800 0.12509900
v 0.17363600 0.17843300 0.13199800
v 0.11661900 0.17991800 0.12436400
v 0.03726860 0.14889700 0.15625200
v 0.04967390 0.17812400 0.12031700
v 0.04967390 0.18465900 0.11686800
v 0.08666210 0.12895400 0.17344900
v 0.06134480 0.13917600 0.15852100
v 0.48805100 0.24390500 0.08266540
v 0.48805100 0.23497400 0.08545650
v 0.49957500 0.22888500 0.02820640
v 0.49806000 0.23409800 0.02905740
v 0.48805100 0.21754400 0.06867450
v 0.48805100 0.22379500 0.06403460
v 0.48501600 0.23039000 0.06792990
v 0.48805100 0.22395200 0.07551800
v 0.48391700 0.19874600 0.06805660
v 0.48805100 0.19674000 0.06990040
v 0.47521000 0.21045700 0.07168340
v 0.46902000 0.21955500 0.07931710
v 0.48805100 0.21599400 0.07511780
v 0.48805100 0.21934700 0.07901830
v 0.49221900 0.23090200 0.10401100
v 0.48805100 0.22905300 0.09029910
v 0.47852200 0.20478900 0.06835540
v 0.48805100 0.21170300 0.07245850
v 0.47475400 0.22951900 0.08985840
v 0.48073600 0.23170700 0.09214800
v 0.48805100 0.22921500 0.09199090
v 0.48534600 0.23468000 0.09959420
v 0.48805100 0.23009600 0.09587110
v 0.48805100 0.24888900 0.07933230
v 0.48430700 0.23577500 0.05830550
v 0.48805100 0.22758400 0.05490660
v 0.48805100 0.25127500 0.07538120
v 0.48745300 0.23923400 0.05098080
v 0.48805100 0.22963500 0.05124420
v 0.49981300 0.24644200 0.02681340
v 0.49951900 0.24681700 0.02594720
v 0.48592800 0.24108300 0.07279780
v 0.48517300 0.24437100 0.06649640
v 0.48522400 0.23413800 0.07232170
v 0.48805100 0.22625700 0.07798490
v 0.47374100 0.22332400 0.08329860
v 0.48805100 0.22085200 0.08076580
v 0.48805100 0.24225300 0.05102640
v 0.48805100 0.25484600 0.06814270
v 0.48891200 0.25073800 0.07062480
v 0.48891200 0.24748600 0.06502230
v 0.48891200 0.25330100 0.06815280
v 0.48891200 0.25017100 0.06337100
v 0.48805100 0.24399600 0.05021090
v 0.48805100 0.25684200 0.05607160
v 0.48641900 0.25245500 0.05854870
v 0.48805100 0.24612800 0.04839240
v 0.49495000 0.25699400 0.04006980
v 0.49495000 0.24942600 0.03701020
v 0.49603400 0.25702400 0.02838880
v 0.49603400 0.25152800 0.03074930
v 0.49848500 0.25132600 0.02500000
v 0.49848500 0.25015000 0.02841410
v 0.48789900 0.23824100 0.04724250
v 0.49587700 0.22894100 0.04584950
v 0.49600300 0.23825700 0.03733440
v 0.49903800 0.23006600 0.03676710
v 0.48805100 0.24826600 0.06903930
v 0.48805100 0.25073800 0.07062480
v 0.48668300 0.24748600 0.06502230
v 0.48668300 0.25017100 0.06337100
v 0.48805100 0.25273900 0.06474880
v 0.48805100 0.25330100 0.06815280
v 0.46998200 0.05866010 0.15181400
v 0.47092900 0.05866010 0.17345400
v 0.48662700 0.05866010 0.17345400
v 0.48662700 0.05866010 0.15181400
v 0.47404500 0.05776860 0.15772600
v 0.47454100 0.05955160 0.16739600
v 0.48278200 0.05955160 0.16739600
v 0.48278200 0.05776860 0.15772600
v 0.47404500 0.04395500 0.16481200
v 0.47454100 0.04573300 0.17448200
v 0.48278200 0.04573300 0.17448200
v 0.48278200 0.04395500 0.16481200
v 0.48057400 0.03648340 0.17326100
v 0.48007200 0.03951770 0.16391100
v 0.48881500 0.03648340 0.17326100
v 0.48881500 0.03951770 0.16391100
v 0.47454100 0.02826720 0.16515700
v 0.47622800 0.03222340 0.15934700
v 0.48278200 0.02826720 0.16515700
v 0.48060400 0.03222340 0.15934700
v 0.47277300 0.02816090 0.16223900
v 0.47299100 0.02605870 0.16513100
v 0.47770700 0.02884980 0.15692000
v 0.47394300 0.02611950 0.15932100
v 0.48173400 0.02690460 0.14227600
v 0.48291400 0.02618030 0.14251400
v 0.48146500 0.02618030 0.14196200
v 0.46484100 0.02506590 0.16090200
v 0.46354900 0.02624610 0.16127700
v 0.46378700 0.02500000 0.16162600
v 0.47324400 0.02681850 0.14235700
v 0.47390800 0.02616000 0.14210400
v 0.47260600 0.02616000 0.14270100
f 99 267 98
f 98 267 268
f 33 269 3
f 3 269 270
f 43 271 7
f 7 271 272
f 47 273 9
f 9 273 274
f 275 276 52
f 52 276 21
f 278 279 277
f 277 279 280
f 281 283 282
f 284 282 283
f 61 285 5
f 5 285 286
f 288 289 287
f 290 291 272
f 291 292 272
f 70 293 13
f 13 293 294
f 295 297 296
f 297 298 296
f 300 301 299
f 301 302 299
f 77 303 11
f 11 303 304
f 305 306 280
f 306 307 280
f 309 310 308
f 308 310 277
f 311 313 312
f 314 312 313
f 283 278 270
f 278 315 270
f 270 315 3
f 3 315 29
f 283 270 284
f 270 269 284
f 286 316 269
f 284 269 316
f 286 269 5
f 5 269 33
f 318 319 317
f 317 319 320
f 319 318 321
f 321 318 322
f 318 38 322
f 322 38 20
f 272 271 290
f 290 271 323
f 324 323 274
f 323 271 274
f 271 43 274
f 274 43 9
f 274 273 324
f 324 273 325
f 273 304 325
f 325 304 305
f 304 273 11
f 11 273 47
f 276 275 326
f 326 275 327
f 328 330 329
f 331 275 24
f 24 275 52
f 325 305 279
f 280 279 305
f 324 325 332
f 325 279 332
f 281 278 283
f 323 324 333
f 332 333 324
f 333 334 323
f 323 334 290
f 316 335 284
f 335 282 284
f 316 286 336
f 286 285 336
f 336 285 295
f 295 285 294
f 294 285 13
f 13 285 61
f 290 334 291
f 334 337 291
f 291 337 300
f 300 337 296
f 336 295 337
f 296 337 295
f 272 292 7
f 7 292 66
f 66 292 16
f 16 292 299
f 291 300 292
f 299 292 300
f 295 294 297
f 294 293 297
f 297 293 320
f 320 293 317
f 317 293 17
f 17 293 70
f 300 296 301
f 296 298 301
f 301 298 321
f 321 298 319
f 319 298 320
f 320 298 297
f 299 302 16
f 16 302 74
f 74 302 20
f 20 302 322
f 301 321 302
f 322 302 321
f 306 305 303
f 304 303 305
f 306 303 326
f 326 303 276
f 276 303 21
f 21 303 77
f 307 308 280
f 280 308 277
f 327 338 307
f 308 307 338
f 327 307 326
f 326 307 306
f 310 309 1
f 1 309 81
f 24 81 331
f 81 309 331
f 308 338 309
f 331 309 338
f 336 339 316
f 316 339 340
f 316 340 335
f 335 340 341
f 342 343 334
f 334 343 337
f 337 343 336
f 336 343 339
f 344 346 345
f 346 347 345
f 348 349 345
f 344 345 349
f 350 352 351
f 352 353 351
f 346 350 347
f 350 351 347
f 354 356 355
f 356 357 355
f 354 355 358
f 358 355 359
f 360 362 361
f 362 363 361
f 360 361 356
f 356 361 357
f 355 357 287
f 357 288 287
f 289 364 287
f 355 287 364
f 363 365 361
f 361 365 366
f 357 361 288
f 361 366 288
f 268 310 98
f 1 98 310
f 267 315 268
f 310 268 315
f 29 315 99
f 315 267 99
f 314 313 310
f 310 313 277
f 313 311 277
f 277 311 278
f 312 315 311
f 278 311 315
f 312 314 315
f 315 314 310
f 332 279 281
f 281 279 278
f 281 282 332
f 282 333 332
f 334 333 335
f 335 333 282
f 334 335 342
f 341 342 335
f 348 353 349
f 349 353 352
f 362 358 363
f 359 363 358
f 289 365 364
f 364 365 363
f 288 366 289
f 366 365 289
f 339 346 340
f 340 346 344
f 349 341 344
f 340 344 341
f 349 352 341
f 352 342 341
f 352 350 342
f 342 350 343
f 350 346 343
f 343 346 339
f 355 368 367
f 363 367 368
f 355 367 359
f 363 359 367
f 355 364 368
f 363 368 364
f 345 354 348
f 348 354 358
f 353 348 362
f 362 348 358
f 362 360 353
f 353 360 351
f 356 347 360
f 351 360 347
f 347 356 345
f 345 356 354
f 130 369 157
f 157 369 370
f 218 371 215
f 215 371 372
f 373 374 160
f 132 160 374
f 375 374 376
f 373 376 374
f 377 153 378
f 153 156 378
f 379 381 380
f 380 381 382
f 150 383 151
f 318 381 38
f 134 38 381
f 381 318 382
f 317 17 384
f 384 17 137
f 379 126 385
f 126 138 385
f 381 379 386
f 379 385 386
f 381 386 134
f 134 386 141
f 387 388 128
f 128 388 142
f 144 389 137
f 137 389 384
f 384 389 387
f 387 389 388
f 388 390 142
f 142 390 146
f 148 391 144
f 144 391 389
f 390 388 391
f 389 391 388
f 390 150 146
f 391 148 383
f 148 151 383
f 150 390 383
f 391 383 390
f 385 138 377
f 138 153 377
f 378 386 377
f 385 377 386
f 156 141 378
f 386 378 141
f 387 128 370
f 128 157 370
f 380 376 379
f 379 376 373
f 160 126 373
f 373 126 379
f 161 392 130
f 130 392 369
f 393 394 375
f 375 394 374
f 374 394 132
f 132 394 164
f 392 161 395
f 161 165 395
f 396 397 393
f 393 397 394
f 394 397 164
f 164 397 168
f 206 398 203
f 203 398 399
f 400 392 401
f 392 395 401
f 402 369 400
f 369 392 400
f 369 402 370
f 403 370 402
f 403 404 370
f 404 387 370
f 405 384 404
f 404 384 387
f 318 317 405
f 405 317 384
f 169 176 406
f 406 176 396
f 393 375 401
f 393 406 396
f 375 400 401
f 400 375 402
f 375 376 402
f 376 403 402
f 380 404 376
f 376 404 403
f 382 405 380
f 380 405 404
f 318 405 382
f 395 165 407
f 165 183 407
f 408 410 409
f 409 410 411
f 406 412 169
f 169 412 186
f 407 183 413
f 183 187 413
f 413 415 414
f 414 415 412
f 412 415 186
f 186 415 190
f 413 187 416
f 187 191 416
f 413 416 415
f 415 416 417
f 415 417 190
f 190 417 194
f 416 191 418
f 191 195 418
f 418 419 416
f 416 419 417
f 417 419 194
f 194 419 198
f 418 195 420
f 195 199 420
f 420 421 418
f 418 421 419
f 419 421 198
f 198 421 202
f 203 399 199
f 199 399 420
f 398 421 399
f 420 399 421
f 206 202 398
f 421 398 202
f 207 422 176
f 176 422 396
f 423 397 422
f 396 422 397
f 397 423 168
f 168 423 210
f 176 168 207
f 168 210 207
f 422 207 424
f 207 211 424
f 422 424 423
f 423 424 425
f 214 210 425
f 423 425 210
f 424 211 372
f 211 215 372
f 424 372 425
f 425 372 371
f 425 371 214
f 214 371 218
f 401 395 426
f 395 427 426
f 429 412 428
f 428 412 406
f 430 414 429
f 412 429 414
f 407 431 395
f 395 431 427
f 427 408 426
f 428 409 429
f 429 409 411
f 411 410 429
f 429 410 430
f 431 410 427
f 427 410 408
f 406 393 401
f 426 428 401
f 401 428 406
f 409 428 408
f 408 428 426
f 407 413 414
f 414 430 407
f 430 431 407
f 410 431 430
f 327 432 338
f 338 432 433
f 338 433 331
f 331 433 434
f 331 434 275
f 275 434 435
f 327 275 432
f 275 435 432
f 432 436 433
f 433 436 437
f 434 433 438
f 433 437 438
f 434 438 435
f 435 438 439
f 435 439 432
f 432 439 436
f 436 440 437
f 437 440 441
f 437 441 438
f 438 441 442
f 439 438 443
f 438 442 443
f 439 443 436
f 436 443 440
f 441 440 444
f 440 445 444
f 441 444 442
f 442 444 446
f 442 446 443
f 443 446 447
f 440 443 445
f 443 447 445
f 444 445 448
f 445 449 448
f 446 444 450
f 444 448 450
f 446 450 447
f 447 450 451
f 447 451 445
f 445 451 449
f 452 453 448
f 453 329 448
f 448 329 450
f 450 329 451
f 451 329 330
f 451 454 449
f 454 455 449
f 457 458 456
f 451 330 454
f 449 452 448
f 459 461 460
f 449 455 452
f 463 464 462
f 453 455 329
f 455 328 329
f 457 456 330
f 330 456 454
f 458 328 456
f 454 456 328
f 457 330 458
f 328 458 330
f 455 459 452
f 452 459 460
f 452 460 453
f 453 460 461
f 461 459 453
f 453 459 455
f 462 454 463
f 328 463 454
f 464 455 462
f 454 462 455
f 455 464 328
f 328 464 463
f 99 98 101
f 98 100 101
f 33 3 30
f 3 28 30
f 43 7 39
f 7 40 39
f 47 9 44
f 9 42 44
f 48 52 49
f 52 21 49
f 27 2 53
f 2 54 53
f 106 107 4
f 31 4 107
f 61 5 58
f 5 32 58
f 95 94 112
f 8 40 63
f 63 40 65
f 70 13 68
f 13 60 68
f 14 64 69
f 69 64 71
f 15 67 72
f 72 67 73
f 77 11 75
f 11 46 75
f 12 54 76
f 76 54 78
f 80 79 26
f 79 2 26
f 104 105 103
f 102 103 105
f 4 28 27
f 27 28 25
f 28 3 25
f 3 29 25
f 4 31 28
f 28 31 30
f 32 30 6
f 31 6 30
f 32 5 30
f 5 33 30
f 34 35 36
f 35 18 36
f 36 19 34
f 19 37 34
f 34 37 38
f 37 20 38
f 40 8 39
f 8 41 39
f 10 42 41
f 41 42 39
f 39 42 43
f 42 9 43
f 42 10 44
f 10 45 44
f 44 45 46
f 45 12 46
f 46 11 44
f 11 47 44
f 49 22 48
f 22 50 48
f 257 253 254
f 51 24 48
f 24 52 48
f 45 53 12
f 54 12 53
f 10 55 45
f 45 55 53
f 106 4 27
f 41 56 10
f 55 10 56
f 56 41 57
f 41 8 57
f 6 31 108
f 108 31 107
f 6 59 32
f 32 59 58
f 59 14 58
f 14 60 58
f 60 13 58
f 13 61 58
f 8 63 57
f 57 63 62
f 63 15 62
f 15 64 62
f 59 62 14
f 64 14 62
f 40 7 65
f 7 66 65
f 66 16 65
f 16 67 65
f 63 65 15
f 67 15 65
f 14 69 60
f 60 69 68
f 69 18 68
f 18 35 68
f 35 17 68
f 17 70 68
f 15 72 64
f 64 72 71
f 72 19 71
f 19 36 71
f 36 18 71
f 18 69 71
f 67 16 73
f 16 74 73
f 74 20 73
f 20 37 73
f 72 73 19
f 37 19 73
f 76 75 12
f 46 12 75
f 76 22 75
f 22 49 75
f 49 21 75
f 21 77 75
f 78 54 79
f 54 2 79
f 50 78 23
f 79 23 78
f 50 22 78
f 22 76 78
f 26 1 80
f 1 81 80
f 24 51 81
f 81 51 80
f 79 80 23
f 51 23 80
f 59 6 83
f 6 82 83
f 6 108 82
f 108 109 82
f 84 57 85
f 57 62 85
f 62 59 85
f 59 83 85
f 114 86 113
f 113 86 87
f 110 86 115
f 114 115 86
f 117 89 116
f 116 89 88
f 113 87 117
f 117 87 89
f 121 90 125
f 125 90 91
f 121 122 90
f 122 111 90
f 124 93 123
f 123 93 92
f 124 125 93
f 125 91 93
f 90 94 91
f 91 94 95
f 112 94 120
f 90 120 94
f 92 93 96
f 93 97 96
f 91 95 93
f 93 95 97
f 100 98 26
f 1 26 98
f 101 100 25
f 26 25 100
f 29 99 25
f 25 99 101
f 102 26 103
f 26 2 103
f 103 2 104
f 2 27 104
f 105 104 25
f 27 25 104
f 105 25 102
f 25 26 102
f 55 106 53
f 106 27 53
f 106 55 107
f 107 55 56
f 57 108 56
f 108 107 56
f 57 84 108
f 109 108 84
f 110 115 88
f 115 116 88
f 123 92 122
f 111 122 92
f 112 120 96
f 120 92 96
f 95 112 97
f 97 112 96
f 83 82 113
f 82 114 113
f 115 114 109
f 82 109 114
f 115 109 116
f 116 109 84
f 116 84 117
f 84 85 117
f 117 85 113
f 85 83 113
f 90 119 118
f 92 118 119
f 90 111 119
f 92 119 111
f 90 118 120
f 92 120 118
f 86 110 121
f 110 122 121
f 88 123 110
f 123 122 110
f 123 88 124
f 88 89 124
f 125 124 87
f 89 87 124
f 87 86 125
f 86 121 125
f 130 157 131
f 157 158 131
f 218 215 217
f 215 216 217
f 159 160 133
f 132 133 160
f 179 180 133
f 159 133 180
f 154 155 153
f 153 155 156
f 127 181 135
f 181 182 135
f 150 151 152
f 34 38 135
f 134 135 38
f 135 182 34
f 35 136 17
f 136 137 17
f 127 139 126
f 126 139 138
f 135 140 127
f 127 140 139
f 135 134 140
f 134 141 140
f 129 128 143
f 128 142 143
f 144 137 145
f 137 136 145
f 136 129 145
f 129 143 145
f 143 142 147
f 142 146 147
f 148 144 149
f 144 145 149
f 147 149 143
f 145 143 149
f 147 146 150
f 149 152 148
f 148 152 151
f 150 152 147
f 149 147 152
f 139 154 138
f 138 154 153
f 155 154 140
f 139 140 154
f 156 155 141
f 140 141 155
f 129 158 128
f 128 158 157
f 181 127 180
f 127 159 180
f 160 159 126
f 159 127 126
f 161 130 162
f 130 131 162
f 178 179 163
f 179 133 163
f 133 132 163
f 132 164 163
f 162 166 161
f 161 166 165
f 177 178 167
f 178 163 167
f 163 164 167
f 164 168 167
f 206 203 205
f 203 204 205
f 171 227 162
f 162 227 166
f 172 171 131
f 131 171 162
f 131 158 172
f 173 172 158
f 173 158 174
f 174 158 129
f 175 174 136
f 174 129 136
f 34 175 35
f 175 136 35
f 169 170 176
f 170 177 176
f 178 227 179
f 178 177 170
f 179 227 171
f 171 172 179
f 179 172 180
f 180 172 173
f 181 180 174
f 180 173 174
f 182 181 175
f 181 174 175
f 34 182 175
f 166 184 165
f 165 184 183
f 223 224 226
f 224 225 226
f 170 169 185
f 169 186 185
f 184 188 183
f 183 188 187
f 188 229 189
f 229 185 189
f 185 186 189
f 186 190 189
f 188 192 187
f 187 192 191
f 188 189 192
f 189 193 192
f 189 190 193
f 190 194 193
f 192 196 191
f 191 196 195
f 196 192 197
f 192 193 197
f 193 194 197
f 194 198 197
f 196 200 195
f 195 200 199
f 200 196 201
f 196 197 201
f 197 198 201
f 198 202 201
f 203 199 204
f 199 200 204
f 205 204 201
f 200 201 204
f 206 205 202
f 201 202 205
f 207 176 208
f 176 177 208
f 209 208 167
f 177 167 208
f 167 168 209
f 168 210 209
f 176 207 168
f 168 207 210
f 208 212 207
f 207 212 211
f 208 209 212
f 209 213 212
f 214 213 210
f 209 210 213
f 212 216 211
f 211 216 215
f 212 213 216
f 213 217 216
f 213 214 217
f 214 218 217
f 227 228 166
f 166 228 219
f 221 220 185
f 220 170 185
f 230 221 229
f 185 229 221
f 184 166 222
f 166 219 222
f 219 228 223
f 220 221 224
f 221 225 224
f 225 221 226
f 221 230 226
f 222 219 226
f 219 223 226
f 170 227 178
f 228 227 220
f 227 170 220
f 224 223 220
f 223 228 220
f 184 229 188
f 229 184 230
f 230 184 222
f 226 230 222
f 50 23 231
f 23 232 231
f 23 51 232
f 51 233 232
f 51 48 233
f 48 234 233
f 50 231 48
f 48 231 234
f 231 232 235
f 232 236 235
f 233 237 232
f 232 237 236
f 233 234 237
f 234 238 237
f 234 231 238
f 231 235 238
f 235 236 239
f 236 240 239
f 236 237 240
f 237 241 240
f 238 242 237
f 237 242 241
f 238 235 242
f 235 239 242
f 240 244 239
f 239 244 243
f 240 241 244
f 241 245 244
f 241 242 245
f 242 246 245
f 239 243 242
f 242 243 246
f 244 248 243
f 243 248 247
f 245 249 244
f 244 249 248
f 245 246 249
f 246 250 249
f 246 243 250
f 243 247 250
f 256 248 252
f 252 248 253
f 248 249 253
f 249 250 253
f 250 254 253
f 250 247 255
f 255 247 251
f 259 258 260
f 250 255 254
f 247 248 256
f 261 262 263
f 247 256 251
f 265 264 266
f 252 253 251
f 251 253 257
f 259 254 258
f 254 255 258
f 260 258 257
f 255 257 258
f 259 260 254
f 257 254 260
f 251 256 261
f 256 262 261
f 256 252 262
f 252 263 262
f 263 252 261
f 252 251 261
f 264 265 255
f 257 255 265
f 266 264 251
f 255 251 264
f 251 257 266
f 257 265 266
f 99 99 98
f 99 98 98

