# https://github.com/mikedh/trimesh

o m3.off
v 0.50730300 0.39710200 0.76068400
v 0.46823000 0.30312700 0.81336400
v 0.48208100 0.27472300 0.80374000
v 0.48041500 0.43877100 0.69232100
v 0.53510100 0.41813500 0.66664600
v 0.45763500 0.39656400 0.60867200
v 0.51910800 0.35121600 0.59607600
v 0.45220300 0.35866100 0.59282000
v 0.44689500 0.39948000 0.75683400
v 0.39925400 0.38065600 0.64351900
v 0.39005400 0.33307100 0.64960500
v 0.44092200 0.25474400 0.73735800
v 0.45402900 0.25332800 0.64255700
v 0.45173300 0.44202600 0.51744300
v 0.41451100 0.32486100 0.57832700
v 0.39345100 0.27691400 0.52554200
v 0.49200300 0.44717800 0.49365600
v 0.45503600 0.36488800 0.59157500
v 0.56858900 0.36868100 0.54622600
v 0.48733200 0.31427200 0.59406600
v 0.56915500 0.32307800 0.42730600
v 0.48354500 0.32273800 0.33624100
v 0.37524900 0.36698300 0.50941200
v 0.37329600 0.31596200 0.48456700
v 0.51653200 0.24183600 0.53128000
v 0.48174700 0.23181500 0.45725600
v 0.46595700 0.26593400 0.38408100
v 0.55904900 0.26955100 0.46639900
v 0.53569600 0.39599800 0.75745700
v 0.53464800 0.36372800 0.77489400
v 0.52406100 0.39599800 0.73421600
v 0.52213600 0.35028200 0.76648700
v 0.55800200 0.39163900 0.74166100
v 0.55293500 0.36118000 0.77011000
v 0.56841900 0.36222700 0.73707500
v 0.54387700 0.39633800 0.73014000
v 0.52428800 0.36118000 0.71281600
v 0.50613700 0.36061400 0.75233300
v 0.55341600 0.34088300 0.75244600
v 0.41892700 0.39599800 0.75745700
v 0.41788000 0.36372800 0.77489400
v 0.40729300 0.39599800 0.73421600
v 0.40536800 0.35028200 0.76648700
v 0.44123400 0.39163900 0.74166100
v 0.43616700 0.36118000 0.77011000
v 0.45165100 0.36222700 0.73707500
v 0.42710800 0.39633800 0.73014000
v 0.40751900 0.36118000 0.71281600
v 0.38937400 0.36061400 0.75233300
v 0.43661900 0.34088300 0.75244600
v 0.52205200 0.39364900 0.69257600
v 0.51656000 0.39364900 0.68966000
v 0.51129500 0.39364900 0.69291600
v 0.51149300 0.39364900 0.69914300
v 0.51695600 0.39364900 0.70205900
v 0.52225000 0.39364900 0.69880400
v 0.52392000 0.43455300 0.69761500
v 0.51851300 0.43577000 0.69484100
v 0.51322000 0.43545900 0.69806800
v 0.51333300 0.43393000 0.70409700
v 0.51876800 0.43271300 0.70687100
v 0.52406100 0.43302400 0.70364400
v 0.52946800 0.47265500 0.71242000
v 0.52420300 0.47500400 0.71007000
v 0.51888100 0.47438200 0.71318400
v 0.51879600 0.47143800 0.71864700
v 0.52403300 0.46911700 0.72099700
v 0.52938300 0.46973900 0.71788300
v 0.53824300 0.50537800 0.73594300
v 0.53326100 0.50869000 0.73427300
v 0.52785500 0.50784100 0.73721700
v 0.52745800 0.50368000 0.74180300
v 0.53244000 0.50036800 0.74347300
v 0.53784700 0.50124600 0.74052900
v 0.54970800 0.53051500 0.76657200
v 0.54506600 0.53453500 0.76583600
v 0.53957400 0.53348800 0.76855300
v 0.53872500 0.52839200 0.77197900
v 0.54339500 0.52434400 0.77274300
v 0.54888700 0.52542000 0.77002500
v 0.56306900 0.54628300 0.80232400
v 0.55879500 0.55078400 0.80260700
v 0.55319000 0.54962300 0.80515500
v 0.55188800 0.54393300 0.80713600
v 0.55613400 0.53943200 0.80685300
v 0.56171000 0.54062100 0.80430600
v 0.57736400 0.55166100 0.84053900
v 0.57354300 0.55633200 0.84195500
v 0.56785300 0.55511500 0.84421900
v 0.56598500 0.54922700 0.84478500
v 0.56980600 0.54458400 0.84337000
v 0.57552400 0.54580200 0.84138900
v 0.59171600 0.54628300 0.87903800
v 0.58829100 0.55078400 0.88158500
v 0.58248800 0.54962300 0.88328400
v 0.58008200 0.54393300 0.88243400
v 0.58347900 0.53943200 0.87988700
v 0.58931000 0.54062100 0.87818800
v 0.60504900 0.53051500 0.91470500
v 0.60202000 0.53453500 0.91810200
v 0.59610400 0.53348800 0.91980000
v 0.59321700 0.52839200 0.91781900
v 0.59624600 0.52434400 0.91413900
v 0.60216200 0.52542000 0.91244000
v 0.61651400 0.50537800 0.94527700
v 0.61382400 0.50869000 0.94980600
v 0.60782300 0.50784100 0.95122200
v 0.60451100 0.50368000 0.94782500
v 0.60717200 0.50036800 0.94329600
v 0.61320200 0.50124600 0.94216300
v 0.62528900 0.47265500 0.96877200
v 0.62288300 0.47500400 0.97386800
v 0.61679700 0.47438200 0.97500000
v 0.61317300 0.47143800 0.97103700
v 0.61558000 0.46911700 0.96594200
v 0.62166600 0.46973900 0.96480900
v 0.44236600 0.39364900 0.69257600
v 0.44785800 0.39364900 0.68966000
v 0.45312300 0.39364900 0.69291600
v 0.45293000 0.39364900 0.69914300
v 0.44746100 0.39364900 0.70205900
v 0.44219600 0.39364900 0.69880400
v 0.44049800 0.43455300 0.69761500
v 0.44590400 0.43577000 0.69484100
v 0.45119500 0.43545900 0.69806800
v 0.45107000 0.43393000 0.70409700
v 0.44565000 0.43271300 0.70687100
v 0.44035600 0.43302400 0.70364400
v 0.43494900 0.47265500 0.71242000
v 0.44021500 0.47500400 0.71007000
v 0.44553600 0.47438200 0.71318400
v 0.44562100 0.47143800 0.71864700
v 0.44038400 0.46911700 0.72099700
v 0.43503400 0.46973900 0.71788300
v 0.42617400 0.50537800 0.73594300
v 0.43115600 0.50869000 0.73427300
v 0.43656300 0.50784100 0.73721700
v 0.43695900 0.50368000 0.74180300
v 0.43197700 0.50036800 0.74347300
v 0.42657000 0.50124600 0.74052900
v 0.41470900 0.53051500 0.76657200
v 0.41935200 0.53453500 0.76583600
v 0.42484400 0.53348800 0.76855300
v 0.42569300 0.52839200 0.77197900
v 0.42102200 0.52434400 0.77274300
v 0.41553000 0.52542000 0.77002500
v 0.40134800 0.54628300 0.80232400
v 0.40562300 0.55078400 0.80260700
v 0.41122800 0.54962300 0.80515500
v 0.41253000 0.54393300 0.80713600
v 0.40828400 0.53943200 0.80685300
v 0.40270700 0.54062100 0.80430600
v 0.38705300 0.55166100 0.84053900
v 0.39087500 0.55633200 0.84195500
v 0.39656400 0.55511500 0.84421900
v 0.39843300 0.54922700 0.84478500
v 0.39461100 0.54458400 0.84337000
v 0.38889300 0.54580200 0.84138900
v 0.37272900 0.54628300 0.87903800
v 0.37612600 0.55078400 0.88158500
v 0.38195800 0.54962300 0.88328400
v 0.38433600 0.54393300 0.88243400
v 0.38091000 0.53943200 0.87988700
v 0.37510700 0.54062100 0.87818800
v 0.35936800 0.53051500 0.91470500
v 0.36239700 0.53453500 0.91810200
v 0.36831300 0.53348800 0.91980000
v 0.37120100 0.52839200 0.91781900
v 0.36817200 0.52434400 0.91413900
v 0.36225600 0.52542000 0.91244000
v 0.34790400 0.50537800 0.94527700
v 0.35059300 0.50869000 0.94980600
v 0.35659400 0.50784100 0.95122200
v 0.35990600 0.50368000 0.94782500
v 0.35724500 0.50036800 0.94329600
v 0.35124400 0.50124600 0.94216300
v 0.33912800 0.47265500 0.96877200
v 0.34153500 0.47500400 0.97386800
v 0.34762100 0.47438200 0.97500000
v 0.35127200 0.47143800 0.97103700
v 0.34883800 0.46911700 0.96594200
v 0.34278000 0.46973900 0.96480900
v 0.43520400 0.22640800 0.58461100
v 0.43537400 0.22671900 0.58418700
v 0.40151800 0.23436200 0.60009500
v 0.42195600 0.26003700 0.59647200
v 0.40675500 0.24718600 0.56994800
v 0.35597100 0.27953300 0.61852400
v 0.34538400 0.27310400 0.58840400
v 0.30060200 0.31678500 0.61812700
v 0.32157800 0.34309100 0.61444700
v 0.30598000 0.32992800 0.58724400
v 0.28486300 0.34606400 0.61357000
v 0.28446700 0.35517900 0.61365500
v 0.28327800 0.35062100 0.60578500
v 0.27356800 0.31807600 0.62166600
v 0.26487800 0.32876800 0.63185600
v 0.25024300 0.33946800 0.60816300
v 0.25890500 0.32876800 0.59794400
v 0.23187100 0.26973800 0.62022200
v 0.22103000 0.28505500 0.64374600
v 0.21361300 0.28505500 0.60182200
v 0.18408800 0.23093700 0.63720600
v 0.16936800 0.24741200 0.64589700
v 0.16455600 0.24741200 0.61742000
v 0.18125700 0.23093700 0.62059000
v 0.15068500 0.21924600 0.63474400
v 0.15040200 0.21964200 0.63497000
v 0.15011900 0.21964200 0.63423400
v 0.15068500 0.21924600 0.63429100
v 0.14049500 0.18162500 0.64250000
v 0.12747300 0.19028800 0.64915200
v 0.12379300 0.19028800 0.62874300
v 0.11388600 0.15470500 0.65914500
v 0.09633490 0.16282900 0.63494200
v 0.12209500 0.14658100 0.63038400
v 0.10709200 0.11334800 0.65229400
v 0.05981820 0.09809000 0.65973900
v 0.06802740 0.08990910 0.63083700
v 0.06123360 0.05203370 0.65648400
v 0.04368300 0.06301700 0.65956900
v 0.04934450 0.05752530 0.64012200
v 0.03179380 0.02500000 0.65560600
v 0.03151070 0.02519820 0.65577600
v 0.03151070 0.02528310 0.65555000
v 0.03151070 0.02519820 0.65529500
v 0.03179380 0.02505660 0.65523800
v 0.43492100 0.22640800 0.46540800
v 0.43511900 0.22663400 0.46540800
v 0.43520400 0.22674800 0.46515300
v 0.43511900 0.22663400 0.46489900
v 0.43492100 0.22640800 0.46489900
v 0.41986100 0.26003700 0.47478900
v 0.40947300 0.24718600 0.44601800
v 0.39095900 0.27661700 0.48436900
v 0.39095900 0.27661700 0.44593300
v 0.37179500 0.25293200 0.45391500
v 0.32061500 0.29422400 0.47644000
v 0.29655400 0.31678500 0.47503800
v 0.31784100 0.34309100 0.47503800
v 0.30719800 0.32992800 0.44553600
v 0.28146600 0.35517900 0.46781400
v 0.28166400 0.35062100 0.45986000
v 0.28183400 0.34606400 0.46246400
v 0.26935000 0.31807600 0.47382700
v 0.24868600 0.33946800 0.47382700
v 0.25901800 0.32876800 0.44791400
v 0.22918200 0.31436200 0.48286800
v 0.20098800 0.29828100 0.45439700
v 0.22652100 0.27183000 0.45439700
v 0.17899300 0.27586100 0.47543200
v 0.17842700 0.23093700 0.47360000
v 0.15832800 0.25174300 0.47360000
v 0.16851900 0.24135400 0.44839500
v 0.14615600 0.21924600 0.46538000
v 0.14559000 0.21972700 0.46538000
v 0.14587300 0.21950100 0.46470100
v 0.13455000 0.18162500 0.47121100
v 0.11699900 0.19255200 0.47121100
v 0.12577500 0.18708900 0.45312300
v 0.10567600 0.15470500 0.48301300
v 0.09265490 0.16282900 0.45612300
v 0.11869800 0.14658100 0.45612300
v 0.10001500 0.11334800 0.47506400
v 0.05217520 0.09809000 0.47420100
v 0.06547970 0.08990910 0.44717800
v 0.05415670 0.05203370 0.47124000
v 0.03660610 0.06301700 0.47124000
v 0.04538140 0.05752530 0.45306600
v 0.02556610 0.02500000 0.46529500
v 0.02500000 0.02519820 0.46540800
v 0.02500000 0.02528310 0.46515300
v 0.02500000 0.02519820 0.46489900
v 0.02528310 0.02505660 0.46489900
v 0.43511900 0.22640800 0.36078400
v 0.43537400 0.22663400 0.36030200
v 0.39817800 0.23436200 0.36378400
v 0.41861600 0.26003700 0.36740800
v 0.41337900 0.24718600 0.33726000
v 0.34906400 0.27953300 0.36553900
v 0.34940400 0.27310400 0.33360800
v 0.29717700 0.31678500 0.34623400
v 0.31812400 0.34309100 0.34991400
v 0.31277400 0.32992800 0.31903000
v 0.28392900 0.34606400 0.33658100
v 0.28353200 0.35517900 0.33649600
v 0.28511800 0.35062100 0.32871100
v 0.27056800 0.31807600 0.34031700
v 0.25890500 0.32876800 0.34691300
v 0.25324300 0.33946800 0.31962500
v 0.26487800 0.32876800 0.31302900
v 0.23187100 0.26973800 0.32469200
v 0.21361300 0.28505500 0.34309100
v 0.22103000 0.28505500 0.30114000
v 0.18125700 0.23093700 0.32432400
v 0.16455600 0.24741200 0.32746600
v 0.16936800 0.24741200 0.29898800
v 0.18408800 0.23093700 0.30767900
v 0.15068500 0.21924600 0.31059400
v 0.15011900 0.21964200 0.31065100
v 0.15040200 0.21964200 0.30991500
v 0.15068500 0.21924600 0.31014200
v 0.13823000 0.18162500 0.31433100
v 0.12379300 0.19028800 0.31614300
v 0.12747300 0.19028800 0.29570500
v 0.10765800 0.15470500 0.32092700
v 0.09944870 0.16282900 0.29219500
v 0.12520900 0.14658100 0.29675200
v 0.10341200 0.11334800 0.31212300
v 0.05670440 0.09809000 0.30298000
v 0.07425510 0.08990910 0.27866400
v 0.05925210 0.05203370 0.30040400
v 0.04170140 0.06301700 0.29734700
v 0.05359060 0.05752530 0.28095700
v 0.03179380 0.02500000 0.28956200
v 0.03151070 0.02519820 0.28961900
v 0.03151070 0.02528310 0.28933600
v 0.03151070 0.02519820 0.28910900
v 0.03179380 0.02505660 0.28916600
v 0.52128700 0.22640800 0.36078400
v 0.52097600 0.22674800 0.36055700
v 0.52103200 0.22663400 0.36030200
v 0.55825700 0.23436200 0.36378400
v 0.53779100 0.26003700 0.36740800
v 0.54302700 0.24718600 0.33726000
v 0.60734200 0.27953300 0.36553900
v 0.60700200 0.27310400 0.33360800
v 0.65923000 0.31678500 0.34623400
v 0.63828200 0.34309100 0.34991400
v 0.64363200 0.32992800 0.31903000
v 0.67247800 0.34606400 0.33658100
v 0.67287400 0.35517900 0.33649600
v 0.67128900 0.35062100 0.32871100
v 0.68583900 0.31807600 0.34031700
v 0.69750100 0.32876800 0.34691300
v 0.70316300 0.33946800 0.31962500
v 0.69152900 0.32876800 0.31302900
v 0.72453500 0.26973800 0.32469200
v 0.74279400 0.28505500 0.34309100
v 0.73540500 0.28505500 0.30114000
v 0.77514900 0.23093700 0.32432400
v 0.79185000 0.24741200 0.32746600
v 0.78703800 0.24741200 0.29898800
v 0.77231800 0.23093700 0.30767900
v 0.80572100 0.21924600 0.31059400
v 0.80628700 0.21964200 0.31065100
v 0.80600400 0.21964200 0.30991500
v 0.80572100 0.21924600 0.31014200
v 0.81817600 0.18162500 0.31433100
v 0.83261300 0.19028800 0.31614300
v 0.82893300 0.19028800 0.29570500
v 0.84874900 0.15470500 0.32092700
v 0.85695800 0.16282900 0.29219500
v 0.83119800 0.14658100 0.29675200
v 0.85299500 0.11334800 0.31212300
v 0.89970200 0.09809000 0.30298000
v 0.88215100 0.08990910 0.27866400
v 0.89715400 0.05203370 0.30040400
v 0.91470500 0.06301700 0.29734700
v 0.90281600 0.05752530 0.28095700
v 0.92461300 0.02500000 0.28956200
v 0.92489600 0.02519820 0.28961900
v 0.92489600 0.02528310 0.28933600
v 0.92489600 0.02519820 0.28910900
v 0.92461300 0.02505660 0.28916600
v 0.45105100 0.26364100 0.79298300
v 0.45747100 0.32072900 0.80090900
v 0.46708400 0.33338200 0.80090900
v 0.47842400 0.23815600 0.82185600
v 0.47842400 0.22105800 0.80090900
v 0.47842400 0.30178500 0.77350700
v 0.47842400 0.30178500 0.82836700
v 0.50536400 0.26364100 0.79298300
v 0.49894400 0.32072900 0.80090900
v 0.48933100 0.33338200 0.80090900
v 0.47798200 0.23815600 0.82185600
v 0.47798200 0.22105800 0.80090900
v 0.47798200 0.30178500 0.77350700
v 0.47798200 0.30178500 0.82836700
v 0.52123100 0.22640800 0.58461100
v 0.52103200 0.22663400 0.58458300
v 0.52097600 0.22674800 0.58432800
v 0.52111700 0.22663400 0.58407300
v 0.52128700 0.22640800 0.58410200
v 0.53445000 0.26003700 0.59647200
v 0.54965100 0.24718600 0.56994800
v 0.56122900 0.27661700 0.61093700
v 0.56788100 0.27661700 0.57306200
v 0.58537500 0.25293200 0.58427100
v 0.63188500 0.29422400 0.61532500
v 0.65580500 0.31678500 0.61812700
v 0.63485700 0.34309100 0.61441900
v 0.65045400 0.32992800 0.58724400
v 0.67194000 0.35517900 0.61365500
v 0.67312900 0.35062100 0.60578500
v 0.67247800 0.34606400 0.60833300
v 0.68283800 0.31807600 0.62166600
v 0.70316300 0.33946800 0.62526100
v 0.69750100 0.32876800 0.59794400
v 0.72079900 0.31436200 0.63754600
v 0.75352200 0.29828100 0.61441900
v 0.72838500 0.27183000 0.60997500
v 0.77175200 0.27586100 0.63896200
v 0.77231800 0.23093700 0.63720600
v 0.79213400 0.25174300 0.64068800
v 0.78647200 0.24135400 0.61413600
v 0.80572100 0.21924600 0.63474400
v 0.80628700 0.21972700 0.63482900
v 0.80600400 0.21950100 0.63414900
v 0.81591200 0.18162500 0.64250000
v 0.83346200 0.19255200 0.64555700
v 0.82780100 0.18708900 0.62622300
v 0.84252100 0.15470500 0.65914500
v 0.86007200 0.16282900 0.63494200
v 0.83431200 0.14658100 0.63038400
v 0.84931500 0.11334800 0.65229400
v 0.89658800 0.09809000 0.65973900
v 0.88837900 0.08990910 0.63083700
v 0.89517300 0.05203370 0.65648400
v 0.91272300 0.06301700 0.65956900
v 0.90706200 0.05752530 0.64012200
v 0.92461300 0.02500000 0.65560600
v 0.92489600 0.02519820 0.65577600
v 0.92489600 0.02528310 0.65555000
v 0.92489600 0.02519820 0.65529500
v 0.92461300 0.02505660 0.65523800
v 0.52148500 0.22640800 0.46540800
v 0.52120200 0.22674800 0.46515300
v 0.52128700 0.22663400 0.46489900
v 0.55732300 0.23436200 0.47478900
v 0.53657300 0.26003700 0.47478900
v 0.54693400 0.24718600 0.44601800
v 0.60538900 0.27953300 0.48504500
v 0.61059700 0.27310400 0.45351900
v 0.65985300 0.31678500 0.47503800
v 0.63856500 0.34309100 0.47503800
v 0.64920900 0.32992800 0.44553600
v 0.67457200 0.34606400 0.46781400
v 0.67496900 0.35517900 0.46781400
v 0.67477100 0.35062100 0.45986000
v 0.68708400 0.31807600 0.47382700
v 0.69738800 0.32876800 0.48236400
v 0.70772100 0.33946800 0.45646300
v 0.69738800 0.32876800 0.44791400
v 0.72787500 0.26973800 0.46515300
v 0.74268000 0.28505500 0.48643500
v 0.74268000 0.28505500 0.44386600
v 0.77798000 0.23093700 0.47360000
v 0.79383200 0.24741200 0.47959900
v 0.79383200 0.24741200 0.45068800
v 0.77798000 0.23093700 0.45669000
v 0.81025000 0.21924600 0.46538000
v 0.81081600 0.21964200 0.46552100
v 0.81081600 0.21964200 0.46475700
v 0.81025000 0.21924600 0.46492700
v 0.82185600 0.18162500 0.47121100
v 0.83572700 0.19028800 0.47552200
v 0.83572700 0.19028800 0.45476500
v 0.85073000 0.15470500 0.48301300
v 0.86375100 0.16282900 0.45612300
v 0.83770900 0.14658100 0.45612300
v 0.85639200 0.11334800 0.47507800
v 0.90423100 0.09809000 0.47420900
v 0.89092700 0.08990910 0.44717800
v 0.90225000 0.05203370 0.47124000
v 0.91980000 0.06301700 0.47124000
v 0.91102500 0.05752530 0.45306600
v 0.93084000 0.02500000 0.46529500
v 0.93140600 0.02519820 0.46540800
v 0.93140600 0.02528310 0.46515300
v 0.93140600 0.02519820 0.46489900
v 0.93112300 0.02505660 0.46489900
v 0.49888800 0.20124300 0.03377530
v 0.45062000 0.21463200 0.03094460
v 0.53340300 0.38241100 0.29199600
v 0.46732500 0.34654500 0.34445000
v 0.51123800 0.30886200 0.32706900
v 0.58599800 0.29596200 0.22904100
v 0.48035900 0.43110000 0.21352800
v 0.58135600 0.33844900 0.16370700
v 0.57105200 0.27451900 0.09944870
v 0.48524600 0.23835400 0.02500000
v 0.45575000 0.41697400 0.28107000
v 0.40239600 0.37454100 0.26830300
v 0.44539500 0.24727100 0.24744000
v 0.40415100 0.21199900 0.15351600
f 9 2 1
f 2 3 1
f 1 5 4
f 5 6 4
f 4 6 10
f 10 6 8
f 1 3 7
f 1 7 5
f 5 7 6
f 6 7 8
f 4 9 1
f 4 10 9
f 8 11 10
f 10 11 9
f 9 11 2
f 2 11 12
f 2 12 3
f 11 13 12
f 12 13 3
f 3 13 7
f 11 8 13
f 13 8 7
f 14 18 17
f 17 18 19
f 21 17 19
f 15 20 18
f 18 20 19
f 20 25 19
f 17 21 22
f 17 22 14
f 18 14 15
f 22 23 14
f 14 23 15
f 22 24 23
f 22 27 24
f 24 16 23
f 23 16 15
f 15 16 25
f 15 25 20
f 24 26 16
f 16 26 25
f 24 27 26
f 26 27 28
f 26 28 25
f 25 28 19
f 27 22 28
f 28 22 21
f 28 21 19
f 36 29 33
f 30 34 29
f 29 34 33
f 34 35 33
f 33 35 36
f 36 35 37
f 36 37 31
f 31 37 38
f 36 31 29
f 31 38 29
f 29 38 30
f 38 32 30
f 30 32 34
f 32 39 34
f 34 39 35
f 38 37 32
f 32 37 39
f 39 37 35
f 47 40 44
f 41 45 40
f 40 45 44
f 45 46 44
f 44 46 47
f 47 46 48
f 47 48 42
f 42 48 49
f 47 42 40
f 42 49 40
f 40 49 41
f 49 43 41
f 41 43 45
f 43 50 45
f 45 50 46
f 49 48 43
f 43 48 50
f 50 48 46
f 51 52 58
f 51 58 57
f 52 53 59
f 52 59 58
f 53 54 60
f 53 60 59
f 54 55 61
f 54 61 60
f 55 56 62
f 55 62 61
f 56 51 57
f 56 57 62
f 57 58 64
f 57 64 63
f 58 59 65
f 58 65 64
f 59 60 66
f 59 66 65
f 60 61 67
f 60 67 66
f 61 62 68
f 61 68 67
f 62 57 63
f 62 63 68
f 63 64 70
f 63 70 69
f 64 65 71
f 64 71 70
f 65 66 72
f 65 72 71
f 66 67 73
f 66 73 72
f 67 68 74
f 67 74 73
f 68 63 69
f 68 69 74
f 69 70 76
f 69 76 75
f 70 71 77
f 70 77 76
f 71 72 78
f 71 78 77
f 72 73 79
f 72 79 78
f 73 74 80
f 73 80 79
f 74 69 75
f 74 75 80
f 75 76 82
f 75 82 81
f 76 77 83
f 76 83 82
f 77 78 84
f 77 84 83
f 78 79 85
f 78 85 84
f 79 80 86
f 79 86 85
f 80 75 81
f 80 81 86
f 81 82 88
f 81 88 87
f 82 83 89
f 82 89 88
f 83 84 90
f 83 90 89
f 84 85 91
f 84 91 90
f 85 86 92
f 85 92 91
f 86 81 87
f 86 87 92
f 87 88 94
f 87 94 93
f 88 89 95
f 88 95 94
f 89 90 96
f 89 96 95
f 90 91 97
f 90 97 96
f 91 92 98
f 91 98 97
f 92 87 93
f 92 93 98
f 93 94 100
f 93 100 99
f 94 95 101
f 94 101 100
f 95 96 102
f 95 102 101
f 96 97 103
f 96 103 102
f 97 98 104
f 97 104 103
f 98 93 99
f 98 99 104
f 99 100 106
f 99 106 105
f 100 101 107
f 100 107 106
f 101 102 108
f 101 108 107
f 102 103 109
f 102 109 108
f 103 104 110
f 103 110 109
f 104 99 105
f 104 105 110
f 105 106 112
f 105 112 111
f 106 107 113
f 106 113 112
f 107 108 114
f 107 114 113
f 108 109 115
f 108 115 114
f 109 110 116
f 109 116 115
f 110 105 111
f 110 111 116
f 53 52 51
f 54 53 51
f 55 54 51
f 56 55 51
f 113 114 112
f 114 115 112
f 115 116 112
f 116 111 112
f 124 118 117
f 123 124 117
f 125 119 118
f 124 125 118
f 126 120 119
f 125 126 119
f 127 121 120
f 126 127 120
f 128 122 121
f 127 128 121
f 123 117 122
f 128 123 122
f 130 124 123
f 129 130 123
f 131 125 124
f 130 131 124
f 132 126 125
f 131 132 125
f 133 127 126
f 132 133 126
f 134 128 127
f 133 134 127
f 129 123 128
f 134 129 128
f 136 130 129
f 135 136 129
f 137 131 130
f 136 137 130
f 138 132 131
f 137 138 131
f 139 133 132
f 138 139 132
f 140 134 133
f 139 140 133
f 135 129 134
f 140 135 134
f 142 136 135
f 141 142 135
f 143 137 136
f 142 143 136
f 144 138 137
f 143 144 137
f 145 139 138
f 144 145 138
f 146 140 139
f 145 146 139
f 141 135 140
f 146 141 140
f 148 142 141
f 147 148 141
f 149 143 142
f 148 149 142
f 150 144 143
f 149 150 143
f 151 145 144
f 150 151 144
f 152 146 145
f 151 152 145
f 147 141 146
f 152 147 146
f 154 148 147
f 153 154 147
f 155 149 148
f 154 155 148
f 156 150 149
f 155 156 149
f 157 151 150
f 156 157 150
f 158 152 151
f 157 158 151
f 153 147 152
f 158 153 152
f 160 154 153
f 159 160 153
f 161 155 154
f 160 161 154
f 162 156 155
f 161 162 155
f 163 157 156
f 162 163 156
f 164 158 157
f 163 164 157
f 159 153 158
f 164 159 158
f 166 160 159
f 165 166 159
f 167 161 160
f 166 167 160
f 168 162 161
f 167 168 161
f 169 163 162
f 168 169 162
f 170 164 163
f 169 170 163
f 165 159 164
f 170 165 164
f 172 166 165
f 171 172 165
f 173 167 166
f 172 173 166
f 174 168 167
f 173 174 167
f 175 169 168
f 174 175 168
f 176 170 169
f 175 176 169
f 171 165 170
f 176 171 170
f 178 172 171
f 177 178 171
f 179 173 172
f 178 179 172
f 180 174 173
f 179 180 173
f 181 175 174
f 180 181 174
f 182 176 175
f 181 182 175
f 177 171 176
f 182 177 176
f 117 118 119
f 117 119 120
f 117 120 121
f 117 121 122
f 178 180 179
f 178 181 180
f 178 182 181
f 178 177 182
f 183 186 185
f 183 184 186
f 184 187 186
f 184 183 187
f 183 185 187
f 185 188 189
f 185 186 188
f 187 185 189
f 189 188 190
f 188 191 190
f 188 186 191
f 186 192 191
f 186 187 192
f 187 189 192
f 190 191 194
f 190 194 193
f 191 192 195
f 191 195 194
f 192 189 195
f 189 190 193
f 189 193 195
f 193 197 196
f 193 194 197
f 194 198 197
f 194 195 198
f 195 199 198
f 195 193 196
f 197 201 196
f 199 202 198
f 195 196 200
f 195 200 199
f 196 201 200
f 197 198 201
f 199 200 202
f 200 201 204
f 200 204 203
f 201 198 205
f 201 205 204
f 198 202 205
f 202 206 205
f 202 200 203
f 202 203 206
f 203 204 208
f 203 208 207
f 204 205 209
f 204 209 208
f 205 206 210
f 205 210 209
f 206 203 207
f 206 207 210
f 207 208 212
f 207 212 211
f 208 209 213
f 208 213 212
f 209 210 213
f 210 207 211
f 211 214 216
f 211 212 214
f 212 215 214
f 212 213 215
f 213 216 215
f 213 210 216
f 210 211 216
f 216 214 217
f 217 214 218
f 214 215 218
f 215 219 218
f 215 216 219
f 217 218 221
f 217 221 220
f 218 219 222
f 218 222 221
f 219 216 222
f 216 217 220
f 220 221 224
f 220 224 223
f 221 225 224
f 221 222 225
f 222 226 225
f 222 227 226
f 222 216 227
f 216 220 223
f 216 223 227
f 224 225 226
f 226 227 223
f 223 224 226
f 231 230 229
f 228 232 231
f 231 229 228
f 228 229 233
f 229 230 233
f 230 231 234
f 230 234 233
f 231 232 234
f 228 233 235
f 233 234 236
f 234 232 237
f 232 228 237
f 228 235 238
f 233 236 235
f 234 237 236
f 237 228 238
f 238 235 240
f 238 240 239
f 235 236 240
f 236 241 240
f 236 237 241
f 237 238 239
f 237 239 241
f 239 242 244
f 239 240 242
f 240 241 243
f 240 243 242
f 241 244 243
f 241 239 244
f 244 242 245
f 242 246 245
f 242 243 247
f 242 247 246
f 243 244 247
f 245 246 248
f 246 247 249
f 247 244 250
f 244 245 250
f 250 245 252
f 245 248 252
f 246 249 248
f 247 250 249
f 252 248 251
f 248 249 251
f 252 251 253
f 251 249 254
f 251 254 253
f 249 250 254
f 252 253 256
f 252 256 255
f 253 254 257
f 253 257 256
f 254 250 257
f 250 252 255
f 250 255 257
f 255 256 259
f 255 259 258
f 256 257 260
f 256 260 259
f 257 255 258
f 258 261 263
f 258 259 261
f 259 262 261
f 259 260 262
f 260 263 262
f 260 257 263
f 257 258 263
f 263 261 264
f 264 261 265
f 261 262 265
f 262 266 265
f 262 263 266
f 264 265 268
f 264 268 267
f 265 266 269
f 265 269 268
f 266 263 269
f 263 264 267
f 267 268 271
f 267 271 270
f 268 272 271
f 268 269 272
f 269 273 272
f 269 274 273
f 269 263 274
f 263 267 270
f 263 270 274
f 271 272 273
f 273 274 270
f 270 271 273
f 275 278 277
f 275 276 278
f 276 279 278
f 276 277 279
f 276 275 277
f 277 280 281
f 277 278 280
f 279 277 281
f 281 280 282
f 280 283 282
f 280 278 283
f 278 284 283
f 278 279 284
f 279 281 284
f 282 283 286
f 282 286 285
f 283 284 287
f 283 287 286
f 284 281 287
f 281 282 285
f 281 285 287
f 285 289 288
f 285 286 289
f 286 290 289
f 286 287 290
f 287 291 290
f 287 285 288
f 289 293 288
f 291 294 290
f 287 288 292
f 287 292 291
f 288 293 292
f 289 290 293
f 291 292 294
f 292 293 296
f 292 296 295
f 293 290 297
f 293 297 296
f 290 294 297
f 294 298 297
f 294 292 295
f 294 295 298
f 295 296 300
f 295 300 299
f 296 297 301
f 296 301 300
f 297 298 302
f 297 302 301
f 298 295 299
f 298 299 302
f 299 300 304
f 299 304 303
f 300 301 305
f 300 305 304
f 301 302 305
f 302 299 303
f 303 306 308
f 303 304 306
f 304 307 306
f 304 305 307
f 305 308 307
f 305 302 308
f 302 303 308
f 308 306 309
f 309 306 310
f 306 307 310
f 307 311 310
f 307 308 311
f 309 310 313
f 309 313 312
f 310 311 314
f 310 314 313
f 311 308 314
f 308 309 312
f 312 313 316
f 312 316 315
f 313 317 316
f 313 314 317
f 314 318 317
f 314 319 318
f 314 308 319
f 308 312 315
f 308 315 319
f 316 317 318
f 318 319 315
f 315 316 318
f 320 321 322
f 323 324 320
f 324 321 320
f 325 322 321
f 324 325 321
f 325 323 322
f 323 320 322
f 327 326 323
f 326 324 323
f 327 323 325
f 328 326 327
f 328 329 326
f 329 324 326
f 329 330 324
f 330 325 324
f 330 327 325
f 332 329 328
f 331 332 328
f 333 330 329
f 332 333 329
f 333 327 330
f 331 328 327
f 333 331 327
f 334 335 331
f 335 332 331
f 335 336 332
f 336 333 332
f 336 337 333
f 334 331 333
f 334 339 335
f 336 340 337
f 338 334 333
f 337 338 333
f 338 339 334
f 339 336 335
f 340 338 337
f 342 339 338
f 341 342 338
f 343 336 339
f 342 343 339
f 343 340 336
f 343 344 340
f 341 338 340
f 344 341 340
f 346 342 341
f 345 346 341
f 347 343 342
f 346 347 342
f 348 344 343
f 347 348 343
f 345 341 344
f 348 345 344
f 350 346 345
f 349 350 345
f 351 347 346
f 350 351 346
f 351 348 347
f 349 345 348
f 354 352 349
f 352 350 349
f 352 353 350
f 353 351 350
f 353 354 351
f 354 348 351
f 354 349 348
f 355 352 354
f 356 352 355
f 356 353 352
f 356 357 353
f 357 354 353
f 359 356 355
f 358 359 355
f 360 357 356
f 359 360 356
f 360 354 357
f 358 355 354
f 362 359 358
f 361 362 358
f 362 363 359
f 363 360 359
f 363 364 360
f 364 365 360
f 365 354 360
f 361 358 354
f 365 361 354
f 364 363 362
f 361 365 364
f 364 362 361
f 366 372 367
f 366 369 372
f 369 366 370
f 366 371 370
f 366 367 371
f 367 368 371
f 367 372 368
f 369 370 371
f 369 371 368
f 369 368 372
f 374 379 373
f 379 376 373
f 377 373 376
f 377 378 373
f 378 374 373
f 378 375 374
f 375 379 374
f 378 377 376
f 375 378 376
f 379 375 376
f 381 382 383
f 383 384 380
f 380 381 383
f 385 381 380
f 385 382 381
f 385 386 382
f 386 383 382
f 386 384 383
f 387 385 380
f 388 386 385
f 389 384 386
f 389 380 384
f 390 387 380
f 387 388 385
f 388 389 386
f 390 380 389
f 392 387 390
f 391 392 390
f 392 388 387
f 392 393 388
f 393 389 388
f 391 390 389
f 393 391 389
f 396 394 391
f 394 392 391
f 395 393 392
f 394 395 392
f 395 396 393
f 396 391 393
f 397 394 396
f 397 398 394
f 399 395 394
f 398 399 394
f 399 396 395
f 400 398 397
f 401 399 398
f 402 396 399
f 402 397 396
f 404 397 402
f 404 400 397
f 400 401 398
f 401 402 399
f 403 400 404
f 403 401 400
f 405 403 404
f 406 401 403
f 405 406 403
f 406 402 401
f 408 405 404
f 407 408 404
f 409 406 405
f 408 409 405
f 409 402 406
f 407 404 402
f 409 407 402
f 411 408 407
f 410 411 407
f 412 409 408
f 411 412 408
f 410 407 409
f 415 413 410
f 413 411 410
f 413 414 411
f 414 412 411
f 414 415 412
f 415 409 412
f 415 410 409
f 416 413 415
f 417 413 416
f 417 414 413
f 417 418 414
f 418 415 414
f 420 417 416
f 419 420 416
f 421 418 417
f 420 421 417
f 421 415 418
f 419 416 415
f 423 420 419
f 422 423 419
f 423 424 420
f 424 421 420
f 424 425 421
f 425 426 421
f 426 415 421
f 422 419 415
f 426 422 415
f 425 424 423
f 422 426 425
f 425 423 422
f 427 428 429
f 430 431 427
f 431 428 427
f 432 429 428
f 431 432 428
f 432 430 429
f 430 427 429
f 434 433 430
f 433 431 430
f 434 430 432
f 435 433 434
f 435 436 433
f 436 431 433
f 436 437 431
f 437 432 431
f 437 434 432
f 439 436 435
f 438 439 435
f 440 437 436
f 439 440 436
f 440 434 437
f 438 435 434
f 440 438 434
f 441 442 438
f 442 439 438
f 442 443 439
f 443 440 439
f 443 444 440
f 441 438 440
f 441 446 442
f 443 447 444
f 445 441 440
f 444 445 440
f 445 446 441
f 446 443 442
f 447 445 444
f 449 446 445
f 448 449 445
f 450 443 446
f 449 450 446
f 450 447 443
f 450 451 447
f 448 445 447
f 451 448 447
f 453 449 448
f 452 453 448
f 454 450 449
f 453 454 449
f 455 451 450
f 454 455 450
f 452 448 451
f 455 452 451
f 457 453 452
f 456 457 452
f 458 454 453
f 457 458 453
f 458 455 454
f 456 452 455
f 461 459 456
f 459 457 456
f 459 460 457
f 460 458 457
f 460 461 458
f 461 455 458
f 461 456 455
f 462 459 461
f 463 459 462
f 463 460 459
f 463 464 460
f 464 461 460
f 466 463 462
f 465 466 462
f 467 464 463
f 466 467 463
f 467 461 464
f 465 462 461
f 469 466 465
f 468 469 465
f 469 470 466
f 470 467 466
f 470 471 467
f 471 472 467
f 472 461 467
f 468 465 461
f 472 468 461
f 471 470 469
f 468 472 471
f 471 469 468
f 483 476 475
f 476 477 475
f 477 478 475
f 475 478 480
f 475 479 483
f 475 480 479
f 480 478 481
f 480 481 482
f 480 482 479
f 479 482 474
f 481 473 482
f 482 473 474
f 479 484 483
f 483 484 476
f 479 474 484
f 484 474 486
f 484 486 476
f 486 485 476
f 476 485 477
f 477 485 478
f 486 474 473
f 486 473 485
f 485 473 478
f 473 481 478

