# https://github.com/mikedh/trimesh

o m32.off
v 0.24727600 0.60961500 0.86690700
v 0.23890200 0.60352600 0.87984800
v 0.24423100 0.61570500 0.86919100
v 0.24042500 0.61875000 0.87299700
v 0.23585700 0.62027200 0.87756400
v 0.23205100 0.61875000 0.88289300
v 0.22900600 0.61570500 0.88746000
v 0.22748400 0.60961500 0.89126600
v 0.22748400 0.60352600 0.89278800
v 0.22976800 0.59743600 0.89278800
v 0.23281200 0.59210700 0.89126600
v 0.23661900 0.58830100 0.88746000
v 0.24118600 0.58677900 0.88213100
v 0.24499200 0.58830100 0.87756400
v 0.24803700 0.59210700 0.87223600
v 0.24955900 0.59743600 0.86919100
v 0.24955900 0.60352600 0.86690700
v 0.25184300 0.61113800 0.87223600
v 0.24879800 0.61570500 0.87451900
v 0.24499200 0.61951100 0.87756400
v 0.24118600 0.62027200 0.88213100
v 0.23738000 0.61951100 0.88669900
v 0.23433500 0.61570500 0.89126600
v 0.23357400 0.61113800 0.89431100
v 0.23357400 0.60504800 0.89583300
v 0.23509600 0.59895800 0.89583300
v 0.23814100 0.59439100 0.89431100
v 0.24194700 0.59058500 0.89050500
v 0.24575300 0.58982400 0.88593800
v 0.24955900 0.59058500 0.88137000
v 0.25260400 0.59439100 0.87756400
v 0.25336500 0.59895800 0.87375800
v 0.25336500 0.60504800 0.87223600
v 0.25412700 0.61037700 0.87832500
v 0.25184300 0.61418300 0.87984800
v 0.24879800 0.61722800 0.88289300
v 0.24575300 0.61798900 0.88593800
v 0.24270800 0.61722800 0.88974400
v 0.24118600 0.61418300 0.89278800
v 0.23966300 0.61037700 0.89583300
v 0.23966300 0.60580900 0.89659500
v 0.24118600 0.60200300 0.89659500
v 0.24347000 0.59819700 0.89507200
v 0.24651400 0.59515200 0.89278800
v 0.24955900 0.59439100 0.88898200
v 0.25260400 0.59515200 0.88593800
v 0.25412700 0.59819700 0.88213100
v 0.25564900 0.60200300 0.87984800
v 0.25564900 0.60580900 0.87832500
v 0.25412700 0.60961500 0.88517600
v 0.25260400 0.61113800 0.88593800
v 0.25108200 0.61266000 0.88746000
v 0.24955900 0.61342100 0.88898200
v 0.24803700 0.61266000 0.89126600
v 0.24651400 0.61113800 0.89278800
v 0.24575300 0.60961500 0.89431100
v 0.24651400 0.60657100 0.89507200
v 0.24727600 0.60428700 0.89507200
v 0.24803700 0.60276400 0.89431100
v 0.24955900 0.60124200 0.89278800
v 0.25108200 0.60048100 0.89050500
v 0.25260400 0.60124200 0.88898200
v 0.25412700 0.60276400 0.88669900
v 0.25488800 0.60428700 0.88593800
v 0.25488800 0.60657100 0.88517600
v 0.25108200 0.60733200 0.89050500
v 0.16506400 0.60352600 0.87984800
v 0.15592900 0.60961500 0.86690700
v 0.15973600 0.61570500 0.86919100
v 0.16354200 0.61875000 0.87299700
v 0.16810900 0.62027200 0.87756400
v 0.17191500 0.61875000 0.88289300
v 0.17496000 0.61570500 0.88746000
v 0.17648200 0.60961500 0.89126600
v 0.17648200 0.60352600 0.89278800
v 0.17419900 0.59743600 0.89278800
v 0.17115400 0.59210700 0.89126600
v 0.16658700 0.58830100 0.88746000
v 0.16278000 0.58677900 0.88213100
v 0.15821300 0.58830100 0.87756400
v 0.15592900 0.59210700 0.87223600
v 0.15440700 0.59743600 0.86919100
v 0.15440700 0.60352600 0.86690700
v 0.15212300 0.61113800 0.87223600
v 0.15516800 0.61570500 0.87451900
v 0.15897400 0.61951100 0.87756400
v 0.16278000 0.62027200 0.88213100
v 0.16658700 0.61951100 0.88669900
v 0.16887000 0.61570500 0.89126600
v 0.17039300 0.61113800 0.89431100
v 0.17039300 0.60504800 0.89583300
v 0.16887000 0.59895800 0.89583300
v 0.16582500 0.59439100 0.89431100
v 0.16201900 0.59058500 0.89050500
v 0.15821300 0.58982400 0.88593800
v 0.15440700 0.59058500 0.88137000
v 0.15136200 0.59439100 0.87756400
v 0.14984000 0.59895800 0.87375800
v 0.15060100 0.60504800 0.87223600
v 0.14984000 0.61037700 0.87832500
v 0.15212300 0.61418300 0.87984800
v 0.15516800 0.61722800 0.88289300
v 0.15821300 0.61798900 0.88593800
v 0.16125800 0.61722800 0.88974400
v 0.16278000 0.61418300 0.89278800
v 0.16430300 0.61037700 0.89583300
v 0.16430300 0.60580900 0.89659500
v 0.16278000 0.60200300 0.89659500
v 0.16049700 0.59819700 0.89507200
v 0.15745200 0.59515200 0.89278800
v 0.15440700 0.59439100 0.88898200
v 0.15136200 0.59515200 0.88593800
v 0.14984000 0.59819700 0.88213100
v 0.14831700 0.60200300 0.87984800
v 0.14831700 0.60580900 0.87832500
v 0.14984000 0.60961500 0.88517600
v 0.15136200 0.61113800 0.88593800
v 0.15288500 0.61266000 0.88746000
v 0.15440700 0.61342100 0.88898200
v 0.15592900 0.61266000 0.89126600
v 0.15745200 0.61113800 0.89278800
v 0.15745200 0.60961500 0.89431100
v 0.15745200 0.60657100 0.89507200
v 0.15669100 0.60428700 0.89507200
v 0.15592900 0.60276400 0.89431100
v 0.15440700 0.60124200 0.89278800
v 0.15212300 0.60048100 0.89050500
v 0.15060100 0.60124200 0.88898200
v 0.14984000 0.60276400 0.88669900
v 0.14907900 0.60428700 0.88593800
v 0.14907900 0.60657100 0.88517600
v 0.15288500 0.60733200 0.89050500
v 0.20769200 0.57459900 0.97043300
v 0.20617000 0.57612200 0.97119400
v 0.20388600 0.56927100 0.97500000
v 0.20769200 0.57003200 0.96814900
v 0.20845400 0.57231600 0.96891000
v 0.20388600 0.56851000 0.96662700
v 0.20617000 0.56851000 0.96662700
v 0.20845400 0.57992800 0.96510400
v 0.21149800 0.57764400 0.96434300
v 0.21226000 0.57459900 0.96358200
v 0.21149800 0.57079300 0.96205900
v 0.20845400 0.56851000 0.96205900
v 0.20388600 0.57688300 0.97119400
v 0.20388600 0.58145000 0.96510400
v 0.21073700 0.58449500 0.95368600
v 0.21530400 0.58068900 0.95292500
v 0.21758800 0.57612200 0.95292500
v 0.21530400 0.57079300 0.95216300
v 0.20388600 0.56774800 0.96129800
v 0.21073700 0.56698700 0.95140200
v 0.20388600 0.58601800 0.95368600
v 0.21302100 0.58982400 0.94226800
v 0.21911100 0.58449500 0.94150600
v 0.22139400 0.57764400 0.94074500
v 0.21911100 0.57003200 0.93998400
v 0.20388600 0.56546500 0.95140200
v 0.21302100 0.56470400 0.93922300
v 0.20388600 0.59210700 0.94226800
v 0.21530400 0.59743600 0.92628200
v 0.22443900 0.58982400 0.92476000
v 0.22748400 0.57916700 0.92399800
v 0.22443900 0.56927100 0.92247600
v 0.20388600 0.56242000 0.93922300
v 0.21530400 0.56165900 0.92171500
v 0.20388600 0.60048100 0.92628200
v 0.21834900 0.60657100 0.90953500
v 0.22900600 0.59591300 0.90877400
v 0.23281200 0.58145000 0.90649000
v 0.22900600 0.56698700 0.90496800
v 0.20388600 0.55861400 0.92095400
v 0.21834900 0.55633000 0.90344600
v 0.20388600 0.61037700 0.91029600
v 0.23890200 0.58068900 0.90040100
v 0.23433500 0.56318100 0.89735600
v 0.24194700 0.56470400 0.89126600
v 0.20008000 0.57459900 0.97043300
v 0.19931900 0.57231600 0.96891000
v 0.20008000 0.57003200 0.96814900
v 0.20160300 0.56851000 0.96662700
v 0.20160300 0.57612200 0.97119400
v 0.19931900 0.57992800 0.96510400
v 0.19627400 0.57764400 0.96434300
v 0.19551300 0.57459900 0.96358200
v 0.19627400 0.57079300 0.96205900
v 0.19931900 0.56851000 0.96205900
v 0.19703500 0.58449500 0.95368600
v 0.19246800 0.58068900 0.95292500
v 0.19018400 0.57612200 0.95292500
v 0.19246800 0.57079300 0.95216300
v 0.19703500 0.56698700 0.95140200
v 0.19475200 0.58982400 0.94226800
v 0.18866200 0.58449500 0.94150600
v 0.18637800 0.57764400 0.94074500
v 0.18866200 0.57003200 0.93998400
v 0.19475200 0.56470400 0.93922300
v 0.19246800 0.59743600 0.92628200
v 0.18333300 0.58982400 0.92476000
v 0.18028800 0.57916700 0.92399800
v 0.18333300 0.56927100 0.92247600
v 0.19246800 0.56165900 0.92171500
v 0.18942300 0.60657100 0.90953500
v 0.17876600 0.59591300 0.90877400
v 0.17496000 0.58145000 0.90649000
v 0.17876600 0.56698700 0.90496800
v 0.18942300 0.55633000 0.90344600
v 0.20388600 0.55252400 0.90344600
v 0.16887000 0.58068900 0.90040100
v 0.17343800 0.56318100 0.89735600
v 0.16582500 0.56470400 0.89126600
v 0.30588900 0.07980770 0.66594600
v 0.29827700 0.08209130 0.66746800
v 0.30817300 0.08209130 0.68345400
v 0.28000800 0.05392630 0.61266000
v 0.28153000 0.05773240 0.61037700
v 0.28076900 0.04479170 0.59743600
v 0.28533700 0.05697120 0.60885400
v 0.28609800 0.05088140 0.61266000
v 0.28153000 0.05088140 0.61418300
v 0.28229200 0.06077720 0.62940700
v 0.28762000 0.05392630 0.61037700
v 0.29142600 0.06458330 0.62407900
v 0.28533700 0.06610580 0.62560100
v 0.28457500 0.05620990 0.63092900
v 0.29218800 0.05544870 0.62864600
v 0.29447100 0.06001600 0.62560100
v 0.28153000 0.06229970 0.63321300
v 0.29294900 0.06686700 0.62636200
v 0.28533700 0.06838940 0.62788500
v 0.28457500 0.05620990 0.63625800
v 0.29523200 0.05544870 0.63397400
v 0.29751600 0.06077720 0.62864600
v 0.28381400 0.06306090 0.63625800
v 0.29371000 0.06762820 0.63016800
v 0.28685900 0.06838940 0.63169100
v 0.28609800 0.05773240 0.63854200
v 0.29447100 0.05697120 0.63625800
v 0.29675500 0.06153850 0.63245200
v 0.29371000 0.07143430 0.66442300
v 0.30284500 0.07752400 0.65757200
v 0.29523200 0.07904650 0.65909500
v 0.29675500 0.06306090 0.66822900
v 0.30588900 0.06153850 0.66594600
v 0.30741200 0.06915060 0.66061700
v 0.29294900 0.07295670 0.66746800
v 0.30360600 0.07980770 0.66061700
v 0.29599400 0.08209130 0.66213900
v 0.29675500 0.06382210 0.67203500
v 0.30741200 0.06153850 0.66899000
v 0.30893400 0.07067310 0.66366200
v 0.29523200 0.07371800 0.67203500
v 0.29751600 0.06534450 0.67431900
v 0.30665100 0.06458330 0.67203500
v 0.30893400 0.07219550 0.66822900
v 0.29751600 0.07371800 0.69258800
v 0.31654600 0.08361380 0.68497600
v 0.30436700 0.06382210 0.69867800
v 0.32339700 0.07371800 0.69106600
v 0.32035300 0.06382210 0.69411100
v 0.29675500 0.05849360 0.79611400
v 0.29371000 0.06229970 0.79763600
v 0.28838100 0.04935900 0.80981600
v 0.28990400 0.06153850 0.79611400
v 0.29066500 0.05544870 0.79306900
v 0.29599400 0.05544870 0.79383000
v 0.30208300 0.06458330 0.77936700
v 0.28838100 0.05849360 0.79383000
v 0.29218800 0.06838940 0.78012800
v 0.29751600 0.06991190 0.78165100
v 0.30132200 0.05925480 0.77708300
v 0.29294900 0.05925480 0.77556100
v 0.28990400 0.06382210 0.77784500
v 0.30436700 0.06610580 0.77632200
v 0.29142600 0.07067310 0.77708300
v 0.29903800 0.07219550 0.77936700
v 0.30360600 0.06001600 0.77251600
v 0.29218800 0.05925480 0.77023200
v 0.28838100 0.06458330 0.77251600
v 0.30436700 0.06686700 0.77327700
v 0.29294900 0.07143430 0.77403800
v 0.29980000 0.07219550 0.77556100
v 0.30284500 0.06077720 0.77023200
v 0.29447100 0.06001600 0.76794900
v 0.29066500 0.06534450 0.77023200
v 0.30893400 0.07371800 0.74359000
v 0.29751600 0.07980770 0.74511200
v 0.30436700 0.08133010 0.74663500
v 0.30741200 0.06534450 0.73902200
v 0.29827700 0.06382210 0.73673900
v 0.29523200 0.07143430 0.73978400
v 0.31121800 0.07524040 0.74054500
v 0.29751600 0.08209130 0.74130600
v 0.30588900 0.08437500 0.74359000
v 0.30893400 0.06534450 0.73521600
v 0.29827700 0.06382210 0.73293300
v 0.29447100 0.07295670 0.73673900
v 0.31121800 0.07600160 0.73521600
v 0.29903800 0.08209130 0.73597800
v 0.30588900 0.08437500 0.73750000
v 0.30969600 0.06762820 0.73217100
v 0.30056100 0.06610580 0.73064900
v 0.29675500 0.07371800 0.73217100
v 0.31350200 0.07752400 0.70781200
v 0.30208300 0.08741990 0.69791700
v 0.31578500 0.06534450 0.71466300
v 0.29903800 0.07600160 0.70400600
v 0.31121800 0.08970350 0.70096200
v 0.30284500 0.06534450 0.71009600
v 0.37287700 0.06229970 0.77708300
v 0.36983200 0.05849360 0.77708300
v 0.38277200 0.04935900 0.78621800
v 0.37592100 0.06153850 0.77480000
v 0.36983200 0.05544870 0.77556100
v 0.37363800 0.05544870 0.77175500
v 0.35765200 0.06458330 0.76566500
v 0.37668300 0.05849360 0.77251600
v 0.36678700 0.06838940 0.76109800
v 0.36222000 0.06991190 0.76490400
v 0.35765200 0.05925480 0.76262000
v 0.36374200 0.05925480 0.75805300
v 0.36754800 0.06382210 0.75805300
v 0.35460700 0.06610580 0.76414300
v 0.36678700 0.07067310 0.75805300
v 0.36069700 0.07219550 0.76414300
v 0.35308500 0.06001600 0.75957500
v 0.36222000 0.05925480 0.75272400
v 0.36678700 0.06458330 0.75348600
v 0.35308500 0.06686700 0.76033700
v 0.36298100 0.07143430 0.75576900
v 0.35841300 0.07219550 0.76033700
v 0.35232400 0.06077720 0.75729200
v 0.35993600 0.06001600 0.75120200
v 0.36374200 0.06534450 0.75196300
v 0.33557700 0.07371800 0.73597800
v 0.34547300 0.07980770 0.73217100
v 0.34090500 0.08133010 0.73750000
v 0.33481600 0.06534450 0.73141000
v 0.34166700 0.06382210 0.72532100
v 0.34623400 0.07143430 0.72684300
v 0.33177100 0.07524040 0.73445500
v 0.34395000 0.08209130 0.72988800
v 0.33786100 0.08437500 0.73521600
v 0.33101000 0.06534450 0.72912700
v 0.34014400 0.06382210 0.72227600
v 0.34471200 0.07295670 0.72379800
v 0.32948700 0.07600160 0.72988800
v 0.34090500 0.08209130 0.72455900
v 0.33481600 0.08437500 0.72988800
v 0.32948700 0.06762820 0.72684300
v 0.33709900 0.06610580 0.72075300
v 0.34166700 0.07371800 0.72075300
v 0.31806900 0.08741990 0.69411100
v 0.32568100 0.07600160 0.69943900
v 0.32568100 0.06458330 0.70552900
v 0.30056100 0.08361380 0.68954300
v 0.31350200 0.06458330 0.70248400
v 0.27011200 0.19170700 0.63321300
v 0.26782900 0.18713900 0.62027200
v 0.29142600 0.18713900 0.61494400
v 0.29371000 0.19170700 0.62712300
v 0.27924700 0.18485600 0.61189900
v 0.28381400 0.19475200 0.63778000
v 0.26859000 0.19475200 0.63169100
v 0.26630600 0.19170700 0.61646600
v 0.29218800 0.19246800 0.61037700
v 0.29447100 0.19551300 0.62484000
v 0.27848600 0.19094600 0.60733200
v 0.28381400 0.19703500 0.63701900
v 0.26859000 0.19855800 0.63092900
v 0.26554500 0.19703500 0.61646600
v 0.29066500 0.19855800 0.61037700
v 0.29371000 0.20008000 0.62484000
v 0.27848600 0.19703500 0.60733200
v 0.28305300 0.20008000 0.63625800
v 0.26630600 0.20617000 0.63092900
v 0.26402200 0.20312500 0.61722800
v 0.28838100 0.20769200 0.61037700
v 0.29066500 0.21073700 0.62484000
v 0.27620200 0.20388600 0.60809300
v 0.28076900 0.21073700 0.63625800
v 0.10949500 0.08209130 0.66746800
v 0.10188300 0.07980770 0.66594600
v 0.09959940 0.08209130 0.68345400
v 0.12624200 0.05773240 0.61037700
v 0.12776400 0.05392630 0.61266000
v 0.12700300 0.04479170 0.59743600
v 0.12243600 0.05697120 0.60885400
v 0.12624200 0.05088140 0.61418300
v 0.12167500 0.05088140 0.61266000
v 0.12548100 0.06077720 0.62940700
v 0.12015200 0.05392630 0.61037700
v 0.11634600 0.06458330 0.62407900
v 0.12243600 0.06610580 0.62560100
v 0.12319700 0.05620990 0.63092900
v 0.11558500 0.05544870 0.62864600
v 0.11330100 0.06001600 0.62560100
v 0.12624200 0.06229970 0.63321300
v 0.11482400 0.06686700 0.62636200
v 0.12243600 0.06838940 0.62788500
v 0.12319700 0.05620990 0.63625800
v 0.11254000 0.05544870 0.63397400
v 0.11025600 0.06077720 0.62864600
v 0.12395800 0.06306090 0.63625800
v 0.11406300 0.06762820 0.63016800
v 0.12091300 0.06838940 0.63169100
v 0.12167500 0.05773240 0.63854200
v 0.11330100 0.05697120 0.63625800
v 0.11101800 0.06153850 0.63245200
v 0.11406300 0.07143430 0.66442300
v 0.10492800 0.07752400 0.65757200
v 0.11254000 0.07904650 0.65909500
v 0.11101800 0.06306090 0.66822900
v 0.10188300 0.06153850 0.66594600
v 0.10036100 0.06915060 0.66061700
v 0.11482400 0.07295670 0.66746800
v 0.10416700 0.07980770 0.66061700
v 0.11177900 0.08209130 0.66213900
v 0.11101800 0.06382210 0.67203500
v 0.10036100 0.06153850 0.66899000
v 0.09883810 0.07067310 0.66366200
v 0.11254000 0.07371800 0.67203500
v 0.11025600 0.06534450 0.67431900
v 0.10112200 0.06458330 0.67203500
v 0.09883810 0.07219550 0.66822900
v 0.11025600 0.07371800 0.69258800
v 0.09122600 0.08361380 0.68497600
v 0.10340500 0.06382210 0.69867800
v 0.08437500 0.07371800 0.69106600
v 0.08741990 0.06382210 0.69411100
v 0.11406300 0.06229970 0.79763600
v 0.11101800 0.05849360 0.79611400
v 0.11939100 0.04935900 0.80981600
v 0.11786900 0.06153850 0.79611400
v 0.11177900 0.05544870 0.79383000
v 0.11710700 0.05544870 0.79306900
v 0.10568900 0.06458330 0.77936700
v 0.11939100 0.05849360 0.79383000
v 0.11558500 0.06838940 0.78012800
v 0.11025600 0.06991190 0.78165100
v 0.10645000 0.05925480 0.77708300
v 0.11482400 0.05925480 0.77556100
v 0.11786900 0.06382210 0.77784500
v 0.10340500 0.06610580 0.77632200
v 0.11634600 0.07067310 0.77708300
v 0.10873400 0.07219550 0.77936700
v 0.10416700 0.06001600 0.77251600
v 0.11558500 0.05925480 0.77023200
v 0.11939100 0.06458330 0.77251600
v 0.10340500 0.06686700 0.77327700
v 0.11482400 0.07143430 0.77403800
v 0.10797300 0.07219550 0.77556100
v 0.10492800 0.06077720 0.77023200
v 0.11330100 0.06001600 0.76794900
v 0.11710700 0.06534450 0.77023200
v 0.09883810 0.07371800 0.74359000
v 0.11025600 0.07980770 0.74511200
v 0.10340500 0.08133010 0.74663500
v 0.10036100 0.06534450 0.73902200
v 0.10949500 0.06382210 0.73673900
v 0.11254000 0.07143430 0.73978400
v 0.09655450 0.07524040 0.74054500
v 0.11025600 0.08209130 0.74130600
v 0.10188300 0.08437500 0.74359000
v 0.09883810 0.06534450 0.73521600
v 0.10949500 0.06382210 0.73293300
v 0.11330100 0.07295670 0.73673900
v 0.09655450 0.07600160 0.73521600
v 0.10873400 0.08209130 0.73597800
v 0.10188300 0.08437500 0.73750000
v 0.09807690 0.06762820 0.73217100
v 0.10721200 0.06610580 0.73064900
v 0.11101800 0.07371800 0.73217100
v 0.09427080 0.07752400 0.70781200
v 0.10568900 0.08741990 0.69791700
v 0.09198720 0.06534450 0.71466300
v 0.10873400 0.07600160 0.70400600
v 0.09655450 0.08970350 0.70096200
v 0.10492800 0.06534450 0.71009600
v 0.03794070 0.05849360 0.77708300
v 0.03489580 0.06229970 0.77708300
v 0.02500000 0.04935900 0.78621800
v 0.03185100 0.06153850 0.77480000
v 0.03413460 0.05544870 0.77175500
v 0.03794070 0.05544870 0.77556100
v 0.05012020 0.06458330 0.76566500
v 0.03108970 0.05849360 0.77251600
v 0.04098560 0.06838940 0.76109800
v 0.04555290 0.06991190 0.76490400
v 0.05012020 0.05925480 0.76262000
v 0.04403050 0.05925480 0.75805300
v 0.04022440 0.06382210 0.75805300
v 0.05316510 0.06610580 0.76414300
v 0.04098560 0.07067310 0.75805300
v 0.04707530 0.07219550 0.76414300
v 0.05468750 0.06001600 0.75957500
v 0.04555290 0.05925480 0.75272400
v 0.04098560 0.06458330 0.75348600
v 0.05468750 0.06686700 0.76033700
v 0.04479170 0.07143430 0.75576900
v 0.04935900 0.07219550 0.76033700
v 0.05544870 0.06077720 0.75729200
v 0.04783650 0.06001600 0.75120200
v 0.04403050 0.06534450 0.75196300
v 0.07219550 0.07371800 0.73597800
v 0.06229970 0.07980770 0.73217100
v 0.06686700 0.08133010 0.73750000
v 0.07295670 0.06534450 0.73141000
v 0.06610580 0.06382210 0.72532100
v 0.06153850 0.07143430 0.72684300
v 0.07600160 0.07524040 0.73445500
v 0.06382210 0.08209130 0.72988800
v 0.06991190 0.08437500 0.73521600
v 0.07676280 0.06534450 0.72912700
v 0.06762820 0.06382210 0.72227600
v 0.06306090 0.07295670 0.72379800
v 0.07828530 0.07600160 0.72988800
v 0.06686700 0.08209130 0.72455900
v 0.07295670 0.08437500 0.72988800
v 0.07828530 0.06762820 0.72684300
v 0.07067310 0.06610580 0.72075300
v 0.06610580 0.07371800 0.72075300
v 0.08970350 0.08741990 0.69411100
v 0.08209130 0.07600160 0.69943900
v 0.08209130 0.06458330 0.70552900
v 0.10721200 0.08361380 0.68954300
v 0.09427080 0.06458330 0.70248400
v 0.13994400 0.18713900 0.62027200
v 0.13766000 0.19170700 0.63321300
v 0.11406300 0.19170700 0.62712300
v 0.11634600 0.18713900 0.61494400
v 0.12852600 0.18485600 0.61189900
v 0.12395800 0.19475200 0.63778000
v 0.14146600 0.19170700 0.61646600
v 0.13918300 0.19475200 0.63169100
v 0.11330100 0.19551300 0.62484000
v 0.11558500 0.19246800 0.61037700
v 0.12928700 0.19094600 0.60733200
v 0.12395800 0.19703500 0.63701900
v 0.14222800 0.19703500 0.61646600
v 0.13918300 0.19855800 0.63092900
v 0.11406300 0.20008000 0.62484000
v 0.11710700 0.19855800 0.61037700
v 0.12928700 0.19703500 0.60733200
v 0.12472000 0.20008000 0.63625800
v 0.14375000 0.20312500 0.61722800
v 0.14146600 0.20617000 0.63092900
v 0.11710700 0.21073700 0.62484000
v 0.11939100 0.20769200 0.61037700
v 0.13157100 0.20388600 0.60809300
v 0.12700300 0.21073700 0.63625800
v 0.28153000 0.24270800 0.21758800
v 0.28609800 0.23357400 0.22063300
v 0.27848600 0.23585700 0.18866200
v 0.26402200 0.25108200 0.21454300
v 0.26859000 0.24955900 0.21530400
v 0.27696300 0.24347000 0.21682700
v 0.28229200 0.22367800 0.22443900
v 0.27772400 0.22291700 0.22443900
v 0.28762000 0.23433500 0.25717100
v 0.28153000 0.23357400 0.22063300
v 0.27467900 0.25184300 0.25260400
v 0.26402200 0.26173900 0.25032100
v 0.28153000 0.25108200 0.25336500
v 0.25793300 0.26402200 0.25032100
v 0.28229200 0.21834900 0.26173900
v 0.27620200 0.21758800 0.26173900
v 0.28153000 0.23509600 0.25641000
v 0.29218800 0.23966300 0.30817300
v 0.27620200 0.26250000 0.30056100
v 0.26250000 0.27544100 0.29599400
v 0.28457500 0.26097800 0.30208300
v 0.25412700 0.27772400 0.29371000
v 0.28381400 0.21834900 0.31121800
v 0.27544100 0.21682700 0.30969600
v 0.28381400 0.23966300 0.30588900
v 0.29980000 0.24879800 0.35460700
v 0.28076900 0.27391800 0.34471200
v 0.26402200 0.28914300 0.33862200
v 0.29066500 0.27239600 0.34699500
v 0.25412700 0.29218800 0.33633800
v 0.28990400 0.22520000 0.35917500
v 0.28000800 0.22367800 0.35765200
v 0.28990400 0.24955900 0.35232400
v 0.29447100 0.24347000 0.43225200
v 0.27011200 0.31578500 0.38505600
v 0.29447100 0.29827700 0.39495200
v 0.25564900 0.31806900 0.38125000
v 0.30817300 0.27087300 0.41398200
v 0.32263600 0.27087300 0.41550500
v 0.30893400 0.29675500 0.39799700
v 0.30893400 0.24575300 0.43301300
v 0.31578500 0.25108200 0.45584900
v 0.27467900 0.33557700 0.40637000
v 0.26021600 0.33938300 0.40408700
v 0.32720400 0.25869400 0.48858200
v 0.30132200 0.24955900 0.45737200
v 0.28153000 0.35765200 0.43149000
v 0.26706700 0.36222000 0.43149000
v 0.33481600 0.26402200 0.52207500
v 0.31274000 0.25793300 0.49162700
v 0.28533700 0.37896600 0.45661100
v 0.27087300 0.38581700 0.45737200
v 0.34090500 0.27087300 0.55785300
v 0.32035300 0.26326100 0.52664300
v 0.28914300 0.39951900 0.48020800
v 0.27467900 0.40713100 0.48249200
v 0.34775600 0.28076900 0.59210700
v 0.32644200 0.27087300 0.56470400
v 0.29294900 0.42311700 0.50761200
v 0.27848600 0.43225200 0.51217900
v 0.34242800 0.40865400 0.75500800
v 0.34851800 0.46346200 0.73217100
v 0.32796500 0.41702700 0.77480000
v 0.33101000 0.49619400 0.68040900
v 0.33405400 0.47488000 0.74968000
v 0.34547300 0.36602600 0.74511200
v 0.33101000 0.37135400 0.76414300
v 0.29142600 0.50456700 0.61798900
v 0.31654600 0.50989600 0.69487200
v 0.35156200 0.33481600 0.70324500
v 0.33709900 0.33862200 0.71923100
v 0.29523200 0.48858200 0.59363000
v 0.27696300 0.51903000 0.62864600
v 0.35308500 0.31274000 0.66518400
v 0.33862200 0.31578500 0.67888600
v 0.29599400 0.47107400 0.56851000
v 0.28076900 0.50152200 0.60276400
v 0.35232400 0.29599400 0.62940700
v 0.33786100 0.29751600 0.64082500
v 0.29599400 0.44899800 0.53958300
v 0.28153000 0.48325300 0.57612200
v 0.33329300 0.28076900 0.60124200
v 0.28153000 0.45965500 0.54567300
v 0.31654600 0.43986400 0.80448700
v 0.32339700 0.40637000 0.78774000
v 0.35613000 0.44062500 0.71770800
v 0.25260400 0.20769200 0.61494400
v 0.29827700 0.22139400 0.62788500
v 0.27315700 0.20921500 0.59895800
v 0.29447100 0.21530400 0.60352600
v 0.25641000 0.21302100 0.63854200
v 0.28076900 0.22139400 0.64691500
v 0.24194700 0.22367800 0.60961500
v 0.30436700 0.23814100 0.63092900
v 0.27011200 0.23052900 0.58906300
v 0.29903800 0.23738000 0.59667500
v 0.24727600 0.22520000 0.64387000
v 0.28153000 0.23281200 0.65681100
v 0.23890200 0.22976800 0.61037700
v 0.30741200 0.26782900 0.63397400
v 0.27467900 0.23433500 0.58677900
v 0.30360600 0.25793300 0.59363000
v 0.24270800 0.23966300 0.64996000
v 0.28153000 0.25412700 0.66670700
v 0.20388600 0.23814100 0.67584100
v 0.20388600 0.22520000 0.63397400
v 0.28914300 0.02500000 0.02500000
v 0.27620200 0.02956730 0.03337340
v 0.28076900 0.05012020 0.06610580
v 0.24347000 0.04098560 0.05088140
v 0.27011200 0.05088140 0.06534450
v 0.27011200 0.04859780 0.06686700
v 0.24194700 0.04783650 0.06762820
v 0.20388600 0.04859780 0.06382210
v 0.26935100 0.08437500 0.12015200
v 0.24194700 0.05164260 0.06458330
v 0.26097800 0.08741990 0.11786900
v 0.26097800 0.08133010 0.12243600
v 0.23661900 0.07904650 0.12395800
v 0.20388600 0.07828530 0.12472000
v 0.23661900 0.08970350 0.11558500
v 0.25945500 0.11710700 0.16963100
v 0.25184300 0.12243600 0.16506400
v 0.25184300 0.11101800 0.17343800
v 0.23129000 0.10721200 0.17648200
v 0.20388600 0.10568900 0.17800500
v 0.20388600 0.09046470 0.11558500
v 0.23129000 0.12624200 0.16278000
v 0.25184300 0.15212300 0.22520000
v 0.24499200 0.16049700 0.21911100
v 0.24499200 0.14375000 0.23129000
v 0.22748400 0.13689900 0.23585700
v 0.20388600 0.13461500 0.23814100
v 0.20388600 0.12776400 0.16125800
v 0.22748400 0.16658700 0.21454300
v 0.25793300 0.17572100 0.26478400
v 0.25032100 0.18790100 0.25717100
v 0.25032100 0.16278000 0.27239600
v 0.23129000 0.15364600 0.27848600
v 0.20388600 0.14984000 0.28000800
v 0.20388600 0.16887000 0.21226000
v 0.23129000 0.19703500 0.25184300
v 0.26859000 0.20008000 0.30588900
v 0.26021600 0.21606600 0.29599400
v 0.26021600 0.18409500 0.31578500
v 0.23661900 0.17191500 0.32263600
v 0.20388600 0.16734800 0.32568100
v 0.20388600 0.20084100 0.24955900
v 0.23661900 0.22824500 0.28914300
v 0.27772400 0.21834900 0.33709900
v 0.26782900 0.23814100 0.32492000
v 0.26782900 0.19931900 0.34851800
v 0.24042500 0.18485600 0.35689100
v 0.20388600 0.17952700 0.35993600
v 0.20388600 0.23205100 0.28609800
v 0.24042500 0.25184300 0.31654600
v 0.28762000 0.23585700 0.36374200
v 0.27620200 0.25717100 0.34775600
v 0.27620200 0.21530400 0.37896600
v 0.24575300 0.19931900 0.39114600
v 0.20388600 0.19399000 0.39495200
v 0.20388600 0.25717100 0.31350200
v 0.24575300 0.27239600 0.33633800
v 0.29599400 0.25336500 0.38810100
v 0.28381400 0.27696300 0.37059300
v 0.28381400 0.22976800 0.40560900
v 0.25032100 0.21226000 0.41778800
v 0.20388600 0.20617000 0.42311700
v 0.20388600 0.27848600 0.33253200
v 0.25032100 0.29447100 0.35765200
v 0.25564900 0.22367800 0.44595400
v 0.20388600 0.21682700 0.45128200
v 0.20388600 0.30056100 0.35308500
v 0.33101000 0.28229200 0.43758000
v 0.31578500 0.31274000 0.41931100
v 0.26021600 0.22596200 0.47107400
v 0.20388600 0.21758800 0.47640200
v 0.20388600 0.32568100 0.37668300
v 0.34395000 0.29447100 0.46802900
v 0.32720400 0.33101000 0.44671500
v 0.26706700 0.22976800 0.50761200
v 0.20388600 0.21911100 0.51370200
v 0.20388600 0.34775600 0.39951900
v 0.35308500 0.30665100 0.49771600
v 0.33481600 0.34851800 0.47411900
v 0.27087300 0.23052900 0.54567300
v 0.20388600 0.21911100 0.55176300
v 0.20388600 0.37287700 0.42540100
v 0.35993600 0.31806900 0.52892600
v 0.34090500 0.36526400 0.50076100
v 0.20388600 0.22063300 0.59515200
v 0.20388600 0.39799700 0.45052100
v 0.36754800 0.33253200 0.56089700
v 0.34775600 0.38505600 0.53044900
v 0.20388600 0.42083300 0.47411900
v 0.22139400 0.61037700 0.90649000
v 0.23433500 0.59743600 0.90420700
v 0.22139400 0.55100200 0.89507200
v 0.20388600 0.61494400 0.90725200
v 0.22596200 0.62407900 0.89963900
v 0.24423100 0.58677900 0.89431100
v 0.23890200 0.60809300 0.89735600
v 0.22596200 0.54871800 0.88898200
v 0.20388600 0.54262800 0.88822100
v 0.20388600 0.54643400 0.89431100
v 0.20388600 0.63016800 0.90040100
v 0.24651400 0.61798900 0.88746000
v 0.22976800 0.63701900 0.88746000
v 0.25032100 0.59210700 0.88669900
v 0.24879800 0.56622600 0.88593800
v 0.22976800 0.54795700 0.88517600
v 0.20388600 0.54110600 0.88517600
v 0.20388600 0.64387000 0.88822100
v 0.25184300 0.62255600 0.87832500
v 0.23129000 0.64310900 0.87680300
v 0.25717100 0.59515200 0.87984800
v 0.25184300 0.56698700 0.88213100
v 0.23129000 0.54719500 0.88365400
v 0.20388600 0.53958300 0.88365400
v 0.20388600 0.65072100 0.87604200
v 0.25564900 0.62636200 0.86386200
v 0.23357400 0.64767600 0.85929500
v 0.26402200 0.59667500 0.87071300
v 0.25564900 0.56774800 0.87680300
v 0.23357400 0.54643400 0.88137000
v 0.20388600 0.53806100 0.88289300
v 0.20388600 0.65528800 0.85777200
v 0.25945500 0.62788500 0.85016000
v 0.23585700 0.64996000 0.84254800
v 0.26782900 0.59819700 0.86081700
v 0.25945500 0.56774800 0.87147400
v 0.23585700 0.54567300 0.87908700
v 0.20388600 0.65833300 0.83950300
v 0.23738000 0.64996000 0.82732400
v 0.26173900 0.62712300 0.83798100
v 0.27087300 0.59743600 0.85244400
v 0.26173900 0.56698700 0.86690700
v 0.23738000 0.54491200 0.87756400
v 0.20388600 0.65757200 0.82351800
v 0.23890200 0.64767600 0.80524800
v 0.26478400 0.62560100 0.81971200
v 0.27467900 0.59515200 0.84026400
v 0.26478400 0.56470400 0.86005600
v 0.20388600 0.53653800 0.88137000
v 0.23890200 0.54262800 0.87451900
v 0.20388600 0.65605000 0.79992000
v 0.24042500 0.64310900 0.78317300
v 0.26706700 0.62103400 0.80220400
v 0.27696300 0.59134600 0.82732400
v 0.26706700 0.56165900 0.85320500
v 0.20388600 0.53425500 0.87984800
v 0.24042500 0.53958300 0.87147400
v 0.20388600 0.65148200 0.77632200
v 0.24270800 0.63625800 0.76566500
v 0.27087300 0.61494400 0.78697900
v 0.28076900 0.58601800 0.81666700
v 0.27087300 0.55633000 0.84635400
v 0.20388600 0.53197100 0.87832500
v 0.24270800 0.53501600 0.86842900
v 0.20388600 0.64387000 0.75729200
v 0.24499200 0.62331700 0.74663500
v 0.27544100 0.60428700 0.77175500
v 0.28609800 0.57764400 0.80601000
v 0.27544100 0.55100200 0.84102600
v 0.20388600 0.52740400 0.87604200
v 0.24499200 0.53197100 0.86614600
v 0.20388600 0.63016800 0.73750000
v 0.24803700 0.60809300 0.73293300
v 0.28000800 0.59058500 0.76033700
v 0.29218800 0.56774800 0.79839700
v 0.28000800 0.54415100 0.83645800
v 0.20388600 0.52512000 0.87528000
v 0.24803700 0.52740400 0.86462300
v 0.20388600 0.61418300 0.72227600
v 0.20388600 0.52131400 0.87451900
v 0.25184300 0.51217900 0.86538500
v 0.28762000 0.52816500 0.83341300
v 0.30056100 0.54871800 0.79002400
v 0.28762000 0.57003200 0.74663500
v 0.25184300 0.58525600 0.71466300
v 0.20388600 0.59134600 0.70324500
v 0.20388600 0.50685100 0.87680300
v 0.25717100 0.48858200 0.86462300
v 0.29599400 0.50456700 0.82884600
v 0.30969600 0.52664300 0.78088900
v 0.29599400 0.54871800 0.73293300
v 0.25717100 0.56470400 0.69715500
v 0.20388600 0.57079300 0.68497600
v 0.20388600 0.48249200 0.87756400
v 0.26250000 0.45204300 0.85777200
v 0.30588900 0.47259600 0.81971200
v 0.32187500 0.50000000 0.76794900
v 0.30588900 0.52816500 0.71618600
v 0.26250000 0.54795700 0.67736400
v 0.20388600 0.55556900 0.66366200
v 0.20388600 0.44519200 0.87223600
v 0.26859000 0.41474400 0.84483200
v 0.26859000 0.53501600 0.65528800
v 0.20388600 0.54491200 0.64006400
v 0.20388600 0.40560900 0.85929500
v 0.27315700 0.37363800 0.82656300
v 0.33786100 0.48249200 0.66822900
v 0.27315700 0.52740400 0.64310900
v 0.20388600 0.53958300 0.62864600
v 0.20388600 0.31730800 0.81362200
v 0.27696300 0.33177100 0.79992000
v 0.20388600 0.36145800 0.84026400
v 0.34547300 0.46802900 0.65224400
v 0.20388600 0.53349400 0.61570500
v 0.28076900 0.29447100 0.75044100
v 0.37287700 0.39114600 0.66290100
v 0.36450300 0.41702700 0.69867800
v 0.35156200 0.44747600 0.62255600
v 0.20388600 0.51750800 0.59134600
v 0.20388600 0.27848600 0.76185900
v 0.28153000 0.27087300 0.70629000
v 0.37439900 0.37059300 0.62940700
v 0.35308500 0.42844600 0.59439100
v 0.20388600 0.50000000 0.56622600
v 0.20388600 0.25412700 0.71694700
v 0.37287700 0.35232400 0.59667500
v 0.35232400 0.40789300 0.56318100
v 0.20388600 0.47564100 0.53577700
v 0.20388600 0.44747600 0.50304500
v 0.12167500 0.23357400 0.22063300
v 0.12624200 0.24270800 0.21758800
v 0.12928700 0.23585700 0.18866200
v 0.13918300 0.24955900 0.21530400
v 0.14375000 0.25108200 0.21454300
v 0.13080900 0.24347000 0.21682700
v 0.13004800 0.22291700 0.22443900
v 0.12548100 0.22367800 0.22443900
v 0.12015200 0.23433500 0.25717100
v 0.12624200 0.23357400 0.22063300
v 0.13309300 0.25184300 0.25260400
v 0.14375000 0.26173900 0.25032100
v 0.12624200 0.25108200 0.25336500
v 0.14984000 0.26402200 0.25032100
v 0.12548100 0.21834900 0.26173900
v 0.13157100 0.21758800 0.26173900
v 0.12624200 0.23509600 0.25641000
v 0.11558500 0.23966300 0.30817300
v 0.13157100 0.26250000 0.30056100
v 0.14527200 0.27544100 0.29599400
v 0.12319700 0.26097800 0.30208300
v 0.15364600 0.27772400 0.29371000
v 0.12395800 0.21834900 0.31121800
v 0.13233200 0.21682700 0.30969600
v 0.12395800 0.23966300 0.30588900
v 0.10797300 0.24879800 0.35460700
v 0.12700300 0.27391800 0.34471200
v 0.14375000 0.28914300 0.33862200
v 0.11710700 0.27239600 0.34699500
v 0.15364600 0.29218800 0.33633800
v 0.11786900 0.22520000 0.35917500
v 0.12776400 0.22367800 0.35765200
v 0.11786900 0.24955900 0.35232400
v 0.11330100 0.24347000 0.43225200
v 0.13766000 0.31578500 0.38505600
v 0.11330100 0.29827700 0.39495200
v 0.15212300 0.31806900 0.38125000
v 0.09959940 0.27087300 0.41398200
v 0.08513620 0.27087300 0.41550500
v 0.09883810 0.29675500 0.39799700
v 0.09883810 0.24575300 0.43301300
v 0.09198720 0.25108200 0.45584900
v 0.13309300 0.33557700 0.40637000
v 0.14755600 0.33938300 0.40408700
v 0.08056890 0.25869400 0.48858200
v 0.10645000 0.24955900 0.45737200
v 0.12624200 0.35765200 0.43149000
v 0.14070500 0.36222000 0.43149000
v 0.07295670 0.26402200 0.52207500
v 0.09503210 0.25793300 0.49162700
v 0.12243600 0.37896600 0.45661100
v 0.13689900 0.38581700 0.45737200
v 0.06686700 0.27087300 0.55785300
v 0.08741990 0.26326100 0.52664300
v 0.11863000 0.39951900 0.48020800
v 0.13309300 0.40713100 0.48249200
v 0.06001600 0.28076900 0.59210700
v 0.08133010 0.27087300 0.56470400
v 0.11482400 0.42311700 0.50761200
v 0.12928700 0.43225200 0.51217900
v 0.05925480 0.46346200 0.73217100
v 0.06534450 0.40865400 0.75500800
v 0.07980770 0.41702700 0.77480000
v 0.07676280 0.49619400 0.68040900
v 0.07371800 0.47488000 0.74968000
v 0.06229970 0.36602600 0.74511200
v 0.07676280 0.37135400 0.76414300
v 0.11634600 0.50456700 0.61798900
v 0.09122600 0.50989600 0.69487200
v 0.05620990 0.33481600 0.70324500
v 0.07067310 0.33862200 0.71923100
v 0.11254000 0.48858200 0.59363000
v 0.13080900 0.51903000 0.62864600
v 0.05468750 0.31274000 0.66518400
v 0.06915060 0.31578500 0.67888600
v 0.11177900 0.47107400 0.56851000
v 0.12700300 0.50152200 0.60276400
v 0.05544870 0.29599400 0.62940700
v 0.06991190 0.29751600 0.64082500
v 0.11177900 0.44899800 0.53958300
v 0.12624200 0.48325300 0.57612200
v 0.07447920 0.28076900 0.60124200
v 0.12624200 0.45965500 0.54567300
v 0.09122600 0.43986400 0.80448700
v 0.08437500 0.40637000 0.78774000
v 0.05164260 0.44062500 0.71770800
v 0.15516800 0.20769200 0.61494400
v 0.10949500 0.22139400 0.62788500
v 0.13461500 0.20921500 0.59895800
v 0.11330100 0.21530400 0.60352600
v 0.15136200 0.21302100 0.63854200
v 0.12700300 0.22139400 0.64691500
v 0.16582500 0.22367800 0.60961500
v 0.10340500 0.23814100 0.63092900
v 0.13766000 0.23052900 0.58906300
v 0.10873400 0.23738000 0.59667500
v 0.16049700 0.22520000 0.64387000
v 0.12624200 0.23281200 0.65681100
v 0.16887000 0.22976800 0.61037700
v 0.10036100 0.26782900 0.63397400
v 0.13309300 0.23433500 0.58677900
v 0.10416700 0.25793300 0.59363000
v 0.16506400 0.23966300 0.64996000
v 0.12624200 0.25412700 0.66670700
v 0.13157100 0.02956730 0.03337340
v 0.11863000 0.02500000 0.02500000
v 0.12700300 0.05012020 0.06610580
v 0.16430300 0.04098560 0.05088140
v 0.13766000 0.05088140 0.06534450
v 0.13766000 0.04859780 0.06686700
v 0.16582500 0.04783650 0.06762820
v 0.13842100 0.08437500 0.12015200
v 0.16582500 0.05164260 0.06458330
v 0.14679500 0.08741990 0.11786900
v 0.14679500 0.08133010 0.12243600
v 0.17115400 0.07904650 0.12395800
v 0.17115400 0.08970350 0.11558500
v 0.14831700 0.11710700 0.16963100
v 0.15592900 0.12243600 0.16506400
v 0.15592900 0.11101800 0.17343800
v 0.17648200 0.10721200 0.17648200
v 0.17648200 0.12624200 0.16278000
v 0.15592900 0.15212300 0.22520000
v 0.16278000 0.16049700 0.21911100
v 0.16278000 0.14375000 0.23129000
v 0.18028800 0.13689900 0.23585700
v 0.18028800 0.16658700 0.21454300
v 0.14984000 0.17572100 0.26478400
v 0.15745200 0.18790100 0.25717100
v 0.15745200 0.16278000 0.27239600
v 0.17648200 0.15364600 0.27848600
v 0.17648200 0.19703500 0.25184300
v 0.13918300 0.20008000 0.30588900
v 0.14755600 0.21606600 0.29599400
v 0.14755600 0.18409500 0.31578500
v 0.17115400 0.17191500 0.32263600
v 0.17115400 0.22824500 0.28914300
v 0.13004800 0.21834900 0.33709900
v 0.13994400 0.23814100 0.32492000
v 0.13994400 0.19931900 0.34851800
v 0.16734800 0.18485600 0.35689100
v 0.16734800 0.25184300 0.31654600
v 0.12015200 0.23585700 0.36374200
v 0.13157100 0.25717100 0.34775600
v 0.13157100 0.21530400 0.37896600
v 0.16201900 0.19931900 0.39114600
v 0.16201900 0.27239600 0.33633800
v 0.11177900 0.25336500 0.38810100
v 0.12395800 0.27696300 0.37059300
v 0.12395800 0.22976800 0.40560900
v 0.15745200 0.21226000 0.41778800
v 0.15745200 0.29447100 0.35765200
v 0.15212300 0.22367800 0.44595400
v 0.07676280 0.28229200 0.43758000
v 0.09198720 0.31274000 0.41931100
v 0.14755600 0.22596200 0.47107400
v 0.06382210 0.29447100 0.46802900
v 0.08056890 0.33101000 0.44671500
v 0.14070500 0.22976800 0.50761200
v 0.05468750 0.30665100 0.49771600
v 0.07295670 0.34851800 0.47411900
v 0.13689900 0.23052900 0.54567300
v 0.04783650 0.31806900 0.52892600
v 0.06686700 0.36526400 0.50076100
v 0.04022440 0.33253200 0.56089700
v 0.06001600 0.38505600 0.53044900
v 0.18637800 0.61037700 0.90649000
v 0.17343800 0.59743600 0.90420700
v 0.18637800 0.55100200 0.89507200
v 0.18181100 0.62407900 0.89963900
v 0.16887000 0.60809300 0.89735600
v 0.16354200 0.58677900 0.89431100
v 0.18181100 0.54871800 0.88898200
v 0.17800500 0.63701900 0.88746000
v 0.16125800 0.61798900 0.88746000
v 0.15745200 0.59210700 0.88669900
v 0.15897400 0.56622600 0.88593800
v 0.17800500 0.54795700 0.88517600
v 0.17648200 0.64310900 0.87680300
v 0.15592900 0.62255600 0.87832500
v 0.15060100 0.59515200 0.87984800
v 0.15592900 0.56698700 0.88213100
v 0.17648200 0.54719500 0.88365400
v 0.17419900 0.64767600 0.85929500
v 0.15212300 0.62636200 0.86386200
v 0.14375000 0.59667500 0.87071300
v 0.15212300 0.56774800 0.87680300
v 0.17419900 0.54643400 0.88137000
v 0.17191500 0.64996000 0.84254800
v 0.14831700 0.62788500 0.85016000
v 0.13994400 0.59819700 0.86081700
v 0.14831700 0.56774800 0.87147400
v 0.17191500 0.54567300 0.87908700
v 0.17039300 0.64996000 0.82732400
v 0.14603400 0.62712300 0.83798100
v 0.13689900 0.59743600 0.85244400
v 0.14603400 0.56698700 0.86690700
v 0.17039300 0.54491200 0.87756400
v 0.16887000 0.64767600 0.80524800
v 0.14298900 0.62560100 0.81971200
v 0.13309300 0.59515200 0.84026400
v 0.14298900 0.56470400 0.86005600
v 0.16887000 0.54262800 0.87451900
v 0.16734800 0.64310900 0.78317300
v 0.14070500 0.62103400 0.80220400
v 0.13080900 0.59134600 0.82732400
v 0.14070500 0.56165900 0.85320500
v 0.16734800 0.53958300 0.87147400
v 0.16506400 0.63625800 0.76566500
v 0.13689900 0.61494400 0.78697900
v 0.12700300 0.58601800 0.81666700
v 0.13689900 0.55633000 0.84635400
v 0.16506400 0.53501600 0.86842900
v 0.16278000 0.62331700 0.74663500
v 0.13233200 0.60428700 0.77175500
v 0.12167500 0.57764400 0.80601000
v 0.13233200 0.55100200 0.84102600
v 0.16278000 0.53197100 0.86614600
v 0.15973600 0.60809300 0.73293300
v 0.12776400 0.59058500 0.76033700
v 0.11558500 0.56774800 0.79839700
v 0.12776400 0.54415100 0.83645800
v 0.15973600 0.52740400 0.86462300
v 0.15592900 0.51217900 0.86538500
v 0.12015200 0.52816500 0.83341300
v 0.10721200 0.54871800 0.79002400
v 0.12015200 0.57003200 0.74663500
v 0.15592900 0.58525600 0.71466300
v 0.15060100 0.48858200 0.86462300
v 0.11177900 0.50456700 0.82884600
v 0.09807690 0.52664300 0.78088900
v 0.11177900 0.54871800 0.73293300
v 0.15060100 0.56470400 0.69715500
v 0.14527200 0.45204300 0.85777200
v 0.10188300 0.47259600 0.81971200
v 0.08589740 0.50000000 0.76794900
v 0.10188300 0.52816500 0.71618600
v 0.14527200 0.54795700 0.67736400
v 0.13918300 0.41474400 0.84483200
v 0.13918300 0.53501600 0.65528800
v 0.13461500 0.37363800 0.82656300
v 0.06991190 0.48249200 0.66822900
v 0.13461500 0.52740400 0.64310900
v 0.13080900 0.33177100 0.79992000
v 0.06229970 0.46802900 0.65224400
v 0.12700300 0.29447100 0.75044100
v 0.03489580 0.39114600 0.66290100
v 0.04326920 0.41702700 0.69867800
v 0.05620990 0.44747600 0.62255600
v 0.12624200 0.27087300 0.70629000
v 0.03337340 0.37059300 0.62940700
v 0.05468750 0.42844600 0.59439100
v 0.03489580 0.35232400 0.59667500
v 0.05544870 0.40789300 0.56318100
f 1 2 3
f 4 2 5
f 6 2 7
f 8 2 9
f 10 2 11
f 12 2 13
f 14 2 15
f 16 2 17
f 1 18 17
f 3 19 1
f 4 20 3
f 5 21 4
f 6 22 5
f 7 23 6
f 8 24 7
f 9 25 8
f 10 26 9
f 11 27 10
f 12 28 11
f 13 29 12
f 14 30 13
f 15 31 14
f 16 32 15
f 17 33 16
f 18 34 33
f 19 35 18
f 20 36 19
f 21 37 20
f 22 38 21
f 23 39 22
f 24 40 23
f 25 41 24
f 26 42 25
f 27 43 26
f 28 44 27
f 29 45 28
f 30 46 29
f 31 47 30
f 32 48 31
f 33 49 32
f 34 50 49
f 35 51 34
f 36 52 35
f 37 53 36
f 38 54 37
f 39 55 38
f 40 56 39
f 41 57 40
f 42 58 41
f 43 59 42
f 44 60 43
f 45 61 44
f 46 62 45
f 47 63 46
f 48 64 47
f 49 65 48
f 51 66 50
f 53 66 52
f 55 66 54
f 57 66 56
f 59 66 58
f 61 66 60
f 63 66 62
f 65 66 64
f 67 68 69
f 67 70 71
f 67 72 73
f 67 74 75
f 67 76 77
f 67 78 79
f 67 80 81
f 67 82 83
f 84 68 83
f 85 69 68
f 86 70 69
f 87 71 70
f 88 72 71
f 89 73 72
f 90 74 73
f 91 75 74
f 92 76 75
f 93 77 76
f 94 78 77
f 95 79 78
f 96 80 79
f 97 81 80
f 98 82 81
f 99 83 82
f 100 84 99
f 101 85 84
f 102 86 85
f 103 87 86
f 104 88 87
f 105 89 88
f 106 90 89
f 107 91 90
f 108 92 91
f 109 93 92
f 110 94 93
f 111 95 94
f 112 96 95
f 113 97 96
f 114 98 97
f 115 99 98
f 116 100 115
f 117 101 100
f 118 102 101
f 119 103 102
f 120 104 103
f 121 105 104
f 122 106 105
f 123 107 106
f 124 108 107
f 125 109 108
f 126 110 109
f 127 111 110
f 128 112 111
f 129 113 112
f 130 114 113
f 131 115 114
f 132 117 116
f 132 119 118
f 132 121 120
f 132 123 122
f 132 125 124
f 132 127 126
f 132 129 128
f 132 131 130
f 132 130 129
f 132 128 127
f 132 126 125
f 132 124 123
f 132 122 121
f 132 120 119
f 132 118 117
f 132 116 131
f 131 114 130
f 130 113 129
f 129 112 128
f 128 111 127
f 127 110 126
f 126 109 125
f 125 108 124
f 124 107 123
f 123 106 122
f 122 105 121
f 121 104 120
f 120 103 119
f 119 102 118
f 118 101 117
f 117 100 116
f 116 115 131
f 115 98 114
f 114 97 113
f 113 96 112
f 112 95 111
f 111 94 110
f 110 93 109
f 109 92 108
f 108 91 107
f 107 90 106
f 106 89 105
f 105 88 104
f 104 87 103
f 103 86 102
f 102 85 101
f 101 84 100
f 100 99 115
f 99 82 98
f 98 81 97
f 97 80 96
f 96 79 95
f 95 78 94
f 94 77 93
f 93 76 92
f 92 75 91
f 91 74 90
f 90 73 89
f 89 72 88
f 88 71 87
f 87 70 86
f 86 69 85
f 85 68 84
f 84 83 99
f 67 81 82
f 67 79 80
f 67 77 78
f 67 75 76
f 67 73 74
f 67 71 72
f 67 69 70
f 67 83 68
f 64 66 63
f 62 66 61
f 60 66 59
f 58 66 57
f 56 66 55
f 54 66 53
f 52 66 51
f 50 66 65
f 48 65 64
f 47 64 63
f 46 63 62
f 45 62 61
f 44 61 60
f 43 60 59
f 42 59 58
f 41 58 57
f 40 57 56
f 39 56 55
f 38 55 54
f 37 54 53
f 36 53 52
f 35 52 51
f 34 51 50
f 49 50 65
f 32 49 48
f 31 48 47
f 30 47 46
f 29 46 45
f 28 45 44
f 27 44 43
f 26 43 42
f 25 42 41
f 24 41 40
f 23 40 39
f 22 39 38
f 21 38 37
f 20 37 36
f 19 36 35
f 18 35 34
f 33 34 49
f 16 33 32
f 15 32 31
f 14 31 30
f 13 30 29
f 12 29 28
f 11 28 27
f 10 27 26
f 9 26 25
f 8 25 24
f 7 24 23
f 6 23 22
f 5 22 21
f 4 21 20
f 3 20 19
f 1 19 18
f 17 18 33
f 15 2 16
f 13 2 14
f 11 2 12
f 9 2 10
f 7 2 8
f 5 2 6
f 3 2 4
f 17 2 1
f 133 134 135
f 136 137 135
f 138 139 135
f 134 133 140
f 133 137 141
f 137 136 142
f 136 139 143
f 139 138 144
f 145 134 146
f 140 141 147
f 141 142 148
f 142 143 149
f 143 144 150
f 144 151 152
f 146 140 153
f 147 148 154
f 148 149 155
f 149 150 156
f 150 152 157
f 152 158 159
f 153 147 160
f 154 155 161
f 155 156 162
f 156 157 163
f 157 159 164
f 159 165 166
f 160 154 167
f 161 162 168
f 162 163 169
f 163 164 170
f 164 166 171
f 166 172 173
f 167 161 174
f 170 175 169
f 176 175 171
f 176 177 175
f 178 179 135
f 180 181 135
f 145 182 135
f 183 184 178
f 184 185 179
f 185 186 180
f 186 187 181
f 187 151 138
f 146 183 182
f 188 189 184
f 189 190 185
f 190 191 186
f 191 192 187
f 192 158 151
f 153 188 183
f 193 194 189
f 194 195 190
f 195 196 191
f 196 197 192
f 197 165 158
f 160 193 188
f 198 199 194
f 199 200 195
f 200 201 196
f 201 202 197
f 202 172 165
f 167 198 193
f 203 204 199
f 204 205 200
f 205 206 201
f 206 207 202
f 207 208 172
f 174 203 198
f 206 205 209
f 207 206 210
f 211 210 209
f 209 210 206
f 209 205 204
f 198 167 174
f 172 202 207
f 202 201 206
f 201 200 205
f 200 199 204
f 199 198 203
f 193 160 167
f 165 197 202
f 197 196 201
f 196 195 200
f 195 194 199
f 194 193 198
f 188 153 160
f 158 192 197
f 192 191 196
f 191 190 195
f 190 189 194
f 189 188 193
f 183 146 153
f 151 187 192
f 187 186 191
f 186 185 190
f 185 184 189
f 184 183 188
f 182 145 146
f 138 181 187
f 181 180 186
f 180 179 185
f 179 178 184
f 178 182 183
f 181 138 135
f 179 180 135
f 182 178 135
f 171 173 176
f 170 171 175
f 168 174 161
f 208 173 172
f 173 171 166
f 171 170 164
f 170 169 163
f 169 168 162
f 161 167 154
f 172 166 165
f 166 164 159
f 164 163 157
f 163 162 156
f 162 161 155
f 154 160 147
f 165 159 158
f 159 157 152
f 157 156 150
f 156 155 149
f 155 154 148
f 147 153 140
f 158 152 151
f 152 150 144
f 150 149 143
f 149 148 142
f 148 147 141
f 140 146 134
f 151 144 138
f 144 143 139
f 143 142 136
f 142 141 137
f 141 140 133
f 134 145 135
f 139 136 135
f 137 133 135
f 212 213 214
f 215 216 217
f 216 218 217
f 219 220 217
f 216 215 221
f 222 218 223
f 218 216 224
f 215 220 225
f 220 219 226
f 219 222 227
f 224 221 228
f 227 223 229
f 223 224 230
f 221 225 231
f 225 226 232
f 226 227 233
f 230 228 234
f 233 229 235
f 229 230 236
f 228 231 237
f 231 232 238
f 232 233 239
f 236 234 240
f 239 235 241
f 235 236 242
f 234 237 243
f 237 238 244
f 238 239 245
f 242 240 246
f 245 241 247
f 241 242 248
f 240 243 249
f 243 244 250
f 244 245 251
f 248 246 252
f 251 247 212
f 247 248 213
f 246 249 253
f 249 250 254
f 250 251 255
f 213 252 256
f 255 212 257
f 252 253 258
f 254 255 259
f 253 254 260
f 261 262 263
f 262 264 263
f 265 266 263
f 262 261 267
f 268 264 269
f 264 262 270
f 261 266 271
f 266 265 272
f 265 268 273
f 270 267 274
f 273 269 275
f 269 270 276
f 267 271 277
f 271 272 278
f 272 273 279
f 276 274 280
f 279 275 281
f 275 276 282
f 274 277 283
f 277 278 284
f 278 279 285
f 282 280 286
f 285 281 287
f 281 282 288
f 280 283 289
f 283 284 290
f 284 285 291
f 288 286 292
f 291 287 293
f 287 288 294
f 286 289 295
f 289 290 296
f 290 291 297
f 294 292 298
f 297 293 299
f 293 294 300
f 292 295 301
f 295 296 302
f 296 297 303
f 300 298 304
f 303 299 305
f 298 301 306
f 302 303 307
f 299 300 308
f 301 302 309
f 310 311 312
f 313 310 312
f 314 315 312
f 311 310 316
f 313 317 318
f 310 313 319
f 314 311 320
f 315 314 321
f 317 315 322
f 316 319 323
f 318 322 324
f 319 318 325
f 320 316 326
f 321 320 327
f 322 321 328
f 323 325 329
f 324 328 330
f 325 324 331
f 326 323 332
f 327 326 333
f 328 327 334
f 329 331 335
f 330 334 336
f 331 330 337
f 332 329 338
f 333 332 339
f 334 333 340
f 335 337 341
f 336 340 342
f 337 336 343
f 338 335 344
f 339 338 345
f 340 339 346
f 341 343 347
f 342 346 348
f 343 342 349
f 344 341 350
f 345 344 351
f 346 345 352
f 347 349 304
f 348 352 353
f 350 347 306
f 352 351 354
f 349 348 308
f 351 350 355
f 356 256 307
f 356 307 305
f 258 309 256
f 355 260 354
f 258 357 309
f 357 258 260
f 357 355 306
f 358 359 305
f 360 361 257
f 359 362 356
f 362 360 214
f 363 358 308
f 361 363 353
f 364 365 358
f 366 367 360
f 365 368 359
f 368 366 362
f 369 364 363
f 367 369 361
f 370 371 364
f 372 373 366
f 371 374 365
f 374 372 368
f 375 370 369
f 373 375 367
f 376 377 370
f 378 379 372
f 377 380 371
f 380 378 374
f 381 376 375
f 379 381 373
f 382 383 384
f 385 386 387
f 388 385 387
f 389 390 387
f 386 385 391
f 388 392 393
f 385 388 394
f 389 386 395
f 390 389 396
f 392 390 397
f 391 394 398
f 393 397 399
f 394 393 400
f 395 391 401
f 396 395 402
f 397 396 403
f 398 400 404
f 399 403 405
f 400 399 406
f 401 398 407
f 402 401 408
f 403 402 409
f 404 406 410
f 405 409 411
f 406 405 412
f 407 404 413
f 408 407 414
f 409 408 415
f 410 412 416
f 411 415 417
f 412 411 418
f 413 410 419
f 414 413 420
f 415 414 421
f 416 418 422
f 417 421 383
f 418 417 382
f 419 416 423
f 420 419 424
f 421 420 425
f 422 382 426
f 383 425 427
f 423 422 428
f 425 424 429
f 424 423 430
f 431 432 433
f 434 431 433
f 435 436 433
f 432 431 437
f 434 438 439
f 431 434 440
f 435 432 441
f 436 435 442
f 438 436 443
f 437 440 444
f 439 443 445
f 440 439 446
f 441 437 447
f 442 441 448
f 443 442 449
f 444 446 450
f 445 449 451
f 446 445 452
f 447 444 453
f 448 447 454
f 449 448 455
f 450 452 456
f 451 455 457
f 452 451 458
f 453 450 459
f 454 453 460
f 455 454 461
f 456 458 462
f 457 461 463
f 458 457 464
f 459 456 465
f 460 459 466
f 461 460 467
f 462 464 468
f 463 467 469
f 464 463 470
f 465 462 471
f 466 465 472
f 467 466 473
f 468 470 474
f 469 473 475
f 471 468 476
f 473 472 477
f 470 469 478
f 472 471 479
f 480 481 482
f 481 483 482
f 484 485 482
f 481 480 486
f 487 483 488
f 483 481 489
f 480 485 490
f 485 484 491
f 484 487 492
f 489 486 493
f 492 488 494
f 488 489 495
f 486 490 496
f 490 491 497
f 491 492 498
f 495 493 499
f 498 494 500
f 494 495 501
f 493 496 502
f 496 497 503
f 497 498 504
f 501 499 505
f 504 500 506
f 500 501 507
f 499 502 508
f 502 503 509
f 503 504 510
f 507 505 511
f 510 506 512
f 506 507 513
f 505 508 514
f 508 509 515
f 509 510 516
f 513 511 517
f 516 512 518
f 512 513 519
f 511 514 520
f 514 515 521
f 515 516 522
f 519 517 474
f 522 518 523
f 517 520 476
f 521 522 524
f 518 519 478
f 520 521 525
f 426 526 477
f 477 526 475
f 479 428 426
f 430 525 524
f 527 428 479
f 428 527 430
f 525 527 476
f 528 529 475
f 530 531 427
f 532 528 526
f 531 532 384
f 529 533 478
f 533 530 523
f 534 535 529
f 536 537 531
f 538 534 528
f 537 538 532
f 535 539 533
f 539 536 530
f 540 541 535
f 542 543 537
f 544 540 534
f 543 544 538
f 541 545 539
f 545 542 536
f 546 547 541
f 548 549 543
f 550 546 540
f 549 550 544
f 547 551 545
f 551 548 542
f 542 545 551
f 545 541 547
f 544 543 549
f 540 544 550
f 543 542 548
f 541 540 546
f 536 539 545
f 539 535 541
f 538 537 543
f 534 538 544
f 537 536 542
f 535 534 540
f 530 533 539
f 533 529 535
f 532 531 537
f 528 532 538
f 531 530 536
f 529 528 534
f 523 478 533
f 478 475 529
f 384 427 531
f 526 384 532
f 427 523 530
f 475 526 528
f 479 476 527
f 430 527 525
f 429 430 524
f 477 479 426
f 524 523 429
f 429 523 427
f 525 476 520
f 478 523 518
f 524 525 521
f 476 474 517
f 523 524 522
f 474 478 519
f 522 521 515
f 521 520 514
f 520 517 511
f 519 518 512
f 518 522 516
f 517 519 513
f 516 515 509
f 515 514 508
f 514 511 505
f 513 512 506
f 512 516 510
f 511 513 507
f 510 509 503
f 509 508 502
f 508 505 499
f 507 506 500
f 506 510 504
f 505 507 501
f 504 503 497
f 503 502 496
f 502 499 493
f 501 500 494
f 500 504 498
f 499 501 495
f 498 497 491
f 497 496 490
f 496 493 486
f 495 494 488
f 494 498 492
f 493 495 489
f 492 491 484
f 491 490 485
f 490 486 480
f 489 488 483
f 488 492 487
f 486 489 481
f 487 484 482
f 485 480 482
f 483 487 482
f 476 479 471
f 475 478 469
f 479 477 472
f 474 476 468
f 477 475 473
f 478 474 470
f 472 473 466
f 471 472 465
f 468 471 462
f 469 470 463
f 473 469 467
f 470 468 464
f 466 467 460
f 465 466 459
f 462 465 456
f 463 464 457
f 467 463 461
f 464 462 458
f 460 461 454
f 459 460 453
f 456 459 450
f 457 458 451
f 461 457 455
f 458 456 452
f 454 455 448
f 453 454 447
f 450 453 444
f 451 452 445
f 455 451 449
f 452 450 446
f 448 449 442
f 447 448 441
f 444 447 437
f 445 446 439
f 449 445 443
f 446 444 440
f 442 443 436
f 441 442 435
f 437 441 432
f 439 440 434
f 443 439 438
f 440 437 431
f 436 438 433
f 432 435 433
f 438 434 433
f 428 430 423
f 430 429 424
f 426 428 422
f 429 427 425
f 526 426 382
f 424 425 420
f 423 424 419
f 422 423 416
f 383 382 417
f 425 383 421
f 382 422 418
f 420 421 414
f 419 420 413
f 416 419 410
f 417 418 411
f 421 417 415
f 418 416 412
f 414 415 408
f 413 414 407
f 410 413 404
f 411 412 405
f 415 411 409
f 412 410 406
f 408 409 402
f 407 408 401
f 404 407 398
f 405 406 399
f 409 405 403
f 406 404 400
f 402 403 396
f 401 402 395
f 398 401 391
f 399 400 393
f 403 399 397
f 400 398 394
f 396 397 390
f 395 396 389
f 391 395 386
f 393 394 388
f 397 393 392
f 394 391 385
f 390 392 387
f 386 389 387
f 392 388 387
f 383 427 384
f 382 384 526
f 375 373 381
f 370 375 376
f 372 374 378
f 374 371 380
f 373 372 379
f 371 370 377
f 369 367 375
f 364 369 370
f 366 368 372
f 368 365 374
f 367 366 373
f 365 364 371
f 363 361 369
f 358 363 364
f 360 362 366
f 362 359 368
f 361 360 367
f 359 358 365
f 308 353 363
f 305 308 358
f 257 214 360
f 214 356 362
f 353 257 361
f 356 305 359
f 306 309 357
f 357 260 355
f 260 259 354
f 309 307 256
f 353 354 259
f 353 259 257
f 306 355 350
f 353 308 348
f 355 354 351
f 304 306 347
f 354 353 352
f 308 304 349
f 351 352 345
f 350 351 344
f 347 350 341
f 348 349 342
f 352 348 346
f 349 347 343
f 345 346 339
f 344 345 338
f 341 344 335
f 342 343 336
f 346 342 340
f 343 341 337
f 339 340 333
f 338 339 332
f 335 338 329
f 336 337 330
f 340 336 334
f 337 335 331
f 333 334 327
f 332 333 326
f 329 332 323
f 330 331 324
f 334 330 328
f 331 329 325
f 327 328 321
f 326 327 320
f 323 326 316
f 324 325 318
f 328 324 322
f 325 323 319
f 321 322 315
f 320 321 314
f 316 320 311
f 318 319 313
f 322 318 317
f 319 316 310
f 315 317 312
f 311 314 312
f 317 313 312
f 309 306 301
f 308 305 299
f 307 309 302
f 306 304 298
f 305 307 303
f 304 308 300
f 303 302 296
f 302 301 295
f 301 298 292
f 300 299 293
f 299 303 297
f 298 300 294
f 297 296 290
f 296 295 289
f 295 292 286
f 294 293 287
f 293 297 291
f 292 294 288
f 291 290 284
f 290 289 283
f 289 286 280
f 288 287 281
f 287 291 285
f 286 288 282
f 285 284 278
f 284 283 277
f 283 280 274
f 282 281 275
f 281 285 279
f 280 282 276
f 279 278 272
f 278 277 271
f 277 274 267
f 276 275 269
f 275 279 273
f 274 276 270
f 273 272 265
f 272 271 266
f 271 267 261
f 270 269 264
f 269 273 268
f 267 270 262
f 268 265 263
f 266 261 263
f 264 268 263
f 260 258 253
f 259 260 254
f 258 256 252
f 257 259 255
f 256 356 213
f 255 254 250
f 254 253 249
f 253 252 246
f 213 212 247
f 212 255 251
f 252 213 248
f 251 250 244
f 250 249 243
f 249 246 240
f 248 247 241
f 247 251 245
f 246 248 242
f 245 244 238
f 244 243 237
f 243 240 234
f 242 241 235
f 241 245 239
f 240 242 236
f 239 238 232
f 238 237 231
f 237 234 228
f 236 235 229
f 235 239 233
f 234 236 230
f 233 232 226
f 232 231 225
f 231 228 221
f 230 229 223
f 229 233 227
f 228 230 224
f 227 226 219
f 226 225 220
f 225 221 215
f 224 223 218
f 223 227 222
f 221 224 216
f 222 219 217
f 220 215 217
f 218 222 217
f 257 212 214
f 214 213 356
f 552 553 554
f 555 556 554
f 557 555 554
f 558 559 554
f 553 552 560
f 557 561 562
f 556 555 563
f 552 556 564
f 555 557 565
f 558 553 566
f 559 558 567
f 561 559 568
f 560 564 569
f 562 568 570
f 563 565 571
f 564 563 572
f 565 562 573
f 566 560 574
f 567 566 575
f 568 567 576
f 569 572 577
f 570 576 578
f 571 573 579
f 572 571 580
f 573 570 581
f 574 569 582
f 575 574 583
f 576 575 584
f 583 582 585
f 579 581 586
f 578 584 587
f 581 578 588
f 584 583 589
f 577 580 590
f 580 579 591
f 582 577 592
f 592 593 585
f 594 586 595
f 593 596 597
f 598 594 599
f 596 600 601
f 602 598 603
f 600 604 605
f 606 602 607
f 604 608 609
f 610 606 611
f 612 613 614
f 613 615 616
f 617 612 618
f 615 619 620
f 621 617 622
f 619 623 624
f 625 621 626
f 623 627 628
f 629 625 630
f 627 631 632
f 608 629 633
f 631 610 634
f 614 635 636
f 613 612 637
f 377 376 638
f 379 378 639
f 380 377 640
f 378 380 641
f 376 381 642
f 381 379 643
f 638 642 644
f 639 641 645
f 640 638 646
f 641 640 647
f 642 643 648
f 643 639 649
f 644 648 650
f 645 647 651
f 646 644 652
f 647 646 653
f 648 649 654
f 649 645 655
f 654 656 657
f 657 650 654
f 653 609 633
f 658 659 660
f 659 661 662
f 659 658 663
f 661 659 664
f 664 665 661
f 660 662 666
f 662 667 668
f 663 660 669
f 664 663 670
f 665 664 671
f 667 665 672
f 666 668 673
f 668 672 674
f 669 666 675
f 670 669 676
f 671 670 677
f 672 678 679
f 673 674 680
f 674 679 681
f 675 673 682
f 676 675 683
f 677 676 684
f 679 685 686
f 680 681 687
f 681 686 688
f 682 680 689
f 683 682 690
f 684 683 691
f 686 692 693
f 687 688 694
f 688 693 695
f 689 687 696
f 690 689 697
f 691 690 698
f 693 699 700
f 694 695 701
f 695 700 702
f 696 694 703
f 697 696 704
f 698 697 705
f 700 706 707
f 701 702 708
f 702 707 709
f 703 701 710
f 704 703 711
f 705 704 712
f 707 713 714
f 708 709 715
f 709 714 716
f 710 708 717
f 711 710 718
f 712 711 719
f 714 720 721
f 715 716 589
f 716 721 587
f 717 715 585
f 718 717 722
f 719 718 723
f 721 724 588
f 590 591 725
f 591 586 726
f 592 590 593
f 722 585 727
f 723 722 728
f 588 729 595
f 725 726 730
f 726 594 731
f 593 725 596
f 727 597 732
f 728 727 733
f 595 734 599
f 730 731 735
f 731 598 736
f 596 730 600
f 732 601 737
f 733 732 738
f 599 739 603
f 735 736 740
f 736 602 741
f 600 735 604
f 737 605 652
f 738 737 742
f 603 743 607
f 742 652 650
f 604 740 608
f 740 741 744
f 741 606 745
f 607 746 611
f 168 169 747
f 748 169 175
f 173 208 749
f 174 168 750
f 747 748 751
f 752 753 175
f 752 175 177
f 754 177 749
f 755 754 756
f 751 757 747
f 758 759 753
f 760 758 752
f 761 760 177
f 762 761 754
f 763 762 755
f 759 764 751
f 765 766 758
f 767 765 760
f 768 767 761
f 769 768 762
f 770 769 763
f 766 771 759
f 772 773 765
f 774 772 767
f 775 774 768
f 776 775 769
f 777 776 770
f 773 778 766
f 779 780 772
f 781 779 774
f 782 781 775
f 783 782 776
f 778 773 784
f 780 779 785
f 779 781 786
f 781 782 787
f 782 783 788
f 783 777 789
f 784 780 790
f 785 786 791
f 786 787 792
f 787 788 793
f 788 789 794
f 789 795 796
f 790 785 797
f 791 792 798
f 792 793 799
f 793 794 800
f 794 796 801
f 796 802 803
f 797 791 804
f 798 799 805
f 799 800 806
f 800 801 807
f 801 803 808
f 803 809 810
f 804 798 811
f 805 806 812
f 806 807 813
f 807 808 814
f 808 810 815
f 810 816 817
f 811 805 818
f 812 813 819
f 813 814 820
f 814 815 821
f 815 817 822
f 817 823 824
f 818 812 825
f 824 826 827
f 822 824 828
f 821 822 829
f 820 821 830
f 819 820 831
f 825 819 832
f 833 834 827
f 827 835 828
f 828 836 829
f 829 837 830
f 830 838 831
f 831 839 832
f 840 841 834
f 834 842 835
f 835 843 836
f 836 844 837
f 837 845 838
f 838 846 839
f 847 848 841
f 841 635 842
f 842 616 843
f 843 620 844
f 844 849 845
f 845 850 846
f 851 852 848
f 848 636 635
f 616 635 614
f 637 853 613
f 620 624 854
f 854 855 849
f 856 857 858
f 857 618 852
f 637 859 853
f 615 853 619
f 854 860 855
f 856 861 857
f 857 622 618
f 617 862 863
f 863 864 859
f 859 623 619
f 624 865 860
f 866 867 861
f 861 626 622
f 621 868 862
f 862 869 864
f 864 627 623
f 628 870 865
f 871 655 867
f 867 630 626
f 625 872 868
f 868 873 869
f 869 631 627
f 632 874 870
f 656 654 655
f 629 744 872
f 872 745 873
f 873 610 631
f 634 875 874
f 876 877 878
f 879 880 878
f 880 881 878
f 882 883 878
f 877 876 884
f 885 881 886
f 880 879 887
f 879 877 888
f 881 880 889
f 876 883 890
f 883 882 891
f 882 885 892
f 888 884 893
f 892 886 894
f 889 887 895
f 887 888 896
f 886 889 897
f 884 890 898
f 890 891 899
f 891 892 900
f 896 893 901
f 900 894 902
f 897 895 903
f 895 896 904
f 894 897 905
f 893 898 906
f 898 899 907
f 899 900 908
f 906 907 909
f 905 903 910
f 908 902 911
f 902 905 912
f 907 908 913
f 904 901 914
f 903 904 915
f 901 906 916
f 917 916 909
f 910 918 919
f 920 917 921
f 918 922 923
f 924 920 925
f 922 926 927
f 928 924 929
f 926 930 931
f 932 928 933
f 930 934 935
f 936 937 938
f 939 936 940
f 937 941 942
f 943 939 944
f 941 945 946
f 947 943 948
f 945 949 950
f 951 947 952
f 949 953 954
f 955 951 956
f 953 932 957
f 934 955 958
f 959 938 960
f 937 936 961
f 547 546 962
f 549 548 963
f 546 550 964
f 550 549 965
f 551 547 966
f 548 551 967
f 966 962 968
f 965 963 969
f 962 964 970
f 964 965 971
f 967 966 972
f 963 967 973
f 972 968 974
f 971 969 975
f 968 970 976
f 970 971 977
f 973 972 978
f 969 973 979
f 656 978 657
f 974 657 978
f 933 977 957
f 980 981 982
f 983 980 984
f 981 980 985
f 980 983 986
f 665 986 983
f 984 982 987
f 988 984 989
f 982 985 990
f 985 986 991
f 986 665 671
f 665 988 992
f 989 987 993
f 992 989 994
f 987 990 995
f 990 991 996
f 991 671 677
f 678 992 997
f 994 993 998
f 997 994 999
f 993 995 1000
f 995 996 1001
f 996 677 684
f 685 997 1002
f 999 998 1003
f 1002 999 1004
f 998 1000 1005
f 1000 1001 1006
f 1001 684 691
f 692 1002 1007
f 1004 1003 1008
f 1007 1004 1009
f 1003 1005 1010
f 1005 1006 1011
f 1006 691 698
f 699 1007 1012
f 1009 1008 1013
f 1012 1009 1014
f 1008 1010 1015
f 1010 1011 1016
f 1011 698 705
f 706 1012 1017
f 1014 1013 1018
f 1017 1014 1019
f 1013 1015 1020
f 1015 1016 1021
f 1016 705 712
f 713 1017 1022
f 1019 1018 1023
f 1022 1019 1024
f 1018 1020 1025
f 1020 1021 1026
f 1021 712 719
f 720 1022 1027
f 1024 1023 913
f 1027 1024 911
f 1023 1025 909
f 1025 1026 1028
f 1026 719 723
f 724 1027 912
f 915 914 1029
f 910 915 1030
f 914 916 917
f 909 1028 1031
f 1028 723 728
f 729 912 919
f 1030 1029 1032
f 918 1030 1033
f 1029 917 920
f 921 1031 1034
f 1031 728 733
f 734 919 923
f 1033 1032 1035
f 922 1033 1036
f 1032 920 924
f 925 1034 1037
f 1034 733 738
f 739 923 927
f 1036 1035 1038
f 926 1036 1039
f 1035 924 928
f 929 1037 976
f 1037 738 742
f 743 927 931
f 976 742 974
f 1038 928 932
f 1039 1038 1040
f 930 1039 1041
f 746 931 935
f 204 203 1042
f 204 1043 209
f 208 207 1044
f 203 174 750
f 1043 1042 1045
f 209 1043 1046
f 209 1047 211
f 211 1048 1044
f 1048 755 756
f 757 1045 1042
f 1049 1050 1046
f 1050 1051 1047
f 1051 1052 211
f 1052 1053 1048
f 1053 763 755
f 764 1049 1045
f 1054 1055 1050
f 1055 1056 1051
f 1056 1057 1052
f 1057 1058 1053
f 1058 770 763
f 771 1054 1049
f 1059 1060 1055
f 1060 1061 1056
f 1061 1062 1057
f 1062 1063 1058
f 1063 777 770
f 778 1059 1054
f 1064 1065 1060
f 1065 1066 1061
f 1066 1067 1062
f 1067 1068 1063
f 1059 778 784
f 1065 1064 1069
f 1066 1065 1070
f 1067 1066 1071
f 1068 1067 1072
f 777 1068 1073
f 1064 784 790
f 1070 1069 1074
f 1071 1070 1075
f 1072 1071 1076
f 1073 1072 1077
f 795 1073 1078
f 1069 790 797
f 1075 1074 1079
f 1076 1075 1080
f 1077 1076 1081
f 1078 1077 1082
f 802 1078 1083
f 1074 797 804
f 1080 1079 1084
f 1081 1080 1085
f 1082 1081 1086
f 1083 1082 1087
f 809 1083 1088
f 1079 804 811
f 1085 1084 1089
f 1086 1085 1090
f 1087 1086 1091
f 1088 1087 1092
f 816 1088 1093
f 1084 811 818
f 1090 1089 1094
f 1091 1090 1095
f 1092 1091 1096
f 1093 1092 1097
f 823 1093 1098
f 1089 818 825
f 826 1098 1099
f 1098 1097 1100
f 1097 1096 1101
f 1096 1095 1102
f 1095 1094 1103
f 1094 825 832
f 1104 833 1099
f 1105 1099 1100
f 1106 1100 1101
f 1107 1101 1102
f 1108 1102 1103
f 839 1103 832
f 1109 840 1104
f 1110 1104 1105
f 1111 1105 1106
f 1112 1106 1107
f 1113 1107 1108
f 846 1108 839
f 1114 847 1109
f 959 1109 1110
f 940 1110 1111
f 944 1111 1112
f 1115 1112 1113
f 850 1113 846
f 1116 851 1114
f 960 1114 959
f 959 940 938
f 1117 961 936
f 948 944 1118
f 855 1118 1115
f 1119 856 858
f 942 1119 1116
f 1120 961 1117
f 1117 939 943
f 860 1118 855
f 1121 856 1119
f 946 1119 942
f 1122 941 1123
f 1124 1123 1120
f 947 1120 943
f 865 948 860
f 1125 866 1121
f 950 1121 946
f 1126 945 1122
f 1127 1122 1124
f 951 1124 947
f 870 952 865
f 979 871 1125
f 954 1125 950
f 1128 949 1126
f 1129 1126 1127
f 955 1127 951
f 874 956 870
f 978 656 979
f 1040 953 1128
f 1041 1128 1129
f 934 1129 955
f 875 958 874
f 875 935 958
f 934 1041 1129
f 1041 1040 1128
f 1040 932 953
f 975 979 954
f 874 958 956
f 955 1129 1127
f 1129 1128 1126
f 1128 953 949
f 954 979 1125
f 979 656 871
f 870 956 952
f 951 1127 1124
f 1127 1126 1122
f 1126 949 945
f 950 1125 1121
f 1125 871 866
f 865 952 948
f 947 1124 1120
f 1124 1122 1123
f 1122 945 941
f 946 1121 1119
f 1121 866 856
f 860 948 1118
f 943 1120 1117
f 1120 1123 961
f 941 937 1123
f 942 1116 960
f 1119 858 1116
f 855 1115 850
f 1118 944 1115
f 1117 936 939
f 960 1116 1114
f 1116 858 851
f 850 1115 1113
f 1115 944 1112
f 944 940 1111
f 940 959 1110
f 959 1114 1109
f 1114 851 847
f 846 1113 1108
f 1113 1112 1107
f 1112 1111 1106
f 1111 1110 1105
f 1110 1109 1104
f 1109 847 840
f 839 1108 1103
f 1108 1107 1102
f 1107 1106 1101
f 1106 1105 1100
f 1105 1104 1099
f 1104 840 833
f 832 1103 1094
f 1103 1102 1095
f 1102 1101 1096
f 1101 1100 1097
f 1100 1099 1098
f 1099 833 826
f 825 1094 1089
f 1098 826 823
f 1097 1098 1093
f 1096 1097 1092
f 1095 1096 1091
f 1094 1095 1090
f 818 1089 1084
f 1093 823 816
f 1092 1093 1088
f 1091 1092 1087
f 1090 1091 1086
f 1089 1090 1085
f 811 1084 1079
f 1088 816 809
f 1087 1088 1083
f 1086 1087 1082
f 1085 1086 1081
f 1084 1085 1080
f 804 1079 1074
f 1083 809 802
f 1082 1083 1078
f 1081 1082 1077
f 1080 1081 1076
f 1079 1080 1075
f 797 1074 1069
f 1078 802 795
f 1077 1078 1073
f 1076 1077 1072
f 1075 1076 1071
f 1074 1075 1070
f 790 1069 1064
f 1073 795 777
f 1072 1073 1068
f 1071 1072 1067
f 1070 1071 1066
f 1069 1070 1065
f 784 1064 1059
f 777 1063 1068
f 1063 1062 1067
f 1062 1061 1066
f 1061 1060 1065
f 1060 1059 1064
f 1054 771 778
f 770 1058 1063
f 1058 1057 1062
f 1057 1056 1061
f 1056 1055 1060
f 1055 1054 1059
f 1049 764 771
f 763 1053 1058
f 1053 1052 1057
f 1052 1051 1056
f 1051 1050 1055
f 1050 1049 1054
f 1045 757 764
f 755 1048 1053
f 1048 211 1052
f 211 1047 1051
f 1047 1046 1050
f 1046 1045 1049
f 1042 750 757
f 756 1044 1048
f 1044 210 211
f 1046 1047 209
f 1045 1046 1043
f 750 1042 203
f 1044 756 208
f 210 1044 207
f 1042 1043 204
f 935 875 746
f 1041 934 930
f 1040 1041 1039
f 932 1040 1038
f 977 933 976
f 931 746 743
f 742 976 1037
f 976 933 929
f 928 1038 1035
f 1039 930 926
f 1038 1039 1036
f 927 743 739
f 738 1037 1034
f 1037 929 925
f 924 1035 1032
f 1036 926 922
f 1035 1036 1033
f 923 739 734
f 733 1034 1031
f 1034 925 921
f 920 1032 1029
f 1033 922 918
f 1032 1033 1030
f 919 734 729
f 728 1031 1028
f 1031 921 909
f 917 1029 914
f 1030 918 910
f 1029 1030 915
f 912 729 724
f 723 1028 1026
f 1028 909 1025
f 909 913 1023
f 911 912 1027
f 913 911 1024
f 1027 724 720
f 719 1026 1021
f 1026 1025 1020
f 1025 1023 1018
f 1024 1027 1022
f 1023 1024 1019
f 1022 720 713
f 712 1021 1016
f 1021 1020 1015
f 1020 1018 1013
f 1019 1022 1017
f 1018 1019 1014
f 1017 713 706
f 705 1016 1011
f 1016 1015 1010
f 1015 1013 1008
f 1014 1017 1012
f 1013 1014 1009
f 1012 706 699
f 698 1011 1006
f 1011 1010 1005
f 1010 1008 1003
f 1009 1012 1007
f 1008 1009 1004
f 1007 699 692
f 691 1006 1001
f 1006 1005 1000
f 1005 1003 998
f 1004 1007 1002
f 1003 1004 999
f 1002 692 685
f 684 1001 996
f 1001 1000 995
f 1000 998 993
f 999 1002 997
f 998 999 994
f 997 685 678
f 677 996 991
f 996 995 990
f 995 993 987
f 994 997 992
f 993 994 989
f 992 678 665
f 671 991 986
f 991 990 985
f 990 987 982
f 989 992 988
f 987 989 984
f 665 983 988
f 986 985 980
f 985 982 981
f 984 988 983
f 982 984 980
f 975 954 957
f 957 977 975
f 974 742 657
f 979 975 969
f 978 979 973
f 977 976 970
f 976 974 968
f 975 977 971
f 974 978 972
f 973 969 963
f 972 973 967
f 971 970 964
f 970 968 962
f 969 971 965
f 968 972 966
f 967 963 548
f 966 967 551
f 965 964 550
f 964 962 546
f 963 965 549
f 962 966 547
f 1123 937 961
f 938 942 960
f 958 935 934
f 957 954 953
f 956 958 955
f 954 950 949
f 952 956 951
f 950 946 945
f 948 952 947
f 946 942 941
f 944 948 943
f 942 938 937
f 940 944 939
f 938 940 936
f 935 931 930
f 933 957 932
f 931 927 926
f 929 933 928
f 927 923 922
f 925 929 924
f 923 919 918
f 921 925 920
f 919 912 910
f 909 921 917
f 916 914 901
f 915 910 903
f 914 915 904
f 913 909 907
f 912 911 902
f 911 913 908
f 910 912 905
f 909 916 906
f 908 907 899
f 907 906 898
f 906 901 893
f 905 902 894
f 904 903 895
f 903 905 897
f 902 908 900
f 901 904 896
f 900 899 891
f 899 898 890
f 898 893 884
f 897 894 886
f 896 895 887
f 895 897 889
f 894 900 892
f 893 896 888
f 892 891 882
f 891 890 883
f 890 884 876
f 889 886 881
f 888 887 879
f 887 889 880
f 886 892 885
f 884 888 877
f 885 882 878
f 883 876 878
f 877 879 878
f 881 885 878
f 611 875 634
f 745 610 873
f 744 745 872
f 608 744 629
f 655 651 630
f 634 874 632
f 873 631 869
f 872 873 868
f 629 872 625
f 655 630 867
f 656 655 871
f 632 870 628
f 869 627 864
f 868 869 862
f 625 868 621
f 867 626 861
f 871 867 866
f 628 865 624
f 864 623 859
f 862 864 863
f 621 862 617
f 861 622 857
f 866 861 856
f 624 860 854
f 859 619 853
f 863 859 637
f 612 617 863
f 852 618 636
f 858 857 852
f 849 855 850
f 620 854 849
f 613 853 615
f 852 636 848
f 858 852 851
f 849 850 845
f 620 849 844
f 616 620 843
f 635 616 842
f 848 635 841
f 851 848 847
f 845 846 838
f 844 845 837
f 843 844 836
f 842 843 835
f 841 842 834
f 847 841 840
f 838 839 831
f 837 838 830
f 836 837 829
f 835 836 828
f 834 835 827
f 840 834 833
f 831 832 819
f 830 831 820
f 829 830 821
f 828 829 822
f 827 828 824
f 833 827 826
f 819 825 812
f 826 824 823
f 824 822 817
f 822 821 815
f 821 820 814
f 820 819 813
f 812 818 805
f 823 817 816
f 817 815 810
f 815 814 808
f 814 813 807
f 813 812 806
f 805 811 798
f 816 810 809
f 810 808 803
f 808 807 801
f 807 806 800
f 806 805 799
f 798 804 791
f 809 803 802
f 803 801 796
f 801 800 794
f 800 799 793
f 799 798 792
f 791 797 785
f 802 796 795
f 796 794 789
f 794 793 788
f 793 792 787
f 792 791 786
f 785 790 780
f 795 789 777
f 789 788 783
f 788 787 782
f 787 786 781
f 786 785 779
f 780 784 773
f 776 777 783
f 775 776 782
f 774 775 781
f 772 774 779
f 773 772 780
f 771 766 778
f 769 770 776
f 768 769 775
f 767 768 774
f 765 767 772
f 766 765 773
f 764 759 771
f 762 763 769
f 761 762 768
f 760 761 767
f 758 760 765
f 759 758 766
f 757 751 764
f 754 755 762
f 177 754 761
f 752 177 760
f 753 752 758
f 751 753 759
f 750 747 757
f 749 756 754
f 176 749 177
f 748 175 753
f 753 751 748
f 747 750 168
f 756 749 208
f 749 176 173
f 748 747 169
f 875 611 746
f 610 745 606
f 745 744 741
f 744 608 740
f 609 653 652
f 746 607 743
f 652 742 737
f 609 652 605
f 740 604 735
f 606 741 602
f 741 740 736
f 743 603 739
f 737 738 732
f 605 737 601
f 735 600 730
f 602 736 598
f 736 735 731
f 739 599 734
f 732 733 727
f 601 732 597
f 730 596 725
f 598 731 594
f 731 730 726
f 734 595 729
f 727 728 722
f 597 727 585
f 725 593 590
f 594 726 586
f 726 725 591
f 729 588 724
f 722 723 718
f 585 722 717
f 589 585 715
f 588 587 721
f 587 589 716
f 724 721 720
f 718 719 711
f 717 718 710
f 715 717 708
f 721 716 714
f 716 715 709
f 720 714 713
f 711 712 704
f 710 711 703
f 708 710 701
f 714 709 707
f 709 708 702
f 713 707 706
f 704 705 697
f 703 704 696
f 701 703 694
f 707 702 700
f 702 701 695
f 706 700 699
f 697 698 690
f 696 697 689
f 694 696 687
f 700 695 693
f 695 694 688
f 699 693 692
f 690 691 683
f 689 690 682
f 687 689 680
f 693 688 686
f 688 687 681
f 692 686 685
f 683 684 676
f 682 683 675
f 680 682 673
f 686 681 679
f 681 680 674
f 685 679 678
f 676 677 670
f 675 676 669
f 673 675 666
f 679 674 672
f 674 673 668
f 678 672 665
f 670 671 664
f 669 670 663
f 666 669 660
f 672 668 667
f 668 666 662
f 661 665 667
f 663 664 659
f 660 663 658
f 667 662 661
f 662 660 659
f 630 651 633
f 653 633 651
f 742 650 657
f 651 655 645
f 655 654 649
f 652 653 646
f 650 652 644
f 653 651 647
f 654 650 648
f 645 649 639
f 649 648 643
f 646 647 640
f 644 646 638
f 647 645 641
f 648 644 642
f 639 643 379
f 643 642 381
f 640 641 380
f 638 640 377
f 641 639 378
f 642 638 376
f 612 863 637
f 618 614 636
f 611 634 610
f 630 633 629
f 634 632 631
f 626 630 625
f 632 628 627
f 622 626 621
f 628 624 623
f 618 622 617
f 624 620 619
f 614 618 612
f 620 616 615
f 616 614 613
f 607 611 606
f 633 609 608
f 603 607 602
f 609 605 604
f 599 603 598
f 605 601 600
f 595 599 594
f 601 597 596
f 588 595 586
f 597 585 593
f 590 592 577
f 586 591 579
f 591 590 580
f 585 589 583
f 587 588 578
f 589 587 584
f 588 586 581
f 592 585 582
f 583 584 575
f 582 583 574
f 577 582 569
f 578 581 570
f 579 580 571
f 581 579 573
f 584 578 576
f 580 577 572
f 575 576 567
f 574 575 566
f 569 574 560
f 570 573 562
f 571 572 563
f 573 571 565
f 576 570 568
f 572 569 564
f 567 568 559
f 566 567 558
f 560 566 553
f 562 565 557
f 563 564 556
f 565 563 555
f 568 562 561
f 564 560 552
f 559 561 554
f 553 558 554
f 556 552 554
f 561 557 554

