# https://github.com/mikedh/trimesh

o m52.off
v 0.46809100 0.62066700 0.61819500
v 0.46809100 0.61570700 0.68082500
v 0.44968400 0.61570700 0.66886400
v 0.43830800 0.61570700 0.63754900
v 0.43830800 0.61570700 0.59884100
v 0.44968400 0.61570700 0.56752600
v 0.46809100 0.61570700 0.55556500
v 0.48649700 0.61570700 0.56752600
v 0.49787300 0.61570700 0.59884100
v 0.49787300 0.61570700 0.63754900
v 0.48649700 0.61570700 0.66886400
v 0.46809100 0.60131300 0.73732400
v 0.43307900 0.60131300 0.71457200
v 0.41144100 0.60131300 0.65500800
v 0.41144100 0.60131300 0.58138200
v 0.43307900 0.60131300 0.52181700
v 0.46809100 0.60131300 0.49906600
v 0.50310200 0.60131300 0.52181700
v 0.52474000 0.60131300 0.58138200
v 0.52474000 0.60131300 0.65500800
v 0.50310200 0.60131300 0.71457200
v 0.46809100 0.57889400 0.78216200
v 0.41990200 0.57889400 0.75084700
v 0.39011900 0.57889400 0.66886400
v 0.39011900 0.57889400 0.56752600
v 0.41990200 0.57889400 0.48554200
v 0.46809100 0.57889400 0.45422700
v 0.51627900 0.57889400 0.48554200
v 0.54606200 0.57889400 0.56752600
v 0.54606200 0.57889400 0.66886400
v 0.51627900 0.57889400 0.75084700
v 0.46809100 0.55064400 0.81095000
v 0.41144100 0.55064400 0.77413700
v 0.37643000 0.55064400 0.67776000
v 0.37643000 0.55064400 0.55863000
v 0.41144100 0.55064400 0.46225300
v 0.46809100 0.55064400 0.42544000
v 0.52474000 0.55064400 0.46225300
v 0.55975100 0.55064400 0.55863000
v 0.55975100 0.55064400 0.67776000
v 0.52474000 0.55064400 0.77413700
v 0.46809100 0.51932900 0.82087000
v 0.40852600 0.51932900 0.78216200
v 0.37171300 0.51932900 0.68082500
v 0.37171300 0.51932900 0.55556500
v 0.40852600 0.51932900 0.45422700
v 0.46809100 0.51932900 0.41552000
v 0.52765500 0.51932900 0.45422700
v 0.56446800 0.51932900 0.55556500
v 0.56446800 0.51932900 0.68082500
v 0.52765500 0.51932900 0.78216200
v 0.46809100 0.48801400 0.81095000
v 0.41144100 0.48801400 0.77413700
v 0.37643000 0.48801400 0.67776000
v 0.37643000 0.48801400 0.55863000
v 0.41144100 0.48801400 0.46225300
v 0.46809100 0.48801400 0.42544000
v 0.52474000 0.48801400 0.46225300
v 0.55975100 0.48801400 0.55863000
v 0.55975100 0.48801400 0.67776000
v 0.52474000 0.48801400 0.77413700
v 0.46809100 0.45976400 0.78216200
v 0.41990200 0.45976400 0.75084700
v 0.39011900 0.45976400 0.66886400
v 0.39011900 0.45976400 0.56752600
v 0.41990200 0.45976400 0.48554200
v 0.46809100 0.45976400 0.45422700
v 0.51627900 0.45976400 0.48554200
v 0.54606200 0.45976400 0.56752600
v 0.54606200 0.45976400 0.66886400
v 0.51627900 0.45976400 0.75084700
v 0.46809100 0.43734500 0.73732400
v 0.43307900 0.43734500 0.71457200
v 0.41144100 0.43734500 0.65500800
v 0.41144100 0.43734500 0.58138200
v 0.43307900 0.43734500 0.52181700
v 0.46809100 0.43734500 0.49906600
v 0.50310200 0.43734500 0.52181700
v 0.52474000 0.43734500 0.58138200
v 0.52474000 0.43734500 0.65500800
v 0.50310200 0.43734500 0.71457200
v 0.46809100 0.42295100 0.68082500
v 0.44968400 0.42295100 0.66886400
v 0.43830800 0.42295100 0.63754900
v 0.43830800 0.42295100 0.59884100
v 0.44968400 0.42295100 0.56752600
v 0.46809100 0.42295100 0.55556500
v 0.48649700 0.42295100 0.56752600
v 0.49787300 0.42295100 0.59884100
v 0.49787300 0.42295100 0.63754900
v 0.48649700 0.42295100 0.66886400
v 0.46809100 0.41799200 0.61819500
v 0.53235300 0.51617100 0.49060500
v 0.52008000 0.53447800 0.52364400
v 0.52008000 0.14533200 0.73927800
v 0.46809100 0.12702400 0.70623800
v 0.46809100 0.51617100 0.49060500
v 0.48794900 0.54579300 0.54406400
v 0.48794900 0.15664700 0.75969700
v 0.44823200 0.54579300 0.54406400
v 0.44823200 0.15664700 0.75969700
v 0.41610100 0.53447800 0.52364400
v 0.41610100 0.14533200 0.73927800
v 0.40382800 0.51617100 0.49060500
v 0.40382800 0.12702400 0.70623800
v 0.41610100 0.49786300 0.45756600
v 0.41610100 0.10871700 0.67319900
v 0.44823200 0.48654800 0.43714600
v 0.44823200 0.09740170 0.65277900
v 0.48794900 0.48654800 0.43714600
v 0.48794900 0.09740170 0.65277900
v 0.52008000 0.49786300 0.45756600
v 0.52008000 0.10871700 0.67319900
v 0.53235300 0.12702400 0.70623800
v 0.46809100 0.42046300 0.42046300
v 0.46809100 0.41078600 0.54266800
v 0.43217600 0.41078600 0.51932900
v 0.40997900 0.41078600 0.45822700
v 0.40997900 0.41078600 0.38270000
v 0.43217600 0.41078600 0.32159700
v 0.46809100 0.41078600 0.29825800
v 0.50400600 0.41078600 0.32159700
v 0.52620200 0.41078600 0.38270000
v 0.52620200 0.41078600 0.45822700
v 0.50400600 0.41078600 0.51932900
v 0.46809100 0.38270000 0.65291100
v 0.39977600 0.38270000 0.60851700
v 0.35755500 0.38270000 0.49229300
v 0.35755500 0.38270000 0.34863300
v 0.39977600 0.38270000 0.23240900
v 0.46809100 0.38270000 0.18801600
v 0.53640500 0.38270000 0.23240900
v 0.57862600 0.38270000 0.34863300
v 0.57862600 0.38270000 0.49229300
v 0.53640500 0.38270000 0.60851700
v 0.46809100 0.33895500 0.74040000
v 0.37406400 0.33895500 0.67929700
v 0.31595200 0.33895500 0.51932900
v 0.31595200 0.33895500 0.32159700
v 0.37406400 0.33895500 0.16162900
v 0.46809100 0.33895500 0.10052700
v 0.56211800 0.33895500 0.16162900
v 0.62022900 0.33895500 0.32159700
v 0.62022900 0.33895500 0.51932900
v 0.56211800 0.33895500 0.67929700
v 0.46809100 0.28383400 0.79657100
v 0.35755500 0.28383400 0.72474100
v 0.28924100 0.28383400 0.53668700
v 0.28924100 0.28383400 0.30424000
v 0.35755500 0.28383400 0.11618600
v 0.46809100 0.28383400 0.04435530
v 0.57862600 0.28383400 0.11618600
v 0.64694100 0.28383400 0.30424000
v 0.64694100 0.28383400 0.53668700
v 0.57862600 0.28383400 0.72474100
v 0.46809100 0.22273200 0.81592600
v 0.35186700 0.22273200 0.74040000
v 0.28003700 0.22273200 0.54266800
v 0.28003700 0.22273200 0.29825800
v 0.35186700 0.22273200 0.10052700
v 0.46809100 0.22273200 0.02500000
v 0.58431400 0.22273200 0.10052700
v 0.65614500 0.22273200 0.29825800
v 0.65614500 0.22273200 0.54266800
v 0.58431400 0.22273200 0.74040000
v 0.46809100 0.16162900 0.79657100
v 0.35755500 0.16162900 0.72474100
v 0.28924100 0.16162900 0.53668700
v 0.28924100 0.16162900 0.30424000
v 0.35755500 0.16162900 0.11618600
v 0.46809100 0.16162900 0.04435530
v 0.57862600 0.16162900 0.11618600
v 0.64694100 0.16162900 0.30424000
v 0.64694100 0.16162900 0.53668700
v 0.57862600 0.16162900 0.72474100
v 0.46809100 0.10650800 0.74040000
v 0.37406400 0.10650800 0.67929700
v 0.31595200 0.10650800 0.51932900
v 0.31595200 0.10650800 0.32159700
v 0.37406400 0.10650800 0.16162900
v 0.46809100 0.10650800 0.10052700
v 0.56211800 0.10650800 0.16162900
v 0.62022900 0.10650800 0.32159700
v 0.62022900 0.10650800 0.51932900
v 0.56211800 0.10650800 0.67929700
v 0.46809100 0.06276340 0.65291100
v 0.39977600 0.06276340 0.60851700
v 0.35755500 0.06276340 0.49229300
v 0.35755500 0.06276340 0.34863300
v 0.39977600 0.06276340 0.23240900
v 0.46809100 0.06276340 0.18801600
v 0.53640500 0.06276340 0.23240900
v 0.57862600 0.06276340 0.34863300
v 0.57862600 0.06276340 0.49229300
v 0.53640500 0.06276340 0.60851700
v 0.46809100 0.03467770 0.54266800
v 0.43217600 0.03467770 0.51932900
v 0.40997900 0.03467770 0.45822700
v 0.40997900 0.03467770 0.38270000
v 0.43217600 0.03467770 0.32159700
v 0.46809100 0.03467770 0.29825800
v 0.50400600 0.03467770 0.32159700
v 0.52620200 0.03467770 0.38270000
v 0.52620200 0.03467770 0.45822700
v 0.50400600 0.03467770 0.51932900
v 0.46809100 0.02500000 0.42046300
v 0.51752400 0.52427200 0.81592600
v 0.50808300 0.52427200 0.87403800
v 0.51752400 0.51438600 0.81592600
v 0.50808300 0.51438600 0.87403800
v 0.46809100 0.51438600 0.81592600
v 0.46809100 0.52427200 0.81592600
v 0.48336600 0.52427200 0.90995300
v 0.48336600 0.51438600 0.90995300
v 0.45281500 0.52427200 0.90995300
v 0.45281500 0.51438600 0.90995300
v 0.42809900 0.52427200 0.87403800
v 0.42809900 0.51438600 0.87403800
v 0.41865800 0.52427200 0.81592600
v 0.41865800 0.51438600 0.81592600
v 0.42809900 0.52427200 0.75781500
v 0.42809900 0.51438600 0.75781500
v 0.45281500 0.52427200 0.72190000
v 0.45281500 0.51438600 0.72190000
v 0.48336600 0.52427200 0.72190000
v 0.48336600 0.51438600 0.72190000
v 0.50808300 0.52427200 0.75781500
v 0.50808300 0.51438600 0.75781500
v 0.51752400 0.51240800 0.81592600
v 0.50808300 0.51240800 0.87403800
v 0.51752400 0.50252200 0.81592600
v 0.50808300 0.50252200 0.87403800
v 0.46809100 0.50252200 0.81592600
v 0.46809100 0.51240800 0.81592600
v 0.48336600 0.51240800 0.90995300
v 0.48336600 0.50252200 0.90995300
v 0.45281500 0.51240800 0.90995300
v 0.45281500 0.50252200 0.90995300
v 0.42809900 0.51240800 0.87403800
v 0.42809900 0.50252200 0.87403800
v 0.41865800 0.51240800 0.81592600
v 0.41865800 0.50252200 0.81592600
v 0.42809900 0.51240800 0.75781500
v 0.42809900 0.50252200 0.75781500
v 0.45281500 0.51240800 0.72190000
v 0.45281500 0.50252200 0.72190000
v 0.48336600 0.51240800 0.72190000
v 0.48336600 0.50252200 0.72190000
v 0.50808300 0.51240800 0.75781500
v 0.50808300 0.50252200 0.75781500
v 0.97500000 0.22767500 0.56451000
v 0.88772900 0.22767500 0.59757600
v 0.97500000 0.21778800 0.56451000
v 0.88772900 0.21778800 0.59757600
v 0.66582200 0.21778800 0.42046300
v 0.66582200 0.22767500 0.42046300
v 0.71569800 0.22767500 0.56299100
v 0.71569800 0.21778800 0.56299100
v 0.52461600 0.22767500 0.47396500
v 0.52461600 0.21778800 0.47396500
v 0.38746900 0.22767500 0.36450400
v 0.38746900 0.21778800 0.36450400
v 0.35664500 0.22767500 0.27641600
v 0.35664500 0.21778800 0.27641600
v 0.44391500 0.22767500 0.24335000
v 0.44391500 0.21778800 0.24335000
v 0.61594700 0.22767500 0.27793500
v 0.61594700 0.21778800 0.27793500
v 0.80702900 0.22767500 0.36696100
v 0.80702900 0.21778800 0.36696100
v 0.94417500 0.22767500 0.47642300
v 0.94417500 0.21778800 0.47642300
v 0.64203200 0.22767500 0.47171800
v 0.64203200 0.21778800 0.47171800
v 0.36608700 0.21778800 0.40488900
v 0.36608700 0.22767500 0.40488900
v 0.47148900 0.22767500 0.51302000
v 0.47148900 0.21778800 0.51302000
v 0.26068500 0.22767500 0.51302000
v 0.26068500 0.21778800 0.51302000
v 0.09014180 0.22767500 0.47171800
v 0.09014180 0.21778800 0.47171800
v 0.02500000 0.22767500 0.40488900
v 0.02500000 0.21778800 0.40488900
v 0.09014180 0.22767500 0.33806000
v 0.09014180 0.21778800 0.33806000
v 0.26068500 0.22767500 0.29675800
v 0.26068500 0.21778800 0.29675800
v 0.47148900 0.22767500 0.29675800
v 0.47148900 0.21778800 0.29675800
v 0.64203200 0.22767500 0.33806000
v 0.64203200 0.21778800 0.33806000
v 0.70717400 0.22767500 0.40488900
v 0.70717400 0.21778800 0.40488900
f 2 3 1
f 3 4 1
f 4 5 1
f 5 6 1
f 6 7 1
f 7 8 1
f 8 9 1
f 9 10 1
f 10 11 1
f 11 2 1
f 2 12 3
f 12 13 3
f 3 13 4
f 13 14 4
f 4 14 5
f 14 15 5
f 5 15 6
f 15 16 6
f 6 16 7
f 16 17 7
f 7 17 8
f 17 18 8
f 8 18 9
f 18 19 9
f 9 19 10
f 19 20 10
f 10 20 11
f 20 21 11
f 11 21 2
f 21 12 2
f 12 22 13
f 22 23 13
f 13 23 14
f 23 24 14
f 14 24 15
f 24 25 15
f 15 25 16
f 25 26 16
f 16 26 17
f 26 27 17
f 17 27 18
f 27 28 18
f 18 28 19
f 28 29 19
f 19 29 20
f 29 30 20
f 20 30 21
f 30 31 21
f 21 31 12
f 31 22 12
f 22 32 23
f 32 33 23
f 23 33 24
f 33 34 24
f 24 34 25
f 34 35 25
f 25 35 26
f 35 36 26
f 26 36 27
f 36 37 27
f 27 37 28
f 37 38 28
f 28 38 29
f 38 39 29
f 29 39 30
f 39 40 30
f 30 40 31
f 40 41 31
f 31 41 22
f 41 32 22
f 32 42 33
f 42 43 33
f 33 43 34
f 43 44 34
f 34 44 35
f 44 45 35
f 35 45 36
f 45 46 36
f 36 46 37
f 46 47 37
f 37 47 38
f 47 48 38
f 38 48 39
f 48 49 39
f 39 49 40
f 49 50 40
f 40 50 41
f 50 51 41
f 41 51 32
f 51 42 32
f 42 52 43
f 52 53 43
f 43 53 44
f 53 54 44
f 44 54 45
f 54 55 45
f 45 55 46
f 55 56 46
f 46 56 47
f 56 57 47
f 47 57 48
f 57 58 48
f 48 58 49
f 58 59 49
f 49 59 50
f 59 60 50
f 50 60 51
f 60 61 51
f 51 61 42
f 61 52 42
f 52 62 53
f 62 63 53
f 53 63 54
f 63 64 54
f 54 64 55
f 64 65 55
f 55 65 56
f 65 66 56
f 56 66 57
f 66 67 57
f 57 67 58
f 67 68 58
f 58 68 59
f 68 69 59
f 59 69 60
f 69 70 60
f 60 70 61
f 70 71 61
f 61 71 52
f 71 62 52
f 62 72 63
f 72 73 63
f 63 73 64
f 73 74 64
f 64 74 65
f 74 75 65
f 65 75 66
f 75 76 66
f 66 76 67
f 76 77 67
f 67 77 68
f 77 78 68
f 68 78 69
f 78 79 69
f 69 79 70
f 79 80 70
f 70 80 71
f 80 81 71
f 71 81 62
f 81 72 62
f 72 82 73
f 82 83 73
f 73 83 74
f 83 84 74
f 74 84 75
f 84 85 75
f 75 85 76
f 85 86 76
f 76 86 77
f 86 87 77
f 77 87 78
f 87 88 78
f 78 88 79
f 88 89 79
f 79 89 80
f 89 90 80
f 80 90 81
f 90 91 81
f 81 91 72
f 91 82 72
f 82 92 83
f 92 92 83
f 83 92 84
f 92 92 84
f 84 92 85
f 92 92 85
f 85 92 86
f 92 92 86
f 86 92 87
f 92 92 87
f 87 92 88
f 92 92 88
f 88 92 89
f 92 92 89
f 89 92 90
f 92 92 90
f 90 92 91
f 92 92 91
f 91 92 82
f 92 92 82
f 93 94 114
f 94 95 114
f 96 114 95
f 97 94 93
f 94 98 95
f 98 99 95
f 96 95 99
f 97 98 94
f 98 100 99
f 100 101 99
f 96 99 101
f 97 100 98
f 100 102 101
f 102 103 101
f 96 101 103
f 97 102 100
f 102 104 103
f 104 105 103
f 96 103 105
f 97 104 102
f 104 106 105
f 106 107 105
f 96 105 107
f 97 106 104
f 106 108 107
f 108 109 107
f 96 107 109
f 97 108 106
f 108 110 109
f 110 111 109
f 96 109 111
f 97 110 108
f 110 112 111
f 112 113 111
f 96 111 113
f 97 112 110
f 112 93 113
f 93 114 113
f 96 113 114
f 97 93 112
f 116 117 115
f 117 118 115
f 118 119 115
f 119 120 115
f 120 121 115
f 121 122 115
f 122 123 115
f 123 124 115
f 124 125 115
f 125 116 115
f 116 126 117
f 126 127 117
f 117 127 118
f 127 128 118
f 118 128 119
f 128 129 119
f 119 129 120
f 129 130 120
f 120 130 121
f 130 131 121
f 121 131 122
f 131 132 122
f 122 132 123
f 132 133 123
f 123 133 124
f 133 134 124
f 124 134 125
f 134 135 125
f 125 135 116
f 135 126 116
f 126 136 127
f 136 137 127
f 127 137 128
f 137 138 128
f 128 138 129
f 138 139 129
f 129 139 130
f 139 140 130
f 130 140 131
f 140 141 131
f 131 141 132
f 141 142 132
f 132 142 133
f 142 143 133
f 133 143 134
f 143 144 134
f 134 144 135
f 144 145 135
f 135 145 126
f 145 136 126
f 136 146 137
f 146 147 137
f 137 147 138
f 147 148 138
f 138 148 139
f 148 149 139
f 139 149 140
f 149 150 140
f 140 150 141
f 150 151 141
f 141 151 142
f 151 152 142
f 142 152 143
f 152 153 143
f 143 153 144
f 153 154 144
f 144 154 145
f 154 155 145
f 145 155 136
f 155 146 136
f 146 156 147
f 156 157 147
f 147 157 148
f 157 158 148
f 148 158 149
f 158 159 149
f 149 159 150
f 159 160 150
f 150 160 151
f 160 161 151
f 151 161 152
f 161 162 152
f 152 162 153
f 162 163 153
f 153 163 154
f 163 164 154
f 154 164 155
f 164 165 155
f 155 165 146
f 165 156 146
f 156 166 157
f 166 167 157
f 157 167 158
f 167 168 158
f 158 168 159
f 168 169 159
f 159 169 160
f 169 170 160
f 160 170 161
f 170 171 161
f 161 171 162
f 171 172 162
f 162 172 163
f 172 173 163
f 163 173 164
f 173 174 164
f 164 174 165
f 174 175 165
f 165 175 156
f 175 166 156
f 166 176 167
f 176 177 167
f 167 177 168
f 177 178 168
f 168 178 169
f 178 179 169
f 169 179 170
f 179 180 170
f 170 180 171
f 180 181 171
f 171 181 172
f 181 182 172
f 172 182 173
f 182 183 173
f 173 183 174
f 183 184 174
f 174 184 175
f 184 185 175
f 175 185 166
f 185 176 166
f 176 186 177
f 186 187 177
f 177 187 178
f 187 188 178
f 178 188 179
f 188 189 179
f 179 189 180
f 189 190 180
f 180 190 181
f 190 191 181
f 181 191 182
f 191 192 182
f 182 192 183
f 192 193 183
f 183 193 184
f 193 194 184
f 184 194 185
f 194 195 185
f 185 195 176
f 195 186 176
f 186 196 187
f 196 197 187
f 187 197 188
f 197 198 188
f 188 198 189
f 198 199 189
f 189 199 190
f 199 200 190
f 190 200 191
f 200 201 191
f 191 201 192
f 201 202 192
f 192 202 193
f 202 203 193
f 193 203 194
f 203 204 194
f 194 204 195
f 204 205 195
f 195 205 186
f 205 196 186
f 196 206 197
f 206 206 197
f 197 206 198
f 206 206 198
f 198 206 199
f 206 206 199
f 199 206 200
f 206 206 200
f 200 206 201
f 206 206 201
f 201 206 202
f 202 206 203
f 206 206 203
f 203 206 204
f 204 206 205
f 206 206 205
f 205 206 196
f 206 206 196
f 207 208 209
f 208 210 209
f 211 209 210
f 212 208 207
f 208 213 210
f 213 214 210
f 211 210 214
f 212 213 208
f 213 215 214
f 215 216 214
f 211 214 216
f 212 215 213
f 215 217 216
f 217 218 216
f 211 216 218
f 212 217 215
f 217 219 218
f 219 220 218
f 211 218 220
f 212 219 217
f 219 221 220
f 221 222 220
f 211 220 222
f 212 221 219
f 221 223 222
f 223 224 222
f 211 222 224
f 212 223 221
f 223 225 224
f 225 226 224
f 211 224 226
f 212 225 223
f 225 227 226
f 227 228 226
f 211 226 228
f 212 227 225
f 227 207 228
f 207 209 228
f 211 228 209
f 212 207 227
f 229 230 231
f 230 232 231
f 233 231 232
f 234 230 229
f 230 235 232
f 235 236 232
f 233 232 236
f 234 235 230
f 235 237 236
f 237 238 236
f 233 236 238
f 234 237 235
f 237 239 238
f 239 240 238
f 233 238 240
f 234 239 237
f 239 241 240
f 241 242 240
f 233 240 242
f 234 241 239
f 241 243 242
f 243 244 242
f 233 242 244
f 234 243 241
f 243 245 244
f 245 246 244
f 233 244 246
f 234 245 243
f 245 247 246
f 247 248 246
f 233 246 248
f 234 247 245
f 247 249 248
f 249 250 248
f 233 248 250
f 234 249 247
f 249 229 250
f 229 231 250
f 233 250 231
f 234 229 249
f 251 252 253
f 252 254 253
f 255 253 254
f 256 252 251
f 252 257 254
f 257 258 254
f 255 254 258
f 256 257 252
f 257 259 258
f 259 260 258
f 255 258 260
f 256 259 257
f 259 261 260
f 261 262 260
f 255 260 262
f 256 261 259
f 261 263 262
f 263 264 262
f 255 262 264
f 256 263 261
f 263 265 264
f 265 266 264
f 255 264 266
f 256 265 263
f 265 267 266
f 267 268 266
f 255 266 268
f 256 267 265
f 267 269 268
f 269 270 268
f 255 268 270
f 256 269 267
f 269 271 270
f 271 272 270
f 255 270 272
f 256 271 269
f 271 251 272
f 251 253 272
f 255 272 253
f 256 251 271
f 293 273 294
f 273 274 294
f 275 294 274
f 276 273 293
f 273 277 274
f 277 278 274
f 275 274 278
f 276 277 273
f 277 279 278
f 279 280 278
f 275 278 280
f 276 279 277
f 279 281 280
f 281 282 280
f 275 280 282
f 276 281 279
f 281 283 282
f 283 284 282
f 275 282 284
f 276 283 281
f 283 285 284
f 285 286 284
f 275 284 286
f 276 285 283
f 285 287 286
f 287 288 286
f 275 286 288
f 276 287 285
f 287 289 288
f 289 290 288
f 275 288 290
f 276 289 287
f 289 291 290
f 291 292 290
f 275 290 292
f 276 291 289
f 291 293 292
f 293 294 292
f 275 292 294
f 276 293 291

