# https://github.com/mikedh/trimesh

o m25.off
v 0.41694200 0.28888000 0.50223100
v 0.42593100 0.28974900 0.50176100
v 0.42665100 0.28591200 0.50358100
v 0.42945300 0.28497600 0.50345500
v 0.43076600 0.28929700 0.50149100
v 0.42123600 0.39584200 0.21746700
v 0.45702200 0.39434300 0.22234500
v 0.45353700 0.41341000 0.25203800
v 0.42123600 0.41562000 0.24642100
v 0.45017400 0.42552500 0.28574200
v 0.42123600 0.42707500 0.28387200
v 0.44725600 0.42738500 0.32250400
v 0.47431600 0.41945900 0.29321800
v 0.46892400 0.42131600 0.32692800
v 0.42123600 0.42900500 0.32523800
v 0.42123600 0.42179700 0.36069000
v 0.44411500 0.42006700 0.36042100
v 0.46332900 0.41485400 0.35969800
v 0.75340200 0.02500000 0.02500000
v 0.81747300 0.02500000 0.48354800
v 0.43507900 0.25238900 0.48472900
v 0.43701300 0.25362400 0.49154800
v 0.44202800 0.25503200 0.49255300
v 0.44508100 0.25519900 0.49082200
v 0.44074900 0.28876800 0.49797100
v 0.43820300 0.28514300 0.50141400
v 0.44145500 0.28151500 0.49943100
v 0.71831700 0.02500000 0.28773500
v 0.72143400 0.02500000 0.97500000
v 0.45143500 0.25527100 0.48682300
v 0.44779000 0.26082300 0.48565100
v 0.44668900 0.26352900 0.48697800
v 0.45159700 0.25790500 0.48790500
v 0.45028200 0.26198900 0.49169200
v 0.44520400 0.26082300 0.48727900
v 0.44796900 0.25998500 0.49153800
v 0.45434200 0.25527100 0.44460500
v 0.45081200 0.26082300 0.44640600
v 0.44838500 0.26464100 0.44764400
v 0.45457400 0.25784700 0.44399100
v 0.45287600 0.26211900 0.44330100
v 0.45024200 0.25527100 0.44142100
v 0.45297700 0.26146300 0.44091700
v 0.45290200 0.25527100 0.45304900
v 0.45130700 0.26152900 0.45602200
v 0.44971100 0.26778600 0.45899500
v 0.45367700 0.26227000 0.45700100
v 0.45517000 0.26046100 0.45355000
v 0.45357300 0.25527100 0.45924900
v 0.45316700 0.25527100 0.46745600
v 0.45039200 0.26642600 0.47099500
v 0.45513700 0.26149400 0.47009900
v 0.45536600 0.26169600 0.47201300
v 0.45262900 0.25916300 0.47360600
v 0.45364800 0.25527100 0.47454900
v 0.47626900 0.21929400 0.25020900
v 0.47983500 0.22880300 0.23573200
v 0.47269800 0.21328000 0.26673000
v 0.48996700 0.22366800 0.26636700
v 0.46900500 0.21020000 0.28506000
v 0.48089700 0.21580200 0.28540100
v 0.46507700 0.20949600 0.30495900
v 0.47915100 0.21597800 0.30538300
v 0.49199800 0.22343000 0.28543800
v 0.49122800 0.22448300 0.30585700
v 0.49495400 0.23234200 0.24933300
v 0.50474900 0.23690300 0.26633400
v 0.50178000 0.23232200 0.28558600
v 0.50154800 0.23461900 0.30680100
v 0.50971700 0.24171300 0.28625900
v 0.51035200 0.24599500 0.30863100
v 0.50162700 0.37527400 0.35787200
v 0.48493400 0.38926200 0.37256300
v 0.48895700 0.39569600 0.35797700
v 0.49451200 0.39894200 0.33867300
v 0.47190900 0.39566600 0.38163600
v 0.47742400 0.40681400 0.35893200
v 0.45720200 0.40041900 0.38811800
v 0.48358500 0.41192100 0.33187200
v 0.50032900 0.39875100 0.31880800
v 0.50833300 0.38437200 0.32796500
v 0.50513800 0.39487100 0.30253800
v 0.48993600 0.41063700 0.30419500
v 0.49602400 0.40261300 0.27963800
v 0.47983500 0.40894100 0.26197800
v 0.71015900 0.32583900 0.14235300
v 0.71059100 0.32591600 0.14506800
v 0.71128100 0.32864400 0.14029000
v 0.71430700 0.33210100 0.14021900
v 0.71515400 0.33627700 0.14235900
v 0.71648200 0.33171300 0.14177700
v 0.71646600 0.32772000 0.14240200
v 0.71445800 0.32647900 0.14503900
v 0.71189600 0.32850200 0.14901500
v 0.70757000 0.32891200 0.14924200
v 0.71319200 0.33317900 0.15296500
v 0.71569900 0.33628300 0.15126300
v 0.71066200 0.33166200 0.15319600
v 0.70803300 0.33077000 0.15276400
v 0.70423600 0.33141800 0.15008400
v 0.70384900 0.33553900 0.14561500
v 0.70687700 0.33031000 0.14408600
v 0.70621300 0.33877500 0.14375100
v 0.70973300 0.33865200 0.14264400
v 0.71173800 0.34201000 0.14380700
v 0.71435000 0.34119300 0.14444100
v 0.71607100 0.34046000 0.14758700
v 0.71632000 0.33229100 0.14668100
v 0.59879700 0.49838600 0.28171700
v 0.59918900 0.49755800 0.28421400
v 0.59932300 0.49330900 0.28632300
v 0.59847100 0.48896300 0.28583000
v 0.59683500 0.48660700 0.28527500
v 0.59573700 0.48609800 0.28459200
v 0.59445200 0.48720100 0.28341400
v 0.59379100 0.48961200 0.28226300
v 0.59507100 0.49654000 0.28176000
v 0.58877100 0.49209500 0.28531800
v 0.58801900 0.50105200 0.28996900
v 0.59055500 0.50240200 0.29112900
v 0.58321800 0.49026200 0.28918400
v 0.58538600 0.49747000 0.28941800
v 0.59236300 0.50092000 0.29296500
v 0.59571700 0.49745400 0.29116000
v 0.59365800 0.49501000 0.29564900
v 0.59531700 0.48912600 0.29386100
v 0.59664000 0.48733200 0.28900300
v 0.59055300 0.47905900 0.29008000
v 0.58752300 0.48284700 0.28780100
v 0.47531100 0.26282200 0.40940700
v 0.47371700 0.26388200 0.40895900
v 0.47129400 0.26799400 0.40993700
v 0.47199500 0.27228800 0.41354800
v 0.47345900 0.26987900 0.41489300
v 0.47595400 0.26799400 0.41312200
v 0.47511000 0.26122700 0.41126900
v 0.47389900 0.26012700 0.41604200
v 0.46925200 0.25775300 0.42363100
v 0.46900300 0.24791000 0.42159100
v 0.46800900 0.24773300 0.41672900
v 0.47034400 0.25374700 0.42224700
v 0.46788000 0.24582700 0.42005600
v 0.46632700 0.24503900 0.41866900
v 0.46259000 0.24789700 0.41720100
v 0.46604500 0.25282100 0.41425800
v 0.46802700 0.26008700 0.41205900
v 0.46041100 0.25430000 0.41730800
v 0.46404800 0.26133900 0.41536000
v 0.46621400 0.26543900 0.41522200
v 0.46419900 0.26369500 0.41886500
v 0.46590300 0.26446000 0.41997500
v 0.46815600 0.26265000 0.42155700
v 0.46020000 0.26164300 0.42796000
v 0.46392900 0.26151200 0.42668800
v 0.45845900 0.26124900 0.43459800
v 0.46207200 0.25803200 0.43319000
v 0.45664300 0.24835000 0.44046500
v 0.45202700 0.24981500 0.44541500
v 0.46540800 0.24946400 0.42903500
v 0.46442000 0.24442000 0.42574300
v 0.45882500 0.24567900 0.43556300
v 0.45014300 0.24740500 0.44447700
v 0.45813700 0.24496300 0.43416000
v 0.46310600 0.24365600 0.42425300
v 0.46117100 0.24441600 0.42349600
v 0.45297700 0.24832700 0.43771900
v 0.45056600 0.24968400 0.44198700
v 0.45383100 0.25169200 0.43165500
v 0.45748300 0.24944300 0.42357400
v 0.45584600 0.25669500 0.42769600
v 0.45880300 0.25953700 0.42406400
v 0.44098900 0.25319200 0.44645600
v 0.43497200 0.25045000 0.45169500
v 0.43585100 0.25249600 0.44814300
v 0.44346500 0.25027700 0.43416000
v 0.45069500 0.25509600 0.43064600
v 0.44862700 0.24970000 0.42155000
v 0.45277300 0.25097300 0.41055300
v 0.45558000 0.26218400 0.41291400
v 0.45260400 0.26362400 0.42360700
v 0.44964900 0.26654400 0.43584600
v 0.45529600 0.27573300 0.41738500
v 0.44647800 0.27980400 0.43726700
v 0.45265600 0.28364700 0.42098200
v 0.44567200 0.27254500 0.44743600
v 0.44388000 0.27980200 0.44451700
v 0.44860000 0.27041200 0.45562100
v 0.44462000 0.25364900 0.45625900
v 0.44238000 0.25318100 0.45298600
v 0.43604200 0.25249600 0.45854100
v 0.44705100 0.24884700 0.44789100
v 0.42529300 0.25101100 0.45223100
v 0.41694800 0.25206100 0.44919700
v 0.43448000 0.24377500 0.42337900
v 0.43646700 0.23951300 0.41002100
v 0.42123600 0.23025200 0.38864700
v 0.42123600 0.21872900 0.36136900
v 0.44998500 0.23413200 0.38894100
v 0.44065600 0.21989800 0.36146800
v 0.42123600 0.20830400 0.33197800
v 0.42123600 0.20314700 0.30432000
v 0.44281300 0.20968600 0.33210800
v 0.45993900 0.21383500 0.33249800
v 0.44525400 0.20473400 0.30448000
v 0.47307900 0.22021700 0.33315000
v 0.46433200 0.22689600 0.36236400
v 0.48413600 0.22864700 0.33396600
v 0.47199200 0.23800200 0.36413400
v 0.45944900 0.24253500 0.39001400
v 0.49349400 0.23861500 0.33520600
v 0.50770800 0.26094600 0.34043800
v 0.46514500 0.25351300 0.39197800
v 0.51820200 0.25950700 0.31157000
v 0.52412900 0.27434900 0.31525600
v 0.51203600 0.27315600 0.34508100
v 0.49148200 0.27545400 0.37475900
v 0.46942000 0.26998300 0.39723500
v 0.52783200 0.29012400 0.31975800
v 0.51451300 0.28609900 0.35034300
v 0.52900900 0.30643700 0.32514200
v 0.51512500 0.29963600 0.35550900
v 0.49148300 0.29535200 0.38289200
v 0.52728900 0.32344900 0.33128400
v 0.51141700 0.31918500 0.36303400
v 0.52275900 0.34020500 0.33785900
v 0.48525000 0.31271500 0.39090500
v 0.46797400 0.28804200 0.40431800
v 0.50351800 0.33755000 0.37113600
v 0.51579300 0.35591100 0.34509000
v 0.45925600 0.30257000 0.41309500
v 0.48689100 0.35791100 0.38556000
v 0.46331700 0.33521400 0.40979800
v 0.47615700 0.36502600 0.39459000
v 0.44641000 0.29190400 0.42575000
v 0.46407700 0.37032200 0.40272300
v 0.45454900 0.33860600 0.41577500
v 0.45061600 0.37450700 0.40841000
v 0.44469400 0.34149200 0.41986100
v 0.44599100 0.31036300 0.42345500
v 0.43766000 0.29668800 0.42939000
v 0.43852900 0.28837700 0.43922500
v 0.44480700 0.28877000 0.43058100
v 0.43535700 0.29040200 0.43783100
v 0.44175800 0.30010700 0.44967700
v 0.44578100 0.28868200 0.44974000
v 0.44767300 0.29993400 0.45687600
v 0.44516600 0.30556300 0.45978300
v 0.45127000 0.29743700 0.46307700
v 0.45150900 0.30528700 0.46958700
v 0.44834700 0.31147000 0.47727600
v 0.45374300 0.28911500 0.46514600
v 0.45240700 0.30638100 0.48165800
v 0.44811300 0.31084800 0.48357900
v 0.45480500 0.29812800 0.47811300
v 0.45439300 0.28327700 0.47359200
v 0.45064400 0.27228800 0.46878400
v 0.45078400 0.26631300 0.46489800
v 0.44157800 0.25318400 0.46765300
v 0.44213800 0.25318500 0.46416500
v 0.43288700 0.25209600 0.46581900
v 0.44822900 0.24851500 0.45928600
v 0.43514500 0.24973600 0.46239800
v 0.44009500 0.24920100 0.46120700
v 0.45102300 0.24732700 0.45679200
v 0.45852700 0.24610200 0.45462600
v 0.46395000 0.24421100 0.44964800
v 0.45688600 0.25093700 0.45787500
v 0.46391700 0.24492300 0.45195400
v 0.46709800 0.24503900 0.44796800
v 0.46710600 0.24784300 0.45257700
v 0.46291200 0.24994300 0.45584500
v 0.46265600 0.25344900 0.45655800
v 0.46918600 0.25980900 0.45307100
v 0.45677800 0.25847100 0.45754900
v 0.45881500 0.26156100 0.45332500
v 0.45862600 0.26104900 0.45502100
v 0.46149000 0.26170400 0.45076300
v 0.46142900 0.25664100 0.44571800
v 0.46509600 0.25430000 0.44264000
v 0.45722500 0.25372100 0.44867800
v 0.46546800 0.25090800 0.44295300
v 0.46158700 0.24989500 0.44543700
v 0.45647800 0.24957700 0.45036800
v 0.46665400 0.24589800 0.44581100
v 0.46335700 0.24501500 0.44773800
v 0.44873100 0.24963800 0.45592500
v 0.42549000 0.25224100 0.45852900
v 0.42123600 0.28247100 0.18018200
v 0.42123600 0.30776400 0.17735300
v 0.42123600 0.26017000 0.19004100
v 0.42123600 0.24109600 0.20463200
v 0.42123600 0.22548200 0.22165200
v 0.46188300 0.28277500 0.18581500
v 0.46305300 0.30771700 0.18327900
v 0.45961000 0.26069300 0.19504200
v 0.49240200 0.28364700 0.20143400
v 0.49423000 0.30757500 0.19954000
v 0.48878600 0.26224200 0.20917200
v 0.45680400 0.24177300 0.20886100
v 0.45403100 0.22631300 0.22517400
v 0.48429300 0.24381000 0.22114200
v 0.45176000 0.21557700 0.24206800
v 0.42123600 0.21434000 0.23940100
v 0.44964800 0.20871000 0.26103100
v 0.42123600 0.20718900 0.25917600
v 0.44753400 0.20525000 0.28189100
v 0.42123600 0.20360000 0.28085500
v 0.51317400 0.28564900 0.22456100
v 0.51554600 0.30825000 0.22421000
v 0.50842300 0.26516800 0.22971800
v 0.52564500 0.28862400 0.25377700
v 0.52793300 0.30945900 0.25562800
v 0.52054300 0.26919300 0.25545300
v 0.50208500 0.24725100 0.23840100
v 0.51334000 0.25175600 0.25989300
v 0.53035100 0.29073000 0.28640200
v 0.53216300 0.30944200 0.29040200
v 0.52562000 0.27276800 0.28456800
v 0.51854800 0.25621100 0.28461600
v 0.49341600 0.33583700 0.20490100
v 0.51471500 0.33446100 0.22986500
v 0.52682300 0.33317900 0.26165000
v 0.49018100 0.36437700 0.21735300
v 0.51063800 0.36079700 0.24119600
v 0.52230200 0.35684900 0.27141300
v 0.53069500 0.33012900 0.29665600
v 0.52604900 0.35062200 0.30472700
v 0.48537200 0.38985800 0.23650800
v 0.50413500 0.38444900 0.25789000
v 0.51489700 0.37817700 0.28501200
v 0.51850300 0.36925800 0.31502600
v 0.46246500 0.33747800 0.18878200
v 0.46022600 0.36757600 0.20188200
v 0.42123600 0.33802800 0.18293600
v 0.42123600 0.36864700 0.19638800
v 0.42123600 0.40458200 0.39286100
v 0.44071700 0.40354400 0.39167800
v 0.42123600 0.37779200 0.41206800
v 0.42123600 0.34394300 0.42233500
v 0.43744600 0.37697500 0.41115800
v 0.43460700 0.34333300 0.42172100
v 0.42123600 0.31201300 0.42574600
v 0.41626900 0.29797700 0.43032400
v 0.43243600 0.31335900 0.42689100
v 0.43117100 0.29779400 0.43019100
v 0.42123600 0.29248900 0.43652000
v 0.42959800 0.29198400 0.43683500
v 0.42123600 0.30387200 0.44880600
v 0.42123600 0.30844200 0.45577300
v 0.43373500 0.30295600 0.44901200
v 0.43586300 0.30914300 0.45959500
v 0.42123600 0.31518600 0.47113400
v 0.43728000 0.31390500 0.47094100
v 0.42123600 0.31669100 0.47873200
v 0.42123600 0.31582800 0.48558500
v 0.43769800 0.31541300 0.47837200
v 0.43752800 0.31461100 0.48509000
v 0.42123600 0.31111800 0.49150500
v 0.42123600 0.30406800 0.49557800
v 0.43642300 0.31004800 0.49098600
v 0.44623400 0.30673400 0.48939000
v 0.43473300 0.30322100 0.49509200
v 0.44333800 0.30058700 0.49358400
v 0.45027600 0.30287400 0.48740900
v 0.45238200 0.29832300 0.48487800
v 0.45354600 0.28818500 0.48016400
v 0.44756400 0.26769400 0.47797000
v 0.44130800 0.25318900 0.48022200
v 0.44756600 0.25410800 0.47423800
v 0.43559300 0.25249600 0.47380600
v 0.43265200 0.25243000 0.47706800
v 0.44390600 0.24839200 0.47079600
v 0.42460800 0.24960300 0.47094900
v 0.45570600 0.24784400 0.47320300
v 0.45693000 0.24586400 0.47079200
v 0.46676600 0.25320100 0.47826200
v 0.46733900 0.24429700 0.47254800
v 0.46702600 0.24827300 0.47678100
v 0.47344500 0.24503900 0.47170500
v 0.47344400 0.24580600 0.47433900
v 0.47314400 0.24789500 0.47669700
v 0.47256000 0.25258600 0.47878300
v 0.47414300 0.25954800 0.47835700
v 0.45987100 0.25928700 0.47476100
v 0.47225700 0.26292400 0.47505100
v 0.46570000 0.26187000 0.47201200
v 0.47185500 0.26302100 0.46983100
v 0.46517600 0.26126700 0.46974000
v 0.47124800 0.25779000 0.46568900
v 0.46048400 0.25684800 0.46664400
v 0.46578200 0.25328400 0.46515500
v 0.47173700 0.25087500 0.46546200
v 0.45997200 0.24905600 0.46686000
v 0.46648800 0.24686300 0.46692400
v 0.47271600 0.24688600 0.46804300
v 0.46699900 0.24474900 0.46892400
v 0.45303000 0.24776500 0.46930600
v 0.42534300 0.25213000 0.46764100
v 0.42123600 0.25041700 0.46437500
v 0.42123600 0.26489400 0.50603600
v 0.42123600 0.27630200 0.50633600
v 0.42941900 0.26501400 0.50528900
v 0.43038300 0.27401100 0.50581300
v 0.43467600 0.26338200 0.50259600
v 0.43567200 0.26965600 0.50366200
v 0.43678900 0.27667000 0.50358900
v 0.44055000 0.27251600 0.49922600
v 0.44416000 0.27775600 0.49415600
v 0.44363200 0.26600400 0.48672800
v 0.44192300 0.26288900 0.49199000
v 0.43241100 0.25667200 0.49887400
v 0.43844300 0.25884200 0.49674100
v 0.43101700 0.25823600 0.50085900
v 0.42123600 0.25788300 0.50188300
v 0.42937600 0.25544300 0.49779900
v 0.42123600 0.25460200 0.49699000
v 0.42816300 0.25240200 0.48849800
v 0.42123600 0.25206000 0.48327900
v 0.42123600 0.25035600 0.48095600
v 0.43173200 0.24991300 0.48113600
v 0.43823300 0.24921300 0.48237000
v 0.44368700 0.24804900 0.48436000
v 0.44868200 0.24698500 0.48773600
v 0.44651300 0.25101400 0.48912500
v 0.45507500 0.24484300 0.49906100
v 0.44929700 0.24830400 0.49425100
v 0.45848100 0.24417800 0.51459600
v 0.44731500 0.25460100 0.49407600
v 0.45357800 0.25289700 0.51481100
v 0.46081500 0.24342200 0.51379100
v 0.45521100 0.24778600 0.51480800
v 0.46205200 0.24580400 0.52339800
v 0.46536600 0.24544100 0.52170700
v 0.45897800 0.24937300 0.52403000
v 0.45735900 0.25430000 0.52406300
v 0.45252800 0.25663100 0.50974800
v 0.45868600 0.25867700 0.52499700
v 0.45615200 0.26038400 0.51290400
v 0.45999000 0.26158600 0.52446200
v 0.45162100 0.26092200 0.49767500
v 0.46131200 0.26183400 0.51382100
v 0.46345000 0.26379400 0.52162200
v 0.45558800 0.26116900 0.50101300
v 0.46555500 0.26299500 0.52026400
v 0.46870500 0.26109000 0.52090000
v 0.46154100 0.25666600 0.50462300
v 0.46911100 0.25430000 0.51754900
v 0.46435500 0.24934700 0.50916100
v 0.46838900 0.24939700 0.51881300
v 0.45387100 0.24838500 0.49149300
v 0.45386700 0.24640600 0.49310700
v 0.44923100 0.24979500 0.48567600
v 0.46045100 0.24452700 0.50727000
v 0.44665000 0.24827500 0.48472500
v 0.42123600 0.25225000 0.47437100
v 0.46999900 0.25289500 0.52500800
v 0.47347300 0.26354800 0.53347700
v 0.46590500 0.24777800 0.52545300
v 0.47301000 0.26963600 0.53287300
v 0.47158600 0.25994400 0.53473300
v 0.46986400 0.26449400 0.53810100
v 0.46464200 0.25529700 0.53083700
v 0.46485200 0.26014100 0.53274100
v 0.46415800 0.26395100 0.53187900
v 0.46771400 0.26963000 0.53581300
v 0.46733000 0.27031600 0.53295400
v 0.46252400 0.26435500 0.52472400
v 0.46972600 0.27165800 0.53206000
v 0.46945600 0.26790200 0.52795500
v 0.57795900 0.50101500 0.73238800
v 0.57552400 0.50240200 0.73455500
v 0.58043200 0.49269600 0.72742500
v 0.57905900 0.48146900 0.72953300
v 0.57667500 0.48096000 0.73566400
v 0.57087800 0.48212500 0.73535900
v 0.56702200 0.49025300 0.73449200
v 0.57245500 0.50096200 0.73542500
v 0.57413900 0.49264500 0.74246800
v 0.57687900 0.49980700 0.74174600
v 0.57918600 0.50082600 0.74108900
v 0.57805600 0.49542300 0.74640200
v 0.58290000 0.49838600 0.74768000
v 0.58433600 0.49673600 0.74359400
v 0.58274000 0.49408400 0.73542200
v 0.58439800 0.49105300 0.74183600
v 0.58104100 0.48727100 0.72986700
v 0.58219000 0.48734400 0.74145700
v 0.57833500 0.48113500 0.73351600
v 0.58016100 0.48609800 0.74218600
v 0.57845200 0.48715900 0.74357100
v 0.57396800 0.48108200 0.73594900
v 0.57744600 0.48960000 0.74519400
v 0.57117400 0.48642200 0.73802400
v 0.67645800 0.35244100 0.91570700
v 0.67645300 0.35254800 0.92236600
v 0.67529500 0.35650500 0.92414300
v 0.67723700 0.35843900 0.92650700
v 0.68004900 0.36022600 0.92802400
v 0.68318800 0.36154000 0.92850000
v 0.68611400 0.36205800 0.92774200
v 0.68834200 0.36155400 0.92566800
v 0.68966000 0.36023700 0.92271800
v 0.68992700 0.35844300 0.91948000
v 0.68801200 0.35565100 0.91550200
v 0.68169000 0.35184300 0.91378900
v 0.68838300 0.34964900 0.92125300
v 0.68505600 0.34955200 0.91761000
v 0.68502300 0.34554900 0.92164900
v 0.68692800 0.34563100 0.92243600
v 0.68247000 0.34688200 0.92048500
v 0.68215400 0.34554800 0.92323900
v 0.67948900 0.34908800 0.91928100
v 0.68156400 0.34698000 0.92656700
v 0.68532900 0.34904500 0.92997700
v 0.68751600 0.35169700 0.92980700
v 0.68894300 0.34796300 0.92482000
v 0.68943700 0.35421800 0.92512700
v 0.47343300 0.25632500 0.46565200
v 0.47629300 0.25273700 0.46804100
v 0.48148600 0.26222800 0.46935100
v 0.47570900 0.24766700 0.47192500
v 0.48210800 0.26881100 0.46978900
v 0.48337100 0.26089600 0.47204200
v 0.48046500 0.25619000 0.47431700
v 0.48311200 0.26246500 0.47563100
v 0.48221000 0.26544800 0.47674800
v 0.47645700 0.25535600 0.47781000
v 0.48112100 0.26825300 0.47658000
v 0.47915700 0.26995900 0.47460800
v 0.47398000 0.26233600 0.47699100
v 0.48066900 0.27228800 0.47324200
v 0.47934000 0.26975600 0.47099100
v 0.47328800 0.26240000 0.46795300
v 0.62296000 0.45719800 0.48705200
v 0.62365800 0.45852400 0.49044200
v 0.62174800 0.45360400 0.48403200
v 0.62065200 0.44882400 0.48195400
v 0.62196900 0.43758900 0.48409600
v 0.62365600 0.43518100 0.48939100
v 0.62278100 0.43760200 0.49481300
v 0.62432900 0.44190600 0.49617400
v 0.62158000 0.44393900 0.49794400
v 0.62188000 0.44877000 0.49778500
v 0.62344000 0.45701300 0.49363500
v 0.63203200 0.45468100 0.49256000
v 0.63416200 0.45450900 0.49071100
v 0.63202400 0.44785900 0.49473100
v 0.63303400 0.45263400 0.48747000
v 0.63072100 0.44607700 0.48621700
v 0.62258300 0.44340300 0.48260600
v 0.63029500 0.44348600 0.48777700
v 0.62550100 0.43847600 0.48720200
v 0.63047400 0.44262400 0.49160500
v 0.62587100 0.43839500 0.49204300
v 0.63137300 0.44569800 0.49419100
v 0.77241000 0.30945800 0.49577100
v 0.77614600 0.31262700 0.49864700
v 0.77809400 0.31454500 0.49808200
v 0.77972500 0.31629600 0.49638500
v 0.78081600 0.31795800 0.48928100
v 0.77895300 0.31640700 0.48484000
v 0.77736700 0.31354900 0.48313500
v 0.77487100 0.31262700 0.48209700
v 0.77474200 0.30826800 0.48403200
v 0.77136500 0.30800100 0.48719100
v 0.77315600 0.30615800 0.49171300
v 0.78007700 0.30257000 0.48662800
v 0.77750100 0.30206900 0.48765600
v 0.77733300 0.30167500 0.49117700
v 0.77888100 0.30172400 0.49316100
v 0.77933000 0.30409900 0.49448800
v 0.77981500 0.30886200 0.49582300
v 0.78286000 0.30739600 0.49213000
v 0.78333100 0.30530000 0.48966100
v 0.78211800 0.31392100 0.49071100
v 0.78158400 0.30645100 0.48714400
v 0.47429000 0.26177200 0.44412800
v 0.46845700 0.24841200 0.44534900
v 0.47455100 0.26617500 0.44320900
v 0.47266900 0.26737600 0.44354100
v 0.47481400 0.26047800 0.44585200
v 0.47477700 0.26165500 0.44792700
v 0.46900400 0.24826200 0.44957700
v 0.47399900 0.26531000 0.44983700
v 0.46855200 0.25303600 0.45329100
v 0.47242600 0.26825400 0.45000700
v 0.46775400 0.26231600 0.45257600
v 0.47213100 0.27108900 0.44794300
v 0.46756200 0.26431600 0.45083400
v 0.46805100 0.26572800 0.44648500
v 0.47206500 0.26984700 0.44482500
v 0.46780500 0.26126600 0.44334500
v 0.56027500 0.41932000 0.40807900
v 0.56099000 0.42073900 0.41090500
v 0.55919500 0.41571500 0.40571800
v 0.55826500 0.41097600 0.40417000
v 0.56161300 0.40127300 0.40648400
v 0.56250400 0.39972700 0.40939500
v 0.56131700 0.39961100 0.41348500
v 0.55977900 0.40615400 0.41825300
v 0.56026200 0.41339500 0.41723500
v 0.56099100 0.41931700 0.41386100
v 0.56822800 0.41280000 0.41161800
v 0.56910100 0.41647300 0.40849200
v 0.56875000 0.41609200 0.40632600
v 0.56737700 0.41241800 0.40442900
v 0.56650900 0.40900300 0.40451000
v 0.56040600 0.40599700 0.40417600
v 0.56603500 0.40550500 0.40628600
v 0.56621100 0.40470400 0.40899600
v 0.56689200 0.40730800 0.41133700
v 0.56250300 0.40492600 0.41527000
v 0.67628300 0.26342800 0.35996000
v 0.67816700 0.26469800 0.36227000
v 0.67933900 0.26705700 0.36351100
v 0.68147900 0.27024500 0.36206500
v 0.68281600 0.27312400 0.35878700
v 0.68243000 0.27399700 0.35479500
v 0.67997700 0.27221700 0.35059500
v 0.67793900 0.26859800 0.34940400
v 0.67771800 0.26447100 0.35023000
v 0.67452600 0.26448700 0.35426400
v 0.67635400 0.26166900 0.35577300
v 0.68078700 0.25959200 0.35007500
v 0.67979400 0.25786600 0.35198300
v 0.68088400 0.25731800 0.35554100
v 0.67907800 0.26113700 0.35885400
v 0.68208500 0.25877000 0.35663500
v 0.68271600 0.26058600 0.35707600
v 0.68462000 0.26137500 0.35328000
v 0.68381400 0.26715600 0.35634700
v 0.68384200 0.26377700 0.35186800
v 0.68207400 0.26073900 0.34996700
v 0.68086400 0.26559400 0.34989900
v 0.43129200 0.25334900 0.51386700
v 0.43310000 0.25237700 0.51266900
v 0.43119200 0.25126200 0.51162000
v 0.42830200 0.25660600 0.49968600
v 0.42939200 0.25226400 0.51283300
v 0.43282900 0.23832900 0.52262100
v 0.43247500 0.23760700 0.52219000
v 0.43187300 0.24236500 0.51896100
v 0.43160000 0.24093700 0.51840600
v 0.42962400 0.24095600 0.51855200
v 0.43025600 0.24296700 0.51934900
v 0.43339900 0.28392900 0.50389000
v 0.43185000 0.28079300 0.50527900
v 0.42888600 0.28242300 0.50510100
v 0.42778100 0.28842700 0.50323600
v 0.25925500 0.49026200 0.28918400
v 0.37117800 0.26799400 0.40993700
v 0.36875600 0.26388200 0.40895900
v 0.25495000 0.48284700 0.28780100
v 0.25192000 0.47905900 0.29008000
v 0.36716200 0.26282200 0.40940700
v 0.36736200 0.26122700 0.41126900
v 0.24583200 0.48733200 0.28900300
v 0.24715500 0.48912600 0.29386100
v 0.36651900 0.26799400 0.41312200
v 0.24881400 0.49501000 0.29564900
v 0.36901300 0.26987900 0.41489300
v 0.25011000 0.50092000 0.29296500
v 0.37047800 0.27228800 0.41354800
v 0.25191800 0.50240200 0.29112900
v 0.25445400 0.50105200 0.28996900
v 0.25708700 0.49747000 0.28941800
v 0.37004600 0.26825400 0.45000700
v 0.37034100 0.27108900 0.44794300
v 0.28221000 0.41339500 0.41723500
v 0.28148200 0.41931700 0.41386100
v 0.28148300 0.42073900 0.41090500
v 0.28219700 0.41932000 0.40807900
v 0.37040800 0.26984700 0.44482500
v 0.28327700 0.41571500 0.40571800
v 0.36980400 0.26737600 0.44354100
v 0.28420800 0.41097600 0.40417000
v 0.28206600 0.40599700 0.40417600
v 0.36792100 0.26617500 0.44320900
v 0.28086000 0.40127300 0.40648400
v 0.36818300 0.26177200 0.44412800
v 0.36765800 0.26047800 0.44585200
v 0.27996900 0.39972700 0.40939500
v 0.36769500 0.26165500 0.44792700
v 0.28115600 0.39961100 0.41348500
v 0.36847400 0.26531000 0.44983700
v 0.28269400 0.40615400 0.41825300
v 0.21881700 0.43518100 0.48939100
v 0.22050400 0.43758900 0.48409600
v 0.36098700 0.26222800 0.46935100
v 0.35910200 0.26089600 0.47204200
v 0.22182000 0.44882400 0.48195400
v 0.36036500 0.26881100 0.46978900
v 0.22072500 0.45360400 0.48403200
v 0.21951200 0.45719800 0.48705200
v 0.36313300 0.26975600 0.47099100
v 0.21881500 0.45852400 0.49044200
v 0.36180400 0.27228800 0.47324200
v 0.21903300 0.45701300 0.49363500
v 0.36331500 0.26995900 0.47460800
v 0.22059200 0.44877000 0.49778500
v 0.36135200 0.26825300 0.47658000
v 0.22089300 0.44393900 0.49794400
v 0.36026200 0.26544800 0.47674800
v 0.21814300 0.44190600 0.49617400
v 0.21969100 0.43760200 0.49481300
v 0.35936100 0.26246500 0.47563100
v 0.27545000 0.49025300 0.73449200
v 0.37514200 0.27031600 0.53295400
v 0.27001800 0.50096200 0.73542500
v 0.37475800 0.26963000 0.53581300
v 0.27159400 0.48212500 0.73535900
v 0.37260900 0.26449400 0.53810100
v 0.26579800 0.48096000 0.73566400
v 0.37088700 0.25994400 0.53473300
v 0.26341300 0.48146900 0.72953300
v 0.36900000 0.26354800 0.53347700
v 0.26204100 0.49269600 0.72742500
v 0.36946200 0.26963600 0.53287300
v 0.26451300 0.50101500 0.73238800
v 0.37274600 0.27165800 0.53206000
v 0.26694800 0.50240200 0.73455500
v 0.12640200 0.34046000 0.14758700
v 0.12677300 0.33628300 0.15126300
v 0.24314900 0.49330900 0.28632300
v 0.24328400 0.49755800 0.28421400
v 0.12928000 0.33317900 0.15296500
v 0.13181100 0.33166200 0.15319600
v 0.24400100 0.48896300 0.28583000
v 0.24563800 0.48660700 0.28527500
v 0.24673600 0.48609800 0.28459200
v 0.13443900 0.33077000 0.15276400
v 0.24802000 0.48720100 0.28341400
v 0.13823700 0.33141800 0.15008400
v 0.24868200 0.48961200 0.28226300
v 0.13862300 0.33553900 0.14561500
v 0.13625900 0.33877500 0.14375100
v 0.24740200 0.49654000 0.28176000
v 0.13073500 0.34201000 0.14380700
v 0.24367500 0.49838600 0.28171700
v 0.12812300 0.34119300 0.14444100
v 0.16313400 0.26705700 0.36351100
v 0.27558000 0.40730800 0.41133700
v 0.27424500 0.41280000 0.41161800
v 0.16430500 0.26469800 0.36227000
v 0.16099400 0.27024500 0.36206500
v 0.27337200 0.41647300 0.40849200
v 0.15965700 0.27312400 0.35878700
v 0.16004200 0.27399700 0.35479500
v 0.27372200 0.41609200 0.40632600
v 0.16249600 0.27221700 0.35059500
v 0.27509600 0.41241800 0.40442900
v 0.16453400 0.26859800 0.34940400
v 0.27596400 0.40900300 0.40451000
v 0.16475500 0.26447100 0.35023000
v 0.27643700 0.40550500 0.40628600
v 0.16794700 0.26448700 0.35426400
v 0.27626200 0.40470400 0.40899600
v 0.16619000 0.26342800 0.35996000
v 0.21044800 0.44785900 0.49473100
v 0.21044100 0.45468100 0.49256000
v 0.06274760 0.31629600 0.49638500
v 0.06437840 0.31454500 0.49808200
v 0.21110000 0.44569800 0.49419100
v 0.06632610 0.31262700 0.49864700
v 0.07006280 0.30945800 0.49577100
v 0.20831000 0.45450900 0.49071100
v 0.06165640 0.31795800 0.48928100
v 0.06351960 0.31640700 0.48484000
v 0.20943900 0.45263400 0.48747000
v 0.21175100 0.44607700 0.48621700
v 0.06510580 0.31354900 0.48313500
v 0.06760130 0.31262700 0.48209700
v 0.21217700 0.44348600 0.48777700
v 0.06773030 0.30826800 0.48403200
v 0.07110750 0.30800100 0.48719100
v 0.21199800 0.44262400 0.49160500
v 0.16601400 0.35244100 0.91570700
v 0.26402100 0.48715900 0.74357100
v 0.16602000 0.35254800 0.92236600
v 0.26231100 0.48609800 0.74218600
v 0.26502700 0.48960000 0.74519400
v 0.16717700 0.35650500 0.92414300
v 0.16078300 0.35184300 0.91378900
v 0.26028200 0.48734400 0.74145700
v 0.15446100 0.35565100 0.91550200
v 0.25807500 0.49105300 0.74183600
v 0.15254500 0.35844300 0.91948000
v 0.15281300 0.36023700 0.92271800
v 0.25813600 0.49673600 0.74359400
v 0.15413000 0.36155400 0.92566800
v 0.25957200 0.49838600 0.74768000
v 0.15635900 0.36205800 0.92774200
v 0.15928400 0.36154000 0.92850000
v 0.16242400 0.36022600 0.92802400
v 0.26441700 0.49542300 0.74640200
v 0.16523500 0.35843900 0.92650700
v 0.41582100 0.28591200 0.50358100
v 0.40907300 0.28392900 0.50389000
v 0.41062200 0.28079300 0.50527900
v 0.41358700 0.28242300 0.50510100
v 0.41302000 0.28497600 0.50345500
v 0.41469100 0.28842700 0.50323600
v 0.41170700 0.28929700 0.50149100
v 0.38545000 0.39434300 0.22234500
v 0.38893600 0.41341000 0.25203800
v 0.39229900 0.42552500 0.28574200
v 0.39521700 0.42738500 0.32250400
v 0.36815600 0.41945900 0.29321800
v 0.37354800 0.42131600 0.32692800
v 0.39835800 0.42006700 0.36042100
v 0.37914400 0.41485400 0.35969800
v 0.40739300 0.25238900 0.48472900
v 0.40546000 0.25362400 0.49154800
v 0.41309600 0.25544300 0.49779900
v 0.40044500 0.25503200 0.49255300
v 0.39739200 0.25519900 0.49082200
v 0.40172400 0.28876800 0.49797100
v 0.39831300 0.27775600 0.49415600
v 0.40101800 0.28151500 0.49943100
v 0.40427000 0.28514300 0.50141400
v 0.39884000 0.26600400 0.48672800
v 0.39468300 0.26082300 0.48565100
v 0.39578400 0.26352900 0.48697800
v 0.39087600 0.25790500 0.48790500
v 0.39103800 0.25527100 0.48682300
v 0.39219000 0.26198900 0.49169200
v 0.39726800 0.26082300 0.48727900
v 0.39450400 0.25998500 0.49153800
v 0.39515800 0.25460100 0.49407600
v 0.38789900 0.25784700 0.44399100
v 0.38813100 0.25527100 0.44460500
v 0.39166100 0.26082300 0.44640600
v 0.38959600 0.26211900 0.44330100
v 0.39408800 0.26464100 0.44764400
v 0.39223100 0.25527100 0.44142100
v 0.38864200 0.25169200 0.43165500
v 0.38662700 0.25669500 0.42769600
v 0.38949600 0.26146300 0.44091700
v 0.38730300 0.26046100 0.45355000
v 0.38957000 0.25527100 0.45304900
v 0.39116600 0.26152900 0.45602200
v 0.38879600 0.26227000 0.45700100
v 0.39276100 0.26778600 0.45899500
v 0.38569500 0.25847100 0.45754900
v 0.38889900 0.25527100 0.45924900
v 0.38198800 0.25684800 0.46664400
v 0.38930600 0.25527100 0.46745600
v 0.38733600 0.26149400 0.47009900
v 0.39208000 0.26642600 0.47099500
v 0.38710600 0.26169600 0.47201300
v 0.38260200 0.25928700 0.47476100
v 0.38882500 0.25527100 0.47454900
v 0.38984300 0.25916300 0.47360600
v 0.39490900 0.26769400 0.47797000
v 0.36620400 0.21929400 0.25020900
v 0.34751900 0.23234200 0.24933300
v 0.36263800 0.22880300 0.23573200
v 0.36977500 0.21328000 0.26673000
v 0.35250600 0.22366800 0.26636700
v 0.37346700 0.21020000 0.28506000
v 0.36157600 0.21580200 0.28540100
v 0.37739600 0.20949600 0.30495900
v 0.36332200 0.21597800 0.30538300
v 0.34558400 0.22787600 0.28551200
v 0.35124500 0.22448300 0.30585700
v 0.33772300 0.23690300 0.26633400
v 0.34092500 0.23461900 0.30680100
v 0.33275500 0.24171300 0.28625900
v 0.33212000 0.24599500 0.30863100
v 0.34084500 0.37527400 0.35787200
v 0.35753800 0.38926200 0.37256300
v 0.35351500 0.39569600 0.35797700
v 0.34796000 0.39894200 0.33867300
v 0.37056400 0.39566600 0.38163600
v 0.36504800 0.40681400 0.35893200
v 0.38527000 0.40041900 0.38811800
v 0.35888800 0.41192100 0.33187200
v 0.33414000 0.38437200 0.32796500
v 0.34214300 0.39875100 0.31880800
v 0.33733500 0.39487100 0.30253800
v 0.35253700 0.41063700 0.30419500
v 0.34644900 0.40261300 0.27963800
v 0.36263800 0.40894100 0.26197800
v 0.08907030 0.02500000 0.02500000
v 0.13119200 0.32864400 0.14029000
v 0.13231400 0.32583900 0.14235300
v 0.13181200 0.32569200 0.14457800
v 0.12816600 0.33210100 0.14021900
v 0.12731900 0.33627700 0.14235900
v 0.12599100 0.33171300 0.14177700
v 0.12600700 0.32772000 0.14240200
v 0.12801500 0.32647900 0.14503900
v 0.13057700 0.32850200 0.14901500
v 0.13490300 0.32891200 0.14924200
v 0.12615300 0.33229100 0.14668100
v 0.13559600 0.33031000 0.14408600
v 0.13274000 0.33865200 0.14264400
v 0.25370100 0.49209500 0.28531800
v 0.24675600 0.49745400 0.29116000
v 0.37734200 0.26338900 0.41529100
v 0.36857400 0.26012700 0.41604200
v 0.37322000 0.25775300 0.42363100
v 0.37347000 0.24791000 0.42159100
v 0.37446400 0.24773300 0.41672900
v 0.37459300 0.24582700 0.42005600
v 0.37212800 0.25374700 0.42224700
v 0.37720100 0.25654500 0.42935300
v 0.37706400 0.24946400 0.42903500
v 0.37805300 0.24442000 0.42574300
v 0.37614600 0.24503900 0.41866900
v 0.37642700 0.25282100 0.41425800
v 0.37988300 0.24789700 0.41720100
v 0.37444600 0.26008700 0.41205900
v 0.38206200 0.25430000 0.41730800
v 0.38367000 0.25953700 0.42406400
v 0.37827300 0.26369500 0.41886500
v 0.37657000 0.26446000 0.41997500
v 0.37431600 0.26265000 0.42155700
v 0.37924100 0.26190200 0.42599800
v 0.38362000 0.26025200 0.43614300
v 0.38449700 0.26125400 0.43227500
v 0.38583000 0.24835000 0.44046500
v 0.39044500 0.24981500 0.44541500
v 0.38364700 0.24567900 0.43556300
v 0.39233000 0.24740500 0.44447700
v 0.39542200 0.24884700 0.44789100
v 0.38433600 0.24496300 0.43416000
v 0.37936700 0.24365600 0.42425300
v 0.38949500 0.24832700 0.43771900
v 0.38130200 0.24441600 0.42349600
v 0.39190700 0.24968400 0.44198700
v 0.38499000 0.24944300 0.42357400
v 0.40750100 0.25045000 0.45169500
v 0.40148300 0.25319200 0.44645600
v 0.40662200 0.25249600 0.44814300
v 0.39900800 0.25027700 0.43416000
v 0.39177800 0.25509600 0.43064600
v 0.39384600 0.24970000 0.42155000
v 0.40799300 0.24377500 0.42337900
v 0.38970000 0.25097300 0.41055300
v 0.38986800 0.26362400 0.42360700
v 0.38689300 0.26218400 0.41291400
v 0.39282400 0.26654400 0.43584600
v 0.38717600 0.27573300 0.41738500
v 0.39599400 0.27980400 0.43726700
v 0.38981600 0.28364700 0.42098200
v 0.39680100 0.27254500 0.44743600
v 0.39859200 0.27980200 0.44451700
v 0.39766600 0.28877000 0.43058100
v 0.39606300 0.29190400 0.42575000
v 0.38872900 0.28911500 0.46514600
v 0.39387300 0.27041200 0.45562100
v 0.38808000 0.28327700 0.47359200
v 0.40009200 0.25318100 0.45298600
v 0.39785200 0.25364900 0.45625900
v 0.40958000 0.25241100 0.45832700
v 0.40600600 0.23951300 0.41002100
v 0.40181700 0.21989800 0.36146800
v 0.39248700 0.23413200 0.38894100
v 0.37814100 0.22689600 0.36236400
v 0.39966000 0.20968600 0.33210800
v 0.38253300 0.21383500 0.33249800
v 0.39721900 0.20473400 0.30448000
v 0.36939400 0.22021700 0.33315000
v 0.35833700 0.22864700 0.33396600
v 0.37048100 0.23800200 0.36413400
v 0.38302400 0.24253500 0.39001400
v 0.34897800 0.23861500 0.33520600
v 0.33476500 0.26094600 0.34043800
v 0.37732700 0.25351300 0.39197800
v 0.32427100 0.25950700 0.31157000
v 0.35099100 0.27545400 0.37475900
v 0.33043600 0.27315600 0.34508100
v 0.31834400 0.27434900 0.31525600
v 0.37305300 0.26998300 0.39723500
v 0.31464100 0.29012400 0.31975800
v 0.32796000 0.28609900 0.35034300
v 0.31346300 0.30643700 0.32514200
v 0.32734800 0.29963600 0.35550900
v 0.35098900 0.29535200 0.38289200
v 0.37449900 0.28804200 0.40431800
v 0.31518400 0.32344900 0.33128400
v 0.33105600 0.31918500 0.36303400
v 0.31971400 0.34020500 0.33785900
v 0.35722300 0.31271500 0.39090500
v 0.33895500 0.33755000 0.37113600
v 0.32667900 0.35591100 0.34509000
v 0.38321700 0.30257000 0.41309500
v 0.35558100 0.35791100 0.38556000
v 0.37915600 0.33521400 0.40979800
v 0.36631500 0.36502600 0.39459000
v 0.39648200 0.31036300 0.42345500
v 0.38792400 0.33860600 0.41577500
v 0.37839500 0.37032200 0.40272300
v 0.39185700 0.37450700 0.40841000
v 0.39777900 0.34149200 0.41986100
v 0.40481300 0.29668800 0.42939000
v 0.41003600 0.31335900 0.42689100
v 0.40394300 0.28837700 0.43922500
v 0.40711500 0.29040200 0.43783100
v 0.41287400 0.29198400 0.43683500
v 0.40071400 0.30010700 0.44967700
v 0.39669200 0.28868200 0.44974000
v 0.39120300 0.29743700 0.46307700
v 0.39479900 0.29993400 0.45687600
v 0.39730700 0.30556300 0.45978300
v 0.39096400 0.30528700 0.46958700
v 0.39412500 0.31147000 0.47727600
v 0.38766800 0.29812800 0.47811300
v 0.39006600 0.30638100 0.48165800
v 0.39435900 0.31084800 0.48357900
v 0.39182900 0.27228800 0.46878400
v 0.39168900 0.26631300 0.46489800
v 0.40033500 0.25318500 0.46416500
v 0.40089400 0.25318400 0.46765300
v 0.40958600 0.25209600 0.46581900
v 0.39424300 0.24851500 0.45928600
v 0.40237800 0.24920100 0.46120700
v 0.40732700 0.24973600 0.46239800
v 0.38558600 0.25093700 0.45787500
v 0.39145000 0.24732700 0.45679200
v 0.38394600 0.24610200 0.45462600
v 0.37852300 0.24421100 0.44964800
v 0.37981600 0.25344900 0.45655800
v 0.37855500 0.24492300 0.45195400
v 0.37956100 0.24994300 0.45584500
v 0.37537400 0.24503900 0.44796800
v 0.37536700 0.24784300 0.45257700
v 0.37392000 0.25303600 0.45329100
v 0.37328600 0.25980900 0.45307100
v 0.38365700 0.26156100 0.45332500
v 0.37471800 0.26231600 0.45257600
v 0.38384700 0.26104900 0.45502100
v 0.38098200 0.26170400 0.45076300
v 0.37502900 0.26471700 0.44979200
v 0.38104400 0.25664100 0.44571800
v 0.37442200 0.26572800 0.44648500
v 0.38524800 0.25372100 0.44867800
v 0.37466700 0.26126600 0.44334500
v 0.37737600 0.25430000 0.44264000
v 0.38088600 0.24989500 0.44543700
v 0.37700500 0.25090800 0.44295300
v 0.38599400 0.24957700 0.45036800
v 0.37581800 0.24589800 0.44581100
v 0.37911500 0.24501500 0.44773800
v 0.39374100 0.24963800 0.45592500
v 0.38059000 0.28277500 0.18581500
v 0.37942000 0.30771700 0.18327900
v 0.38286200 0.26069300 0.19504200
v 0.35007100 0.28364700 0.20143400
v 0.34824300 0.30757500 0.19954000
v 0.35368700 0.26224200 0.20917200
v 0.38566900 0.24177300 0.20886100
v 0.38844100 0.22631300 0.22517400
v 0.35818000 0.24381000 0.22114200
v 0.39071300 0.21557700 0.24206800
v 0.39282500 0.20871000 0.26103100
v 0.39493900 0.20525000 0.28189100
v 0.32929900 0.28564900 0.22456100
v 0.32692700 0.30825000 0.22421000
v 0.33405000 0.26516800 0.22971800
v 0.31682800 0.28862400 0.25377700
v 0.31454000 0.30945900 0.25562800
v 0.32193000 0.26919300 0.25545300
v 0.34038800 0.24725100 0.23840100
v 0.32913200 0.25175600 0.25989300
v 0.31212100 0.29073000 0.28640200
v 0.31030900 0.30944200 0.29040200
v 0.31685300 0.27276800 0.28456800
v 0.32392400 0.25621100 0.28461600
v 0.34905700 0.33583700 0.20490100
v 0.32775800 0.33446100 0.22986500
v 0.31565000 0.33317900 0.26165000
v 0.35229200 0.36437700 0.21735300
v 0.33183500 0.36079700 0.24119600
v 0.32017100 0.35684900 0.27141300
v 0.31177700 0.33012900 0.29665600
v 0.31642300 0.35062200 0.30472700
v 0.35710100 0.38985800 0.23650800
v 0.33833800 0.38444900 0.25789000
v 0.32757500 0.37817700 0.28501200
v 0.32397000 0.36925800 0.31502600
v 0.38000800 0.33747800 0.18878200
v 0.38224600 0.36757600 0.20188200
v 0.40175500 0.40354400 0.39167800
v 0.40502700 0.37697500 0.41115800
v 0.40786600 0.34333300 0.42172100
v 0.40873800 0.30295600 0.44901200
v 0.40660900 0.30914300 0.45959500
v 0.40519300 0.31390500 0.47094100
v 0.40477400 0.31541300 0.47837200
v 0.40494500 0.31461100 0.48509000
v 0.40605000 0.31004800 0.49098600
v 0.39623800 0.30673400 0.48939000
v 0.40774000 0.30322100 0.49509200
v 0.39913400 0.30058700 0.49358400
v 0.39219700 0.30287400 0.48740900
v 0.39009000 0.29832300 0.48487800
v 0.38892600 0.28818500 0.48016400
v 0.40982100 0.25243000 0.47706800
v 0.40116500 0.25318900 0.48022200
v 0.40688000 0.25249600 0.47380600
v 0.39490600 0.25410800 0.47423800
v 0.40011600 0.24853900 0.47081500
v 0.37570600 0.25320100 0.47826200
v 0.37544600 0.24827300 0.47678100
v 0.38676700 0.24784400 0.47320300
v 0.38554200 0.24586400 0.47079200
v 0.37513000 0.24467700 0.47377900
v 0.37530600 0.24433300 0.47012000
v 0.36902700 0.24503900 0.47170500
v 0.36902800 0.24580600 0.47433900
v 0.36932900 0.24789500 0.47669700
v 0.36991300 0.25258600 0.47878300
v 0.36832900 0.25954800 0.47835700
v 0.37021600 0.26292400 0.47505100
v 0.37677300 0.26187000 0.47201200
v 0.36849200 0.26233600 0.47699100
v 0.37061800 0.26302100 0.46983100
v 0.37729700 0.26126700 0.46974000
v 0.36918500 0.26240000 0.46795300
v 0.37122400 0.25779000 0.46568900
v 0.37669000 0.25328400 0.46515500
v 0.38250100 0.24905600 0.46686000
v 0.37073600 0.25087500 0.46546200
v 0.37598400 0.24686300 0.46692400
v 0.36975700 0.24688600 0.46804300
v 0.38573500 0.24666400 0.46915800
v 0.40995200 0.25232500 0.46773300
v 0.41208900 0.27401100 0.50581300
v 0.41305400 0.26501400 0.50528900
v 0.40779600 0.26338200 0.50259600
v 0.40680100 0.26965600 0.50366200
v 0.40568400 0.27667000 0.50358900
v 0.40192300 0.27251600 0.49922600
v 0.40402900 0.25884200 0.49674100
v 0.40055000 0.26288900 0.49199000
v 0.41006200 0.25667200 0.49887400
v 0.41145500 0.25823600 0.50085900
v 0.41417000 0.25660600 0.49968600
v 0.41074100 0.24991300 0.48113600
v 0.40424000 0.24921300 0.48237000
v 0.39878600 0.24804900 0.48436000
v 0.39595900 0.25101400 0.48912500
v 0.39379100 0.24698500 0.48773600
v 0.39317600 0.24830400 0.49425100
v 0.38739700 0.24484300 0.49906100
v 0.38399200 0.24417800 0.51459600
v 0.38889500 0.25289700 0.51481100
v 0.38165700 0.24342200 0.51379100
v 0.38726100 0.24778600 0.51480800
v 0.38042000 0.24580400 0.52339800
v 0.37710700 0.24544100 0.52170700
v 0.38349500 0.24937300 0.52403000
v 0.38511400 0.25430000 0.52406300
v 0.38994500 0.25663100 0.50974800
v 0.38378700 0.25867700 0.52499700
v 0.38632100 0.26038400 0.51290400
v 0.38248300 0.26158600 0.52446200
v 0.39085100 0.26092200 0.49767500
v 0.37902200 0.26379400 0.52162200
v 0.37994900 0.26435500 0.52472400
v 0.38688500 0.26116900 0.50101300
v 0.38116000 0.26183400 0.51382100
v 0.37691700 0.26299500 0.52026400
v 0.37515600 0.26083400 0.51888700
v 0.38093200 0.25666600 0.50462300
v 0.37336200 0.25430000 0.51754900
v 0.37238000 0.26134400 0.52291400
v 0.37811800 0.24934700 0.50916100
v 0.38860200 0.24838500 0.49149300
v 0.37408300 0.24939700 0.51881300
v 0.38860500 0.24640600 0.49310700
v 0.38202200 0.24452700 0.50727000
v 0.39324200 0.24979500 0.48567600
v 0.39582300 0.24827500 0.48472500
v 0.37247300 0.25289500 0.52500800
v 0.37656700 0.24777800 0.52545300
v 0.37783000 0.25529700 0.53083700
v 0.37762000 0.26014100 0.53274100
v 0.37831400 0.26395100 0.53187900
v 0.37301700 0.26790200 0.52795500
v 0.26413800 0.48113500 0.73351600
v 0.26850400 0.48108200 0.73594900
v 0.27129900 0.48642200 0.73802400
v 0.26833400 0.49264500 0.74246800
v 0.26559400 0.49980700 0.74174600
v 0.26328600 0.50082600 0.74108900
v 0.25973300 0.49408400 0.73542200
v 0.26143100 0.48727100 0.72986700
v 0.16298400 0.34908800 0.91928100
v 0.15408900 0.34964900 0.92125300
v 0.15741700 0.34955200 0.91761000
v 0.15745000 0.34554900 0.92164900
v 0.15554400 0.34563100 0.92243600
v 0.15352900 0.34796300 0.92482000
v 0.16000300 0.34688200 0.92048500
v 0.16031800 0.34554800 0.92323900
v 0.16090900 0.34698000 0.92656700
v 0.15714300 0.34904500 0.92997700
v 0.12103900 0.02500000 0.97500000
v 0.15495700 0.35169700 0.92980700
v 0.15303500 0.35421800 0.92512700
v 0.36904000 0.25632500 0.46565200
v 0.36618000 0.25273700 0.46804100
v 0.36676300 0.24766700 0.47192500
v 0.36200800 0.25619000 0.47431700
v 0.36601500 0.25535600 0.47781000
v 0.21697200 0.43847600 0.48720200
v 0.21660100 0.43839500 0.49204300
v 0.21989000 0.44340300 0.48260600
v 0.06931700 0.30615800 0.49171300
v 0.06239580 0.30257000 0.48662800
v 0.06497190 0.30206900 0.48765600
v 0.06513980 0.30167500 0.49117700
v 0.06359190 0.30172400 0.49316100
v 0.06314310 0.30409900 0.49448800
v 0.05961260 0.30739600 0.49213000
v 0.06265790 0.30886200 0.49582300
v 0.06035500 0.31392100 0.49071100
v 0.05914200 0.30530000 0.48966100
v 0.06088880 0.30645100 0.48714400
v 0.02500000 0.02500000 0.48354800
v 0.37401500 0.24841200 0.44534900
v 0.37346900 0.24826200 0.44957700
v 0.27997000 0.40492600 0.41527000
v 0.16611800 0.26166900 0.35577300
v 0.16160900 0.26559400 0.34989900
v 0.16039900 0.26073900 0.34996700
v 0.16168500 0.25959200 0.35007500
v 0.16267900 0.25786600 0.35198300
v 0.16339500 0.26113700 0.35885400
v 0.16038800 0.25877000 0.35663500
v 0.16158900 0.25731800 0.35554100
v 0.15975700 0.26058600 0.35707600
v 0.15785300 0.26137500 0.35328000
v 0.15865900 0.26715600 0.35634700
v 0.15863100 0.26377700 0.35186800
v 0.12415600 0.02500000 0.28773500
v 0.41118000 0.25334900 0.51386700
v 0.40937200 0.25237700 0.51266900
v 0.41128100 0.25126200 0.51162000
v 0.41308100 0.25226400 0.51283300
v 0.40964400 0.23832900 0.52262100
v 0.40964000 0.23740200 0.52202800
v 0.41035600 0.23781100 0.52235200
v 0.41060000 0.24236500 0.51896100
v 0.41284800 0.24095600 0.51855200
v 0.41221700 0.24296700 0.51934900
f 651 652 650
f 650 652 653
f 654 653 652
f 654 652 655
f 656 654 655
f 657 654 656
f 657 656 658
f 660 658 659
f 658 656 659
f 662 660 661
f 660 659 661
f 664 662 663
f 662 661 663
f 664 663 665
f 651 666 663
f 665 663 666
f 666 651 650
f 668 669 667
f 670 669 668
f 671 670 668
f 671 668 672
f 668 673 672
f 674 672 673
f 675 676 673
f 674 673 676
f 677 676 675
f 678 677 675
f 677 678 679
f 678 680 679
f 681 682 680
f 679 680 682
f 683 682 681
f 684 682 683
f 685 684 683
f 686 684 685
f 669 686 667
f 686 685 667
f 688 689 687
f 690 687 689
f 691 692 688
f 689 688 692
f 693 692 691
f 694 695 693
f 695 692 693
f 695 694 696
f 697 695 696
f 697 696 698
f 699 697 698
f 701 699 700
f 698 700 699
f 703 701 702
f 700 702 701
f 703 702 704
f 706 703 705
f 704 705 703
f 690 706 687
f 706 705 687
f 708 709 707
f 710 708 707
f 707 711 710
f 712 710 711
f 711 713 712
f 714 712 713
f 713 715 714
f 716 714 715
f 717 718 715
f 716 715 718
f 718 717 720
f 717 719 720
f 720 709 708
f 721 709 720
f 719 721 720
f 723 724 722
f 724 725 722
f 724 723 726
f 727 728 726
f 728 724 726
f 729 728 727
f 730 729 727
f 727 731 730
f 732 730 731
f 733 732 731
f 734 732 733
f 734 733 735
f 737 734 736
f 736 734 735
f 737 736 738
f 737 738 739
f 738 740 739
f 740 722 739
f 722 725 739
f 742 743 741
f 744 742 741
f 745 741 743
f 743 746 745
f 745 746 747
f 748 747 746
f 748 746 749
f 748 749 750
f 752 750 751
f 750 749 751
f 753 752 751
f 754 752 753
f 753 755 754
f 755 756 754
f 757 756 755
f 756 757 758
f 757 742 758
f 758 742 744
f 760 761 759
f 761 762 759
f 759 762 763
f 762 764 763
f 764 765 763
f 767 761 766
f 760 766 761
f 767 766 768
f 766 769 768
f 771 768 770
f 768 769 770
f 771 770 772
f 770 773 772
f 774 772 773
f 775 774 773
f 775 773 776
f 763 765 776
f 776 765 775
f 779 777 778
f 778 777 780
f 778 781 779
f 782 779 781
f 783 784 777
f 780 777 784
f 783 785 784
f 786 784 785
f 786 785 787
f 788 789 787
f 786 787 789
f 788 790 789
f 789 790 791
f 790 792 791
f 792 793 791
f 793 794 791
f 791 794 795
f 794 796 795
f 781 795 782
f 796 782 795
f 801 798 800
f 799 800 798
f 801 802 803
f 797 1 802
f 801 797 802
f 803 802 1
f 6 804 9
f 805 9 804
f 11 805 806
f 807 11 806
f 806 808 807
f 808 809 807
f 16 15 810
f 807 810 15
f 810 807 811
f 811 807 809
f 418 813 812
f 418 814 813
f 812 813 816
f 813 815 816
f 819 817 818
f 820 817 819
f 822 823 821
f 822 825 824
f 824 826 823
f 827 828 816
f 816 828 829
f 821 823 827
f 827 823 828
f 826 828 823
f 832 833 831
f 834 833 832
f 831 833 830
f 836 837 835
f 834 835 838
f 838 833 834
f 842 843 841
f 841 839 842
f 841 840 839
f 843 842 844
f 845 843 844
f 848 849 847
f 848 847 846
f 850 849 848
f 852 853 851
f 821 854 822
f 849 850 853
f 856 857 855
f 855 858 856
f 859 856 858
f 860 861 858
f 862 863 860
f 863 861 860
f 858 861 859
f 864 859 861
f 863 865 861
f 865 864 861
f 866 856 859
f 859 864 866
f 867 864 865
f 868 866 864
f 864 867 868
f 869 868 867
f 871 872 870
f 873 870 872
f 874 875 871
f 875 872 871
f 876 811 874
f 811 875 874
f 872 875 873
f 877 873 875
f 811 809 875
f 809 877 875
f 870 873 878
f 879 878 873
f 880 878 879
f 873 877 879
f 881 879 877
f 877 809 881
f 808 881 809
f 879 881 880
f 882 880 881
f 881 808 882
f 883 882 808
f 885 886 884
f 887 884 886
f 884 888 885
f 884 889 888
f 889 884 890
f 890 884 891
f 884 892 891
f 884 887 892
f 893 892 887
f 894 893 887
f 895 893 726
f 893 727 726
f 726 723 895
f 727 893 731
f 731 893 894
f 886 894 887
f 896 894 886
f 733 894 896
f 733 896 735
f 735 896 736
f 736 896 897
f 896 886 885
f 897 896 885
f 888 897 885
f 889 740 897
f 740 738 897
f 888 889 897
f 740 889 722
f 895 889 890
f 891 895 890
f 722 895 723
f 722 889 895
f 892 893 895
f 891 892 895
f 894 733 731
f 664 665 739
f 897 738 736
f 734 737 898
f 739 665 737
f 665 898 737
f 650 898 666
f 666 898 665
f 899 662 664
f 899 660 662
f 739 725 664
f 725 899 664
f 724 899 725
f 658 660 899
f 724 658 899
f 724 657 658
f 728 657 724
f 729 654 657
f 730 654 729
f 728 729 657
f 730 653 654
f 732 653 730
f 732 734 653
f 650 653 898
f 898 653 734
f 659 656 901
f 903 901 656
f 905 903 904
f 655 904 903
f 906 902 901
f 901 903 906
f 908 830 907
f 903 908 906
f 909 908 903
f 656 655 903
f 904 910 905
f 912 910 904
f 911 912 904
f 655 652 904
f 652 911 904
f 652 913 911
f 911 914 912
f 913 914 911
f 913 900 914
f 913 652 651
f 915 837 914
f 915 914 900
f 651 900 913
f 916 915 900
f 663 916 900
f 900 651 663
f 916 663 917
f 661 918 917
f 902 919 918
f 663 661 917
f 919 907 920
f 661 659 918
f 659 902 918
f 902 659 901
f 917 918 919
f 920 921 919
f 902 907 919
f 902 906 907
f 921 920 833
f 907 830 920
f 920 830 833
f 923 831 922
f 831 830 922
f 906 908 907
f 922 830 908
f 908 924 922
f 926 923 925
f 922 925 923
f 927 925 924
f 909 924 908
f 905 909 903
f 924 909 927
f 928 927 909
f 909 905 928
f 910 928 905
f 927 929 925
f 929 931 925
f 930 929 927
f 928 930 927
f 910 930 928
f 910 912 930
f 835 931 929
f 836 835 929
f 930 932 929
f 932 836 929
f 930 912 932
f 837 836 932
f 914 837 932
f 837 838 835
f 912 914 932
f 921 838 837
f 921 833 838
f 915 921 837
f 915 919 921
f 916 919 915
f 917 919 916
f 925 934 933
f 835 934 931
f 925 931 934
f 935 933 934
f 936 934 835
f 937 936 835
f 935 934 936
f 938 939 936
f 940 939 938
f 938 936 937
f 941 938 937
f 940 938 942
f 942 938 941
f 943 937 835
f 942 941 944
f 941 937 943
f 834 943 835
f 944 941 946
f 947 948 945
f 945 949 941
f 941 949 946
f 834 947 943
f 943 945 941
f 946 949 950
f 943 947 945
f 948 952 951
f 948 947 952
f 951 952 953
f 840 832 831
f 834 952 947
f 843 952 834
f 841 832 840
f 832 841 834
f 841 843 834
f 955 840 954
f 840 831 954
f 831 923 954
f 926 925 933
f 926 954 923
f 924 925 922
f 287 956 192
f 954 926 933
f 933 956 954
f 192 956 933
f 192 933 193
f 193 933 935
f 939 935 936
f 193 939 194
f 935 939 193
f 957 194 939
f 196 194 957
f 958 197 196
f 959 958 196
f 957 959 196
f 960 958 959
f 961 200 958
f 958 200 197
f 958 960 961
f 962 961 960
f 200 961 201
f 963 201 961
f 961 962 963
f 862 963 962
f 962 964 862
f 964 863 862
f 960 964 962
f 964 965 863
f 965 865 863
f 960 966 964
f 966 965 964
f 967 959 940
f 959 967 960
f 967 966 960
f 959 957 940
f 957 939 940
f 965 968 865
f 968 867 865
f 966 968 965
f 867 968 869
f 969 869 968
f 967 968 966
f 969 968 967
f 967 940 970
f 869 969 971
f 972 973 969
f 971 969 974
f 973 974 969
f 967 972 969
f 970 972 967
f 942 970 940
f 975 972 970
f 970 942 975
f 974 973 976
f 977 976 973
f 973 972 977
f 976 977 978
f 979 978 977
f 977 972 979
f 980 979 972
f 944 975 942
f 972 975 980
f 975 981 980
f 944 981 975
f 978 979 982
f 983 982 979
f 980 983 979
f 983 984 982
f 980 985 983
f 981 985 980
f 944 946 981
f 983 986 984
f 986 987 984
f 985 986 983
f 986 870 987
f 981 988 985
f 946 988 981
f 950 988 946
f 986 989 870
f 985 990 986
f 990 989 986
f 870 989 871
f 991 871 989
f 990 991 989
f 988 990 985
f 988 992 990
f 992 993 990
f 950 992 988
f 991 994 871
f 994 874 871
f 990 993 991
f 993 994 991
f 994 995 874
f 995 876 874
f 993 996 994
f 996 995 994
f 997 992 950
f 992 996 993
f 998 996 992
f 949 997 950
f 999 997 949
f 1000 997 999
f 1000 343 997
f 999 949 948
f 949 945 948
f 999 1003 1002
f 1002 1000 999
f 1003 999 948
f 1005 1003 1004
f 1005 1006 1002
f 1003 948 951
f 1004 1006 1005
f 1007 1008 1006
f 1007 1006 1004
f 1002 1003 1005
f 951 1009 1004
f 1004 1009 1007
f 1007 1010 1008
f 1010 1011 1008
f 1009 1010 1007
f 1003 951 1004
f 1009 951 953
f 953 952 1012
f 854 953 1012
f 1012 952 1013
f 1012 1013 849
f 847 849 1013
f 1013 952 843
f 847 1013 843
f 845 847 843
f 1015 847 1014
f 847 845 1014
f 1016 1015 1014
f 1017 1018 1014
f 1014 1018 1016
f 1018 1019 1016
f 845 1020 1017
f 1014 845 1017
f 1021 1018 1017
f 1017 1022 1021
f 1022 1023 1021
f 1017 1020 1022
f 845 844 1020
f 844 1024 1020
f 1022 1025 1023
f 1026 1025 1022
f 1025 1027 1023
f 1027 1025 1028
f 1020 1026 1022
f 1024 1026 1020
f 1028 1025 1026
f 1029 1028 1026
f 1029 1026 1024
f 844 1030 1024
f 1032 1030 1031
f 844 1033 1030
f 1033 1031 1030
f 1034 1032 1031
f 1035 1032 1034
f 1033 844 842
f 842 1031 1033
f 1034 1036 1037
f 842 839 1031
f 839 1034 1031
f 1034 1038 1036
f 839 1038 1034
f 1039 1037 1036
f 1041 1042 1040
f 1036 1041 1040
f 840 1038 839
f 1038 1041 1036
f 1043 1041 1038
f 1042 1041 1044
f 1041 1045 1044
f 1043 1021 1045
f 1043 1045 1041
f 1038 840 1046
f 1044 1045 1027
f 1023 1027 1045
f 1046 1021 1043
f 1021 1023 1045
f 840 955 1046
f 1046 1018 1021
f 1043 1038 1046
f 955 956 1018
f 1046 955 1018
f 1019 1018 956
f 287 1019 956
f 1019 287 399
f 955 954 956
f 288 1047 289
f 1047 1048 289
f 290 1049 288
f 1049 1047 288
f 1047 1050 1048
f 1050 1051 1048
f 1049 1052 1047
f 1052 1050 1047
f 291 1053 290
f 1053 1049 290
f 292 1054 291
f 1054 1053 291
f 1053 1055 1049
f 1055 1052 1049
f 1053 1054 1055
f 857 1055 1054
f 1054 1056 857
f 1056 855 857
f 292 303 1054
f 303 1056 1054
f 1056 1057 855
f 1057 858 855
f 303 305 1056
f 305 1057 1056
f 1057 1058 858
f 1058 860 858
f 1057 305 1058
f 307 1058 305
f 860 1058 862
f 963 862 1058
f 1058 307 963
f 201 963 307
f 1050 1059 1051
f 1059 1060 1051
f 1050 1052 1059
f 1061 1059 1052
f 1059 1062 1060
f 1062 1063 1060
f 1061 1064 1059
f 1064 1062 1059
f 1052 1055 1061
f 1065 1061 1055
f 1055 857 1065
f 856 1065 857
f 1061 1065 1064
f 1066 1064 1065
f 1065 856 1066
f 866 1066 856
f 1062 1067 1063
f 1067 1068 1063
f 1064 1069 1062
f 1069 1067 1062
f 1067 976 1068
f 976 978 1068
f 1069 974 1067
f 974 976 1067
f 1066 1070 1064
f 1070 1069 1064
f 1066 866 1070
f 868 1070 866
f 1070 971 1069
f 971 974 1069
f 868 869 1070
f 869 971 1070
f 1051 1060 1071
f 1072 1071 1060
f 1060 1063 1072
f 1073 1072 1063
f 1071 1072 1074
f 1075 1074 1072
f 1072 1073 1075
f 1076 1075 1073
f 1063 1068 1073
f 1077 1073 1068
f 1068 978 1077
f 982 1077 978
f 1073 1077 1076
f 1078 1076 1077
f 1077 982 1078
f 984 1078 982
f 1074 1075 1079
f 1080 1079 1075
f 1075 1076 1080
f 1081 1080 1076
f 1079 1080 883
f 882 883 1080
f 1080 1081 882
f 880 882 1081
f 1076 1078 1081
f 1082 1081 1078
f 1078 984 1082
f 987 1082 984
f 1081 1082 880
f 878 880 1082
f 1082 987 878
f 870 878 987
f 1051 1071 1048
f 1083 1048 1071
f 1071 1074 1083
f 1084 1083 1074
f 1048 1083 289
f 334 289 1083
f 1083 1084 334
f 335 334 1084
f 1074 1079 1084
f 804 1084 1079
f 883 805 1079
f 805 804 1079
f 1084 804 335
f 6 335 804
f 805 883 806
f 808 806 883
f 810 1085 16
f 1085 336 16
f 811 876 810
f 876 1085 810
f 1085 1086 336
f 1086 338 336
f 1085 876 1086
f 995 1086 876
f 338 1086 339
f 1087 339 1086
f 1086 995 1087
f 996 1087 995
f 998 342 339
f 1087 998 339
f 1087 996 998
f 343 342 998
f 343 998 997
f 997 998 992
f 346 343 1001
f 1001 343 1000
f 1002 1001 1000
f 348 346 1001
f 1088 348 1001
f 1001 1002 1088
f 348 1088 349
f 1089 349 1088
f 1088 1002 1089
f 1006 1089 1002
f 349 1089 352
f 1090 352 1089
f 1089 1006 1090
f 1008 1090 1006
f 352 1090 354
f 1091 354 1090
f 1090 1008 1091
f 1091 1092 354
f 1092 355 354
f 1008 1011 1091
f 1011 1092 1091
f 1092 1093 355
f 1093 358 355
f 1011 1094 1092
f 1094 1093 1092
f 1093 1095 358
f 1095 359 358
f 1094 1096 1093
f 1096 1095 1093
f 359 1095 803
f 1096 817 1095
f 1096 1097 817
f 1094 1097 1096
f 1011 1010 1094
f 1010 1097 1094
f 1010 1009 1097
f 1009 1098 1097
f 817 1097 1098
f 1009 1099 1098
f 817 1098 818
f 818 1098 821
f 953 1099 1009
f 1098 1099 821
f 821 1099 953
f 849 854 1012
f 849 853 854
f 854 853 852
f 825 822 852
f 822 854 852
f 1101 1102 1100
f 825 852 1101
f 852 1103 1101
f 1103 1102 1101
f 1102 1103 1104
f 1103 852 1107
f 1104 1103 1107
f 1108 1104 1107
f 1109 1110 1108
f 1107 1109 1108
f 1105 1106 1107
f 1106 1109 1107
f 1110 1109 1111
f 1112 1111 1109
f 1109 1106 1112
f 1113 1112 1106
f 852 1105 1107
f 1114 1113 1106
f 1106 1105 1114
f 1105 1115 1114
f 851 1116 1105
f 1105 1116 1115
f 1105 852 851
f 853 850 851
f 851 1117 1116
f 850 1117 851
f 1117 1119 1116
f 1120 1119 1117
f 1120 1121 1119
f 1122 1121 1120
f 1117 850 1120
f 848 1120 850
f 1120 846 1122
f 848 846 1120
f 846 1123 1122
f 846 1124 1123
f 847 1124 846
f 1125 1122 1123
f 1123 1126 1125
f 1124 1126 1123
f 1126 1127 1125
f 1126 1110 1127
f 1124 1128 1126
f 1128 1110 1126
f 1110 1111 1127
f 1128 1108 1110
f 1108 1128 1104
f 1128 1015 1104
f 1124 847 1128
f 1128 847 1015
f 1129 1104 1015
f 373 1104 1129
f 1129 398 373
f 1015 1016 1129
f 1129 1016 398
f 398 1016 399
f 1016 1019 399
f 1130 1131 400
f 401 1130 400
f 800 1130 401
f 1133 1132 1131
f 1131 1130 1133
f 1134 1133 1130
f 820 803 817
f 1095 817 803
f 2 359 803
f 1133 1135 1132
f 1135 1136 1132
f 1137 1136 1135
f 1133 1134 1135
f 819 818 1135
f 1134 819 1135
f 820 819 1134
f 818 1137 1135
f 821 1137 818
f 821 953 854
f 1132 1136 1138
f 815 1136 1137
f 827 816 815
f 1137 821 827
f 815 1137 827
f 1139 1131 1132
f 1132 1138 1139
f 1131 1139 400
f 1139 414 400
f 1140 414 1139
f 416 814 418
f 814 1138 815
f 419 418 812
f 419 812 1141
f 1142 812 1143
f 1141 812 1142
f 816 1143 812
f 1144 1145 1143
f 1144 1143 816
f 1146 1147 1145
f 1144 1146 1145
f 1148 1147 1146
f 816 829 1144
f 829 1149 1144
f 1144 1149 1146
f 1148 1150 1147
f 1146 1151 1148
f 1148 1152 1150
f 1152 1153 1150
f 1151 1154 1148
f 1154 1152 1148
f 1151 1146 1149
f 1151 1149 1154
f 1155 1154 1149
f 1149 1156 1155
f 1156 1157 1155
f 1156 1158 1157
f 1158 1159 1157
f 829 828 1149
f 828 1156 1149
f 1160 1158 1156
f 828 1160 1156
f 1162 1159 1161
f 1158 1161 1159
f 1160 1163 1158
f 1163 1164 1158
f 826 1160 828
f 826 1163 1160
f 1161 1164 1165
f 1165 1164 1166
f 1164 1163 1166
f 1163 1167 1166
f 1168 1169 1166
f 1167 1170 1168
f 826 1167 1163
f 824 1167 826
f 822 824 823
f 1167 824 1170
f 824 1171 1170
f 825 1171 824
f 1170 1172 1168
f 1171 1173 1170
f 1174 1172 1170
f 1171 825 1175
f 825 1101 1175
f 1174 1153 1172
f 1173 1174 1170
f 1174 1150 1153
f 1147 1150 1174
f 1145 1173 1171
f 1173 1147 1174
f 1145 1147 1173
f 1176 1145 1175
f 1176 1143 1145
f 1175 1145 1171
f 1101 1143 1176
f 1101 1142 1143
f 1175 1101 1176
f 1100 1142 1101
f 1141 1142 1100
f 419 1141 455
f 455 1100 1102
f 455 1102 373
f 373 1102 1104
f 1141 1100 455
f 1172 1177 1168
f 716 1169 1168
f 716 1168 1177
f 1153 1177 1172
f 1178 1177 1153
f 1178 714 1177
f 1177 714 716
f 1179 1180 714
f 712 714 1180
f 1179 714 1178
f 1178 1153 1152
f 1179 1178 1152
f 1154 1180 1179
f 1154 1179 1152
f 1154 1155 1180
f 710 712 1181
f 708 710 1181
f 1159 708 1181
f 1157 1181 1180
f 1155 1157 1180
f 1157 1159 1181
f 1159 1162 708
f 1162 720 708
f 1161 720 1162
f 1164 1161 1158
f 1161 1182 720
f 1165 1182 1161
f 1169 718 1182
f 1165 1169 1182
f 718 720 1182
f 718 1169 716
f 1166 1169 1165
f 1167 1168 1166
f 713 1183 715
f 711 1184 713
f 707 1185 711
f 1180 1181 712
f 709 1187 1186
f 1186 795 781
f 707 709 1186
f 709 721 1187
f 1188 1187 721
f 1185 707 1186
f 1187 795 1186
f 791 795 1187
f 1188 791 1187
f 721 719 1188
f 791 1188 789
f 1189 1188 719
f 717 1189 719
f 789 1188 1189
f 789 1189 786
f 1190 786 1189
f 717 1190 1189
f 784 786 1190
f 1183 784 1190
f 1190 717 715
f 1183 713 784
f 713 780 784
f 715 1183 1190
f 778 780 1185
f 781 778 1185
f 711 713 1184
f 780 713 1185
f 1185 713 711
f 781 1185 1186
f 785 783 1193
f 1191 1193 783
f 1194 1195 1192
f 1193 1194 1192
f 1193 1197 1194
f 1197 1198 1194
f 1197 1193 1191
f 1197 1199 1198
f 777 1191 783
f 779 1199 1197
f 1191 779 1197
f 777 779 1191
f 779 796 1199
f 1200 1201 1199
f 1199 796 1200
f 796 779 782
f 796 793 1200
f 793 1202 1200
f 792 1202 793
f 794 793 796
f 1203 1196 1202
f 792 1203 1202
f 790 1203 792
f 788 1203 790
f 1203 1192 1196
f 787 1192 1203
f 787 1203 788
f 787 785 1192
f 785 1193 1192
f 1202 1196 1201
f 1201 1196 1195
f 1195 1196 1192
f 1194 1201 1195
f 1198 1201 1194
f 1201 1198 1199
f 1202 1201 1200
f 1204 1122 1125
f 1127 1205 1125
f 1205 1204 1125
f 689 1122 1204
f 689 1204 1205
f 1111 1206 1127
f 1206 1205 1127
f 1206 690 1205
f 1205 690 689
f 1206 1207 690
f 1208 706 1207
f 1112 1207 1206
f 1111 1112 1206
f 1112 1113 1207
f 1115 703 706
f 1208 1115 706
f 1113 1208 1207
f 1114 1208 1113
f 1118 701 703
f 1115 1118 703
f 1114 1115 1208
f 1118 1115 1116
f 1116 699 701
f 1118 1116 701
f 695 697 699
f 1116 1119 699
f 1119 695 699
f 695 1119 1121
f 1121 692 695
f 1122 692 1121
f 692 1122 689
f 687 1209 688
f 705 1210 687
f 1207 706 690
f 1210 705 704
f 698 696 760
f 766 760 696
f 763 704 700
f 700 760 759
f 763 700 759
f 760 700 698
f 696 694 766
f 769 766 694
f 769 691 770
f 693 691 694
f 691 1211 770
f 1211 691 688
f 1211 1209 773
f 773 770 1211
f 773 1209 776
f 1211 688 1209
f 1210 776 1209
f 687 1210 1209
f 704 763 776
f 702 700 704
f 1210 704 776
f 694 691 769
f 774 771 772
f 775 1212 774
f 774 1214 1213
f 1212 1215 1214
f 774 1212 1214
f 1215 1217 1216
f 1212 775 765
f 765 1217 1212
f 1212 1217 1215
f 765 764 1217
f 1217 764 1219
f 764 761 1219
f 762 761 764
f 1219 1220 1218
f 761 1220 1219
f 1218 1217 1219
f 1218 1222 1221
f 767 1220 761
f 1220 1222 1218
f 768 1222 1220
f 767 768 1220
f 771 1213 1222
f 1213 771 774
f 768 771 1222
f 1221 1222 1223
f 1222 1213 1223
f 1214 1223 1213
f 1215 1223 1214
f 1215 1216 1223
f 1223 1216 1217
f 1218 1223 1217
f 1221 1223 1218
f 1044 1224 1042
f 1225 1224 1044
f 680 1042 1224
f 1225 681 1224
f 678 1039 1040
f 678 1040 680
f 1042 680 1040
f 675 1039 678
f 1224 681 680
f 1225 683 681
f 1027 1225 1044
f 1028 683 1225
f 1027 1028 1225
f 1029 1030 683
f 1030 685 683
f 1028 1029 683
f 1030 667 685
f 1024 1030 1029
f 1032 667 1030
f 1035 668 667
f 1032 1035 667
f 668 1037 673
f 1037 675 673
f 1035 1037 668
f 1035 1034 1037
f 1039 675 1037
f 1040 1039 1036
f 686 1226 684
f 686 669 1226
f 669 670 743
f 1226 669 743
f 742 1226 743
f 670 746 743
f 670 671 746
f 671 749 746
f 674 751 749
f 672 749 671
f 674 749 672
f 674 676 751
f 753 751 676
f 755 753 677
f 676 677 753
f 679 755 677
f 755 682 757
f 679 682 755
f 757 682 1226
f 742 757 1226
f 1226 682 684
f 758 1227 756
f 754 1228 752
f 756 1227 754
f 1229 1228 754
f 754 1231 1230
f 754 1227 1231
f 1234 1231 1227
f 1227 758 1232
f 744 1232 758
f 1233 1227 1232
f 1234 1227 1233
f 1232 1235 1233
f 744 1235 1232
f 741 1235 744
f 741 745 1235
f 745 1237 1235
f 1238 1235 1237
f 745 747 1237
f 1236 1235 1238
f 747 748 1237
f 1237 748 1238
f 1238 750 1228
f 750 752 1228
f 1228 1229 1238
f 1230 1229 754
f 748 750 1238
f 1236 1238 1239
f 1238 1229 1239
f 1229 1230 1239
f 1231 1239 1230
f 1234 1239 1231
f 1234 1233 1239
f 1235 1239 1233
f 1236 1239 1235
f 1139 1138 1241
f 1240 1139 1241
f 1138 814 1242
f 1241 1138 1242
f 814 1140 1242
f 1243 1242 1140
f 1240 1243 1140
f 1140 1139 1240
f 414 1140 416
f 416 1140 814
f 1138 1136 815
f 813 814 815
f 1245 1246 1244
f 1245 1242 1248
f 1246 1245 1248
f 1249 1246 1248
f 1244 1246 1249
f 1240 1247 1249
f 1240 1241 1247
f 1247 1245 1244
f 1241 1245 1247
f 1241 1242 1245
f 1243 1248 1242
f 1249 1248 1243
f 1240 1249 1243
f 1249 1247 1244
f 1 797 800
f 820 798 803
f 820 1134 798
f 798 1134 799
f 1134 1130 799
f 800 799 1130
f 801 800 797
f 401 1 800
f 801 803 798
f 803 1 2
f 805 11 9
f 807 15 11
f 131 132 121
f 131 121 129
f 129 128 131
f 131 128 130
f 128 136 130
f 128 127 136
f 136 127 126
f 126 125 135
f 136 126 135
f 125 123 134
f 135 125 134
f 123 120 133
f 134 123 133
f 133 120 119
f 122 132 133
f 133 119 122
f 132 122 121
f 601 588 586
f 601 602 588
f 602 594 588
f 588 594 593
f 591 588 593
f 593 595 591
f 596 580 591
f 591 595 596
f 596 608 580
f 608 579 580
f 579 608 597
f 577 579 597
f 598 581 577
f 577 597 598
f 598 582 581
f 598 599 582
f 599 584 582
f 599 600 584
f 600 601 586
f 584 600 586
f 520 538 539
f 539 523 520
f 522 537 538
f 538 520 522
f 522 536 537
f 532 534 536
f 522 532 536
f 534 532 535
f 532 531 535
f 535 531 544
f 531 529 544
f 529 528 543
f 543 544 529
f 528 526 542
f 542 543 528
f 542 526 541
f 526 525 540
f 540 541 526
f 525 523 539
f 540 525 539
f 477 466 476
f 466 465 476
f 475 476 465
f 465 461 475
f 474 475 461
f 461 460 474
f 473 474 460
f 460 457 473
f 459 472 473
f 473 457 459
f 472 459 468
f 470 472 468
f 477 468 466
f 477 471 468
f 471 470 468
f 111 97 107
f 110 111 107
f 97 111 96
f 112 98 96
f 111 112 96
f 112 113 98
f 113 114 98
f 99 98 114
f 114 115 99
f 115 100 99
f 115 116 100
f 100 116 101
f 116 117 103
f 116 103 101
f 103 117 105
f 105 117 109
f 106 105 109
f 107 106 109
f 110 107 109
f 603 611 615
f 611 614 615
f 615 616 603
f 604 603 616
f 604 616 617
f 617 618 604
f 604 618 605
f 605 618 619
f 619 620 606
f 605 619 606
f 620 607 606
f 620 621 607
f 609 607 621
f 622 609 621
f 622 610 609
f 610 622 613
f 611 610 613
f 611 613 614
f 559 545 547
f 558 559 547
f 558 547 555
f 557 558 555
f 556 557 555
f 559 560 546
f 546 545 559
f 546 560 561
f 548 546 561
f 561 562 549
f 548 561 549
f 549 562 563
f 551 549 563
f 563 564 551
f 564 565 551
f 551 565 553
f 556 555 553
f 556 553 565
f 494 495 490
f 494 490 489
f 492 490 495
f 495 496 492
f 487 505 494
f 494 489 487
f 504 505 487
f 487 485 504
f 504 485 503
f 483 502 503
f 503 485 483
f 501 502 483
f 501 483 482
f 500 501 482
f 499 500 482
f 498 499 482
f 498 482 481
f 497 498 481
f 481 492 496
f 496 497 481
f 500 515 501
f 3 2 1
f 646 4 648
f 648 647 646
f 649 4 5
f 2 3 649
f 3 4 649
f 649 5 2
f 7 6 9
f 9 8 7
f 8 11 10
f 11 12 10
f 13 10 12
f 14 13 12
f 15 16 17
f 17 12 15
f 12 17 18
f 12 18 14
f 22 417 21
f 415 417 22
f 22 21 24
f 23 22 24
f 25 27 408
f 25 26 27
f 32 31 409
f 30 31 33
f 34 33 32
f 36 35 24
f 36 24 428
f 32 409 35
f 32 35 36
f 36 34 32
f 41 38 37
f 41 39 38
f 41 37 40
f 170 168 42
f 42 39 43
f 41 43 39
f 46 47 45
f 48 45 47
f 44 45 48
f 47 46 274
f 46 49 274
f 51 52 50
f 50 52 390
f 51 53 52
f 54 55 384
f 367 409 31
f 53 51 54
f 57 66 56
f 58 56 66
f 66 59 58
f 61 60 58
f 63 62 60
f 61 63 60
f 61 58 59
f 59 64 61
f 65 63 61
f 64 65 61
f 66 67 59
f 64 59 67
f 67 68 64
f 65 64 68
f 68 69 65
f 67 70 68
f 69 68 70
f 70 71 69
f 74 73 72
f 72 75 74
f 77 76 73
f 74 77 73
f 18 78 76
f 77 18 76
f 77 74 75
f 75 79 77
f 14 18 77
f 79 14 77
f 75 72 81
f 81 80 75
f 81 82 80
f 79 75 80
f 80 83 79
f 14 79 83
f 83 13 14
f 83 80 82
f 82 84 83
f 13 83 84
f 84 85 13
f 86 88 19
f 19 87 86
f 89 19 88
f 90 19 89
f 19 90 91
f 19 91 92
f 93 19 92
f 87 19 93
f 93 94 87
f 94 95 87
f 94 108 96
f 98 94 96
f 97 96 108
f 94 98 99
f 94 99 95
f 95 86 87
f 95 102 86
f 95 100 102
f 102 100 101
f 102 101 103
f 102 103 104
f 86 102 88
f 102 104 88
f 104 89 88
f 106 90 104
f 105 106 104
f 90 89 104
f 90 106 107
f 90 108 91
f 108 92 91
f 108 107 97
f 90 107 108
f 94 93 108
f 93 92 108
f 100 95 99
f 119 120 109
f 105 104 103
f 117 116 118
f 119 109 117
f 118 119 117
f 118 121 122
f 118 122 119
f 123 124 120
f 125 124 123
f 110 109 120
f 124 110 120
f 124 111 110
f 125 126 124
f 126 111 124
f 127 111 126
f 127 112 111
f 128 113 127
f 128 114 113
f 113 112 127
f 129 114 128
f 129 115 114
f 116 115 129
f 129 121 118
f 129 118 116
f 136 135 137
f 137 139 136
f 139 142 140
f 140 130 139
f 138 141 137
f 139 137 141
f 40 159 156
f 159 139 141
f 159 160 139
f 130 136 139
f 143 140 142
f 143 144 140
f 144 145 140
f 131 130 140
f 145 131 140
f 146 131 145
f 147 145 144
f 147 146 145
f 148 146 147
f 131 146 132
f 170 171 147
f 147 171 148
f 148 132 146
f 149 132 148
f 171 150 148
f 150 149 148
f 150 133 149
f 132 149 133
f 133 150 151
f 152 134 151
f 154 138 152
f 134 133 151
f 156 154 155
f 135 134 152
f 138 135 152
f 135 138 137
f 152 151 153
f 153 154 152
f 154 153 155
f 156 138 154
f 141 138 156
f 156 155 41
f 40 156 41
f 37 158 157
f 40 37 157
f 159 141 156
f 40 157 159
f 161 159 157
f 158 191 162
f 162 157 158
f 162 163 161
f 161 160 159
f 160 142 139
f 160 161 163
f 163 164 160
f 142 160 164
f 164 143 142
f 166 163 162
f 167 166 162
f 166 165 163
f 165 164 163
f 165 143 164
f 144 143 165
f 167 42 166
f 42 168 166
f 169 165 166
f 168 169 166
f 144 165 169
f 168 170 169
f 170 147 169
f 43 170 42
f 147 144 169
f 43 153 170
f 41 155 43
f 153 43 155
f 153 171 170
f 153 150 171
f 153 151 150
f 172 162 173
f 172 42 167
f 167 162 172
f 173 174 172
f 172 175 42
f 175 176 42
f 172 174 175
f 194 177 175
f 194 178 177
f 175 177 176
f 177 180 176
f 177 178 179
f 177 179 180
f 176 181 42
f 180 179 182
f 176 180 181
f 181 39 42
f 180 182 184
f 186 185 183
f 242 183 180
f 242 180 184
f 185 39 181
f 183 181 180
f 242 184 234
f 185 181 183
f 187 186 251
f 185 186 187
f 187 251 255
f 38 44 37
f 187 39 185
f 187 46 39
f 38 45 44
f 45 38 39
f 46 45 39
f 44 188 189
f 37 44 189
f 158 37 189
f 162 191 173
f 189 191 158
f 162 161 157
f 191 189 173
f 287 192 173
f 287 173 189
f 192 193 174
f 173 192 174
f 174 194 175
f 194 174 193
f 194 196 195
f 197 199 196
f 199 198 196
f 198 195 196
f 199 206 198
f 200 202 199
f 200 199 197
f 206 199 202
f 202 203 206
f 202 200 201
f 201 204 202
f 203 202 204
f 204 62 203
f 205 203 62
f 63 205 62
f 205 206 203
f 207 205 63
f 65 207 63
f 208 206 205
f 207 208 205
f 198 209 178
f 209 198 206
f 208 209 206
f 195 198 178
f 194 195 178
f 210 207 65
f 69 210 65
f 210 208 207
f 210 69 71
f 71 211 210
f 210 209 208
f 210 211 209
f 178 209 212
f 211 71 213
f 215 216 211
f 211 213 214
f 214 215 211
f 216 209 211
f 216 212 209
f 212 179 178
f 216 217 212
f 179 212 217
f 215 214 218
f 218 219 215
f 216 215 219
f 219 218 220
f 220 221 219
f 216 219 221
f 221 222 216
f 217 182 179
f 217 216 222
f 227 217 222
f 227 182 217
f 221 220 223
f 223 224 221
f 224 222 221
f 225 224 223
f 226 222 224
f 226 227 222
f 184 182 227
f 228 224 225
f 229 228 225
f 228 226 224
f 72 228 229
f 230 227 226
f 230 184 227
f 230 234 184
f 231 228 72
f 232 226 228
f 231 232 228
f 231 72 73
f 73 233 231
f 233 232 231
f 232 230 226
f 239 230 232
f 236 239 232
f 239 234 230
f 235 233 73
f 76 235 73
f 236 232 233
f 235 236 233
f 237 235 76
f 78 237 76
f 238 236 235
f 237 238 235
f 239 240 234
f 238 239 236
f 238 344 239
f 240 242 234
f 240 241 242
f 240 243 241
f 345 243 240
f 242 241 186
f 183 242 186
f 245 241 244
f 243 244 241
f 241 245 186
f 245 246 248
f 247 246 244
f 186 245 251
f 247 248 246
f 250 249 247
f 247 249 248
f 245 244 246
f 254 251 248
f 254 248 249
f 252 249 250
f 253 252 250
f 252 254 249
f 251 245 248
f 251 254 255
f 187 255 256
f 255 367 256
f 187 256 257
f 257 256 51
f 51 50 257
f 187 257 46
f 257 50 46
f 50 49 46
f 50 258 259
f 49 50 259
f 258 260 259
f 263 261 259
f 263 259 260
f 262 263 260
f 267 49 261
f 49 259 261
f 263 264 261
f 265 261 264
f 266 265 264
f 267 261 265
f 274 49 267
f 272 274 267
f 268 265 266
f 268 271 265
f 269 268 266
f 268 269 270
f 271 267 265
f 271 272 267
f 268 270 271
f 270 585 271
f 271 585 272
f 273 274 272
f 273 587 275
f 276 274 273
f 275 276 273
f 587 277 275
f 587 589 277
f 274 276 47
f 275 47 276
f 589 590 277
f 278 277 590
f 48 47 275
f 277 48 275
f 280 277 278
f 280 48 277
f 590 592 278
f 281 282 279
f 282 278 279
f 280 44 48
f 282 280 278
f 282 283 280
f 282 281 284
f 285 282 284
f 264 283 285
f 285 283 282
f 44 280 286
f 285 284 269
f 269 266 285
f 264 286 283
f 266 264 285
f 188 44 286
f 263 286 264
f 280 283 286
f 190 188 263
f 188 286 263
f 263 262 190
f 287 262 399
f 190 262 287
f 189 188 190
f 287 189 190
f 293 288 289
f 294 293 289
f 295 290 288
f 293 295 288
f 296 293 294
f 297 296 294
f 298 295 293
f 296 298 293
f 299 291 290
f 295 299 290
f 300 292 291
f 299 300 291
f 301 299 295
f 298 301 295
f 300 299 301
f 301 57 300
f 302 300 57
f 56 302 57
f 303 292 300
f 302 303 300
f 304 302 56
f 58 304 56
f 305 303 302
f 304 305 302
f 306 304 58
f 60 306 58
f 305 304 306
f 306 307 305
f 306 60 62
f 62 204 306
f 307 306 204
f 204 201 307
f 308 296 297
f 309 308 297
f 298 296 308
f 308 310 298
f 311 308 309
f 312 311 309
f 313 310 308
f 311 313 308
f 301 298 310
f 310 314 301
f 57 301 314
f 314 66 57
f 314 310 313
f 313 315 314
f 66 314 315
f 315 67 66
f 316 311 312
f 317 316 312
f 318 313 311
f 316 318 311
f 218 316 317
f 220 218 317
f 214 318 316
f 218 214 316
f 319 315 313
f 318 319 313
f 67 315 319
f 319 70 67
f 213 319 318
f 214 213 318
f 71 70 319
f 213 71 319
f 309 297 320
f 320 321 309
f 312 309 321
f 321 322 312
f 321 320 323
f 323 324 321
f 322 321 324
f 324 325 322
f 317 312 322
f 322 326 317
f 220 317 326
f 326 223 220
f 326 322 325
f 325 327 326
f 223 326 327
f 327 225 223
f 324 323 328
f 328 329 324
f 325 324 329
f 329 330 325
f 329 328 85
f 85 84 329
f 330 329 84
f 84 82 330
f 327 325 330
f 330 331 327
f 225 327 331
f 331 229 225
f 331 330 82
f 82 81 331
f 229 331 81
f 81 72 229
f 320 297 294
f 294 332 320
f 323 320 332
f 332 333 323
f 332 294 289
f 289 334 332
f 333 332 334
f 334 335 333
f 328 323 333
f 333 7 328
f 8 85 328
f 7 8 328
f 7 333 335
f 335 6 7
f 85 8 10
f 10 13 85
f 337 17 16
f 336 337 16
f 78 18 17
f 337 78 17
f 340 337 336
f 338 340 336
f 78 337 340
f 340 237 78
f 340 338 339
f 339 341 340
f 237 340 341
f 341 238 237
f 342 344 339
f 344 341 339
f 238 341 344
f 342 343 344
f 343 345 344
f 344 345 240
f 344 240 239
f 345 343 346
f 345 346 347
f 345 347 243
f 347 244 243
f 346 348 347
f 348 350 347
f 244 347 350
f 350 348 349
f 349 351 350
f 244 350 351
f 351 247 244
f 351 349 352
f 352 353 351
f 247 351 353
f 353 250 247
f 353 352 354
f 354 356 353
f 250 353 356
f 357 356 354
f 355 357 354
f 253 250 356
f 357 253 356
f 360 357 355
f 358 360 355
f 361 253 357
f 360 361 357
f 362 360 358
f 359 362 358
f 363 361 360
f 362 363 360
f 362 359 5
f 25 363 362
f 364 363 25
f 364 361 363
f 252 253 361
f 364 252 361
f 254 252 364
f 365 254 364
f 364 25 365
f 366 254 365
f 365 25 408
f 365 408 409
f 366 255 254
f 366 365 409
f 366 409 255
f 367 51 256
f 54 51 367
f 54 367 55
f 31 30 55
f 367 31 55
f 370 368 371
f 55 30 368
f 369 55 368
f 370 369 368
f 369 370 372
f 55 369 374
f 369 372 374
f 370 373 372
f 372 375 374
f 377 374 375
f 378 376 374
f 377 378 374
f 379 380 377
f 378 377 380
f 380 381 378
f 376 55 374
f 381 382 378
f 376 378 382
f 383 376 382
f 385 384 376
f 385 376 383
f 55 376 384
f 53 54 384
f 386 384 385
f 386 53 384
f 387 386 385
f 387 388 386
f 533 388 387
f 533 389 388
f 53 386 388
f 388 52 53
f 390 388 389
f 390 52 388
f 391 390 389
f 393 390 391
f 393 50 390
f 389 392 391
f 394 391 392
f 394 393 391
f 395 394 392
f 396 394 395
f 396 393 394
f 377 396 395
f 379 377 395
f 377 375 396
f 396 397 393
f 375 397 396
f 397 375 372
f 258 397 372
f 50 393 397
f 50 397 258
f 372 373 258
f 258 373 398
f 258 398 260
f 260 398 399
f 262 260 399
f 402 403 400
f 403 401 400
f 403 648 401
f 404 405 402
f 403 402 405
f 405 406 403
f 5 26 25
f 25 362 5
f 359 2 5
f 407 405 404
f 412 407 404
f 412 410 407
f 406 405 407
f 408 27 407
f 27 406 407
f 27 26 406
f 410 408 407
f 410 409 408
f 255 409 367
f 412 404 411
f 412 23 410
f 24 35 23
f 409 410 35
f 410 23 35
f 402 413 404
f 411 404 413
f 413 402 400
f 414 413 400
f 414 638 413
f 415 416 417
f 411 415 23
f 416 418 417
f 417 418 21
f 418 419 21
f 21 419 420
f 21 421 422
f 21 420 421
f 422 24 21
f 423 424 422
f 422 424 24
f 425 426 423
f 426 424 423
f 425 427 426
f 428 24 424
f 429 428 424
f 429 424 426
f 430 427 425
f 431 426 427
f 432 427 430
f 433 432 430
f 434 431 427
f 432 434 427
f 426 431 429
f 429 431 434
f 434 435 429
f 436 429 435
f 437 436 435
f 438 436 437
f 439 438 437
f 36 428 429
f 436 36 429
f 438 440 436
f 440 36 436
f 439 467 442
f 442 438 439
f 443 440 438
f 441 443 438
f 440 34 36
f 443 34 440
f 441 442 444
f 441 444 445
f 445 446 441
f 443 441 446
f 447 446 445
f 448 446 447
f 446 34 443
f 446 33 34
f 33 31 32
f 33 446 448
f 450 33 448
f 450 30 33
f 449 448 447
f 451 450 448
f 449 453 448
f 30 450 452
f 368 30 452
f 433 453 449
f 453 451 448
f 430 453 433
f 430 425 453
f 451 423 450
f 425 451 453
f 425 423 451
f 423 454 452
f 422 454 423
f 423 452 450
f 422 368 454
f 421 368 422
f 368 452 454
f 421 371 368
f 421 420 371
f 420 419 455
f 371 455 370
f 370 455 373
f 371 420 455
f 456 449 447
f 445 457 447
f 447 457 456
f 456 433 449
f 456 458 433
f 460 458 456
f 460 456 457
f 463 462 460
f 460 461 463
f 460 462 458
f 433 458 432
f 458 462 432
f 463 434 462
f 462 434 432
f 435 434 463
f 461 465 464
f 465 466 464
f 466 439 464
f 464 437 463
f 437 435 463
f 439 437 464
f 467 439 466
f 468 467 466
f 468 442 467
f 442 441 438
f 469 442 468
f 469 444 442
f 459 445 469
f 445 444 469
f 468 459 469
f 445 459 457
f 488 474 473
f 491 475 474
f 493 476 475
f 464 463 461
f 479 477 478
f 481 478 492
f 477 476 478
f 471 477 479
f 479 480 471
f 476 493 478
f 481 479 478
f 481 482 479
f 482 480 479
f 470 471 480
f 480 482 483
f 480 484 470
f 484 472 470
f 480 483 484
f 484 483 485
f 485 486 484
f 486 472 484
f 485 487 486
f 487 488 486
f 472 486 473
f 474 488 487
f 489 474 487
f 488 473 486
f 489 490 493
f 490 492 493
f 474 475 491
f 474 489 493
f 474 493 475
f 493 492 478
f 505 504 507
f 507 512 505
f 509 508 506
f 508 507 506
f 510 507 508
f 511 510 508
f 507 510 512
f 513 510 511
f 512 494 505
f 513 495 510
f 495 512 510
f 495 494 512
f 497 495 513
f 29 514 513
f 497 513 514
f 495 497 496
f 499 497 514
f 515 499 514
f 499 498 497
f 515 500 499
f 516 517 515
f 517 501 515
f 517 502 501
f 506 517 516
f 506 503 517
f 517 503 502
f 504 503 506
f 507 504 506
f 516 515 29
f 516 29 509
f 516 509 506
f 29 508 509
f 29 511 508
f 511 29 513
f 29 515 514
f 389 518 392
f 519 395 392
f 518 519 392
f 389 520 518
f 518 520 519
f 521 379 395
f 519 521 395
f 523 521 519
f 523 519 520
f 524 521 523
f 525 527 524
f 524 380 521
f 380 379 521
f 381 380 524
f 526 383 525
f 383 527 525
f 527 381 524
f 527 382 381
f 528 530 526
f 530 383 526
f 383 382 527
f 383 530 385
f 529 385 528
f 385 530 528
f 531 532 529
f 387 385 529
f 532 387 529
f 387 532 533
f 522 533 532
f 522 389 533
f 389 522 520
f 552 539 538
f 554 540 539
f 525 524 523
f 540 554 541
f 535 544 545
f 545 546 535
f 541 555 543
f 545 543 547
f 543 555 547
f 543 545 544
f 534 535 546
f 546 548 534
f 537 548 549
f 537 536 534
f 550 537 549
f 537 550 538
f 552 550 551
f 549 551 550
f 552 551 553
f 538 550 552
f 553 554 552
f 554 539 552
f 555 541 553
f 543 542 541
f 541 554 553
f 537 534 548
f 562 564 563
f 566 565 564
f 568 564 567
f 569 566 568
f 566 564 568
f 571 569 570
f 565 566 556
f 571 556 566
f 571 566 569
f 557 556 571
f 557 571 572
f 559 557 572
f 559 558 557
f 575 572 573
f 575 559 572
f 571 573 572
f 576 573 574
f 575 560 559
f 576 575 573
f 576 561 575
f 561 560 575
f 567 562 576
f 562 567 564
f 562 561 576
f 576 574 20
f 567 576 20
f 20 568 567
f 20 569 568
f 570 569 20
f 570 20 571
f 20 573 571
f 20 574 573
f 578 284 281
f 578 583 284
f 281 577 578
f 581 583 578
f 592 579 279
f 279 579 577
f 577 281 279
f 592 580 579
f 581 578 577
f 582 583 581
f 583 269 284
f 582 270 583
f 270 269 583
f 273 585 582
f 584 273 582
f 585 270 582
f 586 273 584
f 273 272 585
f 586 587 273
f 588 589 586
f 589 587 586
f 590 588 591
f 580 590 591
f 590 589 588
f 580 592 590
f 592 279 278
f 612 600 599
f 601 600 612
f 602 601 603
f 601 612 603
f 612 611 603
f 604 602 603
f 594 602 604
f 605 594 604
f 606 595 605
f 605 593 594
f 605 595 593
f 596 595 606
f 606 607 596
f 607 609 608
f 608 596 607
f 609 597 608
f 598 609 610
f 598 597 609
f 598 610 612
f 610 611 612
f 598 612 599
f 623 613 622
f 634 621 620
f 623 622 621
f 634 633 621
f 625 621 624
f 623 621 625
f 625 626 623
f 613 623 627
f 627 614 613
f 623 628 627
f 623 626 628
f 629 627 628
f 629 614 627
f 629 615 614
f 616 615 629
f 631 616 629
f 629 632 631
f 617 616 631
f 629 630 632
f 618 617 631
f 618 631 632
f 619 632 634
f 620 619 634
f 633 634 632
f 633 624 621
f 619 618 632
f 632 630 28
f 633 632 28
f 624 633 28
f 28 625 624
f 28 626 625
f 628 626 28
f 28 629 628
f 28 630 629
f 411 413 636
f 413 635 636
f 415 411 637
f 411 636 637
f 638 415 637
f 637 639 638
f 639 635 638
f 413 638 635
f 638 414 416
f 638 416 415
f 412 411 23
f 415 22 23
f 640 641 643
f 637 643 644
f 643 641 644
f 641 645 644
f 641 640 645
f 642 635 645
f 636 635 642
f 643 642 640
f 643 636 642
f 637 636 643
f 644 639 637
f 644 645 639
f 645 635 639
f 642 645 640
f 3 1 648
f 646 26 5
f 406 26 646
f 406 646 647
f 403 406 647
f 647 648 403
f 648 4 3
f 1 401 648
f 5 4 646
f 11 8 9
f 15 12 11

